<svg width="25" height="25" viewBox="0 0 25 25" fill="none" xmlns="http://www.w3.org/2000/svg">
<mask id="mask0_1091_1187" style="mask-type:alpha" maskUnits="userSpaceOnUse" x="0" y="0" width="25" height="25">
<rect width="25" height="25" fill="#D9D9D9"/>
</mask>
<g mask="url(#mask0_1091_1187)">
<path d="M5.56233 1.26917C3.28242 1.26917 1.4375 3.48174 1.4375 6.19854C1.4375 8.91534 3.31242 11.1279 5.56233 11.1279C6.0696 11.1293 6.57112 11.0201 7.03227 10.8081L6.69104 10.1383C6.33648 10.2947 5.95339 10.3754 5.56608 10.3753C3.69116 10.3753 2.19122 8.4939 2.19122 6.19854C2.19122 3.90318 3.71366 2.02174 5.56608 2.02174C6.04687 2.0277 6.5181 2.15726 6.93478 2.39803L7.33226 1.75834C6.7942 1.44484 6.18447 1.27633 5.56233 1.26917Z" fill="#EC663B"/>
<path d="M5.5545 0.892883C3.0646 0.892883 1.05469 3.27479 1.05469 6.19855C1.05469 9.12231 3.0796 11.5042 5.5545 11.5042C6.18346 11.5051 6.80339 11.3541 7.36193 11.064L7.53067 10.9774L6.8482 9.63782L6.67946 9.72437C6.33134 9.90376 5.94584 9.99789 5.5545 9.99906C3.89332 9.99906 2.55463 8.29447 2.55463 6.19855C2.55463 4.10262 3.90832 2.39804 5.5545 2.39804C6.03048 2.39787 6.49647 2.53501 6.89695 2.79314L7.05444 2.89097L7.84941 1.61536L7.68816 1.51376C7.04927 1.1096 6.30975 0.894403 5.5545 0.892883ZM5.5545 2.02175C3.67958 2.02175 2.17964 3.90319 2.17964 6.19855C2.17964 8.49391 3.70208 10.3753 5.5545 10.3753C5.94181 10.3754 6.3249 10.2947 6.67946 10.1383L7.02069 10.8081C6.55954 11.0201 6.05802 11.1293 5.55075 11.1279C3.27085 11.1279 1.42592 8.91535 1.42592 6.19855C1.42592 3.48175 3.30084 1.26917 5.55075 1.26917C6.16995 1.27125 6.77819 1.43323 7.31693 1.73953L6.91945 2.37922C6.50212 2.14564 6.03236 2.02261 5.5545 2.02175Z" fill="#110F0F"/>
<path d="M11.4349 11.0527C13.4561 11.0527 15.0985 8.8589 15.0985 6.16091C15.0985 3.46293 13.4561 1.26917 11.4349 1.26917C9.41376 1.26917 7.76758 3.4554 7.76758 6.16091C7.76758 8.86642 9.41376 11.0527 11.4349 11.0527ZM11.4349 2.02174C13.0436 2.02174 14.3486 3.88061 14.3486 6.16091C14.3486 8.44122 13.0436 10.3001 11.4349 10.3001C9.82624 10.3001 8.51755 8.44122 8.51755 6.16091C8.51755 3.88061 9.82624 2.02174 11.4349 2.02174Z" fill="#EC663B"/>
<path d="M11.4349 11.429C13.6623 11.429 15.4735 9.06587 15.4735 6.16092C15.4735 3.25597 13.6623 0.892883 11.4349 0.892883C9.20751 0.892883 7.39258 3.25597 7.39258 6.16092C7.39258 9.06587 9.20751 11.429 11.4349 11.429ZM11.4349 1.26917C13.4561 1.26917 15.0985 3.46293 15.0985 6.16092C15.0985 8.85891 13.4561 11.0527 11.4349 11.0527C9.41375 11.0527 7.76756 8.85891 7.76756 6.16092C7.76756 3.46293 9.41375 1.26917 11.4349 1.26917Z" fill="#110F0F"/>
<path d="M11.4369 10.3C13.0456 10.3 14.3505 8.44117 14.3505 6.16087C14.3505 3.88056 13.0456 2.0217 11.4369 2.0217C9.82823 2.0217 8.51953 3.88056 8.51953 6.16087C8.51953 8.44117 9.82823 10.3 11.4369 10.3ZM11.4369 2.39799C12.8356 2.39799 13.9756 4.08752 13.9756 6.16087C13.9756 8.23422 12.8506 9.92375 11.4369 9.92375C10.0232 9.92375 8.89452 8.23422 8.89452 6.16087C8.89452 4.08752 10.0345 2.39799 11.4369 2.39799Z" fill="#110F0F"/>
<path d="M22.2774 4.92669C22.2774 2.90978 20.89 1.26917 19.1875 1.26917C17.4851 1.26917 16.0977 2.90978 16.0977 4.92669C16.0977 6.43184 16.8851 7.79024 18.0551 8.33209L18.3963 8.49014L17.1664 9.15617C17.1339 9.17352 17.1047 9.19644 17.0801 9.2239C16.9207 9.3908 16.8134 9.60083 16.7714 9.82815C16.7294 10.0555 16.7546 10.2901 16.8439 10.5033C16.9101 10.6834 17.0289 10.8394 17.1848 10.9508C17.3406 11.0622 17.5263 11.1239 17.7176 11.1279H21.7299V10.3753H17.6951L17.6463 10.3377C17.6073 10.3033 17.5758 10.2611 17.5538 10.2138C17.5319 10.1665 17.52 10.1152 17.5188 10.063C17.5126 9.98703 17.5255 9.9107 17.5563 9.84101L17.5826 9.78833L20.08 8.42993C21.3962 7.97086 22.2774 6.51462 22.2774 4.92669ZM20.4437 7.37256C20.2504 7.53358 20.0274 7.65503 19.7875 7.73003C19.4574 7.84143 19.1029 7.85837 18.7638 7.77895C17.6576 7.52684 16.8514 6.32648 16.8514 4.92292C16.8514 3.3237 17.9013 2.01798 19.1913 2.01798C20.4812 2.01798 21.5274 3.32746 21.5274 4.92669C21.5409 5.38979 21.4505 5.85001 21.2629 6.27335C21.0753 6.69669 20.7954 7.07234 20.4437 7.37256Z" fill="#EC663B"/>
<path d="M22.656 4.92669C22.656 2.70283 21.1185 0.892883 19.2061 0.892883C17.2937 0.892883 15.7413 2.70283 15.7413 4.92669C15.7257 5.6317 15.8877 6.32924 16.2121 6.95475C16.5366 7.58027 17.0131 8.11353 17.5974 8.5052L17.005 8.82504C16.9422 8.86156 16.8843 8.9058 16.8325 8.95674C16.6211 9.17741 16.4787 9.45528 16.4227 9.75614C16.3667 10.057 16.3997 10.3677 16.5175 10.65C16.6116 10.8988 16.7782 11.1133 16.9956 11.2657C17.213 11.418 17.471 11.5011 17.7362 11.5042H22.1085V9.99906H17.9837L20.2336 8.7686C21.696 8.24556 22.656 6.69901 22.656 4.92669ZM17.5862 9.79587L17.5599 9.84855C17.5291 9.91823 17.5162 9.99457 17.5224 10.0706C17.5235 10.1227 17.5355 10.1741 17.5574 10.2213C17.5794 10.2686 17.6109 10.3108 17.6499 10.3452L17.6987 10.3829H21.7335V11.1355H17.7362C17.5449 11.1315 17.3592 11.0697 17.2033 10.9583C17.0475 10.8469 16.9287 10.691 16.8625 10.5108C16.7732 10.2977 16.748 10.063 16.79 9.83569C16.832 9.60837 16.9393 9.39833 17.0987 9.23143C17.1233 9.20397 17.1525 9.18105 17.1849 9.1637L18.4149 8.49767L18.0737 8.34716C16.9037 7.8053 16.1162 6.43937 16.1162 4.94175C16.1162 2.92484 17.5037 1.28422 19.2061 1.28422C20.9085 1.28422 22.281 2.90979 22.281 4.92669C22.281 6.51463 21.3848 7.937 20.0686 8.43747L17.5862 9.79587Z" fill="#110F0F"/>
<path d="M21.5275 4.92664C21.5275 3.32742 20.4775 2.0217 19.1876 2.0217C17.8976 2.0217 16.8477 3.32742 16.8477 4.92664C16.8477 6.3302 17.6539 7.53056 18.7601 7.78267C19.0992 7.86209 19.4537 7.84515 19.7838 7.73376L19.6525 7.39133C19.3911 7.47826 19.1109 7.49128 18.8426 7.42896C17.9014 7.21448 17.2189 6.1684 17.2189 4.93793C17.2189 3.54567 18.1001 2.40928 19.1838 2.40928C20.2675 2.40928 21.1487 3.53814 21.1487 4.93793C21.162 5.34301 21.0847 5.74593 20.9225 6.11709C20.7603 6.48826 20.5173 6.81823 20.2113 7.08278L20.4213 7.3951C20.78 7.0947 21.0661 6.71637 21.2577 6.28873C21.4493 5.86109 21.5416 5.39532 21.5275 4.92664Z" fill="#110F0F"/>
<path d="M20.2521 7.06018L19.6934 7.36874L19.8396 7.71116C20.0824 7.63105 20.3067 7.50312 20.4996 7.33487L20.2521 7.06018Z" fill="#110F0F"/>
<path d="M23.7111 17.0431L23.7561 17.2275L23.8011 17.4081L18.4838 18.7402L16.1102 20.9678L20.8237 19.79L20.8687 19.9707L20.9175 20.155L15.5664 21.4909L14.1415 22.8154L18.3676 22.6875C21.8249 22.5821 24.6336 19.9518 24.6298 16.8249V12.9717L19.0463 18.2096L23.7111 17.0431ZM15.2627 21.2049L16.3876 16.3846L16.7626 16.4674L15.7502 20.7947L18.2251 18.473H18.1576L19.2825 13.6528L19.4625 13.6979L19.6463 13.7393L18.6226 18.093L24.3186 12.7384L20.0962 12.8626C16.6389 12.9679 13.8265 15.5982 13.834 18.7289V22.5859L15.2964 21.2124L15.2627 21.2049Z" fill="#85BE4B"/>
<path d="M20.0811 12.4863C16.4212 12.5992 13.4476 15.3987 13.4551 18.7289V23.2143L18.3711 23.0637C22.0272 22.9546 25.0009 20.155 24.9971 16.8211V12.3433L20.0811 12.4863ZM24.6184 12.9679V16.8211C24.6184 19.9481 21.8135 22.5783 18.3561 22.6837L14.1301 22.8116L13.7551 23.154L13.6501 23.0223L13.5226 22.8869L13.8376 22.5896V18.7327C13.8376 15.6019 16.6425 12.9717 20.0998 12.8663L24.3221 12.7384L24.6971 12.3997L24.8246 12.5352L24.9521 12.6744L24.6184 12.9679Z" fill="#110F0F"/>
<path d="M20.9088 20.1551L20.8638 19.9707L20.8188 19.7901L16.1053 20.9678L15.5578 21.4796L15.5615 21.4909L20.9088 20.1551ZM16.3865 16.3847L15.2578 21.2049L15.2953 21.2124L15.7415 20.7948L16.7503 16.4674L16.3865 16.3847ZM23.7512 17.2275L23.7062 17.0432L19.0414 18.2097L18.4789 18.7402L23.7962 17.4082L23.7512 17.2275ZM19.4539 13.6829L19.2739 13.6378L18.1452 18.458L18.2089 18.4731L18.6177 18.093L19.6376 13.7243L19.4539 13.6829Z" fill="#110F0F"/>
<path d="M24.8066 12.5389L24.6791 12.3997L24.3153 12.7384L18.6193 18.093L18.2106 18.473L15.7432 20.7947L15.297 21.2124L13.8345 22.5858L13.5195 22.8831L13.647 23.0186L13.7783 23.1578L14.1383 22.8154L15.5594 21.4796L16.1069 20.9678L18.4806 18.7402L19.0431 18.2096L24.6191 12.9717L24.9341 12.6744L24.8066 12.5389Z" fill="#110F0F"/>
<path d="M9.43283 21.4909L4.08555 20.155L4.17555 19.7788L8.88911 20.9565L6.53045 18.7402L1.19817 17.4081L1.24317 17.2275L1.28817 17.0431L5.95672 18.2096L0.376953 12.9717V16.8249C0.376953 19.9518 3.18184 22.5821 6.64295 22.6875L10.8653 22.8154L9.43658 21.4796L9.43283 21.4909ZM5.35675 13.7243L5.54049 13.6829L5.72048 13.6377L6.84544 18.458H6.78169L9.25284 20.7797L8.24038 16.4524L8.61537 16.3696L9.74032 21.1898H9.70282L11.1653 22.5633V18.7101C11.1653 15.5794 8.36038 12.9491 4.90302 12.8438L0.680691 12.7384L6.37671 18.093L5.35675 13.7243Z" fill="#85BE4B"/>
<path d="M4.91605 12.4863L0 12.3395V16.8174C0 20.1513 2.96988 22.9509 6.62598 23.06L11.542 23.2105V18.7289C11.5458 15.4025 8.57215 12.6029 4.91605 12.4863ZM11.347 23.0224L11.2195 23.1616L10.8446 22.8192L6.62223 22.6912C3.16112 22.5859 0.352485 19.9556 0.356235 16.8287V12.9755L0.0412482 12.6782L0.168743 12.539L0.296238 12.4035L0.671222 12.7422L4.9048 12.8626C8.36215 12.9679 11.1708 15.5982 11.167 18.7289V22.5821L11.482 22.8794L11.3545 23.0148L11.347 23.0224Z" fill="#110F0F"/>
<path d="M4.0866 20.1551L9.43388 21.4909L9.43763 21.4796L8.89015 20.9678L4.1766 19.7901L4.0866 20.1551ZM8.60892 16.3847L8.24518 16.4674L9.25764 20.7948L9.70012 21.2124L9.73762 21.2049L8.60892 16.3847ZM1.24422 17.2275L1.19922 17.4082L6.5165 18.7402L5.95402 18.2097L1.28922 17.0432L1.24422 17.2275ZM5.72153 13.6378L5.54154 13.6829L5.3578 13.7243L6.37776 18.093L6.78649 18.4731L6.85024 18.458L5.72153 13.6378Z" fill="#110F0F"/>
<path d="M11.4731 22.8831L11.1581 22.5858L9.6957 21.2124L9.25322 20.7947L6.78207 18.473L6.37333 18.093L0.677318 12.7384L0.313583 12.3997L0.186089 12.5389L0.0585938 12.6744L0.373581 12.9717L5.9496 18.2096L6.51208 18.7402L8.88573 20.9678L9.43321 21.4796L10.8544 22.8154L11.2181 23.1578L11.3456 23.0186L11.4731 22.8831Z" fill="#110F0F"/>
</g>
</svg>
