<svg width="50" height="40" viewBox="0 0 50 40" fill="none" xmlns="http://www.w3.org/2000/svg">
<path d="M26.8238 35.5817H23.1758C22.9481 35.5817 22.7298 35.4895 22.5688 35.3254C22.4078 35.1612 22.3174 34.9387 22.3174 34.7066V24.8307H19.8281C19.6741 24.8307 19.523 24.7885 19.3905 24.7085C19.2581 24.6284 19.1491 24.5136 19.0752 24.3759C19.0012 24.2382 18.965 24.0827 18.9702 23.9258C18.9755 23.7689 19.022 23.6164 19.1049 23.4841L24.2766 15.2283C24.3542 15.1046 24.4612 15.0027 24.5876 14.9322C24.7139 14.8616 24.8557 14.8246 24.9998 14.8246C25.1439 14.8246 25.2857 14.8616 25.412 14.9322C25.5384 15.0027 25.6454 15.1046 25.723 15.2283L30.8946 23.4841C30.9776 23.6164 31.0241 23.7689 31.0294 23.9258C31.0346 24.0827 30.9984 24.2382 30.9244 24.3759C30.8505 24.5136 30.7415 24.6284 30.6091 24.7085C30.4766 24.7885 30.3255 24.8307 30.1715 24.8307H27.6822V34.7066C27.6822 34.9387 27.5918 35.1612 27.4308 35.3254C27.2698 35.4895 27.0515 35.5817 26.8238 35.5817ZM24.0341 33.8314H25.9655V23.9556C25.9655 23.7235 26.0559 23.5009 26.2169 23.3368C26.3778 23.1727 26.5962 23.0805 26.8238 23.0805H28.6049L24.9998 17.3254L21.3946 23.0805H23.1758C23.4034 23.0805 23.6217 23.1727 23.7827 23.3368C23.9437 23.5009 24.0341 23.7235 24.0341 23.9556V33.8314Z" fill="#D7D7D7"/>
<path d="M0.858369 36.4208C0.630715 36.4208 0.412386 36.3286 0.25141 36.1644C0.090435 36.0003 0 35.7777 0 35.5456V9.73804C0.00141969 8.5571 0.46219 7.42495 1.28125 6.5899C2.10031 5.75484 3.21078 5.28508 4.3691 5.28363H39.6695C40.8279 5.28508 41.9383 5.75484 42.7574 6.5899C43.5764 7.42495 44.0372 8.5571 44.0386 9.73804V11.2816C44.0386 11.5137 43.9482 11.7362 43.7872 11.9004C43.6262 12.0645 43.4079 12.1567 43.1803 12.1567C42.9526 12.1567 42.7343 12.0645 42.5733 11.9004C42.4123 11.7362 42.3219 11.5137 42.3219 11.2816V9.73804C42.321 9.02112 42.0413 8.33382 41.5441 7.82688C41.0469 7.31994 40.3727 7.03476 39.6695 7.03389H4.3691C3.66591 7.03476 2.99177 7.31994 2.49454 7.82688C1.99731 8.33382 1.71759 9.02112 1.71674 9.73804V35.5456C1.71674 35.7777 1.6263 36.0003 1.46533 36.1644C1.30435 36.3286 1.08602 36.4208 0.858369 36.4208Z" fill="#D7D7D7"/>
<path d="M41.7221 40H4.33584C3.18634 39.9986 2.08432 39.5324 1.27151 38.7037C0.458686 37.875 0.00141968 36.7514 1.79619e-08 35.5795C-1.13565e-05 35.5237 0.00537952 35.468 0.0160944 35.4132L3.94206 14.7383C3.96618 13.5818 4.43344 12.4808 5.24382 11.6712C6.0542 10.8616 7.14328 10.4076 8.2779 10.4064H45.6642C46.8138 10.4075 47.9159 10.8736 48.7288 11.7024C49.5417 12.5312 49.9989 13.6549 50 14.8269C50 14.8827 49.9946 14.9384 49.9839 14.9932L46.0579 35.6681C46.0338 36.8246 45.5666 37.9255 44.7562 38.7352C43.9458 39.5448 42.8567 39.9988 41.7221 40ZM1.71674 35.6572C1.73736 36.3514 2.02214 37.0101 2.51077 37.494C2.99941 37.9779 3.65357 38.2489 4.33476 38.2497H41.7221C42.4166 38.2489 43.0824 37.9673 43.5735 37.4668C44.0647 36.9662 44.3411 36.2875 44.3423 35.5795C44.3419 35.5237 44.3469 35.468 44.3573 35.4132L48.2833 14.7492C48.2624 14.0552 47.9775 13.3968 47.4889 12.9131C47.0003 12.4294 46.3463 12.1586 45.6652 12.1577H8.2779C7.58343 12.1586 6.91764 12.4402 6.42648 12.9407C5.93531 13.4413 5.65886 14.12 5.65773 14.828C5.6581 14.8838 5.65307 14.9395 5.6427 14.9943L1.71674 35.6572ZM27.2661 7.03386H4.3691C4.14145 7.03386 3.92312 6.94166 3.76214 6.77754C3.60116 6.61342 3.51073 6.39083 3.51073 6.15873V3.20516C3.51272 2.35516 3.84501 1.54059 4.43485 0.939848C5.02469 0.339108 5.824 0.00115525 6.65773 0H21.2961C21.5037 0.00110095 21.7038 0.0788246 21.8594 0.218782L27.8283 5.50238C27.9587 5.61964 28.0512 5.77451 28.0933 5.9465C28.1355 6.11849 28.1254 6.29948 28.0645 6.46551C28.0035 6.63154 27.8946 6.77479 27.752 6.87628C27.6094 6.97777 27.44 7.03272 27.2661 7.03386ZM5.22747 5.2836H24.97L20.9785 1.75026H6.65773C6.27857 1.75084 5.91511 1.90465 5.64701 2.17799C5.37891 2.45133 5.22804 2.82189 5.22747 3.20845V5.2836Z" fill="#D7D7D7"/>
</svg>
