<svg width="114" height="91" viewBox="0 0 114 91" fill="none" xmlns="http://www.w3.org/2000/svg">
<mask id="mask0_1444_488" style="mask-type:alpha" maskUnits="userSpaceOnUse" x="72" y="24" width="42" height="42">
<rect x="72.9922" y="24.604" width="41.007" height="41.007" fill="#D9D9D9"/>
</mask>
<g mask="url(#mask0_1444_488)">
<path d="M104.906 32.3711C104.906 32.3711 109.622 35.1315 106.976 41.9175C104.216 48.8185 96.1648 56.5246 96.1648 56.5246L104.906 32.3711Z" fill="#FA6142"/>
<path d="M99.5006 27.3106C99.5006 27.3106 106.977 26.6205 106.287 36.0518C105.481 45.4832 96.1651 56.5248 96.1651 56.5248H95.015L99.5006 27.3106Z" fill="#F29D89"/>
<path d="M82.9376 29.6108C82.9376 29.6108 78.797 30.646 78.9121 37.892C79.0271 45.1381 89.0335 56.5247 89.0335 56.5247L82.9376 29.6108Z" fill="#F29D89"/>
<path d="M89.036 27.3104C89.036 27.3104 84.8954 23.8599 81.79 29.7258C78.6845 35.7066 89.036 56.5246 89.036 56.5246H90.9913L89.036 27.3104Z" fill="#FA6142"/>
<path d="M94.3235 25.9303C94.3235 25.9303 90.298 21.3296 86.5024 29.2657C82.7069 37.0869 91.1031 56.5247 91.1031 56.5247H93.1734L94.3235 25.9303Z" fill="#F29D89"/>
<path d="M94.3264 25.93C94.3264 25.93 99.1571 22.0194 101.572 29.4955C103.873 36.9715 95.1315 56.4093 95.1315 56.4093H93.1762L94.3264 25.93Z" fill="#FA6142"/>
<path d="M92.7131 65.6111C91.793 65.6111 91.1029 64.921 91.1029 64.0009V62.3906H94.4384V64.0009C94.4384 64.921 93.6333 65.6111 92.7131 65.6111Z" fill="#FA6142"/>
<path d="M89.0355 56.5244C89.0355 56.8695 91.1058 62.3903 91.1058 62.3903" stroke="#353140" stroke-width="0.25" stroke-miterlimit="10"/>
<path d="M96.1672 56.5249L94.4419 62.3907" stroke="#353140" stroke-width="0.25" stroke-miterlimit="10"/>
</g>
<mask id="mask1_1444_488" style="mask-type:alpha" maskUnits="userSpaceOnUse" x="0" y="0" width="91" height="91">
<rect width="90.2155" height="90.2155" fill="#D9D9D9"/>
</mask>
<g mask="url(#mask1_1444_488)">
<path d="M70.2134 17.0884C70.2134 17.0884 80.5879 23.1613 74.7681 38.0904C68.6952 53.2726 50.9827 70.2261 50.9827 70.2261L70.2134 17.0884Z" fill="#FA6142"/>
<path d="M58.3165 5.95443C58.3165 5.95443 74.7639 4.43621 73.2457 25.1852C71.4744 45.9342 50.9785 70.2257 50.9785 70.2257H48.4481L58.3165 5.95443Z" fill="#F29D89"/>
<path d="M21.8807 11.0151C21.8807 11.0151 12.7714 13.2925 13.0244 29.2338C13.2774 45.1751 35.2916 70.2257 35.2916 70.2257L21.8807 11.0151Z" fill="#F29D89"/>
<path d="M35.2961 5.95432C35.2961 5.95432 26.1868 -1.63677 19.3548 11.2681C12.5228 24.426 35.2961 70.2256 35.2961 70.2256H39.5977L35.2961 5.95432Z" fill="#FA6142"/>
<path d="M46.931 2.91777C46.931 2.91777 38.0747 -7.20369 29.7245 10.2558C21.3743 27.4623 39.846 70.2255 39.846 70.2255H44.4006L46.931 2.91777Z" fill="#F29D89"/>
<path d="M46.9337 2.91739C46.9337 2.91739 57.5613 -5.68585 62.875 10.7615C67.9358 27.2089 48.705 69.972 48.705 69.972H44.4034L46.9337 2.91739Z" fill="#FA6142"/>
<path d="M43.388 90.2154C41.3637 90.2154 39.8455 88.6972 39.8455 86.6729V83.1304H47.1835V86.6729C47.1835 88.6972 45.4123 90.2154 43.388 90.2154Z" fill="#FA6142"/>
<path d="M35.2944 70.2251C35.2944 70.9842 39.8491 83.13 39.8491 83.13" stroke="#353140" stroke-width="0.25" stroke-miterlimit="10"/>
<path d="M50.9827 70.2251L47.1872 83.13" stroke="#353140" stroke-width="0.25" stroke-miterlimit="10"/>
</g>
</svg>
