<svg width="56" height="78" viewBox="0 0 56 78" fill="none" xmlns="http://www.w3.org/2000/svg">
<g clip-path="url(#clip0_1477_353)">
<path d="M3.58974 65.8966C2.8 67.8785 2.87179 69.2233 5.5282 70.0727C5.5282 70.0727 31.4461 78.2832 32.3795 77.5754C33.3128 76.8676 33.8872 76.9384 34.4615 74.8857C34.9641 72.8331 57.1487 10.0509 55.5692 8.70605C53.9179 7.21966 25.4154 5.76377e-05 24.3385 0.49552C21.1795 1.76957 4.0923 64.6226 3.58974 65.8966Z" fill="#FEF7BD" stroke="#694042" stroke-width="1.2577" stroke-miterlimit="10"/>
<path d="M45.7333 8.49365L24.2667 74.6025L28.8615 75.8766L49.3949 9.13068L45.7333 8.49365Z" fill="#37AF9F"/>
<path d="M45.9487 8.91846L24.9846 74.1072L28.6462 75.0981L48.8205 9.62626L45.9487 8.91846Z" fill="#FCFBF6"/>
<path d="M28.8615 1.69891C26.5641 1.20344 24.9846 0.778762 24.6974 0.849543C21.5385 2.12359 4.45128 64.6227 3.94872 65.8967C3.15898 67.8786 3.23077 68.8695 5.88718 69.7189C5.88718 69.7189 6.31795 69.5065 7.0359 69.7189C11.4154 54.5011 26.7077 8.28149 28.8615 1.69891Z" fill="#90B8DA"/>
<path d="M29.4359 76.7261C31.0872 77.1508 32.1641 77.2924 32.3795 77.1508C33.3128 76.443 33.8872 76.8677 34.4616 74.815C34.8923 72.8332 56.718 10.6172 55.1385 9.20162C54.7795 8.9185 53.4154 8.06913 50.9744 7.36133C46.8103 19.5356 32.6667 65.8259 29.4359 76.7261Z" fill="#90B8DA"/>
<path d="M0.430765 58.6062C0.430765 58.6062 16.6564 11.5373 18.5949 11.3957C20.4615 11.2541 54.8513 21.7296 55.5692 24.0654C56.2872 26.4012 39.4872 70.0019 37.6923 71.2051C35.8256 72.4792 -0.0717996 59.4556 0.430765 58.6062Z" fill="#388984" stroke="#694042" stroke-width="1.2577" stroke-miterlimit="10"/>
<path d="M4.16409 59.8802C13.282 63.6316 36.1846 72.196 37.6205 71.2051C39.4872 70.0018 56.2154 26.4011 55.4974 24.0653C54.9231 21.8711 24.841 12.9528 19.3846 11.8203C16.8 20.0308 8.2564 46.7858 4.16409 59.8802Z" fill="#00A28A"/>
<path d="M20.1744 56.9782C16.7282 54.0054 16.441 48.6969 19.6 45.1578C22.759 41.6188 28.1436 41.1941 31.5897 44.1669C35.0359 47.1397 35.3231 52.4482 32.1641 55.9872C29.0051 59.5263 23.6205 59.9509 20.1744 56.9782ZM31.3026 44.45C28 41.6188 22.9026 42.0435 19.8872 45.3702C16.8718 48.7676 17.159 53.793 20.4615 56.695C23.7641 59.5263 28.8615 59.1016 31.8769 55.7749C34.8923 52.3774 34.6051 47.352 31.3026 44.45Z" fill="#FFF3A2"/>
<path d="M30.9436 45.724C31.518 46.361 31.0872 49.4046 31.8769 49.0507C32.4513 48.8383 32.7385 47.1396 33.241 46.5734C32.8103 45.724 32.2359 45.0162 31.4462 44.3084C28.6462 41.9018 24.5539 41.7603 21.4667 43.7421C21.7539 43.8837 22.041 44.0253 22.1846 44.1668C22.4718 44.5207 22.6154 44.7331 22.8308 44.5207C23.0462 44.3084 23.3333 43.3882 24.0513 43.2467C24.6974 43.0343 25.4154 43.9545 25.8462 43.5298C26.2051 43.1051 26.8513 42.5389 27.5692 42.7512C28.2872 42.9635 28.718 45.3701 29.2923 45.6532C29.8667 45.9363 30.3692 45.087 30.9436 45.724Z" fill="#FFF3A2"/>
<path d="M31.0872 54.3593C31.5898 54.3593 32.7385 53.5099 33.8872 52.3774C34.2462 50.9618 34.2462 49.5462 33.8872 48.1306C33.3846 48.98 32.5231 49.9001 32.0205 50.6787C31.159 52.0943 30.0103 54.3593 31.0872 54.3593Z" fill="#FFF3A2"/>
<path d="M28.7897 56.6242C29.0051 56.1288 28.8615 55.2794 28.359 54.7839C27.8564 54.2885 26.4205 55.0671 25.1282 54.7132C23.8359 54.3593 24.841 54.0054 24.7692 53.4391C24.6256 52.9436 23.1179 53.0144 22.5436 52.3774C22.041 51.7404 23.4051 51.1034 24.1949 50.6787C24.9846 50.254 26.1333 53.0144 26.1333 53.0144C26.1333 53.0144 27.0667 52.3066 27.4256 51.8112C27.7846 51.3157 26.9949 51.1034 26.9231 50.6079C26.8513 50.1124 27.7846 49.3339 27.7846 48.6968C27.7846 48.1306 27.0667 47.5643 26.6359 47.1397C26.2051 46.715 25.2718 47.352 24.841 46.9273C24.3385 46.5026 24.9128 46.1487 24.6974 45.5825C24.5538 45.2286 24.4103 45.3701 24.3385 45.5117C24.4103 45.3701 24.482 45.087 24.1949 44.8039C23.8359 44.3792 22.6872 45.7948 22.759 46.2195C22.759 46.6442 23.2615 46.0072 23.4769 46.6442C23.6205 47.2812 21.3231 48.2014 20.8923 49.3338C20.4615 50.3956 21.6103 51.7404 22.1128 52.4482C22.6154 53.0852 24.1949 53.2976 24.3385 53.6515C24.5538 54.0054 23.4769 54.43 24.0513 54.9963C24.6256 55.5625 25.1282 56.1288 25.2718 56.5535C25.4154 56.9781 23.8359 58.4645 24.4103 58.6769C24.9128 58.96 28.5744 57.1197 28.7897 56.6242ZM26.2051 47.5643C26.9231 47.4228 26.3487 49.5462 25.9179 49.5462C25.4872 49.617 24.2667 47.9182 26.2051 47.5643Z" fill="#FFF3A2"/>
<path d="M21.7538 20.8802C21.4667 21.1633 21.1795 21.3756 21.0359 21.4464C20.7487 21.588 20.6051 21.6587 20.6051 21.6587C20.4615 21.7295 20.2462 21.7295 20.1026 21.7295C20.0308 21.8003 20.0308 21.9419 19.959 22.0127C19.959 22.0834 19.8872 22.225 19.8154 22.4373C19.7436 22.5789 19.7436 22.7205 19.6718 22.862C19.5282 23.1451 19.3846 23.3575 19.1692 23.499L19.0256 23.3575C18.9538 23.2867 18.9538 23.2159 18.9538 23.1451C19.0256 22.862 19.0974 22.5081 19.241 22.1542C19.3128 21.9419 19.4564 21.588 19.6718 21.0925C19.8872 20.597 20.0308 20.2431 20.1026 20.0308C20.2462 19.6769 20.3179 19.323 20.3897 19.0399C20.3179 19.0399 20.3179 19.0399 20.3179 18.9691C20.3179 18.8983 20.3179 18.8275 20.2462 18.8275C20.3179 18.686 20.3897 18.6152 20.4615 18.686C20.5333 18.686 20.6769 18.7568 20.8923 18.8275C21.4667 19.1107 21.8256 19.5353 21.8974 20.1016C21.9692 20.2431 21.8974 20.4555 21.8256 20.597C21.9692 20.597 21.8974 20.7386 21.7538 20.8802ZM21.5385 20.2431C21.6103 20.1016 21.6103 19.8892 21.4667 19.7477C21.4667 19.7477 21.3231 19.6061 21.0359 19.3938C20.7487 20.2431 20.5333 20.8094 20.3897 21.1633C20.9641 20.8802 21.3231 20.597 21.5385 20.2431Z" fill="#FFF3A2" stroke="#FFF3A2" stroke-width="0.452" stroke-miterlimit="10"/>
<path d="M25.2 24.4192C25.2 24.49 25.2 24.5608 25.2 24.6316C25.2 24.7024 25.1282 24.7731 24.9846 24.8439C24.9128 24.9147 24.841 24.9147 24.7692 24.9147C24.5538 24.7732 24.4821 24.5608 24.5538 24.2069C24.6256 23.853 24.6256 23.4991 24.6256 23.2868C24.482 23.216 24.3385 23.216 24.1231 23.1452C23.9077 23.0744 23.7641 23.1452 23.6205 23.1452C23.5487 23.2868 23.3333 23.4991 23.1179 23.853C22.9026 24.1361 22.759 24.4192 22.6154 24.5608C22.5436 24.6316 22.4718 24.6316 22.3282 24.5608C22.1846 24.49 22.1128 24.3485 22.1846 24.2777C22.2564 24.1361 22.4 23.853 22.6154 23.6407C22.9026 23.3575 23.0462 23.1452 23.1179 23.0036C23.1179 22.9329 23.1179 22.9329 23.1179 22.8621C23.0462 22.7913 23.0462 22.7205 23.0462 22.7205C23.0462 22.7205 23.0462 22.6497 23.1179 22.6497C23.1179 22.6497 23.1897 22.6497 23.2615 22.6497C23.3333 22.6497 23.4051 22.6497 23.4051 22.6497C23.5487 22.4374 23.8359 22.0835 24.2667 21.5173C24.6256 21.0218 24.9128 20.6679 25.1282 20.4555C25.2 20.3848 25.2718 20.3848 25.3436 20.3848C25.4154 20.3848 25.4872 20.4555 25.4872 20.5263C25.559 20.6679 25.559 20.8802 25.559 21.0926C25.4872 21.3049 25.4872 21.5173 25.4154 21.6588C25.3436 22.6497 25.2718 23.6407 25.2 24.4192ZM24.6974 22.7913C24.7692 22.6497 24.7692 22.4374 24.841 22.2251C24.841 22.0127 24.9128 21.8004 24.9128 21.6588C24.6256 22.0127 24.3385 22.2958 24.1231 22.6497C24.1949 22.579 24.4103 22.6497 24.6974 22.7913Z" fill="#FFF3A2" stroke="#FFF3A2" stroke-width="0.452" stroke-miterlimit="10"/>
<path d="M29.7231 21.6588C29.7231 21.7296 29.5795 21.8004 29.4359 21.8004C29.3641 21.8004 29.3641 21.8004 29.2923 21.8004C29.2205 21.7296 29.2205 21.7296 29.2205 21.7296H29.1487C28.7897 21.8712 28.5744 22.1543 28.4308 22.5082C28.359 22.6497 28.359 22.7913 28.359 22.9329C28.359 23.0036 28.359 23.4283 28.5026 24.2069C28.5744 24.7024 28.5026 25.1271 28.4308 25.4102C28.359 25.6933 28.2154 25.9056 28 26.0472C27.9282 26.118 27.7846 26.1888 27.5692 26.2595C27.4256 26.3303 27.2821 26.3303 27.1385 26.2595C27.0667 26.2595 27.0667 26.2595 26.9949 26.1888C26.8513 26.0472 26.8513 25.9764 26.8513 25.9056C26.8513 25.8349 26.9231 25.7641 26.9949 25.7641C26.9949 25.7641 27.0667 25.7641 27.1385 25.7641C27.2103 25.7641 27.2821 25.7641 27.2821 25.7641C27.4256 25.6225 27.5692 25.4102 27.641 25.1978C27.7846 24.9147 27.7846 24.4192 27.7128 23.7822C27.641 23.1452 27.641 22.6497 27.7846 22.2958C27.8564 22.0127 28.0718 21.8004 28.2154 21.588C28.4308 21.3757 28.6462 21.2341 28.9333 21.2341C29.0769 21.2341 29.1487 21.2341 29.2923 21.2341C29.5077 21.3049 29.5795 21.3757 29.6513 21.5173C29.7949 21.588 29.7949 21.6588 29.7231 21.6588Z" fill="#FFF3A2" stroke="#FFF3A2" stroke-width="0.452" stroke-miterlimit="10"/>
<path d="M33.0257 22.7913C33.0257 22.8621 32.8821 22.9329 32.7385 22.9329C32.6667 22.9329 32.6667 22.9329 32.5949 22.9329C32.5231 22.8621 32.5231 22.8621 32.5231 22.8621H32.4513C32.0923 23.0037 31.8769 23.2868 31.7333 23.6407C31.6615 23.7823 31.5898 23.9238 31.5898 24.0654C31.5898 24.1362 31.6615 24.5609 31.7333 25.2687C31.8051 25.7641 31.7333 26.1888 31.6615 26.4719C31.5898 26.755 31.4462 26.9674 31.2308 27.1089C31.159 27.1797 31.0154 27.2505 30.8 27.3213C30.6564 27.3921 30.5128 27.3921 30.3692 27.3213C30.2974 27.3213 30.2974 27.3213 30.2256 27.2505C30.0821 27.1089 30.0821 27.0382 30.0821 26.9674C30.0821 26.8966 30.1539 26.8258 30.2256 26.8258C30.2256 26.8258 30.2974 26.8258 30.3692 26.8258C30.441 26.8258 30.5128 26.8258 30.5128 26.755C30.6564 26.6135 30.8 26.4011 30.8718 26.1888C31.0154 25.9057 31.0154 25.4102 30.9436 24.7732C30.8718 24.1362 30.8718 23.6407 31.0154 23.2868C31.0872 23.0037 31.3026 22.7913 31.4462 22.579C31.6615 22.3667 31.8769 22.2251 32.1641 22.2251C32.3077 22.2251 32.3795 22.2251 32.5231 22.2251C32.7385 22.2959 32.8103 22.3667 32.8821 22.5082C33.0257 22.7206 33.0257 22.7913 33.0257 22.7913Z" fill="#FFF3A2" stroke="#FFF3A2" stroke-width="0.452" stroke-miterlimit="10"/>
<path d="M36.041 25.9055C35.7538 26.1887 35.4667 26.401 35.3231 26.4718C35.0359 26.6133 34.8923 26.6841 34.8923 26.6841C34.7487 26.7549 34.5333 26.7549 34.3897 26.7549C34.3179 26.8257 34.3179 26.9672 34.2461 27.038C34.2461 27.1088 34.1743 27.2504 34.1025 27.4627C34.0308 27.675 34.0308 27.7458 33.959 27.8874C33.8154 28.1705 33.6718 28.3828 33.4564 28.5244L33.3846 28.3121C33.3128 28.2413 33.3128 28.1705 33.3128 28.0997C33.3846 27.8166 33.4564 27.4627 33.6 27.1088C33.6718 26.8965 33.8154 26.5426 34.0308 26.0471C34.2461 25.5516 34.3897 25.1977 34.4615 24.9854C34.6051 24.6315 34.6769 24.2776 34.7487 23.9945C34.6769 23.9945 34.6769 23.9945 34.6769 23.9237C34.6769 23.8529 34.6769 23.7821 34.6051 23.7821C34.6769 23.6406 34.7487 23.5698 34.8205 23.6406C34.8923 23.6406 35.0359 23.7113 35.2513 23.7821C35.8256 24.0652 36.1846 24.4899 36.2564 25.0562C36.3282 25.1977 36.2564 25.4101 36.2564 25.5516C36.2564 25.6224 36.1846 25.764 36.041 25.9055ZM35.8256 25.1977C35.8974 25.0562 35.8974 24.8438 35.7538 24.7023C35.7538 24.7023 35.6102 24.5607 35.3231 24.3484C35.0359 25.1977 34.7487 25.764 34.6051 26.1179C35.2513 25.8348 35.6102 25.5516 35.8256 25.1977Z" fill="#FFF3A2" stroke="#FFF3A2" stroke-width="0.452" stroke-miterlimit="10"/>
<path d="M39.8462 28.1705C39.3436 28.666 38.841 28.8783 38.2667 28.8783C38.1949 28.8783 38.1231 28.8783 38.0513 28.8075C37.7641 28.7368 37.5487 28.4536 37.4051 28.0997C37.3333 27.8166 37.3333 27.5335 37.4051 27.2504C37.5487 26.8965 37.7641 26.6133 38.1231 26.2594C38.2667 26.1179 38.4103 26.0471 38.6256 25.9763C38.841 25.9055 38.9846 25.8348 39.1282 25.9055C39.2 25.9055 39.2718 25.9763 39.2718 26.0471C39.3436 26.1179 39.4872 26.2594 39.7026 26.4718C39.918 26.6133 39.9898 26.8257 39.9898 26.9672C40.0615 27.3211 39.9897 27.6043 39.918 27.8166C39.9897 28.029 39.918 28.0997 39.8462 28.1705ZM39.4154 27.6043C39.4872 27.2504 39.4872 27.038 39.3436 26.8965H39.2718C39.2 26.8965 39.1282 26.8965 38.9846 26.9672C38.841 27.038 38.7692 27.1088 38.6974 27.1088C38.6256 27.1088 38.6256 27.1088 38.5539 27.038C38.4821 26.9672 38.4821 26.9672 38.4821 26.9672C38.4821 26.9672 38.4821 26.9672 38.4103 26.9672C38.1949 27.038 38.0513 27.2504 37.9077 27.5335C37.8359 27.7458 37.8359 27.8874 37.8359 28.0997C37.9077 28.3121 37.9795 28.4536 38.0513 28.5244C38.2667 28.5952 38.4821 28.5244 38.7692 28.3829C39.2 27.9582 39.4154 27.8166 39.4154 27.6043Z" fill="#FFF3A2" stroke="#FFF3A2" stroke-width="0.452" stroke-miterlimit="10"/>
<path d="M43.6513 31.285C43.7231 31.285 43.7231 31.285 43.6513 31.285C43.5795 31.4265 43.4359 31.4973 43.2205 31.4973C43.0769 31.2142 42.8615 30.8603 42.6461 30.294C42.4308 29.7278 42.2154 29.3031 42.0718 29.0908C42 29.2323 41.8564 29.5154 41.641 30.0109C41.4974 30.3648 41.282 30.6479 41.1385 30.8603H41.0667C40.9949 30.8603 40.9949 30.8603 40.9231 30.8603C40.7077 30.7187 40.7077 30.5772 40.7795 30.3648C40.7795 30.294 40.8513 30.2233 40.9231 30.0817C40.9949 29.9401 41.0667 29.8694 41.0667 29.8694C41.2103 29.5862 41.282 29.3031 41.4974 28.9492L41.7846 28.1706C42 27.5336 42.2872 27.0381 42.5026 26.6135C42.6461 26.3303 43.0051 26.3303 43.4359 26.4719C43.6513 26.5427 43.8667 26.755 43.9385 27.0381C44.0103 27.3213 44.0103 27.6044 43.9385 27.8167C43.8667 28.0291 43.7231 28.2414 43.4359 28.383C43.2205 28.5245 43.0051 28.5953 42.7897 28.6661C42.7179 28.6661 42.6461 28.7369 42.5744 28.8076C42.5744 28.8784 42.5744 28.9492 42.6461 29.0908C42.7179 29.1615 42.7179 29.2323 42.7897 29.3739C42.7897 29.3739 42.9333 29.7278 43.2923 30.294C43.5077 30.6479 43.6513 31.0018 43.6513 31.285ZM43.4359 27.6752C43.5077 27.6044 43.5077 27.5336 43.5077 27.4628C43.5077 27.392 43.5077 27.2505 43.5077 27.1797C43.4359 27.1089 43.3641 27.0381 43.2205 26.9674C43.0769 26.8966 43.0051 26.9674 43.0051 26.9674C42.9333 27.0381 42.8615 27.1797 42.7897 27.3213C42.7897 27.392 42.7179 27.5336 42.6461 27.8167C42.5744 28.0291 42.5026 28.1706 42.5026 28.2414C42.9333 28.0998 43.2923 27.9583 43.4359 27.6752Z" fill="#FFF3A2"/>
<path d="M43.6513 31.285C43.7231 31.285 43.7231 31.285 43.6513 31.285ZM43.6513 31.285C43.5795 31.4265 43.4359 31.4973 43.2205 31.4973C43.0769 31.2142 42.8615 30.8603 42.6461 30.294C42.4308 29.7278 42.2154 29.3031 42.0718 29.0908C42 29.2323 41.8564 29.5154 41.641 30.0109C41.4974 30.3648 41.282 30.6479 41.1385 30.8603H41.0667C40.9949 30.8603 40.9949 30.8603 40.9231 30.8603C40.7077 30.7187 40.7077 30.5772 40.7795 30.3648C40.7795 30.294 40.8513 30.2233 40.9231 30.0817C40.9949 29.9401 41.0667 29.8694 41.0667 29.8694C41.2103 29.5862 41.282 29.3031 41.4974 28.9492L41.7846 28.1706C42 27.5336 42.2872 27.0381 42.5026 26.6135C42.6461 26.3303 43.0051 26.3303 43.4359 26.4719C43.6513 26.5427 43.8667 26.755 43.9385 27.0381C44.0103 27.3213 44.0103 27.6044 43.9385 27.8167C43.8667 28.0291 43.7231 28.2414 43.4359 28.383C43.2205 28.5245 43.0051 28.5953 42.7897 28.6661C42.7179 28.6661 42.6461 28.7369 42.5744 28.8076C42.5744 28.8784 42.5744 28.9492 42.6461 29.0908C42.7179 29.1615 42.7179 29.2323 42.7897 29.3739C42.7897 29.3739 42.9333 29.7278 43.2923 30.294C43.5077 30.6479 43.6513 31.0018 43.6513 31.285ZM43.4359 27.6752C43.5077 27.6044 43.5077 27.5336 43.5077 27.4628C43.5077 27.392 43.5077 27.2505 43.5077 27.1797C43.4359 27.1089 43.3641 27.0381 43.2205 26.9674C43.0769 26.8966 43.0051 26.9674 43.0051 26.9674C42.9333 27.0381 42.8615 27.1797 42.7897 27.3213C42.7897 27.392 42.7179 27.5336 42.6461 27.8167C42.5744 28.0291 42.5026 28.1706 42.5026 28.2414C42.9333 28.0998 43.2923 27.9583 43.4359 27.6752Z" stroke="#FFF3A2" stroke-width="0.452" stroke-miterlimit="10"/>
<path d="M49.7538 28.5243C49.682 28.6659 49.5385 28.7367 49.3949 28.7367C49.0359 28.7367 48.5333 28.5951 47.7436 28.5243C47.241 29.6568 46.8103 30.577 46.5231 31.2848C46.3795 31.5679 46.3077 31.851 46.2359 32.1341C46.2359 32.2049 46.1641 32.2757 46.1641 32.3465C46.0923 32.4173 46.0205 32.4173 46.0205 32.4173C45.8769 32.3465 45.8051 32.2757 45.7333 32.1341C45.6615 31.9926 45.6615 31.851 45.7333 31.7094C45.8051 31.5679 45.8769 31.3555 45.9487 31.1432C46.0923 30.8601 46.2359 30.3646 46.5231 29.7276C46.8103 29.0906 47.0256 28.6659 47.0974 28.312C46.9538 28.2412 46.8103 28.2412 46.5949 28.1704C46.3077 28.0996 46.1641 28.0996 46.0205 28.0289C45.8051 27.9581 45.6615 27.8165 45.5179 27.675C45.5179 27.5334 45.5179 27.4626 45.5179 27.4626L45.5897 27.3918C45.7333 27.3918 46.0923 27.4626 46.5231 27.5334C46.9538 27.6042 47.241 27.675 47.5282 27.6042C47.6718 27.7457 47.8154 27.8165 48.0308 27.8873C48.2461 27.9581 48.4615 28.0289 48.6769 28.0289C48.7487 28.0289 48.8923 28.0289 49.1077 28.0996C49.2513 28.0996 49.3949 28.1704 49.5385 28.1704C49.6103 28.1704 49.6102 28.2412 49.6102 28.312C49.7538 28.312 49.8256 28.3828 49.7538 28.5243Z" fill="#FFF3A2" stroke="#FFF3A2" stroke-width="0.452" stroke-miterlimit="10"/>
<path d="M35.8256 14.7931L38.3384 5.80396L44.9436 7.78581L42.359 16.5626L35.8256 14.7931Z" fill="#37AF9F"/>
<path d="M36.4 14.3685L38.6256 6.29956L44.5128 8.06907L42.2872 15.9257L36.4 14.3685Z" fill="#FCFBF6"/>
</g>
<defs>
<clipPath id="clip0_1477_353">
<rect width="56" height="78" fill="white"/>
</clipPath>
</defs>
</svg>
