<svg width="119" height="109" viewBox="0 0 119 109" fill="none" xmlns="http://www.w3.org/2000/svg">
<mask id="mask0_1477_539" style="mask-type:alpha" maskUnits="userSpaceOnUse" x="0" y="0" width="119" height="109">
<rect width="119" height="109" fill="#D9D9D9"/>
</mask>
<g mask="url(#mask0_1477_539)">
<path fill-rule="evenodd" clip-rule="evenodd" d="M87 13C87 36.7482 67.7482 56 44 56C20.2518 56 1 36.7482 1 13C1 -10.7482 20.2518 -30 44 -30C67.7482 -30 87 -10.7482 87 13ZM79.4368 39.0862C71.425 49.9516 58.5356 57 44 57C19.6995 57 0 37.3005 0 13C0 -11.3005 19.6995 -31 44 -31C68.3005 -31 88 -11.3005 88 13C88 22.6882 84.8688 31.6451 79.5632 38.9139C87.575 28.0484 100.464 21 115 21C139.301 21 159 40.6995 159 65C159 89.3005 139.301 109 115 109C90.6995 109 71 89.3005 71 65C71 55.3118 74.1312 46.3549 79.4368 39.0862ZM158 65C158 88.7482 138.748 108 115 108C91.2518 108 72 88.7482 72 65C72 41.2518 91.2518 22 115 22C138.748 22 158 41.2518 158 65Z" fill="#110F0F" fill-opacity="0.08"/>
</g>
</svg>
