<svg width="20" height="16" viewBox="0 0 20 16" fill="none" xmlns="http://www.w3.org/2000/svg">
<path fill-rule="evenodd" clip-rule="evenodd" d="M1.7006 1.22694L7.64404 7.17295C8.94032 8.46674 11.0593 8.46786 12.3566 7.17295L18.3001 1.22694C18.3141 1.21297 18.3249 1.19607 18.3317 1.17746C18.3385 1.15884 18.3411 1.13896 18.3394 1.11922C18.3377 1.09948 18.3316 1.08037 18.3216 1.06324C18.3117 1.0461 18.2981 1.03137 18.2818 1.02009C17.6756 0.597317 16.938 0.34668 16.1435 0.34668H3.8572C3.06267 0.34668 2.32511 0.59736 1.71891 1.02009C1.70262 1.03137 1.68901 1.0461 1.67905 1.06324C1.66909 1.08037 1.66302 1.09948 1.66128 1.11922C1.65953 1.13896 1.66215 1.15884 1.66894 1.17746C1.67574 1.19607 1.68655 1.21297 1.7006 1.22694ZM0.112306 4.09154C0.111822 3.48738 0.258646 2.89223 0.54006 2.35762C0.549884 2.33877 0.564016 2.32251 0.581309 2.31015C0.598601 2.29779 0.618565 2.28969 0.639578 2.2865C0.660591 2.28331 0.68206 2.28512 0.702241 2.29179C0.722422 2.29846 0.740745 2.30979 0.75572 2.32488L6.62392 8.19307C8.48219 10.0541 11.5174 10.0551 13.3768 8.19307L19.245 2.32488C19.26 2.30979 19.2783 2.29846 19.2985 2.29179C19.3187 2.28512 19.3401 2.28331 19.3611 2.2865C19.3822 2.28969 19.4021 2.29779 19.4194 2.31015C19.4367 2.32251 19.4508 2.33877 19.4607 2.35762C19.7421 2.89223 19.8889 3.48739 19.8884 4.09154V11.9091C19.8884 13.9756 18.2074 15.654 16.1435 15.654H3.8572C1.79333 15.654 0.112306 13.9756 0.112306 11.9091V4.09154Z" fill="#110F0F"/>
</svg>
