<svg width="20" height="18" viewBox="0 0 20 18" fill="none" xmlns="http://www.w3.org/2000/svg">
<path fill-rule="evenodd" clip-rule="evenodd" d="M5.9375 14.3125C5.44022 14.3125 4.9633 14.115 4.61156 13.7634C4.26003 13.4117 4.06254 12.9348 4.0625 12.4375V5.5625C4.0625 5.06531 4.26 4.58844 4.61156 4.23656C4.9633 3.88503 5.44022 3.68754 5.9375 3.6875H17.8125C18.3097 3.6875 18.7866 3.885 19.1384 4.23656C19.49 4.5883 19.6875 5.06522 19.6875 5.5625V17.125L16.7188 14.3125H5.9375Z" fill="white"/>
<path fill-rule="evenodd" clip-rule="evenodd" d="M18.0728 4.02188C18.3927 4.07602 18.6879 4.22825 18.9175 4.45751C19.2104 4.75067 19.3749 5.14811 19.375 5.56251V16.3984L16.9337 14.0856C16.8757 14.0306 16.7987 14 16.7187 14H5.93747C5.66323 13.9999 5.39384 13.9276 5.15634 13.7905C4.91884 13.6534 4.72158 13.4562 4.58435 13.2188C4.54261 13.1476 4.47441 13.0958 4.39463 13.0747C4.31485 13.0536 4.22997 13.0649 4.15851 13.1062C4.08704 13.1474 4.0348 13.2153 4.01318 13.2949C3.99155 13.3746 4.00231 13.4595 4.0431 13.5313C4.23509 13.8638 4.51122 14.1399 4.84375 14.3319C5.17629 14.5239 5.5535 14.625 5.93747 14.625H16.5943L19.4725 17.3519C19.5169 17.3936 19.5726 17.4215 19.6326 17.4321C19.6927 17.4426 19.7545 17.4354 19.8106 17.4113C19.8666 17.3872 19.9143 17.3473 19.948 17.2964C19.9816 17.2456 19.9997 17.186 20 17.125V5.56251C20 5.04556 19.817 4.5453 19.4833 4.15047C19.1496 3.75564 18.6869 3.49176 18.1772 3.40563C18.0954 3.39179 18.0116 3.41098 17.944 3.45898C17.8764 3.50698 17.8307 3.57985 17.8168 3.66157C17.803 3.74329 17.8222 3.82716 17.8702 3.89473C17.9182 3.96231 17.9911 4.00804 18.0728 4.02188Z" fill="#F51E1E"/>
<path fill-rule="evenodd" clip-rule="evenodd" d="M17.5 2.75C17.5 2.16984 17.2695 1.61344 16.8593 1.2032C16.4491 0.792968 15.8927 0.5625 15.3125 0.5625H2.1875C1.60734 0.5625 1.05094 0.792968 0.640704 1.2032C0.230468 1.61344 0 2.16984 0 2.75L0 15.5625C0.000274873 15.6236 0.0184111 15.6833 0.0521748 15.7342C0.0859385 15.7851 0.133855 15.825 0.190022 15.849C0.24619 15.873 0.308155 15.8801 0.368286 15.8693C0.428416 15.8586 0.484086 15.8304 0.528437 15.7884L4.03156 12.4375H15.3125C15.5998 12.4375 15.8843 12.381 16.1497 12.2711C16.4151 12.1612 16.6562 12 16.8594 11.7969C17.0625 11.5938 17.2237 11.3526 17.3336 11.0872C17.4435 10.8218 17.5 10.5373 17.5 10.25V2.75Z" fill="#F51E1E"/>
<path fill-rule="evenodd" clip-rule="evenodd" d="M12.1875 6.1875V5.25H13.4375C13.5204 5.25 13.5999 5.21708 13.6585 5.15847C13.7171 5.09987 13.75 5.02038 13.75 4.9375C13.75 4.85462 13.7171 4.77513 13.6585 4.71653C13.5999 4.65792 13.5204 4.625 13.4375 4.625H11.875C11.7921 4.625 11.7126 4.65792 11.654 4.71653C11.5954 4.77513 11.5625 4.85462 11.5625 4.9375V8.0625C11.5625 8.14538 11.5954 8.22487 11.654 8.28347C11.7126 8.34208 11.7921 8.375 11.875 8.375H13.4375C13.5204 8.375 13.5999 8.34208 13.6585 8.28347C13.7171 8.22487 13.75 8.14538 13.75 8.0625C13.75 7.97962 13.7171 7.90013 13.6585 7.84153C13.5999 7.78292 13.5204 7.75 13.4375 7.75H12.1875V6.8125H13.4375C13.5204 6.8125 13.5999 6.77958 13.6585 6.72097C13.7171 6.66237 13.75 6.58288 13.75 6.5C13.75 6.41712 13.7171 6.33763 13.6585 6.27903C13.5999 6.22042 13.5204 6.1875 13.4375 6.1875H12.1875ZM7.1875 8.0625V4.9375C7.1875 4.85462 7.15458 4.77513 7.09597 4.71653C7.03737 4.65792 6.95788 4.625 6.875 4.625C6.79212 4.625 6.71263 4.65792 6.65403 4.71653C6.59542 4.77513 6.5625 4.85462 6.5625 4.9375V8.0625C6.5625 8.14538 6.59542 8.22487 6.65403 8.28347C6.71263 8.34208 6.79212 8.375 6.875 8.375C6.95788 8.375 7.03737 8.34208 7.09597 8.28347C7.15458 8.22487 7.1875 8.14538 7.1875 8.0625ZM3.4375 4.9375V8.0625C3.4375 8.14538 3.47042 8.22487 3.52903 8.28347C3.58763 8.34208 3.66712 8.375 3.75 8.375H5.3125C5.39538 8.375 5.47487 8.34208 5.53347 8.28347C5.59208 8.22487 5.625 8.14538 5.625 8.0625C5.625 7.97962 5.59208 7.90013 5.53347 7.84153C5.47487 7.78292 5.39538 7.75 5.3125 7.75H4.0625V4.9375C4.0625 4.85462 4.02958 4.77513 3.97097 4.71653C3.91237 4.65792 3.83288 4.625 3.75 4.625C3.66712 4.625 3.58763 4.65792 3.52903 4.71653C3.47042 4.77513 3.4375 4.85462 3.4375 4.9375ZM10.0131 4.84781L9.375 6.975L8.73688 4.84781C8.71042 4.77165 8.65559 4.70864 8.58381 4.67193C8.51202 4.63522 8.42884 4.62765 8.3516 4.65078C8.27437 4.67392 8.20905 4.72599 8.16928 4.79612C8.1295 4.86625 8.11834 4.94903 8.13812 5.02719L9.07562 8.15219C9.09491 8.2166 9.13445 8.27308 9.18838 8.31323C9.24232 8.35339 9.30776 8.37507 9.375 8.37507C9.44224 8.37507 9.50768 8.35339 9.56162 8.31323C9.61555 8.27308 9.65509 8.2166 9.67438 8.15219L10.6119 5.02719C10.6317 4.94903 10.6205 4.86625 10.5807 4.79612C10.5409 4.72599 10.4756 4.67392 10.3984 4.65078C10.3212 4.62765 10.238 4.63522 10.1662 4.67193C10.0944 4.70864 10.0396 4.77165 10.0131 4.84781Z" fill="white"/>
</svg>
