<svg width="52" height="28" viewBox="0 0 52 28" fill="none" xmlns="http://www.w3.org/2000/svg">
<rect width="52" height="28" rx="8" fill="white"/>
<mask id="mask0_1151_307" style="mask-type:alpha" maskUnits="userSpaceOnUse" x="8" y="4" width="36" height="20">
<rect x="8" y="4" width="36" height="20" fill="white"/>
</mask>
<g mask="url(#mask0_1151_307)">
<path d="M12.3199 9.4541H9.51976C9.42706 9.45404 9.33739 9.48751 9.2669 9.54848C9.19641 9.60944 9.14974 9.69389 9.1353 9.78662L8.0028 17.0576C7.99759 17.0913 7.99967 17.1258 8.00888 17.1587C8.0181 17.1915 8.03424 17.222 8.05618 17.2479C8.07813 17.2738 8.10537 17.2946 8.13601 17.3089C8.16666 17.3231 8.2 17.3305 8.23372 17.3304H9.57053C9.66329 17.3305 9.75301 17.2969 9.8235 17.2359C9.894 17.1748 9.94063 17.0903 9.95499 16.9975L10.2604 15.0364C10.2748 14.9437 10.3213 14.8592 10.3918 14.7981C10.4622 14.7371 10.5518 14.7035 10.6445 14.7035H11.5309C13.3754 14.7035 14.4399 13.7996 14.718 12.0085C14.8432 11.2249 14.7233 10.6092 14.3609 10.178C13.963 9.70452 13.2571 9.4541 12.3199 9.4541ZM12.6429 12.1097C12.4898 13.1271 11.7221 13.1271 10.9798 13.1271H10.5573L10.8537 11.227C10.8624 11.1714 10.8904 11.1207 10.9326 11.0842C10.9749 11.0476 11.0286 11.0275 11.0842 11.0275H11.2779C11.7835 11.0275 12.2605 11.0275 12.507 11.3194C12.654 11.4936 12.699 11.7523 12.6429 12.1097ZM20.69 12.0769H19.3491C19.2935 12.0769 19.2397 12.097 19.1975 12.1336C19.1552 12.1701 19.1272 12.2207 19.1186 12.2763L19.0592 12.6561L18.9654 12.5185C18.6751 12.0918 18.0278 11.9492 17.3817 11.9492C15.9 11.9492 14.6344 13.0857 14.3879 14.6798C14.2598 15.475 14.442 16.2354 14.8875 16.7657C15.2961 17.2533 15.8808 17.4564 16.5764 17.4564C17.7703 17.4564 18.4324 16.6791 18.4324 16.6791L18.3726 17.0564C18.3672 17.0901 18.3692 17.1246 18.3783 17.1575C18.3874 17.1904 18.4035 17.2209 18.4253 17.2469C18.4472 17.2729 18.4744 17.2938 18.505 17.3081C18.5356 17.3225 18.5689 17.3299 18.6027 17.33H19.8105C19.9033 17.33 19.993 17.2965 20.0635 17.2355C20.134 17.1744 20.1806 17.0899 20.195 16.9971L20.9197 12.3497C20.925 12.3161 20.9231 12.2816 20.914 12.2488C20.9049 12.216 20.8889 12.1856 20.867 12.1596C20.8452 12.1337 20.818 12.1129 20.7875 12.0986C20.7569 12.0843 20.7236 12.0769 20.69 12.0769ZM18.8209 14.7196C18.6915 15.4954 18.0835 16.0161 17.308 16.0161C16.9187 16.0161 16.6075 15.8896 16.4077 15.65C16.2095 15.412 16.1342 15.0733 16.1972 14.696C16.318 13.9269 16.9363 13.3891 17.6999 13.3891C18.0806 13.3891 18.3902 13.5173 18.5941 13.759C18.7984 14.0032 18.8795 14.344 18.8209 14.7196ZM27.8314 12.0769H26.4839C26.4204 12.077 26.3578 12.0928 26.3016 12.1229C26.2455 12.1531 26.1975 12.1966 26.1617 12.2498L24.3033 15.0219L23.5155 12.358C23.4913 12.2768 23.4419 12.2056 23.3747 12.1549C23.3074 12.1043 23.2259 12.077 23.1421 12.0769H21.818C21.7808 12.0768 21.7442 12.0857 21.7111 12.1028C21.678 12.12 21.6494 12.1449 21.6277 12.1755C21.6061 12.206 21.5919 12.2414 21.5865 12.2787C21.5811 12.3159 21.5845 12.3539 21.5965 12.3895L23.0807 16.8001L21.6853 18.7948C21.6605 18.8302 21.6458 18.8718 21.6428 18.915C21.6398 18.9583 21.6486 19.0016 21.6683 19.0401C21.6879 19.0786 21.7177 19.1109 21.7543 19.1335C21.7909 19.1561 21.8329 19.168 21.8757 19.168H23.2215C23.2844 19.168 23.3463 19.1527 23.402 19.1232C23.4577 19.0938 23.5055 19.0511 23.5413 18.9988L28.023 12.448C28.0473 12.4125 28.0615 12.371 28.0642 12.328C28.0668 12.2849 28.0578 12.242 28.0381 12.2037C28.0183 12.1655 27.9886 12.1335 27.9522 12.1111C27.9157 12.0888 27.874 12.0769 27.8314 12.0769Z" fill="#253B80"/>
<path d="M32.2922 9.45452H29.4917C29.3991 9.45456 29.3095 9.48807 29.2391 9.54902C29.1687 9.60998 29.1221 9.69438 29.1077 9.78703L27.9752 17.058C27.9699 17.0917 27.9719 17.1261 27.981 17.159C27.9902 17.1918 28.0062 17.2222 28.0281 17.2481C28.05 17.2741 28.0771 17.2949 28.1077 17.3092C28.1383 17.3234 28.1716 17.3308 28.2053 17.3308H29.6424C29.7072 17.3307 29.7699 17.3072 29.8191 17.2645C29.8684 17.2218 29.9009 17.1627 29.911 17.0978L30.2324 15.0368C30.2467 14.9441 30.2933 14.8596 30.3637 14.7985C30.4341 14.7375 30.5237 14.7039 30.6164 14.7039H31.5024C33.3474 14.7039 34.4115 13.8 34.6899 12.0089C34.8156 11.2253 34.6948 10.6096 34.3325 10.1784C33.9349 9.70494 33.2294 9.45452 32.2922 9.45452ZM32.6153 12.1101C32.4626 13.1275 31.6949 13.1275 30.9522 13.1275H30.53L30.8269 11.2274C30.8354 11.1718 30.8633 11.1211 30.9055 11.0845C30.9477 11.048 31.0014 11.0279 31.057 11.028H31.2506C31.7559 11.028 32.2333 11.028 32.4798 11.3198C32.6268 11.494 32.6714 11.7527 32.6153 12.1101ZM40.6619 12.0773H39.3218C39.2663 12.0772 39.2125 12.0972 39.1703 12.1338C39.128 12.1704 39.1002 12.2211 39.0917 12.2768L39.0324 12.6565L38.9382 12.5189C38.6479 12.0923 38.001 11.9496 37.3549 11.9496C35.8732 11.9496 34.608 13.0861 34.3615 14.6802C34.2338 15.4755 34.4152 16.2358 34.8606 16.7661C35.2701 17.2537 35.8539 17.4569 36.5496 17.4569C37.7435 17.4569 38.4055 16.6795 38.4055 16.6795L38.3458 17.0568C38.3404 17.0906 38.3424 17.1251 38.3515 17.1581C38.3607 17.191 38.3768 17.2216 38.3988 17.2476C38.4207 17.2736 38.448 17.2945 38.4787 17.3088C38.5095 17.3231 38.5429 17.3305 38.5767 17.3304H39.7841C39.8768 17.3304 39.9664 17.2968 40.0368 17.2357C40.1072 17.1747 40.1538 17.0902 40.1682 16.9975L40.8933 12.3501C40.8984 12.3164 40.8963 12.2819 40.887 12.249C40.8777 12.2162 40.8616 12.1858 40.8396 12.1598C40.8176 12.1339 40.7903 12.1131 40.7597 12.0989C40.729 12.0846 40.6957 12.0773 40.6619 12.0773ZM38.7929 14.72C38.6643 15.4958 38.0555 16.0165 37.28 16.0165C36.8914 16.0165 36.5794 15.8901 36.3796 15.6504C36.1815 15.4124 36.107 15.0737 36.1692 14.6964C36.2908 13.9273 36.9082 13.3896 37.6718 13.3896C38.0526 13.3896 38.3621 13.5177 38.566 13.7594C38.7712 14.0036 38.8522 14.3444 38.7929 14.72ZM42.2428 9.65394L41.0935 17.058C41.0882 17.0917 41.0902 17.1261 41.0994 17.159C41.1085 17.1918 41.1246 17.2222 41.1464 17.2481C41.1683 17.2741 41.1955 17.2949 41.226 17.3092C41.2566 17.3234 41.2899 17.3308 41.3236 17.3308H42.479C42.671 17.3308 42.834 17.1899 42.8635 16.9979L43.9968 9.72733C44.002 9.69363 44 9.65917 43.9909 9.62633C43.9818 9.59349 43.9657 9.56304 43.9438 9.53708C43.922 9.51112 43.8948 9.49026 43.8642 9.47593C43.8337 9.46161 43.8004 9.45416 43.7667 9.4541H42.4729C42.4173 9.4543 42.3637 9.47452 42.3215 9.51114C42.2793 9.54776 42.2514 9.59838 42.2428 9.65394Z" fill="#179BD7"/>
</g>
</svg>
