<svg width="64" height="90" viewBox="0 0 64 90" fill="none" xmlns="http://www.w3.org/2000/svg">
<g clip-path="url(#clip0_1444_82)">
<path d="M4.1026 76.0346C3.20003 78.3213 3.28208 79.873 6.31798 80.8531C6.31798 80.8531 35.9385 90.3268 37.0052 89.5101C38.0718 88.6934 38.7282 88.775 39.3846 86.4066C39.959 84.0382 65.3129 11.5972 63.5077 10.0455C61.6205 8.33039 29.0462 8.53539e-05 27.8154 0.571773C24.2052 2.04183 4.67695 74.5645 4.1026 76.0346Z" fill="#FEF7BD" stroke="#694042" stroke-width="1.2577" stroke-miterlimit="10"/>
<path d="M52.2666 9.80054L27.7333 86.08L32.9846 87.5501L56.4512 10.5356L52.2666 9.80054Z" fill="#37AF9F"/>
<path d="M52.5128 10.2905L28.5538 85.5083L32.7385 86.6517L55.7949 11.1072L52.5128 10.2905Z" fill="#FCFBF6"/>
<path d="M32.9847 1.96017C30.359 1.38848 28.5539 0.898459 28.2257 0.980129C24.6154 2.45018 5.08723 74.5645 4.51287 76.0346C3.61031 78.3213 3.69236 79.4647 6.72826 80.4447C6.72826 80.4447 7.22057 80.1997 8.04108 80.4447C13.0462 62.8858 30.5231 9.55545 32.9847 1.96017Z" fill="#90B8DA"/>
<path d="M33.6411 88.5299C35.5283 89.02 36.7591 89.1833 37.0052 89.02C38.0719 88.2033 38.7283 88.6933 39.3847 86.3249C39.877 84.0381 64.8206 12.2505 63.0155 10.6171C62.6052 10.2904 61.0462 9.31035 58.2565 8.49365C53.4975 22.5408 37.3334 75.9528 33.6411 88.5299Z" fill="#90B8DA"/>
<path d="M0.492302 67.6225C0.492302 67.6225 19.0359 13.3122 21.2513 13.1489C23.3846 12.9855 62.6872 25.0726 63.5077 27.7677C64.3282 30.4628 45.1282 80.7714 43.0769 82.1597C40.9436 83.6298 -0.0820566 68.6026 0.492302 67.6225Z" fill="#388984" stroke="#694042" stroke-width="1.2577" stroke-miterlimit="10"/>
<path d="M4.75891 69.0926C15.1794 73.4211 41.3538 83.3032 42.9948 82.1598C45.1281 80.7714 64.2461 30.4629 63.4256 27.7678C62.7692 25.236 28.3897 14.9456 22.1538 13.6389C19.1999 23.1126 9.43583 53.9837 4.75891 69.0926Z" fill="#00A28A"/>
<path d="M23.0564 65.7442C19.1179 62.3141 18.7897 56.1889 22.4 52.1054C26.0102 48.0219 32.1641 47.5319 36.1025 50.962C40.041 54.3921 40.3692 60.5174 36.7589 64.6009C33.1487 68.6843 26.9948 69.1744 23.0564 65.7442ZM35.7743 51.2887C32 48.0219 26.1743 48.5119 22.7282 52.3504C19.282 56.2705 19.6102 62.0691 23.3846 65.4175C27.1589 68.6843 32.9846 68.1943 36.4307 64.3558C39.8769 60.4357 39.5487 54.6371 35.7743 51.2887Z" fill="#FFF3A2"/>
<path d="M35.3641 52.7587C36.0205 53.4937 35.5282 57.0055 36.4308 56.5972C37.0872 56.3522 37.4154 54.3921 37.9897 53.7387C37.4974 52.7587 36.841 51.942 35.9385 51.1253C32.7385 48.3485 28.0615 48.1852 24.5333 50.472C24.8615 50.6353 25.1897 50.7986 25.3538 50.962C25.682 51.3703 25.8461 51.6153 26.0923 51.3703C26.3385 51.1253 26.6667 50.0636 27.4872 49.9003C28.2256 49.6553 29.0461 50.717 29.5385 50.2269C29.9487 49.7369 30.6872 49.0836 31.5077 49.3286C32.3282 49.5736 32.8205 52.3504 33.4769 52.677C34.1333 53.0037 34.7077 52.0237 35.3641 52.7587Z" fill="#FFF3A2"/>
<path d="M35.5282 62.7223C36.1026 62.7223 37.4154 61.7423 38.7282 60.4356C39.1385 58.8022 39.1385 57.1688 38.7282 55.5354C38.1539 56.5154 37.1693 57.5771 36.5949 58.4755C35.6103 60.1089 34.2975 62.7223 35.5282 62.7223Z" fill="#FFF3A2"/>
<path d="M32.9025 65.3359C33.1487 64.7642 32.9846 63.7842 32.4102 63.2125C31.8358 62.6408 30.1948 63.5392 28.7179 63.1309C27.241 62.7225 28.3897 62.3142 28.3076 61.6608C28.1435 61.0891 26.4205 61.1708 25.764 60.4358C25.1897 59.7007 26.7487 58.9657 27.6512 58.4757C28.5538 57.9857 29.8666 61.1708 29.8666 61.1708C29.8666 61.1708 30.9333 60.3541 31.3435 59.7824C31.7538 59.2107 30.8512 58.9657 30.7692 58.394C30.6871 57.8223 31.7538 56.924 31.7538 56.1889C31.7538 55.5356 30.9333 54.8822 30.441 54.3922C29.9487 53.9022 28.882 54.6372 28.3897 54.1472C27.8153 53.6572 28.4717 53.2488 28.2256 52.5955C28.0615 52.1871 27.8974 52.3505 27.8153 52.5138C27.8974 52.3505 27.9794 52.0238 27.6512 51.6971C27.241 51.2071 25.9281 52.8405 26.0102 53.3305C26.0102 53.8205 26.5846 53.0855 26.8307 53.8205C26.9948 54.5555 24.3692 55.6172 23.8769 56.924C23.3846 58.149 24.6974 59.7007 25.2717 60.5174C25.8461 61.2524 27.6512 61.4975 27.8153 61.9058C28.0615 62.3142 26.8307 62.8042 27.4871 63.4575C28.1435 64.1109 28.7179 64.7642 28.882 65.2543C29.0461 65.7443 27.241 67.4593 27.8974 67.7044C28.4717 68.031 32.6564 65.9076 32.9025 65.3359ZM29.9487 54.8822C30.7692 54.7189 30.1128 57.169 29.6205 57.169C29.1281 57.2506 27.7333 55.2906 29.9487 54.8822Z" fill="#FFF3A2"/>
<path d="M24.8615 24.0926C24.5333 24.4193 24.2051 24.6643 24.041 24.746C23.7128 24.9093 23.5487 24.991 23.5487 24.991C23.3846 25.0726 23.1384 25.0726 22.9743 25.0726C22.8923 25.1543 22.8923 25.3177 22.8102 25.3993C22.8102 25.481 22.7282 25.6443 22.6461 25.8893C22.5641 26.0527 22.5641 26.216 22.482 26.3794C22.3179 26.706 22.1538 26.951 21.9077 27.1144L21.7436 26.951C21.6615 26.8694 21.6615 26.7877 21.6615 26.706C21.7436 26.3794 21.8256 25.971 21.9897 25.5627C22.0718 25.3177 22.2359 24.9093 22.482 24.3376C22.7282 23.7659 22.8923 23.3576 22.9743 23.1126C23.1384 22.7042 23.2205 22.2959 23.3025 21.9692C23.2205 21.9692 23.2205 21.9692 23.2205 21.8875C23.2205 21.8059 23.2205 21.7242 23.1384 21.7242C23.2205 21.5608 23.3025 21.4792 23.3846 21.5608C23.4666 21.5608 23.6307 21.6425 23.8769 21.7242C24.5333 22.0509 24.9436 22.5409 25.0256 23.1942C25.1077 23.3576 25.0256 23.6026 24.9436 23.7659C25.1077 23.7659 25.0256 23.9293 24.8615 24.0926ZM24.6153 23.3576C24.6974 23.1942 24.6974 22.9492 24.5333 22.7859C24.5333 22.7859 24.3692 22.6226 24.041 22.3775C23.7128 23.3576 23.4666 24.0109 23.3025 24.4193C23.9589 24.0926 24.3692 23.7659 24.6153 23.3576Z" fill="#FFF3A2" stroke="#FFF3A2" stroke-width="0.452" stroke-miterlimit="10"/>
<path d="M28.8 28.1762C28.8 28.2578 28.8 28.3395 28.8 28.4212C28.8 28.5028 28.7179 28.5845 28.5538 28.6662C28.4718 28.7479 28.3897 28.7479 28.3077 28.7479C28.0615 28.5845 27.9795 28.3395 28.0615 27.9312C28.1436 27.5228 28.1436 27.1145 28.1436 26.8695C27.9795 26.7878 27.8154 26.7878 27.5692 26.7061C27.3231 26.6244 27.159 26.7061 26.9949 26.7061C26.9128 26.8695 26.6667 27.1145 26.4205 27.5228C26.1744 27.8495 26.0103 28.1762 25.8462 28.3395C25.7641 28.4212 25.6821 28.4212 25.5179 28.3395C25.3538 28.2578 25.2718 28.0945 25.3538 28.0128C25.4359 27.8495 25.6 27.5228 25.8462 27.2778C26.1744 26.9511 26.3385 26.7061 26.4205 26.5428C26.4205 26.4611 26.4205 26.4611 26.4205 26.3794C26.3385 26.2978 26.3385 26.2161 26.3385 26.2161C26.3385 26.2161 26.3385 26.1344 26.4205 26.1344C26.4205 26.1344 26.5026 26.1344 26.5846 26.1344C26.6667 26.1344 26.7487 26.1344 26.7487 26.1344C26.9128 25.8894 27.241 25.4811 27.7333 24.8277C28.1436 24.256 28.4718 23.8477 28.7179 23.6027C28.8 23.521 28.882 23.521 28.9641 23.521C29.0462 23.521 29.1282 23.6027 29.1282 23.6843C29.2103 23.8477 29.2103 24.0927 29.2103 24.3377C29.1282 24.5827 29.1282 24.8277 29.0462 24.9911C28.9641 26.1344 28.882 27.2778 28.8 28.1762ZM28.2256 26.2978C28.3077 26.1344 28.3077 25.8894 28.3897 25.6444C28.3897 25.3994 28.4718 25.1544 28.4718 24.9911C28.1436 25.3994 27.8154 25.7261 27.5692 26.1344C27.6513 26.0528 27.8974 26.1344 28.2256 26.2978Z" fill="#FFF3A2" stroke="#FFF3A2" stroke-width="0.452" stroke-miterlimit="10"/>
<path d="M33.9692 24.991C33.9692 25.0727 33.8051 25.1543 33.641 25.1543C33.5589 25.1543 33.5589 25.1543 33.4769 25.1543C33.3948 25.0727 33.3948 25.0727 33.3948 25.0727H33.3128C32.9025 25.236 32.6564 25.5627 32.4923 25.971C32.4102 26.1344 32.4102 26.2977 32.4102 26.4611C32.4102 26.5427 32.4102 27.0327 32.5743 27.9311C32.6564 28.5028 32.5743 28.9928 32.4923 29.3195C32.4102 29.6462 32.2461 29.8912 32 30.0545C31.9179 30.1362 31.7538 30.2179 31.5076 30.2995C31.3435 30.3812 31.1794 30.3812 31.0153 30.2995C30.9333 30.2995 30.9333 30.2995 30.8512 30.2179C30.6871 30.0545 30.6871 29.9728 30.6871 29.8912C30.6871 29.8095 30.7692 29.7278 30.8512 29.7278C30.8512 29.7278 30.9333 29.7278 31.0153 29.7278C31.0974 29.7278 31.1794 29.7278 31.1794 29.7278C31.3435 29.5645 31.5076 29.3195 31.5897 29.0745C31.7538 28.7478 31.7538 28.1761 31.6717 27.4411C31.5897 26.7061 31.5897 26.1344 31.7538 25.726C31.8359 25.3993 32.082 25.1543 32.2461 24.9093C32.4923 24.6643 32.7384 24.501 33.0666 24.501C33.2307 24.501 33.3128 24.501 33.4769 24.501C33.723 24.5826 33.8051 24.6643 33.8871 24.8277C34.0512 24.9093 34.0512 24.991 33.9692 24.991Z" fill="#FFF3A2" stroke="#FFF3A2" stroke-width="0.452" stroke-miterlimit="10"/>
<path d="M37.7435 26.2976C37.7435 26.3793 37.5794 26.461 37.4153 26.461C37.3332 26.461 37.3332 26.461 37.2512 26.461C37.1691 26.3793 37.1691 26.3793 37.1691 26.3793H37.0871C36.6768 26.5427 36.4307 26.8693 36.2666 27.2777C36.1845 27.441 36.1025 27.6044 36.1025 27.7677C36.1025 27.8494 36.1845 28.3394 36.2666 29.1561C36.3486 29.7278 36.2666 30.2178 36.1845 30.5445C36.1025 30.8711 35.9384 31.1162 35.6922 31.2795C35.6102 31.3612 35.4461 31.4428 35.1999 31.5245C35.0358 31.6062 34.8717 31.6062 34.7076 31.5245C34.6255 31.5245 34.6255 31.5245 34.5435 31.4428C34.3794 31.2795 34.3794 31.1978 34.3794 31.1162C34.3794 31.0345 34.4614 30.9528 34.5435 30.9528C34.5435 30.9528 34.6255 30.9528 34.7076 30.9528C34.7896 30.9528 34.8717 30.9528 34.8717 30.8711C35.0358 30.7078 35.1999 30.4628 35.282 30.2178C35.4461 29.8911 35.4461 29.3194 35.364 28.5844C35.282 27.8494 35.282 27.2777 35.4461 26.8693C35.5281 26.5427 35.7743 26.2976 35.9384 26.0526C36.1845 25.8076 36.4307 25.6443 36.7589 25.6443C36.923 25.6443 37.005 25.6443 37.1691 25.6443C37.4153 25.726 37.4973 25.8076 37.5794 25.971C37.7435 26.216 37.7435 26.2976 37.7435 26.2976Z" fill="#FFF3A2" stroke="#FFF3A2" stroke-width="0.452" stroke-miterlimit="10"/>
<path d="M41.1897 29.8911C40.8615 30.2178 40.5333 30.4628 40.3692 30.5444C40.041 30.7078 39.8769 30.7894 39.8769 30.7894C39.7128 30.8711 39.4666 30.8711 39.3025 30.8711C39.2205 30.9528 39.2205 31.1161 39.1384 31.1978C39.1384 31.2795 39.0564 31.4428 38.9743 31.6878C38.8923 31.9328 38.8923 32.0145 38.8102 32.1778C38.6461 32.5045 38.482 32.7495 38.2359 32.9129L38.1538 32.6678C38.0718 32.5862 38.0718 32.5045 38.0718 32.4228C38.1538 32.0962 38.2359 31.6878 38.4 31.2795C38.482 31.0344 38.6461 30.6261 38.8923 30.0544C39.1384 29.4827 39.3025 29.0744 39.3846 28.8294C39.5487 28.421 39.6308 28.0127 39.7128 27.686C39.6308 27.686 39.6307 27.686 39.6307 27.6043C39.6307 27.5227 39.6308 27.441 39.5487 27.441C39.6308 27.2776 39.7128 27.196 39.7949 27.2776C39.8769 27.2776 40.041 27.3593 40.2872 27.441C40.9436 27.7677 41.3538 28.2577 41.4359 28.911C41.5179 29.0744 41.4359 29.3194 41.4359 29.4827C41.4359 29.5644 41.3538 29.7277 41.1897 29.8911ZM40.9436 29.0744C41.0256 28.911 41.0256 28.666 40.8615 28.5027C40.8615 28.5027 40.6974 28.3394 40.3692 28.0943C40.041 29.0744 39.7128 29.7277 39.5487 30.1361C40.2872 29.8094 40.6974 29.4827 40.9436 29.0744Z" fill="#FFF3A2" stroke="#FFF3A2" stroke-width="0.452" stroke-miterlimit="10"/>
<path d="M45.5384 32.5047C44.9641 33.0764 44.3897 33.3214 43.7333 33.3214C43.6512 33.3214 43.5692 33.3214 43.4871 33.2397C43.1589 33.158 42.9128 32.8314 42.7487 32.423C42.6666 32.0963 42.6666 31.7697 42.7487 31.443C42.9128 31.0346 43.1589 30.7079 43.5692 30.2996C43.7333 30.1363 43.8974 30.0546 44.1435 29.9729C44.3897 29.8913 44.5538 29.8096 44.7179 29.8913C44.8 29.8913 44.882 29.9729 44.882 30.0546C44.9641 30.1363 45.1282 30.2996 45.3743 30.5446C45.6205 30.7079 45.7025 30.953 45.7025 31.1163C45.7846 31.5246 45.7025 31.8513 45.6205 32.0963C45.7025 32.3413 45.6205 32.423 45.5384 32.5047ZM45.0461 31.8513C45.1282 31.443 45.1282 31.198 44.9641 31.0346H44.882C44.8 31.0346 44.7179 31.0346 44.5538 31.1163C44.3897 31.198 44.3076 31.2796 44.2256 31.2796C44.1435 31.2796 44.1435 31.2796 44.0615 31.198C43.9794 31.1163 43.9794 31.1163 43.9794 31.1163C43.9794 31.1163 43.9794 31.1163 43.8974 31.1163C43.6512 31.198 43.4871 31.443 43.323 31.7697C43.241 32.0147 43.241 32.178 43.241 32.423C43.323 32.668 43.4051 32.8314 43.4871 32.913C43.7333 32.9947 43.9794 32.913 44.3076 32.7497C44.8 32.2597 45.0461 32.0963 45.0461 31.8513Z" fill="#FFF3A2" stroke="#FFF3A2" stroke-width="0.452" stroke-miterlimit="10"/>
<path d="M49.8872 36.0981C49.9692 36.0981 49.9692 36.0981 49.8872 36.0981C49.8051 36.2614 49.641 36.3431 49.3948 36.3431C49.2307 36.0164 48.9846 35.6081 48.7384 34.9547C48.4923 34.3014 48.2461 33.8113 48.082 33.5663C48 33.7297 47.8359 34.0563 47.5897 34.628C47.4256 35.0364 47.1795 35.3631 47.0154 35.6081H46.9333C46.8513 35.6081 46.8513 35.6081 46.7692 35.6081C46.5231 35.4447 46.5231 35.2814 46.6051 35.0364C46.6051 34.9547 46.6872 34.873 46.7692 34.7097C46.8513 34.5464 46.9333 34.4647 46.9333 34.4647C47.0974 34.138 47.1795 33.8113 47.4256 33.403L47.7538 32.5046C48 31.7696 48.3282 31.1979 48.5743 30.7079C48.7384 30.3812 49.1487 30.3812 49.641 30.5445C49.8872 30.6262 50.1333 30.8712 50.2154 31.1979C50.2974 31.5246 50.2974 31.8513 50.2154 32.0963C50.1333 32.3413 49.9692 32.5863 49.641 32.7496C49.3948 32.913 49.1487 32.9946 48.9025 33.0763C48.8205 33.0763 48.7384 33.158 48.6564 33.2396C48.6564 33.3213 48.6564 33.403 48.7384 33.5663C48.8205 33.648 48.8205 33.7297 48.9025 33.893C48.9025 33.893 49.0666 34.3014 49.4769 34.9547C49.7231 35.3631 49.8872 35.7714 49.8872 36.0981ZM49.641 31.9329C49.7231 31.8513 49.7231 31.7696 49.7231 31.6879C49.7231 31.6063 49.7231 31.4429 49.7231 31.3612C49.641 31.2796 49.559 31.1979 49.3948 31.1162C49.2307 31.0346 49.1487 31.1162 49.1487 31.1162C49.0666 31.1979 48.9846 31.3612 48.9025 31.5246C48.9025 31.6063 48.8205 31.7696 48.7384 32.0963C48.6564 32.3413 48.5743 32.5046 48.5743 32.5863C49.0666 32.4229 49.4769 32.2596 49.641 31.9329Z" fill="#FFF3A2"/>
<path d="M49.8872 36.0981C49.9692 36.0981 49.9692 36.0981 49.8872 36.0981ZM49.8872 36.0981C49.8051 36.2614 49.641 36.3431 49.3948 36.3431C49.2307 36.0164 48.9846 35.6081 48.7384 34.9547C48.4923 34.3014 48.2461 33.8113 48.082 33.5663C48 33.7297 47.8359 34.0563 47.5897 34.628C47.4256 35.0364 47.1795 35.3631 47.0154 35.6081H46.9333C46.8513 35.6081 46.8513 35.6081 46.7692 35.6081C46.5231 35.4447 46.5231 35.2814 46.6051 35.0364C46.6051 34.9547 46.6872 34.873 46.7692 34.7097C46.8513 34.5464 46.9333 34.4647 46.9333 34.4647C47.0974 34.138 47.1795 33.8113 47.4256 33.403L47.7538 32.5046C48 31.7696 48.3282 31.1979 48.5743 30.7079C48.7384 30.3812 49.1487 30.3812 49.641 30.5445C49.8872 30.6262 50.1333 30.8712 50.2154 31.1979C50.2974 31.5246 50.2974 31.8513 50.2154 32.0963C50.1333 32.3413 49.9692 32.5863 49.641 32.7496C49.3948 32.913 49.1487 32.9946 48.9025 33.0763C48.8205 33.0763 48.7384 33.158 48.6564 33.2396C48.6564 33.3213 48.6564 33.403 48.7384 33.5663C48.8205 33.648 48.8205 33.7297 48.9025 33.893C48.9025 33.893 49.0666 34.3014 49.4769 34.9547C49.7231 35.3631 49.8872 35.7714 49.8872 36.0981ZM49.641 31.9329C49.7231 31.8513 49.7231 31.7696 49.7231 31.6879C49.7231 31.6063 49.7231 31.4429 49.7231 31.3612C49.641 31.2796 49.559 31.1979 49.3948 31.1162C49.2307 31.0346 49.1487 31.1162 49.1487 31.1162C49.0666 31.1979 48.9846 31.3612 48.9025 31.5246C48.9025 31.6063 48.8205 31.7696 48.7384 32.0963C48.6564 32.3413 48.5743 32.5046 48.5743 32.5863C49.0666 32.4229 49.4769 32.2596 49.641 31.9329Z" stroke="#FFF3A2" stroke-width="0.452" stroke-miterlimit="10"/>
<path d="M56.8615 32.9129C56.7795 33.0763 56.6154 33.1579 56.4513 33.1579C56.041 33.1579 55.4667 32.9946 54.5641 32.9129C53.9897 34.2196 53.4974 35.2813 53.1692 36.098C53.0051 36.4247 52.9231 36.7514 52.841 37.0781C52.841 37.1597 52.759 37.2414 52.759 37.3231C52.6769 37.4047 52.5949 37.4047 52.5949 37.4047C52.4308 37.3231 52.3487 37.2414 52.2667 37.0781C52.1846 36.9147 52.1846 36.7514 52.2667 36.5881C52.3487 36.4247 52.4308 36.1797 52.5128 35.9347C52.6769 35.608 52.841 35.0363 53.1692 34.3013C53.4974 33.5663 53.7436 33.0763 53.8256 32.6679C53.6615 32.5862 53.4974 32.5862 53.2513 32.5046C52.9231 32.4229 52.759 32.4229 52.5949 32.3412C52.3487 32.2596 52.1846 32.0962 52.0205 31.9329C52.0205 31.7695 52.0205 31.6879 52.0205 31.6879L52.1026 31.6062C52.2667 31.6062 52.6769 31.6879 53.1692 31.7695C53.6615 31.8512 53.9897 31.9329 54.3179 31.8512C54.482 32.0145 54.6461 32.0962 54.8923 32.1779C55.1385 32.2596 55.3846 32.3412 55.6308 32.3412C55.7128 32.3412 55.8769 32.3412 56.1231 32.4229C56.2872 32.4229 56.4513 32.5046 56.6154 32.5046C56.6974 32.5046 56.6974 32.5862 56.6974 32.6679C56.8615 32.6679 56.9436 32.7496 56.8615 32.9129Z" fill="#FFF3A2" stroke="#FFF3A2" stroke-width="0.452" stroke-miterlimit="10"/>
<path d="M40.9436 17.0691L43.8154 6.69702L51.3641 8.98377L48.4103 19.1108L40.9436 17.0691Z" fill="#37AF9F"/>
<path d="M41.6 16.5791L44.1436 7.2688L50.8718 9.31054L48.3282 18.3759L41.6 16.5791Z" fill="#FCFBF6"/>
</g>
<defs>
<clipPath id="clip0_1444_82">
<rect width="64" height="90" fill="white"/>
</clipPath>
</defs>
</svg>
