<svg width="121" height="108" viewBox="0 0 121 108" fill="none" xmlns="http://www.w3.org/2000/svg">
<path d="M19.8 36.0266C19.6 37.0266 20 37.6266 20.3 38.1266C23.4 43.0266 26.6 47.9266 29.6 52.9266C32.3 57.4266 35.6 61.5266 38.7 65.7266C39.2 66.4266 39.8 67.0266 40.5 67.5266C44.7 70.5266 48 74.2266 50.7 78.6266C52.3 81.2266 54 83.8266 55.1 86.6266C56.5 90.0266 57.2 93.5266 57.9 97.1266C58.4 100.027 58.8 103.027 58.8 105.927C58.8 106.427 58.7 106.827 58.6 107.327C58.5 107.627 57.9 107.827 57.6 107.527C57.5 107.427 57.3 107.327 57.2 107.127C55.7 104.427 54.2 101.627 52.5 98.9266C50.8 96.1266 49.8 93.0266 47.9 90.3266C47.4 89.6266 47.2 88.7266 46.9 87.9266C44.7 82.5266 42.5 77.1266 40.4 71.7266C39.6 69.6266 38.5 67.8266 37.1 66.0266C33 60.9266 29.3 55.6266 26 50.1266C22.8 44.8266 19.4 39.6266 16.2 34.3266C14.5 31.4266 12.9 28.5266 11.2 25.7266C9.70001 23.1266 8.90001 20.3266 7.10001 17.9266C6.70001 17.4266 6.50001 16.7266 6.30001 16.1266C1.60001 4.5266 -3.09999 -7.0734 -7.69999 -18.6734C-8.09999 -19.5734 -8.59999 -20.3734 -8.39999 -21.3734C-8.39999 -21.6734 -8.19999 -21.8734 -7.89999 -21.9734C-7.59999 -22.0734 -7.29999 -21.8734 -7.19999 -21.6734C-6.49999 -19.0734 -4.29999 -18.5734 -2.19999 -17.9734C0.100006 -17.3734 2.30001 -16.4734 4.50001 -15.4734C7.90001 -13.9734 10.8 -11.8734 13.2 -9.0734C16.1 -5.7734 18.8 -2.2734 21.2 1.4266C21.6 2.0266 22 2.7266 22.2 3.4266C22.3 4.0266 21.9 4.6266 21.3 4.6266C20.1 4.5266 18.9 4.2266 17.7 3.8266C13.6 2.3266 9.90001 0.1266 6.60001 -2.5734C4.00001 -4.7734 1.40001 -7.0734 -0.999993 -9.5734C-1.79999 -10.3734 -2.19999 -11.5734 -3.19999 -12.1734C-3.79999 -11.9734 -3.49999 -11.5734 -3.39999 -11.2734C-2.59999 -9.4734 -2.09999 -7.4734 -0.899993 -5.7734C-0.699993 -5.4734 -0.499993 -5.0734 -0.399993 -4.7734C0.200007 -1.6734 1.80001 1.1266 2.80001 4.1266C2.90001 4.4266 3.00001 4.7266 3.10001 4.9266C5.70001 9.0266 7.10001 13.6266 8.90001 18.0266C10 20.7266 11.6 23.0266 12.8 25.6266C13.3 26.7266 14.1 27.7266 14.6 28.9266C15.1 30.0266 15.9 30.4266 17.1 30.3266C18.7 30.2266 20.3 30.2266 22 30.2266C24.4 30.2266 26.7 30.7266 29 31.6266C34.5 33.7266 39.3 36.9266 43.4 41.2266C44.5 42.4266 45.8 43.4266 46.8 44.7266C46.9 44.9266 47 45.2266 47 45.5266C46.9 46.0266 46.5 46.0266 46.1 45.9266C45.2 45.8266 44.2 45.6266 43.3 45.4266C37.9 44.0266 32.7 42.4266 27.6 40.2266C24.8 38.8266 22.6 37.2266 19.8 36.0266Z" fill="#E6B978"/>
<path d="M2.20001 10.5267C2.60001 12.9267 3.20001 15.4267 3.50001 17.9267C4.20001 23.9267 4.40001 29.9267 2.90001 35.8267C2.30001 38.1267 1.70001 40.4267 0.800005 42.6267C-0.0999947 44.7267 -0.999993 46.8267 -1.89999 48.9267C-2.09999 49.4267 -2.39999 49.9267 -2.69999 50.4267C-2.99999 50.9267 -3.79999 50.8267 -4.19999 50.3267C-4.49999 49.9267 -4.59999 49.4267 -4.59999 49.0267C-5.19999 44.9267 -5.39999 40.8267 -5.09999 36.7267C-4.89999 33.3267 -4.49999 29.9267 -4.29999 26.4267C-3.89999 20.6267 -2.39999 15.1267 0.100007 9.92669C0.300006 9.52669 0.400006 8.92669 1.00001 9.02669C1.50001 9.12669 1.80001 9.52669 2.00001 9.92669C2.00001 10.1267 2.10001 10.2267 2.20001 10.5267Z" fill="#E6B978"/>
<path d="M12.4 32.6267C12.9 34.4267 13.5 36.3267 13.8 38.1267C14.5 41.7267 14.7 45.3267 14.6 48.9267C14.5 54.8267 13.4 60.4267 12.1 66.1267C11.9 66.8267 11.6 67.5267 11.3 68.2267C11.1 68.7267 10.2 68.8267 9.80001 68.3267C9.20001 67.7267 8.90001 66.8267 8.70001 66.0267C7.20001 60.1267 6.20001 54.1267 6.10001 48.0267C6.00001 42.9267 6.70001 37.9267 8.60001 33.2267C8.80001 32.7267 9.00001 32.1267 9.30001 31.6267C9.90001 30.5267 11.1 30.4267 11.8 31.5267C12.1 31.9267 12.3 32.2267 12.4 32.6267Z" fill="#E6B978"/>
<path d="M39.6 26.7269C39.3 27.0269 38.9 27.0268 38.5 26.9268C36.9 26.4268 35.2 25.9269 33.6 25.3269C29.1 23.5269 24.4 22.1269 20 20.0269C16.6 18.4269 13.4 16.7269 10.3 14.5269C9 13.5269 7.8 12.4268 6.9 11.1269C6.6 10.7269 6.9 10.0269 7.4 10.1269C10.4 10.3269 13.5 10.2269 16.5 11.1269C18.8 11.8268 21 12.7269 23.2 13.5269C28.1 15.4269 32.1 18.6269 35.8 22.2269C37 23.4269 38.3 24.6269 39.5 25.8269C39.9 26.0269 39.9 26.4269 39.6 26.7269Z" fill="#E6B978"/>
<path d="M35 65.7262C36.3 68.2262 36.5 70.4262 36.9 72.6262C37.6 76.9262 37.6 81.3262 37.4 85.7262C37.2 90.0262 36.7 94.3262 36.4 98.5262C36.4 98.9262 36.3 99.3262 36.3 99.6262C36.2 100.026 36.1 100.426 35.7 100.526C35.3 100.626 35 100.326 34.8 99.9262C34.2 98.5262 33.5 97.1262 33.2 95.6262C31.7 88.9262 30.4 82.2262 30.5 75.3262C30.6 71.8262 31.4 68.5262 32.3 65.2262C32.4 64.7262 32.7 64.1262 33 63.6262C33.3 63.0262 34 62.9262 34.3 63.5262C34.6 64.5262 34.9 65.4262 35 65.7262Z" fill="#E6B978"/>
<path d="M28.5 49.5267C28 48.6267 28.2 48.3267 29.2 48.1267C31.6 47.8267 34 48.4267 36.2 49.0267C38.2 49.6267 40.2 50.4267 42 51.4267C47.3 54.6267 51.8 58.6267 56 63.0267C56.3 63.3267 56.5 63.6267 56.6 63.9267C56.7 64.1267 56.6 64.4267 56.5 64.7267C56.4 64.8267 56.2 64.9267 56 64.9267C55.8 64.9267 55.6 64.9267 55.4 64.8267C49.4 62.7267 43.5 60.3267 37.7 57.6267C36 56.8267 34.4 55.7267 32.8 54.6267C30.9 53.5267 29.6 51.5267 28.5 49.5267Z" fill="#E6B978"/>
<path d="M24.6 53.6268C25.1 54.7268 25.4 55.9268 25.7 57.1268C27.2 64.6268 26.3 71.9268 24.4 79.2268C24.3 79.5268 24.2 79.7268 24.1 80.0268C23.7 81.1268 23.9 82.5268 22.6 83.2268C21.7 82.3268 21.5 81.0268 21 79.9268C20.8 79.5268 20.8 79.0268 20.7 78.5268C19.8 72.1268 19.7 65.8268 20.8 59.4268C21.1 58.0268 21.3 56.6268 21.5 55.2268C21.7 54.0268 22.2 52.8268 22.8 51.7268C23 51.3268 23.6 51.3268 23.7 51.7268C24.1 52.3268 24.3 52.9268 24.6 53.6268Z" fill="#E6B978"/>
<path d="M53.1 33.3266C53.4 34.3266 54 34.6266 54.5 34.9266C59.5 37.9266 64.5 40.8266 69.5 43.8266C74 46.6266 78.7 48.8266 83.4 51.1266C84.2 51.5266 85 51.8266 85.8 51.9266C90.9 52.6266 95.6 54.5266 99.9 57.1266C102.5 58.7266 105.1 60.2266 107.5 62.2266C110.3 64.6266 112.5 67.4266 114.7 70.3266C116.5 72.6266 118.1 75.1266 119.5 77.7266C119.7 78.1266 119.9 78.6266 120 79.0266C120.1 79.3266 119.5 79.7266 119.2 79.6266C119 79.5266 118.8 79.5266 118.7 79.4266C116.1 77.7266 113.5 75.8266 110.8 74.2266C108 72.5266 105.7 70.2266 102.8 68.6266C102.1 68.2266 101.5 67.5266 100.8 67.0266C96.4 63.2266 92 59.4266 87.6 55.5266C85.9 54.0266 84.1 52.8266 82.1 51.9266C76.2 49.2266 70.5 46.2266 65 42.7266C59.8 39.4266 54.4 36.4266 49.1 33.1266C46.3 31.3266 43.5 29.5266 40.7 27.7266C38.2 26.1266 36.2 23.9266 33.5 22.6266C32.9 22.3266 32.4 21.8266 31.9 21.3266C22.7 13.3266 13.3 5.12664 3.90001 -3.17336C3.20001 -3.77336 2.30001 -4.27336 2.00001 -5.27336C1.90001 -5.57336 1.90001 -5.87336 2.10001 -6.07336C2.30001 -6.37336 2.70001 -6.27336 2.90001 -6.07336C4.70001 -4.07336 6.90001 -4.67336 9.00001 -5.07336C11.4 -5.57336 13.7 -5.77336 16.1 -5.87336C19.8 -6.07336 23.3 -5.57336 26.8 -4.17336C30.9 -2.57336 34.8 -0.573358 38.6 1.62664C39.3 2.02664 39.9 2.42664 40.4 3.02664C40.8 3.52664 40.7 4.22664 40.1 4.42664C38.9 4.92664 37.7 5.12664 36.5 5.32664C32.2 5.82664 27.9 5.62664 23.7 4.62664C20.4 3.82664 17 2.92664 13.8 1.82664C12.7 1.42664 11.8 0.626644 10.6 0.526644C10.2 1.02664 10.6 1.22664 10.8 1.42664C12.3 2.72664 13.7 4.22664 15.5 5.22664C15.8 5.42664 16.2 5.62664 16.4 5.92664C18.3 8.42664 21 10.2266 23.3 12.4266C23.5 12.6266 23.7 12.8266 24 13.0266C28.2 15.5266 31.5 18.9266 35.1 22.0266C37.3 23.9266 39.8 25.3266 42.1 27.0266C43.1 27.7266 44.2 28.3266 45.1 29.1266C46 29.8266 46.9 29.8266 48 29.2266C49.4 28.4266 50.8 27.6266 52.3 26.9266C54.5 25.8266 56.7 25.2266 59.1 25.0266C65 24.4266 70.7 25.0266 76.3 27.0266C77.8 27.6266 79.4 27.8266 80.9 28.6266C81.1 28.7266 81.3 29.0266 81.4 29.2266C81.5 29.7266 81.1 29.9266 80.8 30.0266C79.9 30.3266 79 30.6266 78.1 30.8266C72.7 32.0266 67.2 32.9266 61.7 33.3266C58.8 33.5266 56.1 33.1266 53.1 33.3266Z" fill="#CC5929"/>
<path d="M5.8 0.826306C8.4 3.92631 11.4 6.82631 13.2 10.7263C15.7 16.1263 17.3 21.8263 18.2 27.6263C18.8 31.5263 18.8 35.4263 18.4 39.3263C18.3 40.6263 18.2 42.0263 18 43.3263C18 43.8263 17.8 44.3263 17.3 44.4263C16.8 44.6263 16.4 44.3263 16 43.9263C15.5 43.4263 15.1 42.9263 14.7 42.4263C13.3 40.8263 12.4 38.8263 11.4 36.8263C8.3 30.5263 5.6 24.2263 4.3 17.2263C3.7 13.8263 3.6 10.4263 3.5 7.02631C3.5 6.02631 3.5 4.92631 3.6 3.92631C3.7 2.92631 3.8 1.82631 3.9 0.826306C4 0.226306 4.5 0.0263059 5 0.326306C5.2 0.426306 5.4 0.626306 5.8 0.826306Z" fill="#CC5929"/>
<path d="M25.8 18.5265C27.3 20.4265 28.9 22.4265 30.3 24.5265C33.7 29.5265 36.5 34.8265 37.9 40.7265C38.4 43.0265 38.9 45.3265 39.1 47.7265C39.2 50.0265 39.4 52.3265 39.5 54.6265C39.5 55.2265 39.5 55.7265 39.5 56.3265C39.4 56.9265 38.7 57.2265 38.1 56.9265C37.6 56.7265 37.4 56.3265 37.1 55.9265C34.7 52.5265 32.7 49.0265 31.1 45.2265C29.7 42.1265 28.5 38.8265 27.2 35.7265C24.9 30.4265 23.8 24.8265 23.7 19.0265C23.7 18.5265 23.5 18.0265 24.1 17.8265C24.6 17.6265 25 17.9265 25.4 18.2265C25.6 18.3265 25.6 18.4265 25.8 18.5265Z" fill="#CC5929"/>
<path d="M45 33.6267C46.3 35.0267 47.6 36.4267 48.8 37.9267C51 40.8267 52.8 43.9267 54.4 47.2267C57 52.4267 58.5 58.0267 60 63.7267C60.2 64.4267 60.2 65.2267 60.2 66.0267C60.2 66.6267 59.5 67.0267 58.9 66.8267C58 66.5267 57.5 65.9267 56.9 65.3267C52.9 60.7267 49.3 55.8267 46.4 50.4267C44 45.9267 42.4 41.2267 41.9 36.0267C41.9 35.4267 41.8 34.9267 41.8 34.3267C41.9 33.0267 42.9 32.4267 44 33.1267C44.4 33.1267 44.7 33.3267 45 33.6267Z" fill="#CC5929"/>
<path d="M66.6 16.0264C66.4 16.4264 66.1 16.6264 65.7 16.6264C64 16.9264 62.3 17.2264 60.6 17.4264C55.8 17.8264 51 18.7264 46.1 18.8264C42.4 18.9264 38.7 18.8264 35 18.2264C33.4 17.9264 31.8 17.5264 30.4 16.7264C29.9 16.4264 29.9 15.8264 30.4 15.5264C33.2 14.3264 35.9 12.8264 38.9 12.3264C41.3 11.9264 43.6 11.7264 46 11.4264C51.2 10.9264 56.3 12.0264 61.2 13.4264C62.8 13.9264 64.5 14.4264 66.1 14.9264C66.5 15.3264 66.7 15.6264 66.6 16.0264Z" fill="#CC5929"/>
<path d="M80.2 52.9271C82.5 54.6271 83.7 56.4271 85 58.2271C87.6 61.7271 89.6 65.7271 91.3 69.7271C93 73.6271 94.6 77.6271 96.2 81.6271C96.3 82.0271 96.5 82.3271 96.6 82.7271C96.7 83.1271 96.7 83.5271 96.4 83.8271C96.1 84.1271 95.7 83.9271 95.4 83.7271C94.2 82.7271 93 81.8271 92 80.6271C87.7 75.3271 83.4 69.9271 80.4 63.7271C78.9 60.6271 78.2 57.2271 77.4 53.9271C77.3 53.4271 77.3 52.8271 77.3 52.2271C77.3 51.5271 77.9 51.1271 78.5 51.5271C79.2 52.0271 79.9 52.7271 80.2 52.9271Z" fill="#CC5929"/>
<path d="M66.9 41.4263C66.1 40.8263 66.1 40.4263 66.9 39.8263C68.9 38.4263 71.3 37.9263 73.6 37.5263C75.6 37.1263 77.8 36.9263 79.9 37.1263C86 37.5263 91.9 39.0263 97.7 41.1263C98 41.2263 98.4 41.4263 98.7 41.7263C98.9 41.9263 98.9 42.2263 99 42.4263C99 42.5263 98.8 42.7263 98.7 42.8263C98.5 42.9263 98.3 42.9263 98.2 43.0263C91.9 43.8263 85.5 44.4263 79.1 44.6263C77.2 44.7263 75.3 44.4263 73.4 44.1263C70.9 43.9263 68.8 42.7263 66.9 41.4263Z" fill="#CC5929"/>
<path d="M65.3 46.8262C66.3 47.6262 67.1 48.5262 67.9 49.5262C72.6 55.5262 75.1 62.5262 76.8 69.8262C76.9 70.1262 76.9 70.4262 76.9 70.6262C77 71.8262 77.9 72.9262 77 74.1262C75.8 73.7262 75 72.7262 74.1 71.9262C73.7 71.6262 73.5 71.2262 73.2 70.8262C69.5 65.5262 66.5 59.9262 64.7 53.7262C64.3 52.3262 63.8 51.0262 63.4 49.6262C63 48.4262 63 47.2262 63 45.9262C63 45.5262 63.5 45.2262 63.8 45.5262C64.3 45.9262 64.8 46.3262 65.3 46.8262Z" fill="#CC5929"/>
</svg>
