<svg width="126" height="122" viewBox="0 0 126 122" fill="none" xmlns="http://www.w3.org/2000/svg">
<path d="M73.5097 111.113C73.2097 110.013 72.6097 109.613 72.0097 109.213C66.5097 105.613 60.9097 102.113 55.5097 98.413C50.6097 95.113 45.3097 92.313 40.1097 89.513C39.2097 89.013 38.4097 88.713 37.4097 88.513C31.7097 87.413 26.5097 85.113 21.7097 81.913C18.8097 80.013 15.9097 78.113 13.4097 75.813C10.4097 73.013 8.00969 69.713 5.60969 66.313C3.70969 63.613 1.90969 60.713 0.509691 57.713C0.309691 57.213 0.109691 56.713 0.00969074 56.213C-0.0903093 55.913 0.609691 55.413 0.909691 55.513C1.10969 55.613 1.30969 55.613 1.50969 55.713C4.40969 57.813 7.20969 60.013 10.1097 62.013C13.2097 64.013 15.7097 66.813 18.8097 68.713C19.6097 69.213 20.3097 70.013 21.0097 70.613C25.8097 75.113 30.6097 79.613 35.4097 84.213C37.2097 86.013 39.2097 87.413 41.5097 88.513C48.1097 91.813 54.4097 95.513 60.4097 99.713C66.2097 103.713 72.1097 107.413 77.9097 111.313C81.0097 113.413 84.1097 115.713 87.1097 117.813C89.9097 119.713 92.1097 122.313 95.1097 123.913C95.7097 124.213 96.3097 124.913 96.8097 125.413C107.11 135.113 117.41 144.913 127.71 154.713C128.51 155.413 129.41 156.113 129.71 157.213C129.81 157.513 129.71 157.813 129.51 158.113C129.21 158.413 128.81 158.313 128.61 158.113C126.71 155.713 124.11 156.313 121.71 156.713C119.01 157.113 116.31 157.213 113.61 157.313C109.41 157.413 105.41 156.613 101.61 154.813C97.1097 152.713 92.7097 150.413 88.5097 147.713C87.8097 147.213 87.1097 146.813 86.5097 146.113C86.1097 145.513 86.2097 144.713 86.9097 144.513C88.2097 144.013 89.6097 143.813 91.0097 143.713C95.9097 143.313 100.71 143.813 105.41 145.113C109.11 146.113 112.91 147.313 116.51 148.713C117.71 149.213 118.71 150.213 120.01 150.313C120.51 149.813 120.01 149.513 119.81 149.313C118.11 147.813 116.71 146.013 114.71 144.813C114.31 144.613 114.01 144.313 113.71 144.013C111.61 141.013 108.71 138.913 106.21 136.413C106.01 136.213 105.81 135.913 105.51 135.713C100.91 132.713 97.3097 128.613 93.4097 125.013C91.0097 122.813 88.2097 121.113 85.8097 119.013C84.7097 118.113 83.5097 117.413 82.5097 116.513C81.5097 115.513 80.5097 115.513 79.3097 116.213C77.7097 117.113 76.0097 117.913 74.4097 118.613C71.9097 119.713 69.3097 120.313 66.6097 120.513C59.9097 121.013 53.5097 119.913 47.2097 117.413C45.5097 116.713 43.7097 116.313 42.1097 115.413C41.9097 115.313 41.6097 114.913 41.6097 114.713C41.5097 114.213 41.9097 113.913 42.3097 113.813C43.3097 113.513 44.4097 113.213 45.4097 113.013C51.6097 111.913 57.8097 111.113 64.1097 111.013C67.0097 110.613 70.1097 111.213 73.5097 111.113Z" fill="#426667"/>
<path d="M125.61 150.013C122.81 146.413 119.61 142.913 117.71 138.413C115.11 132.213 113.51 125.713 112.81 119.013C112.31 114.613 112.51 110.213 113.11 105.813C113.31 104.313 113.51 102.813 113.71 101.313C113.81 100.813 114.01 100.213 114.61 100.113C115.21 99.9128 115.71 100.313 116.01 100.713C116.51 101.313 116.91 101.913 117.41 102.513C118.91 104.513 119.91 106.813 120.91 109.113C124.11 116.313 126.91 123.713 128.01 131.613C128.51 135.513 128.51 139.313 128.51 143.213C128.51 144.413 128.41 145.613 128.31 146.713C128.21 147.913 128.01 149.113 127.81 150.213C127.71 150.813 127.11 151.013 126.61 150.713C126.21 150.513 125.91 150.313 125.61 150.013Z" fill="#426667"/>
<path d="M103.71 129.113C102.11 126.913 100.41 124.513 98.9097 122.113C95.3097 116.313 92.3097 110.213 91.1097 103.413C90.6097 100.813 90.2097 98.1128 90.1097 95.4128C90.0097 92.8128 90.0097 90.2128 89.9097 87.6128C89.9097 87.0128 89.9097 86.3128 90.0097 85.7128C90.1097 85.1128 91.0097 84.8128 91.6097 85.1128C92.1097 85.4128 92.4097 85.8128 92.7097 86.3128C95.2097 90.2128 97.3097 94.3128 99.0097 98.7128C100.41 102.313 101.61 106.013 103.01 109.613C105.31 115.713 106.31 122.113 106.21 128.613C106.21 129.113 106.31 129.813 105.71 130.013C105.21 130.213 104.71 129.813 104.21 129.513C104.01 129.413 103.91 129.313 103.71 129.113Z" fill="#426667"/>
<path d="M82.7096 111.214C81.3096 109.514 79.9096 107.914 78.6096 106.214C76.2097 102.914 74.3096 99.2137 72.7096 95.5137C70.0096 89.4137 68.5096 83.0137 67.2096 76.6137C67.0096 75.8137 67.0096 74.9137 67.0096 74.0137C67.0096 73.4137 67.8096 72.9137 68.5096 73.2137C69.5096 73.6137 70.1096 74.3137 70.7096 75.0137C75.0096 80.4137 78.8096 86.1137 81.9096 92.3137C84.4096 97.5137 86.0096 102.914 86.3096 108.714C86.3096 109.314 86.4096 110.014 86.3096 110.614C86.2096 112.014 85.0096 112.714 83.8096 111.914C83.4096 111.814 83.0096 111.514 82.7096 111.214Z" fill="#426667"/>
<path d="M43.8096 87.7132C41.3096 85.7132 40.0096 83.6132 38.6096 81.5132C35.8096 77.4132 33.8096 72.8132 32.0096 68.2132C30.2096 63.7132 28.7096 59.1132 27.0096 54.5132C26.9096 54.1132 26.7096 53.7132 26.6096 53.3132C26.5096 52.9132 26.5096 52.4132 26.9096 52.1132C27.3096 51.8132 27.7096 52.0132 28.1096 52.3132C29.4096 53.5132 30.8096 54.6132 31.8096 55.9132C36.5096 62.1132 41.0096 68.4132 44.1096 75.6132C45.7096 79.2132 46.3096 83.0133 47.0096 86.8133C47.1096 87.4132 47.0096 88.1132 47.0096 88.7132C46.9096 89.5132 46.2096 89.9132 45.7096 89.4132C44.9096 88.7132 44.1096 88.0132 43.8096 87.7132Z" fill="#426667"/>
<path d="M58.2096 101.314C59.1096 102.114 59.0096 102.514 58.1096 103.114C55.8096 104.614 53.1096 105.014 50.4096 105.414C48.1096 105.714 45.6096 105.914 43.3096 105.614C36.4096 104.814 29.8096 102.914 23.4096 100.214C23.0096 100.014 22.6096 99.8137 22.3096 99.5137C22.1096 99.3137 22.0096 98.9137 22.0096 98.6137C22.0096 98.5137 22.2096 98.3137 22.4096 98.2137C22.6096 98.1137 22.8096 98.1137 23.0096 98.0137C30.2096 97.3137 37.4096 97.0137 44.6096 97.0137C46.7096 97.0137 48.9096 97.4137 51.0096 97.8137C53.9096 98.3137 56.2096 99.8137 58.2096 101.314Z" fill="#426667"/>
<path d="M60.3097 95.3135C59.2097 94.4135 58.4097 93.3135 57.5097 92.2135C52.5097 85.2135 49.9097 77.2135 48.4097 68.8135C48.3097 68.5135 48.3097 68.2135 48.3097 67.8135C48.2097 66.5135 47.3097 65.2135 48.3097 63.8135C49.7097 64.3135 50.5097 65.5135 51.5097 66.4135C51.9097 66.8135 52.2097 67.2135 52.5097 67.7135C56.4097 73.8135 59.6097 80.3135 61.4097 87.4135C61.8097 89.0135 62.2097 90.5135 62.6097 92.1135C63.0097 93.5135 62.9097 94.9135 62.9097 96.3135C62.9097 96.8135 62.3097 97.1135 62.0097 96.8135C61.4097 96.3135 60.9097 95.8135 60.3097 95.3135Z" fill="#426667"/>
<path d="M117.91 77.913C116.91 77.513 116.61 76.813 116.41 76.113C113.91 70.413 111.61 64.613 109.11 58.913C106.81 53.713 105.11 48.413 103.41 43.013C103.11 42.113 102.91 41.213 102.91 40.313C102.91 34.813 101.51 29.613 99.4097 24.513C98.1097 21.513 96.8097 18.513 95.1097 15.713C93.0097 12.413 90.3097 9.61301 87.5097 6.81301C85.3097 4.51301 82.9097 2.41301 80.3097 0.613007C79.8097 0.413007 79.3097 0.213006 78.9097 0.0130065C78.6097 -0.0869935 78.0097 0.413006 78.1097 0.713006C78.1097 0.913006 78.1097 1.11301 78.2097 1.31301C79.7097 4.31301 81.3097 7.31301 82.6097 10.413C84.0097 13.613 86.1097 16.413 87.4097 19.713C87.7097 20.513 88.3097 21.313 88.8097 22.113C92.2097 27.313 95.6097 32.613 99.1097 37.813C100.41 39.813 101.41 41.913 102.11 44.213C104.11 50.913 106.51 57.413 109.41 63.713C112.11 69.813 114.61 75.913 117.31 82.013C118.81 85.313 120.41 88.513 121.81 91.713C123.11 94.613 125.21 97.113 126.21 100.113C126.41 100.813 126.91 101.313 127.31 101.913C134.71 113.113 142.11 124.413 149.41 135.613C150.01 136.413 150.41 137.413 151.41 137.913C151.71 138.013 152.01 138.013 152.31 137.913C152.61 137.713 152.61 137.313 152.51 137.113C150.61 134.913 151.61 132.613 152.31 130.513C153.21 128.113 153.71 125.613 154.21 123.113C154.91 119.213 154.91 115.413 153.91 111.513C152.71 106.913 151.31 102.413 149.51 98.113C149.21 97.313 148.91 96.613 148.31 96.013C147.81 95.513 147.11 95.513 146.71 96.113C146.01 97.313 145.61 98.513 145.21 99.813C144.01 104.313 143.71 108.913 144.11 113.513C144.51 117.213 144.91 120.813 145.61 124.513C145.81 125.713 146.61 126.813 146.51 128.013C145.91 128.413 145.81 127.913 145.61 127.613C144.51 125.813 143.01 124.113 142.31 122.113C142.21 121.713 142.01 121.313 141.71 121.013C139.31 118.613 137.81 115.513 135.81 112.713C135.61 112.513 135.41 112.213 135.31 111.913C133.31 107.113 130.11 103.113 127.31 98.813C125.61 96.213 124.51 93.313 123.01 90.713C122.31 89.613 121.91 88.313 121.21 87.213C120.51 86.113 120.61 85.113 121.51 84.113C122.61 82.813 123.61 81.313 124.61 79.913C126.11 77.813 127.01 75.413 127.71 72.913C129.21 66.713 129.41 60.613 128.01 54.313C127.61 52.613 127.61 50.813 127.01 49.213C126.91 48.913 126.61 48.713 126.41 48.613C125.91 48.413 125.61 48.813 125.41 49.113C125.01 50.013 124.51 50.913 124.11 51.913C122.11 57.513 120.31 63.113 119.11 69.013C118.51 71.813 118.51 74.813 117.91 77.913Z" fill="#72B298"/>
<path d="M145.51 133.013C142.61 129.813 139.91 126.213 136.01 123.713C130.61 120.213 124.81 117.713 118.71 115.913C114.71 114.713 110.51 114.113 106.31 113.913C104.91 113.813 103.41 113.813 102.01 113.713C101.51 113.713 101.01 113.813 100.71 114.313C100.41 114.813 100.71 115.313 101.01 115.713C101.41 116.313 101.91 116.813 102.41 117.313C104.01 119.013 106.01 120.313 107.91 121.613C114.11 125.813 120.51 129.613 127.71 132.013C131.21 133.213 134.81 133.713 138.51 134.413C139.61 134.613 140.71 134.713 141.81 134.813C142.91 134.913 144.01 134.913 145.21 134.913C145.81 134.913 146.11 134.313 145.91 133.813C145.81 133.713 145.71 133.413 145.51 133.013Z" fill="#72B298"/>
<path d="M129.61 109.113C127.81 107.313 125.91 105.213 123.81 103.413C119.01 99.1127 113.81 95.3127 107.71 93.0127C105.31 92.1127 102.91 91.2127 100.41 90.7127C98.0098 90.2127 95.6098 89.7127 93.2098 89.2127C92.6098 89.1127 92.0098 89.0127 91.4098 89.0127C90.8098 89.0127 90.3098 89.8127 90.5098 90.3127C90.7098 90.8127 91.0098 91.1127 91.4098 91.5127C94.6098 94.5127 98.1098 97.1127 101.91 99.4127C105.01 101.313 108.31 103.113 111.41 105.013C116.71 108.213 122.51 110.213 128.61 111.113C129.11 111.213 129.71 111.413 130.01 110.913C130.31 110.413 130.01 109.913 129.81 109.413C129.81 109.413 129.81 109.313 129.61 109.113Z" fill="#72B298"/>
<path d="M116.41 86.5127C115.11 85.0127 113.81 83.3127 112.41 81.9127C109.71 79.1127 106.61 76.8127 103.41 74.6127C98.2097 71.1127 92.5097 68.6127 86.7097 66.3127C86.0097 66.0127 85.1097 65.9127 84.3097 65.7127C83.7097 65.6127 83.2097 66.3127 83.3097 66.9127C83.5097 67.9127 84.0097 68.6127 84.6097 69.3127C88.9097 74.3127 93.6097 78.8127 98.9097 82.6127C103.31 85.8127 108.11 88.2127 113.51 89.4127C114.11 89.5127 114.71 89.7127 115.31 89.7127C116.71 89.8127 117.41 88.8127 116.91 87.5127C116.81 87.3127 116.61 86.9127 116.41 86.5127Z" fill="#72B298"/>
<path d="M101.01 46.3126C99.6097 43.6126 97.8097 42.1126 96.1097 40.4126C92.7097 37.1126 88.8097 34.4126 84.8097 32.0126C80.9097 29.6126 76.8097 27.4126 72.9097 25.1126C72.5097 24.9126 72.2097 24.7126 71.8097 24.5126C71.4097 24.3126 71.0097 24.2126 70.7097 24.5126C70.4097 24.8126 70.4097 25.3126 70.7097 25.6126C71.6097 27.0126 72.4097 28.5126 73.5097 29.7126C78.5097 35.1126 83.6097 40.4126 89.8097 44.5126C92.9097 46.6126 96.4097 47.8126 99.8097 49.1126C100.41 49.3126 101.01 49.4126 101.61 49.4126C102.41 49.5126 102.81 48.9126 102.51 48.3126C101.81 47.5126 101.21 46.7126 101.01 46.3126Z" fill="#72B298"/>
<path d="M111.31 62.1131C111.81 63.1131 112.21 63.1131 113.01 62.3131C114.81 60.4131 115.71 57.9131 116.51 55.5131C117.21 53.4131 117.71 51.1131 117.91 48.9131C118.31 42.3131 117.61 35.8131 116.21 29.4131C116.11 29.0131 116.01 28.6131 115.71 28.3131C115.61 28.1131 115.21 28.0131 114.91 27.9131C114.81 27.9131 114.51 28.1131 114.41 28.2131C114.31 28.3131 114.21 28.6131 114.11 28.7131C112.31 35.3131 110.81 42.0131 109.61 48.7131C109.21 50.7131 109.31 52.8131 109.31 54.8131C109.21 57.5131 110.21 59.9131 111.31 62.1131Z" fill="#72B298"/>
<path d="M105.31 63.0132C104.61 61.9132 103.81 60.9132 102.81 59.9132C97.1098 54.0132 90.1098 50.4132 82.5098 47.5132C82.2098 47.4132 81.9098 47.3132 81.6098 47.2132C80.4098 46.9132 79.3098 45.8132 77.9098 46.5132C78.1098 47.9132 79.1098 48.8132 79.8098 49.9132C80.1098 50.3132 80.5098 50.7132 80.8098 51.0132C85.9098 55.7132 91.4098 59.7132 97.7098 62.6132C99.1098 63.2132 100.51 63.9132 101.91 64.5132C103.11 65.1132 104.41 65.3132 105.81 65.5132C106.21 65.6132 106.61 65.1132 106.41 64.7132C106.11 64.2132 105.71 63.6132 105.31 63.0132Z" fill="#72B298"/>
</svg>
