<svg width="130" height="53" viewBox="0 0 130 53" fill="none" xmlns="http://www.w3.org/2000/svg">
<path d="M17.8086 11.5634C14.8893 12.6063 12.3867 13.6489 10.3015 15.1085C5.50507 18.0279 3.41988 21.7818 3.83697 26.1608C4.25378 30.1231 6.96504 33.4598 11.7612 36.5876C9.88441 33.4598 9.05022 30.1234 9.25863 26.1608C9.67572 20.5305 12.5954 15.5256 17.8086 11.5634ZM127.081 16.7766C130.626 21.5728 130.835 26.7863 127.915 32.208C125.621 36.5873 120.616 40.1325 112.9 43.2603L107.061 45.7625C89.3358 53.2697 66.8139 54.7299 39.4961 50.3506C32.4061 49.308 26.3586 47.4309 21.5622 44.9286L20.3109 44.3031C7.59026 40.1322 0.917316 34.2935 0.0831287 26.5779C-0.542653 20.5305 2.377 15.734 8.42444 11.7718C12.178 9.47792 17.3915 7.39245 23.8561 5.93277C28.0267 4.88989 32.1977 4.26439 36.1596 3.63889C40.7474 2.5963 45.7522 1.76211 51.3826 1.13661C73.6953 -1.15726 94.3407 0.302421 104.559 3.01339C112.066 5.09886 118.323 8.22664 123.118 12.3973L124.578 13.6486L126.037 14.0657C127.08 14.4828 127.497 15.317 127.289 16.568C127.081 16.5682 127.081 16.5682 127.081 16.7766ZM80.369 3.84758C90.7955 5.30727 102.057 7.60114 113.943 10.7292C110.607 8.85242 107.27 7.60114 103.725 6.76723C98.5114 5.30726 90.5871 4.26467 80.369 3.84758ZM122.493 16.9853L116.653 15.317C118.739 16.5682 120.407 17.8192 121.867 19.2792C124.161 21.5731 125.412 24.0754 126.037 26.5779C126.455 23.2412 125.204 20.1134 122.493 16.9853ZM111.232 39.7154C122.284 34.0848 125.204 28.0376 119.156 21.9902C113.109 15.9427 99.3455 10.9379 87.6675 9.4782C87.0417 9.2698 86.6249 9.06111 86.2081 8.64402C68.4828 5.72464 52.0083 5.30755 36.7851 7.39273C32.1974 8.64401 28.2354 10.1037 24.8987 11.7721C17.3915 15.5256 13.4293 20.5305 13.0122 26.5782C12.5951 32.2085 15.5145 37.0047 21.7706 40.7583L23.0216 41.3843C33.24 44.5121 45.7519 46.3892 60.5578 46.5979C75.7804 46.806 89.5443 45.5547 101.43 42.8437C105.184 41.8009 108.521 40.758 111.232 39.7154Z" fill="#FFB52A"/>
</svg>
