<svg width="68" height="72" viewBox="0 0 68 72" fill="none" xmlns="http://www.w3.org/2000/svg">
<g clip-path="url(#clip0_1437_15000)">
<path d="M57.896 59.4568C55.6731 60.4445 53.3492 61.0371 51.0253 61.6297C49.3076 62.1235 47.4889 62.5185 45.7712 63.2099C45.165 63.4074 44.5587 63.7037 43.9525 64C42.0327 64.8889 40.214 65.8766 38.4963 66.8642C37.1828 67.5556 35.8693 68.3457 34.4547 69.0371C33.9495 69.3334 33.4443 69.5309 32.9391 69.7284C28.6954 71.605 24.957 72.2963 21.5216 71.8025C15.9644 71.0124 11.3165 66.6667 10.1041 61.3334C9.6999 59.5556 9.6999 57.679 9.59886 55.9013C9.59886 53.8272 9.49782 51.8519 8.99262 49.9753C8.28534 47.605 6.66869 45.5309 4.95101 43.4568C3.43541 41.5803 1.91981 39.7037 1.01045 37.4321C-1.21243 32 0.505248 24.8889 5.35517 20.1482C7.78014 17.7778 11.0134 15.9013 14.6509 14.7161C16.2675 14.1235 18.0862 13.7284 20.006 13.4321C20.4101 13.3334 20.8143 13.3334 21.2185 13.3334C22.3299 13.2346 23.2393 13.1358 23.9466 12.5432C25.159 11.5556 26.0684 10.3704 26.9778 8.98768C27.2809 8.49385 27.584 8.09879 27.8871 7.60496C29.8069 5.03706 32.3329 2.76545 35.2631 1.28397C35.5662 1.08644 35.9703 0.888911 36.2734 0.790145C38.0922 2.19643e-05 39.6078 -0.296274 41.1234 0.0987874C42.639 0.395084 44.0535 1.38274 45.165 2.86422C45.7712 3.65434 46.2764 4.54323 46.6806 5.33335C47.2868 6.51854 47.8931 7.60496 48.8024 8.49385C50.318 10.0741 52.2378 11.1605 54.2586 11.8519C54.6628 11.9506 55.1679 12.1482 55.5721 12.2469C56.5825 12.5432 57.5929 12.8395 58.6033 13.3334C61.6345 14.9136 63.2512 18.8642 62.1397 21.8272C61.0283 24.5926 60.7252 26.6667 62.1397 29.4321C62.746 30.7161 63.5543 31.9013 64.2616 33.0864C65.0699 34.3704 65.8782 35.6543 66.5855 37.0371C68.3032 40.6914 68.5052 45.0371 67.2928 48.8889C66.0803 52.7408 63.3522 56.1976 59.8158 58.2716C59.2096 58.8642 58.5023 59.1605 57.896 59.4568ZM43.2452 62.6173C43.9525 62.321 44.5587 62.0247 45.165 61.8272C46.8827 61.1358 48.8024 60.642 50.5201 60.2469C52.743 59.6543 55.0669 59.0617 57.0877 58.0741C57.694 57.7778 58.3002 57.4815 58.8054 57.1852C62.0387 55.3087 64.4636 52.2469 65.5751 48.6914C66.6865 45.2346 66.4844 41.284 64.8678 37.9259C64.2616 36.642 63.4532 35.358 62.6449 34.1729C61.8366 32.9877 61.0283 31.7037 60.422 30.321C58.8054 26.963 59.2096 24.4938 60.422 21.4321C61.3314 19.0618 59.7148 16 57.5929 14.9136C56.7846 14.5185 55.8752 14.2222 54.8648 13.9259C54.3596 13.8272 53.9555 13.6297 53.4503 13.5309C51.1263 12.7408 49.0045 11.4568 47.2868 9.7778C46.1754 8.69138 45.4681 7.40743 44.8619 6.22224C44.4577 5.43212 44.0535 4.642 43.4473 3.85187C42.639 2.66669 41.5275 1.87657 40.4161 1.67903C39.1026 1.38274 37.587 1.67903 35.7682 2.76545C33.1412 4.24694 30.7162 6.22224 28.8975 8.69138C28.5944 9.08644 28.2913 9.58027 27.9882 9.97533C26.9778 11.358 26.0684 12.8395 24.5528 13.9259C24.2497 14.1235 23.9466 14.321 23.6434 14.4198C22.7341 14.8148 21.8247 14.9136 21.0164 15.0124C20.7133 15.0124 20.3091 15.1111 19.905 15.1111C18.0862 15.4074 16.4696 15.8025 14.8529 16.2963C11.4176 17.3827 8.38638 19.1605 6.16349 21.3334C1.81877 25.5803 0.101087 32 2.12189 36.8395C2.93021 38.9136 4.34477 40.6914 5.86037 42.4692C7.57806 44.642 9.29574 46.8148 10.2051 49.4815C10.8113 51.5556 10.9124 53.7284 10.9124 55.8025C10.9124 57.5803 10.9124 59.2593 11.3165 60.9383C12.3269 65.5803 16.6717 69.4321 21.4206 70.2222C24.4518 70.7161 27.8871 70.0247 31.8277 68.2469C32.3329 68.0494 32.8381 67.7531 33.2422 67.5556C34.5558 66.8642 35.8693 66.1729 37.1828 65.3827C39.4057 64.4938 41.3255 63.4074 43.2452 62.6173Z" fill="#110F0F"/>
<path d="M26.2705 26.7655L20.4102 14.321C8.8916 20.8396 3.73855 34.568 8.18431 46.8149L20.9154 41.0865C19.5008 35.6544 21.6227 29.926 26.2705 26.7655Z" fill="#F05A30"/>
<path d="M45.7713 29.926L58.5023 24.1976C51.8337 12.9383 37.7891 7.80251 25.2601 12.1482L31.1205 24.5926C36.5766 23.2099 42.437 25.3828 45.7713 29.926Z" fill="#E23C2B"/>
<path d="M42.538 48.8889L48.3983 61.3334C59.9169 54.8148 65.0699 41.0865 60.7252 28.8395L47.9941 34.5679C49.3077 40 47.1858 45.7284 42.538 48.8889Z" fill="#E23C2B"/>
<path d="M23.0372 45.7284L10.3062 51.4568C16.9748 62.716 31.0194 67.7531 43.5483 63.5062L37.688 51.0617C32.2319 52.4444 26.3715 50.2716 23.0372 45.7284Z" fill="#F05A30"/>
<path d="M40.214 50.2716C39.4057 50.6667 38.5973 50.963 37.688 51.1605L43.5483 63.605C44.3566 63.3087 45.165 63.0124 45.9733 62.6173C46.7816 62.2222 47.5899 61.8272 48.2972 61.4321L42.4369 48.9877C41.8306 49.3827 41.1234 49.8766 40.214 50.2716Z" fill="white"/>
<path d="M28.5944 25.3828C29.4028 24.9877 30.2111 24.6914 31.1204 24.4939L25.2601 12.1482C24.4518 12.4445 23.6435 12.7408 22.8352 13.1358C22.0268 13.5309 21.2185 13.926 20.5112 14.321L26.2705 26.7655C26.9778 26.2717 27.7861 25.7778 28.5944 25.3828Z" fill="white"/>
<path d="M58.5023 24.1976L45.7712 29.926C46.2764 30.6173 46.6806 31.4074 47.0848 32.1976C47.4889 32.9877 47.792 33.7778 47.9941 34.6667L60.7252 28.9383C60.4221 28.1482 60.1189 27.3581 59.7148 26.5679C59.3106 25.6791 58.9065 24.8889 58.5023 24.1976Z" fill="white"/>
<path d="M21.7237 43.5556C21.3195 42.7654 21.0164 41.9753 20.8143 41.0864L8.18433 46.8148C8.48745 47.6049 8.79057 48.3951 9.19473 49.1852C9.59889 49.9753 10.003 50.7654 10.4072 51.4568L23.1383 45.7284C22.532 45.037 22.1279 44.3457 21.7237 43.5556Z" fill="white"/>
</g>
<defs>
<clipPath id="clip0_1437_15000">
<rect width="68" height="72" fill="white"/>
</clipPath>
</defs>
</svg>
