<svg width="45" height="44" viewBox="0 0 45 44" fill="none" xmlns="http://www.w3.org/2000/svg">
<path d="M22.5 43.8756C34.9264 43.8756 45 34.0537 45 21.9378C45 9.82188 34.9264 0 22.5 0C10.0736 0 0 9.82188 0 21.9378C0 34.0537 10.0736 43.8756 22.5 43.8756Z" fill="#34E0A1"/>
<path d="M36.3969 17.6577L39.112 14.7775H33.0911C30.0769 12.77 26.4366 11.6008 22.4997 11.6008C18.5678 11.6008 14.9377 12.7725 11.9285 14.7775H5.89246L8.60754 17.6577C6.94332 19.1381 5.90002 21.2707 5.90002 23.6385C5.90002 28.1069 9.61571 31.7297 14.1987 31.7297C16.3758 31.7297 18.3593 30.911 19.84 29.5727L22.4998 32.3964L25.1596 29.5751C26.6403 30.9135 28.6213 31.7297 30.7984 31.7297C35.3813 31.7297 39.102 28.1069 39.102 23.6385C39.1045 21.2682 38.0612 19.1357 36.3969 17.6577ZM14.2011 29.1143C11.0989 29.1143 8.58496 26.6632 8.58496 23.6385C8.58496 20.6137 11.0989 18.1626 14.2011 18.1626C17.3033 18.1626 19.8173 20.6137 19.8173 23.6385C19.8173 26.6632 17.3033 29.1143 14.2011 29.1143ZM22.5022 23.4791C22.5022 19.8759 19.8148 16.7826 16.2676 15.4614C18.1858 14.6795 20.2899 14.2456 22.4997 14.2456C24.7095 14.2456 26.8161 14.6795 28.7344 15.4614C25.1897 16.7851 22.5022 19.876 22.5022 23.4791ZM30.8009 29.1143C27.6986 29.1143 25.1847 26.6632 25.1847 23.6385C25.1847 20.6137 27.6986 18.1626 30.8009 18.1626C33.9032 18.1626 36.4171 20.6137 36.4171 23.6385C36.4171 26.6632 33.9031 29.1143 30.8009 29.1143ZM30.8009 20.7657C29.1743 20.7657 27.857 22.0501 27.857 23.636C27.857 25.2219 29.1743 26.5063 30.8009 26.5063C32.4274 26.5063 33.7447 25.2219 33.7447 23.636C33.7447 22.0526 32.4274 20.7657 30.8009 20.7657ZM17.145 23.6385C17.145 25.2243 15.8276 26.5088 14.2011 26.5088C12.5746 26.5088 11.2573 25.2243 11.2573 23.6385C11.2573 22.0526 12.5746 20.7681 14.2011 20.7681C15.8276 20.7657 17.145 22.0526 17.145 23.6385Z" fill="#110F0F"/>
</svg>
