<svg width="98" height="24" viewBox="0 0 98 24" fill="none" xmlns="http://www.w3.org/2000/svg">
<path d="M25.7577 8.50537H35.672V10.3465H31.7683V20.7255H29.6287V10.3465H25.7413L25.7577 8.50537ZM35.2473 11.8781H37.0767V13.5889H37.1093C37.1747 13.3445 37.289 13.1164 37.4523 12.8883C37.6157 12.6602 37.8117 12.4484 38.0567 12.2692C38.2853 12.0736 38.5467 11.927 38.8407 11.8129C39.1183 11.6989 39.4123 11.6337 39.7063 11.6337C39.935 11.6337 40.0983 11.65 40.18 11.65C40.2617 11.6663 40.3597 11.6826 40.4413 11.6826V13.5563C40.3107 13.5238 40.1637 13.5075 40.0167 13.4912C39.8697 13.4749 39.739 13.4586 39.592 13.4586C39.2653 13.4586 38.955 13.5237 38.661 13.6541C38.367 13.7844 38.122 13.98 37.8933 14.2244C37.681 14.4851 37.5013 14.7946 37.3707 15.1694C37.24 15.5441 37.1747 15.9841 37.1747 16.4729V20.6766H35.2147L35.2473 11.8781ZM49.4247 20.7255H47.4973V19.4872H47.4647C47.2197 19.9434 46.8603 20.2855 46.3867 20.5625C45.913 20.8395 45.423 20.9699 44.933 20.9699C43.7733 20.9699 42.924 20.6929 42.4013 20.1063C41.8787 19.536 41.6173 18.6562 41.6173 17.4994V11.8781H43.5773V17.3038C43.5773 18.0859 43.7243 18.6399 44.0347 18.9495C44.3287 19.2753 44.7533 19.4383 45.2923 19.4383C45.7007 19.4383 46.0437 19.3731 46.3213 19.2428C46.599 19.1124 46.8277 18.9495 46.991 18.7377C47.1707 18.5258 47.285 18.2651 47.3667 17.9719C47.4483 17.6786 47.481 17.3527 47.481 17.0105V11.8781H49.441V20.7255H49.4247ZM52.7567 17.8904C52.822 18.4607 53.0343 18.8517 53.41 19.0961C53.7857 19.3242 54.243 19.4383 54.7657 19.4383C54.9453 19.4383 55.1577 19.422 55.3863 19.3894C55.615 19.3568 55.8437 19.3079 56.0397 19.2265C56.252 19.145 56.4153 19.0309 56.546 18.868C56.6767 18.7051 56.742 18.5095 56.7257 18.2651C56.7093 18.0207 56.6277 17.8089 56.448 17.646C56.2683 17.4831 56.056 17.369 55.7947 17.2549C55.5333 17.1572 55.223 17.0757 54.88 17.0105C54.537 16.9454 54.194 16.8639 53.8347 16.7824C53.4753 16.701 53.116 16.6032 52.773 16.4892C52.43 16.3751 52.136 16.2285 51.8583 16.0166C51.597 15.8211 51.3683 15.5767 51.2213 15.2672C51.058 14.9576 50.9763 14.5991 50.9763 14.1429C50.9763 13.6541 51.0907 13.2631 51.3357 12.9372C51.5643 12.6113 51.8747 12.3506 52.234 12.1551C52.5933 11.9596 53.0017 11.8129 53.4427 11.7315C53.8837 11.65 54.3083 11.6174 54.7003 11.6174C55.1577 11.6174 55.5987 11.6663 56.007 11.7641C56.4153 11.8618 56.8073 12.0085 57.134 12.2366C57.477 12.4484 57.7547 12.7417 57.967 13.0838C58.1957 13.426 58.3263 13.8496 58.3917 14.3384H56.35C56.252 13.8659 56.0397 13.5563 55.713 13.3934C55.37 13.2305 54.9943 13.149 54.5533 13.149C54.4227 13.149 54.243 13.1653 54.0633 13.1816C53.8673 13.2142 53.704 13.2468 53.5243 13.3119C53.361 13.3771 53.214 13.4749 53.0997 13.5889C52.9853 13.703 52.92 13.8659 52.92 14.0614C52.92 14.3058 53.0017 14.4851 53.165 14.6317C53.3283 14.7783 53.5407 14.8924 53.8183 15.0065C54.0797 15.1042 54.39 15.1857 54.733 15.2509C55.076 15.316 55.4353 15.3975 55.7947 15.479C56.154 15.5604 56.497 15.6582 56.84 15.7722C57.183 15.8863 57.4933 16.0329 57.7547 16.2448C58.016 16.4403 58.2447 16.6847 58.408 16.978C58.5713 17.2712 58.653 17.646 58.653 18.0696C58.653 18.591 58.5387 19.0309 58.2937 19.4057C58.0487 19.7641 57.7383 20.0737 57.3627 20.3018C56.987 20.5299 56.546 20.6929 56.0887 20.8069C55.615 20.9047 55.1577 20.9699 54.7003 20.9699C54.145 20.9699 53.6223 20.9047 53.1487 20.7743C52.675 20.644 52.2503 20.4485 51.9073 20.2041C51.5643 19.9434 51.2867 19.6338 51.0907 19.2428C50.8947 18.868 50.7803 18.4118 50.764 17.8741H52.7403V17.8904H52.7567ZM59.2083 11.8781H60.6947V9.20599H62.6547V11.8618H64.4186V13.3119H62.6547V18.037C62.6547 18.2489 62.671 18.4118 62.6873 18.5747C62.7036 18.7214 62.7527 18.8517 62.8017 18.9495C62.867 19.0472 62.965 19.1287 63.0793 19.1776C63.21 19.2265 63.3733 19.259 63.602 19.259C63.7327 19.259 63.8797 19.259 64.0103 19.2428C64.141 19.2265 64.288 19.2102 64.4186 19.1776V20.6929C64.2063 20.7255 63.994 20.7417 63.7817 20.758C63.5693 20.7906 63.3733 20.7906 63.1446 20.7906C62.622 20.7906 62.2136 20.7418 61.9033 20.644C61.593 20.5462 61.348 20.3996 61.1683 20.2204C60.9887 20.0248 60.8743 19.7967 60.809 19.5197C60.7436 19.2427 60.711 18.9006 60.6947 18.5421V13.3282H59.2083V11.8455V11.8781ZM65.7906 11.8781H67.6363V13.0838H67.669C67.9466 12.5624 68.3223 12.204 68.8123 11.9759C69.3023 11.7478 69.825 11.6337 70.413 11.6337C71.1153 11.6337 71.7196 11.7478 72.2423 12.0085C72.765 12.2529 73.1896 12.5787 73.5326 13.0187C73.8756 13.4423 74.137 13.9474 74.3003 14.5177C74.4636 15.0879 74.5616 15.7071 74.5616 16.3425C74.5616 16.9454 74.48 17.5156 74.333 18.0696C74.1696 18.6236 73.941 19.1287 73.6306 19.5523C73.3203 19.976 72.9283 20.3181 72.4383 20.5788C71.9483 20.8395 71.393 20.9699 70.7396 20.9699C70.462 20.9699 70.168 20.9373 69.8903 20.8884C69.6126 20.8395 69.335 20.758 69.0736 20.644C68.8123 20.5299 68.5673 20.3833 68.355 20.2041C68.1263 20.0248 67.9466 19.813 67.7996 19.5849H67.767V24.0004H65.807V11.8781H65.7906ZM72.6343 16.3099C72.6343 15.9189 72.5853 15.5278 72.471 15.1531C72.373 14.7783 72.2096 14.4525 71.9973 14.1592C71.785 13.8659 71.5236 13.6378 71.2296 13.4586C70.9193 13.2794 70.56 13.1979 70.168 13.1979C69.3513 13.1979 68.7306 13.4749 68.306 14.0451C67.8977 14.6154 67.6853 15.3812 67.6853 16.3262C67.6853 16.7824 67.7343 17.1898 67.8486 17.5645C67.963 17.9393 68.11 18.2651 68.3386 18.5421C68.551 18.8191 68.8123 19.0309 69.1227 19.1939C69.433 19.3568 69.776 19.4383 70.1843 19.4383C70.6416 19.4383 71.001 19.3405 71.3113 19.1613C71.6216 18.9821 71.8666 18.7377 72.079 18.4607C72.275 18.1674 72.422 17.8415 72.5036 17.4668C72.5853 17.0757 72.6343 16.701 72.6343 16.3099ZM76.0806 8.50537H78.0406V10.3465H76.0806V8.50537ZM76.0806 11.8781H78.0406V20.7255H76.0806V11.8781ZM79.7883 8.50537H81.7483V20.7255H79.7883V8.50537ZM87.7263 20.9699C87.024 20.9699 86.387 20.8558 85.8316 20.6114C85.2763 20.367 84.819 20.0574 84.427 19.6501C84.0513 19.2428 83.7573 18.7377 83.5613 18.1674C83.3653 17.5971 83.251 16.9617 83.251 16.2936C83.251 15.6256 83.349 15.0065 83.5613 14.4362C83.7573 13.8659 84.0513 13.3771 84.427 12.9535C84.8026 12.5461 85.2763 12.2203 85.8316 11.9922C86.387 11.7641 87.024 11.6337 87.7263 11.6337C88.4286 11.6337 89.0656 11.7478 89.621 11.9922C90.1763 12.2203 90.6336 12.5461 91.0256 12.9535C91.4013 13.3608 91.6953 13.8659 91.8913 14.4362C92.0873 15.0065 92.2016 15.6256 92.2016 16.2936C92.2016 16.978 92.1036 17.5971 91.8913 18.1674C91.679 18.7377 91.4013 19.2265 91.0256 19.6501C90.65 20.0574 90.1763 20.3833 89.621 20.6114C89.0656 20.8395 88.445 20.9699 87.7263 20.9699ZM87.7263 19.422C88.151 19.422 88.543 19.3242 88.8533 19.145C89.18 18.9658 89.425 18.7214 89.6373 18.4281C89.8496 18.1348 89.9966 17.7926 90.0946 17.4342C90.1926 17.0594 90.2416 16.6847 90.2416 16.2936C90.2416 15.9189 90.1926 15.5441 90.0946 15.1694C89.9966 14.7946 89.8496 14.4688 89.6373 14.1755C89.425 13.8822 89.1636 13.6541 88.8533 13.4749C88.5266 13.2956 88.151 13.1979 87.7263 13.1979C87.3016 13.1979 86.9096 13.2956 86.5993 13.4749C86.2726 13.6541 86.0276 13.8985 85.8153 14.1755C85.603 14.4688 85.456 14.7946 85.358 15.1694C85.26 15.5441 85.211 15.9189 85.211 16.2936C85.211 16.6847 85.26 17.0594 85.358 17.4342C85.456 17.8089 85.603 18.1348 85.8153 18.4281C86.0276 18.7214 86.289 18.9658 86.5993 19.145C86.926 19.3405 87.3016 19.422 87.7263 19.422ZM92.7896 11.8781H94.276V9.20599H96.236V11.8618H98V13.3119H96.236V18.037C96.236 18.2489 96.2523 18.4118 96.2686 18.5747C96.285 18.7214 96.334 18.8517 96.383 18.9495C96.4483 19.0472 96.5463 19.1287 96.6606 19.1776C96.7913 19.2265 96.9546 19.259 97.1833 19.259C97.314 19.259 97.461 19.259 97.5916 19.2428C97.7223 19.2265 97.8693 19.2102 98 19.1776V20.6929C97.7876 20.7255 97.5753 20.7417 97.363 20.758C97.1506 20.7906 96.9546 20.7906 96.726 20.7906C96.2033 20.7906 95.795 20.7418 95.4846 20.644C95.1743 20.5462 94.9293 20.3996 94.7496 20.2204C94.57 20.0248 94.4556 19.7967 94.3903 19.5197C94.325 19.2427 94.2923 18.9006 94.276 18.5421V13.3282H92.7896V11.8455V11.8781Z" fill="#110F0F"/>
<path d="M23.471 8.50543H14.504L11.7437 0.000244141L8.967 8.50543L0 8.48913L7.252 13.7519L4.47533 22.2571L11.7273 16.9943L18.9793 22.2571L16.219 13.7519L23.471 8.50543Z" fill="#00B67A"/>
<path d="M16.8396 15.6746L16.219 13.752L11.7437 16.9943L16.8396 15.6746Z" fill="#005128"/>
</svg>
