<svg width="86" height="16" viewBox="0 0 86 16" fill="none" xmlns="http://www.w3.org/2000/svg">
<path d="M0 0.000244141H16.125V15.9917H0V0.000244141ZM17.4688 0.000244141H33.5938V15.9917H17.4688V0.000244141ZM34.9375 0.000244141H51.0625V15.9917H34.9375V0.000244141ZM52.4062 0.000244141H68.5312V15.9917H52.4062V0.000244141ZM69.875 0.000244141H86V15.9917H69.875V0.000244141Z" fill="#00B67A"/>
<path d="M8.06251 10.7778L10.5149 10.1614L11.5395 13.2931L8.06251 10.7778ZM13.7063 6.72991H9.38947L8.06251 2.69873L6.73556 6.72991H2.41876L5.91251 9.22858L4.58556 13.2598L8.07931 10.7611L10.2293 9.22858L13.7063 6.72991ZM25.5313 10.7778L27.9836 10.1614L29.0082 13.2931L25.5313 10.7778ZM31.175 6.72991H26.8582L25.5313 2.69873L24.2043 6.72991H19.8875L23.3813 9.22858L22.0543 13.2598L25.5481 10.7611L27.6981 9.22858L31.175 6.72991ZM43 10.7778L45.4524 10.1614L46.477 13.2931L43 10.7778ZM48.6438 6.72991H44.327L43 2.69873L41.6731 6.72991H37.3563L40.85 9.22858L39.5231 13.2598L43.0168 10.7611L45.1668 9.22858L48.6438 6.72991ZM60.4688 10.7778L62.9211 10.1614L63.9457 13.2931L60.4688 10.7778ZM66.1125 6.72991H61.7957L60.4688 2.69873L59.1418 6.72991H54.825L58.3188 9.22858L56.9918 13.2598L60.4856 10.7611L62.6356 9.22858L66.1125 6.72991ZM77.9375 10.7778L80.3899 10.1614L81.4145 13.2931L77.9375 10.7778ZM83.5813 6.72991H79.2645L77.9375 2.69873L76.6106 6.72991H72.2938L75.7875 9.22858L74.4606 13.2598L77.9543 10.7611L80.1043 9.22858L83.5813 6.72991Z" fill="white"/>
</svg>
