<svg width="36" height="36" viewBox="0 0 36 36" fill="none" xmlns="http://www.w3.org/2000/svg">
<g clip-path="url(#clip0_1151_11607)">
<path d="M14.0625 34.3789L20.0476 30.3906C24.7437 27.26 27.5639 21.9891 27.5625 16.3452V7.37891L14.0625 0.628906L0.562501 7.37891V16.3452C0.561094 21.9891 3.38133 27.26 8.07743 30.3906L14.0625 34.3789Z" fill="#00C3FF"/>
<path d="M9.3252 28.5182C5.25228 25.8073 2.80724 21.2376 2.81251 16.345V8.76929L14.0625 3.14429L25.3125 8.76929V16.3452C25.3174 21.2379 22.8722 25.8085 18.7988 28.5194L14.0625 31.675L9.3252 28.5182Z" fill="#91E8ED"/>
<path d="M20.7984 19.3264L16.3125 18.2014H11.8125L7.32656 19.3264C6.32644 19.5777 5.625 20.477 5.625 21.5084V24.9674C6.63984 26.3596 7.89245 27.5617 9.3252 28.5184L14.0625 31.675L18.7987 28.5195C20.2321 27.5627 21.4851 26.3602 22.5 24.9674V21.5084C22.5 20.4771 21.7988 19.5778 20.7984 19.3265V19.3264Z" fill="#FFEA00"/>
<path d="M11.8125 16.3789V18.6289C11.8125 19.8715 12.8199 20.8789 14.0625 20.8789C15.3051 20.8789 16.3125 19.8715 16.3125 18.6289V16.3789H11.8125Z" fill="#FFDECF"/>
<path d="M17.4375 10.1914V15.8164L15.1875 17.5039H12.9375L10.6875 15.8164V10.1914H17.4375Z" fill="#FFDECF"/>
<path d="M16.3125 8.50402H15.75C15.3561 7.94152 9.5625 7.2379 9.5625 11.3165H12.8048C13.6319 11.3165 14.4477 11.124 15.1875 10.754H15.75L17.4375 13.004V9.62902C17.4375 9.00774 16.9338 8.50402 16.3125 8.50402Z" fill="#525252"/>
<path d="M35.4375 25.9414C35.4375 30.9119 31.408 34.9414 26.4375 34.9414C21.467 34.9414 17.4375 30.9119 17.4375 25.9414C17.4375 20.9707 21.467 16.9414 26.4375 16.9414C31.408 16.9414 35.4375 20.9707 35.4375 25.9414Z" fill="#9CCC65"/>
<path d="M29.9349 20.7708L24.3663 26.3392L22.3775 24.3506L19.9912 26.7369L21.9798 28.7257L23.9686 30.7142L24.3663 31.1119L32.3212 23.157L29.9349 20.7708Z" fill="white"/>
<path d="M28.1217 16.5369L28.125 7.03069L14.0625 0L7.72454e-06 7.03125V16.3452C-0.00547665 22.1778 2.90975 27.6259 7.76539 30.8576L14.0625 35.0538L18.9135 31.8225C21.5355 35.181 26.0645 36.3974 30.0163 34.8047C33.9683 33.212 36.3881 29.1951 35.9487 24.9571C35.5089 20.7188 32.3163 17.2842 28.1217 16.5364V16.5369ZM14.0625 33.7039L8.3897 29.9226C3.84659 26.8995 1.11924 21.8021 1.12501 16.3452V7.72643L14.0625 1.25768L27 7.72643V16.4076C26.8133 16.3963 26.6281 16.3789 26.4375 16.3789C26.247 16.3789 26.0612 16.3962 25.875 16.4076V8.4202L14.0625 2.51452L2.25001 8.42077V16.3452C2.24586 21.4256 4.78512 26.1705 9.01407 28.9855L14.0625 32.3492L17.7424 29.8974C17.8998 30.2407 18.0774 30.5743 18.2744 30.8966L14.0625 33.7039ZM17.3216 28.8265L14.0625 30.9976L9.63859 28.0498C9.42027 27.9039 9.20877 27.7509 9.00001 27.5941V22.5664H7.87501V26.6501C7.25752 26.0775 6.69274 25.4506 6.18751 24.7769V21.5082C6.18761 21.1323 6.31323 20.7672 6.54445 20.4708C6.77566 20.1744 7.09923 19.9637 7.46382 19.8721L11.2786 18.9157C11.401 20.1355 12.3001 21.1347 13.5 21.3852V23.6914H14.625V21.3852C15.825 21.1349 16.7237 20.1355 16.8459 18.9157L19.3499 19.5447C17.067 22.0553 16.2942 25.5919 17.3216 28.8259V28.8265ZM11.25 11.8789H12.8048C13.6731 11.8777 14.5305 11.6857 15.3163 11.3164H15.4688L16.875 13.1913V15.5352L15.0002 16.9414H13.1248L11.25 15.5352V11.8789ZM10.1717 10.7539C10.2278 10.4064 10.3666 10.0773 10.5762 9.79443C10.7859 9.51156 11.0604 9.28313 11.3766 9.12832C12.6209 8.57461 14.0227 8.48638 15.3265 8.8797L15.4559 9.06645H16.3125C16.4617 9.06645 16.6048 9.12571 16.7103 9.2312C16.8157 9.33669 16.875 9.47976 16.875 9.62895V11.3164L16.0313 10.1914H15.0548L14.9362 10.2505C14.2741 10.5804 13.5446 10.7527 12.8048 10.7539H10.1717ZM15.75 17.7852V18.6289C15.75 19.5609 14.9944 20.3164 14.0625 20.3164C13.1306 20.3164 12.375 19.5609 12.375 18.6289V17.7852L12.7502 18.0664H15.3748L15.75 17.7852ZM16.875 17.7633V16.9414L18 16.0977V9.62895C18 8.69681 17.2444 7.94145 16.3125 7.94145H15.9384C15.1246 7.4468 13.0985 7.34681 11.6634 7.79562C10.0541 8.19084 8.94263 9.66031 9.00001 11.3164V11.8789H10.125V16.0977L11.25 16.9414V17.7605L7.19002 18.7815C5.93867 19.0936 5.0611 20.2186 5.06251 21.5082V23.0271C3.95391 20.9744 3.37395 18.6781 3.37501 16.3452V9.11587L14.0625 3.77213L24.75 9.11587V16.3452C24.75 16.4097 24.7461 16.474 24.7456 16.538C23.1052 16.8313 21.5705 17.5501 20.2951 18.6226L16.875 17.7633ZM26.4375 34.3789C21.7777 34.3789 18 30.6013 18 25.9414C18 21.2813 21.7777 17.5039 26.4375 17.5039C31.0973 17.5039 34.875 21.2813 34.875 25.9414C34.8698 30.5992 31.0951 34.3735 26.4375 34.3789Z" fill="#110F0F"/>
<path d="M29.25 9.62891H36V10.7539H29.25V9.62891ZM29.25 11.8789H33.75V13.0039H29.25V11.8789ZM29.25 14.1289H31.5V15.2539H29.25V14.1289ZM24.3664 25.5438L22.3781 23.5552L19.1959 26.7369L24.3664 31.9073L33.1167 23.1569L29.9345 19.9756L24.3664 25.5438ZM24.3664 30.3165L20.7867 26.7369L22.3781 25.146L24.3664 27.1343L29.9351 21.5655L31.5264 23.1564L24.3664 30.3165Z" fill="#110F0F"/>
</g>
<defs>
<clipPath id="clip0_1151_11607">
<rect width="36" height="36" fill="white"/>
</clipPath>
</defs>
</svg>
