<svg width="36" height="36" viewBox="0 0 36 36" fill="none" xmlns="http://www.w3.org/2000/svg">
<g clip-path="url(#clip0_1151_11624)">
<path fill-rule="evenodd" clip-rule="evenodd" d="M24.7381 19.3603C24.4218 19.3603 24.1898 19.1072 24.1898 18.812C24.1898 18.4956 24.4218 18.2636 24.7381 18.2636C28.8928 18.2636 32.2882 14.8682 32.2882 10.6924C32.2882 10.3972 32.5413 10.1441 32.8365 10.1441C33.1529 10.1441 33.3849 10.3972 33.3849 10.6924C33.3849 15.4798 29.5044 19.3603 24.7381 19.3603ZM18.6432 36C13.9613 36 7.99296 32.3093 4.09137 27.0369C1.07556 22.9244 -0.0843731 18.6854 0.927929 15.3954C1.77151 12.6749 3.6274 11.1142 6.03162 11.1142C6.34796 11.1142 6.6854 11.1353 7.02283 11.1986C7.33918 11.2408 7.61334 11.4306 7.78206 11.7047L10.7979 16.7452C11.8102 18.4323 10.2285 19.529 9.61686 19.9297L9.36378 20.1195L8.0984 21.0685C8.11949 21.0896 8.14058 21.1529 8.16167 21.2162C9.36378 23.5149 13.0545 27.1845 15.3321 28.3866C15.3954 28.4288 15.4587 28.4499 15.5009 28.4499L16.4288 27.2056C16.4921 27.1213 16.5553 27.0369 16.6186 26.9315C16.9982 26.362 17.652 25.4341 18.7487 25.4341C19.1072 25.4341 19.4657 25.5395 19.8031 25.7504L24.8436 28.7663C25.1177 28.935 25.3075 29.2091 25.3708 29.5466C25.8348 32.3937 24.2531 34.6714 21.1529 35.6204C20.3726 35.8735 19.529 36 18.6432 36ZM6.03162 12.1898C4.13355 12.1898 2.65728 13.4763 1.96132 15.7329C1.05447 18.6854 2.15113 22.5659 4.97714 26.3831C8.66782 31.4025 14.2988 34.9033 18.6432 34.9033C19.4235 34.9033 20.1406 34.7979 20.8365 34.587C23.4306 33.7856 24.6749 32.0562 24.2952 29.7153L19.2548 26.6995C19.065 26.594 18.8963 26.5308 18.7487 26.5308C18.2214 26.5308 17.8418 27.1002 17.5255 27.5431C17.4411 27.6696 17.3778 27.754 17.3146 27.8594L16.2812 29.2302C16.2812 29.2302 16.2601 29.2302 16.2601 29.2513C16.1968 29.3146 15.9648 29.5466 15.543 29.5466C15.3321 29.5466 15.0791 29.4833 14.826 29.3568C12.2952 28.0281 8.5202 24.2531 7.19155 21.7223C6.72758 20.8366 7.21264 20.3726 7.297 20.2882C7.31809 20.2882 7.31809 20.2882 7.33918 20.2671L8.71 19.2548C8.79436 19.1705 8.89981 19.1072 9.00526 19.0228C9.89102 18.4323 10.2706 17.9895 9.86993 17.2935L6.85412 12.2742C6.55886 12.232 6.2847 12.1898 6.03162 12.1898ZM24.7381 21.3849C18.833 21.3849 14.0246 16.5975 14.0246 10.6924C14.0246 4.80844 18.833 0 24.7381 0C30.6221 0 35.4306 4.80844 35.4306 10.6924C35.4306 16.5975 30.6221 21.3849 24.7381 21.3849ZM24.7381 1.09666C19.4446 1.09666 15.1213 5.39895 15.1213 10.6924C15.1213 15.9859 19.4446 20.3093 24.7381 20.3093C30.0316 20.3093 34.3339 15.9859 34.3339 10.6924C34.3339 5.39895 30.0316 1.09666 24.7381 1.09666ZM23.6625 14.0668H19.529C19.3181 14.0668 19.1072 13.9402 19.0228 13.7293C18.9385 13.5185 18.9807 13.2865 19.1494 13.1388C19.6133 12.6538 20.2038 12.232 20.7944 11.8102C21.7223 11.1353 22.6924 10.4394 22.6924 9.80668C22.6924 9.04745 22.0808 8.41476 21.3216 8.41476C20.5413 8.41476 19.9297 9.04745 19.9297 9.80668C19.9297 10.1019 19.6766 10.355 19.3814 10.355C19.0861 10.355 18.833 10.1019 18.833 9.80668C18.833 8.43585 19.9508 7.3181 21.3216 7.3181C22.6713 7.3181 23.7891 8.43585 23.7891 9.80668C23.7891 10.9877 22.587 11.8524 21.427 12.696C21.3005 12.8014 21.174 12.8858 21.0474 12.9701H23.6625C23.9578 12.9701 24.2109 13.2232 24.2109 13.5185C24.2109 13.8137 23.9578 14.0668 23.6625 14.0668ZM30.0738 14.0668C29.7785 14.0668 29.5466 13.8348 29.5466 13.5185V11.3462H25.8137C25.5184 11.3462 25.2654 11.0931 25.2654 10.7979V7.86643C25.2654 7.57118 25.5184 7.3181 25.8137 7.3181C26.13 7.3181 26.362 7.57118 26.362 7.86643V10.2496H29.5466V8.942C29.5466 8.64675 29.7785 8.39367 30.0738 8.39367C30.3901 8.39367 30.6221 8.64675 30.6221 8.942V13.5185C30.6221 13.8348 30.3901 14.0668 30.0738 14.0668ZM16.6186 11.2408C16.3234 11.2408 16.0703 11.0088 16.0703 10.6924C16.0703 5.92619 19.9508 2.04569 24.7381 2.04569C25.0334 2.04569 25.2865 2.27768 25.2865 2.59402C25.2865 2.88928 25.0334 3.14235 24.7381 3.14235C20.5624 3.14235 17.1669 6.5167 17.1669 10.6924C17.1669 10.9877 16.9139 11.2408 16.6186 11.2408Z" fill="#333333"/>
<path fill-rule="evenodd" clip-rule="evenodd" d="M24.7381 19.3603C24.4218 19.3603 24.1898 19.1072 24.1898 18.812C24.1898 18.4956 24.4218 18.2636 24.7381 18.2636C28.8928 18.2636 32.2882 14.8682 32.2882 10.6925C32.2882 10.3972 32.5413 10.1441 32.8366 10.1441C33.1529 10.1441 33.3849 10.3972 33.3849 10.6925C33.3849 15.4798 29.5044 19.3603 24.7381 19.3603ZM15.1213 10.6925C15.1213 15.986 19.4447 20.3093 24.7381 20.3093C30.0316 20.3093 34.3339 15.986 34.3339 10.6925C34.3339 5.39896 30.0316 1.09668 24.7381 1.09668C19.4447 1.09668 15.1213 5.39896 15.1213 10.6925ZM30.0738 14.0668C29.7786 14.0668 29.5466 13.8348 29.5466 13.5185V11.3462H25.8137C25.5185 11.3462 25.2654 11.0932 25.2654 10.7979V7.86645C25.2654 7.5712 25.5185 7.31812 25.8137 7.31812C26.1301 7.31812 26.3621 7.5712 26.3621 7.86645V10.2496H29.5466V8.94202C29.5466 8.64677 29.7786 8.39369 30.0738 8.39369C30.3902 8.39369 30.6222 8.64677 30.6222 8.94202V13.5185C30.6222 13.8348 30.3902 14.0668 30.0738 14.0668ZM23.6626 14.0668H19.529C19.3181 14.0668 19.1072 13.9403 19.0229 13.7294C18.9385 13.5185 18.9807 13.2865 19.1494 13.1389C19.6134 12.6538 20.2039 12.232 20.7944 11.8102C21.7223 11.1353 22.6925 10.4394 22.6925 9.8067C22.6925 9.04747 22.0809 8.41478 21.3216 8.41478C20.5413 8.41478 19.9297 9.04747 19.9297 9.8067C19.9297 10.102 19.6766 10.355 19.3814 10.355C19.0861 10.355 18.8331 10.102 18.8331 9.8067C18.8331 8.43587 19.9508 7.31812 21.3216 7.31812C22.6714 7.31812 23.7891 8.43587 23.7891 9.8067C23.7891 10.9877 22.587 11.8524 21.4271 12.696C21.3005 12.8014 21.174 12.8858 21.0475 12.9701H23.6626C23.9578 12.9701 24.2109 13.2232 24.2109 13.5185C24.2109 13.8137 23.9578 14.0668 23.6626 14.0668ZM24.7381 3.14237C20.5624 3.14237 17.167 6.51672 17.167 10.6925C17.167 10.9877 16.9139 11.2408 16.6186 11.2408C16.3234 11.2408 16.0703 11.0088 16.0703 10.6925C16.0703 5.92621 19.9508 2.04571 24.7381 2.04571C25.0334 2.04571 25.2865 2.2777 25.2865 2.59404C25.2865 2.8893 25.0334 3.14237 24.7381 3.14237Z" fill="#7DD63E"/>
<path fill-rule="evenodd" clip-rule="evenodd" d="M24.2952 29.7152L19.2548 26.6994C19.065 26.5939 18.8963 26.5306 18.7487 26.5306C18.2214 26.5306 17.8418 27.1001 17.5255 27.5429C17.4411 27.6695 17.3778 27.7538 17.3146 27.8593L16.2812 29.2301L16.2601 29.2512C16.1968 29.3145 15.9648 29.5465 15.543 29.5465C15.3321 29.5465 15.0791 29.4832 14.826 29.3567C12.2952 28.028 8.52019 24.253 7.19154 21.7222C6.72757 20.8364 7.21263 20.3725 7.29699 20.2881L7.33917 20.267L8.71 19.2547C8.79436 19.1704 8.8998 19.1071 9.00525 19.0227C9.89102 18.4322 10.2706 17.9893 9.86993 17.2934L6.85411 12.2741C6.55885 12.2319 6.28469 12.1897 6.03161 12.1897C4.13355 12.1897 2.65727 13.4762 1.96131 15.7328C1.05446 18.6853 2.15112 22.5658 4.97713 26.383C8.66782 31.4023 14.2987 34.9032 18.6432 34.9032C19.4235 34.9032 20.1406 34.7978 20.8365 34.5869C23.4306 33.7855 24.6748 32.0561 24.2952 29.7152Z" fill="#C06000"/>
</g>
<defs>
<clipPath id="clip0_1151_11624">
<rect width="36" height="36" fill="white"/>
</clipPath>
</defs>
</svg>
