<svg width="37" height="37" viewBox="0 0 37 37" fill="none" xmlns="http://www.w3.org/2000/svg">
<path d="M8.19998 22.3597L6.91206 27.1677L2.20475 27.2673C0.797957 24.658 0 21.6726 0 18.5002C0 15.4324 0.74607 12.5395 2.06853 9.99219H2.06954L6.26037 10.7605L8.09621 14.9262C7.71197 16.0464 7.50254 17.2489 7.50254 18.5002C7.50269 19.8582 7.74868 21.1593 8.19998 22.3597Z" fill="#FBBB00"/>
<path d="M36.6773 15.0439C36.8897 16.1631 37.0005 17.3188 37.0005 18.5C37.0005 19.8245 36.8613 21.1164 36.596 22.3626C35.6954 26.6034 33.3422 30.3064 30.0824 32.9269L30.0814 32.9259L24.8028 32.6566L24.0557 27.9929C26.2188 26.7244 27.9092 24.7392 28.7997 22.3626H18.9072V15.0439H36.6773Z" fill="#518EF8"/>
<path d="M30.0801 32.9257L30.0811 32.9267C26.9108 35.475 22.8834 36.9997 18.4993 36.9997C11.4541 36.9997 5.32879 33.0619 2.2041 27.2669L8.19933 22.3594C9.76164 26.529 13.7839 29.4971 18.4993 29.4971C20.5262 29.4971 22.425 28.9492 24.0544 27.9927L30.0801 32.9257Z" fill="#28B446"/>
<path d="M30.3093 4.25905L24.3161 9.16559C22.6298 8.11153 20.6364 7.50262 18.5008 7.50262C13.6786 7.50262 9.58113 10.6069 8.09708 14.926L2.07035 9.99202H2.06934C5.14829 4.05576 11.3508 0 18.5008 0C22.9896 0 27.1053 1.59895 30.3093 4.25905Z" fill="#F14336"/>
</svg>
