<svg width="300" height="1013" viewBox="0 0 300 1013" fill="none" xmlns="http://www.w3.org/2000/svg">
<mask id="mask0_1151_21644" style="mask-type:alpha" maskUnits="userSpaceOnUse" x="0" y="0" width="300" height="1013">
<rect width="300" height="1013" fill="#D9D9D9"/>
</mask>
<g mask="url(#mask0_1151_21644)">
<path d="M170.553 0.583008C169.047 1.07221 167.081 1.71716 164.77 2.49023C159.244 4.33842 151.742 6.91701 143.84 9.83984C135.939 12.7622 127.633 16.0308 120.5 19.2578C113.384 22.4772 107.38 25.679 104.128 28.4775L103.912 28.6641L103.962 28.9443L104.732 33.2695C104.631 33.3633 104.491 33.4922 104.313 33.6445C103.916 33.9859 103.337 34.4506 102.618 34.9404C101.178 35.9225 99.2033 36.9858 97.0127 37.3799C94.8164 37.6928 92.6427 37.3411 91.0029 36.9004C90.185 36.6805 89.5062 36.4401 89.0342 36.2559C88.8254 36.1744 88.6579 36.1026 88.5361 36.0498L87.7646 31.7207L87.7158 31.4434L87.4531 31.3418L87.0703 31.1982C83.0308 29.7326 76.4756 28.7475 68.9277 28.085C61.1184 27.3995 52.1875 27.0552 43.7549 26.9014C35.3209 26.7475 27.3788 26.7841 21.5459 26.8584C19.0992 26.8896 17.0233 26.9284 15.4375 26.9619C16.4205 26.6457 17.5929 26.2682 18.9121 25.8467C22.9919 24.543 28.4727 22.8064 34.0752 21.0752C39.6783 19.3438 45.4006 17.6186 49.9658 16.3369C52.249 15.6959 54.2382 15.1667 55.7764 14.8037C56.5458 14.6221 57.1975 14.4833 57.7139 14.3926C58.2424 14.2997 58.593 14.2647 58.7793 14.2725H58.7998C59.7706 14.2725 61.7697 14.5601 64.3291 15.0029C66.8707 15.4427 69.9138 16.0263 72.9434 16.6006C75.9695 17.1742 78.9828 17.7388 81.4551 18.1396C82.6911 18.3401 83.7977 18.5006 84.7061 18.6006C85.6021 18.6992 86.3432 18.7436 86.8291 18.6973C88.5694 18.5312 90.2643 18.241 91.5215 17.9932C92.1508 17.8691 92.6726 17.7557 93.0371 17.6729C93.2191 17.6315 93.3621 17.5977 93.46 17.5742C93.5088 17.5625 93.5466 17.5532 93.5723 17.5469L93.5732 17.5459C93.5754 17.5457 93.5777 17.5461 93.5801 17.5459C93.6068 17.5432 93.6462 17.5386 93.6973 17.5332C93.7993 17.5225 93.9482 17.5064 94.1367 17.4844C94.5139 17.4404 95.051 17.3733 95.6904 17.2803C96.9676 17.0945 98.6627 16.8041 100.321 16.3887C100.784 16.2727 101.462 15.9885 102.27 15.6025C103.088 15.2112 104.077 14.698 105.176 14.1045C107.374 12.9173 110.033 11.3981 112.702 9.86133C115.374 8.32286 118.054 6.76676 120.304 5.50293C122.56 4.23508 124.344 3.28245 125.248 2.92676L125.249 2.92773C125.444 2.8545 125.807 2.77042 126.35 2.68262C126.882 2.59646 127.556 2.51128 128.354 2.42773C129.951 2.26067 132.023 2.10087 134.406 1.95117C139.171 1.65186 145.158 1.39092 151.027 1.17578C156.896 0.960664 162.642 0.792016 166.921 0.676758C168.299 0.63965 169.524 0.608707 170.553 0.583008Z" stroke="#EEEEEE"/>
<path d="M226.422 103.849C228.516 104.066 231.326 104.366 234.192 104.696C237.06 105.027 239.979 105.388 242.293 105.729C243.45 105.899 244.451 106.063 245.215 106.215C245.597 106.291 245.914 106.362 246.16 106.428C246.417 106.497 246.56 106.551 246.616 106.582C247.015 106.801 247.797 107.416 248.812 108.273C249.809 109.117 250.988 110.158 252.161 111.193C253.332 112.227 254.5 113.255 255.467 114.066C255.95 114.472 256.388 114.828 256.755 115.104C257.11 115.372 257.434 115.594 257.677 115.702C258.448 116.047 259.256 116.303 259.865 116.472C260.171 116.556 260.429 116.62 260.612 116.663C260.704 116.684 260.777 116.701 260.827 116.712C260.837 116.714 260.846 116.715 260.854 116.717C260.86 116.72 260.868 116.723 260.876 116.727C260.922 116.746 260.989 116.775 261.074 116.81C261.244 116.879 261.488 116.975 261.783 117.081C262.373 117.293 263.179 117.55 264.034 117.722C264.313 117.778 264.72 117.771 265.167 117.74C265.632 117.708 266.197 117.643 266.826 117.559C268.085 117.389 269.626 117.134 271.167 116.876C272.712 116.617 274.258 116.355 275.542 116.167C276.184 116.073 276.755 115.999 277.224 115.953C277.701 115.907 278.042 115.893 278.24 115.909H278.243C278.319 115.915 278.476 115.948 278.732 116.026C278.979 116.101 279.289 116.209 279.653 116.346C280.382 116.62 281.315 117.005 282.38 117.465C284.509 118.385 287.151 119.598 289.73 120.808C292.309 122.017 294.822 123.22 296.69 124.122C296.905 124.226 297.11 124.326 297.307 124.421C296.739 124.371 296.095 124.317 295.388 124.26C292.54 124.029 288.657 123.754 284.515 123.578C280.374 123.402 275.968 123.324 272.076 123.487C268.204 123.65 264.778 124.055 262.638 124.873L262.406 124.961L262.336 125.199L261.575 127.799C261.52 127.825 261.454 127.857 261.377 127.89C261.128 127.997 260.774 128.134 260.357 128.251C259.512 128.488 258.47 128.627 257.534 128.337L257.524 128.334C256.494 128.038 255.663 127.363 255.079 126.736C254.79 126.426 254.567 126.134 254.418 125.922C254.375 125.861 254.34 125.806 254.31 125.76L255.069 123.163L255.14 122.925L254.991 122.726C253.621 120.873 250.926 118.692 247.717 116.48C244.492 114.258 240.693 111.97 237.067 109.908C233.441 107.846 229.98 106.007 227.426 104.684C226.768 104.343 226.17 104.036 225.645 103.769C225.891 103.794 226.15 103.82 226.422 103.849Z" stroke="#EEEEEE"/>
<path d="M80.4297 115.319C80.4055 115.388 80.3814 115.458 80.3574 115.528C80.3538 115.504 80.3517 115.467 80.3652 115.422C80.3789 115.377 80.4037 115.342 80.4287 115.316M80.4297 115.319L80.4287 115.316M80.4297 115.319L80.4287 115.316M80.4297 115.319C80.4304 115.317 80.431 115.315 80.4316 115.313C80.4307 115.314 80.4297 115.315 80.4287 115.316M128.055 243.726C122.934 245.582 117.643 247.214 112.36 248.663C117.542 246.872 122.797 245.164 128.055 243.726ZM129.103 243.342C129.088 243.348 129.074 243.353 129.06 243.358L129.046 243.257L129.103 243.342ZM129.003 242.928L128.943 242.469L129 242.473C129.062 242.482 129.137 242.506 129.208 242.561C129.218 242.569 129.226 242.578 129.234 242.585C129.238 242.659 129.242 242.733 129.246 242.806L129.003 242.928ZM103.077 238.228L102.767 237.77C102.846 237.747 102.925 237.724 103.005 237.702L103.077 238.228ZM127.334 215.171C127.415 219.191 127.697 223.209 128.154 227.226L128.199 227.623C128.177 227.63 128.156 227.637 128.134 227.644L128.124 227.554C127.671 223.424 127.391 219.297 127.334 215.171ZM88.5713 112.536C107.337 109.637 127.606 117.904 137.511 134.46V134.461C147.569 151.25 146.191 173.019 133.262 187.767C131.87 189.232 130.493 190.681 128.974 192.056L128.804 192.209L128.807 192.337L128.468 192.635C115.557 203.95 96.999 209.304 80.3545 205.035L80.0693 205.559C79.7996 205.3 79.5279 205.044 79.2549 204.789L79.165 204.705L79.0469 204.671C77.9089 204.355 76.7733 203.985 75.6885 203.56L75.2266 203.375L75.2178 203.371C56.617 196.133 44.4598 177.749 45.3281 157.778C46.1583 138.408 59.5567 120.829 78.166 115.462C68.3328 118.867 59.5229 125.222 53.6318 133.848C47.3428 143.023 44.7565 154.337 46.0869 165.35C48.3805 184.803 63.3905 200.917 82.4658 204.984L82.4688 204.985C88.5337 206.242 94.816 206.241 100.945 205.133L102.776 204.802L101.026 204.171C93.9969 201.635 87.3901 197.572 81.5723 192.845C69.9229 183.235 59.6641 168.879 59.5918 153.439C59.5324 140.913 65.5296 129.578 74.2461 120.978C70.4985 124.852 67.2116 129.2 64.7725 134.006L64.4199 134.717C61.0934 141.446 59.4619 149.07 60.2021 156.63V156.631C60.9445 164.871 64.7261 172.562 69.4355 179.185H69.4365C77.8407 190.98 89.556 199.227 102.944 204.376L102.962 204.383C102.969 204.391 102.978 204.399 102.989 204.41L103.172 204.592L103.426 204.549C103.668 204.509 103.907 204.449 104.123 204.395C104.346 204.339 104.546 204.29 104.742 204.257L105.805 204.08L104.983 203.382C100.011 199.159 95.6109 194.296 91.7842 188.97L91.0264 187.899C76.4412 166.815 72.9738 139.701 81.4111 115.54L81.4824 115.611C79.2295 122.148 77.7465 128.963 77.2441 135.922C75.3305 161.683 86.0756 187.147 105.874 203.781L106.076 203.951L106.331 203.879C118.749 200.394 130.034 192.546 136.872 181.864L137.194 181.353C146.961 165.609 144.957 144.084 133.322 129.87L132.762 129.199C126.952 122.314 118.928 117.453 110.309 114.94L109.473 114.705C101.855 112.561 94.0985 112.489 86.4307 113.89L86.3906 114.771C85.9037 114.622 85.4146 114.48 84.9229 114.345C84.916 114.338 84.9078 114.331 84.8984 114.322L84.6934 114.116L84.4141 114.193C84.0238 114.299 83.6315 114.388 83.2275 114.48C82.8269 114.571 82.4143 114.665 82 114.778L81.7471 114.846L81.6602 115.094C81.6174 115.216 81.5764 115.338 81.5342 115.459V115.231C81.5908 115.113 81.6074 114.992 81.6074 114.894L81.5342 114.881V114.456C81.5342 114.398 81.5473 114.38 81.5537 114.372C81.5648 114.357 81.6045 114.312 81.7275 114.262C83.9622 113.47 86.1951 112.896 88.5703 112.536H88.5713ZM89.7031 115.907C95.7401 118.033 101.313 121.279 106.159 125.511L106.162 125.513C117.106 134.935 123.986 148.629 124.348 163.181V163.182C124.71 177.383 119.203 191.586 109.28 201.728C109.22 201.788 109.171 201.797 109.129 201.793C109.073 201.789 108.998 201.759 108.933 201.698C108.866 201.636 108.839 201.571 108.834 201.531C108.831 201.507 108.831 201.47 108.89 201.411L108.893 201.409C114.509 195.718 118.644 188.701 121.153 181.1V181.099C125.582 167.591 124.552 152.597 117.604 140.105C111.482 129.036 101.458 120.38 89.7031 115.907ZM80.4355 115.302L80.4248 115.312C80.3216 115.396 80.2191 115.482 80.1162 115.567L79.834 115.016C80.0872 114.954 80.3417 114.896 80.5967 114.838C80.542 114.993 80.4893 115.148 80.4355 115.302ZM80.6201 114.894H80.6074C80.6075 114.891 80.6074 114.867 80.6182 114.833C80.6237 114.832 80.6292 114.831 80.6348 114.83L80.6201 114.894Z" fill="#EEEEEE" stroke="#EEEEEE"/>
<path d="M85.7637 118.767C89.6616 122.811 92.9332 127.589 95.8213 132.342V132.343C108.119 152.645 112.915 178.326 107.32 201.517C107.3 201.587 107.273 201.603 107.265 201.607C107.247 201.617 107.212 201.625 107.165 201.614C107.118 201.603 107.085 201.578 107.069 201.556C107.059 201.541 107.042 201.511 107.055 201.439L107.054 201.438C108.448 194.759 109.257 188 109.257 181.163V181.162V181.159C109.186 169.692 107.044 158.224 102.967 147.492L102.565 146.456C100.431 140.865 97.7115 135.571 94.5527 130.502L94.5488 130.496L93.9209 129.537C91.4084 125.757 88.5943 122.242 85.7637 118.767Z" fill="#EEEEEE" stroke="#EEEEEE"/>
<mask id="path-6-inside-1_1151_21644" fill="white">
<path d="M114.242 241.798C115.485 241.725 116.655 241.652 117.899 241.506C117.24 242.237 116.509 242.969 115.778 243.627C115.558 243.846 115.924 244.212 116.143 243.993C117.021 243.188 117.826 242.31 118.557 241.433C119.727 241.286 120.824 241.067 121.995 240.847C121.483 241.432 120.898 242.018 120.312 242.603C120.166 242.749 120.386 243.042 120.532 242.895C121.41 242.237 122.141 241.506 122.872 240.628C124.043 240.408 125.14 240.116 126.31 239.823C126.603 239.75 126.457 239.238 126.164 239.311C125.213 239.604 124.262 239.823 123.311 240.043C123.897 239.238 124.482 238.36 124.921 237.41C125.579 237.263 126.237 237.117 126.895 236.971C127.188 236.898 127.042 236.532 126.749 236.532C126.237 236.605 125.725 236.751 125.213 236.824C125.652 235.874 125.945 234.923 126.237 233.972C126.31 233.752 125.945 233.606 125.871 233.899C125.579 234.996 125.213 236.02 124.701 236.971C123.604 237.19 122.507 237.336 121.336 237.483C121.848 236.605 122.287 235.654 122.726 234.703C122.799 234.557 122.507 234.338 122.434 234.557C121.995 235.581 121.483 236.605 120.898 237.556C119.581 237.702 118.191 237.775 116.875 237.775C116.655 237.775 116.655 238.141 116.875 238.141C118.118 238.141 119.362 238.141 120.605 238.068C119.947 239.165 119.142 240.189 118.338 241.14C117.021 241.359 115.631 241.506 114.242 241.652C114.095 241.579 114.095 241.798 114.242 241.798ZM121.044 237.922C122.141 237.848 123.311 237.702 124.409 237.556C123.897 238.507 123.238 239.384 122.58 240.262C121.41 240.555 120.239 240.774 119.069 240.92C119.727 239.97 120.459 238.946 121.044 237.922Z"/>
</mask>
<path d="M114.242 241.798C115.485 241.725 116.655 241.652 117.899 241.506C117.24 242.237 116.509 242.969 115.778 243.627C115.558 243.846 115.924 244.212 116.143 243.993C117.021 243.188 117.826 242.31 118.557 241.433C119.727 241.286 120.824 241.067 121.995 240.847C121.483 241.432 120.898 242.018 120.312 242.603C120.166 242.749 120.386 243.042 120.532 242.895C121.41 242.237 122.141 241.506 122.872 240.628C124.043 240.408 125.14 240.116 126.31 239.823C126.603 239.75 126.457 239.238 126.164 239.311C125.213 239.604 124.262 239.823 123.311 240.043C123.897 239.238 124.482 238.36 124.921 237.41C125.579 237.263 126.237 237.117 126.895 236.971C127.188 236.898 127.042 236.532 126.749 236.532C126.237 236.605 125.725 236.751 125.213 236.824C125.652 235.874 125.945 234.923 126.237 233.972C126.31 233.752 125.945 233.606 125.871 233.899C125.579 234.996 125.213 236.02 124.701 236.971C123.604 237.19 122.507 237.336 121.336 237.483C121.848 236.605 122.287 235.654 122.726 234.703C122.799 234.557 122.507 234.338 122.434 234.557C121.995 235.581 121.483 236.605 120.898 237.556C119.581 237.702 118.191 237.775 116.875 237.775C116.655 237.775 116.655 238.141 116.875 238.141C118.118 238.141 119.362 238.141 120.605 238.068C119.947 239.165 119.142 240.189 118.338 241.14C117.021 241.359 115.631 241.506 114.242 241.652C114.095 241.579 114.095 241.798 114.242 241.798ZM121.044 237.922C122.141 237.848 123.311 237.702 124.409 237.556C123.897 238.507 123.238 239.384 122.58 240.262C121.41 240.555 120.239 240.774 119.069 240.92C119.727 239.97 120.459 238.946 121.044 237.922Z" fill="#EEEEEE"/>
<path d="M114.242 241.798V242.798H114.271L114.3 242.796L114.242 241.798ZM117.899 241.506L118.642 242.175L120.417 240.202L117.782 240.513L117.899 241.506ZM115.778 243.627L115.109 242.884L115.089 242.901L115.07 242.92L115.778 243.627ZM116.143 243.993L115.468 243.255L115.452 243.27L115.436 243.285L116.143 243.993ZM118.557 241.433L118.433 240.44L118.041 240.489L117.789 240.792L118.557 241.433ZM121.995 240.847L122.747 241.506L124.649 239.332L121.81 239.864L121.995 240.847ZM120.312 242.603L119.605 241.896L120.312 242.603ZM120.532 242.895L119.932 242.095L119.875 242.138L119.825 242.188L120.532 242.895ZM122.872 240.628L122.688 239.645L122.335 239.711L122.104 239.988L122.872 240.628ZM126.31 239.823L126.553 240.793L126.31 239.823ZM126.164 239.311L125.921 238.341L125.895 238.348L125.87 238.356L126.164 239.311ZM123.311 240.043L122.503 239.455L120.929 241.619L123.536 241.017L123.311 240.043ZM124.921 237.41L124.704 236.433L124.22 236.541L124.013 236.991L124.921 237.41ZM126.895 236.971L127.112 237.947L127.125 237.944L127.138 237.941L126.895 236.971ZM126.749 236.532V235.532H126.678L126.608 235.542L126.749 236.532ZM125.213 236.824L124.305 236.405L123.535 238.074L125.355 237.814L125.213 236.824ZM126.237 233.972L125.288 233.656L125.285 233.667L125.281 233.678L126.237 233.972ZM125.871 233.899L126.838 234.156L126.84 234.149L126.842 234.141L125.871 233.899ZM124.701 236.971L124.897 237.951L125.359 237.859L125.582 237.445L124.701 236.971ZM121.336 237.483L120.473 236.979L119.454 238.726L121.461 238.475L121.336 237.483ZM122.726 234.703L121.832 234.256L121.825 234.27L121.818 234.284L122.726 234.703ZM122.434 234.557L123.353 234.951L123.369 234.913L123.382 234.873L122.434 234.557ZM120.898 237.556L121.008 238.55L121.493 238.496L121.749 238.08L120.898 237.556ZM120.605 238.068L121.463 238.582L122.437 236.958L120.546 237.07L120.605 238.068ZM118.338 241.14L118.502 242.126L118.864 242.066L119.101 241.786L118.338 241.14ZM114.242 241.652L113.794 242.546L114.056 242.677L114.346 242.646L114.242 241.652ZM121.044 237.922L120.977 236.924L120.442 236.96L120.176 237.425L121.044 237.922ZM124.409 237.556L125.289 238.03L126.217 236.306L124.276 236.565L124.409 237.556ZM122.58 240.262L122.822 241.232L123.167 241.146L123.38 240.862L122.58 240.262ZM119.069 240.92L118.247 240.351L116.974 242.19L119.193 241.913L119.069 240.92ZM114.3 242.796C115.543 242.723 116.74 242.649 118.016 242.499L117.782 240.513C116.571 240.655 115.427 240.727 114.183 240.8L114.3 242.796ZM117.155 240.837C116.521 241.542 115.814 242.249 115.109 242.884L116.447 244.37C117.204 243.688 117.96 242.932 118.642 242.175L117.155 240.837ZM115.07 242.92C114.796 243.194 114.678 243.561 114.717 243.918C114.753 244.243 114.911 244.504 115.089 244.681C115.266 244.859 115.528 245.017 115.852 245.053C116.209 245.092 116.576 244.974 116.85 244.7L115.436 243.285C115.601 243.121 115.84 243.039 116.073 243.065C116.274 243.087 116.417 243.181 116.503 243.267C116.589 243.353 116.683 243.496 116.705 243.697C116.731 243.931 116.649 244.169 116.485 244.334L115.07 242.92ZM116.819 244.73C117.738 243.887 118.574 242.975 119.325 242.073L117.789 240.792C117.077 241.646 116.304 242.489 115.468 243.255L116.819 244.73ZM118.681 242.425C119.89 242.274 121.025 242.047 122.179 241.83L121.81 239.864C120.624 240.087 119.565 240.299 118.433 240.44L118.681 242.425ZM121.242 240.189C120.756 240.744 120.196 241.306 119.605 241.896L121.02 243.31C121.6 242.73 122.209 242.121 122.747 241.506L121.242 240.189ZM119.605 241.896C119.04 242.461 119.296 243.17 119.512 243.459C119.639 243.628 119.86 243.829 120.186 243.905C120.57 243.996 120.963 243.879 121.239 243.602L119.825 242.188C120.028 241.985 120.339 241.887 120.644 241.959C120.893 242.017 121.041 242.163 121.112 242.259C121.22 242.402 121.438 242.891 121.02 243.31L119.605 241.896ZM121.132 243.695C122.085 242.98 122.872 242.191 123.641 241.268L122.104 239.988C121.41 240.821 120.734 241.494 119.932 242.095L121.132 243.695ZM123.057 241.611C124.265 241.384 125.403 241.081 126.553 240.793L126.068 238.853C124.877 239.151 123.821 239.433 122.688 239.645L123.057 241.611ZM126.553 240.793C126.951 240.694 127.244 240.415 127.38 240.074C127.502 239.769 127.484 239.467 127.418 239.238C127.352 239.006 127.211 238.75 126.963 238.559C126.691 238.349 126.316 238.243 125.921 238.341L126.406 240.281C126.159 240.343 125.912 240.274 125.74 240.141C125.593 240.028 125.525 239.891 125.495 239.787C125.466 239.686 125.447 239.521 125.523 239.331C125.614 239.104 125.815 238.916 126.068 238.853L126.553 240.793ZM125.87 238.356C124.959 238.636 124.043 238.848 123.086 239.068L123.536 241.017C124.482 240.799 125.467 240.572 126.458 240.267L125.87 238.356ZM124.12 240.631C124.719 239.808 125.349 238.868 125.828 237.829L124.013 236.991C123.615 237.853 123.074 238.668 122.503 239.455L124.12 240.631ZM125.137 238.386C125.467 238.313 125.796 238.24 126.125 238.166C126.454 238.093 126.783 238.02 127.112 237.947L126.678 235.995C126.349 236.068 126.02 236.141 125.691 236.214C125.362 236.287 125.033 236.36 124.704 236.433L125.137 238.386ZM127.138 237.941C127.426 237.869 127.745 237.682 127.927 237.328C128.102 236.987 128.074 236.637 127.981 236.382C127.803 235.891 127.32 235.532 126.749 235.532V237.532C126.47 237.532 126.207 237.356 126.102 237.066C126.046 236.911 126.018 236.667 126.147 236.415C126.284 236.149 126.511 236.036 126.653 236.001L127.138 237.941ZM126.608 235.542C126.312 235.584 126.022 235.647 125.772 235.7C125.51 235.756 125.288 235.804 125.072 235.834L125.355 237.814C125.651 237.772 125.941 237.71 126.191 237.656C126.453 237.6 126.675 237.553 126.891 237.522L126.608 235.542ZM126.121 237.244C126.592 236.222 126.903 235.208 127.193 234.266L125.281 233.678C124.986 234.637 124.712 235.525 124.305 236.405L126.121 237.244ZM127.186 234.288C127.449 233.5 126.871 232.928 126.396 232.785C126.134 232.707 125.8 232.707 125.486 232.881C125.157 233.062 124.974 233.365 124.901 233.656L126.842 234.141C126.805 234.287 126.695 234.497 126.453 234.631C126.226 234.756 125.993 234.752 125.822 234.701C125.655 234.651 125.489 234.541 125.374 234.359C125.247 234.156 125.208 233.896 125.288 233.656L127.186 234.288ZM124.905 233.641C124.626 234.689 124.285 235.634 123.821 236.497L125.582 237.445C126.141 236.405 126.532 235.303 126.838 234.156L124.905 233.641ZM124.505 235.99C123.447 236.202 122.381 236.344 121.212 236.49L121.461 238.475C122.632 238.329 123.761 238.179 124.897 237.951L124.505 235.99ZM122.2 237.987C122.741 237.06 123.199 236.065 123.634 235.122L121.818 234.284C121.376 235.243 120.956 236.15 120.473 236.979L122.2 237.987ZM123.621 235.151C123.818 234.756 123.731 234.377 123.621 234.152C123.514 233.93 123.346 233.758 123.165 233.645C122.994 233.538 122.684 233.407 122.307 233.49C121.857 233.588 121.59 233.925 121.485 234.241L123.382 234.873C123.314 235.079 123.111 235.361 122.734 235.444C122.43 235.51 122.202 235.402 122.105 235.341C121.996 235.273 121.893 235.171 121.822 235.024C121.749 234.874 121.671 234.577 121.832 234.256L123.621 235.151ZM121.514 234.163C121.091 235.152 120.601 236.131 120.046 237.032L121.749 238.08C122.365 237.079 122.899 236.01 123.353 234.951L121.514 234.163ZM120.787 236.562C119.509 236.704 118.156 236.775 116.875 236.775V238.775C118.226 238.775 119.653 238.7 121.008 238.55L120.787 236.562ZM116.875 236.775C116.51 236.775 116.183 236.941 115.97 237.208C115.778 237.449 115.71 237.726 115.71 237.958C115.71 238.19 115.778 238.468 115.97 238.709C116.183 238.975 116.51 239.141 116.875 239.141V237.141C117.13 237.141 117.374 237.261 117.532 237.459C117.67 237.632 117.71 237.817 117.71 237.958C117.71 238.099 117.67 238.285 117.532 238.457C117.374 238.655 117.13 238.775 116.875 238.775V236.775ZM116.875 239.141C118.113 239.141 119.386 239.141 120.664 239.066L120.546 237.07C119.337 237.141 118.123 237.141 116.875 237.141V239.141ZM119.748 237.553C119.13 238.582 118.366 239.559 117.574 240.494L119.101 241.786C119.919 240.82 120.763 239.748 121.463 238.582L119.748 237.553ZM118.173 240.154C116.892 240.367 115.533 240.511 114.137 240.657L114.346 242.646C115.73 242.501 117.15 242.352 118.502 242.126L118.173 240.154ZM114.689 240.758C114.498 240.662 114.093 240.534 113.669 240.772C113.245 241.011 113.132 241.431 113.132 241.698C113.132 242.238 113.56 242.798 114.242 242.798V240.798C114.777 240.798 115.132 241.249 115.132 241.698C115.132 241.919 115.037 242.298 114.65 242.515C114.263 242.733 113.912 242.605 113.794 242.546L114.689 240.758ZM121.11 238.919C122.243 238.844 123.442 238.694 124.541 238.547L124.276 236.565C123.181 236.711 122.039 236.853 120.977 236.924L121.11 238.919ZM123.528 237.082C123.058 237.955 122.446 238.774 121.78 239.662L123.38 240.862C124.03 239.995 124.735 239.058 125.289 238.03L123.528 237.082ZM122.337 239.292C121.205 239.575 120.074 239.787 118.945 239.928L119.193 241.913C120.404 241.761 121.614 241.534 122.822 241.232L122.337 239.292ZM119.891 241.49C120.535 240.559 121.3 239.489 121.912 238.418L120.176 237.425C119.618 238.402 118.919 239.38 118.247 240.351L119.891 241.49Z" fill="#EEEEEE" mask="url(#path-6-inside-1_1151_21644)"/>
<path d="M-30.5004 208.5C24.9996 208.667 144.5 236 92.4996 347C31.1166 478.028 -252.401 645.147 -31.5004 669C181.5 692 -88 868 130.5 935.5" stroke="#EEEEEE" stroke-width="2" stroke-dasharray="4 4"/>
<mask id="mask1_1151_21644" style="mask-type:alpha" maskUnits="userSpaceOnUse" x="116" y="922" width="99" height="91">
<rect x="214.066" y="1013" width="97.0667" height="91" transform="rotate(180 214.066 1013)" fill="#D9D9D9"/>
</mask>
<g mask="url(#mask1_1151_21644)">
<path d="M212.306 1010.1C211.382 1011.29 209.308 1011.93 205.847 1010.86C202.435 1009.81 197.974 1007.17 192.8 1002.37L192.793 1002.36L192.785 1002.35L182.082 992.831C181.106 991.919 179.651 991.837 178.587 992.268L178.521 992.294L178.27 992.441C176.706 993.207 175.782 995.038 176.566 996.791C176.995 997.867 176.871 998.679 176.501 999.285C176.109 999.927 175.353 1000.48 174.284 1000.81C172.139 1001.46 169.088 1001.09 166.675 999.22L166.659 999.207C165.697 998.493 164.428 998.241 163.285 998.683L163.285 998.682C162.939 998.8 162.62 998.946 162.335 999.078C162.04 999.214 161.771 999.339 161.467 999.454L161.432 999.468L161.398 999.483C159.735 1000.26 158.99 1002.06 159.555 1003.71L159.562 1003.73C159.938 1004.76 159.793 1005.53 159.407 1006.12C158.995 1006.74 158.226 1007.28 157.159 1007.59C155.015 1008.23 152.044 1007.87 149.783 1006.13L149.753 1006.1L149.721 1006.08C148.885 1005.54 147.721 1005.17 146.534 1005.64L146.533 1005.64C142.612 1007.11 139.425 1007.68 136.413 1007.47C133.401 1007.26 130.477 1006.25 127.087 1004.4L127.082 1004.4C126.177 1003.92 126.093 1002.65 127.004 1002.03L127.101 1001.97C138.547 994.614 150.751 988.341 160.105 978.247C161.456 976.873 161.359 974.593 159.888 973.402C158.537 972.162 157.177 970.965 155.825 969.776C154.465 968.579 153.115 967.39 151.776 966.162L150.556 965.042L150.539 965.108C150.09 964.651 149.645 964.197 149.199 963.745C148.352 962.885 147.507 962.028 146.647 961.146C144.667 958.946 142.37 956.422 140.46 954.09L140.461 954.091C139.584 952.965 138.158 952.635 136.876 953.007L136.861 953.011L136.846 953.016C133.757 954.023 130.491 955.365 127.261 955.973C124.168 956.554 121.382 956.398 119.134 954.721L118.918 954.554C118.487 954.196 118.313 953.494 118.615 952.92L118.618 952.915C119.51 951.195 120.884 949.802 122.57 948.518C123.845 947.547 125.255 946.669 126.738 945.761L128.221 944.852C129.901 943.874 130.258 941.813 129.347 940.25L129.337 940.232C128.645 939.101 128.29 938.134 128.184 937.383C128.079 936.631 128.232 936.185 128.428 935.942C128.615 935.71 128.983 935.488 129.702 935.481C130.434 935.474 131.45 935.699 132.747 936.29L132.748 936.29C134.456 937.108 136.489 936.252 137.278 934.643L137.297 934.602C138.216 932.491 139.027 930.371 140.057 928.425C141.079 926.496 142.251 924.873 143.796 923.786L143.828 923.763C144.208 923.473 144.832 923.462 145.295 923.84L145.304 923.848L145.314 923.856L145.548 924.044C147.916 926.019 148.556 928.758 148.381 931.962C148.197 935.334 147.138 938.912 146.409 942.364L146.405 942.384L146.402 942.404C146.199 943.607 146.601 945.118 147.862 945.879L147.861 945.879C150.222 947.425 152.794 949.158 155.018 950.755L155.948 951.431L161.525 955.786L169.227 962.563L169.228 962.563C170.572 963.796 172.683 963.682 173.991 962.351L174.013 962.327C183.292 952.252 188.199 938.765 193.785 926.531L193.792 926.519L193.797 926.505C194.189 925.579 195.483 925.44 196.069 926.183C196.981 928.682 197.829 930.543 198.546 932.067C199.287 933.64 199.849 934.782 200.227 935.922C200.942 938.083 201.01 940.292 199.734 945.291C199.434 946.441 199.734 947.655 200.622 948.521L200.621 948.521C202.613 950.547 203.362 953.465 203.011 955.679C202.836 956.78 202.406 957.609 201.838 958.092C201.305 958.545 200.544 958.789 199.445 958.534L199.427 958.53L199.409 958.527C197.696 958.195 195.895 959.17 195.441 960.89C195.267 961.549 195.136 962.043 194.963 962.702C194.649 963.89 194.984 965.096 195.905 966.041L195.913 966.049L195.92 966.056L196.123 966.263C198.18 968.421 198.875 971.304 198.494 973.455C198.298 974.562 197.834 975.386 197.233 975.859C196.664 976.306 195.856 976.53 194.718 976.23C192.876 975.744 191.11 976.773 190.539 978.471L190.528 978.503L190.52 978.536L190.477 978.7C190.163 979.887 190.558 981.212 191.443 982.062L191.457 982.076L191.473 982.089L201.83 991.254L201.852 991.273C207.068 995.626 210.262 999.725 211.837 1003.08C213.44 1006.49 213.264 1008.87 212.306 1010.1Z" stroke="#EEEEEE" stroke-width="2"/>
</g>
</g>
</svg>
