<svg width="81" height="88" viewBox="0 0 81 88" fill="none" xmlns="http://www.w3.org/2000/svg">
<path d="M71.4348 87.8232L41.8909 82.7278C41.0956 82.5882 40.5809 81.8437 40.7213 81.0526L47.8792 40.0334C48.0196 39.2424 48.7681 38.7305 49.5634 38.8701L79.1074 43.9655C79.9027 44.1051 80.4173 44.8496 80.277 45.6407L73.119 86.6599C72.9787 87.4509 72.2301 87.9628 71.4348 87.8232Z" fill="#5D4840"/>
<path d="M59.4354 69.8151C59.412 69.8151 59.3886 69.8151 59.3652 69.8151C59.1781 69.7919 59.0377 69.6057 59.0845 69.4196L62.8506 47.8746C62.874 47.6885 63.0611 47.5489 63.2483 47.5954C63.4354 47.6187 63.5757 47.8048 63.529 47.991L59.7629 69.5359C59.7395 69.6755 59.5991 69.8151 59.4354 69.8151Z" fill="#BB934C"/>
<path d="M59.4355 69.815C59.4121 69.815 59.3887 69.815 59.3653 69.815C53.2132 68.7447 49.0495 62.9048 50.1255 56.7624C50.6401 53.7842 52.3009 51.2016 54.7805 49.4566C57.26 47.7116 60.2776 47.0601 63.2483 47.572C63.4355 47.5953 63.5758 47.7814 63.529 47.9675C63.5056 48.1537 63.3185 48.2933 63.1314 48.2467C60.3243 47.7581 57.5173 48.3863 55.1781 50.015C52.8623 51.6437 51.3185 54.0867 50.8272 56.8787C49.8214 62.6256 53.7044 68.1165 59.4822 69.117C59.6694 69.1402 59.8097 69.3264 59.7629 69.5125C59.7395 69.6754 59.5992 69.815 59.4355 69.815Z" fill="#BB934C"/>
<path d="M59.4353 69.8151C59.4119 69.8151 59.3885 69.8151 59.3651 69.8151C55.5756 69.1636 53.3768 63.6494 54.4528 57.507C54.9675 54.5521 56.1371 51.8997 57.7745 50.0384C59.4353 48.1305 61.4002 47.2464 63.2482 47.5721C63.4353 47.5954 63.5757 47.7815 63.5289 47.9676C63.5055 48.1538 63.3184 48.2934 63.1312 48.2468C61.5172 47.9676 59.8096 48.7587 58.2891 50.4804C56.7452 52.2487 55.6224 54.7848 55.1312 57.6C54.1254 63.3469 56.0669 68.5121 59.4821 69.0938C59.6692 69.1171 59.8096 69.3032 59.7628 69.4893C59.7394 69.6755 59.5991 69.8151 59.4353 69.8151Z" fill="#BB934C"/>
<path d="M60.1138 69.8615C59.8564 69.8615 59.6225 69.8382 59.3652 69.7917C59.1781 69.7684 59.0377 69.5823 59.0845 69.3962C59.1079 69.21 59.295 69.0704 59.4822 69.117C62.874 69.6986 66.4763 65.5106 67.4822 59.7405C67.9734 56.9252 67.7863 54.1565 66.9208 51.9694C66.1021 49.8289 64.7453 48.5259 63.1313 48.2467C62.9442 48.2235 62.8038 48.0373 62.8506 47.8512C62.874 47.6651 63.0611 47.5255 63.2483 47.572C65.1196 47.8977 66.6401 49.3635 67.5758 51.7367C68.4647 54.0401 68.6752 56.9252 68.1606 59.8801C67.1781 65.6037 63.6693 69.8615 60.1138 69.8615Z" fill="#BB934C"/>
<path d="M70.4299 54.8545C68.3012 54.8545 65.3071 54.552 62.1258 53.9936C58.3831 53.3421 54.9679 52.458 53.0263 51.6204C52.8392 51.5506 52.769 51.3412 52.8392 51.1551C52.9094 50.9689 53.1199 50.8991 53.307 50.9689C55.2018 51.7833 58.5468 52.6441 62.2427 53.2956C65.9386 53.9238 69.3773 54.2495 71.4357 54.1099C71.6229 54.1099 71.7866 54.2495 71.81 54.4357C71.8334 54.6218 71.6697 54.7847 71.4825 54.8079C71.1784 54.8545 70.8276 54.8545 70.4299 54.8545Z" fill="#BB934C"/>
<path d="M69.4473 66.3713C69.4005 66.3713 69.3538 66.3713 69.307 66.348C67.4122 65.5337 64.0672 64.6728 60.3713 64.0214C56.6754 63.3932 53.2367 63.0674 51.1783 63.207C50.9911 63.2303 50.8274 63.0674 50.804 62.8813C50.7806 62.6952 50.9443 62.5323 51.1315 62.509C53.2367 62.3694 56.7455 62.6952 60.4882 63.3234C64.2309 63.9748 67.6461 64.859 69.5877 65.6966C69.7748 65.7664 69.845 65.9758 69.7748 66.1619C69.728 66.3015 69.5877 66.3713 69.4473 66.3713Z" fill="#BB934C"/>
<path d="M61.3299 69.9547C60.6983 69.9547 60.0434 69.9082 59.3884 69.7919C59.2013 69.7686 59.0609 69.5825 59.1077 69.3963C59.1311 69.2102 59.3182 69.0706 59.5054 69.1171C60.1136 69.2335 60.7217 69.28 61.3299 69.28C66.406 69.28 70.9206 65.6504 71.8095 60.5085C72.8153 54.7616 68.9323 49.2706 63.1545 48.2702C62.9674 48.2469 62.827 48.0608 62.8738 47.8746C62.8972 47.6885 63.0843 47.5489 63.2715 47.5954C69.4235 48.6657 73.5873 54.5057 72.5113 60.6481C71.5288 66.0925 66.7335 69.9547 61.3299 69.9547Z" fill="#BB934C"/>
<path d="M72.1371 60.9038C72.1137 60.9038 72.0903 60.9038 72.0669 60.9038L50.4294 57.1579C50.2423 57.1346 50.1019 56.9485 50.1487 56.7623C50.1721 56.5762 50.3592 56.4366 50.5464 56.4831L72.2073 60.2291C72.3944 60.2523 72.5347 60.4385 72.488 60.6246C72.4646 60.7875 72.3242 60.9038 72.1371 60.9038Z" fill="#BB934C"/>
<path d="M49.7979 72.8627C49.9382 73.0721 49.985 73.3513 49.9382 73.6538C49.8914 73.9563 49.7511 74.1889 49.5405 74.3518C49.33 74.5147 49.0961 74.5612 48.792 74.5147L47.9967 74.3751C47.9733 74.3751 47.9733 74.3751 47.9733 74.3983L47.6926 75.9805C47.6926 76.027 47.6692 76.027 47.6224 76.027L47.3417 75.9805C47.2949 75.9805 47.2949 75.9572 47.2949 75.9107L47.9265 72.3043C47.9265 72.2578 47.9499 72.2578 47.9967 72.2578L49.1429 72.4439C49.4236 72.5137 49.6341 72.6533 49.7979 72.8627ZM49.2832 74.0959C49.4236 73.9795 49.5172 73.8167 49.5405 73.6073C49.5873 73.3979 49.5405 73.2117 49.4704 73.0489C49.3768 72.9093 49.2364 72.8162 49.0493 72.7697L48.3008 72.6301C48.2774 72.6301 48.2774 72.6301 48.2774 72.6533L48.0435 74.0261C48.0435 74.0493 48.0435 74.0493 48.0669 74.0493L48.8154 74.1889C48.9791 74.2355 49.1429 74.1889 49.2832 74.0959Z" fill="#F1EBD7"/>
<path d="M51.8329 76.7251L51.7627 76.0271C51.7627 76.0271 51.7627 76.0038 51.7393 76.0038L50.4527 75.7944C50.4293 75.7944 50.4293 75.7944 50.4293 75.7944L50.1486 76.4226C50.1252 76.4459 50.1252 76.4691 50.0785 76.4691L49.7978 76.4226C49.7744 76.4226 49.7744 76.4226 49.751 76.3993C49.751 76.3761 49.751 76.3761 49.751 76.3528L51.365 72.9093C51.3884 72.8861 51.3884 72.8628 51.4352 72.8628L51.7861 72.9326C51.8095 72.9326 51.8329 72.9559 51.8329 72.9791L52.2071 76.7483V76.7716C52.2071 76.7949 52.1837 76.8181 52.1369 76.7949L51.8562 76.7483C51.8562 76.7716 51.8329 76.7483 51.8329 76.7251ZM50.5931 75.4687C50.5931 75.4919 50.5931 75.4919 50.5931 75.4687L51.7159 75.6781H51.7393C51.7393 75.6781 51.7393 75.6781 51.7393 75.6548L51.5522 73.4445C51.5522 73.4445 51.5522 73.4445 51.5522 73.4212C51.5522 73.4212 51.5522 73.4212 51.5288 73.4212L50.5931 75.4687Z" fill="#F1EBD7"/>
<path d="M52.9323 76.7249C52.7686 76.5155 52.6984 76.2595 52.7686 75.9803L52.7919 75.8407C52.7919 75.7942 52.8153 75.7942 52.8621 75.7942L53.1194 75.8407C53.1662 75.8407 53.1662 75.864 53.1662 75.9105L53.1428 76.0269C53.1194 76.2363 53.1428 76.3991 53.2598 76.5387C53.3767 76.6783 53.5405 76.7714 53.751 76.8179C53.9615 76.8645 54.1253 76.8179 54.2656 76.7249C54.406 76.6318 54.4996 76.4922 54.5229 76.3061C54.5463 76.1897 54.5229 76.0734 54.4996 75.9803C54.4528 75.8873 54.3826 75.7942 54.289 75.7011C54.1955 75.6081 54.0551 75.4917 53.868 75.3289C53.6574 75.166 53.5171 75.0497 53.4001 74.9333C53.2832 74.817 53.213 74.7007 53.1428 74.5611C53.096 74.4215 53.0726 74.2586 53.096 74.0725C53.1428 73.7933 53.2832 73.5839 53.4937 73.4443C53.7042 73.3047 53.9615 73.2814 54.289 73.3279C54.6165 73.3745 54.8738 73.5141 55.0376 73.7467C55.2013 73.9561 55.2481 74.2121 55.2013 74.5145L55.1779 74.6309C55.1779 74.6774 55.1545 74.6774 55.1077 74.6774L54.8504 74.6309C54.8036 74.6309 54.8036 74.6076 54.8036 74.5611L54.827 74.4447C54.8504 74.2353 54.827 74.0725 54.7101 73.9329C54.5931 73.7933 54.4294 73.7002 54.2188 73.6537C54.0083 73.6304 53.8446 73.6537 53.7276 73.7235C53.5873 73.8165 53.5171 73.9329 53.4703 74.119C53.4469 74.2353 53.4469 74.3517 53.4937 74.4447C53.5405 74.5378 53.5873 74.6309 53.6808 74.7007C53.7744 74.7937 53.9148 74.9101 54.1019 75.0497C54.3124 75.2358 54.4762 75.3754 54.5931 75.4917C54.7101 75.6081 54.7803 75.7244 54.8504 75.864C54.8972 76.0036 54.9206 76.1665 54.8972 76.3293C54.8504 76.6318 54.7101 76.8412 54.4762 76.9808C54.2422 77.1204 53.9849 77.1669 53.6574 77.1204C53.33 77.0739 53.096 76.9343 52.9323 76.7249Z" fill="#F1EBD7"/>
<path d="M55.6694 77.2136C55.5056 77.0042 55.4354 76.7483 55.5056 76.4691L55.529 76.3295C55.529 76.283 55.5524 76.283 55.5992 76.283L55.8565 76.3295C55.9033 76.3295 55.9033 76.3528 55.9033 76.3993L55.8799 76.5156C55.8565 76.725 55.8799 76.8879 55.9968 77.0275C56.1138 77.1671 56.2775 77.2602 56.4881 77.3067C56.6986 77.3532 56.8623 77.3067 57.0027 77.2136C57.143 77.1206 57.2366 76.981 57.26 76.7948C57.2834 76.6785 57.26 76.5622 57.2366 76.4691C57.1898 76.376 57.1197 76.283 57.0261 76.1899C56.9325 76.0968 56.7922 75.9805 56.605 75.8176C56.3945 75.6548 56.2542 75.5384 56.1372 75.4221C56.0202 75.3058 55.9501 75.1894 55.8799 75.0498C55.8331 74.9102 55.8097 74.7474 55.8331 74.5612C55.8799 74.282 56.0202 74.0726 56.2308 73.933C56.4413 73.7934 56.6986 73.7702 57.0261 73.8167C57.3536 73.8632 57.6109 74.0028 57.7746 74.2355C57.9384 74.4449 57.9852 74.7008 57.9384 75.0033L57.915 75.1196C57.915 75.1662 57.8916 75.1662 57.8448 75.1662L57.5875 75.1196C57.5407 75.1196 57.5407 75.0964 57.5407 75.0498L57.5641 74.9335C57.5875 74.7241 57.5641 74.5612 57.4471 74.4216C57.3302 74.282 57.1664 74.189 56.9559 74.1424C56.7454 74.1192 56.5816 74.1424 56.4647 74.2122C56.3243 74.3053 56.2542 74.4216 56.2074 74.6078C56.184 74.7241 56.184 74.8404 56.2308 74.9335C56.2775 75.0266 56.3243 75.1196 56.4179 75.1894C56.5115 75.2825 56.6518 75.3988 56.8389 75.5384C57.0495 75.7246 57.2132 75.8642 57.3302 75.9805C57.4471 76.0968 57.5173 76.2132 57.5875 76.3528C57.6343 76.4924 57.6577 76.6552 57.6343 76.8181C57.5875 77.1206 57.4471 77.33 57.2132 77.4696C56.9793 77.6092 56.722 77.6557 56.3945 77.6092C56.0904 77.5394 55.8331 77.423 55.6694 77.2136Z" fill="#F1EBD7"/>
<path d="M60.6982 74.7475C60.8386 74.9569 60.8854 75.2361 60.8386 75.5386C60.7918 75.841 60.6515 76.0737 60.4409 76.2366C60.2304 76.3994 59.9965 76.446 59.6924 76.3994L58.8971 76.2598C58.8737 76.2598 58.8737 76.2598 58.8737 76.2831L58.593 77.8652C58.593 77.9118 58.5696 77.9118 58.5228 77.9118L58.2421 77.8652C58.1953 77.8652 58.1953 77.842 58.1953 77.7954L58.8269 74.1891C58.8269 74.1426 58.8503 74.1426 58.8971 74.1426L60.0433 74.3287C60.324 74.3985 60.5579 74.5381 60.6982 74.7475ZM60.1836 75.9806C60.324 75.8643 60.4175 75.7014 60.4409 75.492C60.4877 75.2826 60.4409 75.0965 60.3708 74.9336C60.2772 74.794 60.1368 74.701 59.9497 74.6544L59.2012 74.5148C59.1778 74.5148 59.1778 74.5148 59.1778 74.5381L58.9439 75.9108C58.9439 75.9341 58.9439 75.9341 58.9672 75.9341L59.7158 76.0737C59.8795 76.1202 60.0433 76.0737 60.1836 75.9806Z" fill="#F1EBD7"/>
<path d="M61.47 78.3301C61.3297 78.2137 61.2127 78.0741 61.1426 77.888C61.0724 77.7019 61.0724 77.5157 61.0958 77.3063L61.3765 75.6777C61.4233 75.4683 61.4934 75.2821 61.6104 75.1425C61.7274 75.0029 61.8911 74.8866 62.0548 74.8168C62.242 74.747 62.4291 74.747 62.663 74.7703C62.8736 74.8168 63.0607 74.8866 63.2244 75.0029C63.3648 75.1193 63.4817 75.2821 63.5519 75.445C63.6221 75.6311 63.6221 75.8173 63.5987 76.0267L63.318 77.6553C63.2712 77.8647 63.201 78.0509 63.0841 78.1905C62.9671 78.3301 62.8034 78.4464 62.6396 78.4929C62.4525 78.5627 62.2654 78.5627 62.0315 78.5395C61.7975 78.5395 61.6104 78.4464 61.47 78.3301ZM62.6396 78.1207C62.8034 78.0043 62.897 77.8415 62.9203 77.6321L63.201 75.9569C63.2478 75.7242 63.201 75.5381 63.1075 75.3752C62.9905 75.2123 62.8268 75.1193 62.6162 75.0727C62.4057 75.0262 62.2186 75.0727 62.0548 75.1891C61.8911 75.3054 61.7975 75.4683 61.7741 75.7009L61.4934 77.3761C61.4467 77.5855 61.4934 77.7949 61.587 77.9345C61.704 78.0974 61.8443 78.1905 62.0782 78.237C62.2888 78.2835 62.4759 78.237 62.6396 78.1207Z" fill="#F1EBD7"/>
<path d="M65.7514 79.1217L65.3771 77.3534C65.3771 77.3534 65.3771 77.3301 65.3538 77.3301L64.6754 77.2138C64.652 77.2138 64.652 77.2138 64.652 77.2371L64.3713 78.8657C64.3713 78.9123 64.3479 78.9123 64.3011 78.9123L64.0204 78.8657C63.9736 78.8657 63.9736 78.8425 63.9736 78.7959L64.6052 75.1896C64.6052 75.1431 64.6286 75.1431 64.6754 75.1431L65.7982 75.3292C66.0789 75.3757 66.2894 75.5153 66.4298 75.7247C66.5701 75.9341 66.6169 76.2133 66.5701 76.5158C66.5233 76.7485 66.4298 76.9579 66.2894 77.0975C66.1491 77.2371 65.9619 77.3301 65.7514 77.3534C65.728 77.3534 65.728 77.3767 65.728 77.3767L66.1257 79.1449V79.1682C66.1257 79.1915 66.1023 79.2147 66.0789 79.1915L65.7982 79.1449C65.7748 79.1682 65.7514 79.1682 65.7514 79.1217ZM64.9327 75.5619L64.6988 76.8881C64.6988 76.9113 64.6988 76.9113 64.7222 76.9113L65.4473 77.0277C65.6345 77.0509 65.7982 77.0277 65.9386 76.9113C66.0789 76.795 66.1491 76.6554 66.1959 76.446C66.2426 76.2366 66.1959 76.0505 66.1023 75.9109C66.0087 75.7713 65.8684 75.6782 65.6812 75.6317L64.9561 75.5153C64.9327 75.5386 64.9327 75.5386 64.9327 75.5619Z" fill="#F1EBD7"/>
<path d="M69.4703 76.0501L69.4236 76.2828C69.4236 76.3293 69.4002 76.3293 69.3534 76.3293L68.4879 76.1897C68.4645 76.1897 68.4645 76.1897 68.4645 76.213L67.8797 79.5169C67.8797 79.5634 67.8563 79.5634 67.8095 79.5634L67.5288 79.5169C67.482 79.5169 67.482 79.4936 67.482 79.4471L68.0668 76.1432C68.0668 76.1199 68.0668 76.1199 68.0434 76.1199L67.2013 75.9803C67.1545 75.9803 67.1545 75.9571 67.1545 75.9105L67.2013 75.6779C67.2013 75.6313 67.2247 75.6313 67.2715 75.6313L69.4002 76.0036C69.4703 75.9803 69.4703 76.0036 69.4703 76.0501Z" fill="#F1EBD7"/>
<path d="M71.809 86.5668L71.6921 86.5435L41.9844 81.4248L42.0078 81.3085L49.2125 40.1265L49.3294 40.1497L79.0371 45.2917L79.0137 45.408L71.809 86.5668ZM42.2417 81.2387L71.6219 86.3109L78.7564 45.4778L49.3762 40.3824L42.2417 81.2387Z" fill="#5D4840"/>
<path d="M45.7916 73.8125L1.77679 66.2213C0.591914 66.0133 -0.174772 64.9041 0.0343241 63.7256L10.6982 2.61494C10.9073 1.4364 12.0225 0.673819 13.2074 0.881797L57.2222 8.47296C58.407 8.68094 59.1737 9.79015 58.9646 10.9687L48.3007 72.0793C48.0916 73.2579 46.9764 74.0204 45.7916 73.8125Z" fill="#5D4840"/>
<path d="M27.9132 46.9832C27.8784 46.9832 27.8435 46.9832 27.8087 46.9832C27.5299 46.9485 27.3208 46.6712 27.3905 46.3939L33.0012 14.2961C33.0361 14.0188 33.3149 13.8108 33.5937 13.8801C33.8724 13.9148 34.0815 14.1921 34.0118 14.4694L28.4011 46.5672C28.3662 46.7752 28.1571 46.9832 27.9132 46.9832Z" fill="#BB934C"/>
<path d="M27.9135 46.9832C27.8786 46.9832 27.8438 46.9832 27.8089 46.9832C18.6435 45.3888 12.4404 36.6884 14.0434 27.5374C14.8101 23.1005 17.2844 19.253 20.9785 16.6532C24.6725 14.0535 29.1681 13.083 33.5939 13.8455C33.8727 13.8802 34.0818 14.1575 34.0121 14.4348C33.9773 14.7121 33.6985 14.9201 33.4197 14.8508C29.2378 14.1228 25.0558 15.0587 21.5709 17.4851C18.1208 19.9115 15.8207 23.5511 15.0889 27.7107C13.5904 36.2724 19.3754 44.4529 27.9832 45.9434C28.262 45.978 28.4711 46.2553 28.4014 46.5326C28.3665 46.7753 28.1574 46.9832 27.9135 46.9832Z" fill="#BB934C"/>
<path d="M27.9138 46.9835C27.879 46.9835 27.8441 46.9835 27.8093 46.9835C22.1637 46.0129 18.8879 37.7978 20.4909 28.6468C21.2576 24.2446 23.0001 20.293 25.4395 17.52C27.9138 14.6777 30.8412 13.3605 33.5943 13.8457C33.8731 13.8804 34.0822 14.1577 34.0125 14.435C33.9776 14.7123 33.6988 14.9203 33.42 14.851C31.0154 14.435 28.4714 15.6136 26.2062 18.1786C23.9062 20.813 22.2334 24.5912 21.5016 28.7854C20.003 37.3472 22.8955 45.0423 27.9835 45.9089C28.2623 45.9436 28.4714 46.2209 28.4017 46.4982C28.3669 46.7755 28.1578 46.9835 27.9138 46.9835Z" fill="#BB934C"/>
<path d="M28.9238 47.0525C28.5405 47.0525 28.192 47.0178 27.8087 46.9485C27.5299 46.9138 27.3208 46.6365 27.3905 46.3592C27.4253 46.0819 27.7041 45.874 27.9829 45.9433C33.0361 46.8099 38.4029 40.5705 39.9014 31.9741C40.6332 27.7799 40.3544 23.6551 39.065 20.3967C37.8453 17.2078 35.824 15.2666 33.4194 14.8507C33.1406 14.816 32.9315 14.5387 33.0012 14.2614C33.0361 13.9841 33.3149 13.7761 33.5937 13.8455C36.3816 14.3307 38.6468 16.5145 40.0408 20.0501C41.3651 23.4817 41.6787 27.7799 40.912 32.1821C39.4483 40.7092 34.2209 47.0525 28.9238 47.0525Z" fill="#BB934C"/>
<path d="M44.2924 24.695C41.1211 24.695 36.6604 24.2443 31.9209 23.4124C26.345 22.4419 21.257 21.1247 18.3645 19.8768C18.0857 19.7728 17.9811 19.4609 18.0857 19.1836C18.1902 18.9063 18.5039 18.8023 18.7827 18.9063C21.6055 20.1195 26.5889 21.402 32.0951 22.3725C37.6013 23.3084 42.7242 23.7937 45.7909 23.5857C46.0697 23.5857 46.3137 23.7937 46.3485 24.071C46.3834 24.3483 46.1394 24.591 45.8606 24.6256C45.4076 24.695 44.8848 24.695 44.2924 24.695Z" fill="#BB934C"/>
<path d="M42.8291 41.853C42.7594 41.853 42.6897 41.853 42.62 41.8183C39.7972 40.6051 34.8137 39.3226 29.3075 38.352C23.8013 37.4161 18.6784 36.9308 15.6117 37.1388C15.3329 37.1735 15.089 36.9308 15.0541 36.6535C15.0193 36.3762 15.2632 36.1336 15.542 36.0989C18.6784 35.8909 23.9059 36.3762 29.4818 37.3121C35.0577 38.2827 40.1457 39.5999 43.0382 40.8477C43.317 40.9517 43.4215 41.2637 43.317 41.541C43.2473 41.749 43.0382 41.853 42.8291 41.853Z" fill="#BB934C"/>
<path d="M30.7363 47.1912C29.7954 47.1912 28.8196 47.1218 27.8438 46.9485C27.565 46.9138 27.3559 46.6365 27.4256 46.3592C27.4605 46.0819 27.7393 45.874 28.0181 45.9433C28.9241 46.1166 29.8302 46.1859 30.7363 46.1859C38.2986 46.1859 45.0246 40.7785 46.3488 33.118C47.8474 24.5563 42.0624 16.3759 33.4546 14.8854C33.1758 14.8507 32.9667 14.5734 33.0364 14.2961C33.0712 14.0188 33.35 13.8108 33.6288 13.8801C42.7942 15.4746 48.9974 24.175 47.3943 33.326C45.9306 41.4371 38.7865 47.1912 30.7363 47.1912Z" fill="#BB934C"/>
<path d="M46.8364 33.7073C46.8015 33.7073 46.7667 33.7073 46.7318 33.7073L14.4962 28.1266C14.2174 28.0919 14.0083 27.8146 14.078 27.5373C14.1128 27.26 14.3916 27.052 14.6704 27.1213L46.9409 32.7021C47.2197 32.7367 47.4288 33.014 47.3591 33.2913C47.3243 33.534 47.1152 33.7073 46.8364 33.7073Z" fill="#BB934C"/>
<path d="M13.5558 51.5243C13.7649 51.8362 13.8346 52.2522 13.7649 52.7028C13.6952 53.1534 13.4861 53.5001 13.1724 53.7427C12.8588 53.9853 12.5103 54.0547 12.0573 53.9853L10.8724 53.7774C10.8375 53.7774 10.8375 53.7774 10.8375 53.812L10.4193 56.1691C10.4193 56.2384 10.3845 56.2384 10.3148 56.2384L9.8966 56.1691C9.8269 56.1691 9.8269 56.1344 9.8269 56.0651L10.7678 50.6924C10.7678 50.623 10.8027 50.623 10.8724 50.623L12.58 50.9003C12.9982 51.0043 13.3118 51.2123 13.5558 51.5243ZM12.7891 53.3614C12.9982 53.1881 13.1376 52.9455 13.1724 52.6335C13.2421 52.3215 13.1724 52.0442 13.0679 51.8016C12.9285 51.5936 12.7194 51.455 12.4406 51.3856L11.3254 51.1776C11.2906 51.1776 11.2906 51.1777 11.2906 51.2123L10.9421 53.2574C10.9421 53.2921 10.9421 53.2921 10.9769 53.2921L12.0921 53.5001C12.3361 53.5694 12.58 53.5001 12.7891 53.3614Z" fill="#F1EBD7"/>
<path d="M16.5877 57.2785L16.4831 56.2386C16.4831 56.2386 16.4831 56.2039 16.4483 56.2039L14.5316 55.8919C14.4967 55.8919 14.4967 55.8919 14.4967 55.8919L14.0785 56.8278C14.0437 56.8625 14.0437 56.8972 13.974 56.8972L13.5558 56.8278C13.5209 56.8278 13.5209 56.8278 13.4861 56.7932C13.4861 56.7585 13.4861 56.7585 13.4861 56.7238L15.8907 51.5937C15.9255 51.5591 15.9255 51.5244 15.9952 51.5244L16.518 51.6284C16.5528 51.6284 16.5877 51.6631 16.5877 51.6977L17.1453 57.3131V57.3478C17.1453 57.3824 17.1104 57.4171 17.0407 57.3824L16.6225 57.3131C16.6225 57.3478 16.5877 57.3131 16.5877 57.2785ZM14.7407 55.4067C14.7407 55.4413 14.7407 55.4413 14.7407 55.4067L16.4134 55.7186H16.4483C16.4483 55.7186 16.4483 55.7186 16.4483 55.684L16.1695 52.391C16.1695 52.391 16.1695 52.391 16.1695 52.3563C16.1695 52.3563 16.1695 52.3563 16.1346 52.3563L14.7407 55.4067Z" fill="#F1EBD7"/>
<path d="M18.2257 57.2783C17.9818 56.9663 17.8772 56.585 17.9818 56.1691L18.0166 55.9611C18.0166 55.8918 18.0515 55.8918 18.1212 55.8918L18.5045 55.9611C18.5742 55.9611 18.5742 55.9958 18.5742 56.0651L18.5394 56.2384C18.5045 56.5504 18.5394 56.793 18.7136 57.001C18.8879 57.209 19.1318 57.3476 19.4454 57.4169C19.7591 57.4863 20.003 57.4169 20.2121 57.2783C20.4212 57.1396 20.5606 56.9317 20.5955 56.6544C20.6303 56.481 20.5955 56.3077 20.5606 56.1691C20.4909 56.0304 20.3864 55.8918 20.247 55.7531C20.1076 55.6145 19.8985 55.4412 19.6197 55.1985C19.3061 54.9559 19.097 54.7826 18.9227 54.6092C18.7485 54.4359 18.6439 54.2626 18.5394 54.0546C18.4697 53.8467 18.4348 53.604 18.4697 53.3267C18.5394 52.9108 18.7485 52.5988 19.0621 52.3908C19.3758 52.1828 19.7591 52.1482 20.247 52.2175C20.7349 52.2868 21.1182 52.4948 21.3622 52.8414C21.6061 53.1534 21.6758 53.5347 21.6061 53.9853L21.5713 54.1586C21.5713 54.228 21.5364 54.228 21.4667 54.228L21.0834 54.1586C21.0137 54.1586 21.0137 54.124 21.0137 54.0546L21.0485 53.8813C21.0834 53.5694 21.0485 53.3267 20.8743 53.1187C20.7 52.9108 20.4561 52.7721 20.1424 52.7028C19.8288 52.6681 19.5848 52.7028 19.4106 52.8068C19.2015 52.9454 19.097 53.1187 19.0273 53.396C18.9924 53.5694 18.9924 53.7427 19.0621 53.8813C19.1318 54.02 19.2015 54.1586 19.3409 54.2626C19.4803 54.4013 19.6894 54.5746 19.9682 54.7826C20.2818 55.0599 20.5258 55.2678 20.7 55.4412C20.8743 55.6145 20.9788 55.7878 21.0834 55.9958C21.1531 56.2037 21.1879 56.4464 21.1531 56.689C21.0834 57.1396 20.8743 57.4516 20.5258 57.6596C20.1773 57.8676 19.7939 57.9369 19.3061 57.8676C18.8182 57.7982 18.4697 57.5903 18.2257 57.2783Z" fill="#F1EBD7"/>
<path d="M22.3026 58.0063C22.0587 57.6943 21.9541 57.3131 22.0587 56.8971L22.0935 56.6891C22.0935 56.6198 22.1284 56.6198 22.1981 56.6198L22.5814 56.6891C22.6511 56.6891 22.6511 56.7238 22.6511 56.7931L22.6163 56.9664C22.5814 57.2784 22.6163 57.521 22.7905 57.729C22.9648 57.937 23.2087 58.0756 23.5224 58.145C23.836 58.2143 24.0799 58.145 24.289 58.0063C24.4981 57.8677 24.6375 57.6597 24.6724 57.3824C24.7072 57.2091 24.6724 57.0357 24.6375 56.8971C24.5678 56.7584 24.4633 56.6198 24.3239 56.4811C24.1845 56.3425 23.9754 56.1692 23.6966 55.9265C23.383 55.6839 23.1739 55.5106 22.9996 55.3373C22.8254 55.164 22.7208 54.9906 22.6163 54.7827C22.5466 54.5747 22.5117 54.332 22.5466 54.0547C22.6163 53.6388 22.8254 53.3268 23.139 53.1188C23.4527 52.9109 23.836 52.8762 24.3239 52.9455C24.8118 53.0149 25.1951 53.2228 25.4391 53.5695C25.683 53.8814 25.7527 54.2627 25.683 54.7133L25.6482 54.8867C25.6482 54.956 25.6133 54.956 25.5436 54.956L25.1603 54.8867C25.0906 54.8867 25.0906 54.852 25.0906 54.7827L25.1254 54.6094C25.1603 54.2974 25.1254 54.0547 24.9512 53.8468C24.7769 53.6388 24.533 53.5001 24.2193 53.4308C23.9057 53.3961 23.6618 53.4308 23.4875 53.5348C23.2784 53.6735 23.1739 53.8468 23.1042 54.1241C23.0693 54.2974 23.0693 54.4707 23.139 54.6094C23.2087 54.748 23.2784 54.8867 23.4178 54.9906C23.5572 55.1293 23.7663 55.3026 24.0451 55.5106C24.3587 55.7879 24.6027 55.9959 24.7769 56.1692C24.9512 56.3425 25.0557 56.5158 25.1603 56.7238C25.23 56.9318 25.2648 57.1744 25.23 57.417C25.1603 57.8677 24.9512 58.1796 24.6027 58.3876C24.2542 58.5956 23.8708 58.6649 23.383 58.5956C22.9299 58.4916 22.5466 58.3183 22.3026 58.0063Z" fill="#F1EBD7"/>
<path d="M29.796 54.3319C30.0051 54.6439 30.0748 55.0598 30.0051 55.5104C29.9354 55.9611 29.7263 56.3077 29.4127 56.5503C29.099 56.793 28.7505 56.8623 28.2975 56.793L27.1126 56.585C27.0778 56.585 27.0778 56.585 27.0778 56.6196L26.6596 58.9767C26.6596 59.046 26.6247 59.046 26.555 59.046L26.1368 58.9767C26.0671 58.9767 26.0671 58.9421 26.0671 58.8727L27.0081 53.5C27.0081 53.4307 27.0429 53.4307 27.1126 53.4307L28.8202 53.708C29.2384 53.812 29.5869 54.0199 29.796 54.3319ZM29.0293 56.169C29.2384 55.9957 29.3778 55.7531 29.4127 55.4411C29.4824 55.1291 29.4127 54.8518 29.3081 54.6092C29.1687 54.4012 28.9596 54.2626 28.6808 54.1932L27.5657 53.9853C27.5308 53.9853 27.5308 53.9853 27.5308 54.0199L27.1823 56.065C27.1823 56.0997 27.1823 56.0997 27.2172 56.0997L28.3323 56.3077C28.5763 56.377 28.8202 56.3077 29.0293 56.169Z" fill="#F1EBD7"/>
<path d="M30.9454 59.6699C30.7363 59.4965 30.562 59.2886 30.4575 59.0113C30.3529 58.734 30.3529 58.4567 30.3878 58.1447L30.806 55.7183C30.8757 55.4063 30.9802 55.129 31.1545 54.921C31.3287 54.7131 31.5727 54.5398 31.8166 54.4358C32.0954 54.3318 32.3742 54.3318 32.7227 54.3664C33.0363 54.4358 33.3151 54.5397 33.5591 54.7131C33.7682 54.8864 33.9424 55.129 34.047 55.3717C34.1515 55.649 34.1515 55.9263 34.1167 56.2382L33.6985 58.6646C33.6288 58.9766 33.5242 59.2539 33.35 59.4619C33.1757 59.6699 32.9318 59.8432 32.6878 59.9125C32.4091 60.0165 32.1303 60.0165 31.7818 59.9818C31.4333 59.9818 31.1545 59.8432 30.9454 59.6699ZM32.6878 59.3579C32.9318 59.1846 33.0712 58.9419 33.106 58.63L33.5242 56.1342C33.5939 55.7876 33.5242 55.5103 33.3848 55.2677C33.2106 55.025 32.9666 54.8864 32.653 54.8171C32.3394 54.7477 32.0606 54.8171 31.8166 54.9904C31.5727 55.1637 31.4333 55.4063 31.3984 55.7529L30.9802 58.2487C30.9105 58.5606 30.9802 58.8726 31.1196 59.0806C31.2939 59.3232 31.503 59.4619 31.8515 59.5312C32.1651 59.6005 32.4439 59.5312 32.6878 59.3579Z" fill="#F1EBD7"/>
<path d="M37.3231 60.8487L36.7655 58.2144C36.7655 58.2144 36.7655 58.1797 36.7307 58.1797L35.72 58.0064C35.6852 58.0064 35.6852 58.0064 35.6852 58.041L35.267 60.4674C35.267 60.5368 35.2322 60.5368 35.1625 60.5368L34.7443 60.4674C34.6746 60.4674 34.6746 60.4328 34.6746 60.3635L35.6155 54.9907C35.6155 54.9214 35.6503 54.9214 35.72 54.9214L37.3928 55.1987C37.811 55.268 38.1246 55.476 38.3337 55.788C38.5428 56.0999 38.6125 56.5159 38.5428 56.9665C38.4731 57.3131 38.3337 57.6251 38.1246 57.8331C37.9156 58.041 37.6368 58.1797 37.3231 58.2144C37.2883 58.2144 37.2883 58.249 37.2883 58.249L37.8807 60.8834V60.9181C37.8807 60.9527 37.8459 60.9874 37.811 60.9527L37.3928 60.8834C37.358 60.9181 37.3231 60.9181 37.3231 60.8487ZM36.1034 55.5453L35.7549 57.5211C35.7549 57.5558 35.7549 57.5558 35.7897 57.5558L36.8701 57.7291C37.1489 57.7637 37.3928 57.7291 37.6019 57.5558C37.811 57.3825 37.9156 57.1745 37.9853 56.8625C38.055 56.5505 37.9853 56.2732 37.8459 56.0653C37.7065 55.8573 37.4974 55.7186 37.2186 55.6493L36.1382 55.476C36.1034 55.5107 36.1034 55.5107 36.1034 55.5453Z" fill="#F1EBD7"/>
<path d="M42.8642 56.2729L42.7945 56.6195C42.7945 56.6888 42.7596 56.6888 42.6899 56.6888L41.4005 56.4808C41.3656 56.4808 41.3656 56.4808 41.3656 56.5155L40.4944 61.4376C40.4944 61.5069 40.4595 61.5069 40.3898 61.5069L39.9717 61.4376C39.902 61.4376 39.902 61.403 39.902 61.3336L40.7732 56.4115C40.7732 56.3768 40.7732 56.3768 40.7383 56.3768L39.4838 56.1689C39.4141 56.1689 39.4141 56.1342 39.4141 56.0649L39.4838 55.7183C39.4838 55.6489 39.5186 55.6489 39.5883 55.6489L42.7596 56.2035C42.8642 56.1689 42.8642 56.2035 42.8642 56.2729Z" fill="#F1EBD7"/>
<path d="M46.3492 71.9405L46.175 71.9058L1.91626 64.28L1.95111 64.1067L12.6847 2.75342L12.859 2.78808L57.1177 10.4486L57.0828 10.6219L46.3492 71.9405ZM2.2996 64.0027L46.0704 71.5592L56.6995 10.7259L12.9287 3.13471L2.2996 64.0027Z" fill="#5D4840"/>
</svg>
