<svg width="97" height="111" viewBox="0 0 97 111" fill="none" xmlns="http://www.w3.org/2000/svg">
<mask id="mask0_1151_22561" style="mask-type:alpha" maskUnits="userSpaceOnUse" x="0" y="0" width="97" height="111">
<rect width="97" height="111" fill="#D9D9D9"/>
</mask>
<g mask="url(#mask0_1151_22561)">
<path fill-rule="evenodd" clip-rule="evenodd" d="M77.0893 53.8822C75.2299 53.651 74.0677 54.6531 72.7506 55.6552C70.9687 57.0427 69.9615 58.8157 69.2642 60.8199C68.4894 63.4408 68.7993 65.2137 71.3561 66.9096C73.7578 68.5284 76.392 69.145 79.1811 68.9909C80.1883 68.9909 81.0406 68.5284 81.8153 67.9888C82.8225 67.295 83.5973 66.2929 84.0621 65.1366C84.527 64.0574 84.7594 62.9012 83.9072 61.6678C84.2171 61.5136 84.527 61.3595 84.7594 61.3595C86.154 61.4366 87.5485 61.5136 89.0981 61.6678C89.5629 62.9783 89.4855 64.4429 89.7954 65.9075C90.1053 67.295 90.1827 68.6825 90.3377 70.0701C90.4926 71.5347 90.4152 72.9993 90.6476 74.4639C90.88 75.8514 90.9575 77.2389 90.9575 78.6265C87.9359 79.3202 85.0693 80.014 82.2027 80.7078C81.6604 80.8619 81.1955 81.0161 80.7307 81.1703C80.5757 81.2473 80.4208 81.3244 80.2658 81.4015C78.3289 81.6328 76.547 82.4807 74.6875 82.9432C73.293 83.2515 71.9759 83.4828 70.5813 83.9453C68.0246 84.7162 65.2354 85.3328 62.9112 85.5641C62.3688 85.6412 61.8265 85.7183 61.3616 85.7954C59.5022 86.2579 57.6428 86.4891 55.7059 86.5662C55.6284 86.2579 55.4735 85.9495 55.4735 85.6412C55.4735 82.2494 55.1636 78.8577 54.8537 75.466C54.7762 74.6951 54.7762 73.9243 54.7762 73.2305C54.9311 73.0764 55.0086 72.9993 55.0861 72.9993C55.7834 72.6909 56.5581 72.5368 57.1779 72.1513C58.1851 71.4576 59.1148 70.6096 59.8896 69.6846C60.5869 68.9138 61.0517 67.9117 61.4391 66.9867C61.8265 66.2158 61.9815 65.2908 62.2139 64.5199C62.7562 62.9782 62.4463 61.5136 61.9815 60.049C61.1292 57.1969 59.6572 54.6531 57.1005 52.9572C57.023 52.8801 56.9455 52.8031 56.868 52.726C56.868 52.6489 56.868 52.6489 56.7906 52.4176C57.4104 51.801 58.0302 50.953 58.8824 50.4905C60.277 49.7968 60.9743 48.4863 61.9815 47.4071C62.6787 46.5592 62.2914 45.2488 61.2842 44.4779C60.7418 44.0925 60.0446 43.7841 59.5022 43.3987C58.2626 42.6279 57.023 41.857 55.7834 41.0091C54.8537 40.3153 53.8465 39.6216 52.7618 39.159C52.2195 38.9278 51.7546 38.5424 51.3672 38.234C51.1348 36.8465 50.9024 35.5361 50.67 34.2256C50.515 33.4548 50.2051 32.761 50.0501 32.0672C49.8177 31.2193 49.6628 30.3714 49.5078 29.6005C49.8952 28.9839 50.36 28.8297 50.9024 28.7526C53.0717 28.5984 55.1636 27.7505 57.2554 27.3651C60.7418 26.7484 64.1508 25.9776 67.6372 25.2838C69.1093 24.9754 70.5038 24.59 71.8984 24.3588C74.4551 23.8963 77.0893 23.2796 79.7235 23.0483C80.8081 22.9712 81.8153 22.8171 82.9 22.74C83.2099 22.74 83.5198 22.74 83.8297 22.8171C84.4495 23.9733 85.0693 25.0525 85.3792 26.363C86.2315 29.5235 86.8513 33.9173 86.9287 37.6944C86.154 38.0028 85.3017 37.6174 84.527 37.5403C82.9775 37.3861 81.5054 37.0778 80.0334 37.5403C79.8009 37.6174 79.4136 37.5403 79.1811 37.6174C78.2514 37.6944 77.864 37.9257 77.7091 38.7736C77.5541 39.3132 77.4767 39.9299 77.4767 40.4695C77.3217 43.9383 77.2442 47.33 77.4767 50.7989C77.4767 51.3384 77.7091 51.9551 77.6316 52.4947C77.4767 52.726 77.2442 53.1885 77.0893 53.8822Z" fill="#FEA168"/>
<path fill-rule="evenodd" clip-rule="evenodd" d="M41.3732 61.5137C41.6831 63.2096 42.0705 64.7513 42.2255 66.2159C42.4579 68.9909 43.0002 71.766 43.1552 74.541C43.3876 78.5494 43.3101 82.4808 43.3876 86.4892C43.3876 87.3371 43.4651 88.1079 43.5425 89.033C42.5354 89.4955 41.6831 90.1892 40.4435 89.958C40.0561 89.8809 39.5138 90.1121 39.0489 90.1892C37.3445 90.5747 35.7175 90.4976 34.013 90.3434C33.3932 90.2663 32.6959 90.1892 32.0761 90.2663C31.4563 90.2663 31.0689 90.1121 30.6815 89.6496C29.8293 88.6475 29.2095 87.5684 29.0545 86.2579C28.977 85.1787 28.5897 84.0995 28.4347 83.0203C28.1248 80.5536 27.5825 78.164 27.35 75.7744C27.1951 74.2327 27.0401 72.6139 26.6528 71.1493C26.4978 70.4555 26.6528 69.6847 26.4978 68.9138C26.1879 67.3721 26.1104 65.7534 25.9555 64.2117C25.7231 62.4387 25.4906 60.7428 25.2582 58.9699C25.1807 58.2761 25.1807 57.5824 25.1032 56.8886C24.9483 55.5782 24.7933 54.1906 24.4834 52.8802C23.4762 48.7176 22.9339 44.555 23.2438 40.3154C23.3213 39.4674 23.1663 38.6966 23.0889 37.8487C23.0889 37.4632 23.0889 37.0778 23.0889 36.6924C24.5609 36.0757 25.878 35.459 27.2726 35.0736C30.1392 34.1486 33.0833 33.2236 36.0274 32.3756C37.0346 32.0673 37.5769 32.3756 38.0417 33.3007C38.1192 33.3777 38.1192 33.5319 38.1192 33.609C38.3516 34.7653 38.6616 35.9215 38.8165 37.0778C38.9715 38.8508 39.0489 40.5466 38.4291 42.2425C37.7318 44.0925 37.7318 46.0196 37.267 47.9468C36.9571 49.3343 36.6472 50.7989 36.2598 52.1864C35.485 55.1927 34.7103 58.199 33.9355 61.2054C33.7031 62.2845 33.4707 63.3637 33.2382 64.4429C33.1608 64.7513 33.2382 65.0596 33.3157 65.2908C33.3932 65.6763 33.7031 65.9075 34.0905 65.8304C34.7878 65.6763 35.4076 65.5221 36.0274 65.0596C37.5769 63.8262 39.4363 62.747 41.3732 61.5137Z" fill="#FEA168"/>
<path fill-rule="evenodd" clip-rule="evenodd" d="M10.4598 32.1443C11.2345 31.9902 12.1642 32.1443 12.939 32.3756C14.0237 32.6839 15.1083 32.9923 16.1155 33.3006C16.6579 33.4548 17.2002 33.686 17.5876 34.1485C18.2074 34.7652 19.0596 34.9965 19.9119 35.3048C20.2218 35.3819 20.4542 35.459 20.8416 35.6131C21.074 36.4611 21.1515 37.309 21.1515 38.1569C21.1515 39.6216 21.2289 41.0862 21.3064 42.5508C21.3064 43.0904 21.3064 43.63 21.3064 44.0925C21.3839 45.48 21.3839 46.8675 21.5388 48.2551C21.6163 48.8717 21.7713 49.4884 21.9262 50.1051C22.4686 52.1093 22.2361 54.2677 22.8559 56.349C23.2433 57.6594 23.2433 58.9698 23.3208 60.3574C23.4758 63.7491 24.0181 67.0637 24.5604 70.3784C24.7154 71.3805 24.7154 72.4597 24.8703 73.5389C24.9478 74.0785 25.1802 74.618 25.2577 75.2347C25.6451 78.241 26.0325 81.2473 26.5748 84.2537C26.7297 84.9474 26.6523 85.7183 26.8847 86.3349C27.5045 87.7225 27.9694 89.3412 29.2865 90.3433C29.4414 90.4204 29.5189 90.5746 29.7513 90.8829C29.209 90.8059 28.7441 90.8829 28.4342 90.7288C27.0396 89.9579 25.4901 89.9579 24.0181 89.8808C23.1658 89.8038 22.3911 89.6496 21.6163 89.3413C20.0668 88.7246 18.4398 88.185 16.8128 87.6454C16.1155 87.4141 15.6507 87.1058 15.5732 86.3349C15.4957 85.9495 15.3408 85.5641 15.2633 85.1787C14.9534 83.2516 14.7984 81.2473 14.2561 79.3202C14.0237 78.3181 13.7912 77.2389 13.6363 76.2368C13.1714 72.6138 12.7841 69.0679 12.4742 65.445C12.3192 64.1345 12.3967 62.747 12.3192 61.4366C12.3192 60.5886 12.2417 59.6636 12.1642 58.8157C11.9318 57.0427 11.7769 55.3469 11.467 53.5739C11.0796 51.4926 10.7697 49.4113 10.3823 47.4071C9.99492 45.4029 9.83997 43.3987 9.68501 41.3174C9.45259 38.3882 9.99492 35.459 10.1499 32.6068C10.2273 32.4527 10.3823 32.2985 10.4598 32.1443Z" fill="#FEA168"/>
<path fill-rule="evenodd" clip-rule="evenodd" d="M102.656 75.8515C101.339 76.9307 100.022 77.6244 98.3949 77.7786C97.1553 77.9328 95.9156 78.3953 94.676 78.7036C94.2112 78.7807 93.7463 78.8578 93.3589 78.8578C92.8166 78.3182 92.7391 77.8557 92.7391 77.239C92.7391 76.3911 92.7391 75.6202 92.6617 74.7723C92.5842 73.9244 92.5842 73.1535 92.5067 72.3056C92.4292 71.6889 92.3518 71.0722 92.2743 70.3785C92.1193 69.2222 92.0418 68.0659 91.8869 66.9096C91.577 65.445 91.4995 63.9033 91.422 62.3616C91.2671 60.5116 91.1896 58.6616 91.0347 56.7344C90.7248 52.649 90.4148 48.5635 90.0275 44.478C89.95 43.63 89.7176 42.7821 89.5626 41.9342C89.3302 40.855 89.1752 39.7758 88.9428 38.6966C88.5554 36.9237 88.4005 35.1507 88.168 33.3007C88.0131 32.1444 87.9356 30.9881 87.7807 29.8319C87.3158 27.211 86.3086 24.8213 85.3789 22.2005C85.9212 22.0463 86.4636 21.815 87.0834 21.738C90.0275 21.4296 92.8941 21.1213 95.8382 21.0442C96.458 21.6609 96.6904 22.3546 96.8454 23.1255C97.3877 25.9005 97.7751 28.6756 98.1625 31.4506C98.2399 32.0673 98.4724 32.684 98.5498 33.3007C99.0922 36.307 99.4795 39.3133 99.557 42.3196C99.557 42.4738 99.557 42.705 99.557 42.8592C99.8669 45.5571 100.099 48.3322 100.409 51.0302C100.642 53.2656 101.107 55.5011 101.029 57.8136C101.029 58.8157 101.184 59.7408 101.107 60.7429C101.029 61.5908 101.494 62.5158 101.649 63.4408C101.804 64.6742 101.881 65.9075 102.036 67.0638C102.114 67.9117 102.191 68.6826 102.346 69.5305C102.346 69.6847 102.424 69.7618 102.424 69.9159C102.579 71.3035 102.734 72.691 102.811 74.0785C102.656 74.8494 102.656 75.3119 102.656 75.8515Z" fill="#FAE540"/>
<path fill-rule="evenodd" clip-rule="evenodd" d="M39.126 31.7589C41.9926 31.0651 44.7043 30.2172 47.5709 29.6776C47.7258 30.063 47.9582 30.4485 48.0357 30.8339C48.4231 32.9923 49.1204 35.1506 49.3528 37.309C49.5078 39.082 49.9726 40.8549 50.2051 42.6279C50.515 45.0946 50.7474 47.4842 51.0573 49.9509C51.2122 51.0301 51.2897 52.1864 51.4447 53.2656C51.5221 53.9593 51.4447 54.6531 51.4447 55.3468C51.4447 56.6573 51.6771 58.0448 51.832 59.3553C51.832 59.5865 51.987 59.8178 52.0645 60.049C52.2194 61.8991 52.2969 63.7491 52.3744 65.5991C52.3744 65.6762 52.2969 65.8304 52.3744 65.9845C52.5293 66.7554 52.6843 67.4492 52.7618 68.22C52.8392 68.9909 52.6843 69.7617 52.6843 70.4555C52.6843 71.3805 52.8392 72.3055 52.9167 73.2305C53.1491 76.6222 53.3816 80.014 53.5365 83.4057C53.614 84.8703 53.8464 86.3349 53.614 87.8766C53.2266 88.0308 52.7618 88.2621 52.2969 88.3391C51.1348 88.6475 49.8951 88.8787 48.8105 89.4954C48.2681 89.8037 47.6483 89.6496 47.106 89.5725C45.0916 89.3412 45.0142 89.3412 44.9367 87.337C44.7817 85.3328 44.8592 83.2515 44.8592 81.1703C44.8592 80.3223 44.8592 79.5515 44.8592 78.7035C44.8592 77.7785 44.8592 76.8535 44.7817 75.9285C44.7043 73.9243 44.5493 71.843 44.4718 69.8388C44.4718 69.6846 44.4718 69.4534 44.3943 69.2992C43.9295 67.4492 44.007 65.5991 43.6971 63.7491C43.3872 61.822 43.0773 59.8178 42.8448 57.8136C42.6899 56.426 42.5349 55.0385 42.3025 53.651C41.9926 51.6468 41.6827 49.6426 41.4503 47.5613C41.3728 47.1759 41.3728 46.7134 41.3728 46.3279C41.1404 44.4008 40.9079 42.4737 40.6755 40.6237C40.4431 38.8507 40.1332 37.0778 39.8233 35.2277C39.5134 34.2256 39.2809 33.0693 39.126 31.7589Z" fill="#FAE540"/>
<path fill-rule="evenodd" clip-rule="evenodd" d="M13.7138 86.1037C12.2418 85.6412 10.8472 84.8703 9.68507 83.8682C8.75536 83.0974 8.21303 81.9411 7.9806 80.7077C7.74817 79.5515 7.59322 78.3952 7.43827 77.2389C7.43827 77.1618 7.43827 77.0848 7.43827 77.0848C7.05089 75.5431 6.89594 74.0014 6.58603 72.4597C6.12118 70.3013 5.96623 68.0658 5.7338 65.8304C5.34642 62.5928 4.95904 59.3553 4.57166 56.1177C4.57166 55.9635 4.49418 55.7323 4.4167 55.5781C3.87437 54.576 3.87437 53.4197 3.71942 52.3405C3.56447 50.5676 3.09961 48.7946 3.02214 47.0217C2.94466 45.1717 2.40233 43.4758 2.4798 41.6258C2.55728 40.5466 2.24738 39.4674 2.09242 38.3882C1.70504 36.4611 1.62757 34.4569 1.39514 32.5298C1.31766 31.7589 1.47262 30.9881 1.55009 30.2943C1.55009 30.063 1.70504 29.8318 1.78252 29.6776C3.02214 29.6776 5.81127 30.5255 9.22022 31.7589C9.06527 33.2235 8.91031 34.7652 8.67789 36.2298C8.05808 39.6216 8.13555 42.9362 8.75536 46.3279C9.2977 49.5655 9.6076 52.803 10.2274 56.0406C10.6148 57.9677 10.5373 59.8949 10.7697 61.7449C11.0022 64.2116 11.0022 66.7554 11.1571 69.2992C11.1571 69.9159 11.2346 70.4555 11.3121 71.0721C11.5445 73.0764 11.8544 75.0035 12.1643 76.9306C12.3193 77.9327 12.6292 78.9348 12.8616 80.014C13.094 81.0161 13.1715 82.0953 13.4039 83.0974C13.5589 83.9453 13.7138 84.7932 13.8688 85.6412C13.7913 85.7183 13.7138 85.8724 13.7138 86.1037Z" fill="#FEA168"/>
<path fill-rule="evenodd" clip-rule="evenodd" d="M81.1959 18.8858C81.9706 19.2712 82.7454 19.8879 83.4427 20.8129C82.9778 20.9671 82.5905 21.2754 82.2031 21.2754C80.4211 21.2754 78.7167 21.5837 76.9347 21.8921C75.6951 22.1233 74.378 22.2004 73.1384 22.4317C70.9691 22.8942 68.7222 23.1254 66.6304 23.665C64.3836 24.2046 61.9818 24.4359 59.735 25.0526C58.108 25.5151 56.481 25.3609 54.9315 25.9005C53.4595 26.5172 51.9099 26.8255 50.3604 27.288C49.973 27.3651 49.5857 27.5193 49.1208 27.5964C48.501 27.2109 47.9587 26.9026 47.5713 26.2859C48.346 25.5922 49.0433 24.8984 49.8181 24.2046C50.6703 23.4338 50.8253 22.5088 50.4379 21.5067C50.2055 20.9671 49.973 20.4275 49.7406 19.8879C49.5082 19.4254 49.1983 19.04 48.8884 18.4233C51.8325 17.8066 54.6991 17.1899 57.5657 16.5732C58.108 16.4962 58.5729 16.342 59.1152 16.1107C61.2071 15.3399 63.3764 14.7232 65.6232 14.8003C66.1655 14.8003 66.6304 14.7232 67.2502 14.6461C67.5601 15.1857 67.87 15.7253 68.1024 16.342C68.4898 17.4212 69.1871 18.2691 70.1943 18.8858C70.8916 19.2712 71.4339 19.7337 72.1312 20.1191C73.1384 20.7358 74.1456 21.0442 75.3077 20.5816C76.005 20.3504 76.7798 20.3504 77.5545 20.1191C78.7167 19.8108 79.8788 19.3483 81.1959 18.8858Z" fill="#FEA168"/>
<path fill-rule="evenodd" clip-rule="evenodd" d="M73.9902 18.5774C73.8352 18.7316 73.7577 18.8858 73.6803 18.8858C71.8208 18.7316 69.3416 17.1128 69.4191 14.569C69.4191 13.5669 69.1867 12.6419 68.6443 11.7169C68.0245 10.5606 67.7146 9.32727 67.2498 8.09391C67.0948 7.70849 66.9399 7.32307 66.8624 6.93764C66.63 6.08971 66.0101 5.6272 65.1579 5.6272C63.8408 5.6272 62.6012 5.6272 61.2841 5.93554C59.5796 6.39805 57.8752 6.6293 56.1707 7.01473C55.3184 7.1689 54.3887 7.32307 53.614 7.70849C51.5996 8.71059 49.3528 9.01893 47.2609 9.71269C46.951 9.78978 46.5637 9.94395 46.2538 10.0981C46.0213 10.1752 45.7889 10.4065 45.7889 10.5606C45.5565 11.7169 44.7817 12.7961 45.2466 14.1065C45.7889 15.5711 46.0213 17.1899 46.4087 18.7316C47.8033 19.117 48.4231 20.2733 49.1978 21.1212C49.1204 21.815 48.733 21.9692 48.2681 22.0463C46.951 21.1983 45.6339 20.3504 44.3169 19.4254C43.697 19.04 43.3871 18.4233 43.2322 17.6524C43.0772 16.7274 42.7673 15.8795 42.6124 14.9545C42.38 13.7211 42.225 12.5648 42.07 11.3315C41.9926 10.7919 41.9926 10.2523 41.8376 9.78978C41.6052 8.78768 41.9926 8.01683 42.7673 7.47723C43.6196 6.86056 44.5493 6.32096 45.479 5.93554C47.1835 5.16469 48.8879 4.39384 50.7474 3.93133C52.5293 3.623 54.2338 3.0834 55.9383 2.62089C57.7977 2.15838 59.7346 1.77296 61.594 1.46462C63.1435 1.15628 64.7705 1.00211 66.3975 1.61879C66.6299 1.92713 66.8624 2.31255 67.1723 2.62089C68.3344 3.623 69.1867 4.85635 69.9614 6.16679C70.8137 7.55432 71.2785 9.01893 71.7434 10.4835C71.8208 10.7919 71.8983 11.1773 71.9758 11.4856C72.2082 12.9503 72.3632 14.4149 72.5181 15.8024C72.5956 16.4962 72.828 17.1899 73.2929 17.7295C73.6028 18.0379 73.7577 18.2691 73.9902 18.5774Z" fill="white"/>
<path fill-rule="evenodd" clip-rule="evenodd" d="M20.6866 20.6588C21.6164 19.8879 22.4686 19.3483 23.5533 19.1942C24.7154 19.04 25.8001 18.5775 26.8847 18.1921C27.2721 18.0379 27.6595 17.9608 28.0469 17.8837C29.209 17.6525 30.2162 17.9608 31.2234 18.5004C33.0828 19.3483 34.9422 20.1192 36.8791 20.89C38.1962 21.4296 39.3584 22.2005 40.5205 22.9713C42.6124 24.4359 44.3943 26.1318 46.4087 27.5964C46.5636 27.6735 46.5636 27.9047 46.7961 28.136C46.4862 28.2902 46.1763 28.5214 45.8664 28.5214C44.6267 28.6756 43.3871 28.6756 42.225 28.9068C41.0628 29.061 39.9782 29.4464 38.816 29.6777C38.5061 29.7548 38.2737 29.8319 37.9638 29.9089C37.2665 30.0631 36.7242 29.986 36.2593 29.4464C35.8719 28.9839 35.4071 28.6756 34.8648 28.3672C33.3152 27.3651 31.8432 26.4401 30.2937 25.438C30.1387 25.3609 29.9838 25.2068 29.8288 25.1297C27.8144 24.3588 26.11 23.1255 24.2505 22.1234C23.3208 21.6609 22.3911 21.1213 21.3839 20.8129C21.1515 20.89 20.9965 20.8129 20.6866 20.6588Z" fill="#FAE540"/>
<path fill-rule="evenodd" clip-rule="evenodd" d="M94.5989 20.1191C91.3449 19.965 88.0909 20.5046 84.8369 20.89C84.6045 20.5046 84.372 20.1962 84.1396 19.8108C83.5198 18.9629 82.8225 18.192 81.9703 17.5753C80.4982 16.4961 79.1037 15.3399 77.7091 14.1836C76.6244 13.3357 75.5398 12.5648 74.1452 12.1794C73.8353 10.946 73.4479 9.71268 73.0605 8.32515C73.9903 8.17098 74.8425 8.32515 75.7722 8.24807C76.7794 8.17098 77.7866 8.17098 78.7163 8.01681C79.2586 7.93973 79.7235 8.01681 80.2658 8.17098C82.5126 8.86475 84.527 10.0981 86.3089 11.6398C87.0837 12.2565 87.8585 12.9502 88.5558 13.644C89.1756 14.2607 89.7954 14.8774 90.3377 15.5711C91.035 16.5732 91.9647 17.4212 92.9719 18.1149C93.5917 18.5774 94.2115 19.1941 94.8313 19.7337C94.6764 19.8108 94.5989 19.965 94.5989 20.1191Z" fill="#FAE540"/>
<path fill-rule="evenodd" clip-rule="evenodd" d="M12.3192 30.5256C12.8615 30.1402 13.1715 29.8319 13.5588 29.6777C14.4885 29.2152 15.4183 28.6756 16.348 28.2902C17.7425 27.6735 19.1371 27.0568 20.5317 26.5172C20.9965 26.3631 21.3839 26.2089 21.8488 25.9776C22.5461 25.5922 23.3208 25.361 24.173 25.361C24.7154 25.361 25.3352 25.2068 25.955 25.0526C27.6595 25.8235 29.2865 26.9026 30.9135 27.9048C31.5333 28.2902 32.2306 28.6756 32.8504 29.061C33.4702 29.4464 34.0125 29.8319 34.6323 30.2173C34.7873 30.2944 34.8647 30.5256 34.9422 30.6798C32.8504 30.9881 30.9909 31.9902 28.9766 32.2215C28.6667 32.2215 28.3568 32.5298 28.0469 32.6069C27.582 32.7611 27.1946 32.9153 26.7298 33.0694C26.4199 33.1465 26.11 33.1465 25.8775 33.3007C24.4055 34.3028 22.701 33.9944 21.074 33.9174C20.5317 33.8403 19.9893 33.5319 19.447 33.3007C18.9047 33.0694 18.3623 32.684 17.82 32.6069C16.8903 32.5298 16.1155 32.1444 15.3408 31.759C14.8759 31.5277 14.3336 31.3736 13.8687 31.2194C13.4814 30.9881 13.094 30.834 12.3192 30.5256Z" fill="#FEA168"/>
<path fill-rule="evenodd" clip-rule="evenodd" d="M82.5901 61.745C82.745 62.4387 82.9 63.1325 83.0549 63.9033C82.8225 64.9825 81.9703 65.8305 81.1955 66.6784C80.6532 67.218 79.9559 67.6034 79.1811 67.6034C76.2371 67.6805 73.6029 66.9867 71.4335 64.9054C70.5038 64.0575 70.2714 63.0554 70.6588 61.8991C71.2011 59.8949 72.4407 58.3532 73.7578 56.8886C74.4551 56.1178 75.4623 55.6553 76.547 55.5011C77.3217 55.424 77.6316 55.6553 77.7091 56.4261C77.8641 57.274 77.9415 58.122 78.0965 58.9699C78.3289 60.2803 79.1811 60.9741 80.4982 61.2054C81.1955 61.2054 81.9703 61.2825 82.5901 61.745Z" fill="#95E5D4"/>
<path fill-rule="evenodd" clip-rule="evenodd" d="M82.9774 56.4261C82.8224 54.576 82.59 52.8802 82.5125 51.1843C82.2801 48.7176 82.1251 46.1738 81.8927 43.7071C81.8152 43.0904 81.8927 42.3966 81.8927 41.7029C83.9071 42.0883 85.844 42.4737 87.9358 42.8592C88.3232 43.7071 88.4782 44.6321 88.5557 45.6342C88.6331 46.7134 88.7881 47.7155 88.7881 48.7947C88.7881 49.4114 88.7106 50.028 88.7106 50.7218C88.7881 52.3406 88.8656 53.9594 88.8656 55.6552C88.8656 56.1177 88.7881 56.5802 88.7106 57.1198C86.7737 56.8115 84.9143 56.5802 82.9774 56.4261Z" fill="#7EE2A4"/>
<path fill-rule="evenodd" clip-rule="evenodd" d="M80.1879 59.5094C79.723 58.6615 79.4906 57.8906 79.4131 57.0427C79.1032 54.4989 78.8708 51.9551 78.8708 49.3342C78.8708 47.7925 78.7158 46.3279 78.7158 44.7862C78.7158 42.8591 78.7933 40.8549 79.0257 38.8507C80.4978 38.6965 81.8923 38.6194 83.2869 38.5424C83.5968 38.5424 83.9067 38.6194 84.1391 38.6965C85.1463 38.9278 86.1535 39.159 87.3157 39.3903C87.3931 39.6986 87.5481 40.0841 87.6256 40.4695C87.6256 40.6236 87.6256 40.7778 87.5481 40.932C87.0058 41.2403 86.5409 41.1632 85.9986 41.0091C85.1463 40.7778 84.2941 40.5466 83.4419 40.2382C82.6671 39.9299 81.9698 39.9299 81.1176 40.3153C80.7302 40.7778 80.6527 41.3945 80.6527 42.0883C80.7302 43.707 80.8852 45.3258 80.8077 46.9446C80.7302 48.7946 81.1176 50.5676 81.0401 52.3405C80.9626 53.651 81.1951 54.8843 81.7374 56.1177C82.0473 56.8885 82.5896 57.4281 83.3644 57.5823C84.0617 57.7365 84.759 57.8906 85.4562 57.8906C86.5409 57.9677 87.703 57.9677 88.9427 57.9677C89.0201 58.5073 89.0976 58.9698 89.1751 59.4323C88.9427 59.5865 88.8652 59.7407 88.7102 59.8178C88.6328 59.8948 88.4778 59.8948 88.4003 59.8948C86.3859 59.7407 84.449 59.5865 82.4347 59.4323C81.7374 59.5094 81.0401 59.5094 80.1879 59.5094Z" fill="white"/>
<path fill-rule="evenodd" clip-rule="evenodd" d="M23.3984 23.4338C23.2434 23.5879 23.166 23.8192 23.011 23.8192C21.539 24.2046 20.1444 24.8984 18.7498 25.438C16.8129 26.1317 15.1859 27.1338 13.404 28.1359C12.3968 28.7526 11.3896 29.3693 10.2275 30.1401C8.1356 29.9089 5.96627 29.061 3.79694 28.4443C3.48704 27.9818 3.64199 27.6734 4.02937 27.5193C5.73384 26.8255 7.43831 25.9005 9.22026 25.438C11.3121 24.8213 13.404 24.2046 15.4183 23.5108C16.5805 23.1254 17.8201 22.8171 18.9822 22.5087C19.6021 22.3546 20.1444 22.2775 20.6867 22.5087C21.6164 22.8171 22.4687 23.1254 23.3984 23.4338Z" fill="#FEA168"/>
<path fill-rule="evenodd" clip-rule="evenodd" d="M39.2034 43.0905C39.9782 45.9426 39.4358 48.7176 40.2881 51.3385C40.2881 54.1136 40.9854 56.7345 41.2178 59.5866C39.1259 60.897 37.1116 62.5158 34.7873 63.8263C34.7098 62.7471 35.0197 61.8991 35.2521 61.0512C35.8719 58.4303 36.5692 55.8094 37.189 53.2656C37.4215 52.1094 37.4989 50.9531 37.6539 49.7968C38.0413 47.7155 38.4287 45.7113 38.816 43.63C38.8935 43.553 38.971 43.4759 39.2034 43.0905Z" fill="#5CABCA"/>
<path fill-rule="evenodd" clip-rule="evenodd" d="M54.8532 71.2263C54.3109 70.3784 54.3884 69.5305 54.3109 68.7596C54.9307 67.9888 55.7055 67.295 56.1703 66.4471C57.7199 64.1345 57.9523 61.7449 56.4802 59.2011C55.8604 58.1219 55.1632 57.1198 54.156 56.349C53.3812 55.8094 52.9938 55.1156 52.9163 54.1906C52.9163 53.9593 52.9163 53.7281 52.8389 53.4197C53.2262 53.3426 53.5362 53.1885 53.8461 53.1885C54.5433 53.1885 55.0857 53.4197 55.628 53.8822C57.3325 55.1927 58.8045 56.7344 59.6568 58.8157C60.509 60.7428 60.509 62.747 60.1991 64.8283C59.8892 66.5241 58.882 67.7575 57.7199 68.9909C56.9451 69.7617 56.1703 70.6867 54.8532 71.2263Z" fill="#FE4A5E"/>
<path fill-rule="evenodd" clip-rule="evenodd" d="M52.9939 51.6469C52.7614 49.5656 52.6839 47.7155 52.4515 45.8655C52.2191 44.0155 51.9867 42.1654 51.6768 40.3154C51.9867 40.3154 52.1416 40.2383 52.2191 40.3154C53.7686 41.3175 55.3181 42.2425 56.7902 43.2446C57.255 43.5529 57.6424 43.8613 58.1073 44.0925C58.7271 44.478 59.4244 44.8634 60.0442 45.2488C60.8189 45.7113 60.8964 46.2509 60.2766 46.7905C59.1919 47.6384 58.3397 48.7176 57.41 49.5656C56.4803 50.3364 55.3956 50.9531 54.3109 51.4927C53.8461 51.801 53.3812 51.6469 52.9939 51.6469Z" fill="#5CABCA"/>
<path fill-rule="evenodd" clip-rule="evenodd" d="M89.1758 12.719C92.0424 12.5648 94.7541 12.4877 97.3882 13.1044C98.318 13.3357 99.1702 13.7211 99.8675 14.3378C101.03 15.3399 102.192 16.4961 102.967 17.8837C103.044 17.9607 102.967 18.1149 103.044 18.3462C102.657 18.3462 102.269 18.4232 101.882 18.3462C100.41 18.0378 98.9378 18.2691 97.5432 18.7316C96.691 19.0399 95.9937 18.9628 95.2964 18.2691C94.909 17.8066 94.2892 17.4982 93.7469 17.1128C92.1199 15.7253 90.8028 14.2607 89.1758 12.719Z" fill="#FEA168"/>
<path fill-rule="evenodd" clip-rule="evenodd" d="M93.9787 11.0232C92.5067 11.1002 91.1121 11.1773 89.7176 11.1773C89.3302 11.1773 88.9428 11.1773 88.4779 11.2544C87.8581 11.2544 87.3158 11.1773 86.9284 10.6377C86.541 10.1752 85.9212 9.94397 85.6113 9.17313C86.3861 8.86479 87.1609 8.86479 87.8581 8.94187C88.4005 9.01896 89.0203 9.17313 89.5626 9.3273C90.4148 9.55855 91.2671 9.78981 92.1193 9.94397C92.8166 10.1752 92.8166 10.0981 93.9787 11.0232Z" fill="#FEA168"/>
<path fill-rule="evenodd" clip-rule="evenodd" d="M66.3976 11.4857C66.5525 11.9482 66.7075 12.4878 66.9399 13.0273C66.475 13.1044 66.0877 13.2586 65.7003 13.3357C64.6156 13.4899 63.4535 13.5669 62.3688 13.7982C61.5166 13.9524 60.6643 14.2607 59.8121 14.4149C58.1076 14.8774 56.4806 15.417 54.6987 15.6482C53.0717 15.8795 51.5222 16.4191 49.9726 16.8045C49.4303 16.9587 48.9655 17.0358 48.4231 17.1128C47.8808 17.1899 47.5709 16.8816 47.4159 16.342C47.3385 16.1107 47.3385 15.8795 47.261 15.6482C47.261 15.4941 47.261 15.3399 47.261 15.1086C48.4231 14.569 49.7402 14.4149 50.9798 14.1836C52.4519 13.8753 54.0014 13.7211 55.4734 13.4128C57.4103 12.9503 59.3472 12.6419 61.2841 12.1794C62.7562 11.8711 64.3057 11.6398 65.7778 11.4086C66.0102 11.4086 66.1651 11.4086 66.3976 11.4857Z" fill="#FEA168"/>
<path fill-rule="evenodd" clip-rule="evenodd" d="M41.0629 16.2649C41.5277 17.267 41.9151 18.0378 41.6827 19.117C40.753 19.4254 39.8233 19.7337 38.7386 20.042C37.8864 19.5025 36.8792 19.117 35.7945 18.8087C35.4071 18.7316 35.0197 18.3462 34.4774 18.0378C36.8017 17.4212 38.8936 16.8045 41.0629 16.2649Z" fill="#FEA168"/>
<path fill-rule="evenodd" clip-rule="evenodd" d="M47.5705 23.8193C47.2606 24.513 46.7958 24.7443 46.0985 24.9755C45.6336 24.6672 45.0913 24.2818 44.6264 23.8963C43.6193 23.1255 42.6121 22.2776 41.295 22.0463C40.6752 21.8921 40.5977 21.1984 41.14 20.8129C41.4499 20.5046 41.8373 20.4275 42.3022 20.5046C42.767 20.6588 43.3093 20.89 43.7742 21.0442C44.0066 21.1213 44.1616 21.2755 44.394 21.3525C44.7039 21.3525 45.0913 21.2755 45.4012 21.5838C45.9435 22.3546 47.1832 22.663 47.5705 23.8193Z" fill="#D66852"/>
<path fill-rule="evenodd" clip-rule="evenodd" d="M53.4591 57.5824C54.9311 58.4303 55.241 59.8179 55.7833 61.0512C55.6284 62.7471 56.0158 64.5971 54.5437 65.8305C54.0789 65.7534 54.0789 65.445 54.0014 65.2138C53.8464 64.6742 53.6915 64.2117 53.769 63.6721C53.8464 61.8221 53.4591 59.972 53.3816 58.122C53.3041 58.0449 53.3816 57.9678 53.4591 57.5824Z" fill="white"/>
<path fill-rule="evenodd" clip-rule="evenodd" d="M74.2226 13.4899C75.7722 14.8774 77.3217 15.9566 78.0965 17.8066C77.3217 18.4233 76.7019 18.5004 76.0821 18.0379C75.5397 17.6524 75.0749 17.267 74.4551 16.7274C74.1452 15.8795 73.8353 14.8774 74.2226 13.4899Z" fill="#D66852"/>
<path fill-rule="evenodd" clip-rule="evenodd" d="M72.0529 6.47515C74.4547 6.47515 76.779 6.55223 79.0258 6.55223C80.1879 6.55223 81.35 6.55223 82.4347 7.16891C82.6671 7.32308 82.977 7.32308 83.2869 7.32308C83.9067 7.32308 84.4491 7.246 85.0689 7.16891C86.5409 7.01474 88.013 7.16891 89.485 7.32308C91.267 7.55434 92.894 8.2481 94.521 8.78769C95.6831 9.17312 96.6128 9.94396 97.62 10.3294C98.9371 10.869 99.8668 12.0253 101.029 12.719C102.191 13.4899 102.966 14.5691 103.896 15.5712C104.825 16.6503 105.678 17.7295 106.375 18.9629C106.917 19.8108 107.847 20.5046 108.234 21.4296C108.389 21.7379 108.544 22.0463 108.622 22.4317C108.932 23.8963 109.241 25.438 109.551 26.9026C109.706 27.8276 109.861 28.7527 110.016 29.6777C110.249 30.9881 110.481 32.2986 110.636 33.6861C110.713 34.0715 110.791 34.4569 110.791 34.9194C111.178 38.6195 111.643 42.3196 111.953 46.0967C112.108 48.1009 112.34 50.1051 112.263 52.0323C112.186 53.9594 112.418 55.8865 112.186 57.8136C112.031 59.2782 112.186 60.8199 112.34 62.3616C112.573 64.7513 112.418 67.1409 112.418 69.5305C112.418 70.6097 112.418 71.6118 112.418 72.8452C111.876 73.2306 111.411 73.7702 110.868 74.3098C109.939 75.0806 108.932 75.7744 107.769 76.2369C106.452 76.7765 105.29 77.5473 103.818 77.6244C103.508 77.6244 103.198 77.9328 102.888 78.0869C101.106 79.0119 99.247 79.7057 97.2326 79.937C97.0002 79.937 96.6903 79.937 96.5353 80.0911C95.4507 80.7849 94.1336 80.6307 92.9714 80.7849C92.8165 80.7849 92.5841 80.862 92.4291 80.7849C90.8796 80.0911 89.3301 80.7078 87.858 81.0932C85.3788 81.7099 82.8221 82.3266 80.4203 83.0974C78.7159 83.637 76.8564 83.9454 75.2294 84.7162C74.2997 85.1787 73.215 85.2558 72.1304 85.41C70.116 85.6412 68.1016 86.1808 66.0873 86.5662C63.6855 87.0288 61.2063 87.4142 58.8045 87.7996C57.6424 88.0309 56.4802 88.185 55.3181 88.4163C54.6983 89.7267 53.6136 90.3434 52.219 90.3434C49.5849 90.3434 46.9507 91.1143 44.3165 91.4226C44.0841 91.4226 43.7742 91.5768 43.6192 91.4997C42.767 90.9601 42.0697 91.4226 41.2175 91.5768C38.6607 92.2705 36.0266 92.6559 33.3924 92.3476C32.85 92.2705 32.3077 92.2705 31.8429 92.5018C30.8357 93.0414 29.906 92.8101 28.9762 92.5018C28.3564 92.2705 27.8141 92.1163 27.1168 92.2705C26.1871 92.5018 25.2574 92.0393 24.4052 91.808C23.7853 91.6538 23.1655 91.4226 22.5457 91.1913C21.4611 90.8059 20.2989 90.4205 19.2917 89.958C18.517 89.5725 17.6647 89.3413 16.8125 89.1871C15.7278 88.9559 14.6432 88.8788 13.8684 87.8767C13.481 87.4142 12.7063 87.3371 12.0865 87.1058C11.4667 86.8746 10.7694 86.6433 10.1496 86.335C8.29014 85.41 7.28295 83.8683 6.58567 82.0182C6.19829 81.1703 6.04333 80.2453 5.88838 79.3203C5.73343 77.9328 5.26857 76.6223 5.34605 75.1577C5.34605 75.0035 5.34605 74.7723 5.26857 74.6181C4.49381 72.691 4.41634 70.6097 4.10643 68.6055C3.874 67.4492 3.79653 66.2929 3.71905 65.1367C3.5641 63.3637 3.48662 61.5908 3.02177 59.8949C3.17672 58.6615 2.71186 57.5053 2.55691 56.2719C2.32448 54.7302 2.09205 53.1885 1.9371 51.6468C1.85963 51.2614 1.85963 50.9531 1.78215 50.6447C1.16234 48.8718 1.16234 47.0988 1.08487 45.2488C1.08487 44.8634 1.08487 44.4009 1.00739 44.0154C0.542534 42.2425 0.542534 40.3925 0.465058 38.6195C0.387582 37.7716 0.310106 36.8466 0.23263 35.9986C0.000201814 34.4569 0.0776779 32.8381 0.23263 31.2964C0.310106 30.6798 0.387582 29.986 0.310106 29.3693C0.23263 28.5985 0.542534 27.9818 1.08487 27.5193C1.54972 27.0568 2.24701 26.5943 2.86682 26.2089C3.17672 25.9776 3.64158 25.9005 3.95148 25.6693C6.04333 24.3588 8.29014 23.588 10.6144 23.0484C12.1639 22.663 13.636 22.0463 15.108 21.5838C16.89 21.0442 18.517 20.1192 20.144 19.1941C21.8484 18.192 23.6304 17.6524 25.5673 17.267C26.5745 17.0358 27.5042 16.7274 28.4339 16.4962C29.2861 16.2649 30.1384 16.2649 31.0681 16.4191C31.7654 16.5733 32.6176 16.4962 33.3149 16.4191C34.9419 16.342 36.4139 15.8795 37.9635 15.4941C38.8932 15.2628 39.7454 14.9545 40.7526 14.6461C40.6751 13.4899 40.5976 12.4107 40.4427 11.3315C40.4427 10.9461 40.3652 10.6377 40.3652 10.2523C40.3652 7.63142 41.7598 6.01264 44.0066 4.93345C45.5561 4.1626 47.1831 3.7001 48.7326 3.08342C48.8876 3.00633 49.0425 2.92925 49.1975 2.92925C51.5218 2.54382 53.6911 1.61881 55.9379 1.00213C57.1 0.693789 58.3397 0.385449 59.5793 0.385449C60.6639 0.385449 61.8261 0.23128 62.9107 0.0771102C64.6927 -0.0770594 66.2422 0.308365 67.6368 1.54172C69.4187 2.92925 70.8133 4.54803 72.0529 6.47515ZM77.0889 53.8823C77.2438 53.2656 77.4762 52.8031 77.4762 52.3406C77.4762 51.801 77.3213 51.1843 77.3213 50.6447C77.0889 47.1759 77.1663 43.7842 77.3213 40.3154C77.3213 39.6987 77.4762 39.1591 77.5537 38.6195C77.7861 37.7716 78.1735 37.5403 79.0258 37.4632C79.3357 37.4632 79.6456 37.5403 79.878 37.3862C81.4275 36.9236 82.8996 37.1549 84.3716 37.3862C85.1464 37.4632 85.9211 37.8487 86.7734 37.5403C86.6184 33.7632 85.9986 29.3693 85.2238 26.2089C84.9139 24.9755 84.2941 23.8192 83.6743 22.663C83.3644 22.663 83.0545 22.5859 82.7446 22.5859C81.6599 22.663 80.6527 22.8171 79.5681 22.8942C76.9339 23.1255 74.3772 23.7421 71.743 24.2046C70.271 24.4359 68.8764 24.8213 67.4818 25.1297C63.9954 25.8234 60.5865 26.5943 57.1 27.211C54.9307 27.5964 52.9163 28.4443 50.747 28.5985C50.2047 28.5985 49.7398 28.8297 49.3524 29.4464C49.5074 30.2173 49.6623 31.0652 49.8948 31.9131C50.0497 32.684 50.3596 33.3777 50.5146 34.0715C50.747 35.3819 50.9794 36.6924 51.2119 38.0799C51.6767 38.3883 52.1416 38.7737 52.6064 39.0049C53.6911 39.4674 54.6208 40.1612 55.628 40.855C56.7901 41.7029 58.1072 42.4737 59.3468 43.2446C59.9667 43.63 60.5865 43.9384 61.1288 44.3238C62.136 45.0946 62.5234 46.4051 61.8261 47.253C60.8189 48.3322 60.1216 49.6426 58.727 50.3364C57.7973 50.7989 57.255 51.6468 56.6352 52.2635C56.6352 52.4177 56.6352 52.4948 56.7127 52.5718C56.7901 52.6489 56.8676 52.726 56.9451 52.8031C59.5018 54.5761 60.8964 57.0428 61.8261 59.8949C62.2909 61.3595 62.6008 62.8241 62.0585 64.3658C61.7486 65.2138 61.5936 66.0617 61.2837 66.8325C60.8189 67.7576 60.354 68.7597 59.7342 69.5305C58.9595 70.4555 58.0298 71.3035 57.0226 71.9972C56.4028 72.4597 55.628 72.6139 54.9307 72.8452C54.8532 72.8452 54.7758 72.9993 54.6208 73.0764C54.6208 73.7702 54.6983 74.541 54.6983 75.3119C55.0082 78.7036 55.3181 82.0953 55.3181 85.4871C55.3181 85.7954 55.473 86.1037 55.5505 86.4121C57.5649 86.2579 59.4243 86.1037 61.2063 85.6412C61.7486 85.4871 62.2135 85.41 62.7558 85.41C65.0801 85.1787 67.8692 84.562 70.4259 83.7912C71.743 83.4058 73.1376 83.0974 74.5321 82.7891C76.3916 82.4037 78.1735 81.5557 80.1104 81.2474C80.2654 81.2474 80.4203 81.0932 80.5753 81.0161C81.0401 80.862 81.5825 80.6307 82.0473 80.5536C84.9139 79.8599 87.858 79.1661 90.8021 78.4723C90.8021 77.0848 90.7246 75.6973 90.4922 74.3098C90.2598 72.9222 90.3373 71.3805 90.1823 69.9159C90.0274 68.5284 89.9499 67.1409 89.64 65.7534C89.3301 64.3658 89.4075 62.9012 88.9427 61.5137C87.3932 61.4366 85.9986 61.2824 84.604 61.2054C84.3716 61.2054 84.1392 61.3595 83.7518 61.5137C84.6815 62.67 84.3716 63.8262 83.9067 64.9825C83.4419 66.1388 82.6671 67.1409 81.6599 67.8346C80.8852 68.3742 80.0329 68.7597 79.0258 68.8367C76.1591 68.9138 73.525 68.2971 71.2007 66.7555C68.7214 65.0596 68.3341 63.2866 69.1088 60.6658C69.7286 58.6615 70.8133 56.8115 72.5952 55.5011C74.0673 54.6531 75.2294 53.651 77.0889 53.8823ZM41.3724 61.5137C39.4355 62.747 37.6536 63.8262 35.8716 64.9825C35.2518 65.3679 34.632 65.5992 33.9347 65.7534C33.5473 65.8304 33.2374 65.5992 33.1599 65.2138C33.0825 64.9825 33.0825 64.5971 33.0825 64.3658C33.3149 63.2866 33.4698 62.2075 33.7798 61.1283C34.5545 58.122 35.3293 55.1157 36.104 52.1093C36.4914 50.7218 36.7238 49.2572 37.1112 47.8697C37.5761 46.0196 37.5761 44.0154 38.2734 42.1654C38.9706 40.4695 38.8932 38.6966 38.6607 37.0007C38.5833 35.8445 38.1959 34.6882 37.9635 33.5319C37.9635 33.4548 37.886 33.3007 37.886 33.2236C37.4986 32.2986 36.8788 31.9902 35.8716 32.2986C32.9275 33.1465 30.0609 34.0715 27.1168 34.9965C25.7222 35.459 24.4052 36.0757 22.9331 36.6153C22.9331 37.0007 22.9331 37.3862 22.9331 37.7716C23.0106 38.6195 23.0881 39.3904 23.0881 40.2383C22.8556 44.478 23.398 48.6405 24.3277 52.8031C24.6376 54.1135 24.7925 55.424 24.9475 56.8115C25.025 57.5053 25.025 58.199 25.1024 58.8928C25.3349 60.6658 25.5673 62.3616 25.7997 64.1346C26.0322 65.6763 26.0322 67.2951 26.3421 68.8367C26.497 69.6076 26.3421 70.3784 26.497 71.0722C26.8844 72.6139 27.0393 74.1556 27.1943 75.6973C27.4267 78.164 27.9691 80.5536 28.279 82.9433C28.4339 84.0224 28.8213 85.1016 28.8988 86.1808C29.0537 87.5684 29.6735 88.5704 30.5258 89.5725C30.9131 90.0351 31.3005 90.1892 31.9203 90.1892C32.5401 90.1892 33.2374 90.2663 33.8572 90.2663C35.5617 90.4205 37.2662 90.4976 38.8932 90.1121C39.358 90.0351 39.8229 89.8038 40.2877 89.8809C41.5274 90.1121 42.3796 89.4184 43.3868 88.9559C43.3093 88.1079 43.2318 87.26 43.2318 86.4121C43.1544 82.4037 43.2318 78.4723 42.9994 74.4639C42.8445 71.6889 42.3021 68.9138 42.0697 66.1388C42.0697 64.7513 41.6823 63.2866 41.3724 61.5137ZM10.4595 32.1444C10.3045 32.2986 10.227 32.4527 10.227 32.5298C10.0721 35.459 9.52975 38.3112 9.76218 41.2404C9.91714 43.2446 10.0721 45.3259 10.4595 47.3301C10.8468 49.4114 11.1568 51.4156 11.5441 53.4969C11.854 55.1927 12.009 56.9657 12.2414 58.7386C12.3189 59.5866 12.3964 60.5116 12.3964 61.3595C12.4738 62.67 12.3964 64.0575 12.5513 65.3679C12.9387 68.9909 13.3261 72.5368 13.7135 76.1598C13.8684 77.1619 14.1008 78.2411 14.3333 79.2432C14.7981 81.1703 15.0306 83.1745 15.3405 85.1016C15.4179 85.4871 15.5729 85.8725 15.6504 86.2579C15.7278 87.0288 16.2702 87.3371 16.89 87.5683C18.517 88.1079 20.144 88.6475 21.6935 89.2642C22.4683 89.5726 23.243 89.7267 24.0952 89.8038C25.5673 89.8809 27.1168 89.958 28.5114 90.6517C28.8213 90.8059 29.2087 90.7288 29.8285 90.8059C29.596 90.4976 29.5186 90.3434 29.3636 90.2663C28.0465 89.2642 27.5817 87.6454 26.9619 86.2579C26.652 85.6412 26.8069 84.8704 26.652 84.1766C26.1096 81.1703 25.7222 78.164 25.3349 75.1577C25.2574 74.6181 25.025 74.0785 24.9475 73.4618C24.7925 72.3826 24.87 71.3805 24.6376 70.3014C24.0952 66.9867 23.5529 63.6721 23.398 60.2803C23.3205 58.9699 23.3205 57.5824 22.9331 56.2719C22.3133 54.1906 22.5457 52.1093 22.0034 50.0281C21.8484 49.4114 21.6935 48.7947 21.616 48.178C21.5385 46.7905 21.4611 45.403 21.3836 44.0154C21.3836 43.4758 21.3836 42.9363 21.3836 42.4737C21.3061 41.0091 21.2286 39.5445 21.2286 38.0799C21.2286 37.232 21.1512 36.384 20.9187 35.5361C20.6088 35.459 20.2989 35.3819 19.989 35.2278C19.1368 34.9194 18.2845 34.6882 17.6647 34.0715C17.1999 33.609 16.735 33.3777 16.1927 33.2236C15.108 32.9152 14.0234 32.6069 13.0162 32.2986C12.1639 32.1444 11.3117 31.9902 10.4595 32.1444ZM102.656 75.8515C102.656 75.3119 102.656 74.8494 102.656 74.3098C102.501 72.9222 102.424 71.5347 102.269 70.1472C102.269 69.993 102.191 69.9159 102.191 69.7618C102.114 68.9138 101.959 68.143 101.881 67.2951C101.726 66.0617 101.649 64.8283 101.494 63.6721C101.339 62.747 100.874 61.822 100.951 60.9741C101.029 59.972 100.874 59.047 100.874 58.0449C100.951 55.7323 100.564 53.4969 100.254 51.2614C99.9443 48.5634 99.6344 45.7884 99.402 43.0904C99.402 42.9363 99.402 42.705 99.402 42.5508C99.402 39.4674 98.9371 36.4611 98.3948 33.5319C98.3173 32.9152 98.0849 32.2986 98.0074 31.6819C97.62 28.9068 97.2326 26.1318 96.6903 23.3567C96.5353 22.5859 96.3804 21.8921 95.6831 21.2754C92.739 21.2754 89.8724 21.5838 86.9283 21.9692C86.386 22.0463 85.8437 22.2775 85.2238 22.4317C86.1535 24.9755 87.1607 27.4422 87.6256 30.0631C87.858 31.2194 87.858 32.3756 88.013 33.5319C88.2454 35.3049 88.4004 37.1549 88.7877 38.9278C89.0202 40.007 89.1751 41.0862 89.4075 42.1654C89.64 43.0133 89.7949 43.8613 89.8724 44.7092C90.2598 48.7947 90.5697 52.8802 90.8796 56.9657C91.0345 58.8157 91.112 60.6658 91.267 62.5929C91.3445 64.1346 91.4994 65.5992 91.7318 67.1409C91.9643 68.2971 91.9643 69.4534 92.1192 70.6097C92.1967 71.2264 92.3516 71.843 92.3516 72.5368C92.4291 73.3847 92.5066 74.1556 92.5066 75.0035C92.5841 75.8515 92.5841 76.6223 92.5841 77.4702C92.5841 78.0869 92.6615 78.6265 93.2039 79.089C93.5913 79.0119 94.0561 79.0119 94.521 78.9349C95.7606 78.6265 97.0002 78.164 98.2398 78.0098C100.022 77.6244 101.339 76.9306 102.656 75.8515ZM39.1256 31.759C39.358 33.0694 39.5905 34.2257 39.7454 35.3049C40.0553 37.0778 40.3652 38.8508 40.5976 40.7008C40.8301 42.6279 41.0625 44.555 41.2949 46.4051C41.3724 46.7905 41.3724 47.253 41.3724 47.6384C41.6823 49.6426 41.9922 51.6468 42.2246 53.7281C42.3796 55.1157 42.5345 56.5032 42.767 57.8907C42.9994 59.8949 43.3093 61.822 43.6192 63.8262C43.9291 65.6763 43.7742 67.6034 44.3165 69.3763C44.394 69.5305 44.394 69.7618 44.394 69.9159C44.4714 71.9201 44.6264 74.0014 44.7039 76.0056C44.7814 76.9306 44.7813 77.8557 44.7813 78.7807C44.7813 79.6286 44.7813 80.3995 44.7813 81.2474C44.7813 83.3287 44.7039 85.3329 44.8588 87.4142C45.0138 89.3413 45.0913 89.3413 47.0282 89.6496C47.5705 89.7267 48.1903 89.8809 48.7326 89.5725C49.8173 88.9559 51.0569 88.7246 52.219 88.4163C52.6839 88.3392 53.0713 88.1079 53.5361 87.9538C53.846 86.4121 53.6136 84.9475 53.4587 83.4829C53.2262 80.0911 52.9938 76.6994 52.8389 73.3077C52.7614 72.3826 52.6839 71.4576 52.6064 70.5326C52.6064 69.7618 52.7614 68.9909 52.6839 68.2971C52.6064 67.5263 52.4515 66.8325 52.2965 66.0617C52.2965 65.9846 52.374 65.8304 52.2965 65.6763C52.219 63.8262 52.0641 61.9762 51.9866 60.1262C51.9866 59.8949 51.8317 59.6637 51.7542 59.4324C51.5992 58.122 51.3668 56.7344 51.3668 55.424C51.3668 54.7302 51.4443 54.0365 51.3668 53.3427C51.2119 52.2635 51.1344 51.1843 50.9794 50.0281C50.6695 47.5613 50.4371 45.1717 50.1272 42.705C49.8948 40.9321 49.4299 39.1591 49.275 37.3862C49.0425 35.1507 48.3452 33.0694 47.9579 30.911C47.8804 30.5256 47.648 30.2173 47.493 29.7548C44.6264 30.2173 41.9922 31.0652 39.1256 31.759ZM97.5425 20.3504C97.5425 20.4275 97.4651 20.5817 97.4651 20.6587C98.3948 23.1255 98.5497 25.6693 98.9371 28.2131C99.3245 30.6027 99.5569 32.9923 99.8668 35.3049C100.099 36.7695 100.332 38.3112 100.564 39.8529C101.184 40.007 101.726 40.1612 102.346 40.3154C103.353 40.5466 104.283 40.855 105.058 41.5487C106.142 42.4737 107.072 43.4758 106.917 45.0946C106.84 45.7113 106.917 46.4051 106.84 47.0217C106.53 49.4114 106.84 51.801 106.84 54.1906C106.84 54.8073 106.762 55.5011 106.762 56.1178C106.762 56.4261 106.762 56.7344 106.762 56.9657C106.84 58.5074 106.607 59.972 106.065 61.4366C105.832 62.1304 105.368 62.4387 104.593 62.4387C103.973 62.4387 103.353 62.2075 102.578 62.5158C102.656 63.1325 102.656 63.8262 102.733 64.4429C102.966 66.1388 103.353 67.9117 103.353 69.6847C103.353 70.3784 103.508 71.0722 103.586 71.766C103.741 72.691 103.973 73.616 103.818 74.541C103.818 74.6952 103.973 74.8494 104.128 75.0806C104.438 74.9264 104.748 74.6952 105.058 74.6952C106.452 74.6181 107.459 73.6931 108.622 73.3847C108.854 73.3077 109.086 73.0764 109.241 72.7681C109.706 71.8431 110.326 70.918 110.559 69.9159C110.946 68.3742 111.333 66.7555 111.101 65.0596C110.946 63.8262 110.868 62.5929 110.791 61.4366C110.559 57.7365 110.481 53.9594 110.171 50.2593C109.939 47.4072 109.861 44.555 109.706 41.7029C109.551 39.082 109.319 36.4611 108.777 33.9173C108.699 33.5319 108.622 33.1465 108.622 32.684C108.544 29.7548 107.847 27.0568 106.607 24.4359C106.375 23.8963 106.065 23.3567 105.832 22.8171C104.98 20.9671 102.269 19.5025 100.332 19.8108C99.4794 19.8879 98.4722 20.1192 97.5425 20.3504ZM13.7135 86.1037C13.7909 85.8725 13.8684 85.7183 13.7909 85.4871C13.636 84.6391 13.481 83.7912 13.3261 82.9433C13.1711 81.9412 13.0162 80.862 12.7837 79.8599C12.5513 78.8578 12.3189 77.8557 12.0865 76.7765C11.7766 74.8494 11.4667 72.8452 11.2342 70.918C11.1568 70.3014 11.1568 69.7618 11.0793 69.1451C10.9243 66.6013 11.0018 64.1346 10.6919 61.5908C10.4595 59.6637 10.5369 57.8136 10.1496 55.8865C9.52975 52.6489 9.14237 49.4114 8.67752 46.1738C8.13519 42.7821 7.98023 39.4674 8.60004 36.0757C8.83247 34.6111 8.98742 33.0694 9.14237 31.6048C5.8109 30.2943 2.94429 29.5235 1.70467 29.5235C1.70467 29.7548 1.54972 29.986 1.54972 30.1402C1.47225 30.911 1.31729 31.6819 1.39477 32.3756C1.6272 34.3028 1.70467 36.307 2.09205 38.2341C2.32448 39.3904 2.55691 40.5466 2.47943 41.6258C2.40196 43.4758 2.94429 45.1717 3.02177 47.0217C3.09924 48.7947 3.48662 50.5676 3.71905 52.3406C3.874 53.4198 3.874 54.5761 4.41634 55.5782C4.49381 55.7323 4.49381 55.8865 4.57129 56.1178C4.95867 59.3553 5.34605 62.5929 5.73343 65.8304C5.96586 68.0659 6.19829 70.2243 6.58567 72.4597C6.89557 74.0014 7.05052 75.5431 7.4379 77.0848C7.4379 77.1619 7.4379 77.239 7.4379 77.239C7.59285 78.3953 7.74781 79.5515 7.98023 80.7078C8.21266 81.9412 8.75499 83.1745 9.68471 83.8683C10.8468 84.8704 12.1639 85.6412 13.7135 86.1037ZM81.1951 18.8858C79.878 19.3483 78.7159 19.8108 77.4762 20.1962C76.779 20.4275 75.9267 20.3504 75.2294 20.6587C74.0673 21.0442 73.0601 20.8129 72.0529 20.1962C71.4331 19.8108 70.8133 19.3483 70.116 18.9629C69.1088 18.3462 68.4115 17.4983 68.0242 16.4191C67.7917 15.8024 67.4818 15.2628 67.1719 14.7232C66.5521 14.8003 66.0098 14.9545 65.5449 14.8774C63.2206 14.8003 61.1288 15.417 59.0369 16.1878C58.5721 16.342 58.0297 16.4962 57.4874 16.6503C54.6208 17.267 51.8317 17.8837 48.8101 18.5004C49.12 19.04 49.4299 19.5025 49.6623 19.965C49.8948 20.5046 50.1272 21.0442 50.3596 21.5838C50.747 22.5859 50.5146 23.5109 49.7398 24.2817C49.0425 24.9755 48.2678 25.5922 47.493 26.363C47.8804 26.9797 48.4227 27.3651 49.0425 27.6735C49.4299 27.5964 49.8948 27.4422 50.2821 27.3651C51.8317 26.9026 53.3812 26.5172 54.8532 25.9776C56.4028 25.3609 58.1072 25.5151 59.6567 25.1297C61.9036 24.513 64.3053 24.3588 66.5521 23.7421C68.7214 23.2025 70.8908 22.8942 73.0601 22.5088C74.2997 22.2775 75.6168 22.2004 76.8564 21.9692C78.5609 21.6609 80.3428 21.3525 82.1248 21.3525C82.5122 21.3525 82.8996 21.1213 83.3644 20.89C82.7446 19.965 81.9698 19.2712 81.1951 18.8858ZM73.9898 18.5775C73.7574 18.3462 73.6024 18.0379 73.37 17.8066C72.9051 17.267 72.6727 16.6503 72.5952 15.8795C72.4403 14.4149 72.2079 12.9503 72.0529 11.5627C71.9754 11.2544 71.898 10.869 71.8205 10.5606C71.2782 9.01895 70.8133 7.55434 69.9611 6.16681C69.1863 4.85637 68.3341 3.62301 67.1719 2.62091C66.862 2.31257 66.6296 1.92715 66.3972 1.61881C64.7702 1.00213 63.2206 1.1563 61.5936 1.46464C59.7342 1.85006 57.7973 2.1584 55.9379 2.62091C54.2334 3.08342 52.5289 3.62301 50.8245 4.00843C49.0425 4.47094 47.3381 5.24179 45.5561 6.01264C44.6264 6.39806 43.6967 7.01474 42.8444 7.55434C42.0697 8.09393 41.7598 8.86478 41.9147 9.86688C41.9922 10.4065 42.0697 10.9461 42.1472 11.4086C42.3021 12.6419 42.4571 13.8753 42.6895 15.0316C42.8444 15.9566 43.1544 16.8045 43.3093 17.7295C43.4643 18.5004 43.7742 19.04 44.394 19.5025C45.7111 20.4275 47.0282 21.2754 48.3452 22.1234C48.8101 22.0463 49.1975 21.8921 49.275 21.1983C48.5002 20.3504 47.8804 19.1941 46.4858 18.8087C46.0984 17.267 45.866 15.6482 45.3237 14.1836C44.8588 12.8732 45.6336 11.794 45.866 10.6377C45.866 10.4836 46.1759 10.2523 46.3309 10.1752C46.6408 10.021 46.9507 9.86688 47.3381 9.78979C49.4299 9.17312 51.6767 8.78769 53.6911 7.78559C54.4659 7.40017 55.3956 7.246 56.2478 7.09183C57.9523 6.7064 59.6567 6.39806 61.3612 6.01264C62.6783 5.7043 63.9179 5.7043 65.235 5.7043C66.0873 5.7043 66.6296 6.16681 66.9395 7.01474C67.0944 7.40017 67.1719 7.78559 67.3269 8.17101C67.7917 9.40437 68.1016 10.6377 68.7214 11.794C69.1863 12.719 69.4962 13.5669 69.4962 14.6461C69.4187 17.1899 71.898 18.8087 73.7574 18.9629C73.7574 18.8858 73.8349 18.7316 73.9898 18.5775ZM20.6863 20.6587C20.9962 20.8129 21.1512 20.89 21.3836 20.9671C22.3908 21.2754 23.3205 21.7379 24.2502 22.2775C26.1096 23.2796 27.8141 24.513 29.8285 25.2838C29.9834 25.3609 30.1384 25.438 30.2933 25.5922C31.8429 26.5943 33.3924 27.5193 34.8644 28.5214C35.3293 28.8297 35.8716 29.1381 36.259 29.6006C36.7238 30.1402 37.3437 30.2943 37.9635 30.0631C38.2734 29.986 38.5058 29.9089 38.8157 29.8318C39.9778 29.5235 41.0625 29.2152 42.2246 29.061C43.4643 28.8297 44.7039 28.8297 45.866 28.6756C46.1759 28.6756 46.4858 28.4443 46.7957 28.2901C46.6408 28.0589 46.5633 27.8276 46.4083 27.7506C44.394 26.2859 42.5345 24.513 40.5202 23.1255C39.358 22.3546 38.1959 21.5838 36.8788 21.0442C35.0194 20.2733 33.0825 19.5025 31.223 18.6545C30.2159 18.192 29.2087 17.8837 28.0465 18.0379C27.6591 18.115 27.2718 18.192 26.8844 18.3462C25.7997 18.7316 24.7151 19.1941 23.5529 19.3483C22.4683 19.3483 21.616 19.965 20.6863 20.6587ZM94.5984 20.1192C94.6759 19.965 94.6759 19.8879 94.7534 19.7337C94.1336 19.1941 93.5913 18.5775 92.894 18.115C91.8868 17.3441 91.0345 16.5733 90.2598 15.5712C89.7175 14.8774 89.0976 14.2607 88.4778 13.644C87.7805 12.9503 87.0058 12.3336 86.231 11.6398C84.4491 10.0981 82.4347 8.86478 80.1879 8.17101C79.6456 8.01684 79.1807 7.93976 78.6384 8.01684C77.6312 8.17101 76.624 8.17101 75.6943 8.2481C74.842 8.2481 73.9898 8.17101 72.9826 8.32518C73.37 9.63562 73.6799 10.9461 74.0673 12.1794C75.4619 12.6419 76.5465 13.3357 77.6312 14.1836C79.0258 15.3399 80.4203 16.4962 81.8924 17.5754C82.7446 18.192 83.4419 18.9629 84.0617 19.8108C84.2941 20.1192 84.5266 20.5046 84.759 20.89C88.0905 20.5046 91.267 19.965 94.5984 20.1192ZM12.3189 30.5256C13.0937 30.8339 13.481 30.9881 13.9459 31.1423C14.4107 31.2965 14.9531 31.5277 15.4179 31.6819C16.1927 32.0673 16.9675 32.4527 17.8972 32.5298C18.4395 32.6069 18.9818 32.9923 19.5242 33.2236C20.0665 33.4548 20.6088 33.7632 21.1512 33.8403C22.7782 33.9944 24.4052 34.3028 25.9547 33.2236C26.1871 33.0694 26.497 33.0694 26.8069 32.9923C27.2718 32.8381 27.6591 32.684 28.124 32.5298C28.4339 32.3756 28.7438 32.1444 29.0537 32.1444C31.1456 31.9131 33.005 30.9881 35.0194 30.6027C34.8644 30.3714 34.7869 30.2173 34.7095 30.1402C34.1671 29.7548 33.5473 29.3693 32.9275 28.9839C32.3077 28.5985 31.6104 28.2131 30.9906 27.8276C29.3636 26.8255 27.7366 25.7463 26.0321 24.9755C25.4123 25.1297 24.7925 25.2838 24.2502 25.2838C23.398 25.2838 22.6232 25.5151 21.9259 25.9005C21.5385 26.1318 21.0737 26.2859 20.6088 26.4401C19.2143 27.0568 17.8197 27.5964 16.4251 28.2131C15.4954 28.6756 14.5657 29.1381 13.636 29.6006C13.1711 29.9089 12.8612 30.1402 12.3189 30.5256ZM82.5897 61.7449C81.9698 61.2824 81.1951 61.2054 80.4203 61.1283C79.1032 60.897 78.3285 60.2033 78.0186 58.8928C77.8636 58.0449 77.7087 57.1969 77.6312 56.349C77.5537 55.5782 77.1663 55.3469 76.469 55.424C75.3844 55.5782 74.3772 56.0407 73.6799 56.8115C72.3628 58.2761 71.1232 59.8949 70.5809 61.822C70.271 62.9783 70.5034 63.9804 71.3556 64.8283C73.525 66.9867 76.1591 67.6034 79.1032 67.5263C79.878 67.5263 80.6527 67.218 81.1176 66.6013C81.8924 65.7534 82.8221 64.9054 82.977 63.8262C82.8996 63.0554 82.7446 62.4387 82.5897 61.7449ZM82.977 56.4261C84.9139 56.5803 86.7734 56.8115 88.7877 56.9657C88.8652 56.4261 88.9427 55.9636 88.9427 55.5011C88.9427 53.8823 88.7877 52.2635 88.7877 50.5676C88.7877 49.951 88.8652 49.3343 88.8652 48.6405C88.7877 47.5613 88.7103 46.5592 88.6328 45.4801C88.5553 44.478 88.4004 43.5529 88.013 42.705C85.9986 42.3196 83.9842 41.9342 81.9698 41.5487C81.9698 42.2425 81.8924 42.9363 81.9698 43.5529C82.1248 46.0196 82.3572 48.5634 82.5897 51.0302C82.5897 52.8802 82.7446 54.5761 82.977 56.4261ZM80.1879 59.5095C80.9627 59.5866 81.6599 59.5866 82.3572 59.6637C84.3716 59.8178 86.3085 59.972 88.3229 60.1262C88.4004 60.1262 88.5553 60.1262 88.6328 60.0491C88.7877 59.972 88.9427 59.8949 89.0976 59.6637C89.0202 59.2011 88.9427 58.6616 88.8652 58.199C87.6256 58.199 86.5409 58.199 85.3788 58.122C84.6815 58.0449 83.9842 57.9678 83.2869 57.8136C82.5122 57.5824 81.9698 57.0428 81.6599 56.349C81.1951 55.1157 80.9627 53.8823 80.9627 52.5718C81.0401 50.7989 80.6527 48.9489 80.7302 47.1759C80.8077 45.5571 80.5753 43.9384 80.5753 42.3196C80.5753 41.7029 80.6528 41.0091 81.0401 40.5466C81.8924 40.1612 82.5897 40.1612 83.3644 40.4695C84.2167 40.7779 85.0689 41.0091 85.9211 41.2404C86.4635 41.3946 86.9283 41.4716 87.4706 41.1633C87.4706 41.0091 87.5481 40.855 87.5481 40.7008C87.4706 40.3154 87.3932 39.9299 87.2382 39.6216C86.1535 39.3904 85.0689 39.1591 84.0617 38.9278C83.7518 38.8508 83.4419 38.7737 83.2095 38.7737C81.8149 38.8508 80.4203 39.0049 78.9483 39.082C78.7933 41.0862 78.7159 43.0133 78.6384 45.0175C78.6384 46.5592 78.7933 48.0239 78.7933 49.5655C78.8708 52.1093 79.0258 54.7302 79.3357 57.274C79.5681 57.8907 79.723 58.5845 80.1879 59.5095ZM23.398 23.4338C22.4683 23.1255 21.5385 22.8171 20.6863 22.5088C20.144 22.2775 19.5242 22.3546 18.9818 22.5088C17.8197 22.8942 16.6575 23.2025 15.4179 23.5109C13.3261 24.1276 11.3117 24.8213 9.21985 25.438C7.4379 25.9776 5.73343 26.8255 4.02896 27.5193C3.64158 27.6735 3.5641 27.9818 3.79653 28.4443C5.96586 29.061 8.13519 29.986 10.227 30.1402C11.4667 29.3693 12.3964 28.7527 13.4036 28.136C15.108 27.1339 16.8125 26.1318 18.7494 25.438C20.144 24.8984 21.5385 24.2046 23.0106 23.8192C23.1655 23.8192 23.243 23.6651 23.398 23.4338ZM39.2031 43.0904C38.9706 43.4758 38.8932 43.5529 38.8157 43.63C38.4283 45.7113 38.0409 47.7155 37.6536 49.7968C37.4211 50.9531 37.4211 52.1093 37.1887 53.2656C36.5689 55.8865 35.8716 58.5074 35.2518 61.0512C35.0194 61.8991 34.7095 62.8241 34.7869 63.8262C37.1887 62.5158 39.1256 60.897 41.2175 59.5866C40.985 56.7344 40.2877 54.0365 40.2877 51.3385C39.4355 48.7176 40.0553 45.9426 39.2031 43.0904ZM54.8532 71.2264C56.1703 70.7639 57.0226 69.7618 57.8748 68.9138C59.0369 67.7576 60.0441 66.4471 60.354 64.7513C60.7414 62.67 60.6639 60.7428 59.8117 58.7386C58.9595 56.6573 57.4874 55.1157 55.7829 53.8052C55.2406 53.4198 54.6983 53.1114 54.001 53.1114C53.6911 53.1114 53.3812 53.2656 52.9938 53.3427C52.9938 53.651 52.9938 53.8823 53.0713 54.1135C53.1488 55.0386 53.5361 55.7323 54.3109 56.2719C55.3181 57.0428 56.0154 57.9678 56.6352 59.1241C58.1072 61.6679 57.7973 64.0575 56.3253 66.37C55.7829 67.218 55.0857 67.9117 54.4659 68.6826C54.3884 69.5305 54.2334 70.3784 54.8532 71.2264ZM52.9938 51.6468C53.4587 51.6468 53.9235 51.801 54.2334 51.6468C55.3181 51.0302 56.4028 50.4906 57.3325 49.7197C58.3397 48.7947 59.1919 47.7926 60.1991 46.9447C60.8189 46.4051 60.7414 45.8655 59.9667 45.403C59.3468 45.0175 58.6496 44.6321 58.0298 44.2467C57.5649 43.9384 57.1775 43.63 56.7127 43.3988C55.1631 42.3967 53.6911 41.4716 52.1416 40.4695C52.0641 40.3925 51.9091 40.4695 51.5992 40.4695C51.9866 42.3196 52.1416 44.1696 52.374 46.0196C52.6064 47.7155 52.7614 49.5655 52.9938 51.6468ZM89.1751 12.719C90.8021 14.2607 92.1192 15.8024 93.8237 16.9587C94.366 17.3441 94.9083 17.6524 95.3732 18.115C95.993 18.8087 96.6903 18.8858 97.62 18.5775C99.0146 18.115 100.487 17.8837 101.959 18.192C102.346 18.2691 102.733 18.192 103.121 18.192C103.121 17.9608 103.121 17.8837 103.043 17.7295C102.269 16.342 101.106 15.2628 99.9443 14.1836C99.247 13.5669 98.3948 13.1815 97.4651 12.9503C94.7534 12.4878 92.0417 12.4878 89.1751 12.719ZM46.6408 13.0274C47.5705 13.1815 48.5002 13.0274 49.4299 12.8732C51.8317 12.4107 54.2334 11.7169 56.5577 11.0232C58.1072 10.5606 59.5793 10.1752 61.2063 10.021C62.8333 9.78979 64.4603 9.71271 66.2422 9.55854C66.0098 8.78769 65.8548 8.2481 65.6224 7.55434C65.0801 7.55434 64.5377 7.47725 63.9954 7.55434C61.2063 7.63142 58.5721 8.47935 55.8604 9.01895C54.7758 9.2502 53.6911 9.63562 52.6839 9.94396C50.902 10.4836 49.12 11.1002 47.3381 11.7169C46.6408 11.794 46.4858 12.3336 46.6408 13.0274ZM66.3972 11.4857C66.1647 11.4857 66.0098 11.4086 65.8548 11.4086C64.3828 11.6398 62.8333 11.8711 61.3612 12.1794C59.4243 12.5648 57.4874 12.9503 55.5505 13.4128C54.0785 13.7211 52.529 13.9524 51.0569 14.1836C49.8173 14.4149 48.5002 14.5691 47.3381 15.1086C47.3381 15.3399 47.3381 15.4941 47.3381 15.6482C47.3381 15.8795 47.4155 16.1107 47.493 16.342C47.648 16.8816 47.9579 17.1899 48.5002 17.1129C49.0425 17.0358 49.5074 16.9587 50.0497 16.8045C51.5992 16.4191 53.2262 15.8795 54.7758 15.6482C56.5577 15.417 58.1847 14.8003 59.8892 14.4149C60.7414 14.1836 61.5936 13.9524 62.4459 13.7982C63.5305 13.5669 64.6927 13.4899 65.7774 13.3357C66.1647 13.2586 66.5521 13.1815 67.017 13.0274C66.7071 12.4107 66.5521 11.9482 66.3972 11.4857ZM104.515 60.4345C104.593 60.3574 104.67 60.2032 104.67 60.1262C105.058 57.8907 105.135 55.5782 104.98 53.3427C104.903 52.2635 105.058 51.1072 104.748 50.0281C105.135 48.4093 104.67 46.7905 104.98 45.1717C105.213 43.7842 104.748 43.0904 103.431 42.6279C102.578 42.3196 101.649 42.0112 100.719 41.7029C100.487 42.3967 100.564 43.0133 100.874 43.4758C101.649 43.7842 102.346 44.0154 103.043 44.2467C103.663 44.478 104.051 44.8634 104.051 45.5571C104.128 46.7905 104.205 48.0238 104.205 49.1801C104.205 50.7218 104.36 52.3406 104.051 53.8823C103.973 54.4219 103.973 54.9615 103.973 55.424C103.973 56.8115 103.818 58.199 102.424 59.1241C102.114 59.3553 102.191 60.0491 102.578 60.1262C103.276 60.3574 103.818 60.7428 104.515 60.4345ZM41.0625 16.2649C38.8932 16.8816 36.8013 17.4212 34.477 18.0379C35.0194 18.4233 35.4067 18.7316 35.7941 18.8087C36.8788 19.04 37.886 19.5025 38.7382 20.0421C39.8229 19.7337 40.7526 19.4254 41.6823 19.1171C41.9147 18.0379 41.5274 17.1899 41.0625 16.2649ZM101.029 45.0946C100.951 45.403 100.874 45.5571 100.874 45.6342C101.261 49.3343 101.649 53.0344 102.036 56.8115C102.036 56.8886 102.036 56.9657 102.114 56.9657C102.191 56.9657 102.191 56.9657 102.346 56.8886C102.424 56.7344 102.501 56.5032 102.501 56.2719C102.578 55.8865 102.578 55.424 102.578 55.0386C102.578 53.651 102.424 52.2635 102.811 50.876C102.888 50.7218 102.888 50.4906 102.811 50.3364C102.501 48.7947 102.578 47.3301 102.888 45.7113C102.346 45.5571 101.726 45.3259 101.029 45.0946ZM47.5705 23.8192C47.1831 22.5859 46.021 22.3546 45.3237 21.5838C45.0913 21.2754 44.7039 21.4296 44.3165 21.3525C44.0841 21.3525 43.9291 21.1983 43.6967 21.0442C43.2318 20.8129 42.767 20.6588 42.2246 20.5046C41.8373 20.3504 41.4499 20.5046 41.0625 20.8129C40.5976 21.1983 40.6751 21.8921 41.2175 22.0463C42.5345 22.3546 43.5417 23.1255 44.5489 23.8963C45.0138 24.2817 45.5561 24.5901 46.021 24.9755C46.7957 24.7442 47.2606 24.513 47.5705 23.8192ZM53.4587 57.5824C53.3812 57.8907 53.3037 58.0449 53.3037 58.122C53.4587 59.972 53.7686 61.7449 53.6911 63.6721C53.6911 64.2117 53.846 64.6742 53.9235 65.2138C54.001 65.445 54.001 65.8304 54.4659 65.8304C55.9379 64.52 55.5505 62.67 55.7055 61.0512C55.2406 59.8178 54.9307 58.4303 53.4587 57.5824ZM93.9786 11.0232C92.8165 10.1752 92.8165 10.1752 92.1967 10.021C91.3444 9.78979 90.4922 9.55854 89.64 9.40437C89.0976 9.2502 88.4778 9.09603 87.9355 9.01895C87.1607 8.86478 86.4635 8.86478 85.6887 9.2502C85.9211 10.021 86.6184 10.1752 87.0058 10.7148C87.3932 11.2544 87.9355 11.3315 88.5553 11.3315C88.9427 11.3315 89.3301 11.3315 89.7949 11.2544C91.112 11.1002 92.5066 11.1002 93.9786 11.0232ZM74.2222 13.4899C73.9123 14.8003 74.1448 15.8024 74.5321 16.7274C75.152 17.1899 75.6168 17.6524 76.1591 18.0379C76.779 18.5004 77.3988 18.4233 78.1735 17.8066C77.3213 16.0337 75.7718 14.9545 74.2222 13.4899Z" fill="#0B2F5B"/>
<path fill-rule="evenodd" clip-rule="evenodd" d="M81.1172 93.8892C81.2721 93.3496 81.582 92.8871 82.0469 92.5017C82.8217 91.885 83.5964 91.3454 84.2162 90.4975C84.2937 90.3433 84.5261 90.1891 84.7586 90.1891C85.6108 90.1121 86.1531 89.4954 86.7729 89.11C87.3153 88.8016 87.8576 88.5704 88.3225 88.262C90.4143 86.9516 92.7386 86.1037 94.9854 85.1016C96.38 85.0245 97.5421 84.1765 98.8592 83.8682C100.099 83.6369 101.183 82.9432 102.346 82.5578C103.74 82.0182 105.29 81.7098 106.529 80.3994C106.762 81.4015 106.994 82.0952 107.227 82.789C107.459 83.714 107.924 84.639 108.544 85.4099C108.931 85.8724 109.473 86.1807 110.093 86.2578C111.72 86.412 113.27 86.9516 114.897 87.2599C116.136 87.4912 117.376 88.0308 118.771 87.7224C119.235 87.6454 119.855 87.9537 120.398 87.9537C122.179 87.9537 124.039 87.9537 125.821 87.7224C126.906 87.5683 127.99 87.5683 129.075 87.5683C130.779 87.5683 132.329 86.9516 133.878 86.6433C135.66 86.2578 137.365 85.4099 139.302 85.3328C141.161 84.562 143.253 84.562 145.112 83.5599C146.042 83.0203 147.127 82.7119 147.979 82.0952C149.141 81.4015 150.458 80.939 151.698 80.3223C152.473 80.014 153.17 79.6285 153.867 79.2431C156.037 77.9327 158.206 76.6222 160.298 75.3118C162.002 74.3097 163.397 72.9222 164.636 71.3805C164.946 70.995 165.101 70.3784 165.256 69.9158C165.334 69.6846 165.334 69.2221 165.179 69.145C164.404 68.6054 164.636 67.6033 164.249 66.9866C163.939 66.5241 163.939 65.9845 164.017 65.4449C164.714 65.2137 165.411 64.9053 166.108 64.7512C166.961 64.5199 167.813 64.3657 168.665 64.2116C169.517 64.0574 170.37 63.9032 171.299 63.8262C173.159 63.5949 175.018 63.3636 176.878 63.2866C178.814 63.2095 180.674 63.2095 182.611 63.2095C184.083 63.2095 185.555 63.2866 187.027 63.5949C188.112 63.8262 189.196 64.3657 190.203 64.9053C191.521 65.7533 192.063 67.1408 192.295 68.6054C192.373 68.9908 192.218 69.3763 192.14 69.7617C191.598 71.3034 191.056 72.8451 190.513 74.3868C190.513 74.4639 190.436 74.618 190.436 74.6951C189.351 76.3139 188.731 78.241 187.259 79.6285C186.949 79.9369 186.717 80.3223 186.407 80.6306C185.09 82.4807 183.618 84.2536 181.914 85.7953C181.139 86.4891 180.441 87.1828 179.667 87.9537C178.04 89.5725 176.18 90.8829 174.321 92.2704C173.779 92.6559 173.159 93.0413 172.616 93.5038C171.919 94.1205 171.144 94.5059 170.292 94.7372C170.137 94.7372 169.982 94.8142 169.827 94.8913C168.278 95.9705 166.496 96.7414 164.791 97.5893C164.559 97.7435 164.326 97.8976 164.094 98.0518C163.087 98.6685 162.235 99.4393 161.15 99.8247C160.065 100.21 159.136 100.981 158.051 101.289C157.973 101.289 157.973 101.289 157.896 101.366C156.889 102.291 155.649 102.6 154.41 103.139C154.022 103.294 153.635 103.525 153.247 103.756C152.86 103.987 152.473 104.141 152.085 104.296C151.853 104.373 151.62 104.373 151.465 104.527C149.606 105.529 147.592 105.992 145.655 106.685C145.19 106.839 144.725 106.994 144.26 107.071C142.013 107.302 139.844 107.919 137.597 107.996C137.287 107.996 136.977 107.996 136.59 107.996C134.421 107.996 132.329 107.996 130.16 107.996C129.927 107.996 129.772 108.073 129.54 108.15C129.152 108.15 128.765 108.15 128.455 108.15C127.99 108.15 127.448 107.996 126.983 107.996C125.046 107.919 123.187 107.687 121.327 107.302C120.01 106.994 118.693 106.685 117.376 106.223C115.517 105.529 113.657 104.912 111.72 104.527C109.086 103.987 106.607 103.062 103.973 102.677C103.508 102.6 103.12 102.523 102.656 102.523C101.571 102.369 100.486 102.214 99.4015 102.06C98.007 101.829 96.6124 101.444 95.2178 101.212C93.7458 100.981 92.2737 100.596 90.8017 100.21C90.1819 100.056 89.5621 99.7477 89.0197 99.4393C87.6252 98.7456 86.2306 97.9747 84.836 97.2039C83.9838 96.7414 83.209 96.1247 82.4343 95.5851C81.892 94.8913 81.4271 94.4288 81.1172 93.8892Z" fill="#95E5D4"/>
<path fill-rule="evenodd" clip-rule="evenodd" d="M163.474 64.2116C165.799 62.9783 168.278 62.5928 170.68 62.2845C171.454 62.2074 172.229 62.0532 172.926 61.9762C173.624 61.8991 174.321 61.822 175.018 61.7449C175.251 61.7449 175.561 61.7449 175.87 61.6678C177.652 61.1282 179.434 61.3595 181.216 61.4366C181.604 61.4366 181.991 61.5137 182.378 61.5137C184.548 61.3595 186.64 61.6678 188.654 62.4387C188.731 62.4387 188.886 62.5158 188.964 62.5158C190.204 62.5158 190.978 63.3637 191.985 64.0574C193.07 64.8283 193.38 65.9846 193.845 67.0638C194.077 67.6804 194.077 68.4513 194 69.145C194 70.0701 193.845 70.9951 193.69 71.9201C193.69 72.1514 193.612 72.5368 193.458 72.6909C192.683 73.8472 192.45 75.3118 191.753 76.5452C191.056 77.7015 190.281 78.8577 189.584 80.014C189.351 80.3223 189.119 80.6307 188.886 80.939C186.717 83.7141 184.16 86.1037 181.681 88.5704C179.977 90.2663 178.117 91.808 176.18 93.2726C174.863 94.2747 173.469 95.1226 172.152 96.0476C171.377 96.5101 170.447 96.8185 169.672 97.281C168.665 97.8206 167.658 98.3602 166.651 98.8998C165.179 99.7477 163.552 100.519 162.08 101.366C160.995 101.983 159.833 102.446 158.826 103.139C157.973 103.756 156.889 104.142 155.882 104.527C155.494 104.681 155.029 104.835 154.642 105.067C153.17 106.069 151.543 106.608 149.916 107.225C149.684 107.302 149.451 107.456 149.219 107.61C148.831 107.765 148.444 108.073 148.057 108.15C146.352 108.612 144.648 108.998 143.021 109.46C142.711 109.537 142.401 109.537 142.013 109.537C141.704 109.537 141.316 109.46 141.006 109.615C139.612 110.154 138.217 109.846 136.745 110C134.653 110.308 132.484 109.769 130.392 110.154C128.378 109.846 126.363 110.154 124.349 109.846C124.116 109.846 123.807 109.769 123.574 109.692C122.954 109.383 122.335 109.229 121.637 109.383C121.482 109.383 121.327 109.383 121.172 109.306C119.623 108.844 118.151 108.381 116.601 107.996C116.059 107.842 115.517 107.687 115.052 107.533C114.432 107.379 113.89 107.302 113.347 106.917C113.27 106.84 113.192 106.84 113.037 106.762C111.565 106.377 110.093 105.992 108.544 105.76C107.537 105.606 106.529 105.298 105.522 104.989C104.98 104.835 104.438 104.758 103.895 104.681C102.578 104.527 101.184 104.527 99.8664 103.91C99.7115 103.833 99.4016 103.833 99.2466 103.756C97.5422 103.602 95.8377 103.448 94.2882 102.831C91.3441 102.6 88.8648 100.981 86.0757 100.056C85.3784 99.8248 84.7586 99.3623 84.1388 98.8998C82.9767 98.0518 81.7371 97.3581 80.6524 96.4331C79.8001 95.6622 79.1803 94.8143 79.0254 93.9663C79.2578 92.1934 80.42 91.2684 81.3497 90.1892C81.5046 89.9579 81.7371 89.8038 81.9695 89.6496C84.2163 88.2621 86.3081 86.7204 88.7099 85.5641C89.3297 85.2558 90.027 85.0245 90.6468 84.7933C92.0414 84.1766 93.4359 83.5599 94.8305 82.9432C95.0629 82.8661 95.2954 82.712 95.6053 82.6349C96.9224 82.4036 98.2394 81.9411 99.4791 81.4015C100.021 81.1703 100.486 80.939 101.029 81.0161C101.184 81.0161 101.338 81.0161 101.493 80.939C102.811 80.3994 104.205 80.1682 105.6 79.8598C105.832 79.7827 106.065 79.6286 106.297 79.4744C105.987 76.6223 105.677 73.9243 105.367 71.1493C105.29 70.4555 105.057 69.7617 104.98 69.068C104.592 66.8325 104.205 64.597 104.128 62.2845C104.128 61.8991 104.128 61.5137 104.128 61.1282C104.205 59.4324 104.283 57.7365 104.283 56.0406C104.283 55.4239 104.67 54.9614 104.67 54.4989C104.592 53.4197 105.212 52.8031 105.91 52.1864C107.304 50.7989 108.931 49.6426 110.558 48.5634C111.875 47.7155 113.27 46.8675 114.664 46.0967C115.439 45.6342 116.291 45.2488 117.144 44.8633C119.235 43.8612 121.405 42.9362 123.652 42.1654C125.743 41.4716 127.913 41.0862 130.005 40.4695C131.942 39.9299 134.033 40.007 135.97 39.3903C137.985 38.7736 140.077 38.7736 142.168 38.6966C143.563 38.6195 144.88 38.3882 146.275 38.6966C146.507 38.7736 146.817 38.6966 147.049 38.6195C148.212 38.3111 149.451 38.234 150.613 38.234C151.543 38.157 152.24 38.5424 152.938 38.9278C153.17 39.082 153.402 39.3903 153.48 39.6987C153.945 40.7008 154.41 41.6258 154.797 42.705C155.417 44.2467 156.037 45.8654 156.579 47.4071C156.734 47.8696 156.889 48.3322 157.044 48.7947C157.896 50.7218 158.283 52.726 158.981 54.6531C159.058 55.0385 159.213 55.3469 159.446 55.6552C160.065 56.5802 160.685 57.5823 161.073 58.6615C161.847 60.5886 162.622 62.3616 163.474 64.2116ZM81.1172 93.8893C81.4271 94.5059 81.892 94.8914 82.4343 95.2768C83.2091 95.8164 83.9839 96.4331 84.8361 96.8956C86.2307 97.6664 87.6252 98.4373 89.0198 99.131C89.5621 99.4394 90.1819 99.7477 90.8017 99.9019C92.2738 100.287 93.7458 100.673 95.2179 100.904C96.6125 101.135 98.007 101.521 99.4016 101.752C100.486 101.983 101.571 102.137 102.656 102.214C103.12 102.292 103.508 102.369 103.973 102.369C106.607 102.754 109.164 103.679 111.72 104.219C113.657 104.604 115.517 105.221 117.376 105.914C118.616 106.377 119.933 106.762 121.327 106.994C123.187 107.379 125.124 107.61 126.983 107.687C127.448 107.687 127.99 107.842 128.455 107.842C128.842 107.842 129.23 107.842 129.54 107.842C129.772 107.842 130.005 107.687 130.16 107.687C132.329 107.687 134.421 107.687 136.59 107.687C136.9 107.687 137.21 107.687 137.597 107.687C139.844 107.61 142.013 106.994 144.26 106.762C144.725 106.685 145.19 106.531 145.655 106.377C147.592 105.683 149.606 105.221 151.465 104.219C151.62 104.142 151.853 104.064 152.085 103.987C152.473 103.833 152.86 103.602 153.247 103.448C153.635 103.217 154.022 102.985 154.41 102.831C155.572 102.291 156.889 102.06 157.896 101.058C157.896 101.058 157.973 100.981 158.051 100.981C159.136 100.673 160.065 99.979 161.15 99.5165C162.235 99.131 163.087 98.3602 164.094 97.7435C164.327 97.5893 164.559 97.4352 164.791 97.281C166.496 96.4331 168.278 95.7393 169.827 94.583C169.982 94.5059 170.137 94.4289 170.292 94.4289C171.144 94.1976 171.919 93.8122 172.616 93.1955C173.159 92.733 173.779 92.3476 174.321 91.9621C176.18 90.5746 178.04 89.3413 179.667 87.6454C180.364 86.8745 181.139 86.1808 181.914 85.487C183.618 83.9453 185.09 82.2495 186.407 80.3223C186.64 79.9369 186.95 79.6286 187.259 79.3202C188.731 77.9327 189.351 76.0056 190.436 74.3868C190.513 74.3097 190.513 74.1556 190.513 74.0785C191.056 72.5368 191.598 70.9951 192.14 69.4534C192.295 69.068 192.373 68.6825 192.295 68.2971C192.14 66.7554 191.521 65.3679 190.204 64.597C189.274 63.9804 188.112 63.5179 187.027 63.2866C185.555 62.9783 184.083 62.9012 182.611 62.9012C180.674 62.8241 178.737 62.9012 176.878 62.9783C175.018 63.0553 173.159 63.2866 171.299 63.5179C170.447 63.5949 169.595 63.7491 168.665 63.9033C167.813 64.0574 166.961 64.2116 166.108 64.4429C165.411 64.597 164.791 64.9054 164.017 65.1366C163.939 65.6762 163.939 66.2158 164.249 66.6783C164.636 67.3721 164.481 68.2971 165.179 68.8367C165.334 68.9909 165.334 69.3763 165.256 69.6076C165.101 70.1471 164.946 70.6867 164.636 71.0722C163.397 72.6139 162.002 73.9243 160.298 75.0035C158.128 76.3139 156.037 77.6244 153.867 78.9348C153.17 79.3202 152.395 79.7057 151.698 80.014C150.458 80.5536 149.141 81.0161 147.979 81.7869C147.049 82.4036 146.042 82.712 145.112 83.2516C143.331 84.1766 141.239 84.2537 139.302 85.0245C137.442 85.1016 135.738 85.9495 133.878 86.3349C132.251 86.6433 130.702 87.26 129.075 87.26C127.99 87.26 126.906 87.26 125.821 87.4141C124.039 87.6454 122.18 87.6454 120.398 87.6454C119.855 87.6454 119.313 87.3371 118.771 87.4141C117.376 87.7225 116.136 87.1829 114.897 86.9516C113.27 86.6433 111.72 86.1037 110.093 85.9495C109.473 85.8724 108.931 85.5641 108.544 85.1016C107.846 84.3307 107.459 83.4828 107.227 82.4807C106.994 81.7869 106.839 81.0932 106.529 80.0911C105.29 81.3244 103.74 81.7099 102.346 82.2495C101.184 82.712 100.021 83.3286 98.8593 83.5599C97.5422 83.8682 96.38 84.7162 94.9855 84.7933C92.7387 85.7954 90.4144 86.6433 88.3225 87.9537C87.7802 88.2621 87.2379 88.4933 86.773 88.8017C86.1532 89.1871 85.5334 89.7267 84.7586 89.8808C84.5262 89.8808 84.2938 90.035 84.2163 90.1892C83.674 91.0371 82.8217 91.5767 82.047 92.1934C81.5821 92.8872 81.2722 93.2726 81.1172 93.8893ZM105.832 59.124C105.755 59.4324 105.677 59.5094 105.677 59.5865C105.755 61.6678 105.832 63.7491 105.987 65.7533C105.987 66.0617 106.065 66.2929 106.142 66.5242C106.219 67.1408 106.374 67.8346 106.452 68.4513C106.684 69.6846 106.684 70.918 107.149 72.1513C107.382 72.8451 107.769 73.2305 108.544 73.3076C109.396 73.3847 110.326 73.4618 111.178 73.5389C112.185 73.693 113.192 73.9243 114.2 74.0785C115.207 74.2326 116.136 74.3097 117.144 74.2326C118.461 74.1556 119.778 74.1556 121.095 74.0785C121.56 74.0785 121.947 74.0014 122.412 73.9243C122.954 73.8472 123.497 73.7701 124.039 73.693C124.426 73.616 124.814 73.616 125.201 73.5389C126.441 73.3847 127.68 73.1535 128.92 72.9993C129.23 72.9222 129.54 72.8451 129.85 72.768C130.392 72.6139 131.012 72.4597 131.554 72.3055C132.251 72.1514 132.949 72.0743 133.646 71.7659C135.815 70.8409 138.217 70.7638 140.231 69.4534C140.309 69.4534 140.309 69.4534 140.386 69.4534C141.394 69.145 142.401 68.8367 143.331 68.3742C145.267 67.5263 147.127 66.5242 149.064 65.5991C149.684 65.2908 150.303 64.9054 150.846 64.4429C151.93 63.5949 152.938 62.747 154.022 61.8991C154.41 61.5907 154.797 61.3595 154.719 60.7428C154.719 60.5115 154.952 60.2803 155.107 60.049C156.192 58.8157 157.121 57.5052 158.128 56.1948C157.586 54.8073 157.044 53.4197 156.501 52.0322C155.959 50.6447 155.572 49.2572 154.952 47.8696C154.332 46.5592 153.867 45.1717 153.17 43.7841C152.783 44.2467 152.473 44.555 152.085 44.9404C151.233 45.7113 150.536 46.6363 149.606 47.33C146.12 49.9509 142.401 52.1093 138.45 53.8052C134.886 55.3469 131.244 56.6573 127.525 57.8907C126.518 58.199 125.511 58.5073 124.504 58.7386C121.947 59.2011 119.313 59.5865 116.756 60.1261C115.129 60.4345 113.502 60.1261 111.875 60.5115C111.72 60.5115 111.565 60.4345 111.41 60.4345C109.861 60.3574 108.389 59.972 107.072 59.2011C106.684 59.2782 106.297 59.2011 105.832 59.124ZM107.769 74.4639C107.304 75.7743 107.537 76.8535 107.769 77.9327C107.924 78.7036 108.079 79.5515 108.234 80.3223C108.466 81.4015 108.699 82.5578 109.241 83.5599C109.628 84.3307 110.248 84.7162 111.023 84.8703C112.573 85.1787 114.122 85.487 115.672 85.7954C116.446 85.9495 117.144 86.1037 117.918 86.1037C119.855 86.1808 121.715 86.3349 123.652 85.9495C124.426 85.7954 125.201 85.7954 125.898 85.7954C128.3 85.7954 130.547 85.4099 132.871 84.8703C133.491 84.7162 134.188 84.6391 134.731 84.3307C135.273 84.0995 135.815 83.8682 136.435 83.7911C137.132 83.637 137.83 83.4828 138.527 83.3286C139.922 82.9432 141.239 82.6349 142.633 82.2495C142.866 82.1724 143.176 82.1724 143.408 82.0182C145.345 81.0932 147.204 80.1682 149.141 79.3202C149.916 78.9348 150.691 78.4723 151.62 78.5494C151.775 78.5494 152.008 78.3952 152.163 78.3181C154.719 76.8535 157.199 75.3118 159.678 73.693C160.763 72.9993 161.615 72.0743 162.39 71.1493C162.777 70.6867 162.932 70.2242 162.854 69.6846C162.777 67.8346 162.157 66.2158 161.46 64.52C161.227 63.8262 160.995 63.2095 160.685 62.5158C160.143 61.0511 159.368 59.6636 158.516 58.2761C157.973 58.7386 157.664 59.2011 157.509 59.6636C156.889 61.6678 155.417 63.1324 153.79 64.3658C151.775 65.9075 149.761 67.5263 147.282 68.4513C147.127 68.5284 146.972 68.6054 146.817 68.6825C145.035 69.6846 143.098 70.4555 141.161 71.2263C139.457 71.843 137.752 72.3055 136.048 72.9993C134.421 73.693 132.716 73.9243 131.012 74.4639C130.082 74.7722 129.075 74.6181 128.145 75.1577C127.99 75.2347 127.68 75.2347 127.525 75.2347C126.673 75.3118 125.898 75.3889 125.124 75.5431C122.257 76.2368 119.39 76.1598 116.524 76.0827C113.812 75.8514 110.791 75.3889 107.769 74.4639ZM105.6 55.0385C105.832 55.501 105.91 55.9635 106.219 56.1948C107.614 57.5052 109.319 58.199 111.178 58.3532C112.727 58.4303 114.2 58.5073 115.749 58.3532C117.066 58.199 118.383 58.1219 119.623 57.8907C120.94 57.6594 122.18 57.3511 123.497 57.1969C125.279 56.9656 126.828 56.1177 128.61 55.9635C128.688 55.9635 128.842 55.8865 128.92 55.8865C130.315 55.424 131.709 54.9614 133.104 54.4218C134.731 53.8052 136.358 53.2656 137.985 52.5718C139.224 52.0322 140.464 51.4926 141.704 50.7989C143.253 49.9509 144.803 49.2572 146.275 48.178C147.592 47.1759 148.909 46.2509 150.226 45.2488C151.233 44.4779 152.008 43.4758 152.395 42.3195C152.318 42.0883 152.24 41.9341 152.163 41.7799C151.698 40.8549 150.923 40.4695 149.916 40.4695C149.296 40.4695 148.599 40.4695 147.979 40.3924C146.585 40.0841 145.19 40.0841 143.718 40.2382C142.168 40.3924 140.619 40.3924 139.147 40.6237C137.83 40.8549 136.59 41.0862 135.273 41.1633C134.808 41.1633 134.266 41.2403 133.801 41.3174C131.477 41.857 129.075 42.3195 126.751 42.8591C126.363 42.9362 126.053 43.0904 125.666 43.2446C124.969 43.4758 124.349 43.7071 123.652 43.9383C121.792 44.4779 119.933 45.1717 118.151 46.0967C116.369 47.0217 114.587 47.9467 112.882 49.103C110.791 50.5676 108.621 51.878 106.529 53.2656C106.452 54.2677 106.452 54.2677 105.6 55.0385Z" fill="#0B2F5B"/>
</g>
</svg>
