<svg width="140" height="110" viewBox="0 0 140 110" fill="none" xmlns="http://www.w3.org/2000/svg">
<mask id="mask0_1151_20673" style="mask-type:alpha" maskUnits="userSpaceOnUse" x="0" y="0" width="110" height="110">
<rect width="109.182" height="110" fill="#D9D9D9"/>
</mask>
<g mask="url(#mask0_1151_20673)">
<path d="M85.798 20.5879C85.798 20.5879 98.2436 27.9284 91.1444 46.3238C84.1328 64.7192 62.6598 85.5024 62.6598 85.5024L85.798 20.5879Z" fill="#EBBB01"/>
<path d="M71.425 7.23364C71.425 7.23364 91.408 5.19953 89.4798 30.5816C87.464 55.8753 62.6605 85.5025 62.6605 85.5025H59.5929L71.425 7.23364Z" fill="#0C62D1"/>
<path d="M27.4268 13.1587C27.4268 13.1587 16.4712 15.9888 16.7341 35.357C16.9971 54.7252 43.8164 85.4137 43.8164 85.4137L27.4268 13.1587Z" fill="#0C62D1"/>
<path d="M43.817 6.96797C43.817 6.96797 32.8614 -2.40661 24.6228 13.5125C16.4718 29.4316 43.817 85.5022 43.817 85.5022H48.9004L43.817 6.96797Z" fill="#F4BD0F"/>
<path d="M57.6637 3.51898C57.6637 3.51898 46.971 -8.68566 36.8042 12.3629C26.6374 33.4115 48.8992 85.5023 48.8992 85.5023H54.5085L57.6637 3.51898Z" fill="#FA6142"/>
<path d="M57.6637 3.51913C57.6637 3.51913 70.6352 -7.00516 76.858 13.159C83.0808 33.3232 59.6796 85.414 59.6796 85.414H54.5962L57.6637 3.51913Z" fill="#EBBB01"/>
<path d="M49.1625 101.156V106.639C49.1625 108.497 50.6524 110 52.493 110H54.5088C56.3493 110 57.8393 108.497 57.8393 106.639V101.156H49.1625Z" fill="#0C62D1"/>
<path d="M43.8169 85.5029C43.9922 86.3873 49.1632 101.157 49.1632 101.157" stroke="#353140" stroke-width="0.25" stroke-miterlimit="10"/>
<path d="M62.6597 85.5029L57.9269 101.157" stroke="#353140" stroke-width="0.25" stroke-miterlimit="10"/>
</g>
<mask id="mask1_1151_20673" style="mask-type:alpha" maskUnits="userSpaceOnUse" x="78" y="29" width="62" height="63">
<rect x="78.3651" y="29.2739" width="61.635" height="62.0968" fill="#D9D9D9"/>
</mask>
<g mask="url(#mask1_1151_20673)">
<path d="M126.801 40.8955C126.801 40.8955 133.827 45.0393 129.819 55.4238C125.861 65.8083 113.739 77.5408 113.739 77.5408L126.801 40.8955Z" fill="#EBBB01"/>
<path d="M118.688 33.3569C118.688 33.3569 129.968 32.2086 128.88 46.5372C127.742 60.8159 113.74 77.5409 113.74 77.5409H112.008L118.688 33.3569Z" fill="#0C62D1"/>
<path d="M93.8493 36.7017C93.8493 36.7017 87.6647 38.2993 87.8131 49.233C87.9616 60.1666 103.102 77.4908 103.102 77.4908L93.8493 36.7017Z" fill="#0C62D1"/>
<path d="M103.101 33.207C103.101 33.207 96.9169 27.9149 92.266 36.9015C87.6647 45.8881 103.101 77.5409 103.101 77.5409H105.971L103.101 33.207Z" fill="#F4BD0F"/>
<path d="M110.919 31.26C110.919 31.26 104.883 24.3702 99.1433 36.2525C93.404 48.1348 105.971 77.5409 105.971 77.5409H109.138L110.919 31.26Z" fill="#FA6142"/>
<path d="M110.918 31.2602C110.918 31.2602 118.241 25.319 121.754 36.702C125.267 48.0851 112.056 77.4912 112.056 77.4912H109.186L110.918 31.2602Z" fill="#EBBB01"/>
<path d="M106.118 86.3779V89.4733C106.118 90.5217 106.959 91.3705 107.998 91.3705H109.136C110.175 91.3705 111.017 90.5217 111.017 89.4733V86.3779H106.118Z" fill="#0C62D1"/>
<path d="M103.1 77.5415C103.199 78.0408 106.118 86.3783 106.118 86.3783" stroke="#353140" stroke-width="0.25" stroke-miterlimit="10"/>
<path d="M113.737 77.5415L111.066 86.3783" stroke="#353140" stroke-width="0.25" stroke-miterlimit="10"/>
</g>
</svg>
