<svg width="161" height="45" viewBox="0 0 161 45" fill="none" xmlns="http://www.w3.org/2000/svg">
<path d="M114.586 15.1406L111.188 25H109.133L113.414 13.625H114.727L114.586 15.1406ZM117.43 25L114.023 15.1406L113.875 13.625H115.195L119.492 25H117.43ZM117.266 20.7812V22.3359H111.078V20.7812H117.266ZM122.609 23.125L124.562 16.5469H125.766L125.438 18.5156L123.469 25H122.391L122.609 23.125ZM121.461 16.5469L122.984 23.1562L123.109 25H121.906L119.617 16.5469H121.461ZM127.594 23.0781L129.07 16.5469H130.906L128.625 25H127.422L127.594 23.0781ZM125.969 16.5469L127.898 23.0469L128.141 25H127.062L125.07 18.5078L124.742 16.5469H125.969ZM136.953 23.3047V19.2734C136.953 18.9714 136.898 18.7109 136.789 18.4922C136.68 18.2734 136.513 18.1042 136.289 17.9844C136.07 17.8646 135.794 17.8047 135.461 17.8047C135.154 17.8047 134.888 17.8568 134.664 17.9609C134.44 18.0651 134.266 18.2057 134.141 18.3828C134.016 18.5599 133.953 18.7604 133.953 18.9844H132.078C132.078 18.651 132.159 18.3281 132.32 18.0156C132.482 17.7031 132.716 17.4245 133.023 17.1797C133.331 16.9349 133.698 16.7422 134.125 16.6016C134.552 16.4609 135.031 16.3906 135.562 16.3906C136.198 16.3906 136.76 16.4974 137.25 16.7109C137.745 16.9245 138.133 17.2474 138.414 17.6797C138.701 18.1068 138.844 18.6432 138.844 19.2891V23.0469C138.844 23.4323 138.87 23.7786 138.922 24.0859C138.979 24.388 139.06 24.651 139.164 24.875V25H137.234C137.146 24.7969 137.076 24.5391 137.023 24.2266C136.977 23.9089 136.953 23.6016 136.953 23.3047ZM137.227 19.8594L137.242 21.0234H135.891C135.542 21.0234 135.234 21.0573 134.969 21.125C134.703 21.1875 134.482 21.2812 134.305 21.4062C134.128 21.5312 133.995 21.6823 133.906 21.8594C133.818 22.0365 133.773 22.237 133.773 22.4609C133.773 22.6849 133.826 22.8906 133.93 23.0781C134.034 23.2604 134.185 23.4036 134.383 23.5078C134.586 23.612 134.831 23.6641 135.117 23.6641C135.503 23.6641 135.839 23.5859 136.125 23.4297C136.417 23.2682 136.646 23.0729 136.812 22.8438C136.979 22.6094 137.068 22.388 137.078 22.1797L137.688 23.0156C137.625 23.2292 137.518 23.4583 137.367 23.7031C137.216 23.9479 137.018 24.1823 136.773 24.4062C136.534 24.625 136.245 24.8047 135.906 24.9453C135.573 25.0859 135.188 25.1562 134.75 25.1562C134.198 25.1562 133.706 25.0469 133.273 24.8281C132.841 24.6042 132.503 24.3047 132.258 23.9297C132.013 23.5495 131.891 23.1198 131.891 22.6406C131.891 22.1927 131.974 21.7969 132.141 21.4531C132.312 21.1042 132.562 20.8125 132.891 20.5781C133.224 20.3438 133.63 20.1667 134.109 20.0469C134.589 19.9219 135.135 19.8594 135.75 19.8594H137.227ZM142.703 18.1562V25H140.82V16.5469H142.617L142.703 18.1562ZM145.289 16.4922L145.273 18.2422C145.159 18.2214 145.034 18.2057 144.898 18.1953C144.768 18.1849 144.638 18.1797 144.508 18.1797C144.185 18.1797 143.901 18.2266 143.656 18.3203C143.411 18.4089 143.206 18.5391 143.039 18.7109C142.878 18.8776 142.753 19.0807 142.664 19.3203C142.576 19.5599 142.523 19.8281 142.508 20.125L142.078 20.1562C142.078 19.625 142.13 19.1328 142.234 18.6797C142.339 18.2266 142.495 17.8281 142.703 17.4844C142.917 17.1406 143.182 16.8724 143.5 16.6797C143.823 16.487 144.195 16.3906 144.617 16.3906C144.732 16.3906 144.854 16.401 144.984 16.4219C145.12 16.4427 145.221 16.4661 145.289 16.4922ZM151.469 23.25V13H153.359V25H151.648L151.469 23.25ZM145.969 20.8672V20.7031C145.969 20.0625 146.044 19.4792 146.195 18.9531C146.346 18.4219 146.565 17.9661 146.852 17.5859C147.138 17.2005 147.487 16.9062 147.898 16.7031C148.31 16.4948 148.773 16.3906 149.289 16.3906C149.799 16.3906 150.247 16.4896 150.633 16.6875C151.018 16.8854 151.346 17.1693 151.617 17.5391C151.888 17.9036 152.104 18.3411 152.266 18.8516C152.427 19.3568 152.542 19.9193 152.609 20.5391V21.0625C152.542 21.6667 152.427 22.2188 152.266 22.7188C152.104 23.2188 151.888 23.651 151.617 24.0156C151.346 24.3802 151.016 24.6615 150.625 24.8594C150.24 25.0573 149.789 25.1562 149.273 25.1562C148.763 25.1562 148.302 25.0495 147.891 24.8359C147.484 24.6224 147.138 24.3229 146.852 23.9375C146.565 23.5521 146.346 23.099 146.195 22.5781C146.044 22.0521 145.969 21.4818 145.969 20.8672ZM147.852 20.7031V20.8672C147.852 21.2526 147.885 21.612 147.953 21.9453C148.026 22.2786 148.138 22.5729 148.289 22.8281C148.44 23.0781 148.635 23.276 148.875 23.4219C149.12 23.5625 149.411 23.6328 149.75 23.6328C150.177 23.6328 150.529 23.5391 150.805 23.3516C151.081 23.1641 151.297 22.9115 151.453 22.5938C151.615 22.2708 151.724 21.9115 151.781 21.5156V20.1016C151.75 19.7943 151.685 19.5078 151.586 19.2422C151.492 18.9766 151.365 18.7448 151.203 18.5469C151.042 18.3438 150.841 18.1875 150.602 18.0781C150.367 17.9635 150.089 17.9062 149.766 17.9062C149.422 17.9062 149.13 17.9792 148.891 18.125C148.651 18.2708 148.453 18.4714 148.297 18.7266C148.146 18.9818 148.034 19.2786 147.961 19.6172C147.888 19.9557 147.852 20.3177 147.852 20.7031Z" fill="black"/>
<path d="M113.008 38.4453L115.273 29.625H116.461L116.328 31.8984L113.906 41H112.672L113.008 38.4453ZM111.312 29.625L113.148 38.375L113.312 41H112L109.367 29.625H111.312ZM119.031 38.3516L120.844 29.625H122.797L120.164 41H118.852L119.031 38.3516ZM116.922 29.625L119.164 38.4688L119.492 41H118.258L115.875 31.8984L115.75 29.625H116.922ZM126.078 32.5469V41H124.188V32.5469H126.078ZM124.062 30.3281C124.062 30.0417 124.156 29.8047 124.344 29.6172C124.536 29.4245 124.802 29.3281 125.141 29.3281C125.474 29.3281 125.737 29.4245 125.93 29.6172C126.122 29.8047 126.219 30.0417 126.219 30.3281C126.219 30.6094 126.122 30.8438 125.93 31.0312C125.737 31.2188 125.474 31.3125 125.141 31.3125C124.802 31.3125 124.536 31.2188 124.344 31.0312C124.156 30.8438 124.062 30.6094 124.062 30.3281ZM130.008 34.3516V41H128.125V32.5469H129.898L130.008 34.3516ZM129.672 36.4609L129.062 36.4531C129.068 35.8542 129.151 35.3047 129.312 34.8047C129.479 34.3047 129.708 33.875 130 33.5156C130.297 33.1562 130.651 32.8802 131.062 32.6875C131.474 32.4896 131.932 32.3906 132.438 32.3906C132.844 32.3906 133.211 32.4479 133.539 32.5625C133.872 32.6719 134.156 32.8516 134.391 33.1016C134.63 33.3516 134.812 33.6771 134.938 34.0781C135.062 34.474 135.125 34.9609 135.125 35.5391V41H133.234V35.5312C133.234 35.125 133.174 34.8047 133.055 34.5703C132.94 34.3307 132.771 34.1615 132.547 34.0625C132.328 33.9583 132.055 33.9062 131.727 33.9062C131.404 33.9062 131.115 33.974 130.859 34.1094C130.604 34.2448 130.388 34.4297 130.211 34.6641C130.039 34.8984 129.906 35.1693 129.812 35.4766C129.719 35.7839 129.672 36.112 129.672 36.4609ZM138.914 34.3516V41H137.031V32.5469H138.805L138.914 34.3516ZM138.578 36.4609L137.969 36.4531C137.974 35.8542 138.057 35.3047 138.219 34.8047C138.385 34.3047 138.615 33.875 138.906 33.5156C139.203 33.1562 139.557 32.8802 139.969 32.6875C140.38 32.4896 140.839 32.3906 141.344 32.3906C141.75 32.3906 142.117 32.4479 142.445 32.5625C142.779 32.6719 143.062 32.8516 143.297 33.1016C143.536 33.3516 143.719 33.6771 143.844 34.0781C143.969 34.474 144.031 34.9609 144.031 35.5391V41H142.141V35.5312C142.141 35.125 142.081 34.8047 141.961 34.5703C141.846 34.3307 141.677 34.1615 141.453 34.0625C141.234 33.9583 140.961 33.9062 140.633 33.9062C140.31 33.9062 140.021 33.974 139.766 34.1094C139.51 34.2448 139.294 34.4297 139.117 34.6641C138.945 34.8984 138.812 35.1693 138.719 35.4766C138.625 35.7839 138.578 36.112 138.578 36.4609ZM149.68 41.1562C149.055 41.1562 148.49 41.0547 147.984 40.8516C147.484 40.6432 147.057 40.3542 146.703 39.9844C146.354 39.6146 146.086 39.1797 145.898 38.6797C145.711 38.1797 145.617 37.6406 145.617 37.0625V36.75C145.617 36.0885 145.714 35.4896 145.906 34.9531C146.099 34.4167 146.367 33.9583 146.711 33.5781C147.055 33.1927 147.461 32.8984 147.93 32.6953C148.398 32.4922 148.906 32.3906 149.453 32.3906C150.057 32.3906 150.586 32.4922 151.039 32.6953C151.492 32.8984 151.867 33.1849 152.164 33.5547C152.466 33.9193 152.69 34.3542 152.836 34.8594C152.987 35.3646 153.062 35.9219 153.062 36.5312V37.3359H146.531V35.9844H151.203V35.8359C151.193 35.4974 151.125 35.1797 151 34.8828C150.88 34.5859 150.695 34.3464 150.445 34.1641C150.195 33.9818 149.862 33.8906 149.445 33.8906C149.133 33.8906 148.854 33.9583 148.609 34.0938C148.37 34.224 148.169 34.4141 148.008 34.6641C147.846 34.9141 147.721 35.2161 147.633 35.5703C147.549 35.9193 147.508 36.3125 147.508 36.75V37.0625C147.508 37.4323 147.557 37.776 147.656 38.0938C147.76 38.4062 147.911 38.6797 148.109 38.9141C148.307 39.1484 148.547 39.3333 148.828 39.4688C149.109 39.599 149.43 39.6641 149.789 39.6641C150.242 39.6641 150.646 39.5729 151 39.3906C151.354 39.2083 151.661 38.9505 151.922 38.6172L152.914 39.5781C152.732 39.8438 152.495 40.099 152.203 40.3438C151.911 40.5833 151.555 40.7786 151.133 40.9297C150.716 41.0807 150.232 41.1562 149.68 41.1562ZM156.422 34.1562V41H154.539V32.5469H156.336L156.422 34.1562ZM159.008 32.4922L158.992 34.2422C158.878 34.2214 158.753 34.2057 158.617 34.1953C158.487 34.1849 158.357 34.1797 158.227 34.1797C157.904 34.1797 157.62 34.2266 157.375 34.3203C157.13 34.4089 156.924 34.5391 156.758 34.7109C156.596 34.8776 156.471 35.0807 156.383 35.3203C156.294 35.5599 156.242 35.8281 156.227 36.125L155.797 36.1562C155.797 35.625 155.849 35.1328 155.953 34.6797C156.057 34.2266 156.214 33.8281 156.422 33.4844C156.635 33.1406 156.901 32.8724 157.219 32.6797C157.542 32.487 157.914 32.3906 158.336 32.3906C158.451 32.3906 158.573 32.401 158.703 32.4219C158.839 32.4427 158.94 32.4661 159.008 32.4922Z" fill="black"/>
<path d="M81.144 12.312C82.136 12.536 82.92 13.032 83.496 13.8C84.088 14.552 84.384 15.416 84.384 16.392C84.384 17.832 83.888 18.96 82.896 19.776C81.904 20.592 80.512 21 78.72 21H70.344V4.08H78.456C80.184 4.08 81.536 4.464 82.512 5.232C83.504 6 84 7.08 84 8.472C84 9.464 83.736 10.296 83.208 10.968C82.696 11.624 82.008 12.072 81.144 12.312ZM75.048 10.8H77.424C78.608 10.8 79.2 10.312 79.2 9.336C79.2 8.328 78.608 7.824 77.424 7.824H75.048V10.8ZM77.784 17.208C78.968 17.208 79.56 16.712 79.56 15.72C79.56 15.208 79.4 14.816 79.08 14.544C78.776 14.272 78.336 14.136 77.76 14.136H75.048V17.208H77.784ZM91.1496 7.848V10.608H96.5496V14.184H91.1496V17.232H97.2696V21H86.4456V4.08H97.2696V7.848H91.1496ZM76.728 41.168C74.76 41.168 73.144 40.704 71.88 39.776C70.616 38.832 69.936 37.488 69.84 35.744H74.856C74.904 36.336 75.08 36.768 75.384 37.04C75.688 37.312 76.08 37.448 76.56 37.448C76.992 37.448 77.344 37.344 77.616 37.136C77.904 36.912 78.048 36.608 78.048 36.224C78.048 35.728 77.816 35.344 77.352 35.072C76.888 34.8 76.136 34.496 75.096 34.16C73.992 33.792 73.096 33.44 72.408 33.104C71.736 32.752 71.144 32.248 70.632 31.592C70.136 30.92 69.888 30.048 69.888 28.976C69.888 27.888 70.16 26.96 70.704 26.192C71.248 25.408 72 24.816 72.96 24.416C73.92 24.016 75.008 23.816 76.224 23.816C78.192 23.816 79.76 24.28 80.928 25.208C82.112 26.12 82.744 27.408 82.824 29.072H77.712C77.696 28.56 77.536 28.176 77.232 27.92C76.944 27.664 76.568 27.536 76.104 27.536C75.752 27.536 75.464 27.64 75.24 27.848C75.016 28.056 74.904 28.352 74.904 28.736C74.904 29.056 75.024 29.336 75.264 29.576C75.52 29.8 75.832 30 76.2 30.176C76.568 30.336 77.112 30.544 77.832 30.8C78.904 31.168 79.784 31.536 80.472 31.904C81.176 32.256 81.776 32.76 82.272 33.416C82.784 34.056 83.04 34.872 83.04 35.864C83.04 36.872 82.784 37.776 82.272 38.576C81.776 39.376 81.048 40.008 80.088 40.472C79.144 40.936 78.024 41.168 76.728 41.168ZM97.9708 24.08V27.824H93.4588V41H88.7548V27.824H84.2908V24.08H97.9708Z" fill="black"/>
<mask id="mask0_1151_25976" style="mask-type:alpha" maskUnits="userSpaceOnUse" x="0" y="0" width="54" height="45">
<rect width="54" height="45" fill="#D9D9D9"/>
</mask>
<g mask="url(#mask0_1151_25976)">
<path d="M53.9521 23.5342C53.9352 23.5204 53.9152 23.511 53.8939 23.5068C53.8726 23.5026 53.8506 23.5037 53.8298 23.51C53.7827 23.5245 53.7396 23.5372 53.6988 23.5491L53.6789 23.555C53.5785 23.5845 53.4917 23.6097 53.4058 23.6444C52.048 24.1863 50.979 25.1147 50.1377 26.4824C49.9299 26.8204 49.769 27.1717 49.6408 27.522C49.851 26.3436 49.8997 25.8845 49.937 24.566C49.9387 24.5107 49.9387 24.4544 49.9387 24.3985C49.9387 24.246 49.9387 24.1019 49.9719 23.9704C50.0117 23.8146 50.0917 23.6592 50.1691 23.5089C50.1909 23.4663 50.2127 23.4238 50.2307 23.3864C50.2404 23.3769 50.2521 23.3697 50.2649 23.3655C50.6532 23.3059 50.9966 23.1403 51.3149 22.8593C51.6357 22.5748 51.8995 22.2265 52.0991 21.8238C52.8157 20.3806 53.1742 18.7854 53.1652 17.0831C53.1643 16.9189 53.1451 16.759 53.124 16.5852C53.1139 16.5053 53.1047 16.4252 53.0965 16.3451C53.0943 16.3228 53.0864 16.3015 53.0738 16.2831C53.0611 16.2648 53.0439 16.2499 53.024 16.24C53.0039 16.2303 52.9817 16.2257 52.9594 16.2269C52.9371 16.228 52.9154 16.2347 52.8964 16.2464C52.8721 16.2616 52.8514 16.274 52.8326 16.285C52.7962 16.3067 52.7684 16.3237 52.7422 16.3428C52.131 16.7828 51.5919 17.3307 51.1397 17.9707C50.4017 19.0168 49.9726 20.1997 49.857 21.501L49.8222 21.0658L49.8181 21.0132C49.7728 20.4445 49.7259 19.8564 49.6878 19.2781C49.6782 19.1317 49.6502 18.9892 49.6231 18.8514C49.5708 18.5864 49.5214 18.3361 49.6005 18.0739C49.6185 18.0146 49.6336 17.9549 49.6488 17.8954C49.6861 17.7479 49.8666 17.5207 50.1436 17.2724L50.1541 17.263C50.2562 17.176 50.7811 16.6936 51.0789 15.7396C51.3811 14.7703 51.3582 13.7575 51.3416 13.0179L51.3412 12.9982C51.319 11.9816 51.2096 11.2156 50.9866 10.514C50.9562 10.4226 50.9231 10.3321 50.8872 10.2427C50.8684 10.1943 50.8492 10.1443 50.8294 10.092C50.8215 10.0703 50.808 10.0511 50.7903 10.0363C50.7726 10.0216 50.7513 10.0117 50.7286 10.0078L50.7063 10.0058C50.6868 10.0058 50.6676 10.0102 50.6501 10.0186C50.6325 10.0269 50.617 10.0392 50.6048 10.0543L50.3881 10.3196C49.3491 11.5923 48.8387 13.085 48.8707 14.7563C48.8768 15.0599 48.899 15.363 48.937 15.6643C48.6769 14.7602 48.3678 13.871 48.0111 13.0008C48.0036 12.9811 47.9993 12.9602 47.9985 12.9391L47.9961 12.8219C47.9924 12.6528 47.9886 12.4778 47.9958 12.3057C47.9969 12.2772 48.0153 12.2259 48.0536 12.1755C48.108 12.1033 48.1684 12.0327 48.2309 11.9593C48.3374 11.8348 48.4474 11.7062 48.5346 11.5594C48.8153 11.0871 48.9471 10.5292 48.9493 9.80337C48.9531 8.94895 48.822 8.0498 48.5361 6.97352C48.3799 6.38637 48.1441 5.62358 47.7051 4.93202C47.6741 4.88512 47.6412 4.83954 47.6065 4.7954C47.5895 4.77371 47.5729 4.75173 47.5567 4.72946C47.5318 4.69589 47.4974 4.67631 47.4419 4.67631C47.4201 4.67795 47.399 4.685 47.3805 4.69684C47.362 4.70868 47.3468 4.72493 47.3361 4.74415C46.785 5.74321 46.5105 6.81052 46.4975 8.00712C46.4869 8.86406 46.601 9.71797 46.836 10.5418C46.3427 9.63623 45.7946 8.76186 45.1947 7.92365L45.1811 7.90475C45.1675 7.88667 45.1619 7.87783 45.1628 7.88409C45.1309 7.66056 45.1037 7.43638 45.0813 7.2117C45.0817 7.20884 45.0853 7.19307 45.1131 7.14631C45.1525 7.07888 45.1957 7.01281 45.2416 6.94293C45.3336 6.80236 45.4286 6.6569 45.4895 6.49404C45.6733 6.00246 45.7146 5.44495 45.6154 4.79023C45.3976 3.34119 44.7616 2.03638 43.6715 0.801039C43.5593 0.674202 43.4354 0.562046 43.3042 0.443502L43.2679 0.410467C43.2166 0.363838 43.164 0.316121 43.1108 0.265685C43.0939 0.249566 43.073 0.238244 43.0503 0.23287C43.0276 0.227497 43.0038 0.228266 42.9815 0.235097C42.9596 0.242128 42.9398 0.254771 42.9242 0.271787C42.9085 0.288803 42.8976 0.309608 42.8923 0.332162L42.8685 0.437113C42.8523 0.506717 42.8397 0.561639 42.8303 0.616833C42.6836 1.4964 42.6943 2.43851 42.8632 3.49725C43.0308 4.5473 43.3647 5.45297 43.877 6.23969C43.1088 5.33048 42.3615 4.56701 41.5805 3.89041C41.5764 3.88354 41.5733 3.87606 41.5715 3.86825C41.6325 3.3401 41.5028 2.84254 41.1748 2.34715C40.7439 1.69611 40.1453 1.1999 39.3955 0.872547C38.9468 0.677057 38.4819 0.503998 38.0267 0.334473C37.8086 0.253178 37.5906 0.172154 37.3661 0.0852849C37.1404 -0.00484717 37.0439 -0.0208888 36.9915 0.0277798C36.9241 0.0908586 36.9404 0.144693 36.9698 0.242574L36.9792 0.274521C37.2544 1.20548 37.6196 1.94176 38.0958 2.52538C38.9702 3.59785 39.9928 4.14272 41.2204 4.19085C41.2634 4.19343 41.2975 4.20539 41.3115 4.21627C41.4843 4.34623 41.6115 4.45023 41.724 4.55328C42.0866 4.88675 42.4364 5.23393 42.7727 5.59408C42.263 5.27597 41.6399 5.13241 40.9383 5.16803C40.5543 5.18747 40.1732 5.24402 39.8046 5.29867L39.7905 5.30084C39.6816 5.31689 39.5732 5.33279 39.465 5.34815C39.2282 5.38037 38.9894 5.42252 38.7785 5.45949C38.6931 5.47485 38.4892 5.52148 38.4422 5.62086C38.426 5.65485 38.4273 5.6921 38.4457 5.72595C38.462 5.75545 38.4798 5.78318 38.4993 5.80847C39.108 6.60171 39.8023 7.12415 40.622 7.40542C41.6214 7.75018 42.5393 7.72177 43.3642 7.31624C43.4903 7.2465 43.6424 7.21115 43.8162 7.21115C43.9474 7.21115 44.0458 7.23195 44.0784 7.23943C44.1273 7.24759 44.1936 7.27505 44.2071 7.29272C44.7307 7.98596 45.2162 8.70736 45.6616 9.45372C45.2774 9.07851 44.7765 8.82551 44.0941 8.66074C43.496 8.51759 42.8845 8.48687 42.2933 8.45696L42.0953 8.4469C41.9098 8.43739 41.7244 8.42556 41.5334 8.41346L41.2132 8.39361C41.1928 8.39362 41.1726 8.39847 41.1544 8.40778C41.1361 8.41709 41.1204 8.43058 41.1083 8.44717C41.0952 8.46484 41.0868 8.48554 41.0837 8.50735C41.0807 8.52916 41.0832 8.55138 41.091 8.57197C41.1038 8.60705 41.1273 8.6689 41.1393 8.68956C41.7629 9.73716 42.4951 10.4618 43.3776 10.9049C44.2403 11.3378 45.0197 11.4523 45.806 11.2634C45.9061 11.2403 46.0086 11.229 46.1113 11.2297C46.4458 11.2297 46.679 11.3322 46.728 11.4271C47.1635 12.3305 47.5479 13.2579 47.8795 14.2047C47.5303 13.7212 47.042 13.3284 46.4237 13.0347C45.8095 12.7435 45.17 12.4773 44.5407 12.2153C44.2703 12.103 43.9988 11.9903 43.7285 11.875C43.7085 11.8662 43.6867 11.8625 43.6649 11.8644C43.6432 11.8662 43.6223 11.8734 43.604 11.8854C43.5857 11.8973 43.5707 11.9137 43.5604 11.933C43.55 11.9523 43.5446 11.9739 43.5446 11.9958C43.5446 12.0806 44.4419 14.5821 45.7452 15.5679C46.2769 15.97 46.9317 16.3837 47.7574 16.4031C48.0046 16.4082 48.2601 16.4432 48.4531 16.6636C48.4826 16.6987 48.5217 16.726 48.5644 16.7405C48.6303 16.7623 48.6484 16.8028 48.6809 16.9409C48.9508 18.0837 49.1452 19.2431 49.2631 20.4116C49.2258 20.2889 49.1835 20.1677 49.1364 20.0484C48.8447 19.3054 48.3538 18.6553 47.5915 18.0024C47.1986 17.6644 46.7871 17.3372 46.3892 17.0206L46.3702 17.0056C46.189 16.8614 46.0082 16.7177 45.8279 16.5722C45.7889 16.5404 45.7504 16.508 45.7123 16.475L45.5998 16.3783C45.58 16.3618 45.5559 16.3515 45.5304 16.3484C45.5048 16.3453 45.479 16.3497 45.4558 16.361C45.4327 16.3727 45.4136 16.391 45.4008 16.4136C45.388 16.4362 45.3822 16.462 45.384 16.488C45.3895 16.5678 45.394 16.6432 45.3982 16.7157L45.4003 16.7495C45.4093 16.8987 45.4177 17.0394 45.4327 17.1783C45.5737 18.5311 45.9742 19.6605 46.6571 20.631C47.0797 21.231 47.6861 21.9643 48.6317 22.3111C48.8617 22.3959 49.0286 22.5244 49.2074 22.7549C49.3761 22.9708 49.4075 23.1681 49.4037 23.4163C49.3882 24.4468 49.3147 25.4757 49.1837 26.4979C49.1533 26.2168 49.0889 25.9274 48.9899 25.6266C48.7851 25.004 48.466 24.3986 48.0141 23.776C47.624 23.2368 47.2181 22.6958 46.8256 22.1723L46.7994 22.1373C46.6438 21.93 46.4883 21.7224 46.3368 21.5193C46.3084 21.4776 46.2674 21.4626 46.2437 21.4543C46.2268 21.4461 46.2083 21.4416 46.1895 21.4412C46.1708 21.4407 46.1521 21.4443 46.1348 21.4516C46.1175 21.459 46.102 21.47 46.0892 21.4839C46.0765 21.4977 46.0669 21.5142 46.061 21.5321L46.0564 21.5462C46.0499 21.5653 46.0447 21.5821 46.042 21.599C45.7713 23.2203 45.9374 24.6728 46.5496 26.0402C46.8486 26.7088 47.2496 27.4657 47.9567 28.0103C48.2828 28.2636 48.5315 28.6039 48.6743 28.9924C48.7039 29.0752 48.7028 29.1111 48.6995 29.1249C48.4002 30.3699 48.0093 31.5707 47.5341 32.7072C47.6565 32.1083 47.6481 31.4791 47.5084 30.8272C47.3101 29.9034 46.9693 29.008 46.6653 28.2413L46.5742 28.0117C46.4292 27.6462 46.2845 27.2806 46.14 26.9149C46.1212 26.8669 46.0759 26.8341 46.0154 26.8311C45.9916 26.8313 45.9683 26.8381 45.9482 26.8508C45.928 26.8634 45.9117 26.8814 45.9011 26.9028L45.8534 26.993C45.8324 27.0326 45.8127 27.0694 45.796 27.1075C45.1845 28.4933 44.9779 29.914 45.1824 31.33C45.3286 32.3425 45.5763 33.0675 45.9856 33.6809C46.1974 33.9979 46.3987 34.3511 46.4352 34.7854C46.4439 34.8882 46.4398 34.959 46.3942 35.0397C45.885 35.9371 45.307 36.7933 44.6654 37.6006L44.6726 37.5876C45.1286 36.7505 45.1424 35.8455 45.0958 35.0705C45.0556 34.4062 44.9798 33.7427 44.9069 33.1013L44.9027 33.0642C44.8729 32.8074 44.8445 32.5503 44.8174 32.2931C44.8016 32.1464 44.7848 31.9998 44.767 31.8534L44.7436 31.653C44.7412 31.6314 44.7335 31.6108 44.7211 31.593C44.7087 31.5752 44.6922 31.5608 44.6728 31.551C44.6008 31.5132 44.4843 31.5715 44.3584 31.7211C43.4934 32.7487 42.9566 33.91 42.7628 35.1728C42.5618 36.482 42.6708 37.6025 43.0963 38.5982C43.1077 38.6247 43.1074 38.6788 43.1073 38.6969L43.0844 39.2697C43.081 39.3109 43.0594 39.3574 43.0415 39.3747C42.1838 40.2055 41.2322 40.9325 40.2062 41.5411C40.6893 41.1026 41.0366 40.5304 41.2617 39.8052C41.5111 39.0015 41.6391 38.1651 41.7633 37.354L41.7741 37.2818C41.8181 36.9969 41.864 36.7125 41.9108 36.4218L41.9637 36.0932C41.9675 36.0701 41.965 36.0463 41.9565 36.0244C41.9481 36.0025 41.9339 35.9834 41.9155 35.9688C41.8971 35.9544 41.8751 35.9451 41.852 35.9419C41.8288 35.9387 41.8052 35.9417 41.7836 35.9506L41.7374 35.9698C41.6881 35.9901 41.6452 36.0081 41.6048 36.0289C39.6755 36.9967 38.4055 39.254 38.585 41.3959C38.6132 41.7315 38.5826 42.0466 38.4913 42.3587C38.4828 42.3871 38.4555 42.418 38.4444 42.4231C37.5281 42.8113 36.6568 43.0944 35.7802 43.2888C35.7582 43.2938 35.7379 43.3044 35.7212 43.3195C35.7045 43.3347 35.6919 43.3539 35.6847 43.3753C35.6775 43.3969 35.6759 43.4199 35.6801 43.4423C35.6843 43.4646 35.6943 43.4855 35.709 43.5028C35.8035 43.6149 35.8861 43.7365 35.9554 43.8658C35.9835 43.918 36.0502 43.9448 36.1001 43.9317C36.8035 43.7714 37.4946 43.5607 38.1681 43.3014C38.2213 43.2799 38.2619 43.2697 38.3 43.2759C38.4464 43.2955 38.6011 43.3257 38.7729 43.3685C38.8083 43.3772 38.8377 43.3937 38.8382 43.3922C39.2134 44.1434 39.8582 44.6219 40.8101 44.8548C41.0172 44.9047 41.2308 44.9415 41.4449 44.9641C41.6691 44.9879 41.919 45 42.1877 45C42.5599 45 42.8253 44.9769 42.8286 44.9766C43.6537 44.8839 44.3583 44.6974 44.9824 44.4063C45.2385 44.2871 45.5303 44.1265 45.7546 43.8398C45.7752 43.8134 45.7851 43.7799 45.782 43.7464C45.779 43.7129 45.7633 43.6819 45.7382 43.6596C45.1042 43.0977 44.4587 42.6895 43.7645 42.4116C42.736 42.001 41.7991 41.8898 40.8808 42.0672C40.7455 42.0938 40.6115 42.127 40.4793 42.1665C41.3384 41.6507 42.1609 41.0445 42.9377 40.3539C42.9544 40.3395 42.9745 40.3295 42.9961 40.325C43.1232 40.3038 43.292 40.2776 43.4647 40.2651C43.4807 40.2651 43.501 40.2729 43.5033 40.2737C43.9713 40.7998 44.5743 41.0555 45.3467 41.0555C45.3861 41.0555 45.4257 41.0547 45.465 41.0534C46.3049 41.0262 47.1492 40.7944 47.9749 40.3641C48.5751 40.0497 49.2007 39.6836 49.7079 39.1376C49.8204 39.0162 49.9208 38.8789 50.0095 38.7578L50.0182 38.7459C50.0574 38.6925 50.0971 38.6387 50.1378 38.5855C50.1489 38.5711 50.1569 38.5545 50.1613 38.5368C50.1657 38.5191 50.1665 38.5006 50.1635 38.4826C50.1601 38.4639 50.1528 38.4462 50.1421 38.4305C50.1313 38.4148 50.1174 38.4016 50.1013 38.3917C50.0923 38.3868 49.8775 38.2711 49.6814 38.1948C48.3683 37.6852 47.0425 37.633 45.7778 38.0423C45.3638 38.1759 44.9741 38.3766 44.5947 38.6539C45.2964 37.8347 45.9461 36.9366 46.5359 35.9703C46.5423 35.9602 46.5591 35.9326 46.5645 35.9275C46.616 35.8945 46.6688 35.8632 46.7215 35.8324C46.8158 35.7768 46.9135 35.7193 47.0053 35.6507C47.0827 35.5927 47.1045 35.5912 47.1827 35.6418C47.2935 35.714 47.4222 35.7515 47.5344 35.781C48.1908 35.9498 48.8525 35.8657 49.5845 35.5205C50.2531 35.2057 50.7672 34.708 51.2233 34.2172C51.8868 33.5013 52.3203 32.8554 52.5878 32.1844C52.6439 32.0436 52.684 31.898 52.7257 31.7457C52.7429 31.6818 52.7605 31.6179 52.7791 31.5551C52.7891 31.5227 52.7861 31.4877 52.7709 31.4574C52.7557 31.4272 52.7294 31.404 52.6975 31.3928L52.6426 31.3886C52.372 31.3886 49.9585 31.4284 48.5468 32.8042C48.2414 33.1011 47.9625 33.4243 47.713 33.7699C48.2715 32.582 48.7451 31.3301 49.1268 30.0306L49.1323 30.0116C49.1369 29.9957 49.1438 29.9716 49.1484 29.9651L49.5176 29.4558C49.5314 29.4354 49.5331 29.4354 49.5547 29.4354C49.5643 29.4354 49.5749 29.4361 49.5869 29.4368L49.6658 29.4415C49.9406 29.4587 50.1023 29.4562 50.2354 29.4353C50.7611 29.352 51.2356 29.0861 51.6859 28.6222C52.7391 27.5374 53.464 26.1839 53.902 24.4848C53.949 24.3028 53.9621 24.119 53.9762 23.9241C53.9824 23.8357 53.9893 23.7446 53.9993 23.6505C54.0015 23.6287 53.9984 23.6067 53.9901 23.5864C53.9819 23.5661 53.9688 23.5482 53.9521 23.5342ZM18.2196 43.2878C17.3438 43.0935 16.4727 42.8103 15.5561 42.4222C15.5452 42.417 15.518 42.3862 15.5094 42.3584C15.4181 42.0456 15.3875 41.7305 15.4156 41.395C15.5951 39.2529 14.3251 36.9958 12.3963 36.0281C12.3527 36.0065 12.3084 35.9868 12.2632 35.9688L12.2175 35.9498C12.196 35.9409 12.1725 35.9378 12.1494 35.9408C12.1264 35.9439 12.1045 35.953 12.0861 35.9672C12.0674 35.9817 12.053 36.001 12.0444 36.023C12.0358 36.0451 12.0332 36.0691 12.0371 36.0924L12.0898 36.4209C12.1367 36.7115 12.1826 36.9959 12.2265 37.2806L12.2376 37.3551C12.3615 38.1641 12.4895 39.0007 12.739 39.8044C12.9641 40.5296 13.3114 41.1018 13.7944 41.5402C12.7685 40.9317 11.8169 40.2047 10.9593 39.374C10.9411 39.3565 10.9196 39.31 10.9165 39.2717L10.8934 38.6984C10.8932 38.678 10.893 38.6239 10.9045 38.5971C11.3299 37.6017 11.4388 36.4812 11.2378 35.1719C11.044 33.9091 10.5072 32.7479 9.6422 31.7203C9.54096 31.6 9.45163 31.5391 9.37665 31.5391C9.36012 31.5387 9.34374 31.5423 9.32887 31.5495C9.3093 31.5593 9.29247 31.5738 9.27989 31.5917C9.26732 31.6097 9.2594 31.6305 9.25686 31.6523L9.23372 31.8523C9.21583 31.9989 9.199 32.1456 9.18323 32.2925C9.15616 32.5496 9.12774 32.8066 9.09796 33.0634L9.09377 33.1005C9.02068 33.7421 8.94488 34.4055 8.90482 35.0697C8.85826 35.8446 8.87207 36.7496 9.32806 37.5867L9.33509 37.5997C8.69361 36.7924 8.11564 35.9363 7.60642 35.039C7.56081 34.9582 7.55688 34.8874 7.56541 34.7846C7.60209 34.35 7.80322 33.9968 8.01504 33.6801C8.4242 33.0667 8.67189 32.3417 8.8182 31.3292C9.02271 29.9131 8.81617 28.4926 8.20466 27.1068C8.18788 27.0686 8.16825 27.0318 8.14727 26.9922L8.0995 26.9017C8.08764 26.8794 8.06979 26.861 8.04798 26.8484C8.02618 26.8359 8.0013 26.8297 7.97619 26.8307C7.95106 26.832 7.92684 26.8406 7.90638 26.8553C7.88592 26.87 7.87009 26.8903 7.86074 26.9138C7.71626 27.2796 7.57148 27.6453 7.42641 28.0109L7.33532 28.2405C7.03133 29.0073 6.69038 29.9027 6.49223 30.8264C6.35255 31.4783 6.34403 32.1074 6.46652 32.7064C5.99117 31.5701 5.60042 30.3692 5.30116 29.1241C5.29778 29.1103 5.2967 29.0744 5.32634 28.9916C5.46907 28.603 5.71781 28.2626 6.04409 28.0094C6.75102 27.4648 7.15206 26.7078 7.45104 26.0392C8.06322 24.6719 8.2293 23.2193 7.9586 21.5982C7.95526 21.5804 7.95055 21.563 7.94452 21.546L7.93965 21.5313C7.93376 21.5133 7.92411 21.4967 7.91134 21.4827C7.89858 21.4688 7.88299 21.4577 7.86561 21.4502C7.84885 21.4435 7.83093 21.4402 7.81288 21.4405C7.79484 21.4407 7.77702 21.4446 7.76045 21.4517C7.73338 21.4617 7.69237 21.4768 7.6657 21.516C7.51127 21.7231 7.35647 21.9299 7.20132 22.1364L7.1752 22.1713C6.78269 22.6948 6.37678 23.2359 5.98671 23.7749C5.53478 24.3977 5.21562 25.0031 5.01084 25.6257C4.91204 25.9264 4.84748 26.2158 4.81702 26.497C4.68602 25.4747 4.61259 24.4459 4.59708 23.4153C4.59329 23.1671 4.62469 22.9699 4.79347 22.7538C4.97213 22.5235 5.13902 22.3949 5.36911 22.3101C6.31452 21.9632 6.92102 21.23 7.34371 20.6301C8.02654 19.6596 8.42704 18.5303 8.56807 17.1776C8.5831 17.0384 8.59162 16.8976 8.60042 16.7486L8.60259 16.7147C8.60678 16.6423 8.61125 16.5668 8.61693 16.4869C8.61867 16.461 8.61276 16.4351 8.59996 16.4126C8.58715 16.39 8.56801 16.3717 8.54493 16.36C8.52176 16.3487 8.49585 16.3444 8.47029 16.3475C8.44472 16.3506 8.42059 16.361 8.40078 16.3776L8.28858 16.4741C8.24635 16.5103 8.21021 16.5412 8.17272 16.5714C7.99257 16.7168 7.81175 16.8606 7.63051 17.0048L7.61156 17.0198C7.21377 17.3363 6.80232 17.6635 6.4094 18.0014C5.64698 18.6545 5.15607 19.3046 4.8644 20.0476C4.81728 20.167 4.77501 20.2882 4.73771 20.4111C4.85552 19.2424 5.04999 18.0829 5.31984 16.94C5.35233 16.802 5.37046 16.7615 5.43719 16.7395C5.47915 16.7252 5.51826 16.6977 5.54682 16.6637C5.74078 16.4423 5.99618 16.4072 6.2436 16.4022C7.06922 16.3827 7.72404 15.9691 8.25555 15.5669C9.55882 14.581 10.4562 12.0796 10.4562 11.9948C10.4562 11.973 10.4508 11.9514 10.4404 11.9322C10.4301 11.913 10.4152 11.8966 10.397 11.8846C10.3789 11.8728 10.3581 11.8657 10.3366 11.8638C10.3151 11.8618 10.2934 11.8652 10.2735 11.8736C10.002 11.9892 9.73045 12.1019 9.44933 12.2187C8.83078 12.4763 8.19126 12.7425 7.57705 13.0336C6.95891 13.3274 6.47044 13.7202 6.12124 14.2037C6.45254 13.2573 6.83672 12.3305 7.27198 11.4276C7.32165 11.3311 7.55499 11.2286 7.88957 11.2286C7.99839 11.2286 8.10383 11.2403 8.19492 11.2623C8.98102 11.4516 9.76049 11.3368 10.6232 10.9038C11.5058 10.4607 12.238 9.73608 12.8617 8.68807C12.8736 8.66781 12.8971 8.60596 12.9096 8.57129C12.9175 8.55076 12.92 8.52859 12.9171 8.50681C12.9142 8.48503 12.9058 8.46433 12.8929 8.44663C12.8685 8.41292 12.8295 8.39279 12.7798 8.39279H12.7788L12.4672 8.41251C12.2762 8.42461 12.0908 8.43643 11.9054 8.44595L11.7073 8.45601C11.1161 8.48592 10.5046 8.51664 9.9064 8.65979C9.22411 8.82456 8.72318 9.07755 8.33906 9.45276C8.78441 8.70653 9.2699 7.98522 9.79338 7.29204C9.80719 7.2741 9.87337 7.24664 9.92765 7.23753C9.95472 7.23114 10.0533 7.21034 10.1843 7.21034C10.3581 7.21034 10.5102 7.24582 10.6392 7.31706C11.4587 7.71959 12.3791 7.7495 13.3784 7.40474C14.198 7.12347 14.8922 6.60103 15.5008 5.80806C15.5205 5.7825 15.5384 5.75463 15.5546 5.72527C15.5637 5.70938 15.5688 5.69149 15.5694 5.67316C15.57 5.65484 15.5662 5.63665 15.5581 5.62018C15.511 5.52094 15.3072 5.47431 15.2214 5.45881C15.0108 5.42184 14.7722 5.37969 14.5356 5.34747C14.4272 5.33225 14.3186 5.31634 14.2098 5.30016L14.1959 5.29799C13.8272 5.24334 13.446 5.18679 13.0621 5.16735C12.3604 5.13132 11.7374 5.27515 11.2275 5.59354C11.5639 5.23337 11.9138 4.88615 12.2764 4.5526C12.3888 4.44955 12.5161 4.34569 12.6894 4.21532C12.7028 4.20499 12.7369 4.19289 12.7788 4.19044C14.0076 4.14218 15.0302 3.59731 15.9045 2.52497C16.3808 1.94122 16.746 1.20493 17.0211 0.273978L17.0306 0.24203C17.06 0.144149 17.0762 0.0903146 17.0087 0.0272358C16.9566 -0.0214328 16.8648 -0.00702216 16.6263 0.087868C16.4098 0.171475 16.1919 0.252634 15.9681 0.335969C15.5186 0.503318 15.0537 0.676377 14.605 0.871867C13.8552 1.19922 13.2564 1.69543 12.8256 2.34647C12.4975 2.84186 12.3678 3.33955 12.4289 3.86539C12.4275 3.87276 12.4254 3.87996 12.4225 3.88687C11.6398 4.56565 10.8916 5.3298 10.1234 6.23928C10.6357 5.45256 10.9696 4.54675 11.1371 3.49671C11.306 2.4381 11.3167 1.49586 11.17 0.616289C11.1607 0.561231 11.1481 0.506173 11.132 0.437249L11.108 0.331075C11.1026 0.308574 11.0915 0.287858 11.0758 0.270944C11.0601 0.254029 11.0403 0.241492 11.0183 0.234553C10.9961 0.228024 10.9726 0.227397 10.9501 0.232735C10.9275 0.238073 10.9068 0.249193 10.8898 0.265005C10.8362 0.315713 10.7837 0.363566 10.7324 0.410059L10.6963 0.442822C10.565 0.561639 10.441 0.673794 10.3288 0.800632C9.23859 2.03597 8.60272 3.34078 8.38495 4.78969C8.28574 5.44454 8.32688 6.00205 8.51082 6.49363C8.57173 6.6565 8.66674 6.80196 8.76135 6.94633C8.80466 7.01227 8.84797 7.07847 8.88763 7.14644C8.91687 7.19525 8.9193 7.20789 8.91917 7.20558C8.89748 7.42901 8.87122 7.65196 8.84039 7.8743C8.8389 7.87756 8.83403 7.88517 8.81847 7.90584L8.80588 7.92337C8.20604 8.76159 7.65793 9.63595 7.16464 10.5416C7.39973 9.71771 7.51382 8.8638 7.50329 8.00684C7.49002 6.81011 7.21567 5.7428 6.66426 4.74347C6.64247 4.70459 6.60295 4.6793 6.54759 4.67549C6.52722 4.67575 6.5072 4.68077 6.48911 4.69016C6.47101 4.69956 6.45535 4.71306 6.44337 4.7296C6.42686 4.75271 6.41008 4.77446 6.3941 4.79513C6.35851 4.84135 6.32521 4.88512 6.29543 4.93189C5.85636 5.62344 5.62086 6.38596 5.46453 6.97311C5.17881 8.04994 5.04752 8.94909 5.05131 9.80296C5.05348 10.5288 5.18517 11.0867 5.46588 11.5588C5.55318 11.7058 5.66309 11.8344 5.77353 11.9638C5.83214 12.0325 5.89237 12.103 5.94691 12.1754C5.98508 12.2256 6.00349 12.2769 6.00457 12.3055C6.01174 12.4776 6.00795 12.6525 6.0043 12.8216L6.00173 12.9385C6.00115 12.9594 5.99712 12.98 5.98982 12.9995C5.63295 13.87 5.32367 14.7595 5.06336 15.664C5.10138 15.3627 5.12352 15.0596 5.12968 14.756C5.16162 13.0847 4.65122 11.5921 3.61229 10.3193L3.39573 10.0543C3.38351 10.0391 3.36803 10.0267 3.35044 10.0183C3.33284 10.0098 3.31358 10.0055 3.29408 10.0055L3.27243 10.0074C3.24968 10.0112 3.22834 10.021 3.21054 10.0357C3.19275 10.0504 3.17913 10.0696 3.17105 10.0913C3.15129 10.1442 3.13193 10.1941 3.11312 10.2423C3.0773 10.3318 3.04412 10.4224 3.01364 10.5138C2.79072 11.2152 2.68136 11.9814 2.65916 12.9977L2.65875 13.0175C2.64211 13.7569 2.61923 14.7699 2.9216 15.7392C3.21923 16.6934 3.74411 17.1756 3.8459 17.2622L3.85672 17.272C4.13378 17.5203 4.3142 17.7475 4.35156 17.895C4.36658 17.9545 4.38188 18.0142 4.39974 18.0732C4.47879 18.3357 4.42938 18.5859 4.37606 18.856C4.34953 18.9923 4.32192 19.1332 4.31231 19.2777C4.27414 19.856 4.22731 20.4441 4.18197 21.0128L4.17791 21.0654L4.14312 21.5006C4.02753 20.1993 3.59848 19.0164 2.86029 17.9703C2.40822 17.3303 1.86927 16.7827 1.25803 16.3424C1.23164 16.3233 1.20389 16.3063 1.16681 16.2842C1.1452 16.2716 1.12381 16.2586 1.10265 16.2453C1.08363 16.234 1.06215 16.2276 1.04009 16.2266C1.01802 16.2256 0.99605 16.2301 0.976101 16.2396C0.956099 16.2495 0.938935 16.2644 0.926221 16.2828C0.913507 16.3012 0.90566 16.3225 0.903419 16.3448C0.894992 16.4264 0.885653 16.508 0.875402 16.5894C0.854964 16.7586 0.83561 16.9185 0.834798 17.0827C0.825729 18.785 1.18427 20.3802 1.9008 21.8234C2.10044 22.2261 2.36424 22.5744 2.68515 22.8591C3.00335 23.1398 3.34673 23.3054 3.73423 23.3649C3.74558 23.3688 3.75633 23.3743 3.76618 23.3812C3.78716 23.4235 3.80895 23.4659 3.83074 23.5085C3.90816 23.6587 3.98815 23.8141 4.02794 23.9699C4.0611 24.1016 4.0611 24.2456 4.0611 24.3981C4.0611 24.454 4.0611 24.5103 4.06286 24.5654C4.10008 25.8841 4.14894 26.3433 4.359 27.5216C4.23083 27.1713 4.0699 26.82 3.86214 26.482C3.02081 25.1143 1.95196 24.1859 0.594554 23.6441C0.508201 23.6092 0.421578 23.5841 0.32115 23.5547L0.301118 23.5487C0.260378 23.5367 0.217202 23.524 0.171048 23.5098C0.150217 23.5032 0.128064 23.5019 0.106596 23.506C0.0851293 23.5101 0.0650281 23.5196 0.0481164 23.5335C0.0312046 23.5474 0.0180175 23.5653 0.00975127 23.5856C0.00148502 23.606 -0.00159877 23.628 0.000779636 23.6499C0.0107954 23.7434 0.0176982 23.8343 0.0240596 23.9231C0.0380005 24.1178 0.0511293 24.3016 0.0980953 24.4835C0.536083 26.1827 1.26101 27.536 2.31416 28.621C2.76446 29.0848 3.23899 29.3507 3.76482 29.4341C3.89746 29.4549 4.05961 29.4575 4.3341 29.4403L4.41314 29.4356C4.42519 29.4349 4.43575 29.4342 4.44536 29.4342C4.46701 29.4342 4.46877 29.4342 4.48379 29.4565L4.85154 29.9637C4.85627 29.9704 4.86318 29.9944 4.86791 30.011L4.87333 30.0292C5.25501 31.3289 5.7286 32.5807 6.28704 33.7687C6.03766 33.423 5.75868 33.0999 5.4533 32.8029C4.04161 31.4272 1.62808 31.3873 1.35751 31.3873L1.32381 31.3876L1.30256 31.3916C1.27076 31.4027 1.24449 31.4258 1.22925 31.456C1.21402 31.4862 1.21099 31.5211 1.22081 31.5535C1.23962 31.6167 1.25722 31.6806 1.27739 31.7556C1.31596 31.8966 1.35602 32.0422 1.41219 32.183C1.67964 32.8543 2.11316 33.5001 2.77678 34.216C3.23277 34.7067 3.74682 35.2044 4.41531 35.5191C5.14741 35.8644 5.80845 35.9487 6.46584 35.7796C6.57764 35.7501 6.70622 35.7127 6.8168 35.6407C6.89557 35.59 6.91709 35.5916 6.99451 35.6495C7.08628 35.718 7.18386 35.7755 7.27861 35.8313C7.33099 35.8621 7.38377 35.8933 7.43304 35.9245C7.44089 35.9312 7.45767 35.9588 7.4639 35.969C8.05375 36.9353 8.70356 37.8333 9.4052 38.6526C9.02569 38.3752 8.63602 38.1746 8.22212 38.0409C6.95729 37.6316 5.63155 37.6837 4.31853 38.1936C4.12255 38.2699 3.90775 38.3854 3.8934 38.3936C3.87839 38.4036 3.86559 38.4165 3.85578 38.4317C3.84598 38.4469 3.83939 38.4639 3.83642 38.4818C3.83345 38.4996 3.83416 38.5179 3.83852 38.5354C3.84287 38.553 3.85077 38.5694 3.86173 38.5838C3.90274 38.6373 3.9424 38.6912 3.98165 38.7446L3.99031 38.7563C4.07897 38.8775 4.1794 39.0147 4.29201 39.1362C4.79916 39.6823 5.4246 40.0484 6.02501 40.3628C6.85063 40.793 7.69494 41.0248 8.53464 41.052C8.57416 41.0534 8.61368 41.0542 8.65307 41.0542C9.42551 41.0542 10.0285 40.7985 10.4933 40.2755C10.5046 40.2689 10.5172 40.2649 10.5302 40.2635C10.7078 40.2763 10.8766 40.3023 11.0027 40.3233C11.0248 40.3279 11.0453 40.338 11.0624 40.3527C11.8389 41.0432 12.6613 41.6492 13.5203 42.165C13.3881 42.1255 13.2541 42.0923 13.1188 42.0655C12.2007 41.8882 11.2638 41.9994 10.235 42.41C9.54096 42.6878 8.89548 43.0961 8.26164 43.6579C8.23648 43.6802 8.22075 43.7113 8.21768 43.7448C8.21461 43.7783 8.22443 43.8117 8.24513 43.8382C8.4694 44.1249 8.76121 44.2855 9.01716 44.4046C9.64139 44.6959 10.346 44.8824 11.172 44.9751C11.1745 44.9753 11.4399 44.9984 11.8121 44.9984C12.0808 44.9984 12.3308 44.9863 12.5548 44.9625C12.7686 44.94 12.9806 44.9034 13.1897 44.853C14.1415 44.6203 14.7864 44.1418 15.1559 43.3988C15.1625 43.3924 15.1909 43.3759 15.227 43.367C15.3829 43.3273 15.5409 43.2964 15.7003 43.2743C15.7349 43.2687 15.7781 43.2781 15.8325 43.3001C16.5053 43.5592 17.1957 43.7696 17.8985 43.9298C17.9267 43.9367 17.9563 43.9339 17.9828 43.9219C18.0093 43.9099 18.031 43.8895 18.0446 43.8638C18.1141 43.7346 18.1967 43.613 18.2911 43.5009C18.3057 43.4837 18.3156 43.4629 18.3198 43.4407C18.324 43.4185 18.3225 43.3955 18.3153 43.3741C18.3081 43.3526 18.2955 43.3334 18.2788 43.3183C18.262 43.3032 18.2416 43.2927 18.2196 43.2878Z" fill="black"/>
<path d="M33.4201 25.7431L38.8584 20.4186C38.9488 20.3301 39.0128 20.2179 39.0431 20.0948C39.0733 19.9716 39.0687 19.8424 39.0297 19.7218C38.9907 19.6012 38.9188 19.4939 38.8223 19.4121C38.7257 19.3304 38.6083 19.2774 38.4833 19.2592L30.9684 18.163L27.607 11.3232C27.5512 11.2094 27.4647 11.1136 27.3575 11.0466C27.2503 10.9796 27.1265 10.9441 27.0002 10.9441C26.8739 10.9441 26.7502 10.9796 26.6429 11.0466C26.5357 11.1136 26.4493 11.2094 26.3934 11.3232L23.0333 18.163L15.5171 19.2592C15.3921 19.2774 15.2747 19.3304 15.1782 19.4121C15.0816 19.4939 15.0098 19.6012 14.9707 19.7218C14.9317 19.8424 14.9271 19.9716 14.9574 20.0948C14.9876 20.2179 15.0516 20.3301 15.1421 20.4186L20.5804 25.7431L19.2973 33.2607C19.2759 33.3857 19.2898 33.5142 19.3374 33.6317C19.3849 33.7491 19.4643 33.8509 19.5665 33.9254C19.6686 34 19.7895 34.0444 19.9154 34.0535C20.0413 34.0627 20.1673 34.0362 20.2791 33.9772L27.0005 30.4283L33.7219 33.9772C33.8336 34.0362 33.9596 34.0627 34.0855 34.0535C34.2114 34.0444 34.3323 34 34.4344 33.9254C34.5366 33.8509 34.616 33.7492 34.6635 33.6317C34.7111 33.5142 34.725 33.3857 34.7036 33.2607L33.4201 25.7431Z" fill="black"/>
</g>
</svg>
