<svg width="70" height="40" viewBox="0 0 70 40" fill="none" xmlns="http://www.w3.org/2000/svg">
<mask id="mask0_1151_24834" style="mask-type:alpha" maskUnits="userSpaceOnUse" x="0" y="0" width="70" height="40">
<rect width="70" height="40" fill="#D9D9D9"/>
</mask>
<g mask="url(#mask0_1151_24834)">
<path d="M41.0574 1.50798C41.0296 1.29261 40.9819 1.06186 40.8865 0.831112C40.8387 0.715737 40.7791 0.596516 40.7035 0.484987C40.6677 0.427299 40.624 0.373458 40.5803 0.319616C40.5723 0.308078 40.5564 0.292695 40.5286 0.261928C40.5047 0.235007 40.4848 0.215778 40.453 0.192703C40.4212 0.165782 40.3934 0.146553 40.3536 0.123478C40.3138 0.100403 40.2741 0.0811739 40.2303 0.0619447C40.0514 -0.0188178 39.8247 -0.0111262 39.6816 0.031178C39.5344 0.0734822 39.443 0.135016 39.3635 0.188857C39.2243 0.300387 39.1447 0.400378 39.0732 0.496524C38.934 0.688816 38.8227 0.850341 38.7193 1.0234C38.5165 1.35799 38.3494 1.69258 38.1904 2.02332C38.0313 2.35791 37.8842 2.6925 37.745 3.02708C37.1843 4.37313 36.6992 5.72686 36.23 7.08829C35.7647 8.44972 35.3114 9.81114 34.878 11.1764C34.5559 12.1879 34.2377 13.1993 33.9236 14.2108C33.4066 14.9838 32.8778 15.7491 32.337 16.5067C31.5019 17.672 30.639 18.8181 29.7443 19.9372C28.8456 21.0564 27.9191 22.1486 26.9369 23.1831C26.4438 23.6985 25.9388 24.2023 25.4139 24.6638C25.1514 24.8907 24.881 25.1137 24.6027 25.3099C24.3323 25.5022 24.042 25.6752 23.7954 25.7598C23.7159 25.7867 23.6443 25.7983 23.6125 25.7983C23.6205 25.8098 23.6244 25.8137 23.6244 25.8137C23.6244 25.8098 23.6046 25.7983 23.5966 25.7983H23.6125C23.6085 25.7906 23.6046 25.7829 23.5966 25.7675C23.5688 25.6983 23.5449 25.5637 23.5409 25.4214C23.537 25.2791 23.5449 25.1214 23.5608 24.9599C23.5966 24.6368 23.6602 24.3061 23.7358 23.9715C23.7755 23.8023 23.8193 23.6369 23.863 23.4677L24.0062 22.9485C24.384 21.5679 24.7498 20.1795 25.1077 18.7873C25.4656 17.3951 25.8036 15.9991 26.0939 14.5838C26.237 13.8723 26.3643 13.157 26.4637 12.4302C26.5154 12.0648 26.5551 11.6956 26.575 11.3149C26.583 11.1226 26.5869 10.9303 26.583 10.7264C26.579 10.5226 26.5591 10.3149 26.5114 10.0803C26.4836 9.96113 26.4517 9.83422 26.3881 9.69192C26.3245 9.55347 26.2291 9.38425 26.0302 9.22273C25.9348 9.14581 25.8075 9.08043 25.6763 9.03813C25.5451 8.99967 25.4099 8.98429 25.2986 8.99582C25.0679 9.01121 24.9049 9.06889 24.7657 9.13043C24.4993 9.25734 24.3164 9.39579 24.1493 9.5304C23.9823 9.66885 23.8352 9.81114 23.696 9.94959C23.1433 10.5149 22.69 11.1033 22.2486 11.6994C21.3737 12.8917 20.5864 14.1146 19.8189 15.3491C19.0594 16.5837 18.3238 17.8336 17.6159 19.0911C16.9041 20.3487 16.2083 21.6102 15.5323 22.887L13.5241 26.6944C12.8521 27.9443 12.1284 29.1711 11.349 30.3518C10.9553 30.9402 10.5417 31.5132 10.1003 32.0593C9.65498 32.6016 9.18575 33.1246 8.6688 33.5746C8.41033 33.7976 8.13993 34.0053 7.85362 34.1745C7.57129 34.3437 7.27703 34.4745 6.98674 34.5283C6.69646 34.586 6.42208 34.5591 6.17553 34.4399C5.92899 34.3207 5.71028 34.1014 5.53134 33.8361C5.35637 33.5707 5.21322 33.2669 5.10585 32.9477C4.99451 32.6285 4.90703 32.2901 4.83943 31.9516C4.81954 31.8478 4.79966 31.7439 4.78376 31.6401C4.76387 31.5055 4.64458 31.4017 4.5054 31.3978H4.50142C4.31851 31.3901 4.17137 31.5401 4.19126 31.7132C4.20319 31.8247 4.21512 31.9362 4.23102 32.0478C4.28272 32.4131 4.35429 32.7785 4.45768 33.14C4.56107 33.5015 4.70025 33.863 4.90305 34.2091C5.10585 34.5514 5.38819 34.8898 5.79379 35.1167C5.99659 35.2283 6.21927 35.309 6.44991 35.3437C6.68055 35.3821 6.91119 35.3783 7.12989 35.3475C7.57129 35.286 7.96496 35.1283 8.31887 34.9398C8.67676 34.7514 9.00283 34.5322 9.30504 34.2937C9.91345 33.8169 10.4503 33.2861 10.9473 32.7362C11.4484 32.1824 11.9136 31.6055 12.355 31.0171C13.2418 29.8403 14.0252 28.6019 14.7688 27.3482C15.1426 26.7213 15.4925 26.0829 15.8345 25.456L16.8803 23.5754C17.5841 22.3255 18.284 21.0718 18.9998 19.8295C19.7155 18.5873 20.4273 17.3451 21.1709 16.1222C21.9066 14.8953 22.6661 13.6839 23.4694 12.5263C23.875 11.9533 24.2965 11.3841 24.7458 10.8995C24.8572 10.7803 24.9725 10.6688 25.0798 10.5688C25.1117 10.5418 25.1435 10.5149 25.1793 10.488C25.215 10.7111 25.223 10.988 25.215 11.2572C25.2071 11.5879 25.1793 11.9302 25.1435 12.2725C25.0719 12.9609 24.9566 13.657 24.8293 14.3492C24.3164 17.1298 23.6205 19.9026 22.8888 22.6639L22.7496 23.1831C22.7019 23.36 22.6542 23.5408 22.6144 23.7215C22.5309 24.083 22.4553 24.4522 22.4156 24.8407C22.3957 25.0368 22.3838 25.2368 22.3917 25.4483C22.3997 25.6637 22.4196 25.8906 22.523 26.1521C22.5746 26.279 22.6502 26.4252 22.7774 26.5598C22.9047 26.6944 23.0916 26.8059 23.2745 26.852C23.4574 26.902 23.6284 26.902 23.7716 26.8867C23.9187 26.8713 24.042 26.8367 24.1573 26.7982C24.6146 26.6444 24.9486 26.4213 25.2747 26.1983C25.5968 25.9752 25.895 25.7329 26.1813 25.4868C26.75 24.9945 27.2789 24.4715 27.7918 23.9407C28.8138 22.8754 29.7642 21.764 30.6827 20.6333C31.49 19.6373 32.2694 18.6181 33.0249 17.5874L32.6074 19.4988L32.166 21.5986C32.0188 22.3024 31.8757 23.0024 31.7365 23.7062C31.1838 26.5175 30.6629 29.3403 30.305 32.1939C30.2811 32.39 30.2612 32.5862 30.2374 32.7823C30.2095 33.0246 30.1817 33.2707 30.1618 33.513C30.0624 34.5091 29.9948 35.509 29.9908 36.5282C29.9908 36.8935 30.0028 37.2666 30.0385 37.6396C30.0783 38.0165 30.13 38.3934 30.2493 38.7934C30.309 38.9934 30.3964 39.1972 30.5316 39.4126C30.6032 39.5202 30.6907 39.6279 30.81 39.7279C30.9293 39.8279 31.0844 39.9164 31.2593 39.9625C31.4303 40.0087 31.6093 40.0087 31.7564 39.9817C31.9035 39.9548 32.0387 39.9125 32.1501 39.8548C32.2574 39.8048 32.3648 39.7587 32.4443 39.5125C32.4921 39.3626 32.4722 39.1972 32.3688 39.0741C32.2574 38.9434 32.0864 38.878 31.9194 38.8972C31.8717 38.9049 31.82 38.9164 31.7723 38.9357C31.7564 38.9395 31.7445 38.9472 31.7286 38.951C31.6729 38.9741 31.6291 38.9818 31.5934 38.9857C31.5615 38.9895 31.5496 38.9857 31.5456 38.9818C31.5417 38.978 31.5337 38.9741 31.5138 38.9549C31.4979 38.9395 31.4701 38.9011 31.4423 38.8587C31.3866 38.7664 31.3389 38.6357 31.2951 38.4934C31.2116 38.205 31.1639 37.8742 31.1361 37.5396C31.1082 37.2012 31.0923 36.8589 31.0883 36.5128C31.0764 35.4552 31.148 34.3783 31.2474 33.3092C31.2713 33.0708 31.2951 32.8323 31.319 32.5977C31.3309 32.4977 31.3389 32.4016 31.3508 32.3054C31.6649 29.4864 32.1183 26.6674 32.6312 23.8638C32.7585 23.16 32.8937 22.4601 33.0289 21.7602C33.1681 21.0602 33.3072 20.3603 33.4544 19.6642L33.9037 17.572L34.1343 16.5298L34.2536 16.0106L34.2656 15.9606L34.2815 15.9029L34.3133 15.803C35.6494 13.88 36.9139 11.911 38.0671 9.86883C38.7789 8.5997 39.4509 7.3075 40.0275 5.95377C40.3138 5.2769 40.5763 4.58465 40.7791 3.86163C40.8785 3.49628 40.966 3.12708 41.0256 2.73865C41.0733 2.35022 41.1091 1.9464 41.0574 1.50798ZM39.7492 2.56174C39.7054 2.88094 39.6299 3.20784 39.5384 3.53474C39.3595 4.18853 39.1169 4.84232 38.8465 5.48842C38.3057 6.78062 37.6536 8.0459 36.9616 9.28811C36.56 9.99959 36.1465 10.7072 35.721 11.4033C36.1703 10.0573 36.6395 8.71892 37.1326 7.38826C37.6297 6.05376 38.1506 4.71925 38.7272 3.42705C39.0175 2.78864 39.3277 2.1387 39.6816 1.58105C39.7054 1.54644 39.7293 1.51183 39.7532 1.47337C39.7691 1.53105 39.777 1.58874 39.785 1.65028C39.8128 1.92718 39.7969 2.24253 39.7492 2.56174Z" fill="white"/>
<path d="M69.1035 30.0241C68.2804 29.678 67.3697 29.4626 66.475 29.3626C62.7093 28.9395 58.9475 29.228 55.1897 29.5433C47.3838 30.201 39.6376 31.2932 31.9073 32.5008L31.8874 32.5046L22.98 33.9814L22.7931 34.0122C17.5123 34.9352 12.2315 35.8621 6.95467 36.8043C4.88292 37.1735 2.81911 37.5965 0.751325 37.9888C0.286074 38.0773 -0.0916944 38.2811 0.0196477 38.7887C0.127013 39.2695 0.528641 39.3925 1.0098 39.2656C1.3478 39.1772 1.6858 39.081 2.03176 39.0118C8.96679 37.6158 15.8978 36.2274 22.8329 34.8352L25.3261 34.3814L27.7876 33.9353L31.2193 33.3123C40.2579 31.7547 49.3164 30.3202 58.4902 29.7087C61.1505 29.5318 63.8227 29.4164 66.4671 29.8856C67.2107 30.0164 67.9622 30.2702 68.6263 30.6163C68.7854 30.7009 68.9086 30.7894 68.9961 30.8817C69.2626 31.324 68.8609 31.697 68.2645 31.9931C67.8191 32.1854 67.3618 32.3547 66.8965 32.4893C66.7096 32.5431 66.5307 32.5854 66.3796 32.6239C66.3478 32.6316 66.316 32.6392 66.2802 32.6469C62.3713 33.4815 58.4345 34.1968 54.5455 35.1083C53.619 35.3275 52.6964 35.5852 51.7858 35.8659C50.3423 36.2697 49.2369 36.6581 48.3938 37.0158C47.8292 37.2581 47.3798 37.485 47.022 37.6965C45.3121 38.7195 45.7694 39.3887 45.7694 39.3887L45.8409 39.5041C45.9761 39.7233 46.2147 39.8733 46.4772 39.8733C46.5647 39.8733 46.6442 39.854 46.7118 39.8271H46.7158C46.9424 39.6579 47.1413 39.2925 47.1253 39.0349C47.0935 38.4811 47.2963 38.0965 47.7258 37.8196C47.7974 37.7734 47.8729 37.7234 47.9485 37.6773C48.3064 37.4504 48.6762 37.2273 49.0738 37.112C50.8831 36.5774 52.6964 36.0236 54.5415 35.6236C58.0568 34.8583 61.6118 34.2506 65.123 33.4623C65.3974 33.4007 65.6678 33.3315 65.9382 33.2546V33.2584C69.4375 32.3431 69.7556 31.6355 69.7556 31.6355L69.7517 31.6316C70.2368 31.0971 70.0062 30.401 69.1035 30.0241Z" fill="white"/>
<path d="M65.0198 20.9229C64.9681 20.746 64.8846 20.573 64.7534 20.4307C64.6262 20.2884 64.4631 20.1768 64.2882 20.0961C63.9382 19.9422 63.5644 19.8961 63.2065 19.8884C62.4828 19.8769 61.783 20.0076 61.099 20.1653C60.415 20.3268 59.747 20.5307 59.0948 20.7576C58.7648 20.8729 58.4427 20.9922 58.1166 21.1152C57.7945 21.2421 57.4724 21.3691 57.1543 21.5075C56.8362 21.6421 56.5181 21.7767 56.1999 21.919C55.8858 22.0613 55.5756 22.2036 55.2655 22.3536C54.6412 22.6497 54.0248 22.9574 53.4204 23.2535C52.812 23.5612 52.1956 23.8381 51.5792 24.1227C51.2691 24.265 50.9549 24.3957 50.6487 24.5303C50.3386 24.6726 50.0244 24.7995 49.7103 24.9265C49.3961 25.0534 49.086 25.1841 48.7679 25.2995C48.4497 25.4149 48.1356 25.5418 47.8135 25.6456C47.1772 25.8648 46.537 26.0725 45.8849 26.2379L45.3997 26.3648L44.9106 26.4648L44.6641 26.5148L44.4176 26.5532C44.2545 26.5802 44.0875 26.6109 43.9245 26.6302C43.2723 26.7109 42.6122 26.7263 41.9879 26.6417C41.9084 26.6379 41.8368 26.6148 41.7573 26.5994C41.6817 26.584 41.6022 26.5725 41.5266 26.5532L41.3079 26.484C41.2721 26.4686 41.2363 26.4609 41.2006 26.4494L41.0972 26.4033C41.0335 26.3763 40.9699 26.3494 40.9103 26.3186C40.7075 26.2148 40.5166 26.0879 40.3575 25.9341C40.3456 25.9225 40.3377 25.911 40.3257 25.9033C40.1945 25.7764 40.0792 25.6264 39.9837 25.4687C39.8883 25.2995 39.8207 25.1303 39.765 24.9726C39.7571 24.9495 39.7491 24.9303 39.7452 24.9072C39.7014 24.7534 39.6696 24.6149 39.6497 24.5034C39.6457 24.4611 39.6378 24.4188 39.6338 24.3842C39.6259 24.315 39.6179 24.2534 39.61 24.1957C39.61 24.1919 39.61 24.1881 39.61 24.1881C39.598 24.0881 39.5901 24.0111 39.5861 23.965C39.5781 23.865 39.5543 23.7689 39.5145 23.6842C39.4748 23.5958 39.4111 23.5227 39.3276 23.465C39.2401 23.4112 39.1447 23.4035 39.0493 23.4458L38.9339 23.4804V23.1804C38.9339 22.9574 38.918 22.7151 38.8823 22.4459C38.8465 22.1805 38.7988 21.969 38.7391 21.8113C38.584 21.4767 38.3733 21.2537 38.0989 21.1383C37.8245 21.0268 37.5302 21.046 37.2161 21.196C36.8224 21.4383 36.4327 21.9229 36.043 22.6536C35.6533 23.3843 35.3511 24.215 35.1245 25.1457C35.0648 25.411 35.029 25.611 35.0171 25.7456C35.0052 25.8764 34.9972 26.1225 34.9932 26.4763L34.9893 27.1763C34.9893 27.2878 35.0052 27.3993 35.0449 27.5109C35.1046 27.6455 35.1722 27.7724 35.2477 27.8954C35.3233 28.0185 35.4108 28.1031 35.5102 28.1493C35.7647 28.2646 36.0311 28.1877 36.3174 27.9224C36.6037 27.657 37.0053 27.1301 37.5223 26.334C37.7808 25.9148 38.0392 25.5187 38.2977 25.1418C38.3812 25.0188 38.4568 24.9072 38.5283 24.8072C38.5443 24.7842 38.5602 24.7649 38.5721 24.7419C38.588 24.7188 38.6039 24.6995 38.6198 24.6765C38.9578 24.2111 39.0493 24.3419 39.0692 24.488C39.0692 24.538 39.0692 24.588 39.0731 24.6419C39.0811 24.7342 39.0851 24.8265 39.101 24.9188C39.1248 25.1034 39.1725 25.2841 39.2322 25.461C39.3396 25.7648 39.5066 26.0494 39.7173 26.3033C39.7173 26.3033 39.7213 26.3071 39.7253 26.311C39.7571 26.3494 39.7929 26.3917 39.8287 26.4302C39.9599 26.5725 40.111 26.6955 40.2661 26.8109L40.5126 26.9647C40.5961 27.0186 40.6836 27.0532 40.7671 27.0955L40.8983 27.157C40.9421 27.1763 40.9858 27.1917 41.0296 27.207L41.296 27.3032C41.3875 27.3301 41.4789 27.3532 41.5664 27.3762C41.6579 27.3993 41.7493 27.4262 41.8408 27.4378C42.5725 27.5762 43.3081 27.5724 44.0199 27.507C44.1988 27.4916 44.3738 27.4647 44.5528 27.4455L44.8192 27.4147L45.0816 27.3647L45.6065 27.2647L46.1235 27.1455C47.4954 26.8224 48.8116 26.3533 50.096 25.8379C51.3884 25.3264 52.637 24.738 53.8697 24.1188L54.7883 23.6573C55.0905 23.4996 55.3887 23.342 55.6909 23.1881C56.2954 22.8805 56.9078 22.5805 57.5162 22.2844C58.7409 21.7036 59.9776 21.1383 61.2581 20.7191C61.8983 20.5153 62.5544 20.3384 63.2065 20.2961C63.5326 20.273 63.8587 20.2961 64.149 20.3999C64.4114 20.496 64.6222 20.6768 64.7335 20.9229C65.1272 22.1651 64.1251 22.6459 64.1251 22.6459C64.0138 22.7036 63.9382 22.8189 63.9382 22.9535C63.9382 23.1497 64.1013 23.3074 64.3041 23.3074C64.3398 23.3074 64.3717 23.2997 64.4035 23.292C64.479 23.2727 64.5466 23.2266 64.5904 23.1651C64.6262 23.1228 64.65 23.0689 64.6619 23.0112C64.6739 22.9843 64.6858 22.9612 64.6938 22.9343C64.821 22.6228 64.9403 22.3036 65.0079 21.9652C65.0914 21.6344 65.1192 21.2768 65.0198 20.9229ZM38.1705 24.265C38.1108 24.3303 37.9955 24.4803 37.8285 24.7111C37.6575 24.9418 37.4746 25.1803 37.2757 25.4226C37.057 25.6879 36.8542 25.9533 36.6673 26.2187C36.4804 26.484 36.3333 26.6725 36.2339 26.7801C36.0589 26.9801 35.9595 27.0647 35.9396 27.0455C35.9198 27.0224 35.9396 26.8571 36.0033 26.5455C36.0868 26.1456 36.2061 25.6995 36.3691 25.1995C36.5282 24.6995 36.719 24.2188 36.9377 23.7535C37.0769 23.4881 37.2201 23.2304 37.3712 22.9728C37.5223 22.7189 37.6257 22.5805 37.6853 22.5574C37.7012 22.5574 37.7609 22.7151 37.8563 23.0266C37.8961 23.1612 37.9478 23.292 38.0154 23.4266C38.083 23.5612 38.1347 23.6727 38.1744 23.7612L38.3494 24.0611L38.1705 24.265Z" fill="white"/>
</g>
</svg>
