<svg width="20" height="20" viewBox="0 0 20 20" fill="none" xmlns="http://www.w3.org/2000/svg">
<rect width="20" height="20" rx="3" fill="#1781FE"/>
<path d="M9.02638 16C7.00879 16 6 14.7946 6 12.3839V7.30134C6 5.10045 7.15596 4 9.46789 4C10.4205 4 11.151 4.16071 11.6594 4.48214C12.1678 4.79911 12.5183 5.26339 12.711 5.875C12.9037 6.48661 13 7.23214 13 8.11161H10.2385V7.06696C10.2385 6.8125 10.1957 6.60045 10.1101 6.4308C10.0298 6.2567 9.85856 6.16964 9.59633 6.16964C9.26988 6.16964 9.05313 6.26116 8.9461 6.4442C8.84442 6.62723 8.79358 6.82813 8.79358 7.04688V12.7589C8.79358 13.0759 8.84174 13.3348 8.93807 13.5357C9.03976 13.7321 9.23509 13.8304 9.52408 13.8304C9.82378 13.8304 10.0218 13.7321 10.1181 13.5357C10.2198 13.3348 10.2706 13.0714 10.2706 12.7455V11.0647H9.51606V9.02902H12.9679V15.8929H11.836L11.3544 14.9018C10.862 15.6339 10.086 16 9.02638 16Z" fill="white"/>
</svg>
