<svg width="121" height="46" viewBox="0 0 121 46" fill="none" xmlns="http://www.w3.org/2000/svg">
<path d="M59.1601 34.53V36.225H56.3701V45H54.2701V36.225H51.4801V34.53H59.1601ZM62.7923 37.98C63.0623 37.54 63.4123 37.195 63.8423 36.945C64.2823 36.695 64.7823 36.57 65.3423 36.57V38.775H64.7873C64.1273 38.775 63.6273 38.93 63.2873 39.24C62.9573 39.55 62.7923 40.09 62.7923 40.86V45H60.6923V36.69H62.7923V37.98ZM66.2168 40.815C66.2168 39.975 66.3818 39.23 66.7118 38.58C67.0518 37.93 67.5068 37.43 68.0768 37.08C68.6568 36.73 69.3018 36.555 70.0118 36.555C70.6318 36.555 71.1718 36.68 71.6318 36.93C72.1018 37.18 72.4768 37.495 72.7568 37.875V36.69H74.8718V45H72.7568V43.785C72.4868 44.175 72.1118 44.5 71.6318 44.76C71.1618 45.01 70.6168 45.135 69.9968 45.135C69.2968 45.135 68.6568 44.955 68.0768 44.595C67.5068 44.235 67.0518 43.73 66.7118 43.08C66.3818 42.42 66.2168 41.665 66.2168 40.815ZM72.7568 40.845C72.7568 40.335 72.6568 39.9 72.4568 39.54C72.2568 39.17 71.9868 38.89 71.6468 38.7C71.3068 38.5 70.9418 38.4 70.5518 38.4C70.1618 38.4 69.8018 38.495 69.4718 38.685C69.1418 38.875 68.8718 39.155 68.6618 39.525C68.4618 39.885 68.3618 40.315 68.3618 40.815C68.3618 41.315 68.4618 41.755 68.6618 42.135C68.8718 42.505 69.1418 42.79 69.4718 42.99C69.8118 43.19 70.1718 43.29 70.5518 43.29C70.9418 43.29 71.3068 43.195 71.6468 43.005C71.9868 42.805 72.2568 42.525 72.4568 42.165C72.6568 41.795 72.7568 41.355 72.7568 40.845ZM80.3878 43.065L82.4878 36.69H84.7228L81.6478 45H79.0978L76.0378 36.69H78.2878L80.3878 43.065ZM93.6273 40.665C93.6273 40.965 93.6073 41.235 93.5673 41.475H87.4923C87.5423 42.075 87.7523 42.545 88.1223 42.885C88.4923 43.225 88.9473 43.395 89.4873 43.395C90.2673 43.395 90.8223 43.06 91.1523 42.39H93.4173C93.1773 43.19 92.7173 43.85 92.0373 44.37C91.3573 44.88 90.5223 45.135 89.5323 45.135C88.7323 45.135 88.0123 44.96 87.3723 44.61C86.7423 44.25 86.2473 43.745 85.8873 43.095C85.5373 42.445 85.3623 41.695 85.3623 40.845C85.3623 39.985 85.5373 39.23 85.8873 38.58C86.2373 37.93 86.7273 37.43 87.3573 37.08C87.9873 36.73 88.7123 36.555 89.5323 36.555C90.3223 36.555 91.0273 36.725 91.6473 37.065C92.2773 37.405 92.7623 37.89 93.1023 38.52C93.4523 39.14 93.6273 39.855 93.6273 40.665ZM91.4523 40.065C91.4423 39.525 91.2473 39.095 90.8673 38.775C90.4873 38.445 90.0223 38.28 89.4723 38.28C88.9523 38.28 88.5123 38.44 88.1523 38.76C87.8023 39.07 87.5873 39.505 87.5073 40.065H91.4523ZM97.2601 33.9V45H95.1601V33.9H97.2601ZM100.265 45.105C99.8849 45.105 99.5699 44.99 99.3199 44.76C99.0799 44.52 98.9599 44.225 98.9599 43.875C98.9599 43.525 99.0799 43.235 99.3199 43.005C99.5699 42.765 99.8849 42.645 100.265 42.645C100.635 42.645 100.94 42.765 101.18 43.005C101.42 43.235 101.54 43.525 101.54 43.875C101.54 44.225 101.42 44.52 101.18 44.76C100.94 44.99 100.635 45.105 100.265 45.105ZM102.691 40.845C102.691 39.985 102.866 39.235 103.216 38.595C103.566 37.945 104.051 37.445 104.671 37.095C105.291 36.735 106.001 36.555 106.801 36.555C107.831 36.555 108.681 36.815 109.351 37.335C110.031 37.845 110.486 38.565 110.716 39.495H108.451C108.331 39.135 108.126 38.855 107.836 38.655C107.556 38.445 107.206 38.34 106.786 38.34C106.186 38.34 105.711 38.56 105.361 39C105.011 39.43 104.836 40.045 104.836 40.845C104.836 41.635 105.011 42.25 105.361 42.69C105.711 43.12 106.186 43.335 106.786 43.335C107.636 43.335 108.191 42.955 108.451 42.195H110.716C110.486 43.095 110.031 43.81 109.351 44.34C108.671 44.87 107.821 45.135 106.801 45.135C106.001 45.135 105.291 44.96 104.671 44.61C104.051 44.25 103.566 43.75 103.216 43.11C102.866 42.46 102.691 41.705 102.691 40.845ZM115.945 45.135C115.145 45.135 114.425 44.96 113.785 44.61C113.145 44.25 112.64 43.745 112.27 43.095C111.91 42.445 111.73 41.695 111.73 40.845C111.73 39.995 111.915 39.245 112.285 38.595C112.665 37.945 113.18 37.445 113.83 37.095C114.48 36.735 115.205 36.555 116.005 36.555C116.805 36.555 117.53 36.735 118.18 37.095C118.83 37.445 119.34 37.945 119.71 38.595C120.09 39.245 120.28 39.995 120.28 40.845C120.28 41.695 120.085 42.445 119.695 43.095C119.315 43.745 118.795 44.25 118.135 44.61C117.485 44.96 116.755 45.135 115.945 45.135ZM115.945 43.305C116.325 43.305 116.68 43.215 117.01 43.035C117.35 42.845 117.62 42.565 117.82 42.195C118.02 41.825 118.12 41.375 118.12 40.845C118.12 40.055 117.91 39.45 117.49 39.03C117.08 38.6 116.575 38.385 115.975 38.385C115.375 38.385 114.87 38.6 114.46 39.03C114.06 39.45 113.86 40.055 113.86 40.845C113.86 41.635 114.055 42.245 114.445 42.675C114.845 43.095 115.345 43.305 115.945 43.305Z" fill="white"/>
<path d="M56.5987 24.2031C53.408 24.2031 51.8126 21.918 51.8126 17.3477V7.71191C51.8126 3.53939 53.6407 1.45312 57.297 1.45312C58.8035 1.45312 59.9588 1.75781 60.7628 2.36719C61.5668 2.9681 62.1212 3.84831 62.4259 5.00781C62.7306 6.16732 62.8829 7.58073 62.8829 9.24805H58.5157V7.26758C58.5157 6.78516 58.448 6.38314 58.3126 6.06152C58.1856 5.73145 57.9148 5.56641 57.5001 5.56641C56.9838 5.56641 56.641 5.73991 56.4718 6.08691C56.311 6.43392 56.2306 6.81478 56.2306 7.22949V18.0586C56.2306 18.6595 56.3067 19.1504 56.4591 19.5312C56.6199 19.9036 56.9288 20.0898 57.3858 20.0898C57.8598 20.0898 58.1729 19.9036 58.3253 19.5312C58.4861 19.1504 58.5665 18.651 58.5665 18.0332V14.8467H57.3731V10.9873H62.8321V24H61.0421L60.2804 22.1211C59.5017 23.5091 58.2745 24.2031 56.5987 24.2031ZM70.0685 24.2031C66.2768 24.2031 64.381 22.2354 64.381 18.2998V10.6572C64.381 8.86296 64.8845 7.43262 65.8917 6.36621C66.8989 5.29134 68.2911 4.75391 70.0685 4.75391C71.8543 4.75391 73.2507 5.29134 74.2579 6.36621C75.2651 7.43262 75.7686 8.86296 75.7686 10.6572V18.2998C75.7686 22.2354 73.8686 24.2031 70.0685 24.2031ZM70.0685 20.6992C70.4493 20.6992 70.7201 20.5638 70.881 20.293C71.0502 20.0137 71.1349 19.6624 71.1349 19.2393V9.93359C71.1349 8.82487 70.7794 8.27051 70.0685 8.27051C69.3575 8.27051 69.002 8.82487 69.002 9.93359V19.2393C69.002 19.6624 69.0824 20.0137 69.2433 20.293C69.4125 20.5638 69.6876 20.6992 70.0685 20.6992ZM77.5333 24V1.65625H86.4708V6.01074H82.0274V9.56543H86.2423V13.8691H82.0274V24H77.5333ZM87.9181 24V1.65625H92.3868V20.1914H96.9825V24H87.9181ZM97.8077 27.1738V24.292H99.9913C100.321 24.292 100.486 24.1777 100.486 23.9492C100.486 23.8307 100.474 23.708 100.448 23.5811L97.4649 4.95703H101.819L103.089 18.9727L104.587 4.95703H108.967L105.438 24.9902C105.311 25.7096 105.065 26.2513 104.701 26.6152C104.346 26.9876 103.758 27.1738 102.937 27.1738H97.8077Z" fill="white"/>
<path d="M18.6772 27.9289C18.6801 27.9291 18.6827 27.9299 18.6855 27.93C18.6913 27.9301 18.697 27.9323 18.7028 27.9323L18.7034 27.9322L18.704 27.9323C18.7077 27.9323 18.7113 27.9309 18.715 27.9309C18.7301 27.931 18.7446 27.9331 18.7597 27.9331H18.7601C23.3361 27.9331 27.0589 24.2103 27.0589 19.6342C27.0589 15.058 23.3361 11.3352 18.7601 11.3352C18.7515 11.3352 18.7431 11.3365 18.7345 11.3365C18.7242 11.336 18.7137 11.3375 18.7033 11.3375C18.6834 11.3376 18.6635 11.3386 18.6437 11.3406C18.6323 11.3417 18.6208 11.3411 18.6093 11.3428C14.1033 11.4244 10.4611 15.1088 10.4611 19.6342C10.4611 24.1823 14.1396 27.8837 18.6772 27.9289ZM12.3047 22.4714H14.1903C14.6283 23.9014 15.393 25.2074 16.4383 26.2893C14.5896 25.6422 13.0901 24.251 12.3047 22.4714ZM25.8156 19.6341C25.8156 20.1829 25.7464 20.715 25.6272 21.2282H23.5044C23.5915 20.7026 23.6409 20.1657 23.6409 19.6187C23.6409 19.0831 23.5925 18.5566 23.5074 18.0404H25.6274C25.7464 18.5535 25.8156 19.0854 25.8156 19.6341ZM22.3976 19.6495C22.3976 20.1865 22.3461 20.7143 22.2482 21.2283H19.3815V18.0405H22.2455C22.3468 18.5708 22.3978 19.1096 22.3976 19.6495ZM15.5036 22.4714H18.1383V26.1577C16.9204 25.1847 16.0189 23.9112 15.5036 22.4714ZM19.3815 26.0619V22.4713H21.9065C21.4082 23.8621 20.5439 25.0999 19.3815 26.0619ZM19.3815 16.7972V13.2064C20.5414 14.1667 21.4045 15.4031 21.9034 16.7972H19.3815ZM18.1383 13.1105V16.7972H15.5002C16.0148 15.3608 16.9176 14.0853 18.1383 13.1105ZM18.1383 18.0404V21.2282H15.1612C15.0599 20.6977 15.009 20.1588 15.0091 19.6187C15.0091 19.0819 15.0606 18.5541 15.1584 18.0404H18.1383ZM13.8995 21.2282H11.8927C11.7736 20.715 11.7043 20.1829 11.7043 19.6341C11.7043 19.0853 11.7735 18.5534 11.8926 18.0404H13.9024C13.8155 18.5658 13.766 19.1026 13.766 19.6494C13.766 20.1852 13.8145 20.7119 13.8995 21.2282ZM20.8994 26.3562C21.9728 25.2669 22.7667 23.934 23.2131 22.4713H25.2152C24.4039 24.3099 22.8327 25.7393 20.8994 26.3562ZM25.2154 16.7972H23.2166C22.7693 15.3343 21.9745 14.0014 20.9002 12.9123C22.8333 13.5293 24.4043 14.9588 25.2154 16.7972ZM16.4389 12.9787C15.3959 14.0589 14.6321 15.364 14.1935 16.7972H12.3046C13.0899 15.0173 14.5897 13.6258 16.4389 12.9787ZM40.6428 8.16075C40.2169 7.33518 39.4977 6.72613 38.6179 6.44527L18.9499 0.165376C18.0705 -0.116284 17.1311 -0.0361433 16.3057 0.390345C15.4803 0.816114 14.871 1.53522 14.5902 2.41497L13.2848 6.50277H8.43688C6.52392 6.50277 4.96765 8.05923 4.96765 9.97218V42.531C4.96765 44.444 6.52392 46 8.43688 46H29.0831C30.996 46 32.5523 44.444 32.5523 42.531V36.8481L40.8676 10.805C41.1484 9.92564 41.0688 8.98632 40.6428 8.16075ZM31.309 42.531C31.309 43.7585 30.3104 44.7568 29.0831 44.7568H8.43688C7.20943 44.7568 6.21091 43.7585 6.21091 42.531V9.97218C6.21091 8.74473 7.20952 7.74603 8.43688 7.74603H29.0831C30.3105 7.74603 31.309 8.74482 31.309 9.97218V42.531ZM39.6835 10.4271L32.5523 32.7615V9.97218C32.5523 8.05923 30.996 6.50277 29.0831 6.50277H14.5896L15.7742 2.79304C15.9541 2.22972 16.3453 1.76873 16.8756 1.49479C17.4058 1.22122 18.0079 1.16983 18.5719 1.34952L38.2399 7.6295C38.8033 7.80955 39.2644 8.20055 39.538 8.73108C39.8116 9.26116 39.8633 9.86374 39.6835 10.4271ZM27.1448 32.7388C27.1447 32.9036 27.0792 33.0617 26.9627 33.1783C26.8461 33.2949 26.688 33.3604 26.5231 33.3604H10.9965C10.8335 33.3576 10.6781 33.2909 10.5638 33.1746C10.4494 33.0584 10.3854 32.9018 10.3854 32.7388C10.3854 32.5757 10.4494 32.4192 10.5638 32.3029C10.6781 32.1866 10.8335 32.1199 10.9965 32.1171H26.5232C26.6049 32.1171 26.6857 32.1332 26.7611 32.1645C26.8365 32.1957 26.905 32.2415 26.9628 32.2992C27.0205 32.3569 27.0663 32.4255 27.0975 32.5009C27.1287 32.5763 27.1448 32.6571 27.1448 32.7388ZM27.1448 37.1267C27.1447 37.2916 27.0792 37.4497 26.9627 37.5663C26.8461 37.6828 26.688 37.7483 26.5231 37.7484H10.9965C10.8335 37.7456 10.6781 37.6789 10.5638 37.5626C10.4494 37.4463 10.3854 37.2898 10.3854 37.1267C10.3854 36.9637 10.4494 36.8071 10.5638 36.6909C10.6781 36.5746 10.8335 36.5079 10.9965 36.5051H26.5232C26.6881 36.5051 26.8462 36.5707 26.9627 36.6872C27.0793 36.8038 27.1447 36.9619 27.1448 37.1267ZM23.6232 41.5148C23.6231 41.6796 23.5576 41.8377 23.4411 41.9543C23.3245 42.0709 23.1664 42.1364 23.0015 42.1364H14.5182C14.3552 42.1336 14.1998 42.0669 14.0854 41.9507C13.9711 41.8344 13.9071 41.6778 13.9071 41.5148C13.9071 41.3517 13.9711 41.1952 14.0854 41.0789C14.1998 40.9626 14.3552 40.8959 14.5182 40.8932H23.0015C23.1664 40.8932 23.3245 40.9586 23.4411 41.0752C23.5577 41.1918 23.6232 41.3499 23.6232 41.5148Z" fill="#0EA9D0"/>
</svg>
