<svg width="121" height="46" viewBox="0 0 121 46" fill="none" xmlns="http://www.w3.org/2000/svg">
<path d="M59.16 34.53V36.225H56.37V45H54.27V36.225H51.48V34.53H59.16ZM62.7922 37.98C63.0622 37.54 63.4122 37.195 63.8422 36.945C64.2822 36.695 64.7822 36.57 65.3422 36.57V38.775H64.7872C64.1272 38.775 63.6272 38.93 63.2872 39.24C62.9572 39.55 62.7922 40.09 62.7922 40.86V45H60.6922V36.69H62.7922V37.98ZM66.2167 40.815C66.2167 39.975 66.3817 39.23 66.7117 38.58C67.0517 37.93 67.5067 37.43 68.0767 37.08C68.6567 36.73 69.3017 36.555 70.0117 36.555C70.6317 36.555 71.1717 36.68 71.6317 36.93C72.1017 37.18 72.4767 37.495 72.7567 37.875V36.69H74.8717V45H72.7567V43.785C72.4867 44.175 72.1117 44.5 71.6317 44.76C71.1617 45.01 70.6167 45.135 69.9967 45.135C69.2967 45.135 68.6567 44.955 68.0767 44.595C67.5067 44.235 67.0517 43.73 66.7117 43.08C66.3817 42.42 66.2167 41.665 66.2167 40.815ZM72.7567 40.845C72.7567 40.335 72.6567 39.9 72.4567 39.54C72.2567 39.17 71.9867 38.89 71.6467 38.7C71.3067 38.5 70.9417 38.4 70.5517 38.4C70.1617 38.4 69.8017 38.495 69.4717 38.685C69.1417 38.875 68.8717 39.155 68.6617 39.525C68.4617 39.885 68.3617 40.315 68.3617 40.815C68.3617 41.315 68.4617 41.755 68.6617 42.135C68.8717 42.505 69.1417 42.79 69.4717 42.99C69.8117 43.19 70.1717 43.29 70.5517 43.29C70.9417 43.29 71.3067 43.195 71.6467 43.005C71.9867 42.805 72.2567 42.525 72.4567 42.165C72.6567 41.795 72.7567 41.355 72.7567 40.845ZM80.3877 43.065L82.4877 36.69H84.7227L81.6477 45H79.0977L76.0377 36.69H78.2877L80.3877 43.065ZM93.6272 40.665C93.6272 40.965 93.6072 41.235 93.5672 41.475H87.4922C87.5422 42.075 87.7522 42.545 88.1222 42.885C88.4922 43.225 88.9472 43.395 89.4872 43.395C90.2672 43.395 90.8222 43.06 91.1522 42.39H93.4172C93.1772 43.19 92.7172 43.85 92.0372 44.37C91.3572 44.88 90.5222 45.135 89.5322 45.135C88.7322 45.135 88.0122 44.96 87.3722 44.61C86.7422 44.25 86.2472 43.745 85.8872 43.095C85.5372 42.445 85.3622 41.695 85.3622 40.845C85.3622 39.985 85.5372 39.23 85.8872 38.58C86.2372 37.93 86.7272 37.43 87.3572 37.08C87.9872 36.73 88.7122 36.555 89.5322 36.555C90.3222 36.555 91.0272 36.725 91.6472 37.065C92.2772 37.405 92.7622 37.89 93.1022 38.52C93.4522 39.14 93.6272 39.855 93.6272 40.665ZM91.4522 40.065C91.4422 39.525 91.2472 39.095 90.8672 38.775C90.4872 38.445 90.0222 38.28 89.4722 38.28C88.9522 38.28 88.5122 38.44 88.1522 38.76C87.8022 39.07 87.5872 39.505 87.5072 40.065H91.4522ZM97.26 33.9V45H95.16V33.9H97.26ZM100.265 45.105C99.8848 45.105 99.5698 44.99 99.3198 44.76C99.0798 44.52 98.9598 44.225 98.9598 43.875C98.9598 43.525 99.0798 43.235 99.3198 43.005C99.5698 42.765 99.8848 42.645 100.265 42.645C100.635 42.645 100.94 42.765 101.18 43.005C101.42 43.235 101.54 43.525 101.54 43.875C101.54 44.225 101.42 44.52 101.18 44.76C100.94 44.99 100.635 45.105 100.265 45.105ZM102.691 40.845C102.691 39.985 102.866 39.235 103.216 38.595C103.566 37.945 104.051 37.445 104.671 37.095C105.291 36.735 106.001 36.555 106.801 36.555C107.831 36.555 108.681 36.815 109.351 37.335C110.031 37.845 110.486 38.565 110.716 39.495H108.451C108.331 39.135 108.126 38.855 107.836 38.655C107.556 38.445 107.206 38.34 106.786 38.34C106.186 38.34 105.711 38.56 105.361 39C105.011 39.43 104.836 40.045 104.836 40.845C104.836 41.635 105.011 42.25 105.361 42.69C105.711 43.12 106.186 43.335 106.786 43.335C107.636 43.335 108.191 42.955 108.451 42.195H110.716C110.486 43.095 110.031 43.81 109.351 44.34C108.671 44.87 107.821 45.135 106.801 45.135C106.001 45.135 105.291 44.96 104.671 44.61C104.051 44.25 103.566 43.75 103.216 43.11C102.866 42.46 102.691 41.705 102.691 40.845ZM115.945 45.135C115.145 45.135 114.425 44.96 113.785 44.61C113.145 44.25 112.64 43.745 112.27 43.095C111.91 42.445 111.73 41.695 111.73 40.845C111.73 39.995 111.915 39.245 112.285 38.595C112.665 37.945 113.18 37.445 113.83 37.095C114.48 36.735 115.205 36.555 116.005 36.555C116.805 36.555 117.53 36.735 118.18 37.095C118.83 37.445 119.34 37.945 119.71 38.595C120.09 39.245 120.28 39.995 120.28 40.845C120.28 41.695 120.085 42.445 119.695 43.095C119.315 43.745 118.795 44.25 118.135 44.61C117.485 44.96 116.755 45.135 115.945 45.135ZM115.945 43.305C116.325 43.305 116.68 43.215 117.01 43.035C117.35 42.845 117.62 42.565 117.82 42.195C118.02 41.825 118.12 41.375 118.12 40.845C118.12 40.055 117.91 39.45 117.49 39.03C117.08 38.6 116.575 38.385 115.975 38.385C115.375 38.385 114.87 38.6 114.46 39.03C114.06 39.45 113.86 40.055 113.86 40.845C113.86 41.635 114.055 42.245 114.445 42.675C114.845 43.095 115.345 43.305 115.945 43.305Z" fill="#525252"/>
<path d="M56.5986 24.2031C53.4079 24.2031 51.8125 21.918 51.8125 17.3477V7.71191C51.8125 3.53939 53.6406 1.45312 57.2969 1.45312C58.8034 1.45312 59.9587 1.75781 60.7627 2.36719C61.5667 2.9681 62.1211 3.84831 62.4258 5.00781C62.7305 6.16732 62.8828 7.58073 62.8828 9.24805H58.5156V7.26758C58.5156 6.78516 58.4479 6.38314 58.3125 6.06152C58.1855 5.73145 57.9147 5.56641 57.5 5.56641C56.9837 5.56641 56.641 5.73991 56.4717 6.08691C56.3109 6.43392 56.2305 6.81478 56.2305 7.22949V18.0586C56.2305 18.6595 56.3066 19.1504 56.459 19.5312C56.6198 19.9036 56.9287 20.0898 57.3857 20.0898C57.8597 20.0898 58.1729 19.9036 58.3252 19.5312C58.486 19.1504 58.5664 18.651 58.5664 18.0332V14.8467H57.373V10.9873H62.832V24H61.042L60.2803 22.1211C59.5016 23.5091 58.2744 24.2031 56.5986 24.2031ZM70.0684 24.2031C66.2767 24.2031 64.3809 22.2354 64.3809 18.2998V10.6572C64.3809 8.86296 64.8844 7.43262 65.8916 6.36621C66.8988 5.29134 68.291 4.75391 70.0684 4.75391C71.8542 4.75391 73.2507 5.29134 74.2578 6.36621C75.265 7.43262 75.7686 8.86296 75.7686 10.6572V18.2998C75.7686 22.2354 73.8685 24.2031 70.0684 24.2031ZM70.0684 20.6992C70.4492 20.6992 70.7201 20.5638 70.8809 20.293C71.0501 20.0137 71.1348 19.6624 71.1348 19.2393V9.93359C71.1348 8.82487 70.7793 8.27051 70.0684 8.27051C69.3574 8.27051 69.002 8.82487 69.002 9.93359V19.2393C69.002 19.6624 69.0824 20.0137 69.2432 20.293C69.4124 20.5638 69.6875 20.6992 70.0684 20.6992ZM77.5332 24V1.65625H86.4707V6.01074H82.0273V9.56543H86.2422V13.8691H82.0273V24H77.5332ZM87.918 24V1.65625H92.3867V20.1914H96.9824V24H87.918ZM97.8076 27.1738V24.292H99.9912C100.321 24.292 100.486 24.1777 100.486 23.9492C100.486 23.8307 100.474 23.708 100.448 23.5811L97.4648 4.95703H101.819L103.089 18.9727L104.587 4.95703H108.967L105.438 24.9902C105.311 25.7096 105.065 26.2513 104.701 26.6152C104.346 26.9876 103.757 27.1738 102.937 27.1738H97.8076Z" fill="#110F0F"/>
<path d="M18.6771 27.9289C18.68 27.9291 18.6826 27.9299 18.6854 27.93C18.6912 27.9302 18.6969 27.9323 18.7027 27.9323L18.7033 27.9322L18.7039 27.9323C18.7076 27.9323 18.7112 27.9309 18.7149 27.9309C18.73 27.931 18.7446 27.9331 18.7596 27.9331H18.76C23.336 27.9331 27.0588 24.2104 27.0588 19.6342C27.0588 15.058 23.336 11.3352 18.76 11.3352C18.7514 11.3352 18.743 11.3365 18.7344 11.3366C18.7241 11.336 18.7136 11.3376 18.7032 11.3376C18.6833 11.3376 18.6634 11.3387 18.6436 11.3406C18.6322 11.3417 18.6207 11.3412 18.6092 11.3429C14.1032 11.4244 10.461 15.1088 10.461 19.6342C10.461 24.1823 14.1395 27.8837 18.6771 27.9289ZM12.3046 22.4714H14.1902C14.6282 23.9014 15.3929 25.2075 16.4382 26.2894C14.5895 25.6422 13.09 24.251 12.3046 22.4714ZM25.8155 19.6341C25.8155 20.1829 25.7463 20.715 25.6271 21.2282H23.5043C23.5914 20.7026 23.6408 20.1657 23.6408 19.6187C23.6408 19.0831 23.5924 18.5566 23.5073 18.0404H25.6273C25.7463 18.5535 25.8155 19.0854 25.8155 19.6341ZM22.3975 19.6495C22.3975 20.1865 22.346 20.7144 22.2481 21.2283H19.3814V18.0405H22.2454C22.3467 18.5709 22.3977 19.1096 22.3975 19.6495ZM15.5035 22.4714H18.1382V26.1577C16.9203 25.1847 16.0188 23.9112 15.5035 22.4714ZM19.3814 26.062V22.4714H21.9064C21.4081 23.8621 20.5438 25.0999 19.3814 26.062ZM19.3814 16.7973V13.2064C20.5413 14.1667 21.4044 15.4031 21.9033 16.7973H19.3814ZM18.1382 13.1105V16.7973H15.5001C16.0147 15.3609 16.9175 14.0853 18.1382 13.1105ZM18.1382 18.0404V21.2282H15.1611C15.0598 20.6977 15.0089 20.1588 15.009 19.6187C15.009 19.0819 15.0605 18.5542 15.1583 18.0404H18.1382ZM13.8994 21.2282H11.8926C11.7735 20.715 11.7042 20.1829 11.7042 19.6341C11.7042 19.0853 11.7734 18.5535 11.8925 18.0404H13.9023C13.8154 18.5658 13.7659 19.1027 13.7659 19.6495C13.7659 20.1852 13.8144 20.7119 13.8994 21.2282ZM20.8993 26.3562C21.9727 25.267 22.7666 23.9341 23.213 22.4714H25.2151C24.4038 24.3099 22.8326 25.7393 20.8993 26.3562ZM25.2153 16.7973H23.2165C22.7692 15.3344 21.9744 14.0014 20.9001 12.9123C22.8333 13.5293 24.4042 14.9588 25.2153 16.7973ZM16.4388 12.9787C15.3958 14.0589 14.632 15.364 14.1934 16.7973H12.3045C13.0898 15.0173 14.5896 13.6258 16.4388 12.9787ZM40.6427 8.16078C40.2168 7.3352 39.4976 6.72615 38.6178 6.4453L18.9498 0.165403C18.0704 -0.116257 17.131 -0.0361166 16.3056 0.390372C15.4802 0.816141 14.8709 1.53525 14.5901 2.415L13.2847 6.5028H8.43678C6.52383 6.5028 4.96755 8.05925 4.96755 9.97221V42.531C4.96755 44.444 6.52383 46 8.43678 46H29.083C30.9959 46 32.5522 44.444 32.5522 42.531V36.8481L40.8675 10.8051C41.1483 9.92567 41.0687 8.98635 40.6427 8.16078ZM31.3089 42.531C31.3089 43.7585 30.3103 44.7568 29.083 44.7568H8.43678C7.20933 44.7568 6.21081 43.7585 6.21081 42.531V9.97221C6.21081 8.74476 7.20942 7.74606 8.43678 7.74606H29.083C30.3104 7.74606 31.3089 8.74485 31.3089 9.97221V42.531ZM39.6834 10.4271L32.5522 32.7615V9.97221C32.5522 8.05925 30.9959 6.5028 29.083 6.5028H14.5895L15.7741 2.79306C15.954 2.22974 16.3452 1.76875 16.8755 1.49482C17.4057 1.22125 18.0078 1.16986 18.5718 1.34954L38.2398 7.62953C38.8032 7.80958 39.2643 8.20058 39.5379 8.7311C39.8115 9.26118 39.8632 9.86376 39.6834 10.4271ZM27.1447 32.7388C27.1446 32.9036 27.0791 33.0617 26.9626 33.1783C26.846 33.2949 26.6879 33.3604 26.523 33.3604H10.9964C10.8334 33.3576 10.678 33.2909 10.5637 33.1747C10.4493 33.0584 10.3853 32.9018 10.3853 32.7388C10.3853 32.5757 10.4493 32.4192 10.5637 32.3029C10.678 32.1866 10.8334 32.1199 10.9964 32.1172H26.5231C26.6048 32.1172 26.6856 32.1332 26.761 32.1645C26.8364 32.1957 26.9049 32.2415 26.9627 32.2992C27.0204 32.357 27.0662 32.4255 27.0974 32.5009C27.1286 32.5763 27.1447 32.6572 27.1447 32.7388ZM27.1447 37.1268C27.1446 37.2916 27.0791 37.4497 26.9626 37.5663C26.846 37.6829 26.6879 37.7484 26.523 37.7484H10.9964C10.8334 37.7456 10.678 37.6789 10.5637 37.5626C10.4493 37.4463 10.3853 37.2898 10.3853 37.1268C10.3853 36.9637 10.4493 36.8072 10.5637 36.6909C10.678 36.5746 10.8334 36.5079 10.9964 36.5051H26.5231C26.688 36.5052 26.8461 36.5707 26.9626 36.6873C27.0792 36.8038 27.1446 36.9619 27.1447 37.1268ZM23.6231 41.5148C23.623 41.6797 23.5575 41.8378 23.441 41.9543C23.3244 42.0709 23.1663 42.1364 23.0014 42.1364H14.5181C14.3551 42.1337 14.1997 42.067 14.0853 41.9507C13.971 41.8344 13.907 41.6779 13.907 41.5148C13.907 41.3518 13.971 41.1952 14.0853 41.0789C14.1997 40.9627 14.3551 40.896 14.5181 40.8932H23.0014C23.1663 40.8932 23.3244 40.9587 23.441 41.0753C23.5576 41.1918 23.6231 41.3499 23.6231 41.5148Z" fill="#110F0F"/>
</svg>
