<svg width="114" height="90" viewBox="0 0 114 90" fill="none" xmlns="http://www.w3.org/2000/svg">
<mask id="mask0_1437_15013" style="mask-type:alpha" maskUnits="userSpaceOnUse" x="0" y="0" width="89" height="90">
<rect width="88.9053" height="90" fill="#D9D9D9"/>
</mask>
<g mask="url(#mask0_1437_15013)">
<path d="M69.8641 16.8447C69.8641 16.8447 79.9983 22.8506 74.2175 37.9014C68.5081 52.9521 51.0229 69.9566 51.0229 69.9566L69.8641 16.8447Z" fill="#EBBB01"/>
<path d="M58.1603 5.91848C58.1603 5.91848 74.4322 4.25421 72.8621 25.0214C71.2206 45.7162 51.0235 69.9567 51.0235 69.9567H48.5256L58.1603 5.91848Z" fill="#0C62D1"/>
<path d="M22.3332 10.7661C22.3332 10.7661 13.4122 13.0816 13.6263 28.9284C13.8404 44.7751 35.679 69.8839 35.679 69.8839L22.3332 10.7661Z" fill="#0C62D1"/>
<path d="M35.6796 5.70089C35.6796 5.70089 26.7586 -1.96922 20.05 11.0555C13.4128 24.0802 35.6796 69.9562 35.6796 69.9562H39.8189L35.6796 5.70089Z" fill="#F4BD0F"/>
<path d="M46.9547 2.87917C46.9547 2.87917 38.2478 -7.10645 29.9691 10.1151C21.6904 27.3367 39.8179 69.9565 39.8179 69.9565H44.3854L46.9547 2.87917Z" fill="#FA6142"/>
<path d="M46.9547 2.87938C46.9547 2.87938 57.5172 -5.73141 62.5843 10.7666C67.6514 27.2645 48.5962 69.8843 48.5962 69.8843H44.4569L46.9547 2.87938Z" fill="#EBBB01"/>
<path d="M40.0323 82.7642V87.2504C40.0323 88.77 41.2455 90.0001 42.7442 90.0001H44.3857C45.8844 90.0001 47.0977 88.77 47.0977 87.2504V82.7642H40.0323Z" fill="#0C62D1"/>
<path d="M35.6795 69.957C35.8222 70.6806 40.0329 82.7647 40.0329 82.7647" stroke="#353140" stroke-width="0.25" stroke-miterlimit="10"/>
<path d="M51.0229 69.957L47.169 82.7647" stroke="#353140" stroke-width="0.25" stroke-miterlimit="10"/>
</g>
<mask id="mask1_1437_15013" style="mask-type:alpha" maskUnits="userSpaceOnUse" x="63" y="23" width="51" height="52">
<rect x="63.8115" y="23.9512" width="50.1885" height="50.8065" fill="#D9D9D9"/>
</mask>
<g mask="url(#mask1_1437_15013)">
<path d="M103.252 33.46C103.252 33.46 108.973 36.8504 105.71 45.3468C102.487 53.8432 92.6162 63.4425 92.6162 63.4425L103.252 33.46Z" fill="#EBBB01"/>
<path d="M96.6455 27.2919C96.6455 27.2919 105.831 26.3523 104.945 38.0758C104.018 49.7583 92.6166 63.4424 92.6166 63.4424H91.2066L96.6455 27.2919Z" fill="#0C62D1"/>
<path d="M76.4201 30.0288C76.4201 30.0288 71.3841 31.3359 71.5049 40.2817C71.6258 49.2274 83.954 63.4017 83.954 63.4017L76.4201 30.0288Z" fill="#0C62D1"/>
<path d="M83.954 27.1693C83.954 27.1693 78.918 22.8394 75.1309 30.192C71.3841 37.5447 83.954 63.4424 83.954 63.4424H86.2907L83.954 27.1693Z" fill="#F4BD0F"/>
<path d="M90.3196 25.5765C90.3196 25.5765 85.4044 19.9395 80.7309 29.6613C76.0575 39.3832 86.2907 63.4427 86.2907 63.4427H88.8692L90.3196 25.5765Z" fill="#FA6142"/>
<path d="M90.319 25.5765C90.319 25.5765 96.2817 20.7156 99.1422 30.029C102.003 39.3424 91.2457 63.4019 91.2457 63.4019H88.9089L90.319 25.5765Z" fill="#EBBB01"/>
<path d="M86.4106 70.6729V73.2054C86.4106 74.0632 87.0955 74.7577 87.9416 74.7577H88.8682C89.7143 74.7577 90.3992 74.0632 90.3992 73.2054V70.6729H86.4106Z" fill="#0C62D1"/>
<path d="M83.9527 63.4429C84.0333 63.8514 86.4103 70.673 86.4103 70.673" stroke="#353140" stroke-width="0.25" stroke-miterlimit="10"/>
<path d="M92.6147 63.4429L90.4391 70.673" stroke="#353140" stroke-width="0.25" stroke-miterlimit="10"/>
</g>
</svg>
