<svg width="60" height="84" viewBox="0 0 60 84" fill="none" xmlns="http://www.w3.org/2000/svg">
<g clip-path="url(#clip0_1437_15043)">
<path d="M3.84614 70.9655C2.99998 73.0998 3.07691 74.548 5.92306 75.4627C5.92306 75.4627 33.6923 84.3049 34.6923 83.5426C35.6923 82.7803 36.3077 82.8566 36.9231 80.6461C37.4615 78.4355 61.2308 10.8239 59.5384 9.37563C57.7692 7.7749 27.2308 -5.05447e-05 26.0769 0.533525C22.6923 1.90558 4.3846 69.5934 3.84614 70.9655Z" fill="#FEF7BD" stroke="#694042" stroke-width="1.2577" stroke-miterlimit="10"/>
<path d="M49 9.14697L26 80.3412L30.9231 81.7132L52.9231 9.833L49 9.14697Z" fill="#37AF9F"/>
<path d="M49.2307 9.60425L26.7692 79.8075L30.6922 80.8747L52.3076 10.3665L49.2307 9.60425Z" fill="#FCFBF6"/>
<path d="M30.9231 1.82929C28.4615 1.29572 26.7692 0.838367 26.4615 0.914592C23.0769 2.28664 4.76924 69.5934 4.23078 70.9654C3.38463 73.0997 3.46155 74.1669 6.3077 75.0816C6.3077 75.0816 6.76924 74.8529 7.53847 75.0816C12.2308 58.6932 28.6154 8.91822 30.9231 1.82929Z" fill="#90B8DA"/>
<path d="M31.5385 82.6278C33.3077 83.0851 34.4615 83.2376 34.6923 83.0851C35.6923 82.3229 36.3077 82.7802 36.9231 80.5697C37.3846 78.4354 60.7692 11.4336 59.0769 9.9091C58.6923 9.6042 57.2308 8.6895 54.6154 7.92725C50.1538 21.038 35 70.8891 31.5385 82.6278Z" fill="#90B8DA"/>
<path d="M0.461533 63.1143C0.461533 63.1143 17.8461 12.4246 19.9231 12.2722C21.9231 12.1197 58.7692 23.401 59.5385 25.9164C60.3077 28.4319 42.3077 75.3865 40.3846 76.6823C38.3846 78.0544 -0.0769281 64.029 0.461533 63.1143Z" fill="#388984" stroke="#694042" stroke-width="1.2577" stroke-miterlimit="10"/>
<path d="M4.46155 64.4863C14.2308 68.5262 38.7692 77.7495 40.3077 76.6823C42.3077 75.3865 60.2308 28.4319 59.4615 25.9164C58.8462 23.5534 26.6154 13.9491 20.7692 12.7295C18 21.5716 8.84616 50.3847 4.46155 64.4863Z" fill="#00A28A"/>
<path d="M21.6154 61.3611C17.9231 58.1596 17.6154 52.4427 21 48.6315C24.3846 44.8202 30.1539 44.3629 33.8462 47.5643C37.5385 50.7658 37.8462 56.4827 34.4615 60.2939C31.0769 64.1052 25.3077 64.5625 21.6154 61.3611ZM33.5385 47.8692C30 44.8202 24.5385 45.2776 21.3077 48.8602C18.0769 52.519 18.3846 57.9309 21.9231 61.0562C25.4615 64.1052 30.9231 63.6478 34.1539 60.0653C37.3846 56.4065 37.0769 50.9945 33.5385 47.8692Z" fill="#FFF3A2"/>
<path d="M33.1538 49.2413C33.7692 49.9274 33.3077 53.205 34.1538 52.8239C34.7692 52.5952 35.0769 50.7658 35.6154 50.156C35.1538 49.2413 34.5385 48.4791 33.6923 47.7168C30.6923 45.1252 26.3077 44.9727 23 47.107C23.3077 47.2595 23.6154 47.4119 23.7692 47.5644C24.0769 47.9455 24.2308 48.1742 24.4615 47.9455C24.6923 47.7168 25 46.7259 25.7692 46.5735C26.4615 46.3448 27.2308 47.3357 27.6923 46.8784C28.0769 46.421 28.7692 45.8112 29.5385 46.0399C30.3077 46.2686 30.7692 48.8602 31.3846 49.1651C32 49.47 32.5385 48.5553 33.1538 49.2413Z" fill="#FFF3A2"/>
<path d="M33.3077 58.5408C33.8462 58.5408 35.0769 57.6261 36.3077 56.4065C36.6923 54.882 36.6923 53.3575 36.3077 51.833C35.7693 52.7477 34.8462 53.7386 34.3077 54.5771C33.3846 56.1016 32.1539 58.5408 33.3077 58.5408Z" fill="#FFF3A2"/>
<path d="M30.8462 60.98C31.0769 60.4464 30.9231 59.5317 30.3846 58.9981C29.8462 58.4645 28.3077 59.303 26.9231 58.9219C25.5385 58.5408 26.6154 58.1596 26.5385 57.5498C26.3846 57.0163 24.7692 57.0925 24.1539 56.4065C23.6154 55.7204 25.0769 55.0344 25.9231 54.5771C26.7692 54.1197 28 57.0925 28 57.0925C28 57.0925 29 56.3302 29.3846 55.7967C29.7692 55.2631 28.9231 55.0344 28.8462 54.5008C28.7692 53.9673 29.7692 53.1288 29.7692 52.4428C29.7692 51.833 29 51.2232 28.5385 50.7658C28.0769 50.3085 27.0769 50.9945 26.6154 50.5371C26.0769 50.0798 26.6923 49.6987 26.4615 49.0889C26.3077 48.7077 26.1539 48.8602 26.0769 49.0126C26.1539 48.8602 26.2308 48.5553 25.9231 48.2504C25.5385 47.793 24.3077 49.3175 24.3846 49.7749C24.3846 50.2322 24.9231 49.5462 25.1539 50.2322C25.3077 50.9183 22.8462 51.9092 22.3846 53.1288C21.9231 54.2722 23.1539 55.7204 23.6923 56.4827C24.2308 57.1687 25.9231 57.3974 26.0769 57.7785C26.3077 58.1596 25.1539 58.617 25.7692 59.2268C26.3846 59.8366 26.9231 60.4464 27.0769 60.9037C27.2308 61.3611 25.5385 62.9618 26.1539 63.1905C26.6923 63.4954 30.6154 61.5135 30.8462 60.98ZM28.0769 51.2232C28.8462 51.0707 28.2308 53.3575 27.7692 53.3575C27.3077 53.4337 26 51.6043 28.0769 51.2232Z" fill="#FFF3A2"/>
<path d="M23.3077 22.4863C23 22.7912 22.6924 23.0198 22.5385 23.0961C22.2308 23.2485 22.077 23.3247 22.077 23.3247C21.9231 23.401 21.6924 23.401 21.5385 23.401C21.4616 23.4772 21.4616 23.6296 21.3847 23.7059C21.3847 23.7821 21.3077 23.9345 21.2308 24.1632C21.1539 24.3157 21.1539 24.4681 21.077 24.6206C20.9231 24.9255 20.7693 25.1541 20.5385 25.3066L20.3847 25.1541C20.3077 25.0779 20.3077 25.0017 20.3077 24.9255C20.3847 24.6206 20.4616 24.2394 20.6154 23.8583C20.6924 23.6296 20.8462 23.2485 21.077 22.7149C21.3077 22.1814 21.4616 21.8002 21.5385 21.5716C21.6924 21.1904 21.7693 20.8093 21.8462 20.5044C21.7693 20.5044 21.7693 20.5044 21.7693 20.4282C21.7693 20.352 21.7693 20.2757 21.6924 20.2757C21.7693 20.1233 21.8462 20.0471 21.9231 20.1233C22 20.1233 22.1539 20.1995 22.3847 20.2757C23 20.5806 23.3847 21.038 23.4616 21.6478C23.5385 21.8002 23.4616 22.0289 23.3847 22.1814C23.5385 22.1814 23.4616 22.3338 23.3077 22.4863ZM23.077 21.8002C23.1539 21.6478 23.1539 21.4191 23 21.2667C23 21.2667 22.8462 21.1142 22.5385 20.8855C22.2308 21.8002 22 22.41 21.8462 22.7912C22.4616 22.4863 22.8462 22.1814 23.077 21.8002Z" fill="#FFF3A2" stroke="#FFF3A2" stroke-width="0.452" stroke-miterlimit="10"/>
<path d="M27.0001 26.2975C27.0001 26.3737 27.0001 26.4499 27.0001 26.5261C27.0001 26.6024 26.9232 26.6786 26.7693 26.7548C26.6924 26.831 26.6155 26.831 26.5385 26.831C26.3078 26.6786 26.2309 26.4499 26.3078 26.0688C26.3847 25.6877 26.3847 25.3065 26.3847 25.0779C26.2309 25.0016 26.077 25.0016 25.8462 24.9254C25.6155 24.8492 25.4616 24.9254 25.3078 24.9254C25.2309 25.0779 25.0001 25.3065 24.7693 25.6877C24.5385 25.9926 24.3847 26.2975 24.2309 26.4499C24.1539 26.5261 24.077 26.5261 23.9232 26.4499C23.7693 26.3737 23.6924 26.2212 23.7693 26.145C23.8462 25.9926 24.0001 25.6877 24.2309 25.459C24.5385 25.1541 24.6924 24.9254 24.7693 24.773C24.7693 24.6967 24.7693 24.6967 24.7693 24.6205C24.6924 24.5443 24.6924 24.4681 24.6924 24.4681C24.6924 24.4681 24.6924 24.3918 24.7693 24.3918C24.7693 24.3918 24.8462 24.3918 24.9232 24.3918C25.0001 24.3918 25.077 24.3918 25.077 24.3918C25.2309 24.1632 25.5385 23.782 26.0001 23.1722C26.3847 22.6387 26.6924 22.2575 26.9232 22.0289C27.0001 21.9526 27.077 21.9526 27.1539 21.9526C27.2309 21.9526 27.3078 22.0289 27.3078 22.1051C27.3847 22.2575 27.3847 22.4862 27.3847 22.7149C27.3078 22.9436 27.3078 23.1722 27.2309 23.3247C27.1539 24.3918 27.077 25.459 27.0001 26.2975ZM26.4616 24.5443C26.5385 24.3918 26.5385 24.1632 26.6155 23.9345C26.6155 23.7058 26.6924 23.4771 26.6924 23.3247C26.3847 23.7058 26.077 24.0107 25.8462 24.3918C25.9232 24.3156 26.1539 24.3918 26.4616 24.5443Z" fill="#FFF3A2" stroke="#FFF3A2" stroke-width="0.452" stroke-miterlimit="10"/>
<path d="M31.8462 23.3248C31.8462 23.401 31.6924 23.4772 31.5385 23.4772C31.4616 23.4772 31.4616 23.4772 31.3847 23.4772C31.3077 23.401 31.3077 23.401 31.3077 23.401H31.2308C30.8462 23.5535 30.6154 23.8584 30.4616 24.2395C30.3847 24.3919 30.3847 24.5444 30.3847 24.6968C30.3847 24.7731 30.3847 25.2304 30.5385 26.0689C30.6154 26.6025 30.5385 27.0598 30.4616 27.3647C30.3847 27.6696 30.2308 27.8983 30.0001 28.0507C29.9231 28.127 29.7693 28.2032 29.5385 28.2794C29.3847 28.3556 29.2308 28.3556 29.077 28.2794C29.0001 28.2794 29.0001 28.2794 28.9231 28.2032C28.7693 28.0507 28.7693 27.9745 28.7693 27.8983C28.7693 27.8221 28.8462 27.7458 28.9231 27.7458C28.9231 27.7458 29.0001 27.7458 29.077 27.7458C29.1539 27.7458 29.2308 27.7458 29.2308 27.7458C29.3847 27.5934 29.5385 27.3647 29.6154 27.136C29.7693 26.8311 29.7693 26.2976 29.6924 25.6115C29.6154 24.9255 29.6154 24.3919 29.7693 24.0108C29.8462 23.7059 30.077 23.4772 30.2308 23.2486C30.4616 23.0199 30.6924 22.8674 31.0001 22.8674C31.1539 22.8674 31.2308 22.8674 31.3847 22.8674C31.6154 22.9437 31.6924 23.0199 31.7693 23.1723C31.9231 23.2486 31.9231 23.3248 31.8462 23.3248Z" fill="#FFF3A2" stroke="#FFF3A2" stroke-width="0.452" stroke-miterlimit="10"/>
<path d="M35.3847 24.5444C35.3847 24.6206 35.2308 24.6968 35.077 24.6968C35.0001 24.6968 35.0001 24.6968 34.9231 24.6968C34.8462 24.6206 34.8462 24.6206 34.8462 24.6206H34.7693C34.3847 24.773 34.1539 25.0779 34.0001 25.4591C33.9231 25.6115 33.8462 25.764 33.8462 25.9164C33.8462 25.9926 33.9231 26.45 34.0001 27.2122C34.077 27.7458 34.0001 28.2032 33.9231 28.5081C33.8462 28.813 33.6924 29.0416 33.4616 29.1941C33.3847 29.2703 33.2308 29.3465 33.0001 29.4228C32.8462 29.499 32.6924 29.499 32.5385 29.4228C32.4616 29.4228 32.4616 29.4228 32.3847 29.3465C32.2308 29.1941 32.2308 29.1179 32.2308 29.0416C32.2308 28.9654 32.3078 28.8892 32.3847 28.8892C32.3847 28.8892 32.4616 28.8892 32.5385 28.8892C32.6154 28.8892 32.6924 28.8892 32.6924 28.813C32.8462 28.6605 33.0001 28.4318 33.077 28.2032C33.2308 27.8983 33.2308 27.3647 33.1539 26.6787C33.077 25.9926 33.077 25.4591 33.2308 25.0779C33.3078 24.773 33.5385 24.5444 33.6924 24.3157C33.9231 24.087 34.1539 23.9346 34.4616 23.9346C34.6154 23.9346 34.6924 23.9346 34.8462 23.9346C35.077 24.0108 35.1539 24.087 35.2308 24.2395C35.3847 24.4681 35.3847 24.5444 35.3847 24.5444Z" fill="#FFF3A2" stroke="#FFF3A2" stroke-width="0.452" stroke-miterlimit="10"/>
<path d="M38.6155 27.8983C38.3078 28.2032 38.0001 28.4319 37.8462 28.5081C37.5385 28.6606 37.3847 28.7368 37.3847 28.7368C37.2308 28.813 37.0001 28.813 36.8462 28.813C36.7693 28.8892 36.7693 29.0417 36.6924 29.1179C36.6924 29.1941 36.6155 29.3466 36.5385 29.5753C36.4616 29.8039 36.4616 29.8802 36.3847 30.0326C36.2308 30.3375 36.077 30.5662 35.8462 30.7186L35.7693 30.49C35.6924 30.4137 35.6924 30.3375 35.6924 30.2613C35.7693 29.9564 35.8462 29.5753 36.0001 29.1941C36.077 28.9655 36.2308 28.5843 36.4616 28.0508C36.6924 27.5172 36.8462 27.1361 36.9232 26.9074C37.077 26.5263 37.1539 26.1451 37.2308 25.8402C37.1539 25.8402 37.1539 25.8402 37.1539 25.764C37.1539 25.6878 37.1539 25.6116 37.077 25.6116C37.1539 25.4591 37.2308 25.3829 37.3078 25.4591C37.3847 25.4591 37.5385 25.5353 37.7693 25.6116C38.3847 25.9165 38.7693 26.3738 38.8462 26.9836C38.9232 27.1361 38.8462 27.3647 38.8462 27.5172C38.8462 27.5934 38.7693 27.7459 38.6155 27.8983ZM38.3847 27.1361C38.4616 26.9836 38.4616 26.7549 38.3078 26.6025C38.3078 26.6025 38.1539 26.45 37.8462 26.2214C37.5385 27.1361 37.2308 27.7459 37.077 28.127C37.7693 27.8221 38.1539 27.5172 38.3847 27.1361Z" fill="#FFF3A2" stroke="#FFF3A2" stroke-width="0.452" stroke-miterlimit="10"/>
<path d="M42.6924 30.3375C42.1539 30.871 41.6154 31.0997 41.0001 31.0997C40.9231 31.0997 40.8462 31.0997 40.7693 31.0235C40.4616 30.9473 40.2308 30.6424 40.077 30.2613C40.0001 29.9564 40.0001 29.6514 40.077 29.3465C40.2308 28.9654 40.4616 28.6605 40.8462 28.2794C41.0001 28.1269 41.1539 28.0507 41.3847 27.9745C41.6154 27.8983 41.7693 27.822 41.9231 27.8983C42.0001 27.8983 42.077 27.9745 42.077 28.0507C42.1539 28.1269 42.3077 28.2794 42.5385 28.5081C42.7693 28.6605 42.8462 28.8892 42.8462 29.0416C42.9231 29.4228 42.8462 29.7277 42.7693 29.9563C42.8462 30.185 42.7693 30.2612 42.6924 30.3375ZM42.2308 29.7277C42.3078 29.3465 42.3077 29.1179 42.1539 28.9654H42.077C42.0001 28.9654 41.9231 28.9654 41.7693 29.0416C41.6154 29.1179 41.5385 29.1941 41.4616 29.1941C41.3847 29.1941 41.3847 29.1941 41.3078 29.1179C41.2308 29.0416 41.2308 29.0416 41.2308 29.0416C41.2308 29.0416 41.2308 29.0416 41.1539 29.0416C40.9231 29.1179 40.7693 29.3466 40.6154 29.6515C40.5385 29.8801 40.5385 30.0326 40.5385 30.2613C40.6154 30.4899 40.6924 30.6424 40.7693 30.7186C41.0001 30.7948 41.2308 30.7186 41.5385 30.5661C42.0001 30.1088 42.2308 29.9563 42.2308 29.7277Z" fill="#FFF3A2" stroke="#FFF3A2" stroke-width="0.452" stroke-miterlimit="10"/>
<path d="M46.7693 33.6914C46.8462 33.6914 46.8462 33.6914 46.7693 33.6914C46.6924 33.8439 46.5385 33.9201 46.3078 33.9201C46.1539 33.6152 45.9231 33.234 45.6924 32.6242C45.4616 32.0144 45.2308 31.5571 45.077 31.3284C45.0001 31.4809 44.8462 31.7858 44.6154 32.3193C44.4616 32.7005 44.2308 33.0054 44.077 33.234H44.0001C43.9231 33.234 43.9231 33.234 43.8462 33.234C43.6154 33.0816 43.6154 32.9292 43.6924 32.7005C43.6924 32.6242 43.7693 32.548 43.8462 32.3956C43.9231 32.2431 44.0001 32.1669 44.0001 32.1669C44.1539 31.862 44.2308 31.5571 44.4616 31.176L44.7693 30.3375C45.0001 29.6515 45.3078 29.1179 45.5385 28.6605C45.6924 28.3556 46.077 28.3556 46.5385 28.5081C46.7693 28.5843 47.0001 28.813 47.077 29.1179C47.1539 29.4228 47.1539 29.7277 47.077 29.9564C47.0001 30.185 46.8462 30.4137 46.5385 30.5662C46.3078 30.7186 46.077 30.7948 45.8462 30.8711C45.7693 30.8711 45.6924 30.9473 45.6154 31.0235C45.6154 31.0997 45.6154 31.176 45.6924 31.3284C45.7693 31.4046 45.7693 31.4809 45.8462 31.6333C45.8462 31.6333 46.0001 32.0144 46.3847 32.6242C46.6154 33.0054 46.7693 33.3865 46.7693 33.6914ZM46.5385 29.8039C46.6154 29.7277 46.6154 29.6515 46.6154 29.5752C46.6154 29.499 46.6154 29.3466 46.6154 29.2703C46.5385 29.1941 46.4616 29.1179 46.3078 29.0417C46.1539 28.9654 46.077 29.0417 46.077 29.0417C46.0001 29.1179 45.9231 29.2703 45.8462 29.4228C45.8462 29.499 45.7693 29.6515 45.6924 29.9564C45.6154 30.185 45.5385 30.3375 45.5385 30.4137C46.0001 30.2613 46.3847 30.1088 46.5385 29.8039Z" fill="#FFF3A2"/>
<path d="M46.7693 33.6914C46.8462 33.6914 46.8462 33.6914 46.7693 33.6914ZM46.7693 33.6914C46.6924 33.8439 46.5385 33.9201 46.3078 33.9201C46.1539 33.6152 45.9231 33.234 45.6924 32.6242C45.4616 32.0144 45.2308 31.5571 45.077 31.3284C45.0001 31.4809 44.8462 31.7858 44.6154 32.3193C44.4616 32.7005 44.2308 33.0054 44.077 33.234H44.0001C43.9231 33.234 43.9231 33.234 43.8462 33.234C43.6154 33.0816 43.6154 32.9292 43.6924 32.7005C43.6924 32.6242 43.7693 32.548 43.8462 32.3956C43.9231 32.2431 44.0001 32.1669 44.0001 32.1669C44.1539 31.862 44.2308 31.5571 44.4616 31.176L44.7693 30.3375C45.0001 29.6515 45.3078 29.1179 45.5385 28.6605C45.6924 28.3556 46.077 28.3556 46.5385 28.5081C46.7693 28.5843 47.0001 28.813 47.077 29.1179C47.1539 29.4228 47.1539 29.7277 47.077 29.9564C47.0001 30.185 46.8462 30.4137 46.5385 30.5662C46.3078 30.7186 46.077 30.7948 45.8462 30.8711C45.7693 30.8711 45.6924 30.9473 45.6154 31.0235C45.6154 31.0997 45.6154 31.176 45.6924 31.3284C45.7693 31.4046 45.7693 31.4809 45.8462 31.6333C45.8462 31.6333 46.0001 32.0144 46.3847 32.6242C46.6154 33.0054 46.7693 33.3865 46.7693 33.6914ZM46.5385 29.8039C46.6154 29.7277 46.6154 29.6515 46.6154 29.5752C46.6154 29.499 46.6154 29.3466 46.6154 29.2703C46.5385 29.1941 46.4616 29.1179 46.3078 29.0417C46.1539 28.9654 46.077 29.0417 46.077 29.0417C46.0001 29.1179 45.9231 29.2703 45.8462 29.4228C45.8462 29.499 45.7693 29.6515 45.6924 29.9564C45.6154 30.185 45.5385 30.3375 45.5385 30.4137C46.0001 30.2613 46.3847 30.1088 46.5385 29.8039Z" stroke="#FFF3A2" stroke-width="0.452" stroke-miterlimit="10"/>
<path d="M53.3077 30.7186C53.2308 30.8711 53.077 30.9473 52.9231 30.9473C52.5385 30.9473 52.0001 30.7948 51.1539 30.7186C50.6154 31.9382 50.1539 32.9292 49.8462 33.6914C49.6924 33.9963 49.6154 34.3012 49.5385 34.6061C49.5385 34.6823 49.4616 34.7586 49.4616 34.8348C49.3847 34.911 49.3077 34.911 49.3077 34.911C49.1539 34.8348 49.077 34.7586 49.0001 34.6061C48.9231 34.4537 48.9231 34.3012 49.0001 34.1488C49.077 33.9963 49.1539 33.7676 49.2308 33.539C49.3847 33.2341 49.5385 32.7005 49.8462 32.0144C50.1539 31.3284 50.3847 30.8711 50.4616 30.4899C50.3077 30.4137 50.1539 30.4137 49.9231 30.3375C49.6154 30.2613 49.4616 30.2613 49.3077 30.185C49.077 30.1088 48.9231 29.9564 48.7693 29.8039C48.7693 29.6515 48.7693 29.5752 48.7693 29.5752L48.8462 29.499C49.0001 29.499 49.3847 29.5752 49.8462 29.6515C50.3077 29.7277 50.6154 29.8039 50.9231 29.7277C51.077 29.8801 51.2308 29.9564 51.4616 30.0326C51.6924 30.1088 51.9231 30.185 52.1539 30.185C52.2308 30.185 52.3847 30.185 52.6154 30.2613C52.7693 30.2613 52.9231 30.3375 53.077 30.3375C53.1539 30.3375 53.1539 30.4137 53.1539 30.4899C53.3077 30.4899 53.3847 30.5662 53.3077 30.7186Z" fill="#FFF3A2" stroke="#FFF3A2" stroke-width="0.452" stroke-miterlimit="10"/>
<path d="M38.3846 15.9309L41.077 6.25037L48.1539 8.38467L45.3846 17.8366L38.3846 15.9309Z" fill="#37AF9F"/>
<path d="M39 15.4736L41.3846 6.78394L47.6923 8.68956L45.3077 17.1505L39 15.4736Z" fill="#FCFBF6"/>
</g>
<defs>
<clipPath id="clip0_1437_15043">
<rect width="60" height="84" fill="white"/>
</clipPath>
</defs>
</svg>
