<svg width="114" height="91" viewBox="0 0 114 91" fill="none" xmlns="http://www.w3.org/2000/svg">
<mask id="mask0_1437_14953" style="mask-type:alpha" maskUnits="userSpaceOnUse" x="72" y="24" width="42" height="42">
<rect x="72.9923" y="24.6041" width="41.007" height="41.007" fill="#D9D9D9"/>
</mask>
<g mask="url(#mask0_1437_14953)">
<path d="M104.906 32.3711C104.906 32.3711 109.622 35.1315 106.976 41.9175C104.216 48.8185 96.1648 56.5246 96.1648 56.5246L104.906 32.3711Z" fill="#FA6142"/>
<path d="M99.5007 27.3104C99.5007 27.3104 106.977 26.6203 106.287 36.0517C105.482 45.4831 96.1652 56.5247 96.1652 56.5247H95.015L99.5007 27.3104Z" fill="#F29D89"/>
<path d="M82.9377 29.6111C82.9377 29.6111 78.7971 30.6462 78.9121 37.8923C79.0271 45.1383 89.0336 56.525 89.0336 56.525L82.9377 29.6111Z" fill="#F29D89"/>
<path d="M89.036 27.3107C89.036 27.3107 84.8954 23.8602 81.79 29.726C78.6845 35.7069 89.036 56.5249 89.036 56.5249H90.9913L89.036 27.3107Z" fill="#FA6142"/>
<path d="M94.3236 25.9303C94.3236 25.9303 90.298 21.3296 86.5024 29.2657C82.7069 37.0869 91.1031 56.5247 91.1031 56.5247H93.1734L94.3236 25.9303Z" fill="#F29D89"/>
<path d="M94.3264 25.9302C94.3264 25.9302 99.1571 22.0196 101.572 29.4957C103.873 36.9718 95.1315 56.4096 95.1315 56.4096H93.1762L94.3264 25.9302Z" fill="#FA6142"/>
<path d="M92.7132 65.6111C91.793 65.6111 91.1029 64.921 91.1029 64.0009V62.3906H94.4384V64.0009C94.4384 64.921 93.6333 65.6111 92.7132 65.6111Z" fill="#FA6142"/>
<path d="M89.0355 56.5245C89.0355 56.8696 91.1058 62.3904 91.1058 62.3904" stroke="#353140" stroke-width="0.25" stroke-miterlimit="10"/>
<path d="M96.1672 56.525L94.442 62.3909" stroke="#353140" stroke-width="0.25" stroke-miterlimit="10"/>
</g>
<mask id="mask1_1437_14953" style="mask-type:alpha" maskUnits="userSpaceOnUse" x="0" y="0" width="91" height="91">
<rect width="90.2155" height="90.2155" fill="#D9D9D9"/>
</mask>
<g mask="url(#mask1_1437_14953)">
<path d="M70.2134 17.0883C70.2134 17.0883 80.5879 23.1611 74.7681 38.0903C68.6952 53.2725 50.9827 70.2259 50.9827 70.2259L70.2134 17.0883Z" fill="#FA6142"/>
<path d="M58.3165 5.95443C58.3165 5.95443 74.7639 4.43621 73.2457 25.1852C71.4744 45.9342 50.9785 70.2257 50.9785 70.2257H48.4481L58.3165 5.95443Z" fill="#F29D89"/>
<path d="M21.8807 11.0151C21.8807 11.0151 12.7714 13.2925 13.0244 29.2338C13.2774 45.1751 35.2916 70.2257 35.2916 70.2257L21.8807 11.0151Z" fill="#F29D89"/>
<path d="M35.2961 5.95445C35.2961 5.95445 26.1868 -1.63665 19.3548 11.2682C12.5228 24.4261 35.2961 70.2257 35.2961 70.2257H39.5977L35.2961 5.95445Z" fill="#FA6142"/>
<path d="M46.931 2.91777C46.931 2.91777 38.0747 -7.20369 29.7245 10.2558C21.3743 27.4623 39.846 70.2255 39.846 70.2255H44.4006L46.931 2.91777Z" fill="#F29D89"/>
<path d="M46.9338 2.91739C46.9338 2.91739 57.5613 -5.68585 62.8751 10.7615C67.9358 27.2089 48.705 69.972 48.705 69.972H44.4034L46.9338 2.91739Z" fill="#FA6142"/>
<path d="M43.388 90.2155C41.3637 90.2155 39.8455 88.6973 39.8455 86.673V83.1305H47.1835V86.673C47.1835 88.6973 45.4123 90.2155 43.388 90.2155Z" fill="#FA6142"/>
<path d="M35.2944 70.2251C35.2944 70.9842 39.8491 83.13 39.8491 83.13" stroke="#353140" stroke-width="0.25" stroke-miterlimit="10"/>
<path d="M50.9827 70.2251L47.1872 83.13" stroke="#353140" stroke-width="0.25" stroke-miterlimit="10"/>
</g>
</svg>
