<svg width="25" height="25" viewBox="0 0 25 25" fill="none" xmlns="http://www.w3.org/2000/svg">
<path d="M12.5616 1.76172C12.6883 1.90735 12.8555 2.1644 13.0401 2.57129C13.408 3.3823 13.8153 4.72594 14.1163 6.7998V6.80078C14.4285 8.9306 16.0668 10.588 18.2169 10.9004C20.2896 11.2012 21.6333 11.6116 22.4444 11.9814C22.8513 12.167 23.1085 12.3361 23.2549 12.4629C23.2711 12.4768 23.2844 12.4909 23.2969 12.5029C23.2842 12.5152 23.2715 12.5305 23.2549 12.5449C23.1093 12.6716 22.8523 12.8388 22.4454 13.0234C21.6344 13.3913 20.2907 13.7987 18.2169 14.0996H18.2159C16.086 14.4117 14.4287 16.0502 14.1163 18.2002C13.8155 20.2732 13.4041 21.6167 13.0342 22.4277C12.8487 22.8345 12.6806 23.0918 12.5538 23.2383C12.5397 23.2546 12.5249 23.2676 12.5128 23.2803C12.5006 23.2676 12.4859 23.2546 12.4717 23.2383C12.3451 23.0927 12.1778 22.8356 11.9932 22.4287C11.6713 21.7191 11.3187 20.6019 11.0342 18.9443L10.9171 18.2002C10.6047 16.0502 8.94725 14.4118 6.81744 14.0996H6.81647C4.74326 13.7988 3.39902 13.3875 2.58795 13.0176C2.18135 12.8321 1.92381 12.6639 1.7774 12.5371C1.76106 12.5229 1.7481 12.5082 1.73541 12.4961C1.74817 12.4838 1.76184 12.4695 1.77838 12.4551C1.92401 12.3284 2.18106 12.1612 2.58795 11.9766C3.39895 11.6087 4.74256 11.2013 6.81647 10.9004H6.81744C8.88073 10.598 10.5006 9.0511 10.8839 7L10.9171 6.7998C11.2179 4.72663 11.6282 3.38236 11.9981 2.57129C12.1836 2.16451 12.3528 1.90719 12.4796 1.76074C12.4935 1.74461 12.5076 1.73132 12.5196 1.71875C12.532 1.73162 12.547 1.74497 12.5616 1.76172Z" stroke="#110F0F" stroke-opacity="0.15"/>
<path d="M12.5 0.5C12.8014 0.5 13.1015 0.651096 13.4111 1.00781C13.7244 1.36879 14.0078 1.89807 14.2559 2.54004C14.7507 3.82072 15.0574 5.41799 15.2373 6.63672V6.6377C15.4684 8.16639 16.5728 9.37412 18.0645 9.70801L18.3672 9.7627C19.5842 9.93423 21.1802 10.237 22.46 10.7314C23.1014 10.9793 23.6304 11.2633 23.9912 11.5781C24.3474 11.889 24.5 12.1929 24.5 12.5C24.5 12.8014 24.3489 13.1015 23.9922 13.4111C23.6312 13.7244 23.1019 14.0078 22.46 14.2559C21.1793 14.7507 19.582 15.0574 18.3633 15.2373L18.3623 15.2383C16.8336 15.4694 15.6259 16.5728 15.292 18.0645L15.2373 18.3672C15.0658 19.5842 14.763 21.1802 14.2686 22.46C14.0207 23.1014 13.7367 23.6304 13.4219 23.9912C13.111 24.3474 12.8071 24.5 12.5 24.5C12.1986 24.5 11.8985 24.3489 11.5889 23.9922C11.2756 23.6312 10.9922 23.1019 10.7441 22.46C10.2493 21.1793 9.94167 19.582 9.76172 18.3633C9.53102 16.7404 8.26921 15.4849 6.6377 15.2383V15.2373H6.63281C5.41583 15.0658 3.81976 14.763 2.54004 14.2686C1.89863 14.0207 1.36957 13.7367 1.00879 13.4219C0.652602 13.111 0.500003 12.8071 0.5 12.5C0.5 12.1986 0.6511 11.8985 1.00781 11.5889C1.36879 11.2756 1.89808 10.9922 2.54004 10.7441C3.82072 10.2493 5.41799 9.94264 6.63672 9.7627L6.6377 9.76172C8.16639 9.53064 9.37412 8.42721 9.70801 6.93555L9.7627 6.63281C9.93423 5.41583 10.237 3.81976 10.7314 2.54004C10.9793 1.89862 11.2633 1.36956 11.5781 1.00879C11.889 0.652599 12.1929 0.5 12.5 0.5ZM12.5 0.654297C12.3173 0.654297 12.1601 0.724972 12.042 0.800781C11.9199 0.879188 11.8056 0.984279 11.7002 1.10547C11.4893 1.34789 11.2745 1.69727 11.0654 2.1582C10.6461 3.0827 10.2203 4.52521 9.91113 6.65527C9.66258 8.35125 8.36504 9.66285 6.65625 9.91113C4.52466 10.2204 3.08177 10.6507 2.15723 11.0723C1.69632 11.2825 1.34802 11.4979 1.10645 11.707C0.985899 11.8114 0.880955 11.924 0.802734 12.0439C0.746602 12.13 0.691093 12.2398 0.666992 12.3672L0.654297 12.5L0.666992 12.6318C0.690344 12.7587 0.743907 12.8694 0.800781 12.958C0.879189 13.0801 0.984277 13.1944 1.10547 13.2998C1.34789 13.5107 1.69727 13.7255 2.1582 13.9346C3.08268 14.3539 4.52529 14.7787 6.65527 15.0879V15.0889C8.35125 15.3374 9.66285 16.635 9.91113 18.3438C10.2204 20.4753 10.6507 21.9182 11.0723 22.8428C11.2825 23.3037 11.4979 23.652 11.707 23.8936C11.8114 24.0141 11.924 24.119 12.0439 24.1973C12.1587 24.2721 12.3157 24.3457 12.5 24.3457C12.6827 24.3457 12.8399 24.275 12.958 24.1992C13.0801 24.1208 13.1944 24.0157 13.2998 23.8945C13.5107 23.6521 13.7255 23.3027 13.9346 22.8418C14.3539 21.9173 14.7797 20.4748 15.0889 18.3447C15.3374 16.6487 16.635 15.3372 18.3438 15.0889C20.4753 14.7796 21.9182 14.3493 22.8428 13.9277C23.3037 13.7175 23.652 13.5021 23.8936 13.293C24.0141 13.1886 24.119 13.076 24.1973 12.9561C24.2721 12.8413 24.3457 12.6843 24.3457 12.5C24.3457 12.3173 24.275 12.1601 24.1992 12.042C24.1208 11.9199 24.0157 11.8056 23.8945 11.7002C23.6521 11.4893 23.3027 11.2745 22.8418 11.0654C21.9172 10.646 20.4743 10.2203 18.3438 9.91113H18.3447C16.6487 9.66258 15.3372 8.36504 15.0889 6.65625C14.7796 4.52466 14.3493 3.08176 13.9277 2.15723C13.7175 1.69632 13.5021 1.34802 13.293 1.10645C13.1886 0.985896 13.076 0.880956 12.9561 0.802734C12.8413 0.727905 12.6843 0.654297 12.5 0.654297Z" stroke="#110F0F" stroke-opacity="0.15"/>
</svg>
