<svg width="134" height="132" viewBox="0 0 134 132" fill="none" xmlns="http://www.w3.org/2000/svg">
<mask id="path-1-inside-1_1151_4069" fill="white">
<path d="M60.022 80.8708L89.3123 143.369L91.2713 141.284C103.973 127.824 107.101 108.297 99.2969 91.519C98.7914 90.4447 98.2542 89.3703 97.6538 88.3276L132.6 100.966L132.505 98.1227C131.968 79.6385 120.372 63.5873 102.994 57.268C101.856 56.8572 100.719 56.4781 99.5813 56.1621L133.232 40.3952L131.146 38.4363C117.686 25.7343 98.1594 22.6062 81.3815 30.4107C77.9058 32.0221 74.7146 34.0443 71.8077 36.4456C71.1125 32.8436 69.975 29.3047 68.3952 25.9239C60.5908 9.14595 43.5916 -0.996614 25.1391 0.0776783L22.2638 0.235663L38.157 34.1391C37.0511 33.6335 35.9136 33.1596 34.7761 32.7488C17.3979 26.4295 -1.81302 31.2638 -14.1042 45.0716L-16 47.2202L19.1989 59.9537C18.0614 60.3645 16.9239 60.8384 15.818 61.3756C-0.959919 69.18 -11.1024 86.1791 -10.0282 104.632L-9.87017 107.507L51.3961 78.817L14.5541 155.439L49.8479 168.299L60.022 80.8708ZM90.355 136.45L61.1595 74.1407L64.098 72.7504L64.9511 72.3397L69.9119 70.0331C70.9546 71.0126 72.1868 71.7709 73.5455 72.3081C74.4302 72.6556 75.2833 73.0348 76.1364 73.4139C81.6659 76.0365 86.5317 79.8281 90.3866 84.5676C90.6709 84.9468 90.9869 85.2944 91.2713 85.6735C93.0091 87.9801 94.5257 90.4762 95.758 93.1303C102.488 107.602 100.34 124.285 90.355 136.45ZM64.8564 27.5353C66.7838 31.6745 67.9844 36.0033 68.4584 40.4901L68.8691 44.4712L71.7444 41.6907C75.0305 38.4994 78.7905 35.9085 82.9929 33.9495C97.4327 27.2194 114.116 29.3995 126.281 39.3525L93.1355 54.8982C92.9776 54.8666 92.7879 54.8666 92.63 54.835C92.3772 54.8034 92.156 54.7718 91.9032 54.7718C91.6504 54.7402 91.3661 54.7086 91.1133 54.7086C90.8605 54.677 90.6393 54.677 90.3866 54.6454C90.1338 54.6138 89.8494 54.6138 89.5966 54.6138C89.3439 54.6138 89.1227 54.5822 88.87 54.5822C88.5856 54.5822 88.3328 54.5822 88.0484 54.5822C87.8272 54.5822 87.5745 54.5822 87.3533 54.5822C87.0689 54.5822 86.8161 54.5822 86.5318 54.5822C86.3106 54.5822 86.0578 54.5822 85.8366 54.6138C85.5523 54.6138 85.2995 54.6454 85.0151 54.6454C84.7939 54.6454 84.5412 54.677 84.32 54.677C84.0356 54.7086 83.7829 54.7086 83.4985 54.7402C83.2773 54.7718 83.0245 54.7718 82.8033 54.8034C82.5189 54.835 82.2662 54.8666 81.9818 54.8982C81.7607 54.9298 81.5079 54.9614 81.2867 54.993C81.0023 55.0246 80.7495 55.0878 80.4652 55.1194C80.244 55.151 80.0228 55.1826 79.7701 55.2458C79.4857 55.309 79.2329 55.3406 78.9485 55.4037C78.7273 55.4353 78.5062 55.4985 78.285 55.5301C78.0007 55.5933 77.7478 55.6565 77.4635 55.7197C77.2423 55.7829 77.0211 55.8145 76.7999 55.8777C76.5155 55.9409 76.2628 56.0357 75.9784 56.0989C75.7573 56.1621 75.5361 56.2253 75.3465 56.2568C75.0621 56.3516 74.7777 56.4148 74.525 56.5096C74.3038 56.5728 74.1142 56.636 73.893 56.6992C73.6086 56.794 73.3243 56.8888 73.0399 56.9836C72.8503 57.0468 72.6607 57.11 72.4712 57.1732C72.1552 57.2996 71.8392 57.3943 71.5233 57.5207C71.3653 57.5839 71.2073 57.6471 71.0493 57.7103C70.5753 57.8999 70.1014 58.0895 69.6274 58.3106C69.0271 58.5634 68.3636 58.753 67.7001 58.8794C65.0775 59.2902 62.3286 58.3107 60.5592 56.3201C60.0852 55.8145 59.7061 55.2142 59.3901 54.6138C59.1689 54.1715 58.9162 53.7291 58.695 53.2868C58.6318 53.1604 58.5369 53.034 58.4737 52.876C58.3158 52.56 58.1262 52.2756 57.9682 51.9913C57.8735 51.8333 57.7786 51.6753 57.6838 51.5173C57.5258 51.2645 57.3679 50.9802 57.1783 50.7274C57.0835 50.5694 56.9571 50.3798 56.8624 50.2219C56.7044 49.9691 56.5463 49.7163 56.3568 49.4952C56.2304 49.3372 56.104 49.1476 55.9776 48.9896C55.8196 48.7684 55.6616 48.5156 55.472 48.2945C55.3457 48.1049 55.2193 47.9469 55.0929 47.7889C54.9349 47.5677 54.7454 47.3466 54.5874 47.1254C54.461 46.9358 54.303 46.7778 54.1766 46.6198C54.0186 46.3986 53.829 46.209 53.671 45.9879C53.5131 45.8299 53.3867 45.6403 53.2287 45.4823C53.0391 45.2927 52.8812 45.0716 52.6916 44.882C52.5336 44.724 52.3756 44.5344 52.2176 44.3764C52.028 44.1869 51.87 43.9973 51.6804 43.8077C51.5224 43.6497 51.3645 43.4917 51.1749 43.3021C50.9853 43.1126 50.7957 42.923 50.6062 42.7334C50.4482 42.5754 50.2586 42.4175 50.1006 42.2595C49.911 42.0699 49.7215 41.9119 49.5319 41.7223C49.3423 41.5643 49.1843 41.4063 48.9947 41.2483C48.8051 41.0904 48.6156 40.9008 48.426 40.7428C48.2364 40.5848 48.0468 40.4268 47.8888 40.3004C47.6992 40.1425 47.4781 39.9845 47.2885 39.8265C47.0989 39.6685 46.9093 39.5421 46.7197 39.3842C46.5301 39.2262 46.309 39.0682 46.1194 38.9102C45.9298 38.7838 45.7402 38.6258 45.5507 38.4994C45.3295 38.3414 45.1399 38.2151 44.9187 38.0571C44.7291 37.9307 44.5396 37.8043 44.3184 37.6463C44.192 37.5515 44.0656 37.4567 43.9076 37.362L28.2356 3.93248C43.9708 4.05887 58.1262 13.1272 64.8564 27.5353ZM33.3859 36.3825C36.1664 37.3936 38.8522 38.7206 41.3167 40.2688C47.5413 44.1869 52.5968 49.7795 55.9144 56.3517C56.3884 57.268 56.9887 58.1527 57.6838 58.911C57.8418 59.1006 58.0314 59.2586 58.1894 59.4482C58.2526 59.5114 58.3158 59.5745 58.4106 59.6377C58.5053 59.7325 58.6317 59.8273 58.7265 59.9221C58.8213 59.9853 58.8845 60.0485 58.9793 60.1117C59.0741 60.2065 59.2005 60.2696 59.2953 60.3644C59.3901 60.4276 59.4848 60.4909 59.5796 60.5541C59.6744 60.6172 59.8008 60.712 59.8956 60.7752C59.9904 60.8384 60.0852 60.9016 60.18 60.9648C60.2748 61.028 60.4012 61.0912 60.496 61.1544C60.5908 61.2176 60.7172 61.2807 60.812 61.3123C60.9067 61.3755 61.0331 61.4388 61.1279 61.502C61.2227 61.5652 61.3491 61.5967 61.4439 61.6599C61.5703 61.7231 61.665 61.7547 61.7914 61.8179C61.8862 61.8495 62.0126 61.9127 62.139 61.9443C62.2338 61.9759 62.3286 62.0391 62.455 62.0707H62.4866C62.613 62.1023 62.7394 62.1655 62.8658 62.1971C62.9605 62.2287 63.0553 62.2603 63.1817 62.2919C63.3081 62.3235 63.4661 62.355 63.5925 62.3866C63.6873 62.4182 63.7821 62.4499 63.9085 62.4499C64.0349 62.4815 64.1928 62.513 64.3192 62.5446C64.4139 62.5762 64.5088 62.5762 64.6036 62.6078C64.7616 62.6394 64.8879 62.6394 65.0459 62.671C65.1407 62.671 65.2355 62.7026 65.3303 62.7026C65.4883 62.7026 65.6147 62.7342 65.7726 62.7342C65.8674 62.7342 65.9622 62.7658 66.057 62.7658C66.215 62.7658 66.373 62.7658 66.5309 62.7658C66.6257 62.7658 66.7206 62.7658 66.8154 62.7658C66.9733 62.7658 67.1629 62.7342 67.3209 62.7342C67.4156 62.7342 67.4789 62.7342 67.5736 62.7342C67.8264 62.7026 68.0792 62.671 68.3004 62.6394C68.5532 62.6078 68.806 62.5446 69.0271 62.513C69.7539 62.3551 70.4806 62.1023 71.1757 61.8179C75.0621 60.1117 79.1381 59.0374 83.3089 58.595C83.3405 58.595 83.3405 58.595 83.3721 58.595C83.5301 58.5634 83.7197 58.5634 83.8776 58.5634C85.1099 58.437 86.3422 58.3739 87.5745 58.3739C87.922 58.3739 88.238 58.3739 88.5855 58.4054C88.7119 58.4054 88.8383 58.4054 88.9963 58.4054C90.3866 58.437 91.8085 58.5634 93.1987 58.753H93.2303C96.1056 59.1322 98.9494 59.8589 101.667 60.8384C116.644 66.3046 126.913 79.6069 128.461 95.279L94.0202 82.8298C93.9254 82.7034 93.8306 82.5771 93.7042 82.4507C93.5462 82.2611 93.3883 82.0715 93.2303 81.8503C93.0723 81.6607 92.9143 81.4712 92.7248 81.25C92.5668 81.0604 92.4088 80.8708 92.2192 80.6812C92.0612 80.4916 91.8717 80.302 91.7137 80.1125C91.5557 79.9229 91.3661 79.7333 91.2081 79.5753C91.0185 79.3857 90.8605 79.1962 90.671 79.0382C90.4814 78.8486 90.3234 78.6906 90.1338 78.501C89.9443 78.3115 89.7547 78.1535 89.5651 77.9639C89.3755 77.8059 89.2175 77.6163 89.028 77.4584C88.8384 77.2688 88.6488 77.1108 88.4592 76.9528C88.2696 76.7948 88.08 76.6368 87.9221 76.4788C87.7325 76.3208 87.5113 76.1313 87.3217 75.9733C87.1321 75.8153 86.9425 75.6573 86.7529 75.4993C86.5317 75.3414 86.3422 75.1834 86.121 75.0254C85.9314 74.8674 85.7419 74.741 85.5523 74.583C85.3311 74.425 85.1099 74.2671 84.8887 74.1091C84.6992 73.9827 84.5096 73.8247 84.32 73.6983C84.0988 73.5404 83.8777 73.3824 83.6565 73.256C83.4669 73.1296 83.2773 73.0032 83.0877 72.8768C82.8666 72.7188 82.6138 72.5924 82.3926 72.4345C82.203 72.3081 82.0134 72.1817 81.8239 72.0869C81.5711 71.9289 81.3183 71.8025 81.0971 71.6445C80.9075 71.5498 80.7179 71.4234 80.5284 71.3286C80.2756 71.1706 79.9912 71.0442 79.7384 70.9178C79.5489 70.823 79.3593 70.7282 79.1697 70.6334C78.8853 70.4754 78.6009 70.3491 78.3166 70.2227C78.127 70.1279 77.969 70.0331 77.7794 69.9699C77.4635 69.8119 77.1475 69.6855 76.7999 69.5275C76.6419 69.4643 76.5156 69.4011 76.3576 69.338C75.8836 69.1484 75.4097 68.9272 74.9357 68.7692C73.735 68.2953 72.6292 67.5053 71.8077 66.5258L70.8598 65.3883L59.7692 70.5702L59.4849 70.4754L59.3585 70.4123L54.1766 59.3534L52.6916 59.6693C51.3645 59.9537 49.9742 59.8589 48.6787 59.4482C48.2048 59.2902 47.7308 59.1322 47.2569 59.0058C47.0989 58.9426 46.9093 58.911 46.7197 58.8478C46.4038 58.753 46.1194 58.6898 45.8035 58.595C45.6139 58.5318 45.3927 58.5002 45.2031 58.437C44.9187 58.3738 44.6343 58.3107 44.35 58.2475C44.1288 58.2159 43.9392 58.1527 43.718 58.1211C43.4337 58.0579 43.1809 57.9947 42.8966 57.9631C42.6754 57.9315 42.4542 57.8999 42.233 57.8367C41.9486 57.8051 41.6958 57.7419 41.4114 57.7103C41.1903 57.6787 40.9691 57.6471 40.748 57.6155C40.4636 57.5839 40.2108 57.5523 39.9264 57.5207C39.7052 57.4891 39.4841 57.4891 39.2629 57.4575C38.9786 57.4259 38.7257 57.3943 38.4414 57.3627C38.2202 57.3311 37.999 57.3312 37.7778 57.2996C37.4934 57.268 37.2407 57.268 36.9563 57.2364C36.7352 57.2364 36.514 57.2048 36.2928 57.2048C36.0084 57.2048 35.7557 57.1732 35.4713 57.1732C35.2501 57.1732 35.0289 57.1732 34.8077 57.1732C34.5234 57.1732 34.2706 57.1732 33.9862 57.1732C33.765 57.1732 33.5439 57.1732 33.3227 57.2048C33.0383 57.2048 32.7855 57.2048 32.5012 57.2364C32.28 57.2364 32.0588 57.268 31.806 57.268C31.5533 57.2996 31.2689 57.2996 31.0161 57.3312C30.7949 57.3627 30.5738 57.3628 30.321 57.3944C30.0682 57.426 29.7839 57.4575 29.5311 57.4891C29.3099 57.5207 29.0571 57.5523 28.836 57.5839C28.5832 57.6155 28.2988 57.6471 28.046 57.6787C27.8249 57.7103 27.572 57.7419 27.3509 57.8051C27.0981 57.8367 26.8453 57.8999 26.5926 57.9315C26.3714 57.9631 26.1186 58.0263 25.8974 58.0579C25.7395 58.0895 25.5815 58.1211 25.4235 58.1527L-9.30149 45.5771C2.01019 34.5182 18.4406 30.9162 33.3859 36.3825ZM17.3978 64.8512C20.0836 63.5873 22.8957 62.6394 25.771 62.0075C32.9435 60.3961 40.4636 60.7752 47.4781 63.0502C48.9 63.5241 50.4166 63.7137 51.9332 63.6189L54.2398 68.5164L56.0092 72.3081L-6.26816 101.504C-6.11017 85.7367 2.95809 71.5813 17.3978 64.8512ZM19.8624 153.196L56.6096 76.7632L46.5302 162.896L19.8624 153.196Z"/>
</mask>
<path d="M60.022 80.8708L89.3123 143.369L91.2713 141.284C103.973 127.824 107.101 108.297 99.2969 91.519C98.7914 90.4447 98.2542 89.3703 97.6538 88.3276L132.6 100.966L132.505 98.1227C131.968 79.6385 120.372 63.5873 102.994 57.268C101.856 56.8572 100.719 56.4781 99.5813 56.1621L133.232 40.3952L131.146 38.4363C117.686 25.7343 98.1594 22.6062 81.3815 30.4107C77.9058 32.0221 74.7146 34.0443 71.8077 36.4456C71.1125 32.8436 69.975 29.3047 68.3952 25.9239C60.5908 9.14595 43.5916 -0.996614 25.1391 0.0776783L22.2638 0.235663L38.157 34.1391C37.0511 33.6335 35.9136 33.1596 34.7761 32.7488C17.3979 26.4295 -1.81302 31.2638 -14.1042 45.0716L-16 47.2202L19.1989 59.9537C18.0614 60.3645 16.9239 60.8384 15.818 61.3756C-0.959919 69.18 -11.1024 86.1791 -10.0282 104.632L-9.87017 107.507L51.3961 78.817L14.5541 155.439L49.8479 168.299L60.022 80.8708ZM90.355 136.45L61.1595 74.1407L64.098 72.7504L64.9511 72.3397L69.9119 70.0331C70.9546 71.0126 72.1868 71.7709 73.5455 72.3081C74.4302 72.6556 75.2833 73.0348 76.1364 73.4139C81.6659 76.0365 86.5317 79.8281 90.3866 84.5676C90.6709 84.9468 90.9869 85.2944 91.2713 85.6735C93.0091 87.9801 94.5257 90.4762 95.758 93.1303C102.488 107.602 100.34 124.285 90.355 136.45ZM64.8564 27.5353C66.7838 31.6745 67.9844 36.0033 68.4584 40.4901L68.8691 44.4712L71.7444 41.6907C75.0305 38.4994 78.7905 35.9085 82.9929 33.9495C97.4327 27.2194 114.116 29.3995 126.281 39.3525L93.1355 54.8982C92.9776 54.8666 92.7879 54.8666 92.63 54.835C92.3772 54.8034 92.156 54.7718 91.9032 54.7718C91.6504 54.7402 91.3661 54.7086 91.1133 54.7086C90.8605 54.677 90.6393 54.677 90.3866 54.6454C90.1338 54.6138 89.8494 54.6138 89.5966 54.6138C89.3439 54.6138 89.1227 54.5822 88.87 54.5822C88.5856 54.5822 88.3328 54.5822 88.0484 54.5822C87.8272 54.5822 87.5745 54.5822 87.3533 54.5822C87.0689 54.5822 86.8161 54.5822 86.5318 54.5822C86.3106 54.5822 86.0578 54.5822 85.8366 54.6138C85.5523 54.6138 85.2995 54.6454 85.0151 54.6454C84.7939 54.6454 84.5412 54.677 84.32 54.677C84.0356 54.7086 83.7829 54.7086 83.4985 54.7402C83.2773 54.7718 83.0245 54.7718 82.8033 54.8034C82.5189 54.835 82.2662 54.8666 81.9818 54.8982C81.7607 54.9298 81.5079 54.9614 81.2867 54.993C81.0023 55.0246 80.7495 55.0878 80.4652 55.1194C80.244 55.151 80.0228 55.1826 79.7701 55.2458C79.4857 55.309 79.2329 55.3406 78.9485 55.4037C78.7273 55.4353 78.5062 55.4985 78.285 55.5301C78.0007 55.5933 77.7478 55.6565 77.4635 55.7197C77.2423 55.7829 77.0211 55.8145 76.7999 55.8777C76.5155 55.9409 76.2628 56.0357 75.9784 56.0989C75.7573 56.1621 75.5361 56.2253 75.3465 56.2568C75.0621 56.3516 74.7777 56.4148 74.525 56.5096C74.3038 56.5728 74.1142 56.636 73.893 56.6992C73.6086 56.794 73.3243 56.8888 73.0399 56.9836C72.8503 57.0468 72.6607 57.11 72.4712 57.1732C72.1552 57.2996 71.8392 57.3943 71.5233 57.5207C71.3653 57.5839 71.2073 57.6471 71.0493 57.7103C70.5753 57.8999 70.1014 58.0895 69.6274 58.3106C69.0271 58.5634 68.3636 58.753 67.7001 58.8794C65.0775 59.2902 62.3286 58.3107 60.5592 56.3201C60.0852 55.8145 59.7061 55.2142 59.3901 54.6138C59.1689 54.1715 58.9162 53.7291 58.695 53.2868C58.6318 53.1604 58.5369 53.034 58.4737 52.876C58.3158 52.56 58.1262 52.2756 57.9682 51.9913C57.8735 51.8333 57.7786 51.6753 57.6838 51.5173C57.5258 51.2645 57.3679 50.9802 57.1783 50.7274C57.0835 50.5694 56.9571 50.3798 56.8624 50.2219C56.7044 49.9691 56.5463 49.7163 56.3568 49.4952C56.2304 49.3372 56.104 49.1476 55.9776 48.9896C55.8196 48.7684 55.6616 48.5156 55.472 48.2945C55.3457 48.1049 55.2193 47.9469 55.0929 47.7889C54.9349 47.5677 54.7454 47.3466 54.5874 47.1254C54.461 46.9358 54.303 46.7778 54.1766 46.6198C54.0186 46.3986 53.829 46.209 53.671 45.9879C53.5131 45.8299 53.3867 45.6403 53.2287 45.4823C53.0391 45.2927 52.8812 45.0716 52.6916 44.882C52.5336 44.724 52.3756 44.5344 52.2176 44.3764C52.028 44.1869 51.87 43.9973 51.6804 43.8077C51.5224 43.6497 51.3645 43.4917 51.1749 43.3021C50.9853 43.1126 50.7957 42.923 50.6062 42.7334C50.4482 42.5754 50.2586 42.4175 50.1006 42.2595C49.911 42.0699 49.7215 41.9119 49.5319 41.7223C49.3423 41.5643 49.1843 41.4063 48.9947 41.2483C48.8051 41.0904 48.6156 40.9008 48.426 40.7428C48.2364 40.5848 48.0468 40.4268 47.8888 40.3004C47.6992 40.1425 47.4781 39.9845 47.2885 39.8265C47.0989 39.6685 46.9093 39.5421 46.7197 39.3842C46.5301 39.2262 46.309 39.0682 46.1194 38.9102C45.9298 38.7838 45.7402 38.6258 45.5507 38.4994C45.3295 38.3414 45.1399 38.2151 44.9187 38.0571C44.7291 37.9307 44.5396 37.8043 44.3184 37.6463C44.192 37.5515 44.0656 37.4567 43.9076 37.362L28.2356 3.93248C43.9708 4.05887 58.1262 13.1272 64.8564 27.5353ZM33.3859 36.3825C36.1664 37.3936 38.8522 38.7206 41.3167 40.2688C47.5413 44.1869 52.5968 49.7795 55.9144 56.3517C56.3884 57.268 56.9887 58.1527 57.6838 58.911C57.8418 59.1006 58.0314 59.2586 58.1894 59.4482C58.2526 59.5114 58.3158 59.5745 58.4106 59.6377C58.5053 59.7325 58.6317 59.8273 58.7265 59.9221C58.8213 59.9853 58.8845 60.0485 58.9793 60.1117C59.0741 60.2065 59.2005 60.2696 59.2953 60.3644C59.3901 60.4276 59.4848 60.4909 59.5796 60.5541C59.6744 60.6172 59.8008 60.712 59.8956 60.7752C59.9904 60.8384 60.0852 60.9016 60.18 60.9648C60.2748 61.028 60.4012 61.0912 60.496 61.1544C60.5908 61.2176 60.7172 61.2807 60.812 61.3123C60.9067 61.3755 61.0331 61.4388 61.1279 61.502C61.2227 61.5652 61.3491 61.5967 61.4439 61.6599C61.5703 61.7231 61.665 61.7547 61.7914 61.8179C61.8862 61.8495 62.0126 61.9127 62.139 61.9443C62.2338 61.9759 62.3286 62.0391 62.455 62.0707H62.4866C62.613 62.1023 62.7394 62.1655 62.8658 62.1971C62.9605 62.2287 63.0553 62.2603 63.1817 62.2919C63.3081 62.3235 63.4661 62.355 63.5925 62.3866C63.6873 62.4182 63.7821 62.4499 63.9085 62.4499C64.0349 62.4815 64.1928 62.513 64.3192 62.5446C64.4139 62.5762 64.5088 62.5762 64.6036 62.6078C64.7616 62.6394 64.8879 62.6394 65.0459 62.671C65.1407 62.671 65.2355 62.7026 65.3303 62.7026C65.4883 62.7026 65.6147 62.7342 65.7726 62.7342C65.8674 62.7342 65.9622 62.7658 66.057 62.7658C66.215 62.7658 66.373 62.7658 66.5309 62.7658C66.6257 62.7658 66.7206 62.7658 66.8154 62.7658C66.9733 62.7658 67.1629 62.7342 67.3209 62.7342C67.4156 62.7342 67.4789 62.7342 67.5736 62.7342C67.8264 62.7026 68.0792 62.671 68.3004 62.6394C68.5532 62.6078 68.806 62.5446 69.0271 62.513C69.7539 62.3551 70.4806 62.1023 71.1757 61.8179C75.0621 60.1117 79.1381 59.0374 83.3089 58.595C83.3405 58.595 83.3405 58.595 83.3721 58.595C83.5301 58.5634 83.7197 58.5634 83.8776 58.5634C85.1099 58.437 86.3422 58.3739 87.5745 58.3739C87.922 58.3739 88.238 58.3739 88.5855 58.4054C88.7119 58.4054 88.8383 58.4054 88.9963 58.4054C90.3866 58.437 91.8085 58.5634 93.1987 58.753H93.2303C96.1056 59.1322 98.9494 59.8589 101.667 60.8384C116.644 66.3046 126.913 79.6069 128.461 95.279L94.0202 82.8298C93.9254 82.7034 93.8306 82.5771 93.7042 82.4507C93.5462 82.2611 93.3883 82.0715 93.2303 81.8503C93.0723 81.6607 92.9143 81.4712 92.7248 81.25C92.5668 81.0604 92.4088 80.8708 92.2192 80.6812C92.0612 80.4916 91.8717 80.302 91.7137 80.1125C91.5557 79.9229 91.3661 79.7333 91.2081 79.5753C91.0185 79.3857 90.8605 79.1962 90.671 79.0382C90.4814 78.8486 90.3234 78.6906 90.1338 78.501C89.9443 78.3115 89.7547 78.1535 89.5651 77.9639C89.3755 77.8059 89.2175 77.6163 89.028 77.4584C88.8384 77.2688 88.6488 77.1108 88.4592 76.9528C88.2696 76.7948 88.08 76.6368 87.9221 76.4788C87.7325 76.3208 87.5113 76.1313 87.3217 75.9733C87.1321 75.8153 86.9425 75.6573 86.7529 75.4993C86.5317 75.3414 86.3422 75.1834 86.121 75.0254C85.9314 74.8674 85.7419 74.741 85.5523 74.583C85.3311 74.425 85.1099 74.2671 84.8887 74.1091C84.6992 73.9827 84.5096 73.8247 84.32 73.6983C84.0988 73.5404 83.8777 73.3824 83.6565 73.256C83.4669 73.1296 83.2773 73.0032 83.0877 72.8768C82.8666 72.7188 82.6138 72.5924 82.3926 72.4345C82.203 72.3081 82.0134 72.1817 81.8239 72.0869C81.5711 71.9289 81.3183 71.8025 81.0971 71.6445C80.9075 71.5498 80.7179 71.4234 80.5284 71.3286C80.2756 71.1706 79.9912 71.0442 79.7384 70.9178C79.5489 70.823 79.3593 70.7282 79.1697 70.6334C78.8853 70.4754 78.6009 70.3491 78.3166 70.2227C78.127 70.1279 77.969 70.0331 77.7794 69.9699C77.4635 69.8119 77.1475 69.6855 76.7999 69.5275C76.6419 69.4643 76.5156 69.4011 76.3576 69.338C75.8836 69.1484 75.4097 68.9272 74.9357 68.7692C73.735 68.2953 72.6292 67.5053 71.8077 66.5258L70.8598 65.3883L59.7692 70.5702L59.4849 70.4754L59.3585 70.4123L54.1766 59.3534L52.6916 59.6693C51.3645 59.9537 49.9742 59.8589 48.6787 59.4482C48.2048 59.2902 47.7308 59.1322 47.2569 59.0058C47.0989 58.9426 46.9093 58.911 46.7197 58.8478C46.4038 58.753 46.1194 58.6898 45.8035 58.595C45.6139 58.5318 45.3927 58.5002 45.2031 58.437C44.9187 58.3738 44.6343 58.3107 44.35 58.2475C44.1288 58.2159 43.9392 58.1527 43.718 58.1211C43.4337 58.0579 43.1809 57.9947 42.8966 57.9631C42.6754 57.9315 42.4542 57.8999 42.233 57.8367C41.9486 57.8051 41.6958 57.7419 41.4114 57.7103C41.1903 57.6787 40.9691 57.6471 40.748 57.6155C40.4636 57.5839 40.2108 57.5523 39.9264 57.5207C39.7052 57.4891 39.4841 57.4891 39.2629 57.4575C38.9786 57.4259 38.7257 57.3943 38.4414 57.3627C38.2202 57.3311 37.999 57.3312 37.7778 57.2996C37.4934 57.268 37.2407 57.268 36.9563 57.2364C36.7352 57.2364 36.514 57.2048 36.2928 57.2048C36.0084 57.2048 35.7557 57.1732 35.4713 57.1732C35.2501 57.1732 35.0289 57.1732 34.8077 57.1732C34.5234 57.1732 34.2706 57.1732 33.9862 57.1732C33.765 57.1732 33.5439 57.1732 33.3227 57.2048C33.0383 57.2048 32.7855 57.2048 32.5012 57.2364C32.28 57.2364 32.0588 57.268 31.806 57.268C31.5533 57.2996 31.2689 57.2996 31.0161 57.3312C30.7949 57.3627 30.5738 57.3628 30.321 57.3944C30.0682 57.426 29.7839 57.4575 29.5311 57.4891C29.3099 57.5207 29.0571 57.5523 28.836 57.5839C28.5832 57.6155 28.2988 57.6471 28.046 57.6787C27.8249 57.7103 27.572 57.7419 27.3509 57.8051C27.0981 57.8367 26.8453 57.8999 26.5926 57.9315C26.3714 57.9631 26.1186 58.0263 25.8974 58.0579C25.7395 58.0895 25.5815 58.1211 25.4235 58.1527L-9.30149 45.5771C2.01019 34.5182 18.4406 30.9162 33.3859 36.3825ZM17.3978 64.8512C20.0836 63.5873 22.8957 62.6394 25.771 62.0075C32.9435 60.3961 40.4636 60.7752 47.4781 63.0502C48.9 63.5241 50.4166 63.7137 51.9332 63.6189L54.2398 68.5164L56.0092 72.3081L-6.26816 101.504C-6.11017 85.7367 2.95809 71.5813 17.3978 64.8512ZM19.8624 153.196L56.6096 76.7632L46.5302 162.896L19.8624 153.196Z" stroke="#110F0F" stroke-opacity="0.15" stroke-width="2" mask="url(#path-1-inside-1_1151_4069)"/>
</svg>
