<svg width="91" height="35" viewBox="0 0 91 35" fill="none" xmlns="http://www.w3.org/2000/svg">
<path d="M87.7202 34.3419C87.1149 34.3419 86.5702 34.2087 86.086 33.9424C85.6018 33.6685 85.2197 33.2843 84.9398 32.7897C84.6674 32.2951 84.5312 31.7245 84.5312 31.0777C84.5312 30.431 84.6712 29.8603 84.9511 29.3658C85.2386 28.8712 85.6283 28.4908 86.12 28.2245C86.6118 27.9506 87.1603 27.8136 87.7656 27.8136C88.3708 27.8136 88.9193 27.9506 89.4111 28.2245C89.9029 28.4908 90.2887 28.8712 90.5686 29.3658C90.8561 29.8603 90.9999 30.431 90.9999 31.0777C90.9999 31.7245 90.8524 32.2951 90.5573 32.7897C90.2698 33.2843 89.8764 33.6685 89.3771 33.9424C88.8853 34.2087 88.333 34.3419 87.7202 34.3419ZM87.7202 32.9495C88.0077 32.9495 88.2762 32.881 88.5259 32.744C88.7831 32.5995 88.9874 32.3864 89.1387 32.1049C89.29 31.8234 89.3657 31.481 89.3657 31.0777C89.3657 30.4766 89.2068 30.0163 88.8891 29.6968C88.5789 29.3696 88.1968 29.206 87.7429 29.206C87.2889 29.206 86.9069 29.3696 86.5967 29.6968C86.294 30.0163 86.1427 30.4766 86.1427 31.0777C86.1427 31.6788 86.2903 32.1429 86.5853 32.4701C86.888 32.7897 87.2662 32.9495 87.7202 32.9495Z" fill="white"/>
<path d="M77.6914 31.0777C77.6914 30.4234 77.8238 29.8527 78.0886 29.3658C78.3534 28.8712 78.7203 28.4908 79.1894 28.2245C79.6585 27.9506 80.1956 27.8136 80.8009 27.8136C81.5802 27.8136 82.2232 28.0114 82.7301 28.4071C83.2446 28.7951 83.5888 29.3429 83.7628 30.0506H82.0492C81.9584 29.7766 81.8033 29.5636 81.5839 29.4114C81.3721 29.2516 81.1073 29.1718 80.7895 29.1718C80.3356 29.1718 79.9762 29.3391 79.7114 29.6739C79.4466 30.0011 79.3142 30.469 79.3142 31.0777C79.3142 31.6788 79.4466 32.1468 79.7114 32.4815C79.9762 32.8087 80.3356 32.9723 80.7895 32.9723C81.4326 32.9723 81.8525 32.6832 82.0492 32.1049H83.7628C83.5888 32.7897 83.2446 33.3337 82.7301 33.737C82.2157 34.1402 81.5726 34.3419 80.8009 34.3419C80.1956 34.3419 79.6585 34.2087 79.1894 33.9424C78.7203 33.6685 78.3534 33.2881 78.0886 32.8011C77.8238 32.3065 77.6914 31.7321 77.6914 31.0777Z" fill="white"/>
<path d="M75.8584 34.3191C75.5709 34.3191 75.3326 34.2316 75.1435 34.0566C74.9619 33.874 74.8711 33.6496 74.8711 33.3833C74.8711 33.117 74.9619 32.8963 75.1435 32.7213C75.3326 32.5387 75.5709 32.4474 75.8584 32.4474C76.1383 32.4474 76.3691 32.5387 76.5507 32.7213C76.7322 32.8963 76.823 33.117 76.823 33.3833C76.823 33.6496 76.7322 33.874 76.5507 34.0566C76.3691 34.2316 76.1383 34.3191 75.8584 34.3191Z" fill="white"/>
<path d="M73.5849 25.7935V34.2391H71.9961V25.7935H73.5849Z" fill="white"/>
<path d="M70.835 30.9408C70.835 31.169 70.8199 31.3745 70.7896 31.5571H66.1935C66.2313 32.0136 66.3902 32.3712 66.6702 32.6299C66.9501 32.8886 67.2943 33.0179 67.7029 33.0179C68.293 33.0179 68.7129 32.7631 68.9625 32.2533H70.6762C70.4946 32.862 70.1466 33.3641 69.6321 33.7598C69.1176 34.1478 68.4859 34.3419 67.7369 34.3419C67.1317 34.3419 66.5869 34.2087 66.1027 33.9424C65.6261 33.6685 65.2516 33.2843 64.9792 32.7897C64.7144 32.2951 64.582 31.7245 64.582 31.0777C64.582 30.4234 64.7144 29.8489 64.9792 29.3544C65.244 28.8598 65.6147 28.4794 66.0914 28.2131C66.568 27.9468 67.1165 27.8136 67.7369 27.8136C68.3346 27.8136 68.868 27.9429 69.337 28.2016C69.8137 28.4603 70.1806 28.8294 70.4378 29.3087C70.7026 29.7804 70.835 30.3245 70.835 30.9408ZM69.1895 30.4843C69.1819 30.0734 69.0344 29.7462 68.7469 29.5027C68.4594 29.2516 68.1076 29.1261 67.6915 29.1261C67.2981 29.1261 66.9652 29.2478 66.6928 29.4913C66.4281 29.7272 66.2654 30.0582 66.2049 30.4843H69.1895Z" fill="white"/>
<path d="M60.8184 32.7668L62.4072 27.9163H64.0981L61.7717 34.2391H59.8424L57.5273 27.9163H59.2296L60.8184 32.7668Z" fill="white"/>
<path d="M50.0977 31.0549C50.0977 30.4158 50.2225 29.8489 50.4722 29.3544C50.7294 28.8598 51.0736 28.4794 51.5049 28.2131C51.9437 27.9468 52.4317 27.8136 52.9688 27.8136C53.4379 27.8136 53.8464 27.9087 54.1945 28.0989C54.55 28.2891 54.8338 28.5288 55.0456 28.8179V27.9163H56.6457V34.2391H55.0456V33.3147C54.8413 33.6114 54.5576 33.8587 54.1945 34.0565C53.8389 34.2468 53.4265 34.3419 52.9575 34.3419C52.4279 34.3419 51.9437 34.2049 51.5049 33.931C51.0736 33.6571 50.7294 33.2728 50.4722 32.7783C50.2225 32.2761 50.0977 31.7016 50.0977 31.0549ZM55.0456 31.0777C55.0456 30.6897 54.9699 30.3587 54.8186 30.0848C54.6673 29.8033 54.463 29.5902 54.2058 29.4457C53.9486 29.2935 53.6724 29.2174 53.3774 29.2174C53.0823 29.2174 52.8099 29.2897 52.5603 29.4343C52.3106 29.5788 52.1063 29.7919 51.9475 30.0734C51.7961 30.3473 51.7205 30.6745 51.7205 31.0549C51.7205 31.4353 51.7961 31.7701 51.9475 32.0593C52.1063 32.3408 52.3106 32.5576 52.5603 32.7098C52.8175 32.862 53.0899 32.9381 53.3774 32.9381C53.6724 32.9381 53.9486 32.8658 54.2058 32.7212C54.463 32.569 54.6673 32.356 54.8186 32.0821C54.9699 31.8006 55.0456 31.4658 55.0456 31.0777Z" fill="white"/>
<path d="M47.5068 28.8979C47.711 28.5631 47.9758 28.3006 48.3011 28.1104C48.634 27.9202 49.0123 27.8251 49.436 27.8251V29.5028H49.0161C48.5168 29.5028 48.1385 29.6207 47.8813 29.8566C47.6316 30.0925 47.5068 30.5033 47.5068 31.0892V34.2392H45.918V27.9164H47.5068V28.8979Z" fill="white"/>
<path d="M44.7596 26.2729V27.5626H42.6488V34.2393H41.06V27.5626H38.9492V26.2729H44.7596Z" fill="white"/>
<path d="M73.9976 20.6758V18.4831H75.6496C75.8994 18.4831 76.0242 18.3962 76.0242 18.2223C76.0242 18.1322 76.0146 18.0388 75.9954 17.9422L73.7383 3.77173H77.0327L77.9932 14.4358L79.1266 3.77173H82.4403L79.7701 19.0144C79.6741 19.5618 79.4884 19.9739 79.213 20.2508C78.9441 20.5341 78.4991 20.6758 77.878 20.6758H73.9976Z" fill="white"/>
<path d="M66.5156 18.2608V1.26013H69.8965V15.363H73.3735V18.2608H66.5156Z" fill="white"/>
<path d="M58.6562 18.2608V1.26013H65.418V4.57333H62.0564V7.27799H65.2452V10.5525H62.0564V18.2608H58.6562Z" fill="white"/>
<path d="M53.0139 18.4155C50.1453 18.4155 48.7109 16.9183 48.7109 13.9238V8.10884C48.7109 6.74364 49.0919 5.65534 49.8539 4.84394C50.6159 4.02611 51.6692 3.61719 53.0139 3.61719C54.365 3.61719 55.4215 4.02611 56.1835 4.84394C56.9455 5.65534 57.3265 6.74364 57.3265 8.10884V13.9238C57.3265 16.9183 55.8889 18.4155 53.0139 18.4155ZM53.0139 15.7495C53.302 15.7495 53.5069 15.6465 53.6286 15.4404C53.7567 15.2279 53.8207 14.9606 53.8207 14.6387V7.55825C53.8207 6.71466 53.5518 6.29286 53.0139 6.29286C52.476 6.29286 52.2071 6.71466 52.2071 7.55825V14.6387C52.2071 14.9606 52.2679 15.2279 52.3896 15.4404C52.5177 15.6465 52.7258 15.7495 53.0139 15.7495Z" fill="white"/>
<path d="M42.8202 18.4154C40.4062 18.4154 39.1992 16.6767 39.1992 13.1993V5.86771C39.1992 2.69297 40.5823 1.10559 43.3485 1.10559C44.4883 1.10559 45.3623 1.33742 45.9706 1.80107C46.5789 2.25829 46.9983 2.92801 47.2289 3.81024C47.4594 4.69248 47.5746 5.7679 47.5746 7.03651H44.2706V5.52963C44.2706 5.16257 44.2193 4.85669 44.1169 4.61198C44.0208 4.36083 43.8159 4.23526 43.5022 4.23526C43.1116 4.23526 42.8523 4.36727 42.7242 4.6313C42.6025 4.89533 42.5417 5.18511 42.5417 5.50065V13.7402C42.5417 14.1974 42.5993 14.5709 42.7146 14.8607C42.8362 15.144 43.07 15.2857 43.4157 15.2857C43.7743 15.2857 44.0112 15.144 44.1265 14.8607C44.2482 14.5709 44.309 14.191 44.309 13.7209V11.2963H43.4061V8.35986H47.5362V18.2608H46.1819L45.6056 16.8312C45.0165 17.8873 44.0881 18.4154 42.8202 18.4154Z" fill="white"/>
<path d="M14.13 21.2502C14.1321 21.2504 14.1342 21.251 14.1363 21.2511C14.1406 21.2512 14.145 21.2528 14.1493 21.2528L14.1498 21.2528L14.1503 21.2528C14.1531 21.2528 14.1558 21.2517 14.1586 21.2517C14.17 21.2518 14.181 21.2535 14.1924 21.2535H14.1927C17.6547 21.2535 20.4713 18.4209 20.4713 14.939C20.4713 11.4571 17.6547 8.62461 14.1927 8.62461C14.1862 8.62461 14.1799 8.62556 14.1733 8.62563C14.1655 8.62522 14.1576 8.62639 14.1497 8.62639C14.1347 8.62644 14.1196 8.62722 14.1046 8.62871C14.096 8.62953 14.0873 8.62912 14.0786 8.63042C10.6695 8.69249 7.914 11.4958 7.914 14.939C7.914 18.3996 10.697 21.2159 14.13 21.2502ZM9.3088 17.0978H10.7353C11.0667 18.1858 11.6453 19.1796 12.4361 20.0027C11.0374 19.5104 9.90295 18.4518 9.3088 17.0978ZM19.5307 14.939C19.5307 15.3566 19.4783 15.7614 19.3881 16.1519H17.7821C17.8479 15.752 17.8853 15.3434 17.8853 14.9273C17.8853 14.5197 17.8487 14.1191 17.7844 13.7264H19.3883C19.4783 14.1168 19.5307 14.5215 19.5307 14.939ZM16.9447 14.9507C16.9447 15.3593 16.9058 15.7609 16.8317 16.1519H14.6628V13.7265H16.8296C16.9063 14.13 16.9448 14.5399 16.9447 14.9507ZM11.729 17.0978H13.7223V19.9026C12.8008 19.1623 12.1188 18.1933 11.729 17.0978ZM14.6628 19.8297V17.0977H16.5732C16.1961 18.156 15.5422 19.0977 14.6628 19.8297ZM14.6628 12.7805V10.0483C15.5404 10.779 16.1933 11.7197 16.5708 12.7805H14.6628ZM13.7223 9.97539V12.7805H11.7264C12.1157 11.6876 12.7987 10.7171 13.7223 9.97539ZM13.7223 13.7264V16.1519H11.4699C11.3932 15.7482 11.3547 15.3382 11.3548 14.9273C11.3548 14.5188 11.3938 14.1173 11.4678 13.7264H13.7223ZM10.5153 16.1519H8.99707C8.90694 15.7614 8.85454 15.3566 8.85454 14.939C8.85454 14.5214 8.90688 14.1167 8.99701 13.7264H10.5176C10.4518 14.1262 10.4144 14.5346 10.4144 14.9507C10.4144 15.3583 10.451 15.7591 10.5153 16.1519ZM15.8112 20.0536C16.6233 19.2248 17.2239 18.2107 17.5617 17.0977H19.0764C18.4626 18.4967 17.2739 19.5843 15.8112 20.0536ZM19.0765 12.7805H17.5643C17.2259 11.6674 16.6246 10.6532 15.8118 9.82459C17.2744 10.294 18.4629 11.3817 19.0765 12.7805ZM12.4366 9.87511C11.6475 10.697 11.0696 11.69 10.7378 12.7805H9.30866C9.90281 11.4262 11.0375 10.3674 12.4366 9.87511ZM30.7484 6.20927C30.4261 5.58111 29.8821 5.1177 29.2164 4.90401L14.3363 0.12583C13.6709 -0.0884769 12.9603 -0.0275003 12.3358 0.297002C11.7113 0.620957 11.2504 1.16811 11.0379 1.83748L10.0503 4.94776H6.38251C4.93523 4.94776 3.75781 6.13202 3.75781 7.58753V32.3605C3.75781 33.8161 4.93523 35 6.38251 35H22.0027C23.45 35 24.6274 33.8161 24.6274 32.3605V28.0366L30.9184 8.22122C31.1309 7.55212 31.0706 6.83742 30.7484 6.20927ZM23.6868 32.3605C23.6868 33.2945 22.9313 34.0541 22.0027 34.0541H6.38251C5.45387 34.0541 4.69842 33.2945 4.69842 32.3605V7.58753C4.69842 6.6536 5.45393 5.89372 6.38251 5.89372H22.0027C22.9313 5.89372 23.6868 6.65367 23.6868 7.58753V32.3605ZM30.0226 7.93363L24.6274 24.9272V7.58753C24.6274 6.13202 23.45 4.94776 22.0027 4.94776H11.0374L11.9337 2.12514C12.0698 1.69652 12.3657 1.34577 12.767 1.13734C13.1681 0.929189 13.6236 0.890087 14.0503 1.02681L28.9305 5.80506C29.3566 5.94205 29.7055 6.23955 29.9125 6.64321C30.1195 7.04653 30.1587 7.50502 30.0226 7.93363ZM20.5362 24.9099C20.5362 25.0354 20.4867 25.1557 20.3985 25.2444C20.3103 25.333 20.1907 25.3829 20.0659 25.3829H8.31905C8.1957 25.3808 8.07811 25.33 7.99163 25.2416C7.90514 25.1531 7.85667 25.034 7.85667 24.9099C7.85667 24.7859 7.90514 24.6668 7.99163 24.5783C8.07811 24.4898 8.1957 24.4391 8.31905 24.4369H20.066C20.1278 24.4369 20.1889 24.4492 20.246 24.473C20.303 24.4967 20.3549 24.5316 20.3985 24.5755C20.4422 24.6194 20.4768 24.6715 20.5005 24.7289C20.5241 24.7863 20.5363 24.8478 20.5362 24.9099ZM20.5362 28.2486C20.5362 28.374 20.4867 28.4943 20.3985 28.583C20.3103 28.6717 20.1907 28.7216 20.0659 28.7216H8.31905C8.1957 28.7195 8.07811 28.6687 7.99163 28.5802C7.90514 28.4918 7.85667 28.3727 7.85667 28.2486C7.85667 28.1245 7.90514 28.0054 7.99163 27.917C8.07811 27.8285 8.1957 27.7777 8.31905 27.7756H20.066C20.1907 27.7757 20.3103 27.8255 20.3985 27.9142C20.4867 28.0029 20.5362 28.1232 20.5362 28.2486ZM17.8719 31.5873C17.8719 31.7128 17.8223 31.8331 17.7342 31.9218C17.646 32.0105 17.5263 32.0603 17.4016 32.0603H10.9834C10.8601 32.0582 10.7425 32.0075 10.656 31.919C10.5695 31.8305 10.5211 31.7114 10.5211 31.5873C10.5211 31.4633 10.5695 31.3442 10.656 31.2557C10.7425 31.1672 10.8601 31.1165 10.9834 31.1144H17.4016C17.5263 31.1144 17.646 31.1642 17.7342 31.2529C17.8224 31.3416 17.8719 31.4619 17.8719 31.5873Z" fill="white"/>
</svg>
