<svg width="157" height="49" viewBox="0 0 157 49" fill="none" xmlns="http://www.w3.org/2000/svg">
<rect x="-9.15527e-05" width="157" height="49" rx="5" fill="#292727"/>
<rect x="0.499908" y="0.5" width="156" height="48" rx="4.5" stroke="white" stroke-opacity="0.1"/>
<path d="M52.8799 30.192C52.6239 29.7227 52.2719 29.3653 51.8239 29.12C51.3759 28.8747 50.8532 28.752 50.2559 28.752C49.5946 28.752 49.0079 28.9013 48.4959 29.2C47.9839 29.4987 47.5839 29.9253 47.2959 30.48C47.0079 31.0347 46.8639 31.6747 46.8639 32.4C46.8639 33.1467 47.0079 33.7973 47.2959 34.352C47.5946 34.9067 48.0052 35.3333 48.5279 35.632C49.0506 35.9307 49.6586 36.08 50.3519 36.08C51.2052 36.08 51.9039 35.856 52.4479 35.408C52.9919 34.9493 53.3492 34.3147 53.5199 33.504H49.6799V31.792H55.7279V33.744C55.5786 34.5227 55.2586 35.2427 54.7679 35.904C54.2772 36.5653 53.6426 37.0987 52.8639 37.504C52.0959 37.8987 51.2319 38.096 50.2719 38.096C49.1946 38.096 48.2186 37.856 47.3439 37.376C46.4799 36.8853 45.7972 36.208 45.2959 35.344C44.8052 34.48 44.5599 33.4987 44.5599 32.4C44.5599 31.3013 44.8052 30.32 45.2959 29.456C45.7972 28.5813 46.4799 27.904 47.3439 27.424C48.2186 26.9333 49.1892 26.688 50.2559 26.688C51.5146 26.688 52.6079 26.9973 53.5359 27.616C54.4639 28.224 55.1039 29.0827 55.4559 30.192H52.8799ZM61.3212 38.144C60.4678 38.144 59.6998 37.9573 59.0172 37.584C58.3345 37.2 57.7958 36.6613 57.4012 35.968C57.0172 35.2747 56.8252 34.4747 56.8252 33.568C56.8252 32.6613 57.0225 31.8613 57.4172 31.168C57.8225 30.4747 58.3718 29.9413 59.0652 29.568C59.7585 29.184 60.5318 28.992 61.3852 28.992C62.2385 28.992 63.0118 29.184 63.7052 29.568C64.3985 29.9413 64.9425 30.4747 65.3372 31.168C65.7425 31.8613 65.9452 32.6613 65.9452 33.568C65.9452 34.4747 65.7372 35.2747 65.3212 35.968C64.9158 36.6613 64.3612 37.2 63.6572 37.584C62.9638 37.9573 62.1852 38.144 61.3212 38.144ZM61.3212 36.192C61.7265 36.192 62.1052 36.096 62.4572 35.904C62.8198 35.7013 63.1078 35.4027 63.3212 35.008C63.5345 34.6133 63.6412 34.1333 63.6412 33.568C63.6412 32.7253 63.4172 32.08 62.9692 31.632C62.5318 31.1733 61.9932 30.944 61.3532 30.944C60.7132 30.944 60.1745 31.1733 59.7372 31.632C59.3105 32.08 59.0972 32.7253 59.0972 33.568C59.0972 34.4107 59.3052 35.0613 59.7212 35.52C60.1478 35.968 60.6812 36.192 61.3212 36.192ZM71.5243 38.144C70.671 38.144 69.903 37.9573 69.2203 37.584C68.5376 37.2 67.999 36.6613 67.6043 35.968C67.2203 35.2747 67.0283 34.4747 67.0283 33.568C67.0283 32.6613 67.2256 31.8613 67.6203 31.168C68.0256 30.4747 68.575 29.9413 69.2683 29.568C69.9616 29.184 70.735 28.992 71.5883 28.992C72.4416 28.992 73.215 29.184 73.9083 29.568C74.6016 29.9413 75.1456 30.4747 75.5403 31.168C75.9456 31.8613 76.1483 32.6613 76.1483 33.568C76.1483 34.4747 75.9403 35.2747 75.5243 35.968C75.119 36.6613 74.5643 37.2 73.8603 37.584C73.167 37.9573 72.3883 38.144 71.5243 38.144ZM71.5243 36.192C71.9296 36.192 72.3083 36.096 72.6603 35.904C73.023 35.7013 73.311 35.4027 73.5243 35.008C73.7376 34.6133 73.8443 34.1333 73.8443 33.568C73.8443 32.7253 73.6203 32.08 73.1723 31.632C72.735 31.1733 72.1963 30.944 71.5563 30.944C70.9163 30.944 70.3776 31.1733 69.9403 31.632C69.5136 32.08 69.3003 32.7253 69.3003 33.568C69.3003 34.4107 69.5083 35.0613 69.9243 35.52C70.351 35.968 70.8843 36.192 71.5243 36.192ZM81.2634 28.992C81.9247 28.992 82.5061 29.1253 83.0074 29.392C83.5087 29.648 83.9034 29.984 84.1914 30.4V29.136H86.4474V38.064C86.4474 38.8853 86.2821 39.616 85.9514 40.256C85.6207 40.9067 85.1247 41.4187 84.4634 41.792C83.8021 42.176 83.0021 42.368 82.0634 42.368C80.8047 42.368 79.7701 42.0747 78.9594 41.488C78.1594 40.9013 77.7061 40.1013 77.5994 39.088H79.8234C79.9407 39.4933 80.1914 39.8133 80.5754 40.048C80.9701 40.2933 81.4447 40.416 81.9994 40.416C82.6501 40.416 83.1781 40.2187 83.5834 39.824C83.9887 39.44 84.1914 38.8533 84.1914 38.064V36.688C83.9034 37.104 83.5034 37.4507 82.9914 37.728C82.4901 38.0053 81.9141 38.144 81.2634 38.144C80.5167 38.144 79.8341 37.952 79.2154 37.568C78.5967 37.184 78.1061 36.6453 77.7434 35.952C77.3914 35.248 77.2154 34.4427 77.2154 33.536C77.2154 32.64 77.3914 31.8453 77.7434 31.152C78.1061 30.4587 78.5914 29.9253 79.1994 29.552C79.8181 29.1787 80.5061 28.992 81.2634 28.992ZM84.1914 33.568C84.1914 33.024 84.0847 32.56 83.8714 32.176C83.6581 31.7813 83.3701 31.4827 83.0074 31.28C82.6447 31.0667 82.2554 30.96 81.8394 30.96C81.4234 30.96 81.0394 31.0613 80.6874 31.264C80.3354 31.4667 80.0474 31.7653 79.8234 32.16C79.6101 32.544 79.5034 33.0027 79.5034 33.536C79.5034 34.0693 79.6101 34.5387 79.8234 34.944C80.0474 35.3387 80.3354 35.6427 80.6874 35.856C81.0501 36.0693 81.4341 36.176 81.8394 36.176C82.2554 36.176 82.6447 36.0747 83.0074 35.872C83.3701 35.6587 83.6581 35.36 83.8714 34.976C84.0847 34.5813 84.1914 34.112 84.1914 33.568ZM90.8752 26.16V38H88.6352V26.16H90.8752ZM101.328 33.376C101.328 33.696 101.307 33.984 101.264 34.24H94.7843C94.8376 34.88 95.0616 35.3813 95.4563 35.744C95.851 36.1067 96.3363 36.288 96.9123 36.288C97.7443 36.288 98.3363 35.9307 98.6883 35.216H101.104C100.848 36.0693 100.358 36.7733 99.6323 37.328C98.907 37.872 98.0163 38.144 96.9603 38.144C96.107 38.144 95.339 37.9573 94.6563 37.584C93.9843 37.2 93.4563 36.6613 93.0723 35.968C92.699 35.2747 92.5123 34.4747 92.5123 33.568C92.5123 32.6507 92.699 31.8453 93.0723 31.152C93.4456 30.4587 93.9683 29.9253 94.6403 29.552C95.3123 29.1787 96.0856 28.992 96.9603 28.992C97.803 28.992 98.555 29.1733 99.2163 29.536C99.8883 29.8987 100.406 30.416 100.768 31.088C101.142 31.7493 101.328 32.512 101.328 33.376ZM99.0083 32.736C98.9976 32.16 98.7896 31.7013 98.3843 31.36C97.979 31.008 97.483 30.832 96.8963 30.832C96.3416 30.832 95.8723 31.0027 95.4883 31.344C95.115 31.6747 94.8856 32.1387 94.8003 32.736H99.0083ZM114.92 30.288C114.92 30.8853 114.776 31.4453 114.488 31.968C114.21 32.4907 113.768 32.912 113.16 33.232C112.562 33.552 111.805 33.712 110.888 33.712H109.016V38H106.776V26.832H110.888C111.752 26.832 112.488 26.9813 113.096 27.28C113.704 27.5787 114.157 27.9893 114.456 28.512C114.765 29.0347 114.92 29.6267 114.92 30.288ZM110.792 31.904C111.41 31.904 111.869 31.7653 112.168 31.488C112.466 31.2 112.616 30.8 112.616 30.288C112.616 29.2 112.008 28.656 110.792 28.656H109.016V31.904H110.792ZM118.75 26.16V38H116.51V26.16H118.75ZM120.387 33.536C120.387 32.64 120.563 31.8453 120.915 31.152C121.278 30.4587 121.763 29.9253 122.371 29.552C122.99 29.1787 123.678 28.992 124.435 28.992C125.097 28.992 125.673 29.1253 126.163 29.392C126.665 29.6587 127.065 29.9947 127.363 30.4V29.136H129.619V38H127.363V36.704C127.075 37.12 126.675 37.4667 126.163 37.744C125.662 38.0107 125.081 38.144 124.419 38.144C123.673 38.144 122.99 37.952 122.371 37.568C121.763 37.184 121.278 36.6453 120.915 35.952C120.563 35.248 120.387 34.4427 120.387 33.536ZM127.363 33.568C127.363 33.024 127.257 32.56 127.043 32.176C126.83 31.7813 126.542 31.4827 126.179 31.28C125.817 31.0667 125.427 30.96 125.011 30.96C124.595 30.96 124.211 31.0613 123.859 31.264C123.507 31.4667 123.219 31.7653 122.995 32.16C122.782 32.544 122.675 33.0027 122.675 33.536C122.675 34.0693 122.782 34.5387 122.995 34.944C123.219 35.3387 123.507 35.6427 123.859 35.856C124.222 36.0693 124.606 36.176 125.011 36.176C125.427 36.176 125.817 36.0747 126.179 35.872C126.542 35.6587 126.83 35.36 127.043 34.976C127.257 34.5813 127.363 34.112 127.363 33.568ZM140.287 29.136L134.799 42.192H132.415L134.335 37.776L130.783 29.136H133.295L135.583 35.328L137.903 29.136H140.287Z" fill="white"/>
<path d="M78.9997 10.1172V17.8819H77.5931L74.7688 12.9878L74.0599 11.6113H74.0488L74.0932 12.8701V17.8819H73.0077V10.1172H74.4033L77.2165 14.9995L77.9365 16.3995H77.9475L77.9032 15.129V10.1172H78.9997Z" fill="white"/>
<path d="M70.8398 10.1172V17.8819H69.6547V10.1172H70.8398Z" fill="white"/>
<path d="M64.9042 10.1172V11.1995H62.401V17.8819H61.2159V11.1995H58.7128V10.1172H64.9042Z" fill="white"/>
<path d="M52.4247 17.8819V10.1172H57.7189V11.1995H53.6098V13.4348H56.8218V14.4937H53.6098V16.7995H57.874V17.8819H52.4247Z" fill="white"/>
<path d="M47.378 18C46.6913 18 46.0969 17.8392 45.5948 17.5176C45.0927 17.1961 44.7014 16.7412 44.4208 16.1529C44.1402 15.5569 43.9999 14.8392 43.9999 14C43.9999 13.1765 44.1439 12.4667 44.4319 11.8706C44.7272 11.2745 45.1407 10.8157 45.6724 10.4941C46.2114 10.1647 46.8279 10 47.522 10C48.2826 10 48.8954 10.149 49.3606 10.4471C49.8332 10.7451 50.2097 11.2078 50.4903 11.8353L49.3938 12.3882C49.2535 11.9569 49.0209 11.6353 48.696 11.4235C48.3785 11.2039 47.9909 11.0941 47.5331 11.0941C47.0753 11.0941 46.6729 11.2078 46.3258 11.4353C45.9862 11.6627 45.7203 11.9961 45.5284 12.4353C45.3364 12.8667 45.2404 13.3882 45.2404 14C45.2404 14.6196 45.3253 15.149 45.4951 15.5882C45.665 16.0196 45.9197 16.349 46.2594 16.5765C46.6064 16.8039 47.031 16.9176 47.5331 16.9176C47.8063 16.9176 48.061 16.8824 48.2973 16.8118C48.5336 16.7333 48.7404 16.6235 48.9176 16.4824C49.0948 16.3333 49.2314 16.149 49.3274 15.9294C49.4307 15.702 49.4824 15.4353 49.4824 15.1294V14.9059H47.3559V13.8824H50.5346V17.8824H49.6486L49.5821 16.3176L49.8036 16.4353C49.6264 16.9294 49.3311 17.3137 48.9176 17.5882C48.5115 17.8627 47.9983 18 47.378 18Z" fill="white"/>
<path fill-rule="evenodd" clip-rule="evenodd" d="M16.4536 12.3837C16.1655 12.6857 15.9999 13.1506 15.9999 13.7547V35.2417C15.9999 35.8458 16.1655 36.3107 16.4644 36.6022L16.5425 36.6665L28.886 24.6269V24.3564L16.5317 12.3193L16.4536 12.3837Z" fill="url(#paint0_linear_1151_372)"/>
<path fill-rule="evenodd" clip-rule="evenodd" d="M32.9921 28.6552L28.8749 24.638V24.357L32.9934 20.3398L33.0823 20.3937L37.9535 23.0937C39.3483 23.8606 39.3483 25.1239 37.9535 25.9014L33.0823 28.6013C33.081 28.6013 32.9921 28.6552 32.9921 28.6552Z" fill="url(#paint1_linear_1151_372)"/>
<path fill-rule="evenodd" clip-rule="evenodd" d="M33.0807 28.6019L28.8746 24.498L16.453 36.6139C16.9068 37.0893 17.6701 37.1431 18.5237 36.6782L33.0807 28.6019Z" fill="url(#paint2_linear_1151_372)"/>
<path fill-rule="evenodd" clip-rule="evenodd" d="M33.0807 20.3957L18.5237 12.3299C17.6715 11.8545 16.9068 11.9189 16.453 12.3942L28.8733 24.4982L33.0807 20.3957Z" fill="url(#paint3_linear_1151_372)"/>
<path opacity="0.2" fill-rule="evenodd" clip-rule="evenodd" d="M32.9918 28.5156L18.5345 36.5276C17.7267 36.9807 17.0064 36.9492 16.5419 36.5381L16.4638 36.6143L16.5419 36.6786C17.0064 37.0884 17.7267 37.1212 18.5345 36.6681L33.0914 28.6023L32.9918 28.5156Z" fill="#110F0F"/>
<path opacity="0.12" fill-rule="evenodd" clip-rule="evenodd" d="M37.9521 25.7614L32.9813 28.5152L33.0701 28.6019L37.9413 25.9019C38.6387 25.5132 38.982 25.0063 38.982 24.498C38.9376 24.9629 38.5835 25.4055 37.9521 25.7614Z" fill="#110F0F"/>
<path opacity="0.25" fill-rule="evenodd" clip-rule="evenodd" d="M18.5243 12.47L37.9524 23.2358C38.5839 23.5812 38.938 24.0343 38.9932 24.4992C38.9932 23.9923 38.6499 23.484 37.9524 23.0953L18.5243 12.3295C17.1295 11.5521 15.9999 12.1995 15.9999 13.7544V13.8949C15.9999 12.34 17.1295 11.7031 18.5243 12.47Z" fill="white"/>
<defs>
<linearGradient id="paint0_linear_1151_372" x1="27.7776" y1="13.5237" x2="8.07221" y2="18.9068" gradientUnits="userSpaceOnUse">
<stop stop-color="#00A0FF"/>
<stop offset="0.007" stop-color="#00A1FF"/>
<stop offset="0.26" stop-color="#00BEFF"/>
<stop offset="0.512" stop-color="#00D2FF"/>
<stop offset="0.76" stop-color="#00DFFF"/>
<stop offset="1" stop-color="#00E3FF"/>
</linearGradient>
<linearGradient id="paint1_linear_1151_372" x1="39.7685" y1="24.4981" x2="15.6606" y2="24.4981" gradientUnits="userSpaceOnUse">
<stop stop-color="#FFE000"/>
<stop offset="0.409" stop-color="#FFBD00"/>
<stop offset="0.775" stop-color="#FFA500"/>
<stop offset="1" stop-color="#FF9C00"/>
</linearGradient>
<linearGradient id="paint2_linear_1151_372" x1="30.7935" y1="26.7306" x2="15.4982" y2="53.1233" gradientUnits="userSpaceOnUse">
<stop stop-color="#FF3A44"/>
<stop offset="1" stop-color="#C31162"/>
</linearGradient>
<linearGradient id="paint3_linear_1151_372" x1="13.3262" y1="5.23611" x2="20.1498" y2="17.0233" gradientUnits="userSpaceOnUse">
<stop stop-color="#32A071"/>
<stop offset="0.069" stop-color="#2DA771"/>
<stop offset="0.476" stop-color="#15CF74"/>
<stop offset="0.801" stop-color="#06E775"/>
<stop offset="1" stop-color="#00F076"/>
</linearGradient>
</defs>
</svg>
