<svg width="52" height="28" viewBox="0 0 52 28" fill="none" xmlns="http://www.w3.org/2000/svg">
<rect width="52" height="28" rx="8" fill="white"/>
<mask id="mask0_1151_314" style="mask-type:alpha" maskUnits="userSpaceOnUse" x="8" y="4" width="36" height="20">
<rect x="8" y="4" width="36" height="20" fill="white"/>
</mask>
<g mask="url(#mask0_1151_314)">
</g>
<g clip-path="url(#clip0_1151_314)">
<path d="M25.0264 8.79164V12.3409H27.2524C27.7827 12.3409 28.221 12.1661 28.5674 11.8154C28.924 11.4658 29.1017 11.0485 29.1017 10.5658C29.1017 10.083 28.924 9.68069 28.5674 9.33003C28.22 8.97044 27.7817 8.79064 27.2524 8.79064H25.0264V8.79164ZM25.0264 13.5915V17.709H23.6973V7.54199H27.2231C28.119 7.54199 28.8785 7.83603 29.5057 8.42211C30.143 9.00819 30.4601 9.7234 30.4601 10.5658C30.4601 11.4081 30.143 12.1472 29.5057 12.7233C28.8896 13.3015 28.1281 13.5896 27.2231 13.5896H25.0264V13.5915ZM31.8034 15.5773C31.8034 15.919 31.9499 16.2021 32.2448 16.4296C32.5387 16.656 32.8831 16.7703 33.278 16.7703C33.8375 16.7703 34.3345 16.5666 34.7728 16.1604C35.2111 15.7531 35.4303 15.2753 35.4303 14.7269C35.0162 14.4041 34.4375 14.2442 33.6961 14.2442C33.1568 14.2442 32.7064 14.3723 32.3458 14.6276C31.9852 14.8829 31.8034 15.1988 31.8034 15.5773ZM33.5234 10.5231C34.5062 10.5231 35.2818 10.7803 35.8504 11.2969C36.4191 11.8134 36.7019 12.5197 36.7019 13.4187V17.707H35.4303V16.7415H35.3727C34.8233 17.5362 34.0921 17.9335 33.177 17.9335C32.3963 17.9335 31.7428 17.707 31.2186 17.2531C30.6934 16.7981 30.4309 16.2309 30.4309 15.5485C30.4309 14.8293 30.7066 14.2571 31.2611 13.8319C31.8155 13.4058 32.5549 13.1932 33.479 13.1932C34.2688 13.1932 34.9192 13.3353 35.4293 13.6194V13.3213C35.4293 12.8674 35.2465 12.482 34.8809 12.1651C34.5142 11.8472 34.087 11.6893 33.5951 11.6893C32.8528 11.6893 32.266 11.9962 31.8327 12.6121L30.6611 11.8879C31.3075 10.979 32.261 10.525 33.5234 10.525M44 10.7505L39.5632 20.7735H38.1906L39.8379 17.267L36.919 10.7505H38.3643L40.4742 15.7481H40.5024L42.5547 10.7505H44Z" fill="#5F6368"/>
<path d="M19.6543 12.7027C19.6543 12.2915 19.6189 11.8941 19.5523 11.5146H13.9448V13.7646H17.1556C17.0182 14.4977 16.6011 15.1215 15.9688 15.5397V17.001H17.8858C19.0079 15.9838 19.6543 14.4808 19.6543 12.7037" fill="#4285F4"/>
<path d="M13.9448 18.4119C15.5497 18.4119 16.9 17.8944 17.8858 17.0013L15.9688 15.5401C15.4356 15.8927 14.7488 16.0994 13.9448 16.0994C12.3945 16.0994 11.0785 15.0722 10.6068 13.6885H8.6333V15.1934C9.61198 17.1017 11.6229 18.4129 13.9458 18.4129" fill="#34A853"/>
<path d="M10.6078 13.6873C10.4876 13.3346 10.4209 12.9581 10.4209 12.5697C10.4209 12.1813 10.4866 11.8048 10.6078 11.4522V9.94727H8.63326C8.22826 10.736 8 11.626 8 12.5697C8 13.5134 8.22826 14.4045 8.63326 15.1922L10.6078 13.6873Z" fill="#FABB05"/>
<path d="M13.9448 9.04006C14.8205 9.04006 15.6063 9.33608 16.2254 9.9162C16.8445 10.4963 17.9222 8.24935 17.9222 8.24935C16.892 7.30764 15.5487 6.72852 13.9448 6.72852C11.6229 6.72852 9.61198 8.03875 8.6333 9.94699L10.6078 11.4519C11.0785 10.0682 12.3945 9.04105 13.9458 9.04105" fill="#E94235"/>
</g>
<defs>
<clipPath id="clip0_1151_314">
<rect width="36" height="14.0496" fill="white" transform="translate(8 6.72656)"/>
</clipPath>
</defs>
</svg>
