<svg width="20" height="20" viewBox="0 0 20 20" fill="none" xmlns="http://www.w3.org/2000/svg">
<path d="M19.7009 7.319V17.8402C19.7009 18.3799 19.4711 18.8658 19.1045 19.206C18.7718 19.5144 18.3267 19.703 17.8377 19.703H2.15999C1.67092 19.703 1.22585 19.5144 0.893662 19.2063C0.526984 18.8657 0.29718 18.3799 0.29718 17.8402V7.319H19.7009Z" fill="#FEC970"/>
<path d="M10.0783 19.703H2.15992C1.13118 19.703 0.297119 18.869 0.297119 17.8402V7.25647L2.36625 9.04201L2.49531 9.14931V14.4592C2.49531 16.2657 3.22422 17.9778 4.8862 18.6866C6.41971 19.3406 9.14767 19.703 10.0783 19.703Z" fill="#FBA028"/>
<path d="M19.7008 7.319L12.2424 1.10903C10.9426 0.0265709 9.05517 0.0265709 7.75533 1.10899L0.297119 7.319L2.49527 9.14931L7.75525 13.529C9.05529 14.6116 10.9427 14.6116 12.2422 13.529L17.5027 9.14931L19.7009 7.319" fill="#FBA028"/>
<path d="M17.5027 3.44343V9.14927L12.2423 13.5291C10.9427 14.6117 9.05534 14.6117 7.7553 13.5291L2.49536 9.14931V3.44347C2.49536 2.25387 3.46001 1.28918 4.65004 1.28918H15.3486C16.5384 1.28918 17.5028 2.25387 17.5028 3.44347L17.5027 3.44343Z" fill="#BFDADD"/>
<path d="M17.5027 3.44343V7.84255L12.2423 12.2222C10.9427 13.3048 9.05534 13.3048 7.7553 12.2222L2.49536 7.84255V3.44343C2.49536 2.25386 3.46001 1.28922 4.65004 1.28922H15.3486C16.5384 1.28922 17.5028 2.25386 17.5028 3.44343H17.5027Z" fill="#E4F5F7"/>
<path d="M17.8922 18.4939C17.9358 18.4939 17.9788 18.4844 18.0183 18.4659C18.0578 18.4474 18.0927 18.4204 18.1206 18.3869C18.1455 18.3569 18.1643 18.3224 18.1759 18.2851C18.1875 18.2479 18.1916 18.2087 18.1881 18.1699C18.1846 18.131 18.1734 18.0933 18.1553 18.0588C18.1371 18.0242 18.1124 17.9936 18.0824 17.9687L13.3467 14.0258C13.3167 14.0008 13.2821 13.982 13.2449 13.9704C13.2077 13.9588 13.1685 13.9547 13.1297 13.9582C13.0908 13.9618 13.0531 13.9729 13.0186 13.9911C12.984 14.0092 12.9534 14.034 12.9285 14.064C12.878 14.1245 12.8537 14.2026 12.8609 14.281C12.868 14.3595 12.9061 14.4319 12.9666 14.4824L17.7023 18.4252C17.7556 18.4697 17.8228 18.494 17.8922 18.4939ZM6.6513 14.0258L1.91565 17.9687C1.88568 17.9936 1.86092 18.0242 1.84279 18.0588C1.82465 18.0933 1.81349 18.131 1.80994 18.1699C1.8064 18.2087 1.81054 18.2479 1.82213 18.2851C1.83372 18.3224 1.85253 18.3569 1.87749 18.3869C1.90532 18.4205 1.94024 18.4475 1.97973 18.466C2.01922 18.4845 2.06232 18.494 2.10593 18.4939C2.1753 18.494 2.24251 18.4697 2.29577 18.4252L7.03145 14.4822C7.06143 14.4572 7.08619 14.4266 7.10432 14.3921C7.12246 14.3576 7.13362 14.3198 7.13716 14.281C7.1407 14.2421 7.13655 14.203 7.12496 14.1657C7.11336 14.1285 7.09454 14.0939 7.06958 14.064C7.04463 14.034 7.01401 14.0092 6.97949 13.9911C6.94496 13.9729 6.9072 13.9618 6.86837 13.9582C6.82953 13.9547 6.79037 13.9588 6.75313 13.9704C6.71589 13.982 6.6813 14.0008 6.65134 14.0258L6.6513 14.0258Z" fill="black"/>
<path d="M19.9978 7.319C19.9978 7.27543 19.9882 7.2324 19.9698 7.19295C19.9513 7.1535 19.9244 7.1186 19.8909 7.09072L17.7997 5.34955V3.44343C17.7997 2.09183 16.7001 0.992263 15.3485 0.992263H12.5661L12.4324 0.880896C11.0225 -0.293591 8.97553 -0.293591 7.56519 0.880896L7.43152 0.992263H6.83109C6.79209 0.992253 6.75347 0.999927 6.71744 1.01485C6.68141 1.02977 6.64867 1.05164 6.62109 1.07922C6.59351 1.10679 6.57164 1.13953 6.55672 1.17556C6.5418 1.2116 6.53413 1.25022 6.53414 1.28921C6.53414 1.45328 6.66707 1.58628 6.83109 1.58628H15.3485C16.3725 1.58628 17.2057 2.41941 17.2057 3.44343V9.01012L12.0522 13.3009C10.8626 14.2919 9.13545 14.2918 7.94526 13.3007L2.79239 9.01012V3.44346C2.79239 2.41945 3.62567 1.58628 4.65 1.58628H5.64305C5.68234 1.58673 5.72133 1.57939 5.75776 1.56466C5.79419 1.54994 5.82733 1.52813 5.85528 1.50051C5.88322 1.47288 5.9054 1.43999 5.92055 1.40373C5.93569 1.36747 5.94348 1.32857 5.94348 1.28927C5.94348 1.24998 5.93569 1.21108 5.92055 1.17482C5.9054 1.13856 5.88322 1.10567 5.85528 1.07804C5.82733 1.05042 5.79419 1.02861 5.75776 1.01389C5.72133 0.999162 5.68234 0.991812 5.64305 0.992263H4.65C3.29825 0.992263 2.19837 2.09183 2.19837 3.44343V5.34955L0.10717 7.09087C0.074005 7.11848 0.047266 7.15299 0.0288201 7.192C0.0103742 7.23101 0.000666004 7.27358 0.000373534 7.31673C0.000373534 7.31763 6.10352e-05 7.31825 6.10352e-05 7.31915V17.8402C6.10352e-05 19.0311 0.969002 19.9999 2.15994 19.9999H15.4637C15.5027 19.9999 15.5413 19.9923 15.5774 19.9773C15.6134 19.9624 15.6461 19.9405 15.6737 19.913C15.7013 19.8854 15.7232 19.8527 15.7381 19.8166C15.753 19.7806 15.7607 19.742 15.7607 19.703C15.7607 19.664 15.753 19.6254 15.7381 19.5893C15.7231 19.5533 15.7013 19.5206 15.6737 19.493C15.6461 19.4654 15.6134 19.4436 15.5774 19.4286C15.5413 19.4137 15.5027 19.406 15.4637 19.4061H2.15994C1.29642 19.4061 0.594082 18.7035 0.594082 17.8402V7.9527L2.30626 9.37848C2.30642 9.37848 2.30642 9.37848 2.30642 9.37864L7.56519 13.7573C8.27061 14.3446 9.13456 14.6381 9.99897 14.638C10.863 14.638 11.7275 14.3444 12.4323 13.7573L17.6904 9.37938C17.6913 9.3786 17.6921 9.37801 17.6929 9.37727L19.4037 7.95286V17.84C19.4037 18.7034 18.7013 19.4059 17.8378 19.4059H16.6518C16.4877 19.4059 16.3548 19.5388 16.3548 19.7029C16.3548 19.8669 16.4877 19.9999 16.6518 19.9999H17.8378C19.0288 19.9999 19.9977 19.031 19.9977 17.84V7.32146C19.9977 7.32068 19.9978 7.31989 19.9978 7.319ZM11.5463 0.992263H8.45159C9.41334 0.462031 10.5848 0.462031 11.5464 0.992263H11.5463ZM2.19841 6.12256V8.51559L0.761347 7.31915L2.19841 6.12256ZM17.7997 8.51544V6.12256L19.2368 7.31904L17.7997 8.51544Z" fill="black"/>
<path d="M14.3549 8.22752H5.64315C5.60386 8.22707 5.56487 8.23442 5.52844 8.24915C5.49201 8.26387 5.45886 8.28568 5.43092 8.3133C5.40298 8.34093 5.38079 8.37382 5.36565 8.41008C5.35051 8.44634 5.34271 8.48524 5.34271 8.52453C5.34271 8.56383 5.35051 8.60273 5.36565 8.63899C5.38079 8.67525 5.40298 8.70814 5.43092 8.73577C5.45886 8.76339 5.49201 8.7852 5.52844 8.79992C5.56487 8.81465 5.60386 8.822 5.64315 8.82155H14.3549C14.3942 8.822 14.4331 8.81465 14.4696 8.79992C14.506 8.7852 14.5392 8.76339 14.5671 8.73577C14.595 8.70814 14.6172 8.67525 14.6324 8.63899C14.6475 8.60273 14.6553 8.56383 14.6553 8.52453C14.6553 8.48524 14.6475 8.44634 14.6324 8.41008C14.6172 8.37382 14.595 8.34093 14.5671 8.3133C14.5392 8.28568 14.506 8.26387 14.4696 8.24915C14.4331 8.23442 14.3942 8.22707 14.3549 8.22752ZM14.3549 9.95237H5.64315C5.56438 9.95237 5.48883 9.98366 5.43313 10.0394C5.37743 10.0951 5.34614 10.1706 5.34614 10.2494C5.34614 10.3282 5.37743 10.4037 5.43313 10.4594C5.48883 10.5151 5.56438 10.5464 5.64315 10.5464H14.3549C14.3942 10.5468 14.4331 10.5395 14.4696 10.5248C14.506 10.51 14.5392 10.4882 14.5671 10.4606C14.595 10.433 14.6172 10.4001 14.6324 10.3638C14.6475 10.3276 14.6553 10.2887 14.6553 10.2494C14.6553 10.2101 14.6475 10.1712 14.6324 10.1349C14.6172 10.0987 14.595 10.0658 14.5671 10.0381C14.5392 10.0105 14.506 9.98871 14.4696 9.97399C14.4331 9.95927 14.3942 9.95192 14.3549 9.95237ZM14.3549 4.77768H5.64315C5.56437 4.7777 5.48882 4.80901 5.43311 4.86471C5.37741 4.92042 5.3461 4.99597 5.34608 5.07475C5.34612 5.15352 5.37744 5.22905 5.43316 5.28474C5.48887 5.34042 5.56442 5.3717 5.64319 5.3717H14.3549C14.5189 5.3717 14.652 5.23862 14.652 5.07475C14.652 4.91069 14.5189 4.77768 14.3549 4.77768ZM14.3549 6.50268H12.177C12.138 6.50267 12.0994 6.51035 12.0633 6.52527C12.0273 6.54019 11.9946 6.56206 11.967 6.58963C11.9394 6.6172 11.9176 6.64994 11.9027 6.68596C11.8877 6.72199 11.8801 6.7606 11.8801 6.79959C11.8801 6.83859 11.8877 6.87721 11.9026 6.91324C11.9176 6.94927 11.9394 6.982 11.967 7.00958C11.9946 7.03716 12.0273 7.05903 12.0633 7.07395C12.0994 7.08887 12.138 7.09655 12.177 7.09655H14.3549C14.3939 7.09656 14.4325 7.08888 14.4685 7.07396C14.5046 7.05904 14.5373 7.03717 14.5649 7.00959C14.5924 6.98202 14.6143 6.94928 14.6292 6.91324C14.6442 6.87721 14.6518 6.83859 14.6518 6.79959C14.6518 6.7606 14.6441 6.72198 14.6292 6.68595C14.6143 6.64993 14.5924 6.61719 14.5649 6.58962C14.5373 6.56205 14.5045 6.54018 14.4685 6.52526C14.4325 6.51034 14.3939 6.50267 14.3549 6.50268ZM5.64319 7.09655H11.187C11.226 7.09655 11.2646 7.08887 11.3007 7.07395C11.3367 7.05903 11.3694 7.03716 11.397 7.00958C11.4246 6.982 11.4464 6.94927 11.4614 6.91324C11.4763 6.87721 11.4839 6.83859 11.4839 6.79959C11.4839 6.7606 11.4763 6.72199 11.4613 6.68596C11.4464 6.64994 11.4246 6.6172 11.397 6.58963C11.3694 6.56206 11.3367 6.54019 11.3006 6.52527C11.2646 6.51035 11.226 6.50267 11.187 6.50268H5.64319C5.56442 6.50266 5.48886 6.53393 5.43315 6.58961C5.37743 6.64529 5.34611 6.72082 5.34608 6.79959C5.34608 6.96366 5.47917 7.09655 5.64319 7.09655Z" fill="black"/>
</svg>
