<svg width="22" height="22" viewBox="0 0 22 22" fill="none" xmlns="http://www.w3.org/2000/svg">
<path fill-rule="evenodd" clip-rule="evenodd" d="M2.70024 4.22694L8.64367 10.173C9.93995 11.4667 12.0589 11.4679 13.3563 10.173L19.2997 4.22694C19.3138 4.21297 19.3246 4.19607 19.3314 4.17746C19.3382 4.15884 19.3408 4.13896 19.339 4.11922C19.3373 4.09948 19.3312 4.08037 19.3213 4.06324C19.3113 4.0461 19.2977 4.03137 19.2814 4.02009C18.6752 3.59732 17.9376 3.34668 17.1432 3.34668H4.85684C4.0623 3.34668 3.32474 3.59736 2.71854 4.02009C2.70225 4.03137 2.68865 4.0461 2.67869 4.06324C2.66873 4.08037 2.66266 4.09948 2.66091 4.11922C2.65917 4.13896 2.66178 4.15884 2.66858 4.17746C2.67537 4.19607 2.68618 4.21297 2.70024 4.22694ZM1.11194 7.09154C1.11146 6.48738 1.25828 5.89223 1.53969 5.35762C1.54952 5.33877 1.56365 5.32251 1.58094 5.31015C1.59823 5.29779 1.6182 5.28969 1.63921 5.2865C1.66022 5.28331 1.68169 5.28512 1.70187 5.29179C1.72206 5.29846 1.74038 5.30979 1.75535 5.32488L7.62355 11.1931C9.48182 13.0541 12.517 13.0551 14.3764 11.1931L20.2446 5.32488C20.2596 5.30979 20.2779 5.29846 20.2981 5.29179C20.3183 5.28512 20.3398 5.28331 20.3608 5.2865C20.3818 5.28969 20.4018 5.29779 20.419 5.31015C20.4363 5.32251 20.4505 5.33877 20.4603 5.35762C20.7417 5.89223 20.8885 6.48739 20.888 7.09154V14.9091C20.888 16.9756 19.2071 18.654 17.1432 18.654H4.85684C2.79296 18.654 1.11194 16.9756 1.11194 14.9091V7.09154Z" fill="#1781FE"/>
</svg>
