<svg width="52" height="28" viewBox="0 0 52 28" fill="none" xmlns="http://www.w3.org/2000/svg">
<rect width="52" height="28" rx="8" fill="white"/>
<mask id="mask0_1151_289" style="mask-type:alpha" maskUnits="userSpaceOnUse" x="8" y="4" width="36" height="20">
<rect x="8" y="4" width="36" height="20" fill="white"/>
</mask>
<g mask="url(#mask0_1151_289)">
<path fill-rule="evenodd" clip-rule="evenodd" d="M26.0086 21.4077C27.7166 23.0213 30.0103 24 32.5052 24C37.8634 24 42.2001 19.5194 42.2001 14.0085C42.2001 8.48084 37.8634 4 32.5052 4C30.0103 4 27.7166 4.97852 26.0086 6.59229C24.0495 8.42911 22.8103 11.0729 22.8103 14.0085C22.8105 16.9441 24.0495 19.5881 26.0086 21.4077Z" fill="#E9B040"/>
<path fill-rule="evenodd" clip-rule="evenodd" d="M40.9117 19.5716C40.9117 19.3999 41.0458 19.2627 41.2131 19.2627C41.3971 19.2627 41.5309 19.4001 41.5309 19.5716C41.5309 19.7607 41.3969 19.8979 41.2131 19.8979C41.0458 19.8979 40.9117 19.7607 40.9117 19.5716ZM41.2131 19.8294C41.3471 19.8294 41.4639 19.709 41.4639 19.5718C41.4639 19.4346 41.3469 19.3316 41.2131 19.3316C41.0956 19.3316 40.9787 19.4346 40.9787 19.5718C40.9787 19.709 41.0958 19.8294 41.2131 19.8294ZM41.1796 19.7264H41.1126V19.4344H41.2296C41.2466 19.4344 41.2801 19.4344 41.2966 19.4518C41.3301 19.4688 41.3301 19.4862 41.3301 19.5205C41.3301 19.5549 41.3136 19.5892 41.2801 19.5892L41.3471 19.7266H41.2631L41.2296 19.6062H41.1796V19.7264V19.5547H41.2466C41.2631 19.5547 41.2631 19.5373 41.2631 19.5203C41.2631 19.5029 41.2631 19.5029 41.2466 19.486H41.1796V19.7264Z" fill="#E9B040"/>
<path fill-rule="evenodd" clip-rule="evenodd" d="M29.1398 12.9443C29.1063 12.5838 29.0393 12.2406 28.9722 11.8799H23.0447C23.1117 11.5194 23.2122 11.1762 23.3126 10.8327H28.6877C28.571 10.4713 28.4369 10.1161 28.2858 9.76829H23.7313C23.8989 9.40466 24.0833 9.04945 24.2839 8.7039H27.7167C27.4958 8.33726 27.2497 7.98729 26.9801 7.65668H25.0208C25.3238 7.27722 25.6541 6.92144 26.0087 6.59229C24.2841 4.9957 22.0068 4 19.4951 4C14.1537 4 9.80017 8.48084 9.80017 14.0085C9.80017 19.5194 14.1537 24 19.4951 24C22.0068 24 24.2839 23.0213 26.0087 21.4077C26.3579 21.0843 26.6826 20.7342 26.9801 20.3603H25.0208C24.7528 20.017 24.5184 19.6737 24.2839 19.2959H27.7167C27.9326 18.9564 28.1229 18.6006 28.286 18.2315H23.7313C23.5806 17.8882 23.43 17.5449 23.3126 17.1841H28.6877C28.8047 16.8408 28.8887 16.4806 28.972 16.1197C29.0391 15.7764 29.1061 15.4162 29.1396 15.0553C29.1735 14.7072 29.1903 14.3577 29.19 14.0079C29.19 13.648 29.1733 13.2876 29.1398 12.9443Z" fill="#CC2131"/>
<path fill-rule="evenodd" clip-rule="evenodd" d="M40.9117 16.3269C40.9117 16.1382 41.0458 16.001 41.2131 16.001C41.3971 16.001 41.5309 16.1384 41.5309 16.3269C41.5309 16.4986 41.3969 16.6532 41.2131 16.6532C41.0458 16.6532 40.9117 16.4984 40.9117 16.3269ZM41.2131 16.5671C41.3471 16.5671 41.4639 16.4641 41.4639 16.3269C41.4639 16.1897 41.3469 16.0866 41.2131 16.0866C41.0956 16.0866 40.9787 16.1897 40.9787 16.3269C40.9787 16.4641 41.0958 16.5671 41.2131 16.5671ZM41.1796 16.4641H41.1126V16.1895H41.2966C41.3301 16.2069 41.3301 16.2412 41.3301 16.2756C41.3301 16.2925 41.3136 16.3269 41.2801 16.3443L41.3471 16.4643H41.2631L41.2296 16.3612H41.1796V16.4641V16.3097H41.2131C41.2296 16.3097 41.2466 16.3097 41.2466 16.2923C41.2631 16.2923 41.2631 16.2754 41.2631 16.258C41.2631 16.258 41.2631 16.241 41.2466 16.241C41.2466 16.2236 41.2296 16.241 41.2131 16.241H41.1796V16.4641Z" fill="white"/>
<path fill-rule="evenodd" clip-rule="evenodd" d="M22.7099 16.893C22.3918 16.9787 22.1573 17.0304 21.923 17.0304C21.4207 17.0304 21.1191 16.7041 21.1191 16.1204C21.1191 16.0004 21.1359 15.8801 21.1526 15.7428L21.2197 15.3482L21.2699 15.0218L21.722 12.2065H22.7267L22.6094 12.8246H23.2457L23.095 13.8546H22.4586L22.1908 15.5369C22.1741 15.6229 22.1741 15.6743 22.1741 15.7086C22.1741 15.9319 22.2746 16.0175 22.5256 16.0175C22.6429 16.0175 22.7432 16.0006 22.8437 15.9832L22.7099 16.893ZM25.9584 16.8587C25.5901 16.9617 25.2553 17.013 24.8868 17.013C23.7481 17.013 23.095 16.395 23.095 15.1764C23.095 13.7514 23.8653 12.7213 24.9368 12.7213C25.7907 12.7213 26.3433 13.305 26.3433 14.2147C26.3433 14.524 26.3098 14.8158 26.2262 15.2277H24.1332C24.1164 15.2964 24.1164 15.3308 24.1164 15.3651C24.1164 15.8458 24.4345 16.086 25.0373 16.086C25.4224 16.086 25.7572 16.0004 26.1257 15.8288L25.9584 16.8587ZM25.3388 14.4038V14.1977C25.3388 13.8544 25.1546 13.6655 24.8365 13.6655C24.5015 13.6655 24.2672 13.9229 24.1667 14.4036L25.3388 14.4038ZM14.6726 16.9443H13.6344L14.2372 13.0476L12.881 16.9443H12.1611L12.0773 13.0648L11.441 16.9443H10.4196L11.24 11.8802H12.7637L12.7972 15.0049L13.8186 11.8802H15.4932L14.6726 16.9443ZM17.2012 15.1077C17.1007 15.0903 17.0672 15.0903 17.0002 15.0903C16.3973 15.0903 16.096 15.3306 16.096 15.7084C16.096 15.966 16.2468 16.1378 16.4811 16.1378C16.9834 16.1378 17.1842 15.7084 17.2012 15.1077ZM18.0383 16.9443H17.1342L17.1509 16.5154C16.9164 16.8413 16.5983 17.013 16.0457 17.013C15.5434 17.013 15.1081 16.5497 15.1081 15.8801C15.1081 15.6914 15.1416 15.5199 15.1918 15.3482C15.3591 14.7127 15.9787 14.3181 16.9332 14.3007C17.0504 14.3007 17.2345 14.3007 17.402 14.3181C17.4353 14.1807 17.4353 14.129 17.4353 14.0433C17.4353 13.7685 17.2177 13.6827 16.7321 13.6827C16.4308 13.6827 16.0958 13.7342 15.8615 13.8201L15.7107 13.8544L15.6437 13.8714L15.7945 12.9444C16.2801 12.7898 16.6316 12.7213 17.0169 12.7213C17.9211 12.7213 18.4067 13.1505 18.4067 13.9401C18.4067 14.1462 18.4234 14.3007 18.3564 14.7471L18.1221 16.2234L18.0886 16.481L18.0718 16.6871L18.0551 16.8245L18.0383 16.9443ZM31.0153 12.8587C31.3166 12.8587 31.5846 12.9446 31.9529 13.1333L32.137 12.0346C32.0365 11.983 32.003 11.983 31.8692 11.9315L31.4508 11.8113C31.3168 11.7769 31.1495 11.7598 30.965 11.7598C30.4457 11.7598 30.1444 11.7769 29.8265 11.9659C29.659 12.0861 29.4413 12.2406 29.2068 12.5152L29.0727 12.4809L28.0011 13.2533L28.0515 12.8242H26.9461L26.2934 16.9441H27.3486L27.7334 14.7299C27.7334 14.7299 27.8844 14.4205 27.9512 14.3179C28.1522 14.0603 28.3195 14.0603 28.5371 14.0603H28.6211C28.5859 14.3219 28.5691 14.5858 28.5706 14.8499C28.5706 16.1889 29.3073 17.0302 30.4459 17.0302C30.7307 17.0302 30.9822 16.9959 31.367 16.8928L31.5515 15.7256C31.2167 15.9143 30.9152 16.0002 30.6639 16.0002C30.0445 16.0002 29.6758 15.5195 29.6758 14.7642C29.6754 13.6483 30.2282 12.8587 31.0153 12.8587ZM39.9061 11.8802L39.672 13.3222C39.4208 12.9274 39.1192 12.7385 38.7174 12.7385C38.1646 12.7385 37.6457 13.0646 37.3275 13.6827V13.6657L36.6578 13.2535L36.7248 12.8244H35.6029L34.9666 16.9443H36.0047L36.3565 14.7301C36.3565 14.7301 36.6243 14.4207 36.6913 14.3181C36.8588 14.112 37.0261 14.0775 37.1602 14.0605C37.0431 14.4038 36.9761 14.8158 36.9761 15.2795C36.9761 16.3095 37.495 16.9961 38.2651 16.9961C38.6504 16.9961 38.9517 16.8587 39.2363 16.5324L39.1862 16.9443H40.1744L40.978 11.8802H39.9061ZM38.6171 15.966C38.2653 15.966 38.0813 15.6914 38.0813 15.159C38.0813 14.3521 38.4161 13.7685 38.9015 13.7685C39.2698 13.7685 39.4543 14.0605 39.4543 14.5755C39.4543 15.3995 39.1194 15.966 38.6171 15.966ZM33.7782 15.1077C33.6777 15.0903 33.6442 15.0903 33.5772 15.0903C32.974 15.0903 32.6726 15.3306 32.6726 15.7084C32.6726 15.966 32.8236 16.1378 33.0579 16.1378C33.5603 16.1378 33.7613 15.7084 33.7782 15.1077ZM34.6154 16.9443H33.6943L33.7278 16.5154C33.4934 16.8413 33.175 17.013 32.6228 17.013C32.1035 17.013 31.6516 16.5667 31.6516 15.8801C31.6516 14.9018 32.3713 14.3009 33.51 14.3009C33.6275 14.3009 33.8113 14.3009 33.9623 14.3183C33.9958 14.1809 34.0127 14.1292 34.0127 14.0435C34.0127 13.7687 33.795 13.6829 33.2926 13.6829C33.0079 13.6829 32.6563 13.7344 32.422 13.8203L32.288 13.8546L32.221 13.8716L32.3715 12.9446C32.8573 12.79 33.2091 12.7215 33.594 12.7215C34.4981 12.7215 34.967 13.1507 34.967 13.9403C34.967 14.1464 35.0005 14.3009 34.9169 14.7473L34.6991 16.2236L34.6656 16.4812L34.6321 16.6873L34.6156 16.8247V16.9443H34.6154ZM20.2317 13.6998C20.4327 13.6998 20.7173 13.717 21.0188 13.7685L21.1696 12.8072C20.8681 12.7728 20.4662 12.7213 20.2317 12.7213C19.0598 12.7213 18.6747 13.3737 18.6747 14.129C18.6747 14.627 18.8922 14.9873 19.4616 15.2619C19.8802 15.468 19.9472 15.5021 19.9472 15.6912C19.9472 15.9484 19.7296 16.1032 19.3276 16.1032C19.0095 16.1032 18.708 16.0515 18.3732 15.9315L18.2559 16.8754L18.2725 16.8928L18.4735 16.9272C18.5405 16.9441 18.6242 16.9615 18.7415 16.9785C18.9925 16.9959 19.2103 17.0128 19.3443 17.0128C20.5165 17.0128 21.0021 16.5495 21.0021 15.6395C21.0021 15.0732 20.7341 14.7299 20.215 14.4896C19.7629 14.2834 19.7126 14.2494 19.7126 14.0603C19.7126 13.8716 19.9137 13.6998 20.2317 13.6998Z" fill="#1B3771"/>
<path fill-rule="evenodd" clip-rule="evenodd" d="M32.4216 11.7076L32.2372 12.8063C31.8688 12.6174 31.6008 12.5318 31.2995 12.5318C30.5124 12.5318 29.96 13.3214 29.96 14.4373C29.96 15.2099 30.3283 15.6732 30.9481 15.6732C31.199 15.6732 31.5005 15.5875 31.8353 15.416L31.6513 16.5659C31.266 16.6689 31.0149 16.7206 30.7302 16.7206C29.5917 16.7206 28.8883 15.8793 28.8883 14.5234C28.8883 12.7207 29.8595 11.4502 31.2492 11.4502C31.4333 11.4502 31.6006 11.4674 31.7346 11.5017L32.1534 11.6048C32.2876 11.6563 32.3211 11.6735 32.4216 11.7076ZM29.0391 12.4631H28.9386C28.5872 12.4631 28.3862 12.6348 28.0679 13.1325L28.1684 12.4972H27.2138L26.5611 16.6174H27.6162C28.0011 14.0938 28.1016 13.6646 28.604 13.6646H28.671C28.7715 13.1668 28.9053 12.8061 29.0728 12.48L29.0391 12.4631ZM22.9778 16.5659C22.6932 16.6689 22.4587 16.7033 22.2244 16.7033C21.6885 16.7033 21.387 16.3943 21.387 15.7936C21.387 15.6906 21.4038 15.5534 21.4205 15.433L21.4875 15.021L21.5378 14.6951L21.9898 11.8793H23.028L22.9108 12.4974H23.4466L23.3126 13.5103H22.7768L22.4922 15.2271C22.4754 15.2958 22.4754 15.3475 22.4754 15.3988C22.4754 15.6049 22.5759 15.6908 22.827 15.6908C22.9443 15.6908 23.0446 15.6908 23.1116 15.6564L22.9778 16.5659ZM18.9423 13.802C18.9423 14.3173 19.1767 14.6775 19.7292 14.9523C20.1646 15.1584 20.2316 15.2269 20.2316 15.3986C20.2316 15.6562 20.0473 15.7763 19.6287 15.7763C19.3107 15.7763 19.0259 15.7249 18.6911 15.6219L18.5403 16.5659L18.5906 16.5832L18.7748 16.6176C18.8416 16.6346 18.9256 16.6519 19.0594 16.6519C19.2937 16.6863 19.4947 16.6863 19.6287 16.6863C20.7337 16.6863 21.253 16.2569 21.253 15.313C21.253 14.7462 21.0354 14.4199 20.5163 14.1627C20.0643 13.9566 20.014 13.9053 20.014 13.7164C20.014 13.4933 20.1983 13.3903 20.5331 13.3903C20.7341 13.3903 21.0187 13.4074 21.2867 13.4418L21.4373 12.4976C21.1694 12.4461 20.7509 12.4117 20.5163 12.4117C19.3442 12.4115 18.9256 13.0468 18.9423 13.802ZM40.4422 16.6176H39.4541L39.5046 16.2226C39.2198 16.5315 38.9183 16.6689 38.533 16.6689C37.7628 16.6689 37.2605 15.9997 37.2605 14.9697C37.2605 13.5962 38.0476 12.4287 38.9683 12.4287C39.3871 12.4287 39.6884 12.6176 39.9734 12.9953L40.2077 11.5532H41.2459L40.4422 16.6176ZM38.9015 15.6562C39.3873 15.6562 39.7221 15.0725 39.7221 14.2655C39.7221 13.7333 39.5377 13.4586 39.1693 13.4586C38.7005 13.4586 38.3491 14.0251 38.3491 14.8321C38.3491 15.3817 38.5332 15.6562 38.9015 15.6562ZM26.1926 16.5315C25.8241 16.6519 25.4892 16.7033 25.1042 16.7033C23.932 16.7033 23.3291 16.0682 23.3291 14.8493C23.3291 13.4416 24.0995 12.3944 25.1544 12.3944C26.0251 12.3944 26.5775 12.9781 26.5775 13.8879C26.5775 14.197 26.544 14.489 26.4435 14.918H24.3675C24.3508 14.9697 24.3508 15.004 24.3508 15.0384C24.3508 15.5191 24.669 15.7593 25.2717 15.7593C25.6568 15.7593 25.9916 15.6906 26.3601 15.5017L26.1926 16.5315ZM25.6065 14.0766V13.8707C25.6065 13.5275 25.4222 13.3385 25.1042 13.3385C24.7693 13.3385 24.5348 13.5962 24.4343 14.0766H25.6065ZM14.9404 16.6176H13.9022L14.5051 12.7205L13.1488 16.6176H12.4287L12.345 12.7548L11.7088 16.6176H10.7377L11.5581 11.5532H13.0651L13.1153 14.6949L14.1198 11.5532H15.7608L14.9404 16.6176ZM17.5358 14.7806C17.4353 14.7806 17.3851 14.7636 17.3013 14.7636C16.7152 14.7636 16.4139 14.9867 16.4139 15.3986C16.4139 15.6562 16.5479 15.8106 16.7822 15.8106C17.2176 15.8106 17.5191 15.3986 17.5358 14.7806ZM18.306 16.6176H17.4351L17.4519 16.1882C17.1839 16.5315 16.8323 16.6863 16.3467 16.6863C15.7774 16.6863 15.3923 16.24 15.3923 15.5704C15.3923 14.5577 16.0619 13.974 17.2341 13.974C17.3514 13.974 17.5021 13.9912 17.6695 14.0081C17.703 13.8709 17.703 13.8194 17.703 13.7507C17.703 13.4761 17.5187 13.3731 17.0331 13.3731C16.7318 13.3731 16.3968 13.4074 16.1625 13.4761L16.0117 13.5277L15.9112 13.5448L16.0619 12.6178C16.581 12.4633 16.9326 12.4117 17.3179 12.4117C18.222 12.4117 18.7076 12.8237 18.7076 13.6133C18.7076 13.8194 18.6909 13.974 18.6239 14.4375L18.3894 15.8969L18.3559 16.1541L18.3391 16.3602L18.3224 16.515L18.306 16.6176ZM34.1129 14.7806C33.9954 14.7806 33.9454 14.7636 33.8786 14.7636C33.2757 14.7636 32.974 14.9867 32.974 15.3986C32.974 15.6562 33.125 15.8106 33.3593 15.8106C33.7781 15.8106 34.0959 15.3986 34.1129 14.7806ZM34.883 16.6176H34.0124L34.0289 16.1882C33.7611 16.5315 33.4095 16.6863 32.924 16.6863C32.3546 16.6863 31.9693 16.24 31.9693 15.5704C31.9693 14.5577 32.639 13.974 33.8112 13.974C33.9286 13.974 34.0794 13.9912 34.2299 14.0081C34.2634 13.8709 34.2804 13.8194 34.2804 13.7507C34.2804 13.4761 34.0959 13.3731 33.6107 13.3731C33.309 13.3731 32.9577 13.4074 32.7231 13.4761L32.5891 13.5277L32.4886 13.5448L32.6392 12.6178C33.1585 12.4633 33.5098 12.4117 33.8951 12.4117C34.7993 12.4117 35.2681 12.8237 35.2681 13.6133C35.2681 13.8194 35.2681 13.974 35.1846 14.4375L34.9668 15.8969L34.9333 16.1541L34.8998 16.3602L34.8832 16.515L34.883 16.6176ZM37.696 12.4631H37.5955C37.2442 12.4631 37.0431 12.6348 36.7249 13.1325L36.8254 12.4972H35.8708L35.2344 16.6174H36.2726C36.6579 14.0938 36.7584 13.6646 37.2607 13.6646H37.3277C37.4282 13.1668 37.562 12.8061 37.7295 12.48L37.696 12.4631Z" fill="white"/>
</g>
</svg>
