<svg width="135" height="28" viewBox="0 0 135 28" fill="none" xmlns="http://www.w3.org/2000/svg">
<g clip-path="url(#clip0_1151_907)">
<path d="M134.241 18.7102C133.822 18.7102 133.482 19.0418 133.482 19.4501C133.482 19.8584 133.822 20.19 134.241 20.19C134.66 20.19 135 19.8584 135 19.4501C135 19.0418 134.66 18.7102 134.241 18.7102ZM134.241 20.0726C133.888 20.0726 133.603 19.7926 133.603 19.4501C133.603 19.1059 133.89 18.8275 134.241 18.8275C134.594 18.8275 134.881 19.1075 134.881 19.4501C134.881 19.7926 134.594 20.0726 134.241 20.0726ZM134.488 19.3234C134.488 19.1888 134.39 19.109 134.246 19.109H134.004V19.7832H134.122V19.5392H134.252L134.377 19.7832H134.506L134.368 19.5142C134.442 19.4814 134.488 19.4156 134.488 19.3234ZM134.241 19.4344H134.124V19.2108H134.241C134.321 19.2108 134.37 19.2499 134.37 19.3218C134.37 19.3953 134.32 19.4344 134.241 19.4344ZM42.8053 11.2221V9.43261H39.9913V20.0789H42.8053V13.6952C42.8053 12.5392 43.5658 11.9714 44.7514 11.9714H46.2916V9.43265H44.976C43.946 9.43261 43.0508 9.95663 42.8053 11.2221ZM48.9275 5.22168C47.9649 5.22168 47.2269 5.96314 47.2269 6.90169C47.2269 7.81834 47.9649 8.5598 48.9275 8.5598C49.8901 8.5598 50.6281 7.81834 50.6281 6.90169C50.628 5.96311 49.8901 5.22168 48.9275 5.22168ZM47.5237 20.0789H50.3313V9.43261H47.5237V20.0789ZM63.705 14.7557C63.705 17.7951 61.1782 20.2588 58.0609 20.2588C56.8031 20.2588 55.6624 19.8568 54.7479 19.1779V23.2043H51.9404V9.43261H54.7479V10.3336C55.6624 9.65473 56.8031 9.25272 58.0609 9.25272C61.1782 9.25272 63.705 11.7164 63.705 14.7557ZM60.8798 14.7557C60.8798 13.1055 59.5065 11.7665 57.8139 11.7665C56.1213 11.7665 54.748 13.1055 54.748 14.7557C54.748 16.406 56.1213 17.745 57.8139 17.745C59.5065 17.745 60.8798 16.4076 60.8798 14.7557ZM112.502 13.8219L110.864 13.3839C109.786 13.1101 109.368 12.7879 109.368 12.2326C109.368 11.6914 109.958 11.3128 110.802 11.3128C111.606 11.3128 112.236 11.8259 112.236 12.4829V12.5439H114.824V12.4829C114.824 10.551 113.208 9.25268 110.802 9.25268C108.419 9.25268 106.688 10.5494 106.688 12.3374C106.688 13.728 107.633 14.776 109.283 15.2109L110.852 15.6286C112.044 15.9508 112.486 16.3075 112.486 16.9472C112.486 17.6215 111.846 18.0751 110.893 18.0751C109.9 18.0751 109.231 17.4618 109.231 16.5515V16.4905H106.485V16.5515C106.485 18.7352 108.288 20.2619 110.871 20.2619C113.359 20.2619 115.166 18.7712 115.166 16.7189C115.166 15.7115 114.704 14.3944 112.502 13.8219ZM73.6647 9.43261H76.4723V20.0789H73.6647V19.1778C72.7502 19.8568 71.6095 20.2588 70.3518 20.2588C67.2346 20.2588 64.7077 17.7951 64.7077 14.7557C64.7077 11.7163 67.2346 9.25268 70.3518 9.25268C71.6095 9.25268 72.7503 9.65469 73.6647 10.3336V9.43261ZM73.6647 14.7557C73.6647 13.1039 72.2914 11.7665 70.5988 11.7665C68.9062 11.7665 67.533 13.1055 67.533 14.7557C67.533 16.406 68.9062 17.745 70.5988 17.745C72.293 17.745 73.6647 16.4076 73.6647 14.7557ZM86.6101 5.64402H89.4177V20.0804H86.6101V19.1794C85.6956 19.8583 84.555 20.2603 83.2972 20.2603C80.1799 20.2603 77.6531 17.7966 77.6531 14.7573C77.6531 11.7179 80.1799 9.25425 83.2972 9.25425C84.555 9.25425 85.6956 9.65626 86.6101 10.3351V5.64402ZM86.6101 14.7557C86.6101 13.1055 85.2368 11.7665 83.5442 11.7665C81.8517 11.7665 80.4783 13.1055 80.4783 14.7557C80.4783 16.406 81.85 17.745 83.5442 17.745C85.2368 17.745 86.6101 16.4076 86.6101 14.7557ZM102.453 20.0789H105.26V9.43261H102.453V20.0789ZM103.857 5.22168C102.894 5.22168 102.156 5.96314 102.156 6.90169C102.156 7.81834 102.894 8.5598 103.857 8.5598C104.819 8.5598 105.557 7.81834 105.557 6.90169C105.557 5.96311 104.819 5.22168 103.857 5.22168ZM127.301 14.7557C127.301 17.7951 124.774 20.2588 121.657 20.2588C118.54 20.2588 116.013 17.7951 116.013 14.7557C116.013 11.7164 118.54 9.25272 121.657 9.25272C124.774 9.25272 127.301 11.7164 127.301 14.7557ZM124.723 14.7557C124.723 13.1055 123.349 11.7665 121.657 11.7665C119.964 11.7665 118.591 13.1055 118.591 14.7557C118.591 16.406 119.963 17.745 121.657 17.745C123.349 17.745 124.723 16.4076 124.723 14.7557ZM41.3678 5.64402H30.5979V8.08582H34.5847V20.0789H37.3827V8.08582H41.3695V5.64402H41.3678ZM95.8334 17.1631L93.3355 9.43265H90.3867L94.1328 20.0789H97.5115L101.28 9.43265H98.3313L95.8334 17.1631ZM131.414 11.2221V9.43261H128.6V20.0789H131.414V13.6952C131.414 12.5392 132.175 11.9714 133.36 11.9714H134.901V9.43265H133.585C132.555 9.43261 131.661 9.95663 131.414 11.2221Z" fill="#110F0F"/>
<path d="M14.359 28C22.2891 28 28.7178 21.732 28.7178 14C28.7178 6.26801 22.2891 0 14.359 0C6.42883 0 0.000183105 6.26801 0.000183105 14C0.000183105 21.732 6.42883 28 14.359 28Z" fill="#34E0A1"/>
<path d="M23.2276 11.2686L24.9602 9.43059H21.1179C19.1943 8.14945 16.8712 7.40332 14.3588 7.40332C11.8496 7.40332 9.53297 8.15106 7.61256 9.43059H3.76056L5.49324 11.2686C4.43119 12.2134 3.76539 13.5743 3.76539 15.0854C3.76539 17.937 6.13663 20.2489 9.06133 20.2489C10.4507 20.2489 11.7165 19.7265 12.6614 18.8724L14.3588 20.6744L16.0562 18.874C17.0012 19.7281 18.2654 20.2489 19.6547 20.2489C22.5794 20.2489 24.9538 17.937 24.9538 15.0854C24.9554 13.5727 24.2897 12.2119 23.2276 11.2686ZM9.0629 18.5799C7.08312 18.5799 5.47883 17.0157 5.47883 15.0854C5.47883 13.1551 7.08316 11.5908 9.0629 11.5908C11.0426 11.5908 12.647 13.1551 12.647 15.0854C12.647 17.0157 11.0426 18.5799 9.0629 18.5799ZM14.3604 14.9837C14.3604 12.6842 12.6454 10.7102 10.3817 9.86702C11.6058 9.368 12.9486 9.09114 14.3588 9.09114C15.769 9.09114 17.1134 9.368 18.3375 9.86702C16.0755 10.7117 14.3604 12.6843 14.3604 14.9837ZM19.6563 18.5799C17.6766 18.5799 16.0722 17.0157 16.0722 15.0854C16.0722 13.1551 17.6766 11.5908 19.6563 11.5908C21.6361 11.5908 23.2404 13.1551 23.2404 15.0854C23.2404 17.0157 21.6361 18.5799 19.6563 18.5799ZM19.6563 13.252C18.6183 13.252 17.7776 14.0717 17.7776 15.0838C17.7776 16.0958 18.6183 16.9155 19.6563 16.9155C20.6943 16.9155 21.535 16.0958 21.535 15.0838C21.535 14.0733 20.6943 13.252 19.6563 13.252ZM10.9416 15.0854C10.9416 16.0974 10.1009 16.9171 9.0629 16.9171C8.02491 16.9171 7.18423 16.0974 7.18423 15.0854C7.18423 14.0733 8.02491 13.2536 9.0629 13.2536C10.1009 13.252 10.9416 14.0733 10.9416 15.0854Z" fill="#110F0F"/>
</g>
<defs>
<clipPath id="clip0_1151_907">
<rect width="135" height="28" fill="white"/>
</clipPath>
</defs>
</svg>
