<svg width="96" height="18" viewBox="0 0 96 18" fill="none" xmlns="http://www.w3.org/2000/svg">
<g clip-path="url(#clip0_1151_885)">
<path d="M0 0.00488281H18V17.9953H0V0.00488281ZM19.5 0.00488281H37.5V17.9953H19.5V0.00488281ZM39 0.00488281H57V17.9953H39V0.00488281ZM58.5 0.00488281H76.5V17.9953H58.5V0.00488281ZM78 0.00488281H96V17.9953H78V0.00488281Z" fill="#00B67A"/>
<path d="M9.00129 12.1299L11.7388 11.4365L12.8825 14.9597L9.00129 12.1299ZM15.3013 7.5761H10.4825L9.00129 3.04102L7.52004 7.5761H2.70129L6.60129 10.3871L5.12004 14.9222L9.02004 12.1112L11.42 10.3871L15.3013 7.5761ZM28.5013 12.1299L31.2388 11.4365L32.3825 14.9597L28.5013 12.1299ZM34.8013 7.5761H29.9825L28.5013 3.04102L27.02 7.5761H22.2013L26.1013 10.3871L24.62 14.9222L28.52 12.1112L30.92 10.3871L34.8013 7.5761ZM48.0013 12.1299L50.7388 11.4365L51.8825 14.9597L48.0013 12.1299ZM54.3013 7.5761H49.4825L48.0013 3.04102L46.52 7.5761H41.7013L45.6013 10.3871L44.12 14.9222L48.02 12.1112L50.42 10.3871L54.3013 7.5761ZM67.5013 12.1299L70.2388 11.4365L71.3825 14.9597L67.5013 12.1299ZM73.8013 7.5761H68.9825L67.5013 3.04102L66.02 7.5761H61.2013L65.1013 10.3871L63.62 14.9222L67.52 12.1112L69.92 10.3871L73.8013 7.5761ZM87.0013 12.1299L89.7388 11.4365L90.8825 14.9597L87.0013 12.1299ZM93.3013 7.5761H88.4825L87.0013 3.04102L85.52 7.5761H80.7013L84.6013 10.3871L83.12 14.9222L87.02 12.1112L89.42 10.3871L93.3013 7.5761Z" fill="white"/>
</g>
<defs>
<clipPath id="clip0_1151_885">
<rect width="96" height="18" fill="white"/>
</clipPath>
</defs>
</svg>
