<svg width="90" height="22" viewBox="0 0 90 22" fill="none" xmlns="http://www.w3.org/2000/svg">
<path d="M23.6554 7.79785H32.7604V9.48555H29.1754V18.9994H27.2104V9.48555H23.6404L23.6554 7.79785ZM32.3704 10.8895H34.0504V12.4577H34.0804C34.1404 12.2337 34.2454 12.0246 34.3954 11.8155C34.5454 11.6064 34.7254 11.4122 34.9504 11.2479C35.1604 11.0687 35.4004 10.9343 35.6704 10.8297C35.9254 10.7252 36.1954 10.6655 36.4654 10.6655C36.6754 10.6655 36.8254 10.6804 36.9004 10.6804C36.9754 10.6953 37.0654 10.7103 37.1404 10.7103V12.4278C37.0204 12.398 36.8854 12.383 36.7504 12.3681C36.6154 12.3532 36.4954 12.3382 36.3604 12.3382C36.0604 12.3382 35.7754 12.398 35.5054 12.5174C35.2354 12.6369 35.0104 12.8162 34.8004 13.0402C34.6054 13.2792 34.4404 13.5629 34.3204 13.9064C34.2004 14.25 34.1404 14.6532 34.1404 15.1013V18.9546H32.3404L32.3704 10.8895ZM45.3903 18.9994H43.6203V17.8643H43.5903C43.3653 18.2825 43.0353 18.5962 42.6003 18.8501C42.1653 19.104 41.7153 19.2235 41.2653 19.2235C40.2003 19.2235 39.4203 18.9696 38.9403 18.4319C38.4603 17.9091 38.2203 17.1026 38.2203 16.0422V10.8895H40.0203V15.863C40.0203 16.5799 40.1553 17.0877 40.4403 17.3715C40.7103 17.6702 41.1003 17.8195 41.5953 17.8195C41.9703 17.8195 42.2853 17.7598 42.5403 17.6403C42.7953 17.5208 43.0053 17.3715 43.1553 17.1773C43.3203 16.9831 43.4253 16.7442 43.5003 16.4753C43.5753 16.2065 43.6053 15.9078 43.6053 15.5942V10.8895H45.4053V18.9994H45.3903ZM48.4503 16.4007C48.5103 16.9234 48.7053 17.2819 49.0503 17.5059C49.3953 17.715 49.8153 17.8195 50.2953 17.8195C50.4603 17.8195 50.6553 17.8046 50.8653 17.7747C51.0753 17.7449 51.2853 17.7 51.4653 17.6254C51.6603 17.5507 51.8103 17.4461 51.9303 17.2968C52.0503 17.1474 52.1102 16.9682 52.0952 16.7442C52.0802 16.5202 52.0053 16.326 51.8403 16.1766C51.6753 16.0273 51.4803 15.9227 51.2403 15.8182C51.0003 15.7286 50.7153 15.6539 50.4003 15.5942C50.0853 15.5344 49.7703 15.4597 49.4403 15.3851C49.1103 15.3104 48.7803 15.2208 48.4653 15.1162C48.1503 15.0117 47.8803 14.8772 47.6253 14.6831C47.3853 14.5039 47.1753 14.2798 47.0403 13.9961C46.8903 13.7123 46.8153 13.3837 46.8153 12.9655C46.8153 12.5174 46.9203 12.159 47.1453 11.8603C47.3553 11.5616 47.6403 11.3226 47.9703 11.1434C48.3003 10.9642 48.6753 10.8297 49.0803 10.7551C49.4853 10.6804 49.8753 10.6505 50.2353 10.6505C50.6553 10.6505 51.0603 10.6953 51.4353 10.7849C51.8103 10.8746 52.1702 11.009 52.4702 11.2181C52.7852 11.4122 53.0402 11.6811 53.2352 11.9947C53.4452 12.3084 53.5652 12.6967 53.6252 13.1447H51.7503C51.6603 12.7116 51.4653 12.4278 51.1653 12.2785C50.8503 12.1291 50.5053 12.0545 50.1003 12.0545C49.9803 12.0545 49.8153 12.0694 49.6503 12.0843C49.4703 12.1142 49.3203 12.1441 49.1553 12.2038C49.0053 12.2635 48.8703 12.3532 48.7653 12.4577C48.6603 12.5623 48.6003 12.7116 48.6003 12.8908C48.6003 13.1149 48.6753 13.2792 48.8253 13.4136C48.9753 13.548 49.1703 13.6525 49.4253 13.7571C49.6653 13.8467 49.9503 13.9214 50.2653 13.9811C50.5803 14.0409 50.9103 14.1155 51.2403 14.1902C51.5703 14.2649 51.8853 14.3545 52.2002 14.4591C52.5152 14.5636 52.8002 14.698 53.0402 14.8922C53.2802 15.0714 53.4902 15.2954 53.6402 15.5643C53.7902 15.8331 53.8652 16.1766 53.8652 16.565C53.8652 17.0429 53.7602 17.4461 53.5352 17.7897C53.3102 18.1182 53.0252 18.402 52.6802 18.6111C52.3353 18.8202 51.9303 18.9696 51.5103 19.0741C51.0753 19.1637 50.6553 19.2235 50.2353 19.2235C49.7253 19.2235 49.2453 19.1637 48.8103 19.0442C48.3753 18.9248 47.9853 18.7455 47.6703 18.5215C47.3553 18.2825 47.1003 17.9988 46.9203 17.6403C46.7403 17.2968 46.6353 16.8786 46.6203 16.3857H48.4353V16.4007H48.4503ZM54.3752 10.8895H55.7402V8.44007H57.5402V10.8745H59.1602V12.2038H57.5402V16.5351C57.5402 16.7292 57.5552 16.8786 57.5702 17.028C57.5852 17.1624 57.6302 17.2819 57.6752 17.3715C57.7352 17.4611 57.8252 17.5358 57.9302 17.5806C58.0502 17.6254 58.2002 17.6552 58.4102 17.6552C58.5302 17.6552 58.6652 17.6552 58.7852 17.6403C58.9052 17.6254 59.0402 17.6104 59.1602 17.5806V18.9696C58.9652 18.9994 58.7702 19.0144 58.5752 19.0293C58.3802 19.0592 58.2002 19.0592 57.9902 19.0592C57.5102 19.0592 57.1352 19.0144 56.8502 18.9248C56.5652 18.8351 56.3402 18.7007 56.1752 18.5364C56.0102 18.3572 55.9052 18.1481 55.8452 17.8942C55.7852 17.6403 55.7552 17.3267 55.7402 16.9981V12.2187H54.3752V10.8596V10.8895ZM60.4202 10.8895H62.1152V11.9947H62.1452C62.4002 11.5168 62.7452 11.1882 63.1952 10.9791C63.6452 10.77 64.1252 10.6655 64.6652 10.6655C65.3102 10.6655 65.8652 10.77 66.3452 11.009C66.8251 11.233 67.2151 11.5317 67.5301 11.935C67.8451 12.3233 68.0851 12.7863 68.2351 13.309C68.3851 13.8318 68.4751 14.3993 68.4751 14.9818C68.4751 15.5344 68.4001 16.0571 68.2651 16.565C68.1151 17.0728 67.9051 17.5358 67.6201 17.9241C67.3351 18.3124 66.9752 18.626 66.5252 18.865C66.0752 19.104 65.5652 19.2235 64.9652 19.2235C64.7102 19.2235 64.4402 19.1936 64.1852 19.1488C63.9302 19.104 63.6752 19.0293 63.4352 18.9248C63.1952 18.8202 62.9702 18.6858 62.7752 18.5215C62.5652 18.3572 62.4002 18.163 62.2652 17.954H62.2352V22.0015H60.4352V10.8895H60.4202ZM66.7052 14.9519C66.7052 14.5935 66.6602 14.235 66.5552 13.8915C66.4652 13.548 66.3152 13.2493 66.1202 12.9804C65.9252 12.7116 65.6852 12.5025 65.4152 12.3382C65.1302 12.1739 64.8002 12.0993 64.4402 12.0993C63.6902 12.0993 63.1202 12.3532 62.7302 12.8759C62.3552 13.3986 62.1602 14.1006 62.1602 14.9669C62.1602 15.3851 62.2052 15.7584 62.3102 16.102C62.4152 16.4455 62.5502 16.7442 62.7602 16.9981C62.9552 17.252 63.1952 17.4461 63.4802 17.5955C63.7652 17.7449 64.0802 17.8195 64.4552 17.8195C64.8752 17.8195 65.2052 17.7299 65.4902 17.5656C65.7752 17.4013 66.0002 17.1773 66.1952 16.9234C66.3752 16.6546 66.5102 16.3559 66.5852 16.0123C66.6602 15.6539 66.7052 15.3104 66.7052 14.9519ZM69.8701 7.79785H71.6701V9.48555H69.8701V7.79785ZM69.8701 10.8895H71.6701V18.9994H69.8701V10.8895ZM73.2751 7.79785H75.0751V18.9994H73.2751V7.79785ZM80.5651 19.2235C79.9201 19.2235 79.3351 19.1189 78.8251 18.8949C78.3151 18.6709 77.8951 18.3871 77.5351 18.0137C77.1901 17.6403 76.9201 17.1773 76.7401 16.6546C76.5601 16.1318 76.4551 15.5493 76.4551 14.937C76.4551 14.3246 76.5451 13.7571 76.7401 13.2344C76.9201 12.7116 77.1901 12.2635 77.5351 11.8752C77.8801 11.5018 78.3151 11.2031 78.8251 10.994C79.3351 10.7849 79.9201 10.6655 80.5651 10.6655C81.2101 10.6655 81.7951 10.77 82.305 10.994C82.815 11.2031 83.235 11.5018 83.595 11.8752C83.94 12.2486 84.21 12.7116 84.39 13.2344C84.57 13.7571 84.675 14.3246 84.675 14.937C84.675 15.5643 84.585 16.1318 84.39 16.6546C84.195 17.1773 83.94 17.6254 83.595 18.0137C83.25 18.3871 82.815 18.6858 82.305 18.8949C81.7951 19.104 81.2251 19.2235 80.5651 19.2235ZM80.5651 17.8046C80.9551 17.8046 81.3151 17.715 81.6001 17.5507C81.9001 17.3864 82.125 17.1624 82.32 16.8935C82.515 16.6247 82.65 16.3111 82.74 15.9825C82.83 15.639 82.875 15.2954 82.875 14.937C82.875 14.5935 82.83 14.25 82.74 13.9064C82.65 13.5629 82.515 13.2642 82.32 12.9954C82.125 12.7265 81.8851 12.5175 81.6001 12.3532C81.3001 12.1889 80.9551 12.0993 80.5651 12.0993C80.1751 12.0993 79.8151 12.1889 79.5301 12.3532C79.2301 12.5175 79.0051 12.7415 78.8101 12.9954C78.6151 13.2642 78.4801 13.5629 78.3901 13.9064C78.3001 14.25 78.2551 14.5935 78.2551 14.937C78.2551 15.2954 78.3001 15.639 78.3901 15.9825C78.4801 16.326 78.6151 16.6247 78.8101 16.8935C79.0051 17.1624 79.2451 17.3864 79.5301 17.5507C79.8301 17.7299 80.1751 17.8046 80.5651 17.8046ZM85.215 10.8895H86.58V8.44007H88.38V10.8745H90V12.2038H88.38V16.5351C88.38 16.7292 88.395 16.8786 88.41 17.028C88.425 17.1624 88.47 17.2819 88.515 17.3715C88.575 17.4611 88.665 17.5358 88.77 17.5806C88.89 17.6254 89.04 17.6552 89.25 17.6552C89.37 17.6552 89.505 17.6552 89.625 17.6403C89.745 17.6254 89.88 17.6104 90 17.5806V18.9696C89.805 18.9994 89.61 19.0144 89.415 19.0293C89.22 19.0592 89.04 19.0592 88.83 19.0592C88.35 19.0592 87.975 19.0144 87.69 18.9248C87.405 18.8351 87.18 18.7007 87.015 18.5364C86.85 18.3572 86.745 18.1481 86.685 17.8942C86.625 17.6403 86.595 17.3267 86.58 16.9981V12.2187H85.215V10.8596V10.8895Z" fill="#110F0F"/>
<path d="M21.5549 7.79435H13.32L10.785 -0.00195312L8.23501 7.79435L6.10352e-05 7.77941L6.66002 12.6036L4.11003 20.3999L10.77 15.5757L17.4299 20.3999L14.895 12.6036L21.5549 7.79435Z" fill="#00B67A"/>
<path d="M15.4642 14.3688L14.8942 12.6064L10.7842 15.5786L15.4642 14.3688Z" fill="#005128"/>
</svg>
