<svg width="52" height="28" viewBox="0 0 52 28" fill="none" xmlns="http://www.w3.org/2000/svg">
<rect width="52" height="28" rx="8" fill="white"/>
<mask id="mask0_1151_300" style="mask-type:alpha" maskUnits="userSpaceOnUse" x="8" y="4" width="36" height="20">
<rect x="8" y="4" width="36" height="20" fill="white"/>
</mask>
<g mask="url(#mask0_1151_300)">
<path fill-rule="evenodd" clip-rule="evenodd" d="M10.6073 23.9996C17.9561 20.829 28.2675 17.9551 41.9241 20.8327L42.0673 17.3455C27.6589 15.7618 17.3203 20.3817 10.6073 23.6558V23.9996Z" fill="#E7A83A"/>
<path fill-rule="evenodd" clip-rule="evenodd" d="M18.2922 14.8046L21.4772 4.23199H24.3192L21.1339 14.8046H18.2922ZM17.0218 4.23488L14.4654 8.7166C13.8146 9.89039 13.4342 10.4833 13.2513 11.225H13.2124C13.2577 10.2847 13.1274 9.13028 13.1151 8.4778L12.8328 4.23488H8.04904L7.99988 4.51925C9.22891 4.51925 9.95773 5.14079 10.1583 6.41212L11.0907 14.8046H14.0348L19.9879 4.23488H17.0218ZM39.1221 14.8046L39.0436 13.2321L35.495 13.2293L34.7692 14.8043H31.6839L37.2783 4.252H41.0654L42.0127 14.8043L39.1221 14.8046ZM38.7962 8.56813C38.7646 7.78677 38.7382 6.72619 38.791 6.08445H38.749C38.5762 6.60927 37.8332 8.18539 37.5065 8.96056L36.4491 11.278H38.9408L38.7962 8.56813ZM27.3027 15.105C25.2963 15.105 23.9648 14.4643 23.0141 13.8931L24.3679 11.8117C25.2213 12.2922 25.8913 12.8467 27.4329 12.8467C27.9286 12.8467 28.4063 12.717 28.6775 12.2442C29.0729 11.5564 28.5864 11.1865 27.4762 10.5538L26.928 10.195C25.2823 9.06284 24.5705 7.98763 25.3452 6.11064C25.8409 4.91004 27.1484 4 29.3054 4C30.7929 4 32.1874 4.64773 33 5.28061L31.4437 7.11821C30.6507 6.47255 29.9934 6.1459 29.2412 6.1459C28.6415 6.1459 28.1859 6.37872 28.0286 6.69279C27.7326 7.28319 28.1243 7.68572 28.9891 8.22622L29.6409 8.6436C31.6389 9.91225 32.1149 11.2426 31.6141 12.4863C30.753 14.627 29.0667 15.105 27.3027 15.105ZM42.7901 5.8673H42.6029V4.72114H43.0349C43.3098 4.72114 43.4501 4.81806 43.4501 5.05068C43.4501 5.25813 43.3233 5.34392 43.1529 5.3633L43.4718 5.8673H43.2602L42.9661 5.37733H42.7901V5.8673ZM42.9988 5.21668C43.1394 5.21668 43.2629 5.20287 43.2629 5.03665C43.2629 4.89828 43.1281 4.88158 43.0156 4.88158H42.7899V5.21668H42.9988ZM42.9933 6.31025C42.4023 6.31025 41.9816 5.86462 41.9816 5.27484C41.9816 4.65185 42.4488 4.23942 42.9933 4.23942C43.5326 4.23942 43.9999 4.65185 43.9999 5.27484C43.9999 5.89761 43.5326 6.31025 42.9933 6.31025ZM42.9933 4.41945C42.548 4.41945 42.2016 4.77084 42.2016 5.27484C42.2016 5.74542 42.5041 6.13023 42.9933 6.13023C43.4333 6.13023 43.7799 5.78151 43.7799 5.27484C43.7799 4.77084 43.4333 4.41945 42.9933 4.41945Z" fill="#1D5B99"/>
</g>
</svg>
