<svg width="22" height="22" viewBox="0 0 22 22" fill="none" xmlns="http://www.w3.org/2000/svg">
<g clip-path="url(#clip0_1151_443)">
<path d="M11.0027 0H10.9973C4.93213 0 0 4.9335 0 11C0 13.4062 0.7755 15.6365 2.09413 17.4474L0.72325 21.5339L4.95138 20.1823C6.69075 21.3345 8.76562 22 11.0027 22C17.0679 22 22 17.0651 22 11C22 4.93488 17.0679 0 11.0027 0Z" fill="#4CAF50"/>
<path d="M17.4034 15.5335C17.138 16.2829 16.0848 16.9044 15.2446 17.0859C14.6699 17.2083 13.9191 17.3059 11.3919 16.2581C8.15926 14.9189 6.07751 11.634 5.91526 11.4209C5.75988 11.2077 4.60901 9.6815 4.60901 8.103C4.60901 6.5245 5.41063 5.75588 5.73376 5.42588C5.99913 5.155 6.43776 5.03125 6.85851 5.03125C6.99463 5.03125 7.11701 5.03813 7.22701 5.04363C7.55013 5.05738 7.71238 5.07663 7.92551 5.58675C8.19088 6.22613 8.83713 7.80463 8.91413 7.96688C8.99251 8.12913 9.07088 8.34913 8.96088 8.56225C8.85776 8.78225 8.76701 8.87987 8.60476 9.06687C8.44251 9.25387 8.28851 9.39687 8.12626 9.59763C7.97776 9.77225 7.81001 9.95925 7.99701 10.2824C8.18401 10.5986 8.83026 11.6532 9.78176 12.5002C11.0096 13.5934 12.0051 13.9426 12.3613 14.0911C12.6266 14.2011 12.9429 14.175 13.1368 13.9688C13.3829 13.7034 13.6868 13.2634 13.9961 12.8303C14.2161 12.5195 14.4939 12.481 14.7854 12.591C15.0824 12.6941 16.654 13.471 16.9771 13.6319C17.3003 13.7941 17.5134 13.8711 17.5918 14.0073C17.6688 14.1434 17.6688 14.7828 17.4034 15.5335Z" fill="#FAFAFA"/>
</g>
<defs>
<clipPath id="clip0_1151_443">
<rect width="22" height="22" fill="white"/>
</clipPath>
</defs>
</svg>
