<svg width="35" height="35" viewBox="0 0 35 35" fill="none" xmlns="http://www.w3.org/2000/svg">
<mask id="mask0_1151_24752" style="mask-type:alpha" maskUnits="userSpaceOnUse" x="0" y="0" width="35" height="35">
<rect width="35" height="35" fill="#D9D9D9"/>
</mask>
<g mask="url(#mask0_1151_24752)">
<path d="M32.3232 17.0121C32.3232 24.9066 26.0188 31.3123 18.249 31.3123C10.4793 31.3123 4.1748 24.9066 4.1748 17.0121C4.1748 9.11763 10.4793 2.71191 18.249 2.71191C26.0267 2.71191 32.3232 9.10958 32.3232 17.0121Z" fill="#29ABE2"/>
<path d="M8.17427 12.4004L8.26935 12.3521C8.30897 12.3361 8.38029 12.2717 8.37236 12.1671C8.37236 12.1107 8.37236 12.0142 8.23766 12.0142C8.19804 12.0142 8.16634 12.0303 8.1505 12.0624C8.10295 12.1188 8.12672 12.2073 8.1505 12.3039L8.17427 12.4004Z" fill="#C6DD22"/>
<path d="M21.6718 25.2363C21.6718 25.2042 21.6718 25.1317 21.6718 25.0673C21.6718 25.003 21.6798 24.9386 21.6798 24.8903C21.6718 24.7454 21.5688 24.7052 21.5054 24.673C21.4975 24.673 21.4975 24.673 21.4975 24.665C21.4975 24.6408 21.4975 24.6086 21.4975 24.5845C21.5054 24.5282 21.5054 24.4879 21.4896 24.4557C21.4737 24.4236 21.442 24.3994 21.4024 24.3994C21.3311 24.3994 21.2994 24.4557 21.2122 24.5845L21.1806 24.6328C21.1172 24.7294 21.1251 24.7937 21.1251 24.834C21.1251 24.842 21.1251 24.8501 21.1251 24.8501C21.1172 24.8581 21.1092 24.8662 21.0855 24.8823C21.0538 24.8984 20.9983 24.9386 20.9745 25.0191C20.9745 25.0271 20.9745 25.0432 20.9666 25.0512C20.9587 25.0512 20.9428 25.0593 20.9349 25.0593C20.8557 25.0754 20.8161 25.0995 20.7923 25.1237C20.7923 25.1237 20.7844 25.1237 20.7844 25.1156C20.7606 25.0995 20.7368 25.0915 20.713 25.0915C20.6417 25.0915 20.618 25.1478 20.6021 25.18C20.5942 25.2042 20.5783 25.2283 20.5546 25.2524C20.5229 25.2846 20.4912 25.2927 20.4516 25.3088C20.4199 25.3168 20.3802 25.3249 20.3486 25.349L20.3169 25.3731C20.2772 25.3973 20.2614 25.4053 20.2218 25.4134C20.095 25.4295 20.0633 25.5743 20.0316 25.7433L20.0237 25.7836C20.0078 25.8318 19.9603 25.9687 20.0078 26.0572C20.0395 26.1216 20.0474 26.1859 20.0395 26.194C19.992 26.2664 19.9286 26.4193 19.9048 26.4998C19.9048 26.4998 19.8097 26.8458 19.8414 27.0148C19.8652 27.1597 19.9127 27.2482 20.0158 27.3367C20.1188 27.4333 20.1822 27.4494 20.3089 27.4574C20.3248 27.4574 20.3406 27.4574 20.3486 27.4574C20.4516 27.4574 20.4833 27.393 20.4991 27.3689C20.507 27.3608 20.507 27.3528 20.515 27.3448C20.5308 27.3287 20.5308 27.3287 20.5308 27.3287H20.5387C20.5546 27.3287 20.5783 27.3206 20.618 27.3045C20.6972 27.2723 20.7447 27.2321 20.7923 27.1919L20.824 27.1677C20.9032 27.0953 20.927 27.0229 20.9508 26.9343C20.9666 26.878 20.9904 26.8297 21.0062 26.7814C21.0142 26.7573 21.0221 26.7412 21.03 26.7251C21.0379 26.701 21.0617 26.6688 21.0775 26.6366C21.0934 26.6124 21.1092 26.5883 21.1172 26.5642C21.1251 26.5561 21.1251 26.5481 21.133 26.54C21.1489 26.5239 21.1885 26.4837 21.1806 26.4113C21.1806 26.3871 21.1885 26.3549 21.2122 26.3227C21.2439 26.2745 21.2756 26.2342 21.2519 26.1537C21.2519 26.1296 21.2756 26.0733 21.3153 25.9687C21.339 25.9123 21.347 25.8721 21.347 25.8318C21.45 25.8318 21.4817 25.7031 21.5054 25.6387C21.5213 25.5743 21.5054 25.5341 21.4896 25.51C21.4817 25.5019 21.4737 25.4939 21.4658 25.4858C21.4737 25.4778 21.4896 25.4617 21.4975 25.4536C21.5134 25.4617 21.5292 25.4697 21.553 25.4778H21.5688C21.6005 25.4778 21.6322 25.4617 21.656 25.4375C21.6956 25.3892 21.6877 25.3329 21.6798 25.2766C21.6798 25.2685 21.6718 25.2524 21.6718 25.2363Z" fill="#C6DD22"/>
<path d="M17.7726 4.51426L17.8043 4.5384L17.844 4.53035C17.8598 4.52231 17.9232 4.50621 17.9628 4.46597C17.9787 4.44988 17.9866 4.42574 17.9945 4.40964C17.9866 4.45793 18.0024 4.49816 18.0341 4.53035L18.0737 4.57059L18.1292 4.54645C18.1371 4.5384 18.2401 4.49816 18.2877 4.43379C18.3273 4.39355 18.3273 4.34526 18.3194 4.32112L18.3352 4.30503L18.3115 4.24065C18.2877 4.17627 18.2164 4.17627 18.1926 4.17627C18.153 4.17627 18.042 4.18432 18.0024 4.2326L17.9707 4.27284L17.9866 4.34526H17.9945C17.9866 4.35331 17.9866 4.36941 17.9866 4.37745C17.9866 4.36136 17.9866 4.35331 17.9866 4.33722C17.9707 4.28089 17.9153 4.26479 17.8677 4.25674C17.8519 4.25674 17.836 4.2487 17.8202 4.2487C17.7568 4.22455 17.6934 4.25674 17.6776 4.31307C17.6617 4.40964 17.7172 4.48207 17.7726 4.51426Z" fill="#C6DD22"/>
<path d="M12.9423 5.60028C12.9344 5.60028 12.9186 5.60028 12.9106 5.60028C12.8235 5.61637 12.6888 5.6888 12.6174 5.77732C12.6016 5.80146 12.562 5.83365 12.5224 5.86584C12.4273 5.95436 12.3797 5.9946 12.3956 6.05898L12.4114 6.11531L12.459 6.13141C12.4669 6.13141 12.4748 6.13945 12.4827 6.13945C12.5224 6.15555 12.5778 6.18774 12.6571 6.18774C12.6888 6.18774 12.7046 6.19578 12.7205 6.19578C12.7442 6.20383 12.768 6.20383 12.8076 6.20383C12.8789 6.20383 12.9186 6.17164 12.9423 6.1475C12.9502 6.13945 12.9582 6.13945 12.9582 6.13141H12.9661C12.974 6.13141 12.9899 6.13141 13.0057 6.13141C13.0453 6.13141 13.0929 6.12336 13.1404 6.09922L13.1563 6.09117C13.1721 6.08312 13.283 6.01874 13.3385 5.95436C13.3861 5.89803 13.4178 5.82561 13.4336 5.76123C13.4415 5.74513 13.4415 5.72904 13.4494 5.71294C13.4653 5.68075 13.4574 5.64052 13.4415 5.60833C13.394 5.54395 13.2989 5.54395 13.2355 5.55199H13.2117V5.64052L13.2038 5.55199C13.1642 5.55199 13.1404 5.56809 13.1087 5.58418C13.085 5.60028 13.0533 5.61637 13.0295 5.61637L13.0374 5.7049L13.0216 5.61637H13.0295C13.0216 5.62442 12.9899 5.60028 12.9423 5.60028Z" fill="#C6DD22"/>
<path d="M16.5463 4.32932C16.5146 4.34541 16.4592 4.3776 16.475 4.46612C16.475 4.48222 16.475 4.48222 16.4671 4.49027C16.4275 4.53855 16.4195 4.58683 16.4354 4.62707C16.4512 4.65926 16.4909 4.6834 16.5305 4.6834C16.5305 4.6834 16.5384 4.6834 16.5463 4.6834C16.5225 4.73169 16.5305 4.77192 16.5463 4.79607C16.5542 4.81216 16.5859 4.8524 16.6573 4.8524C16.7127 4.8524 16.7761 4.82826 16.8237 4.80411L16.8553 4.78802L16.8633 4.77192L16.9187 4.76388C16.9187 4.76388 16.9663 4.75583 17.0138 4.75583C17.0217 4.75583 17.0297 4.75583 17.0376 4.75583C17.101 4.76388 17.1565 4.74778 17.2278 4.69145C17.2832 4.65121 17.2991 4.60293 17.2832 4.56269C17.2753 4.5305 17.2436 4.50636 17.2198 4.49831C17.2436 4.47417 17.2515 4.44198 17.2357 4.40979C17.2119 4.34541 17.1644 4.32127 16.9108 4.32127C16.792 4.32127 16.7682 4.32932 16.7523 4.32932C16.7444 4.32932 16.7286 4.33737 16.7127 4.35346C16.6889 4.31322 16.6493 4.30518 16.6256 4.30518C16.6018 4.30518 16.578 4.31322 16.5622 4.32127C16.5622 4.32932 16.5542 4.32932 16.5463 4.32932Z" fill="#C6DD22"/>
<path d="M11.1995 5.95481C11.2153 5.95481 11.2391 5.94677 11.2549 5.93872L11.3579 5.88239C11.4608 5.82606 11.6113 5.74558 11.6509 5.72144C11.6668 5.71339 11.7064 5.6973 11.746 5.6812C11.8331 5.64901 11.8885 5.62487 11.9281 5.59268C11.9519 5.57659 11.9757 5.55245 11.9836 5.53635C12.0073 5.51221 12.0153 5.49611 12.039 5.49611C12.0628 5.48807 12.0945 5.48807 12.1341 5.48002C12.1974 5.47197 12.2529 5.46392 12.3083 5.44783C12.3479 5.43173 12.4113 5.40759 12.4588 5.39955C12.4984 5.41564 12.5459 5.41564 12.6014 5.3915C12.6251 5.3754 12.6726 5.35931 12.7202 5.33517C12.7677 5.31102 12.8152 5.29493 12.8469 5.27883C12.8706 5.27079 12.9815 5.24665 13.037 5.2386C13.0924 5.23055 13.1241 5.2225 13.1479 5.21446C13.1637 5.20641 13.1795 5.20641 13.2112 5.20641C13.2667 5.26274 13.3538 5.27884 13.4092 5.25469C13.433 5.24665 13.5043 5.2225 13.5518 5.20641L13.5993 5.24665L13.6547 5.2225C13.8211 5.15008 13.8211 5.07765 13.8211 5.05351C13.8211 5.04546 13.8211 5.02937 13.8132 5.02132C13.8211 5.02132 13.8211 5.01327 13.829 5.01327C13.8765 5.06156 13.9557 5.06156 14.0428 5.01327C14.0745 4.99718 14.122 4.95694 14.1854 4.92475C14.2408 4.89256 14.32 4.83623 14.3755 4.80404C14.4072 4.83623 14.4626 4.83623 14.5101 4.81209C14.5339 4.79599 14.5814 4.77185 14.6289 4.74771C14.6685 4.72357 14.7002 4.69942 14.724 4.69138C14.7319 4.69138 14.7557 4.68333 14.7715 4.68333C14.8111 4.67528 14.8982 4.65919 14.9141 4.58676C14.9299 4.57067 14.9616 4.56262 14.9695 4.55457H14.9774C15.0487 4.55457 15.2863 4.43386 15.2942 4.43386C15.3022 4.43386 15.3101 4.42581 15.3259 4.41777C15.3893 4.38558 15.4526 4.36143 15.4922 4.32924C15.5239 4.29705 15.5952 4.26487 15.6823 4.24072C15.714 4.23268 15.7378 4.22463 15.7615 4.22463C15.809 4.21658 15.8566 4.20853 15.9437 4.1683L16.0071 4.14415C16.0863 4.11197 16.2447 4.03954 16.2763 4.03954C16.5219 4.03954 16.5615 3.98321 16.5773 3.95907C16.6011 3.92688 16.6011 3.89469 16.5852 3.8625C16.5535 3.78202 16.4506 3.74983 16.3397 3.7096C16.3159 3.70155 16.2922 3.6935 16.2684 3.68545C16.213 3.66131 16.1496 3.66131 16.0942 3.66131C16.0704 3.66131 16.0546 3.66131 16.0308 3.66131C15.9833 3.66131 15.9278 3.66131 15.8803 3.66131C15.809 3.65326 15.8011 3.65326 15.7853 3.64522C15.7694 3.63717 15.7378 3.63717 15.6506 3.62108C15.5952 3.61303 15.5477 3.60498 15.4922 3.60498C15.3972 3.60498 15.3259 3.62108 15.2784 3.62912C15.2626 3.62912 15.2546 3.63717 15.2388 3.63717H15.2229C15.0725 3.66936 14.9141 3.70155 14.8349 3.73374C14.819 3.74179 14.7953 3.74983 14.7715 3.75788C14.6685 3.79812 14.5656 3.83835 14.5418 3.91883C14.5339 3.92688 14.5101 3.92688 14.4943 3.93492C14.4784 3.94297 14.4547 3.95102 14.423 3.95907C14.2646 4.00735 13.8686 4.18439 13.7973 4.22463C13.7736 4.24072 13.726 4.24877 13.6864 4.26487C13.631 4.28096 13.5597 4.3051 13.5122 4.33729C13.4805 4.35339 13.3934 4.38558 13.3063 4.41777C13.1795 4.46605 13.029 4.52238 12.9419 4.57067C12.8627 4.6109 12.7756 4.65114 12.6885 4.69138C12.6014 4.73161 12.5222 4.7638 12.4588 4.79599C12.4113 4.82013 12.3638 4.84428 12.3242 4.86037C12.237 4.90061 12.1499 4.94085 12.039 5.01327C11.9677 5.05351 11.8885 5.10984 11.8014 5.15812C11.6826 5.23055 11.5638 5.30298 11.5004 5.34321C11.4212 5.3915 11.3341 5.50416 11.247 5.62487C11.2232 5.65706 11.1995 5.6973 11.1836 5.70535C11.1361 5.75363 11.1044 5.8341 11.1282 5.89848C11.1124 5.93067 11.152 5.95481 11.1995 5.95481Z" fill="#C6DD22"/>
<path d="M13.3865 7.11378L13.4341 7.15401L13.4816 7.12182C13.4816 7.12182 13.5371 7.08963 13.5688 7.06549C13.5846 7.05744 13.6005 7.04135 13.6163 7.02526C13.6401 7.00916 13.6639 6.98502 13.6797 6.97697C13.751 6.92869 13.7352 6.86431 13.7352 6.83212C13.7352 6.82407 13.7352 6.81602 13.7352 6.80798C13.7352 6.77579 13.7272 6.75164 13.7035 6.7275C13.6876 6.71141 13.6639 6.69531 13.6163 6.69531C13.5608 6.69531 13.442 6.73555 13.4182 6.80798C13.4182 6.81602 13.4103 6.83212 13.4103 6.84821C13.4103 6.87235 13.4024 6.8965 13.3865 6.92064C13.3786 6.93673 13.3707 6.94478 13.3627 6.95283C13.3073 7.0494 13.3786 7.10573 13.3865 7.11378Z" fill="#C6DD22"/>
<path d="M31.2378 19.1445C31.222 19.0882 31.2062 19.0238 31.1349 19.0077C31.127 18.9674 31.119 18.895 31.119 18.8709C31.119 18.8548 31.119 18.8467 31.119 18.8387C31.1111 18.7663 31.0715 18.7019 31.0398 18.6616C31.0319 18.6536 31.024 18.6375 31.0161 18.6214C31.024 18.6214 31.0319 18.6295 31.0398 18.6295C31.0715 18.6295 31.0953 18.6134 31.119 18.5973C31.1666 18.549 31.1666 18.4766 31.1666 18.3961V18.38C31.1666 18.2995 31.0953 18.0742 31.0794 18.0178C31.0636 17.9776 31.0794 17.8408 31.0953 17.7442C31.119 17.6396 31.0636 17.5833 31.024 17.535C31.0161 17.527 31.0082 17.5109 31.0002 17.5028C30.9606 17.4545 30.9527 17.4384 30.929 17.366L30.921 17.3419C30.8973 17.2694 30.8498 17.2373 30.8022 17.2373C30.7943 17.2373 30.7864 17.2373 30.7785 17.2373C30.7706 17.2051 30.7547 17.1407 30.7547 17.1165L30.7468 17.0844C30.7389 17.02 30.6993 16.9395 30.6597 16.851L30.6438 16.8107C30.6359 16.7866 30.6042 16.7303 30.5409 16.7222C30.5409 16.7142 30.5409 16.7061 30.5409 16.69C30.5329 16.6417 30.5488 16.5935 30.5646 16.5371C30.5725 16.513 30.5805 16.4888 30.5805 16.4647C30.5963 16.3762 30.5884 16.2957 30.5567 16.2313C30.5488 16.2152 30.5488 16.1428 30.5488 16.1026C30.5488 16.0784 30.5488 16.0543 30.5488 16.0301C30.6201 16.2555 30.6914 16.3118 30.7468 16.3359C30.7864 16.352 30.8102 16.3601 30.826 16.3681H30.8339C30.8339 16.3681 30.8339 16.3762 30.8418 16.3762C30.8498 16.4003 30.8498 16.4969 30.8498 16.5532C30.8498 16.6498 30.8498 16.7061 30.8577 16.7464C30.8814 16.8188 30.9369 16.8268 30.9527 16.8268C31.0478 16.8268 31.0636 16.7222 31.0953 16.521L31.1032 16.4647C31.127 16.344 31.1349 16.2716 31.1032 16.1509C31.0874 16.1106 31.0953 16.0945 31.119 16.0462C31.1349 16.0221 31.1507 15.9899 31.1666 15.9416C31.2062 15.8048 31.1666 15.4749 31.1349 15.2898C31.0953 15.0967 30.9686 14.7989 30.8102 14.5172C30.6755 14.2758 30.6438 14.2275 30.5884 14.1068C30.5805 14.0988 30.5805 14.0827 30.5726 14.0746C30.6122 14.1068 30.6518 14.1229 30.6993 14.131H30.7151C30.7468 14.131 30.7785 14.1149 30.8022 14.0907C30.8418 14.0344 30.826 13.962 30.8102 13.8654C30.8022 13.8252 30.7943 13.793 30.7943 13.7527C30.7785 13.6159 30.6597 13.3584 30.6122 13.2699C30.628 13.2458 30.6597 13.1975 30.6597 13.117C30.6597 12.9963 30.6438 12.9158 30.6201 12.8192C30.6438 12.8032 30.6597 12.771 30.6676 12.7388C30.6834 12.6422 30.6122 12.1835 30.6122 12.1835C30.5963 12.0547 30.4141 11.6363 30.3349 11.4753C30.2478 11.3063 30.0181 10.7511 29.9627 10.5982C29.9152 10.4614 29.8122 10.2199 29.7647 10.1636C29.7488 10.1395 29.6934 10.0912 29.5904 9.99462C29.5192 9.93024 29.4479 9.86586 29.4083 9.82562C29.3449 9.76124 29.2261 9.52787 29.1628 9.31059C29.1311 9.20597 29.0994 9.09331 28.9885 9.09331C28.9806 9.09331 28.9647 9.09331 28.9489 9.09331C28.9331 9.09331 28.9093 9.10136 28.8855 9.09331C28.8539 9.08526 28.8301 9.08526 28.8063 9.08526C28.7984 9.07722 28.7984 9.06112 28.7984 9.05307C28.8063 9.02088 28.8301 8.99674 28.8459 8.98065C28.941 8.93236 28.9489 8.87603 28.9647 8.77946L28.9727 8.72313C28.9727 8.69899 28.9885 8.6668 29.0043 8.61851L29.0202 8.57023L28.9885 8.52999C27.1827 6.17211 24.6165 4.44193 21.7494 3.66938H21.7336H21.7178C21.6385 3.67743 21.4247 3.64524 21.2821 3.62914H21.2742C21.2505 3.62914 21.2346 3.62109 21.2188 3.62109C21.1396 3.62109 21.1079 3.66938 21.1 3.69352C21.0762 3.77399 21.1396 3.83033 21.2346 3.90275L21.2742 3.93494C21.3455 3.99127 21.4722 4.00737 21.6702 4.03151C21.7177 4.03956 21.7732 4.03956 21.8286 4.0476C21.7574 4.07175 21.7019 4.11198 21.6702 4.17636C21.6544 4.2005 21.6465 4.22465 21.6385 4.24074C21.6227 4.28098 21.6148 4.28903 21.5989 4.30512C21.5356 4.28903 21.3772 4.16027 21.3138 4.11198C21.2742 4.07979 21.2346 4.05565 21.2188 4.03956C21.1554 3.99932 21.0604 4.02346 20.9653 4.05565C20.9416 4.0637 20.9099 4.07175 20.8861 4.07979C20.902 4.05565 20.9099 4.02346 20.894 3.99127C20.8782 3.94299 20.8228 3.9108 20.7673 3.9108C20.7436 3.9108 20.7198 3.91885 20.704 3.92689C20.6485 3.95104 20.6327 4.00737 20.6168 4.03956V4.0476C20.5931 4.03956 20.5535 4.03151 20.5139 4.03151C20.4664 4.03151 20.4268 4.03956 20.3951 4.05565C20.3317 4.08784 20.3238 4.12808 20.3238 4.16027C20.2921 4.10394 20.2208 4.09589 20.1575 4.09589C20.1337 4.09589 20.0783 4.09589 20.0228 4.11198C19.9991 4.07175 19.9357 4.05565 19.8327 4.05565H19.8248C19.809 4.0476 19.7931 4.03151 19.7852 4.02346C19.7615 3.99127 19.7298 3.98323 19.6981 3.98323C19.6664 3.98323 19.611 3.99932 19.5793 4.07979C19.5397 4.18441 19.6189 4.24879 19.6506 4.27293C19.6585 4.28098 19.6664 4.28098 19.6664 4.28903L19.6981 4.32122L19.7456 4.31317C19.7535 4.32926 19.7615 4.33731 19.7773 4.3534L19.7931 4.3695L19.8169 4.37755C19.8486 4.38559 19.9199 4.40169 19.9515 4.40974C19.9753 4.41778 19.9911 4.42583 20.0149 4.42583C20.0783 4.42583 20.102 4.37755 20.1179 4.36145C20.1258 4.35341 20.1258 4.3534 20.1337 4.34536C20.1495 4.33731 20.1733 4.33731 20.1891 4.32926C20.2208 4.32122 20.2684 4.32122 20.3 4.28098C20.3238 4.25684 20.3317 4.23269 20.3317 4.20855C20.3476 4.24879 20.3872 4.26488 20.4268 4.26488C20.4188 4.28098 20.4109 4.30512 20.4109 4.31317C20.4109 4.32122 20.403 4.32926 20.403 4.33731C20.3792 4.38559 20.3951 4.42583 20.403 4.44193C20.4188 4.46607 20.4347 4.48216 20.4584 4.49021C20.4188 4.53045 20.4188 4.57068 20.4188 4.58678C20.4268 4.66725 20.5139 4.70749 20.5931 4.73968H20.601C20.601 4.74773 20.601 4.75577 20.601 4.76382C20.5772 4.76382 20.5456 4.77187 20.5218 4.79601C20.4505 4.75577 20.3634 4.78796 20.3317 4.85234C20.3159 4.84429 20.3 4.8443 20.2842 4.8443C20.2287 4.77187 20.0941 4.73163 20.007 4.77187C19.9515 4.79601 19.9436 4.83625 19.9436 4.86039C19.9436 4.92477 19.9911 4.95696 20.0149 4.97305C20.0228 4.97305 20.0228 4.9811 20.0307 4.9811C20.0307 5.01329 20.0307 5.03743 20.0307 5.05353C20.0307 5.06962 20.0307 5.06962 20.0307 5.06962C19.9911 5.16619 20.0545 5.22252 20.0941 5.25471L20.1099 5.26276C20.1258 5.27885 20.1416 5.2869 20.1575 5.303C20.0783 5.303 19.9753 5.31104 19.8961 5.31909C19.8882 5.31909 19.8803 5.31909 19.8803 5.31909C19.8565 5.29495 19.809 5.27885 19.7773 5.27885H19.7535C19.7298 5.27081 19.706 5.26276 19.6743 5.24666C19.6506 5.23862 19.6268 5.22252 19.6031 5.21447C19.5714 5.20643 19.5397 5.20643 19.5159 5.21447C19.4842 5.16619 19.405 5.14205 19.3496 5.134C19.3338 5.134 19.3258 5.134 19.3021 5.09376C19.2783 5.06157 19.2546 5.02134 19.2308 4.97305L19.2229 4.96501C19.2229 4.95696 19.2229 4.95696 19.2229 4.94891C19.2466 4.94891 19.2783 4.94891 19.3021 4.94086C19.3734 4.92477 19.3971 4.88453 19.3971 4.85234C19.3971 4.8282 19.3971 4.80406 19.3813 4.78796C19.4288 4.76382 19.4446 4.73163 19.4526 4.70749C19.4526 4.69139 19.4526 4.68335 19.4526 4.66725H19.4605C19.4763 4.66725 19.4922 4.65921 19.5159 4.65116C19.5318 4.65921 19.5555 4.65921 19.5793 4.65921C19.6585 4.65921 19.6823 4.61092 19.6902 4.58678C19.7139 4.51435 19.6427 4.47412 19.6031 4.44997C19.5951 4.44997 19.5951 4.44193 19.5872 4.44193C19.5555 4.41778 19.5159 4.41778 19.4922 4.41778C19.4763 4.41778 19.4526 4.41778 19.4367 4.41778C19.4288 4.41778 19.413 4.41778 19.413 4.41778C19.3971 4.41778 19.3734 4.40974 19.3654 4.40169C19.3417 4.37755 19.3179 4.3695 19.2942 4.3695C19.2387 4.3695 19.215 4.40974 19.1991 4.42583C19.1991 4.43388 19.1912 4.43388 19.1833 4.44193L19.1754 4.45802C19.1674 4.46607 19.1674 4.46607 19.1674 4.47412C19.1199 4.48216 19.0566 4.49826 19.017 4.5224C18.9932 4.53849 18.9457 4.57873 18.9694 4.65921H18.9457C18.8823 4.65921 18.8586 4.6753 18.8269 4.69139C18.819 4.69139 18.819 4.69944 18.811 4.69944C18.7635 4.72358 18.7556 4.77187 18.7556 4.78796C18.7556 4.83625 18.7794 4.86039 18.8031 4.87648C18.7952 4.88453 18.7952 4.88453 18.7873 4.89258C18.7477 4.94086 18.7635 4.98915 18.7714 5.00524C18.7714 5.01329 18.7873 5.02938 18.7952 5.03743C18.7873 5.06157 18.7873 5.08572 18.7873 5.10181C18.7794 5.10986 18.7794 5.11791 18.7794 5.12595C18.7714 5.17424 18.7873 5.22252 18.8348 5.27081C18.8586 5.29495 18.8823 5.303 18.9061 5.31104C18.914 5.36737 18.9615 5.39152 18.9853 5.39956C19.0011 5.40761 19.017 5.40761 19.0407 5.40761C19.0803 5.40761 19.112 5.39152 19.1358 5.37542C19.1674 5.39956 19.1991 5.40761 19.2308 5.40761H19.2466C19.2466 5.40761 19.3338 5.39152 19.413 5.38347C19.4288 5.38347 19.4446 5.37542 19.4526 5.37542C19.4605 5.38347 19.4684 5.39956 19.4763 5.40761C19.508 5.4398 19.5397 5.44785 19.5793 5.46394C19.5555 5.47199 19.5397 5.48004 19.5159 5.48004C19.5001 5.48809 19.4763 5.49613 19.4605 5.49613L19.4526 5.48004C19.4288 5.44785 19.3971 5.43175 19.3575 5.43175C19.2942 5.43175 19.215 5.48809 19.1516 5.53637C19.1358 5.55246 19.112 5.55246 19.0803 5.56051C19.0724 5.56051 19.0724 5.56051 19.0645 5.56051C19.0645 5.54442 19.0566 5.52027 19.0486 5.50418C19.0249 5.4559 18.9774 5.44785 18.9615 5.44785C18.9378 5.44785 18.9219 5.4559 18.9061 5.46394C18.8902 5.47199 18.8902 5.47199 18.8823 5.46394C18.8665 5.46394 18.8506 5.4559 18.8427 5.4559C18.8269 5.44785 18.811 5.44785 18.7952 5.44785C18.7793 5.44785 18.7081 5.4559 18.6922 5.53637C18.6685 5.52832 18.6289 5.52832 18.6051 5.52832C18.5734 5.52832 18.5497 5.52832 18.5338 5.52832C18.518 5.52832 18.518 5.52832 18.4942 5.52832C18.4863 5.52832 18.4784 5.52832 18.4705 5.52027C18.4467 5.51223 18.4229 5.51223 18.3992 5.51223C18.32 5.51223 18.2883 5.56051 18.2804 5.6088C18.2645 5.69732 18.3437 5.72951 18.3675 5.7456C18.3754 5.7456 18.3833 5.75365 18.3913 5.75365C18.3913 5.7617 18.3913 5.7617 18.3992 5.77779C18.4071 5.80193 18.4071 5.82608 18.4309 5.85826C18.3992 5.85826 18.3675 5.86631 18.3358 5.88241C18.3358 5.88241 18.3279 5.88241 18.32 5.88241C18.3041 5.87436 18.2804 5.87436 18.2487 5.87436C18.2487 5.86631 18.2408 5.85826 18.2408 5.84217C18.217 5.78584 18.1695 5.7456 18.0824 5.70536C18.0824 5.68927 18.0745 5.68122 18.0665 5.66513C18.0269 5.58465 17.9715 5.54442 17.8764 5.52027C17.8052 5.50418 17.718 5.49613 17.6468 5.49613H17.623C17.6072 5.49613 17.5913 5.49613 17.5755 5.49613C17.5676 5.46394 17.5517 5.43175 17.52 5.41566C17.4963 5.40761 17.4725 5.39956 17.4488 5.39956C17.4408 5.35933 17.4092 5.2869 17.2903 5.2869C17.2666 5.2869 17.2428 5.2869 17.2111 5.29495C17.2111 5.29495 17.2111 5.29495 17.2032 5.29495C17.1953 5.2869 17.1795 5.27885 17.1557 5.27081C17.1399 5.26276 17.124 5.26276 17.1082 5.26276C17.0527 5.26276 17.029 5.29495 17.0131 5.31104C17.0052 5.31909 16.9973 5.32714 16.9815 5.33519C16.9735 5.33519 16.9656 5.32714 16.9577 5.32714C16.9577 5.32714 16.9498 5.32714 16.9419 5.31909C16.926 5.29495 16.8785 5.25471 16.7993 5.26276C16.7835 5.26276 16.7676 5.26276 16.7518 5.26276C16.6963 5.26276 16.6251 5.26276 16.5775 5.303C16.5538 5.31909 16.5458 5.33518 16.5379 5.35128C16.5062 5.35128 16.4587 5.35933 16.4191 5.38347C16.4033 5.39152 16.3637 5.39152 16.332 5.39956C16.2766 5.40761 16.229 5.41566 16.1894 5.43175C16.1736 5.4398 16.1498 5.4398 16.1261 5.4398C16.0865 5.4398 16.0469 5.4398 16.0152 5.46394L15.9914 5.48004H15.9677C15.9202 5.48004 15.8568 5.52027 15.8409 5.52832C15.8093 5.55246 15.7459 5.5927 15.6984 5.6088C15.6509 5.63294 15.635 5.67317 15.635 5.70536C15.6113 5.70536 15.5875 5.71341 15.5717 5.72146C15.5321 5.7456 15.5004 5.78584 15.4845 5.80998C15.4845 5.81803 15.4766 5.81803 15.4766 5.81803C15.4212 5.82608 15.3895 5.84217 15.3261 5.88241C15.2628 5.92264 15.2628 5.97093 15.2628 5.99507C15.2628 6.00312 15.2628 6.01116 15.2707 6.01116H15.2628C15.239 6.02726 15.2153 6.03531 15.1836 6.0514C15.1598 6.0675 15.144 6.08359 15.1281 6.09164C15.1123 6.10773 15.1044 6.11578 15.0727 6.13188C14.9935 6.18016 14.9776 6.23649 14.9697 6.27673C14.9697 6.28478 14.9618 6.30087 14.9539 6.31696C14.9301 6.32501 14.8905 6.34111 14.8668 6.38939C14.8588 6.39744 14.8351 6.39744 14.8272 6.40549C14.8113 6.40549 14.8034 6.41353 14.7876 6.41353C14.7559 6.40549 14.7004 6.39744 14.6529 6.41353L14.6292 6.42158C14.5579 6.43768 14.4708 6.46182 14.3757 6.54229C14.3123 6.59058 14.2965 6.63886 14.3044 6.6791C14.2569 6.69519 14.2252 6.74348 14.1935 6.78371C14.1619 6.832 14.1698 6.88833 14.1856 6.92857C14.1381 6.93661 14.0985 6.9688 14.0351 7.02513C14.0193 7.03318 14.0114 7.04123 14.0035 7.04928C13.9797 7.06537 13.948 7.08951 13.948 7.1378C13.9401 7.18608 13.9639 7.21827 13.9797 7.23437C13.9876 7.25046 13.9955 7.25046 13.9955 7.26656C13.9955 7.2746 13.9797 7.2746 13.9718 7.28265C13.948 7.29874 13.9084 7.31484 13.9005 7.36312C13.8926 7.38727 13.9005 7.41946 13.9163 7.4436C13.9639 7.51602 14.0827 7.52407 14.146 7.52407C14.1777 7.52407 14.2015 7.52407 14.2173 7.51602C14.2648 7.50798 14.2886 7.49188 14.3123 7.47579C14.3282 7.46774 14.344 7.45969 14.3599 7.45164C14.3757 7.4436 14.3916 7.43555 14.3995 7.43555C14.4312 7.4275 14.4708 7.41141 14.4945 7.35508C14.5262 7.29874 14.542 7.28265 14.55 7.2746C14.5658 7.26656 14.5737 7.25851 14.5896 7.25046C14.5896 7.25046 14.5975 7.25046 14.5975 7.24241C14.5896 7.26656 14.5737 7.29874 14.5579 7.33093C14.5183 7.41946 14.5341 7.46774 14.55 7.52407C14.5579 7.54017 14.5579 7.54821 14.5579 7.57236C14.5579 7.61259 14.55 7.64478 14.55 7.68502C14.542 7.7494 14.5341 7.81378 14.542 7.87011C14.5579 7.95863 14.6133 7.98277 14.6688 7.98277C14.7163 7.98277 14.7638 7.95863 14.8192 7.92644C14.8351 7.91839 14.8509 7.91035 14.8588 7.9023C14.9539 7.85401 15.0648 7.76549 15.1202 7.71721C15.1361 7.70111 15.1519 7.70111 15.1677 7.69307C15.2073 7.67697 15.2707 7.64478 15.2786 7.54821C15.2786 7.54017 15.2945 7.53212 15.3103 7.52407C15.3261 7.51602 15.342 7.49993 15.3499 7.49188C15.3974 7.4436 15.4133 7.41141 15.4133 7.36312C15.4133 7.35508 15.4133 7.34703 15.4212 7.33093C15.437 7.29874 15.4925 7.24241 15.5162 7.23437L15.5321 7.22632C15.6033 7.19413 15.6667 7.15389 15.7063 7.10561C15.7697 7.02513 15.7301 6.95271 15.6984 6.90442L15.6905 6.88833C15.6905 6.88028 15.6984 6.88028 15.6984 6.87223C15.7063 6.85614 15.7063 6.84809 15.7142 6.82395L15.7301 6.76762C15.738 6.72738 15.7617 6.65495 15.7697 6.62277C15.8013 6.60667 15.8647 6.56643 15.9202 6.54229C15.9281 6.53424 15.9598 6.53424 15.9835 6.5262C15.9994 6.5262 16.0073 6.51815 16.0231 6.51815C15.9994 6.55034 15.9835 6.59058 16.0073 6.64691C16.0073 6.65495 15.9994 6.6791 15.9994 6.69519L15.9914 6.73543C15.9835 6.75957 15.9756 6.77567 15.9518 6.79981C15.936 6.8159 15.9281 6.832 15.9122 6.84809C15.8489 6.93661 15.9043 7.04123 15.9439 7.09756L15.9518 7.11366C15.9598 7.12975 15.9756 7.16194 16.0073 7.17803C15.9835 7.21022 15.9756 7.24241 15.9756 7.2746C15.9756 7.32289 15.9835 7.36312 16.0152 7.39531C16.039 7.41946 16.0627 7.43555 16.0944 7.43555H16.1182C16.1102 7.45165 16.1023 7.45969 16.0865 7.47579C16.0865 7.47579 16.0786 7.46774 16.0706 7.46774C16.0548 7.45969 16.031 7.4436 16.0231 7.4275C15.9914 7.37117 15.9439 7.36312 15.9281 7.36312C15.8726 7.36312 15.833 7.41141 15.8172 7.4436C15.8093 7.45164 15.8093 7.45164 15.8013 7.45969C15.7934 7.46774 15.7776 7.47579 15.7697 7.49188C15.738 7.51602 15.6984 7.54821 15.6825 7.58845C15.6746 7.60455 15.6667 7.62064 15.6667 7.63673C15.6588 7.66088 15.6588 7.66892 15.635 7.67697C15.54 7.72526 15.5479 7.80573 15.5479 7.83792C15.5479 7.84597 15.5479 7.84597 15.5479 7.84597C15.5321 7.87011 15.5004 7.89425 15.4687 7.91839C15.4529 7.92644 15.437 7.94254 15.4291 7.95058C15.3974 7.96668 15.3816 7.99082 15.3737 8.01496C15.342 7.99887 15.2945 7.99082 15.2153 8.00691C15.1598 8.01496 15.0489 8.03106 15.0014 8.04715C14.9776 8.0552 14.8905 8.0552 14.843 8.06325C14.8113 8.06325 14.7796 8.07129 14.7717 8.07129C14.7559 8.07129 14.74 8.07934 14.7242 8.07934C14.7004 8.04715 14.645 8.02301 14.5658 8.01496H14.55C14.5024 8.00691 14.4391 8.00691 14.3916 8.01496C14.3757 8.01496 14.3599 8.02301 14.344 8.03106C14.3282 8.0391 14.3123 8.0391 14.3044 8.0391C14.2727 8.03106 14.2411 8.00691 14.2252 7.99082C14.2252 7.98277 14.2173 7.95863 14.2094 7.87816C14.2094 7.81378 14.1619 7.78159 14.1143 7.78159C14.0668 7.78159 14.0351 7.81378 14.0114 7.84597L14.0035 7.85401C13.9955 7.86206 13.9876 7.86206 13.9797 7.87011C13.9322 7.9023 13.8688 7.93449 13.8451 7.99887C13.8213 8.0552 13.8451 8.11153 13.8609 8.15177H13.853C13.8134 8.15177 13.7659 8.13567 13.7183 8.11153C13.7025 8.10348 13.6787 8.09544 13.6629 8.09544C13.5995 8.09544 13.5599 8.14372 13.5282 8.17591C13.5203 8.18396 13.5045 8.20005 13.5045 8.20005C13.4728 8.21615 13.4015 8.24029 13.3698 8.25638L13.354 8.26443C13.3461 8.26443 13.3461 8.26443 13.3382 8.26443C13.2986 8.26443 13.259 8.26443 13.2352 8.28052C13.1877 8.31271 13.1718 8.35295 13.1639 8.38514C13.1639 8.40124 13.156 8.41733 13.1481 8.44147C13.1243 8.50585 13.1164 8.5139 13.1006 8.53804C13.0293 8.5139 12.9263 8.53804 12.7758 8.61047C12.7758 8.61047 12.7758 8.61047 12.7679 8.61047C12.7679 8.59437 12.76 8.58633 12.76 8.57828C12.7679 8.57828 12.7837 8.57023 12.7917 8.57023C12.8154 8.56218 12.8392 8.56218 12.8709 8.55414C12.9818 8.52195 12.9976 8.45757 12.9976 8.40124H13.0055C13.0214 8.39319 13.053 8.38514 13.0768 8.361C13.1243 8.33686 13.1481 8.29662 13.156 8.25638C13.1718 8.192 13.1322 8.14372 13.1164 8.11958C13.0847 8.07129 13.0451 8.06325 13.0214 8.0552C13.0134 8.0552 13.0134 8.0552 13.0055 8.0552C12.9818 8.03106 12.9738 8.01496 12.9659 7.99887C12.9818 7.97472 13.0055 7.92644 12.9818 7.87816C12.9738 7.86206 12.9659 7.84597 12.9501 7.82987C12.9659 7.80573 12.9818 7.77354 12.9897 7.7494C12.9976 7.71721 13.0055 7.67697 12.9738 7.63673C12.9818 7.62869 12.9897 7.62064 12.9976 7.62064C13.0214 7.60454 13.0372 7.58845 13.0451 7.57236C13.0689 7.54017 13.1639 7.37117 13.1481 7.29874C13.1481 7.28265 13.1402 7.26656 13.1322 7.25851C13.156 7.23437 13.1718 7.20218 13.1798 7.16999L13.2035 7.15389C13.2273 7.1378 13.2906 7.09756 13.3144 7.07342C13.3619 7.02513 13.3461 6.97685 13.3461 6.96076C13.3302 6.92052 13.2986 6.90442 13.259 6.90442C13.2431 6.90442 13.2194 6.91247 13.1956 6.92052C13.1718 6.92857 13.1164 6.96076 13.0847 7.02513C13.0372 6.9849 12.9659 6.9688 12.8946 6.9849C12.8946 6.9688 12.8867 6.95271 12.8788 6.94466L12.8471 6.90442H12.8075C12.7679 6.90442 12.7441 6.92052 12.7204 6.93661C12.7125 6.93661 12.7125 6.94466 12.7125 6.94466C12.6729 6.9688 12.6174 7.00904 12.5857 7.05732C12.5699 7.07342 12.562 7.09756 12.5541 7.11366C12.5382 7.11366 12.5303 7.1217 12.5145 7.12975H12.4907C12.4511 7.12975 12.4273 7.15389 12.4115 7.16999C12.4036 7.17803 12.3957 7.18608 12.3957 7.18608C12.3481 7.21022 12.3323 7.25851 12.3402 7.30679C12.3402 7.31484 12.3481 7.32289 12.3561 7.33093C12.3244 7.37922 12.3323 7.41141 12.3481 7.43555L12.3798 7.49188H12.4353C12.4511 7.49188 12.4669 7.48383 12.4907 7.48383C12.4669 7.51602 12.4511 7.55626 12.4432 7.58845C12.4353 7.5965 12.4194 7.62869 12.4036 7.65283C12.3798 7.62064 12.3481 7.5965 12.3165 7.5965C12.3165 7.58845 12.3085 7.58845 12.3085 7.5804C12.2848 7.54017 12.2531 7.52407 12.2135 7.52407C12.1897 7.52407 12.166 7.53212 12.1422 7.54017C12.1343 7.54821 12.1184 7.54821 12.1105 7.55626C12.0313 7.5804 12.0076 7.63673 11.9838 7.67697C11.968 7.66892 11.9442 7.66088 11.9204 7.66088C11.8888 7.66088 11.8571 7.67697 11.8016 7.70111C11.7224 7.74135 11.6987 7.79768 11.7224 7.87816C11.7145 7.9023 11.6987 7.91839 11.6749 7.95058C11.667 7.96668 11.6591 7.97472 11.6432 7.99082C11.6274 7.98277 11.6116 7.97472 11.5878 7.97472H11.564C11.5403 7.98277 11.5086 7.99887 11.4928 8.02301H11.4769C11.4373 8.02301 11.4056 8.04715 11.3739 8.07934C11.366 8.08739 11.3502 8.10348 11.3343 8.11153C11.271 8.15981 11.271 8.2081 11.2789 8.23224C11.2868 8.25638 11.3027 8.30467 11.3819 8.32881L11.3977 8.33686C11.4056 8.35295 11.4215 8.37709 11.4294 8.39319C11.4611 8.43342 11.5007 8.44147 11.5165 8.44147C11.5561 8.44147 11.5799 8.42538 11.6036 8.40928C11.6116 8.40124 11.6274 8.39319 11.6274 8.39319H11.6353C11.6432 8.39319 11.6432 8.39319 11.6512 8.39319C11.667 8.40124 11.6987 8.41733 11.7541 8.40928L11.7858 8.40124C11.8016 8.39319 11.8175 8.39319 11.8412 8.40124H11.8571H11.8729C11.8888 8.40124 11.9204 8.39319 11.9521 8.361C11.9363 8.39319 11.9204 8.41733 11.9046 8.44147C11.8967 8.45757 11.8888 8.47366 11.8808 8.48171C11.8729 8.4978 11.865 8.50585 11.865 8.50585C11.8571 8.50585 11.8333 8.52195 11.8254 8.52195C11.8016 8.52999 11.7779 8.53804 11.7541 8.53804C11.7224 8.54609 11.667 8.54609 11.6274 8.58632C11.5957 8.61851 11.5878 8.6668 11.6036 8.70704C11.6353 8.79556 11.7779 8.82775 11.8412 8.82775H11.8571C11.9284 8.8197 11.968 8.79556 11.9996 8.77141C12.0076 8.76337 12.0234 8.75532 12.0392 8.74727C12.0551 8.75532 12.063 8.76337 12.0868 8.77141C12.1501 8.79556 12.3006 8.84384 12.4036 8.84384H12.4273C12.4432 8.84384 12.459 8.84384 12.4749 8.84384C12.4669 8.85994 12.4511 8.87603 12.4432 8.89213L12.4353 8.90017C12.4194 8.90017 12.4036 8.90017 12.3798 8.89213H12.3561C12.3006 8.88408 12.2293 8.85994 12.1818 8.84384C12.1501 8.83579 12.1264 8.82775 12.1105 8.8197H12.0868C11.9996 8.8197 11.968 8.90017 11.9521 8.94846C11.9442 8.94846 11.9442 8.94846 11.9363 8.94846H11.9204C11.9125 8.94846 11.9125 8.94846 11.9046 8.94846C11.8729 8.92431 11.8492 8.90017 11.8096 8.90017C11.77 8.90017 11.7462 8.91627 11.7383 8.92431C11.7304 8.92431 11.7224 8.93236 11.7224 8.93236C11.6828 8.94846 11.6274 8.9726 11.6036 9.02893C11.5957 9.03698 11.5878 9.04503 11.5799 9.05307C11.5561 9.06917 11.5324 9.09331 11.5086 9.11745C11.4928 9.14159 11.4611 9.18183 11.4769 9.23011C11.4928 9.2784 11.5403 9.29449 11.572 9.30254L11.5957 9.31059C11.6036 9.31059 11.6036 9.31059 11.6036 9.31864C11.6116 9.32668 11.6195 9.33473 11.6274 9.35083C11.6353 9.36692 11.667 9.40716 11.7224 9.40716C11.7304 9.40716 11.7304 9.40716 11.7383 9.40716C11.7224 9.4313 11.7066 9.47154 11.7145 9.52787C11.7224 9.5842 11.7145 9.61639 11.6987 9.65663C11.6987 9.66467 11.6908 9.66467 11.6908 9.67272C11.6828 9.68077 11.6828 9.68882 11.6749 9.70491C11.6591 9.71296 11.6432 9.721 11.6274 9.7371C11.6195 9.74515 11.6116 9.74515 11.6116 9.75319C11.5878 9.76929 11.564 9.79343 11.5403 9.82562C11.5165 9.85781 11.5165 9.89 11.5244 9.92219C11.5007 9.93024 11.4769 9.94633 11.4531 9.96243C11.4215 9.98657 11.4135 10.0107 11.3977 10.0349C11.3819 10.067 11.3819 10.067 11.3502 10.067C11.3423 10.067 11.3264 10.067 11.3185 10.067C11.271 10.059 11.2472 10.0509 11.2472 10.0509C11.2393 10.0349 11.2155 10.0027 11.1601 9.98657L11.1363 9.97852C11.0967 9.97047 11.073 9.96243 11.073 9.95438C11.0334 9.87391 10.9859 9.85781 10.9304 9.84172L10.9146 9.83367C10.9067 9.83367 10.8908 9.82562 10.8829 9.82562C10.8195 9.80953 10.7245 9.78538 10.6532 9.82562C10.6532 9.82562 10.6453 9.82562 10.6453 9.83367C10.6215 9.80953 10.5898 9.80148 10.5661 9.80148C10.5027 9.80148 10.4473 9.84976 10.4077 9.93024C10.3681 10.0107 10.3364 10.1153 10.3206 10.2199C10.3047 10.2924 10.2018 10.5016 10.0671 10.6867L10.0275 10.743C9.91663 10.8959 9.83743 11.0086 9.82951 11.1293C9.82159 11.2259 9.80574 11.2661 9.77406 11.3305C9.7503 11.3868 9.75822 11.4351 9.77406 11.4592C9.81367 11.5156 9.87703 11.5156 9.90079 11.5156H9.95623C9.97999 11.5156 10.0038 11.5156 10.0117 11.5156C10.0117 11.5236 10.0117 11.5317 10.0117 11.5397C10.0117 11.596 10.0196 11.6363 10.0275 11.6765C10.0117 11.6926 9.99583 11.7087 9.98791 11.7328C9.97999 11.7409 9.97207 11.757 9.95623 11.7731C9.93247 11.8053 9.91663 11.8214 9.90079 11.8375C9.88495 11.8616 9.86119 11.8857 9.82951 11.934C9.7899 11.9904 9.77406 11.9984 9.72654 12.0306L9.68694 12.0547C9.66318 12.0708 9.64734 12.0789 9.6315 12.0869C9.58398 12.1111 9.54438 12.1352 9.52062 12.1674C9.50478 12.1835 9.44934 12.1996 9.41765 12.2157C9.38597 12.2318 9.35429 12.2398 9.33053 12.2559C9.26717 12.2881 9.24341 12.3605 9.23549 12.4088C9.22757 12.433 9.21965 12.4652 9.21173 12.4813C9.13253 12.5537 9.06916 12.6583 9.02956 12.771C8.99788 12.8514 8.98996 12.8917 8.99788 12.948C8.94244 12.9641 8.90284 13.0124 8.85532 13.0687C8.81572 13.125 8.79196 13.125 8.7286 13.125C8.64147 13.1331 8.61771 13.1814 8.60187 13.2055C8.59395 13.2216 8.59395 13.2216 8.57019 13.2377C8.54643 13.2538 8.52267 13.2538 8.49099 13.2619C8.44347 13.2699 8.38803 13.286 8.33258 13.3423C8.3009 13.3665 8.16626 13.4791 8.08706 13.5757C7.99202 13.6803 7.84153 13.8895 7.77817 13.9861C7.74649 14.0344 7.70689 14.0988 7.67521 14.1551C7.64353 14.2034 7.61185 14.2517 7.60392 14.2758C7.58808 14.308 7.50096 14.4529 7.41384 14.5494C7.39008 14.5736 7.37424 14.5977 7.35048 14.6138C7.30296 14.6621 7.26336 14.7023 7.25544 14.7748C7.24752 14.823 7.26336 14.8874 7.29504 14.984C7.30296 15.0081 7.31088 15.0484 7.3188 15.0725C7.30296 15.1288 7.26336 15.2576 7.26336 15.3381C7.26336 15.4105 7.24752 15.4668 7.20791 15.5393C7.16831 15.6278 7.13663 15.7002 7.14455 15.7968C7.14455 15.837 7.12871 15.8692 7.10495 15.8853C7.04159 15.9255 7.03367 15.998 7.02575 16.0623C7.02575 16.0865 7.01783 16.1187 7.01783 16.1267C7.00991 16.1267 7.00991 16.1267 7.00199 16.1267C6.97823 16.1267 6.89903 16.1348 6.86734 16.2152C6.84358 16.2796 6.8515 16.3601 6.86734 16.4325C6.86734 16.4567 6.87526 16.4728 6.87526 16.4969C6.87526 16.5291 6.86734 16.5854 6.85942 16.6257C6.8515 16.682 6.83566 16.7222 6.8515 16.7625C6.85942 16.8107 6.88319 16.9073 6.89111 17.028C6.89903 17.1729 6.95447 17.2373 7.00199 17.2855L7.00991 17.3016C7.01783 17.3177 7.02575 17.3499 7.02575 17.3902C7.02575 17.4143 7.03367 17.4465 7.03367 17.4706C7.04159 17.4948 7.04159 17.5109 7.04951 17.535C7.06535 17.5833 7.07327 17.6396 7.07327 17.6879C7.07327 17.7845 7.13663 17.8247 7.17623 17.8569C7.19999 17.873 7.22375 17.8891 7.23167 17.9132C7.24751 17.9454 7.23167 18.0179 7.22375 18.0742C7.21583 18.1144 7.20791 18.1547 7.20791 18.1868C7.20791 18.2271 7.21583 18.2915 7.22375 18.3558C7.23167 18.4202 7.2396 18.4846 7.2396 18.5329C7.24752 18.6375 7.3188 18.7019 7.38216 18.7663C7.42176 18.8065 7.46136 18.8387 7.50096 18.887L7.5168 18.9111C7.61185 19.0399 7.69897 19.1606 7.80985 19.3537C7.94449 19.571 8.0633 19.5951 8.16626 19.6112L8.19794 19.6193C8.21378 19.6193 8.22962 19.6273 8.24546 19.6273C8.32466 19.6273 8.38011 19.579 8.41179 19.5469C8.41971 19.5388 8.42763 19.5308 8.43555 19.5227C8.45139 19.5469 8.48307 19.5629 8.52267 19.579C8.62563 19.6193 8.71276 19.6193 8.78404 19.6032C8.8078 19.5951 8.82364 19.5871 8.83948 19.579C8.86324 19.571 8.85532 19.571 8.86324 19.571C8.86324 19.579 8.87116 19.5951 8.87908 19.6032C8.887 19.6273 8.90284 19.6595 8.91868 19.6917C8.97412 19.7802 9.03748 19.7883 9.10085 19.7883H9.13253C9.15629 19.7883 9.18797 19.7883 9.21965 19.7963C9.38597 19.8285 9.4731 19.7963 9.5523 19.7561C9.59982 19.7319 9.72654 19.6837 9.80574 19.6434C9.86119 19.6193 9.90079 19.6032 9.90871 19.6032C9.92455 19.5951 9.99583 19.5871 10.0434 19.579C10.0434 19.5871 10.0513 19.6032 10.0513 19.6112C10.075 19.6998 10.1463 19.7078 10.1622 19.7078C10.1859 19.7078 10.2097 19.6998 10.2255 19.6917C10.2414 19.6837 10.2493 19.6837 10.2651 19.6837C10.281 19.6837 10.2889 19.6837 10.3047 19.6917C10.3126 19.6917 10.3206 19.6917 10.3285 19.6917C10.3285 19.6917 10.3443 19.6998 10.3681 19.7319C10.4235 19.7963 10.471 19.9251 10.5027 20.0297C10.5344 20.1504 10.5898 20.2228 10.6928 20.2711C10.7483 20.2953 10.8275 20.2872 10.8987 20.2711C10.9383 20.2631 10.9779 20.255 11.0255 20.255H11.0413C11.073 20.255 11.0967 20.255 11.1205 20.255C11.1443 20.255 11.1601 20.255 11.1759 20.255C11.2155 20.255 11.2314 20.2631 11.2393 20.2711C11.2472 20.2792 11.2551 20.2953 11.2631 20.3194H11.2472C11.2155 20.3194 11.1918 20.3355 11.168 20.3596C11.1205 20.4079 11.1047 20.5045 11.1126 20.5769C11.1205 20.6574 11.1205 20.6735 11.1522 20.7379V20.7459C11.168 20.7861 11.2076 20.8103 11.2472 20.8103C11.271 20.8103 11.3027 20.8022 11.3185 20.7781C11.3502 20.754 11.3581 20.7218 11.366 20.7057C11.3819 20.7057 11.3898 20.6976 11.4056 20.6896C11.4056 20.6896 11.4056 20.6896 11.4135 20.6815C11.4056 20.7057 11.3977 20.7218 11.3898 20.7459C11.366 20.8103 11.366 20.8908 11.366 20.9551C11.366 20.9793 11.366 21.0034 11.366 21.0276C11.366 21.0919 11.3581 21.1644 11.3502 21.2368V21.2851C11.3502 21.3012 11.3502 21.3253 11.3502 21.3253C11.3502 21.3253 11.3343 21.3334 11.3106 21.3495C11.2631 21.3736 11.2155 21.3977 11.1997 21.4541C11.1839 21.5104 11.2076 21.5506 11.2393 21.5909C11.2472 21.607 11.2631 21.6311 11.2789 21.6472C11.3027 21.6794 11.3264 21.7116 11.3423 21.7599C11.3423 21.7679 11.3423 21.776 11.3423 21.7679C11.3264 21.784 11.2868 21.8323 11.3264 21.9128C11.3581 21.9691 11.3977 22.0013 11.4611 22.0013C11.4769 22.0013 11.4848 22.0013 11.5007 22.0013C11.5007 22.0093 11.5007 22.0174 11.5007 22.0254C11.4769 22.122 11.5324 22.1864 11.572 22.2347C11.5878 22.2508 11.6036 22.2669 11.6116 22.283C11.667 22.3715 11.7383 22.3876 11.8096 22.4037C11.8254 22.4037 11.8492 22.4117 11.865 22.4198C11.9363 22.4359 11.9838 22.4841 12.0155 22.5646C12.0313 22.6049 12.0313 22.6209 12.0313 22.637C12.0313 22.6692 12.0313 22.7014 12.063 22.7578C12.0709 22.7819 12.0709 22.798 12.063 22.8302C12.0551 22.8543 12.0551 22.8785 12.0551 22.9107C12.063 22.967 12.1026 23.0153 12.1501 23.0636C12.166 23.0797 12.1739 23.0957 12.1897 23.1038C12.2056 23.1199 12.2056 23.1199 12.2056 23.1199C12.2056 23.1279 12.2056 23.1279 12.2056 23.136C12.2056 23.144 12.2056 23.1601 12.2056 23.1762C12.2056 23.2647 12.261 23.2969 12.2848 23.305C12.3006 23.3452 12.3165 23.3935 12.3165 23.4096C12.261 23.4901 12.2689 23.6269 12.3244 23.6912C12.3402 23.7154 12.364 23.7315 12.3798 23.7395C12.4036 23.7556 12.4115 23.7637 12.4194 23.7798C12.4273 23.8039 12.4511 23.8763 12.4828 23.9488C12.5303 24.0856 12.5541 24.166 12.5699 24.1982C12.5778 24.2143 12.5699 24.2546 12.562 24.2707C12.5541 24.2787 12.5461 24.2868 12.5303 24.2948C12.4669 24.3431 12.3719 24.4236 12.3481 24.5201C12.3085 24.6408 12.3323 24.7052 12.3798 24.7937C12.364 24.8098 12.3402 24.842 12.3244 24.8903C12.3165 24.9064 12.3165 24.9225 12.3085 24.9386C12.2848 25.003 12.2769 25.0352 12.2927 25.1156C12.2927 25.1398 12.2927 25.1559 12.2927 25.172C12.2927 25.2363 12.3006 25.2927 12.3481 25.4375C12.3957 25.5824 12.459 25.6307 12.5303 25.6709C12.5541 25.687 12.5699 25.695 12.5857 25.7111C12.6095 25.7353 12.6095 25.7433 12.6095 25.7675C12.6095 25.7916 12.6095 25.8238 12.6253 25.864C12.6412 25.8962 12.6808 25.9445 12.7521 26.025C12.8075 26.0894 12.8867 26.1698 12.958 26.2584C13.0134 26.3227 13.0293 26.3549 13.0372 26.371C13.0293 26.3791 13.0293 26.3952 13.0293 26.4113C13.0214 26.4837 13.0451 26.5159 13.0847 26.5883C13.0926 26.6044 13.1085 26.6285 13.1243 26.6607C13.1481 26.701 13.1718 26.7412 13.1956 26.7734C13.251 26.8458 13.2906 26.9102 13.2827 26.9746C13.2669 27.0872 13.2986 27.1355 13.3382 27.1838C13.354 27.1999 13.3619 27.216 13.3778 27.2401C13.4174 27.3448 13.5362 27.4413 13.647 27.5299C13.6946 27.562 13.7342 27.6023 13.7738 27.6345C13.8926 27.7391 13.9401 27.7874 14.0668 27.9725C14.1539 28.1093 14.2331 28.1817 14.2886 28.2219C14.2727 28.238 14.2648 28.2461 14.2569 28.2541C14.2331 28.2944 14.2331 28.3426 14.2569 28.399C14.2648 28.4151 14.2727 28.4312 14.2886 28.4553C14.3044 28.4875 14.3282 28.5197 14.344 28.5599C14.3836 28.6645 14.4628 28.6726 14.5104 28.6726C14.5262 28.6726 14.542 28.6726 14.5579 28.6806C14.5737 28.6887 14.5896 28.6967 14.5975 28.6967C14.6688 28.7289 14.74 28.7611 14.8192 28.7611C14.8588 28.7611 14.9143 28.7531 14.9697 28.745C15.0331 28.737 15.1123 28.7209 15.1677 28.7209C15.1994 28.7209 15.2311 28.7289 15.2628 28.745C15.3182 28.7611 15.3895 28.7852 15.4845 28.7772H15.5241C15.6113 28.7691 15.6033 28.7691 15.7301 28.7852H15.7617C15.7776 28.7852 15.8013 28.7852 15.8251 28.7852C15.9994 28.7852 16.3874 28.7128 16.4825 28.6082C16.5538 28.5358 16.6884 28.4231 16.8072 28.3587L16.9102 28.3024C17.0686 28.2219 17.1795 28.1575 17.227 28.1254C17.3062 28.069 17.2983 27.9805 17.2983 27.9322C17.2983 27.9161 17.2983 27.9 17.2983 27.8839C17.2983 27.8678 17.3062 27.8517 17.33 27.8196C17.3537 27.7874 17.3775 27.7552 17.3933 27.6988C17.4012 27.6828 17.4012 27.6747 17.4092 27.6586C17.4329 27.6023 17.4567 27.5459 17.4329 27.4494C17.4646 27.4413 17.5042 27.4252 17.5517 27.393C17.5913 27.3609 17.7101 27.3206 17.7972 27.2965C17.8685 27.2723 17.924 27.2562 17.9636 27.2401C18.0032 27.216 18.0428 27.1999 18.0586 27.1436C18.0745 27.0953 18.0507 27.0631 18.0349 27.0309L18.0269 27.0148C18.019 26.9907 18.0348 26.9022 18.0428 26.8619C18.0507 26.8136 18.0586 26.7734 18.0586 26.7332C18.0665 26.6607 18.0586 26.5964 18.019 26.5561C17.9952 26.532 17.9636 26.5239 17.9398 26.5239C17.9319 26.5078 17.924 26.4917 17.916 26.4595C17.9081 26.4354 17.9002 26.4193 17.8923 26.3952C17.8685 26.3388 17.8606 26.3147 17.8606 26.2906C17.8923 26.2745 17.9556 26.2503 18.0032 26.2423C18.0665 26.2181 18.1299 26.202 18.1695 26.1779C18.2329 26.1377 18.2645 26.1135 18.2962 26.0733C18.3121 26.0572 18.3279 26.0411 18.3596 26.0169C18.415 25.9606 18.5021 25.8882 18.5338 25.8721C18.5417 25.864 18.5576 25.864 18.5734 25.856C18.613 25.8399 18.6764 25.8077 18.7477 25.7675C18.819 25.7272 18.8586 25.695 18.8982 25.6709C18.9061 25.6629 18.914 25.6629 18.9219 25.6548C18.9536 25.6629 19.0011 25.6709 19.0486 25.6468C19.0962 25.6226 19.1833 25.5582 19.2783 25.5019L19.3654 25.4456C19.4526 25.3892 19.4763 25.3088 19.4842 25.2605C19.4922 25.18 19.4605 25.0995 19.3971 25.0432C19.3575 25.003 19.3575 25.003 19.3654 24.9064C19.3734 24.834 19.3734 24.7857 19.3417 24.7455C19.3338 24.7374 19.3258 24.7294 19.3179 24.7213C19.3417 24.6408 19.3417 24.5523 19.3021 24.4799C19.2783 24.4397 19.2704 24.3914 19.2704 24.3189C19.2704 24.2546 19.2466 24.15 19.1199 24.0614C19.0882 24.0373 19.0645 23.9971 19.0566 23.9407C19.0407 23.8522 18.9615 23.8281 18.9219 23.82C18.914 23.82 18.9061 23.82 18.9061 23.812C18.8982 23.7637 18.914 23.6269 18.9378 23.5786C18.9615 23.5384 18.9694 23.4901 18.9615 23.4418C18.9378 23.3613 18.8744 23.305 18.8348 23.2808C18.8269 23.2567 18.8348 23.1682 18.8744 23.0877C18.914 23.0072 18.9694 22.975 19.0328 22.9268C19.0486 22.9187 19.0566 22.9107 19.0724 22.9026C19.1278 22.8704 19.1754 22.806 19.2308 22.7417C19.2546 22.7095 19.2942 22.6531 19.31 22.6451C19.3892 22.5968 19.4684 22.4761 19.4605 22.3312C19.4684 22.3312 19.4684 22.3312 19.4763 22.3312C19.4922 22.3232 19.5238 22.3232 19.5476 22.3071C19.6506 22.2508 19.6506 22.1462 19.6506 22.0657C19.6664 22.0576 19.6902 22.0496 19.7139 22.0335C19.809 21.9772 19.9357 21.8564 19.9911 21.7518C20.0228 21.6955 20.1416 21.6231 20.2446 21.5587L20.2842 21.5346C20.4822 21.4138 20.5139 21.277 20.5218 21.2368C20.5218 21.2207 20.5614 21.1724 20.6485 21.1483C20.799 21.1161 20.9653 21.0034 21.0445 20.8827C21.0841 20.8183 21.1317 20.7218 21.1871 20.6252C21.2188 20.5689 21.2425 20.5125 21.2742 20.4643C21.2901 20.4321 21.3138 20.3999 21.3376 20.3596C21.4168 20.2389 21.5039 20.1021 21.4643 19.9573C21.4485 19.909 21.4564 19.8446 21.591 19.7319C21.694 19.6515 21.6861 19.5629 21.6781 19.5066C21.6781 19.4744 21.6702 19.4503 21.6781 19.4181C21.6861 19.394 21.6861 19.394 21.7178 19.3859C21.7494 19.3779 21.8049 19.3537 21.8366 19.2893C21.8682 19.2169 21.8524 19.1364 21.8366 19.0721C21.8366 19.064 21.8366 19.064 21.8286 19.056C21.8524 19.0399 21.892 19.0157 21.9158 18.9996C21.9316 18.9916 21.9474 18.9835 21.9554 18.9755C21.995 18.9513 22.0108 18.9111 22.0029 18.8628C21.995 18.8065 21.9474 18.7421 21.892 18.7099C21.892 18.7019 21.8841 18.6858 21.8841 18.6697C21.8762 18.6375 21.8762 18.6053 21.8603 18.5651C21.8366 18.4766 21.7653 18.4283 21.6861 18.4283C21.6385 18.4283 21.5989 18.4444 21.5593 18.4766C21.5039 18.5168 21.4405 18.549 21.3772 18.5812C21.3534 18.5892 21.3376 18.5973 21.3217 18.6053C21.2901 18.6214 21.2584 18.6375 21.2188 18.6616C21.195 18.6777 21.0762 18.6858 20.9733 18.7019C20.9336 18.7099 20.8782 18.7099 20.8307 18.718C20.7356 18.726 20.6168 18.7421 20.498 18.7502C20.3396 18.7663 20.1812 18.7743 20.0783 18.7984C20.0545 18.8065 20.0307 18.8065 20.0149 18.8065C19.9436 18.8065 19.9199 18.7824 19.8723 18.726C19.8486 18.7019 19.8486 18.6616 19.8486 18.5892C19.8486 18.5731 19.8486 18.5651 19.8486 18.549C19.8723 18.557 19.8961 18.5651 19.9278 18.5651C19.9991 18.5651 20.0624 18.5329 20.1416 18.5007C20.2208 18.4605 20.2763 18.4202 20.3238 18.38C20.3476 18.3558 20.3792 18.3397 20.3951 18.3317C20.4109 18.3237 20.4505 18.3237 20.4822 18.3237C20.5456 18.3237 20.6248 18.3156 20.696 18.2834C20.7277 18.2673 20.7515 18.2512 20.7832 18.2432C20.8544 18.2029 20.9257 18.1627 20.997 18.1547C21.1079 18.1386 21.1633 18.0983 21.2109 18.05C21.2267 18.0339 21.2425 18.0179 21.2663 18.0098C21.3376 17.9615 21.4326 17.9052 21.5752 17.8408C21.6385 17.8086 21.7177 17.7845 21.7811 17.7684C21.8366 17.7523 21.8841 17.7362 21.9078 17.7201C21.987 17.6799 22.0425 17.6074 22.09 17.4867C22.1058 17.4465 22.1058 17.4465 22.1375 17.4384C22.1534 17.4304 22.1771 17.4223 22.2009 17.4143C22.2722 17.3741 22.2722 17.3741 22.3038 17.366C22.3355 17.3499 22.3672 17.3338 22.4068 17.3016C22.4226 17.2855 22.4464 17.2694 22.4781 17.2533C22.5098 17.2292 22.5573 17.2212 22.5969 17.2131C22.6523 17.2051 22.7078 17.189 22.7553 17.1568C22.8028 17.1246 22.8187 17.0924 22.8266 17.0763C22.8345 17.0602 22.8424 17.0522 22.9058 17.0361C22.985 17.0119 23.0404 16.9958 23.0642 16.9475C23.0879 16.8993 23.0721 16.859 23.0642 16.8429C23.0563 16.8349 23.0563 16.8188 23.0563 16.8107C23.0483 16.7544 23.0483 16.7544 23.08 16.7142C23.0879 16.7142 23.1038 16.7222 23.1117 16.7303C23.1434 16.7464 23.183 16.7705 23.2305 16.7705C23.2464 16.7705 23.2543 16.7705 23.2622 16.7705C23.2939 16.7625 23.3335 16.7464 23.3572 16.7142C23.381 16.6739 23.3731 16.6257 23.3652 16.5935C23.3572 16.5774 23.3572 16.5613 23.3572 16.5291C23.3493 16.4084 23.286 16.2877 23.2384 16.2233C23.2543 16.2313 23.278 16.2394 23.2939 16.2474H23.3176C23.3493 16.2474 23.381 16.2313 23.4048 16.2072C23.4206 16.183 23.4602 16.1348 23.4127 15.9094C23.4127 15.8933 23.4127 15.8853 23.4444 15.8451C23.4681 15.8129 23.4919 15.7807 23.5077 15.7243C23.5473 15.6036 23.5156 15.5554 23.4602 15.491C23.4523 15.4749 23.4364 15.4588 23.4206 15.4427L23.3889 15.3944C23.3176 15.2898 23.2543 15.2013 23.1751 15.1932C23.1275 15.1852 22.8583 15.1369 22.7791 15.1127C22.7632 15.0725 22.7474 14.9679 22.7315 14.8552C22.7632 14.8633 22.7949 14.8713 22.8187 14.8794C22.8424 14.8874 22.8583 14.8874 22.8741 14.8955C22.9216 14.9116 22.9612 14.9116 22.9929 14.9196C23.0246 14.9196 23.0563 14.9277 23.1117 14.9438C23.2305 14.984 23.3968 15.0001 23.5156 15.0001C23.5473 15.0001 23.5711 15.0001 23.5948 15.0001C23.7057 14.992 23.7532 14.9518 23.7928 14.9116C23.8087 14.8955 23.8166 14.8874 23.8324 14.8794C23.88 14.8552 23.9513 14.8391 24.0305 14.8391C24.0463 14.8391 24.0621 14.8391 24.078 14.8391C24.173 14.8472 24.2205 14.8391 24.2839 14.815C24.2997 14.815 24.3156 14.8069 24.3393 14.7989C24.3869 14.7909 24.4423 14.7748 24.4898 14.7506C24.5294 14.7345 24.5849 14.7184 24.6166 14.7104C24.6245 14.7184 24.6403 14.7426 24.6562 14.7587C24.672 14.7828 24.6799 14.7989 24.7037 14.823C24.7274 14.8472 24.7591 14.8633 24.775 14.8713C24.8066 14.9277 24.8938 15.0242 24.973 15.0645C25.0126 15.0806 25.0442 15.0967 25.0759 15.1127C25.1076 15.1288 25.1314 15.1369 25.171 15.153C25.1868 15.161 25.1947 15.1691 25.2026 15.1691C25.2106 15.1771 25.2264 15.1932 25.2581 15.2174C25.2818 15.2335 25.3056 15.2415 25.3294 15.2415C25.2818 15.3381 25.3056 15.4025 25.3452 15.4507C25.3769 15.491 25.4165 15.499 25.464 15.5151C25.4878 15.5232 25.5195 15.5312 25.5274 15.5393C25.5353 15.5473 25.5432 15.5554 25.5511 15.5714C25.5749 15.6036 25.5987 15.6439 25.6699 15.668C25.6858 15.6761 25.7016 15.6761 25.7175 15.6761C25.8204 15.6761 25.8521 15.5714 25.8679 15.5232C25.8679 15.5151 25.8679 15.5151 25.8759 15.5071C25.8838 15.5312 25.8917 15.5554 25.9075 15.5714C25.9234 15.6036 25.9392 15.6278 25.9471 15.6761C25.9709 15.7646 26.0263 15.9738 26.058 16.1589C26.0897 16.3199 26.1452 16.4084 26.1848 16.4728C26.1927 16.4888 26.2006 16.4969 26.2085 16.513C26.2164 16.5371 26.2323 16.5693 26.2402 16.6015C26.256 16.6417 26.264 16.69 26.2877 16.7303C26.3036 16.7705 26.3273 16.7947 26.3511 16.8268C26.3828 16.859 26.4065 16.8912 26.4224 16.9475C26.4461 17.0119 26.4857 17.0602 26.5253 17.1085C26.557 17.1487 26.5966 17.189 26.6124 17.2373C26.6283 17.2775 26.6441 17.3177 26.66 17.3499C26.6837 17.4143 26.7075 17.4626 26.7392 17.527L26.7471 17.535C26.7946 17.6316 26.8817 17.7925 26.9689 17.8971C27.0639 18.0098 27.1352 18.1386 27.1431 18.1868C27.1589 18.2432 27.1985 18.2995 27.2381 18.3558C27.2619 18.3961 27.2936 18.4283 27.3094 18.4685C27.3569 18.557 27.4124 18.5731 27.4599 18.5731C27.5153 18.5731 27.555 18.549 27.5866 18.5248C27.5946 18.5168 27.6025 18.5168 27.6104 18.5087C27.6817 18.4685 27.6896 18.3961 27.6896 18.3558C27.6896 18.3317 27.6975 18.2995 27.7054 18.2754C27.7292 18.2673 27.753 18.2512 27.7688 18.2271C27.7688 18.2432 27.7688 18.2593 27.7688 18.2834C27.7688 18.3076 27.7767 18.3478 27.7767 18.4202C27.7767 18.4202 27.7846 18.5168 27.7846 18.557C27.7926 18.6134 27.8242 18.6375 27.8401 18.6536C27.848 18.6616 27.8559 18.6697 27.8718 18.6858C27.8797 18.7019 27.8797 18.718 27.8876 18.7421C27.8955 18.7743 27.9034 18.8226 27.9351 18.8628C27.9589 18.895 27.9985 18.9111 28.0381 18.9111C28.0698 18.9111 28.1014 18.9031 28.1331 18.887C28.149 18.8789 28.1648 18.8789 28.1806 18.8709C28.2282 18.8628 28.3074 18.8226 28.2836 18.7019C28.2836 18.6858 28.2757 18.6777 28.2836 18.6697C28.3074 18.557 28.3153 18.4926 28.2836 18.4363V18.4283C28.2836 18.4202 28.2836 18.4122 28.2836 18.4041V18.388C28.2836 18.3478 28.2915 18.2834 28.2678 18.219C28.2598 18.1949 28.2519 18.1708 28.2519 18.1466C28.244 18.1144 28.2361 18.0903 28.2282 18.0661L28.2202 18.0581C28.1886 18.0178 28.149 18.0098 28.1173 18.0018C28.1014 18.0018 28.0935 17.9937 28.0856 17.9937C28.0777 17.9857 28.0618 17.9696 28.0222 17.8971L28.0143 17.8891C27.9985 17.8489 27.9589 17.8328 27.9193 17.8328C27.9114 17.8328 27.9114 17.8328 27.9034 17.8328C27.9272 17.8167 27.9351 17.7845 27.943 17.7362C27.951 17.6638 27.9193 17.5994 27.8876 17.535C27.8797 17.5189 27.8718 17.5028 27.8638 17.4867C27.8638 17.4626 27.8876 17.3982 27.8955 17.366C27.9114 17.3097 27.9272 17.2694 27.9272 17.2292C27.9193 17.189 27.9114 17.0924 27.9114 17.02C27.9114 17.0039 27.9114 16.9878 27.9114 16.9717C27.9114 16.9234 27.9114 16.859 27.8797 16.8027C27.8718 16.7866 27.8638 16.7786 27.8638 16.7786C27.8638 16.7705 27.8638 16.7544 27.8638 16.7303V16.6981C27.8638 16.6337 27.8559 16.5774 27.848 16.5291C27.848 16.5049 27.8401 16.4808 27.8401 16.4728C27.8401 16.4567 27.8718 16.4245 27.8876 16.3923C27.9114 16.3601 27.9351 16.3279 27.9589 16.2877C27.9985 16.2072 28.0222 16.1187 28.0222 16.0221H28.0302C28.046 16.0141 28.0698 16.006 28.0856 15.998C28.141 15.9577 28.1569 15.8853 28.1727 15.7887C28.1727 15.7726 28.2044 15.7163 28.2202 15.6922C28.244 15.6439 28.2678 15.6036 28.2757 15.5634L28.2836 15.5232C28.2994 15.4749 28.3074 15.4266 28.3232 15.3783C28.3232 15.3622 28.3311 15.3542 28.3391 15.3381C28.3549 15.3139 28.3787 15.2656 28.3707 15.2093C28.3866 15.2013 28.3945 15.1932 28.3945 15.1852C28.4262 15.1449 28.4262 15.0967 28.4262 15.0806C28.4262 15.0806 28.4262 15.0725 28.4341 15.0564C28.4499 15.0242 28.4737 14.9759 28.4658 14.9035C28.4579 14.8633 28.4579 14.8311 28.4579 14.7828C28.4579 14.7506 28.4579 14.7104 28.4499 14.6701C28.4499 14.654 28.4499 14.646 28.4499 14.646C28.4499 14.646 28.4579 14.638 28.4737 14.638C28.545 14.6219 28.5608 14.5575 28.5687 14.5333C28.5767 14.5172 28.5767 14.5092 28.5846 14.4851C28.5925 14.469 28.5925 14.469 28.6004 14.469C28.6163 14.4609 28.6559 14.4448 28.6717 14.3965C28.6796 14.3804 28.7192 14.3482 28.7509 14.3241C28.7509 14.3322 28.7588 14.3402 28.7588 14.3402C28.7905 14.4126 28.838 14.4207 28.8618 14.4207C28.8935 14.4207 28.9172 14.4046 28.9331 14.3965C28.9489 14.4207 28.9727 14.469 28.9885 14.4931C29.0123 14.5333 29.0281 14.5655 29.0519 14.5897C29.0915 14.638 29.1311 14.638 29.1548 14.638C29.1628 14.6621 29.1707 14.6943 29.1865 14.7184C29.2024 14.7506 29.2182 14.7667 29.234 14.7828C29.2499 14.7989 29.2657 14.815 29.2816 14.8552C29.2974 14.8955 29.337 14.9598 29.4083 14.9518C29.4162 14.9759 29.44 15.0081 29.4637 15.0806C29.4716 15.1047 29.4796 15.1852 29.4875 15.2496C29.4954 15.3622 29.5112 15.4749 29.5429 15.5473C29.5825 15.6278 29.63 15.7324 29.7409 15.7324C29.7568 15.7324 29.7805 15.7324 29.8043 15.7243C29.9389 15.6841 29.9152 15.5393 29.8993 15.4749C29.8993 15.4588 29.8914 15.4427 29.8914 15.4266C29.8914 15.4185 29.8993 15.4105 29.8993 15.3944C29.9152 15.4427 29.931 15.491 29.9389 15.5232C29.9627 15.5956 29.9706 15.6358 29.9785 15.66C29.9944 15.6922 30.0102 15.7163 30.0419 15.7485C30.0815 15.7968 30.129 15.8531 30.1211 15.9014C30.1211 15.998 30.1369 16.183 30.2399 16.2796C30.2795 16.3118 30.2953 16.3842 30.3112 16.5371C30.327 16.6739 30.3191 16.7464 30.3112 16.7705C30.2478 16.8268 30.2082 16.9556 30.2637 17.0522C30.2716 17.0763 30.2953 17.1085 30.3191 17.1487C30.3587 17.2131 30.4062 17.2855 30.4379 17.3499C30.4696 17.4223 30.5092 17.4626 30.5409 17.4948C30.5646 17.5189 30.5805 17.535 30.6042 17.5752C30.628 17.6235 30.6359 17.7201 30.6438 17.7925C30.6518 17.8569 30.6518 17.9052 30.6676 17.9454C30.6676 17.9454 30.7468 18.2029 30.8498 18.38C30.8339 18.388 30.8181 18.3961 30.8102 18.4041C30.7785 18.3478 30.7389 18.2995 30.6993 18.2834C30.6914 18.2754 30.6834 18.2593 30.6834 18.2512C30.6755 18.2351 30.6676 18.211 30.6518 18.1868C30.6438 18.1708 30.628 18.1547 30.6201 18.1466C30.6201 18.1386 30.6122 18.1305 30.6122 18.1305C30.6122 18.1305 30.6122 18.1225 30.6122 18.1064C30.6122 18.0581 30.6122 17.9374 30.4854 17.873C30.4617 17.8569 30.4379 17.8569 30.4141 17.8569C30.3429 17.8569 30.3033 17.9132 30.2874 17.9535C30.2795 17.9374 30.2716 17.9293 30.2637 17.9132C30.232 17.881 30.2082 17.873 30.1845 17.873C30.1528 17.873 30.1211 17.8891 30.1053 17.9213C30.0736 17.9696 30.0815 18.05 30.0973 18.0822C30.1053 18.0983 30.1053 18.1064 30.1132 18.1225C30.1211 18.1386 30.1369 18.1627 30.1369 18.1708C30.129 18.219 30.1211 18.2915 30.1449 18.3639C30.1686 18.4202 30.2003 18.4766 30.2953 18.4846C30.2953 18.4926 30.3033 18.5007 30.3033 18.5087C30.2637 18.5168 30.232 18.557 30.2161 18.5812C30.2082 18.5892 30.2003 18.6053 30.2003 18.6134C30.1211 18.6938 30.1924 18.7904 30.2241 18.8306C30.232 18.8387 30.2399 18.8548 30.2478 18.8628L30.2716 18.9192H30.327C30.3349 18.9513 30.3429 18.9755 30.3587 19.0077C30.3666 19.0238 30.3745 19.0318 30.3825 19.0479C30.3983 19.0962 30.4379 19.1364 30.5092 19.1364C30.4775 19.1847 30.4933 19.233 30.5013 19.2732C30.5092 19.2893 30.5092 19.3135 30.5171 19.3457C30.525 19.402 30.5726 19.4583 30.6359 19.4583C30.6518 19.4583 30.6676 19.4583 30.6914 19.4503H30.6993C30.7072 19.4905 30.7072 19.5469 30.7072 19.5629C30.6993 19.6354 30.7468 19.7239 30.8577 19.8446C30.8656 19.8527 30.8656 19.8607 30.8656 19.8607V19.8687C30.8656 19.8929 30.8577 19.9331 30.8814 19.9975C30.9131 20.086 30.9606 20.1021 31.0002 20.1021C31.0557 20.1021 31.0874 20.0619 31.1111 20.0297C31.119 20.0216 31.127 20.0136 31.1349 20.0056C31.2062 19.9412 31.222 19.8366 31.222 19.7722C31.222 19.748 31.222 19.7319 31.222 19.6998C31.222 19.6595 31.222 19.6193 31.2299 19.5951C31.2379 19.579 31.2458 19.5629 31.2537 19.5549C31.2695 19.5308 31.2854 19.4986 31.3012 19.4422C31.2933 19.394 31.2695 19.2893 31.2378 19.1445ZM12.4036 7.28265L12.3957 7.2746H12.4036V7.28265ZM12.261 8.04715C12.2531 8.06325 12.1897 8.09544 12.166 8.11153C12.1422 8.11958 12.1264 8.13567 12.1105 8.14372C12.1264 8.11958 12.1422 8.10348 12.1501 8.07934C12.158 8.06325 12.166 8.0552 12.2135 8.02301L12.2769 7.98277C12.3085 7.95863 12.3323 7.95058 12.3561 7.92644C12.3165 7.96668 12.2848 8.01496 12.261 8.04715ZM17.8289 10.067C17.9002 10.0188 17.9398 10.0107 17.9398 10.0107C17.9715 10.0027 17.9952 10.0027 18.019 9.99462V10.0027C18.019 10.0268 18.019 10.059 18.0428 10.0912C18.0348 10.0912 18.0269 10.0912 18.019 10.0912C17.9952 10.0912 17.9636 10.0992 17.9319 10.1314C17.916 10.1153 17.8844 10.0992 17.8448 10.0992C17.821 10.0992 17.7972 10.1073 17.7735 10.1073C17.7656 10.1073 17.7576 10.1073 17.7497 10.1153C17.7418 10.1073 17.7418 10.0992 17.7339 10.0992C17.7735 10.0992 17.8052 10.0912 17.8289 10.067ZM16.6409 7.16194C16.633 7.16194 16.633 7.16194 16.6251 7.16194L16.5934 7.16999C16.5775 7.16999 16.5617 7.16999 16.5379 7.16194C16.5538 7.16194 16.5934 7.15389 16.6409 7.16194ZM16.5617 10.5579C16.5855 10.5096 16.6884 10.3728 16.728 10.3326C16.7439 10.3165 16.7755 10.3004 16.7993 10.2843C16.8231 10.2682 16.8468 10.2521 16.8785 10.236C16.9339 10.1958 16.9735 10.1636 17.0131 10.0831C17.029 10.0509 17.0765 10.0268 17.1161 10.0107C17.1399 10.0107 17.1715 10.0268 17.1953 10.0349C17.1478 10.0751 17.1082 10.1234 17.1161 10.1797C17.124 10.2199 17.1478 10.2602 17.1874 10.2763C17.2191 10.2924 17.2666 10.3004 17.3141 10.2924V10.3085C17.322 10.4694 17.4092 10.4855 17.4488 10.4855C17.4725 10.4855 17.4963 10.4775 17.52 10.4614L17.5359 10.4533C17.5834 10.4211 17.6151 10.405 17.6626 10.405H17.6784C17.6943 10.405 17.718 10.405 17.7418 10.405C17.7656 10.405 17.7893 10.405 17.8052 10.405C17.8606 10.405 17.9002 10.397 17.924 10.3728C17.9319 10.3728 17.9477 10.3809 17.9556 10.3809C18.019 10.397 18.1457 10.4211 18.2091 10.4855C18.2804 10.5499 18.3121 10.6062 18.3517 10.6625L18.3675 10.6867C18.4071 10.743 18.4705 10.7591 18.5259 10.7752C18.5734 10.7913 18.6209 10.7994 18.6526 10.8396C18.7239 10.912 18.7556 11.0247 18.7477 11.0569C18.7397 11.081 18.6843 11.1212 18.6368 11.1212H18.6289C18.613 11.1212 18.5972 11.1132 18.5893 11.1052C18.5576 11.0891 18.5021 11.073 18.4229 11.1052C18.3358 11.1373 18.2804 11.1534 18.2012 11.1373C18.1457 11.1293 18.0982 11.1052 18.0507 11.073C18.019 11.0569 17.9794 11.0327 17.9398 11.0166C17.821 10.9683 17.5755 10.9281 17.5042 10.9201L17.4646 10.912C17.4012 10.904 17.3062 10.8959 17.2349 10.8959C17.2032 10.8959 17.1715 10.8959 17.1557 10.904C17.1399 10.904 17.124 10.912 17.1161 10.912C17.0686 10.9201 17.0052 10.9281 16.9498 10.9925C16.926 11.0247 16.8627 11.0408 16.7518 11.0488C16.7043 11.0488 16.6647 11.0569 16.6251 11.0569C16.5696 11.0649 16.5142 11.0649 16.4904 11.0649H16.4825C16.4825 11.0569 16.4825 11.0488 16.4746 11.0408C16.4666 11.0166 16.4587 10.9603 16.4191 10.9362C16.4191 10.9281 16.4191 10.9281 16.427 10.9201C16.4429 10.8718 16.4587 10.8154 16.4508 10.7672C16.4587 10.735 16.5062 10.6545 16.53 10.6223C16.5379 10.5982 16.5538 10.574 16.5617 10.5579ZM16.427 6.28478C16.4429 6.29282 16.4587 6.29282 16.4746 6.29282C16.4825 6.29282 16.4904 6.29282 16.4983 6.29282L16.4904 6.30087C16.4746 6.30087 16.4587 6.30087 16.435 6.30892C16.4191 6.31697 16.4033 6.31696 16.3874 6.32501C16.4033 6.31696 16.4191 6.30087 16.427 6.28478ZM16.039 12.2398L16.0469 12.2318C16.0469 12.2398 16.0469 12.2479 16.039 12.2559C16.039 12.2559 16.039 12.2559 16.039 12.264C16.039 12.264 16.039 12.2559 16.0469 12.2479C16.039 12.2479 16.039 12.2479 16.039 12.2398ZM16.0231 12.1996L16.0152 12.2076C16.0073 12.2076 15.9914 12.2076 15.9756 12.2076C15.9518 12.2157 15.9518 12.2237 15.9677 12.2479H15.9598C15.9598 12.2398 15.9518 12.2318 15.9518 12.2237C15.9598 12.2076 15.9756 12.1835 16.0073 12.1835C16.0152 12.1915 16.0231 12.1996 16.0231 12.1996ZM15.3895 11.411C15.4133 11.4029 15.437 11.3949 15.4608 11.3868C15.54 11.3546 15.6588 11.3305 15.7459 11.3224C15.7063 11.3707 15.6905 11.4351 15.6984 11.4914C15.6667 11.5317 15.6667 11.5719 15.6667 11.6121C15.6667 11.6202 15.6667 11.6363 15.6588 11.6443C15.6509 11.6524 15.6192 11.6846 15.6192 11.7248C15.6192 11.7409 15.6192 11.765 15.635 11.7892C15.6192 11.7972 15.6033 11.8133 15.5875 11.8294C15.5875 11.8214 15.5875 11.8133 15.5796 11.7972C15.5558 11.7248 15.5083 11.6846 15.4449 11.6202C15.4133 11.588 15.3737 11.5478 15.3182 11.4914C15.3024 11.4753 15.2945 11.4673 15.2945 11.4592C15.3182 11.4431 15.3578 11.427 15.3895 11.411ZM13.9401 10.3407C13.9718 10.3326 13.9955 10.3085 14.0193 10.2843C14.0272 10.3004 14.0351 10.3085 14.0351 10.3246C14.0431 10.3407 14.051 10.3648 14.0589 10.3889C14.0589 10.397 14.051 10.397 14.051 10.405C14.0351 10.4211 14.0114 10.4533 13.9955 10.4855C13.9876 10.5016 13.9639 10.5579 13.9876 10.6062C14.0114 10.6545 14.0668 10.6545 14.0906 10.6545C14.1064 10.6545 14.1223 10.6545 14.146 10.6625C14.1539 10.6625 14.1539 10.6625 14.1619 10.6706C14.1777 10.6947 14.2015 10.7108 14.2569 10.743C14.2886 10.7591 14.3123 10.7672 14.3282 10.7752C14.3757 10.7994 14.4074 10.8154 14.4391 10.8235C14.4945 10.8476 14.5816 10.8798 14.6292 10.9281C14.6371 10.9362 14.645 10.9442 14.645 10.9442C14.645 10.9523 14.6371 10.9764 14.6292 10.9925C14.6292 11.0005 14.6212 11.0166 14.6133 11.0247C14.5896 11.0891 14.5896 11.1534 14.5975 11.2339C14.5975 11.242 14.5975 11.2581 14.5975 11.2661C14.5975 11.2581 14.5975 11.242 14.5896 11.2339C14.5737 11.1856 14.5024 11.0569 14.3995 11.0086C14.3757 11.0005 14.3519 10.9925 14.3361 10.9844C14.2965 10.9683 14.2886 10.9683 14.2807 10.9603L14.2648 10.9201C14.2411 10.8637 14.2094 10.7994 14.1698 10.7591C14.1381 10.7108 14.0668 10.6867 13.9955 10.6545C13.9718 10.6465 13.9401 10.6304 13.9243 10.6223C13.9163 10.5901 13.9163 10.4936 13.9322 10.3889C13.9401 10.3728 13.9401 10.3567 13.9401 10.3407ZM17.4012 13.5516C17.3775 13.5837 17.3458 13.624 17.33 13.6401C17.322 13.6401 17.3062 13.6401 17.2983 13.632C17.2587 13.624 17.1636 13.6159 17.1399 13.5998C17.1319 13.5918 17.124 13.5837 17.1082 13.5677C17.0527 13.5113 16.9735 13.4308 16.8785 13.4308C16.8706 13.4308 16.8627 13.4308 16.8468 13.4308C16.7676 13.4469 16.435 13.5355 16.3003 13.5837C16.2845 13.5918 16.2686 13.5918 16.2528 13.5918C16.1578 13.5918 16.0231 13.5274 15.9598 13.4872C15.9122 13.455 15.8647 13.4389 15.8013 13.4389C15.7459 13.4389 15.6825 13.455 15.635 13.463L15.6192 13.4711C15.6113 13.4711 15.5954 13.4469 15.5796 13.4308C15.5558 13.3987 15.5162 13.3665 15.4687 13.3343C15.3974 13.286 15.3182 13.2779 15.2311 13.294C15.2153 13.294 15.1915 13.3021 15.1757 13.3021C15.1677 13.3021 15.1598 13.3021 15.1519 13.3021C15.144 13.294 15.1361 13.2699 15.1361 13.2538C15.1281 13.2297 15.1202 13.1975 15.1044 13.1733C15.0806 13.1411 15.041 13.0768 14.6925 13.0768C14.6688 13.0768 14.645 13.0768 14.6212 13.0768C14.4945 13.0848 14.4074 13.0929 14.4074 13.2458C14.4074 13.294 14.3757 13.463 14.3519 13.5596C14.344 13.5677 14.3123 13.5918 14.1777 13.624H14.1698C14.1539 13.6159 14.1064 13.5998 14.0747 13.5837C14.0114 13.5516 13.9718 13.5355 13.9322 13.5355H13.9243C13.9084 13.5355 13.8609 13.5355 13.8451 13.5274C13.8134 13.4711 13.7579 13.455 13.7104 13.4469C13.6946 13.4389 13.6708 13.4308 13.647 13.4228C13.6154 13.4067 13.6074 13.3584 13.5995 13.286L13.5916 13.2538C13.5758 13.125 13.4728 13.0687 13.3461 12.9963L13.2986 12.9721C13.251 12.94 13.1956 12.9319 13.1322 12.9319C13.0293 12.9319 12.9422 12.9802 12.9025 12.9963C12.8709 12.9882 12.7837 12.948 12.7045 12.8353C12.6808 12.7951 12.6808 12.7951 12.7204 12.7549C12.7521 12.7307 12.7917 12.6905 12.7917 12.6261C12.8075 12.61 12.8392 12.5859 12.8629 12.5617C12.8788 12.5537 12.8946 12.5376 12.9105 12.5295C12.958 12.4893 12.9738 12.4491 12.9738 12.4249C12.9818 12.3525 12.9342 12.2962 12.9025 12.2559C12.8946 12.2398 12.8788 12.2318 12.8709 12.2157C12.8709 12.1996 12.9184 12.1513 12.9422 12.1191L12.9738 12.0869C13.0293 12.0306 13.0214 11.9743 13.0134 11.9421C12.9897 11.8857 12.9422 11.8697 12.8867 11.8616C12.8867 11.8294 12.8867 11.7892 12.855 11.757C12.8313 11.7329 12.7996 11.7168 12.76 11.7168C12.8075 11.7007 12.855 11.6524 12.855 11.5236C12.8629 11.5156 12.8788 11.5156 12.8867 11.5075C12.9738 11.4673 12.9738 11.3868 12.9738 11.3385C12.9738 11.3224 12.9738 11.3063 12.9738 11.2902C12.9738 11.2581 12.9818 11.2178 12.9976 11.1776C13.0134 11.1132 13.0214 11.073 13.0134 11.0327C13.0134 11.0166 13.0055 11.0086 12.9976 10.9925C13.0293 10.9603 13.0372 10.9201 13.0372 10.8959C13.0372 10.8879 13.0372 10.8718 13.0372 10.8718C13.0372 10.8637 13.0451 10.8557 13.053 10.8396C13.0768 10.7833 13.1085 10.7108 13.1006 10.6384C13.0847 10.566 13.0372 10.5418 12.9976 10.5418C12.9422 10.5418 12.9105 10.5821 12.8788 10.6143C12.8709 10.6223 12.8709 10.6223 12.8709 10.6304C12.8629 10.6384 12.855 10.6384 12.8471 10.6465C12.8233 10.6625 12.7917 10.6867 12.76 10.7269C12.7125 10.8074 12.76 10.8718 12.7917 10.912C12.8075 10.9281 12.8233 10.9523 12.8313 10.9683V10.9764C12.8233 10.9764 12.8233 10.9683 12.8154 10.9683L12.7917 10.9603H12.7679C12.6887 10.9603 12.6412 11.0488 12.6333 11.0649C12.6016 11.1293 12.6174 11.1695 12.6253 11.1937C12.5778 11.25 12.5303 11.3063 12.4986 11.3546C12.4749 11.3868 12.4194 11.4914 12.4669 11.596C12.4828 11.6363 12.5224 11.6524 12.5541 11.6524C12.5541 11.6604 12.562 11.6604 12.562 11.6685L12.5778 11.7007L12.6095 11.7168C12.6174 11.7168 12.6491 11.7328 12.6887 11.7328C12.6887 11.7328 12.6887 11.7328 12.6966 11.7328C12.6729 11.7409 12.6491 11.757 12.6333 11.7731C12.6174 11.7972 12.6016 11.8214 12.6016 11.8455C12.5857 11.8536 12.5699 11.8616 12.5541 11.8616C12.5303 11.8697 12.5065 11.8777 12.4907 11.8857C12.4669 11.8938 12.4432 11.9099 12.4273 11.9179C12.4194 11.926 12.4115 11.926 12.4036 11.934C12.3957 11.926 12.3957 11.926 12.3957 11.926C12.364 11.8938 12.3323 11.8616 12.2531 11.8375C12.166 11.8133 12.0551 11.8294 11.9284 11.9018C11.8808 11.8133 11.7937 11.7972 11.6591 11.7811C11.4928 11.765 11.3185 11.7731 11.1759 11.8053C11.0334 11.8375 10.7562 11.926 10.6453 11.9743C10.5819 12.0065 10.4552 11.9904 10.3047 11.934C10.2176 11.9018 10.1938 11.8697 10.1701 11.8294C10.1938 11.8133 10.2097 11.7972 10.2255 11.7811C10.2334 11.7731 10.2414 11.765 10.2493 11.757C10.273 11.7409 10.3047 11.7409 10.3522 11.7489C10.3681 11.7489 10.3839 11.757 10.4077 11.7731C10.4473 11.7972 10.5027 11.8294 10.5898 11.8294C10.7166 11.8375 10.8433 11.8133 10.9067 11.7972C10.97 11.7811 11.0096 11.7248 11.0413 11.6765C11.0492 11.6685 11.0651 11.6443 11.0571 11.6443C11.073 11.6363 11.1205 11.6041 11.168 11.5719C11.2235 11.5397 11.2947 11.4914 11.3185 11.4834C11.3264 11.4834 11.3343 11.4753 11.3423 11.4673L11.3581 11.5156L11.4056 11.5317C11.4135 11.5317 11.4294 11.5397 11.4452 11.5397C11.469 11.5397 11.4928 11.5317 11.5086 11.5236C11.5244 11.5156 11.5403 11.5075 11.5482 11.4914V11.4995L11.5957 11.5236C11.6036 11.5236 11.6512 11.5478 11.7066 11.5478H11.7224C11.77 11.5397 11.8175 11.5075 11.8333 11.4592C11.8412 11.427 11.8412 11.3949 11.8333 11.3707C11.8492 11.3627 11.8571 11.3466 11.8729 11.3385C11.8888 11.3466 11.9125 11.3546 11.9284 11.3546C11.9442 11.3546 11.96 11.3546 11.9759 11.3466C12.0392 11.3224 12.063 11.2902 12.0868 11.2581L12.0947 11.242C12.1343 11.1856 12.1343 11.0971 12.0392 11.0247C12.0234 11.0086 11.9996 11.0086 11.9759 11.0086C11.9125 11.0086 11.865 11.0488 11.8412 11.0971C11.8254 11.081 11.8016 11.073 11.77 11.073C11.7066 11.073 11.6432 11.1132 11.5878 11.1937L11.5799 11.2017C11.5799 11.2017 11.5799 11.1937 11.572 11.1937L11.5403 11.1615H11.5007C11.4848 11.1615 11.4769 11.1615 11.469 11.1695C11.4611 11.1695 11.4531 11.1776 11.4452 11.1776C11.4531 11.1534 11.4532 11.1293 11.4611 11.1132C11.469 11.081 11.4928 11.073 11.5403 11.0488C11.5561 11.0408 11.572 11.0327 11.5878 11.0247C11.6432 10.9925 11.7779 10.9603 11.8333 10.9523C11.9204 10.9362 12.1184 10.7672 12.1264 10.6625C12.1264 10.6465 12.1264 10.6304 12.2135 10.5982C12.2531 10.5821 12.2769 10.5821 12.2848 10.5821C12.3006 10.5821 12.3244 10.5821 12.3481 10.5901C12.3719 10.5982 12.3957 10.5982 12.4273 10.6062C12.459 10.6062 12.4828 10.6143 12.4986 10.6143C12.5699 10.6223 12.6174 10.6304 12.6729 10.5982C12.7125 10.5821 12.7521 10.574 12.8075 10.574C12.8629 10.574 12.9342 10.5499 13.0293 10.5016H13.0372C13.061 10.5096 13.0847 10.5177 13.1164 10.5177H13.1402C13.1481 10.5177 13.156 10.5096 13.1718 10.5016C13.1877 10.5338 13.1956 10.5499 13.2114 10.574C13.2194 10.5982 13.2352 10.6223 13.251 10.6465C13.2669 10.6867 13.2986 10.7189 13.3223 10.743C13.354 10.7752 13.3857 10.8074 13.4015 10.8557C13.4174 10.8879 13.4174 10.904 13.4253 10.9201C13.4411 10.9844 13.4649 11.0247 13.5441 11.0408C13.5916 11.0569 13.6074 11.0569 13.6708 11.1454C13.7342 11.2259 13.8451 11.3707 13.853 11.4431C13.8609 11.4834 13.8134 11.5719 13.7738 11.6363C13.75 11.6202 13.7183 11.6121 13.6867 11.6121C13.6708 11.6121 13.647 11.6121 13.6312 11.6121C13.5916 11.6121 13.5441 11.6121 13.4966 11.6121C13.457 11.6121 13.4253 11.596 13.3936 11.588C13.354 11.5799 13.3065 11.5639 13.2431 11.5719C13.1798 11.5799 13.1322 11.6202 13.1085 11.6926C13.0768 11.7811 13.1006 11.8777 13.156 11.9421C13.2273 12.0145 13.3065 12.0386 13.3778 12.0628C13.3936 12.0708 13.4015 12.0708 13.4174 12.0789C13.4253 12.103 13.4411 12.1433 13.4886 12.1755L13.5045 12.1835C13.5124 12.1835 13.5441 12.1996 13.5837 12.1996C13.6154 12.1996 13.647 12.1916 13.6708 12.1755C13.7342 12.1433 13.7659 12.0628 13.7975 11.9823L13.8134 11.9501C13.8213 11.934 13.8213 11.9179 13.8292 11.9018C13.8609 11.9018 13.8926 11.8938 13.9243 11.8857C13.9401 11.8777 13.948 11.8777 13.9559 11.8777C14.0193 11.8616 14.0827 11.8375 14.1381 11.7489C14.1698 11.7007 14.1777 11.6443 14.1777 11.6121V11.6041C14.2252 11.5719 14.3044 11.5156 14.3123 11.427C14.3203 11.3546 14.2727 11.3144 14.249 11.2983C14.249 11.2902 14.2569 11.2902 14.2648 11.2822C14.2807 11.3063 14.3044 11.3305 14.3203 11.3627C14.344 11.4029 14.3836 11.427 14.4232 11.427C14.4866 11.427 14.542 11.3788 14.5658 11.3385C14.5816 11.3144 14.5975 11.2822 14.5975 11.2581C14.5975 11.2741 14.5975 11.2983 14.5975 11.3144C14.5975 11.3868 14.6054 11.4673 14.7004 11.4914C14.7004 11.4914 14.7004 11.4914 14.7084 11.4995C14.7559 11.5719 14.7638 11.6041 14.7796 11.6443L14.7876 11.6685C14.8034 11.7007 14.8113 11.7248 14.8272 11.7409C14.7796 11.7731 14.7638 11.8133 14.7559 11.8777V11.9018C14.748 11.9662 14.7559 12.0065 14.8034 12.0467C14.8113 12.0547 14.8272 12.0628 14.843 12.103C14.8509 12.1272 14.8588 12.1433 14.8588 12.1513L14.8509 12.1835L14.8747 12.2157L14.9064 12.2559L14.946 12.264H14.9697C14.9776 12.2801 14.9935 12.3042 15.0093 12.3203C15.0093 12.3525 15.0252 12.3927 15.0568 12.4249L15.0885 12.4652L15.144 12.4571C15.2073 12.4491 15.2865 12.4008 15.2865 12.3203C15.2865 12.3123 15.2865 12.3123 15.2865 12.3042C15.2865 12.2881 15.2865 12.272 15.2865 12.2479C15.2945 12.2398 15.3024 12.2318 15.3103 12.2157C15.3341 12.2157 15.3499 12.2076 15.3737 12.1996C15.3737 12.2157 15.3737 12.2318 15.3816 12.2479C15.3895 12.2962 15.437 12.3444 15.5004 12.3444C15.5241 12.3444 15.54 12.3364 15.5637 12.3284C15.5875 12.3203 15.635 12.2962 15.6509 12.2479C15.6667 12.1996 15.6429 12.1674 15.635 12.1433L15.6271 12.1272C15.6033 12.0869 15.5637 12.0547 15.5162 12.0547C15.4925 12.0547 15.4687 12.0628 15.4449 12.0789C15.4449 12.0547 15.4449 12.0306 15.4449 11.9984C15.4449 11.9823 15.437 11.9743 15.437 11.9582C15.4925 11.9662 15.5479 11.9501 15.5796 11.9099C15.5875 11.9501 15.6113 11.9823 15.6271 11.9984L15.6588 12.0387L15.7142 12.0306C15.7221 12.0306 15.7617 12.0226 15.7934 12.0065C15.8251 12.0226 15.8568 12.0226 15.8726 12.0226C15.9043 12.0226 15.936 12.0145 15.9677 12.0145C15.9835 12.0145 15.9914 12.0145 16.0073 12.0065V12.0145C16.0073 12.0306 16.0152 12.0386 16.0231 12.0547C16.0073 12.0547 15.9994 12.0547 15.9835 12.0628C15.936 12.0708 15.9122 12.103 15.9043 12.1191C15.8964 12.1191 15.8806 12.1191 15.8726 12.1191C15.8568 12.1191 15.8409 12.1191 15.8251 12.1272C15.7538 12.1352 15.7221 12.1835 15.7142 12.2237C15.7063 12.2881 15.738 12.3525 15.8093 12.3927L15.833 12.4088H15.8647C15.8726 12.4088 15.8806 12.4088 15.8885 12.4008C15.8885 12.4088 15.8885 12.4088 15.8964 12.4169L15.9043 12.4491C15.9043 12.4571 15.8964 12.4571 15.8964 12.4652C15.8726 12.441 15.833 12.4169 15.7776 12.4169C15.7538 12.4169 15.7301 12.4169 15.7063 12.4249C15.6984 12.4249 15.6825 12.433 15.6667 12.4249C15.6509 12.4169 15.6271 12.4008 15.5954 12.4008C15.5796 12.4008 15.5717 12.4008 15.5558 12.4088C15.5241 12.4169 15.4845 12.4249 15.437 12.4169C15.3895 12.4088 15.3024 12.3927 15.2469 12.4169C15.2153 12.4249 15.1598 12.4652 15.1757 12.5617C15.1519 12.5859 15.1281 12.6181 15.1361 12.6663C15.144 12.7307 15.2073 12.7629 15.239 12.779C15.2628 12.7871 15.2786 12.7951 15.3024 12.7951C15.3578 12.7951 15.3816 12.7629 15.4053 12.7388C15.437 12.7388 15.4766 12.7388 15.5241 12.7468C15.5558 12.7549 15.5796 12.7629 15.6033 12.771C15.6509 12.7871 15.6984 12.7951 15.7538 12.7951C15.7776 12.7951 15.8013 12.7951 15.8172 12.7871C15.8964 12.771 15.9281 12.7227 15.9439 12.6905C15.9518 12.6663 15.9598 12.6422 15.9598 12.602C15.9756 12.61 15.9994 12.6181 16.031 12.6181C16.0548 12.6181 16.0865 12.61 16.1102 12.5939C16.1261 12.602 16.1419 12.602 16.1578 12.602C16.229 12.602 16.3241 12.5376 16.3558 12.4652C16.3637 12.441 16.3716 12.4169 16.3716 12.3927C16.3874 12.3927 16.4033 12.3847 16.427 12.3847C16.4508 12.3847 16.4983 12.3927 16.5458 12.4008C16.6488 12.4169 16.7597 12.441 16.8151 12.4169C16.8627 12.4008 16.8943 12.3686 16.926 12.3444C16.9419 12.3284 16.9656 12.3123 16.9815 12.3042C16.9973 12.3123 17.0211 12.3364 17.0369 12.3525C17.0686 12.3847 17.1003 12.4169 17.1478 12.4491C17.1399 12.4571 17.1319 12.4732 17.1319 12.4813C17.124 12.4813 17.1003 12.4813 17.0923 12.4813H17.0844C17.0369 12.4813 17.0052 12.5054 16.9973 12.5215C16.9656 12.5698 16.9815 12.6261 16.9894 12.6583C16.9894 12.6663 16.9973 12.6744 16.9973 12.6824C16.9973 12.7388 17.0052 12.8112 17.0844 12.9078L17.1003 12.9319L17.1319 12.94C17.1399 12.94 17.1557 12.948 17.1795 12.948C17.2349 12.948 17.2824 12.9239 17.322 12.8917L17.3379 12.8675C17.3696 12.8273 17.4171 12.7871 17.4488 12.7629C17.4567 12.7549 17.4725 12.7549 17.4884 12.7468C17.528 12.7307 17.6151 12.7066 17.6309 12.61C17.6388 12.602 17.6626 12.5939 17.6943 12.5778C17.7022 12.5778 17.7101 12.5698 17.718 12.5698L17.726 12.5859C17.7418 12.6261 17.7339 12.6663 17.7339 12.7146C17.7339 12.7468 17.726 12.779 17.7339 12.8112C17.7339 12.8273 17.7339 12.8273 17.718 12.8514C17.7101 12.8675 17.7022 12.8836 17.6943 12.9158C17.6705 12.9319 17.6468 12.9561 17.623 12.9963C17.5755 13.0929 17.5676 13.1814 17.5992 13.286C17.6072 13.3101 17.5596 13.3584 17.528 13.3906C17.5121 13.4148 17.4963 13.4308 17.4804 13.455L17.4012 13.5516ZM19.6189 18.3478C19.611 18.3478 19.5951 18.3478 19.5872 18.3478C19.5714 18.3397 19.5397 18.2834 19.5159 18.2351L19.4922 18.1949C19.413 18.0339 19.3179 17.9776 19.215 17.9213C19.1437 17.881 19.0328 17.873 18.9298 17.865C18.8982 17.865 18.8665 17.8569 18.8427 17.8569C18.8427 17.8489 18.8427 17.8489 18.8427 17.8408C18.8427 17.8167 18.8348 17.7845 18.8269 17.7442C18.811 17.704 18.7873 17.5994 18.7635 17.5028C18.7477 17.4465 18.7397 17.3902 18.7239 17.3499C18.6922 17.2051 18.5497 17.0602 18.3992 17.028C18.3992 17.028 18.3596 17.0119 18.3754 16.8027L18.3833 16.7142C18.3913 16.5935 18.3992 16.5291 18.3913 16.4888C18.3913 16.4808 18.3833 16.4647 18.3833 16.4567C18.3833 16.4486 18.3754 16.4245 18.3675 16.4084C18.3833 16.3842 18.3913 16.344 18.3754 16.3118C18.3596 16.2555 18.2962 16.2072 18.2487 16.1911C18.2487 16.183 18.2487 16.167 18.2487 16.1509C18.2487 16.1026 18.2408 16.0462 18.2249 16.006C18.1853 15.9255 18.1061 15.8612 18.0111 15.8209C17.9873 15.8129 17.9636 15.8048 17.9398 15.7968C17.9319 15.7968 17.916 15.7887 17.9002 15.7807L17.9556 15.7485L17.9636 15.7002C17.9715 15.6439 17.9319 15.6117 17.8764 15.5634C17.8448 15.5393 17.8131 15.5071 17.7972 15.4829C17.7576 15.4266 17.7339 15.4105 17.7101 15.3864C17.7022 15.3783 17.6943 15.3703 17.6864 15.3622C17.6784 15.3542 17.6784 15.3542 17.6705 15.33C17.6705 15.3139 17.6626 15.2978 17.6626 15.2817C17.6626 15.2656 17.6547 15.2576 17.6547 15.2496C17.6547 15.2174 17.6468 15.1852 17.6151 15.1288C17.5992 15.1047 17.5992 15.0886 17.5992 15.0645C17.5992 15.0323 17.5913 15.0001 17.5755 14.9438C17.5438 14.8552 17.5121 14.815 17.4884 14.7828L17.4804 14.7667C17.4725 14.7506 17.4488 14.7023 17.425 14.6058C17.4646 14.6058 17.4963 14.5816 17.52 14.5736L17.528 14.5655C17.5359 14.5575 17.5438 14.5575 17.5517 14.5494C17.5755 14.5816 17.6072 14.6138 17.6388 14.646C17.6705 14.6782 17.7101 14.7184 17.7418 14.7587C17.7814 14.8069 17.821 14.8472 17.8685 14.8874C17.9477 14.9679 18.0269 15.0403 18.0665 15.1449C18.0982 15.2335 18.0903 15.2817 18.0824 15.3381C18.0745 15.3864 18.0745 15.4427 18.0982 15.5071C18.1457 15.5956 18.2329 15.6036 18.3041 15.6117C18.3437 15.6117 18.3754 15.6197 18.4071 15.6358C18.415 15.6439 18.4229 15.6439 18.4309 15.6519C18.4309 15.6761 18.4309 15.7002 18.4388 15.7404C18.4546 15.7968 18.4942 15.829 18.518 15.8531C18.5417 15.8692 18.5497 15.8853 18.5576 15.9014C18.5576 15.9175 18.5497 15.9738 18.5417 16.0141C18.5259 16.1026 18.5021 16.2152 18.5338 16.3118C18.5893 16.4888 18.7318 16.6096 18.8427 16.682C18.9457 16.7544 19.112 16.9878 19.1516 17.0602C19.1595 17.0763 19.1754 17.0924 19.1833 17.1165C19.2229 17.1729 19.2783 17.2614 19.3021 17.3419C19.3258 17.4304 19.3971 17.535 19.4605 17.6235C19.4684 17.6316 19.4763 17.6396 19.4842 17.6557C19.4684 17.6638 19.4526 17.6799 19.4446 17.696C19.413 17.7442 19.3734 17.8971 19.4209 17.9937C19.4446 18.05 19.4842 18.0903 19.5238 18.1386C19.5476 18.1707 19.5793 18.2029 19.6031 18.2432C19.6189 18.2754 19.6268 18.3076 19.6268 18.3478C19.6506 18.3478 19.6347 18.3478 19.6189 18.3478ZM20.6406 11.9582C20.6168 11.9582 20.601 11.9582 20.5852 11.9662C20.5614 11.926 20.5456 11.8697 20.5376 11.8214C20.5297 11.7811 20.5218 11.7489 20.506 11.7168C20.5376 11.7329 20.5931 11.7328 20.6327 11.7007C20.6723 11.6685 20.6802 11.6282 20.6802 11.6041V11.596C20.6881 11.588 20.696 11.5799 20.704 11.5719C20.7673 11.5156 20.7911 11.4592 20.7594 11.4029C20.7515 11.3949 20.7436 11.3788 20.7356 11.3707C20.7436 11.3627 20.7594 11.3546 20.7673 11.3385C20.7752 11.3144 20.7832 11.2822 20.7673 11.2339C20.7515 11.1937 20.704 11.0891 20.5852 11.081C20.5693 11.081 20.5614 11.081 20.5535 11.081C20.5456 11.081 20.5456 11.073 20.5376 11.0649C20.5297 11.0569 20.5297 11.0569 20.5218 11.0408C20.5139 11.0166 20.4901 10.9603 20.4109 10.9523C20.3951 10.9523 20.3713 10.9523 20.3555 10.9523C20.3396 10.912 20.3238 10.8637 20.2525 10.8074C20.2367 10.7913 20.2208 10.7833 20.205 10.7752C20.1971 10.7672 20.1891 10.7672 20.1891 10.7672C20.1891 10.7672 20.1891 10.7591 20.1812 10.743C20.1812 10.7189 20.1733 10.7028 20.1733 10.6786C20.1733 10.6625 20.1654 10.6545 20.1654 10.6384C20.205 10.6062 20.2208 10.5579 20.205 10.5096C20.1891 10.4533 20.1416 10.4211 20.0703 10.4211H20.0624C20.0624 10.4131 20.0624 10.4131 20.0624 10.405C20.0466 10.3487 20.007 10.3165 19.9832 10.3004C19.9674 10.2924 19.9595 10.2843 19.9515 10.2763C19.9357 10.2521 19.9515 10.1878 19.9674 10.1717C20.0862 10.0751 20.1654 9.99462 20.1971 9.93828C20.2287 9.89 20.2604 9.86586 20.3317 9.82562C20.3555 9.80953 20.3872 9.79343 20.4109 9.77734C20.4426 9.76124 20.4901 9.72905 20.506 9.72101C20.601 9.74515 20.6723 9.75319 20.7198 9.74515C20.7277 9.74515 20.7515 9.76124 20.7594 9.76929C20.7594 9.77734 20.7515 9.78538 20.7515 9.79343C20.7356 9.82562 20.7119 9.86586 20.7277 9.93024H20.7119L20.6564 10.0027V10.0188H20.6248C20.5772 10.0188 20.5376 10.0349 20.5218 10.0751L20.498 10.1395L20.5376 10.1878C20.4822 10.2119 20.4347 10.2521 20.4268 10.3165C20.4188 10.3567 20.4347 10.4211 20.5297 10.4775C20.5535 10.4936 20.5772 10.5016 20.5931 10.5096C20.6564 10.5418 20.6644 10.5418 20.696 10.6062C20.7119 10.6304 20.7198 10.6465 20.7277 10.6625C20.7515 10.7108 20.7752 10.7752 20.8703 10.7833C20.8703 10.7913 20.8703 10.7913 20.8703 10.7994C20.8624 10.8476 20.8544 10.9281 20.902 11.0247C20.9257 11.0649 20.9416 11.0891 20.9653 11.1132C20.9574 11.1293 20.9495 11.1534 20.9495 11.1856C20.9495 11.2581 20.9495 11.3627 21.0445 11.411C21.0445 11.411 21.0445 11.411 21.0525 11.411C21.0366 11.4512 21.0445 11.4834 21.0525 11.5156C21.0762 11.588 21.1237 11.6121 21.1554 11.6282C21.1713 11.6363 21.1871 11.6443 21.2029 11.6604C21.2346 11.7007 21.2346 11.7168 21.2505 11.7731C21.2505 11.7972 21.2584 11.8214 21.2663 11.8455C21.2742 11.9018 21.2901 11.9501 21.3138 11.9904C21.2901 11.9904 21.2663 11.9904 21.2505 12.0065L21.2346 12.0145C21.1871 12.0386 21.0921 12.0869 21.0445 12.1513L21.0366 12.1594C20.9732 12.103 20.8465 11.9984 20.7436 11.9582C20.704 11.9662 20.6723 11.9582 20.6406 11.9582ZM22.3434 14.6862C22.2959 14.7184 22.2722 14.7828 22.2405 14.8713C22.2088 14.9518 22.1771 15.0484 22.1217 15.1208C22.09 15.1691 22.0662 15.1691 22.0504 15.1691C22.0346 15.1691 22.0108 15.161 21.987 15.161C21.9474 15.153 21.8999 15.1449 21.8445 15.153C21.789 15.1691 21.7177 15.1932 21.6544 15.1932C21.6465 15.1932 21.6306 15.1932 21.6306 15.1932C21.6465 15.161 21.6781 15.1127 21.6781 15.0484C21.6781 14.9759 21.6544 14.9277 21.6306 14.9035C21.5831 14.8552 21.5118 14.8391 21.4485 14.8633C21.4405 14.8311 21.4247 14.7989 21.4089 14.7748C21.4009 14.7667 21.393 14.7506 21.3851 14.7426C21.3534 14.6782 21.298 14.6621 21.2663 14.6621C21.2663 14.646 21.2663 14.6219 21.2505 14.6058C21.2029 14.5011 21.1237 14.477 21.0366 14.469C21.0366 14.469 21.0366 14.469 21.0366 14.4609C21.0287 14.4368 21.0208 14.3965 20.997 14.3563C20.9574 14.2678 20.9416 14.2436 20.8782 14.2034C20.8624 14.1953 20.8465 14.1793 20.8228 14.1632C20.7515 14.1068 20.7356 14.0827 20.7119 14.0183V14.0103C20.7436 14.0022 20.7832 13.9781 20.799 13.9459C20.8228 13.97 20.8544 13.9861 20.894 13.9861C20.9257 13.9861 20.9574 13.9781 20.9891 13.962C21.0128 13.9539 21.0366 13.9459 21.0604 13.9459C21.0683 13.9539 21.0762 13.9942 21.0841 14.0183C21.0921 14.0585 21.1079 14.1149 21.1317 14.1632C21.1475 14.2034 21.1633 14.2436 21.1792 14.2758C21.2109 14.3643 21.2425 14.4368 21.2901 14.4851C21.3376 14.5414 21.393 14.5494 21.4405 14.5494C21.4722 14.5575 21.496 14.5575 21.5277 14.5736C21.5593 14.5897 21.5831 14.6138 21.6069 14.638C21.6465 14.6782 21.694 14.7184 21.7732 14.7426C21.8207 14.7587 21.8841 14.7667 21.9554 14.7667C22.0266 14.7667 22.0979 14.7587 22.1534 14.7587C22.2484 14.7506 22.3118 14.6862 22.3514 14.638C22.3672 14.6219 22.383 14.5977 22.391 14.5977C22.3989 14.5977 22.4226 14.6058 22.4464 14.6299C22.3989 14.654 22.3672 14.6701 22.3434 14.6862Z" fill="#C6DD22"/>
<path d="M13.6549 12.272H13.647C13.5995 12.272 13.5519 12.3042 13.5281 12.3524C13.5044 12.4007 13.4964 12.4571 13.5202 12.4973L13.5281 12.5134C13.5519 12.5375 13.5757 12.5456 13.6153 12.5456C13.6549 12.5456 13.6866 12.5295 13.7262 12.4973C13.8055 12.4329 13.7896 12.3685 13.7817 12.3444C13.7579 12.3042 13.7104 12.272 13.6549 12.272ZM13.6074 12.3927C13.6074 12.3846 13.6074 12.3766 13.6074 12.3766C13.6074 12.3766 13.6153 12.3766 13.6232 12.3766C13.6153 12.3766 13.6074 12.3846 13.6074 12.3927ZM13.6549 12.4571H13.647C13.6549 12.449 13.6628 12.449 13.6708 12.441L13.6787 12.4329C13.6787 12.441 13.6787 12.449 13.6787 12.449C13.6787 12.449 13.6708 12.4571 13.6549 12.4571Z" fill="#C6DD22"/>
<path d="M21.0769 24.4718H21.0927C21.1165 24.4718 21.1561 24.4718 21.1878 24.4477C21.2195 24.4316 21.2433 24.3913 21.2512 24.3592C21.2591 24.3028 21.2353 24.2545 21.1878 24.2063C21.1561 24.1741 21.1244 24.166 21.1086 24.166C21.0769 24.166 21.0452 24.1821 21.0214 24.2063C20.9738 24.2626 20.9818 24.3592 20.9976 24.4074L21.0135 24.4718H21.0769Z" fill="#C6DD22"/>
<path d="M20.6727 24.8905C20.6965 24.9066 20.7203 24.9146 20.744 24.9146C20.8233 24.9146 20.855 24.8503 20.8867 24.802C20.8946 24.7939 20.9025 24.7778 20.9104 24.7617C20.9421 24.7134 20.9501 24.6652 20.9263 24.6249C20.8946 24.5605 20.8312 24.5605 20.7757 24.5605H20.7282C20.7044 24.5605 20.6331 24.5605 20.5935 24.6169C20.5618 24.6652 20.5776 24.7215 20.5935 24.7698C20.5935 24.7778 20.5935 24.7778 20.5935 24.7859C20.6014 24.8422 20.6569 24.8744 20.6727 24.8905Z" fill="#C6DD22"/>
<path d="M3.77805 8.44971C3.61165 8.73137 3.4611 9.02912 3.31055 9.31882L3.63542 9.48782C3.77805 9.19811 3.93653 8.91646 4.095 8.6348L3.77805 8.44971Z" fill="#444444"/>
<path d="M3.72266 25.4781C3.88113 25.7597 4.05546 26.0494 4.22978 26.323L4.53088 26.1219C4.35656 25.8563 4.19016 25.5746 4.03168 25.293L3.72266 25.4781Z" fill="#444444"/>
<path d="M2.19434 21.8483C2.28942 22.1621 2.39243 22.484 2.49544 22.7898L2.83616 22.6611C2.72523 22.3553 2.63014 22.0495 2.53506 21.7437L2.19434 21.8483Z" fill="#444444"/>
<path d="M2.85156 23.7078C2.97834 24.0056 3.11305 24.3114 3.2636 24.6011L3.58848 24.4402C3.44585 24.1504 3.31114 23.8607 3.18436 23.563L2.85156 23.7078Z" fill="#444444"/>
<path d="M2.10755 19.8608L1.75098 19.9252C1.80644 20.2471 1.86983 20.5771 1.94115 20.899L2.2898 20.8185C2.2264 20.4966 2.16301 20.1747 2.10755 19.8608Z" fill="#444444"/>
<path d="M4.85556 6.7998C4.65746 7.06537 4.46729 7.33898 4.29297 7.61259L4.59407 7.81377C4.7684 7.54821 4.95857 7.28265 5.14874 7.02513L4.85556 6.7998Z" fill="#444444"/>
<path d="M2.12225 14.0746L1.76568 14.0103C1.71021 14.3321 1.66267 14.6621 1.62305 14.992L1.97962 15.0323C2.01924 14.7104 2.06678 14.3885 2.12225 14.0746Z" fill="#444444"/>
<path d="M7.45312 30.0165C7.69876 30.2258 7.96025 30.435 8.21381 30.6362L8.42775 30.3384C8.17419 30.1453 7.92063 29.9441 7.68292 29.7349L7.45312 30.0165Z" fill="#444444"/>
<path d="M9.1089 2.75977C8.83949 2.93681 8.57008 3.12994 8.30859 3.32308L8.52254 3.62084C8.7761 3.4277 9.03758 3.24261 9.30699 3.06557L9.1089 2.75977Z" fill="#444444"/>
<path d="M7.54051 3.93506C7.29488 4.14429 7.04924 4.36962 6.81152 4.5869L7.05716 4.85246C7.28695 4.63518 7.53259 4.4179 7.7703 4.20867L7.54051 3.93506Z" fill="#444444"/>
<path d="M6.1146 5.28662C5.89273 5.52804 5.67086 5.76946 5.46484 6.02698L5.74218 6.2684C5.9482 6.01893 6.16214 5.77751 6.37608 5.54414L6.1146 5.28662Z" fill="#444444"/>
<path d="M6.30543 28.3989L6.04395 28.6484C6.26581 28.8898 6.4956 29.1232 6.73332 29.3485L6.97895 29.083C6.74916 28.8657 6.51937 28.6403 6.30543 28.3989Z" fill="#444444"/>
<path d="M34.3972 14.2115L34.7538 14.1471C34.6983 13.8252 34.6349 13.4952 34.5636 13.1733L34.207 13.2538C34.2863 13.5757 34.3497 13.8976 34.3972 14.2115Z" fill="#444444"/>
<path d="M33.6616 10.3569C33.5348 10.0511 33.4001 9.75332 33.2575 9.45557L32.9326 9.61651C33.0752 9.90622 33.21 10.204 33.3288 10.4937L33.6616 10.3569Z" fill="#444444"/>
<path d="M32.7985 8.58619C32.64 8.30453 32.4657 8.01482 32.2913 7.74121L31.9902 7.9424C32.1646 8.20796 32.331 8.48962 32.4894 8.77128L32.7985 8.58619Z" fill="#444444"/>
<path d="M31.737 6.92854C31.5468 6.66298 31.3408 6.40547 31.1348 6.14795L30.8574 6.38132C31.0634 6.63079 31.2615 6.88831 31.4438 7.14582L31.737 6.92854Z" fill="#444444"/>
<path d="M34.3186 12.2243C34.2314 11.9104 34.1284 11.5885 34.0175 11.2827L33.6768 11.4034C33.7798 11.7092 33.8828 12.015 33.9699 12.3289L34.3186 12.2243Z" fill="#444444"/>
<path d="M34.6123 16.1353L34.9768 16.1192C34.961 15.7893 34.9372 15.4593 34.8976 15.1294L34.541 15.1696C34.5648 15.4915 34.5965 15.8134 34.6123 16.1353Z" fill="#444444"/>
<path d="M9.0127 31.2079C9.2821 31.393 9.55944 31.562 9.84469 31.731L10.0269 31.4091C9.74961 31.2481 9.4802 31.0791 9.21871 30.894L9.0127 31.2079Z" fill="#444444"/>
<path d="M3.22366 10.3651L2.89086 10.2202C2.76408 10.526 2.6373 10.8318 2.52637 11.1376L2.86709 11.2664C2.97802 10.9686 3.09688 10.6628 3.22366 10.3651Z" fill="#444444"/>
<path d="M2.56705 12.192L2.21841 12.0874C2.12332 12.4013 2.03616 12.7231 1.96484 13.045L2.31349 13.1336C2.39273 12.8117 2.47197 12.4978 2.56705 12.192Z" fill="#444444"/>
<path d="M24.0545 1.04627C23.7534 0.933606 23.4365 0.82899 23.1274 0.732422L23.0244 1.08651C23.3255 1.18307 23.6345 1.28769 23.9277 1.39231L24.0545 1.04627Z" fill="#444444"/>
<path d="M25.8366 1.84253C25.5434 1.68963 25.2503 1.55282 24.9571 1.41602L24.8145 1.75401C25.1076 1.88276 25.3929 2.01957 25.6781 2.17247L25.8366 1.84253Z" fill="#444444"/>
<path d="M29.084 4.03957C28.8384 3.83034 28.5769 3.62111 28.3233 3.41992L28.1094 3.70963C28.3629 3.90276 28.6165 4.10395 28.8542 4.31318L29.084 4.03957Z" fill="#444444"/>
<path d="M27.5229 2.84876C27.2535 2.66367 26.9762 2.48663 26.6988 2.32568L26.5166 2.63953C26.7939 2.80048 27.0633 2.97752 27.3248 3.15456L27.5229 2.84876Z" fill="#444444"/>
<path d="M4.79199 27.1357C4.98216 27.4013 5.18818 27.6588 5.3942 27.9163L5.67153 27.683C5.46552 27.4335 5.26742 27.184 5.08517 26.9185L4.79199 27.1357Z" fill="#444444"/>
<path d="M28.7666 29.7756L28.9964 30.0573C29.242 29.8481 29.4877 29.6227 29.7254 29.3974L29.4797 29.1318C29.25 29.3491 29.0043 29.5664 28.7666 29.7756Z" fill="#444444"/>
<path d="M30.4937 5.40788C30.2718 5.16645 30.0421 4.93308 29.8043 4.69971L29.5508 4.96527C29.7806 5.1906 30.0024 5.41592 30.2243 5.65734L30.4937 5.40788Z" fill="#444444"/>
<path d="M27.2383 30.9344L27.4364 31.2402C27.7058 31.0632 27.9752 30.87 28.2367 30.6688L28.0227 30.3711C27.7613 30.5642 27.4998 30.7574 27.2383 30.9344Z" fill="#444444"/>
<path d="M22.0107 33.2111L22.09 33.5652C22.4069 33.4928 22.7239 33.4043 23.0329 33.3077L22.9299 32.9536C22.6288 33.0582 22.3198 33.1387 22.0107 33.2111Z" fill="#444444"/>
<path d="M23.8398 32.6641L23.9666 33.0102C24.2677 32.8975 24.5768 32.7768 24.8699 32.648L24.7273 32.3101C24.4341 32.4308 24.133 32.5515 23.8398 32.6641Z" fill="#444444"/>
<path d="M30.1523 28.4469L30.4138 28.6964C30.6357 28.455 30.8576 28.2055 31.0636 27.956L30.7862 27.7227C30.5882 27.9721 30.3742 28.2135 30.1523 28.4469Z" fill="#444444"/>
<path d="M25.582 31.8996L25.7405 32.2296C26.0258 32.0847 26.3189 31.9238 26.5963 31.7628L26.414 31.4409C26.1525 31.6019 25.8673 31.7548 25.582 31.8996Z" fill="#444444"/>
<path d="M34.3818 19.901L34.7384 19.9654C34.7939 19.6435 34.8414 19.3135 34.881 18.9836L34.5245 18.9434C34.4848 19.2653 34.4373 19.5872 34.3818 19.901Z" fill="#444444"/>
<path d="M34.6273 16.9395C34.6273 17.3418 34.6194 17.6235 34.6035 17.9454H34.968C34.9839 17.6154 34.9997 17.3418 34.9997 16.9395H34.6273Z" fill="#444444"/>
<path d="M31.3799 26.9666L31.6731 27.1839C31.8712 26.9183 32.0534 26.6447 32.2357 26.3711L31.9345 26.1699C31.7523 26.4355 31.5701 26.701 31.3799 26.9666Z" fill="#444444"/>
<path d="M33.9463 21.7924L34.2949 21.897C34.39 21.5832 34.4693 21.2613 34.5485 20.9394L34.1999 20.8589C34.1206 21.1647 34.0335 21.4866 33.9463 21.7924Z" fill="#444444"/>
<path d="M33.2891 23.611L33.6219 23.7559C33.7486 23.4501 33.8754 23.1443 33.9864 22.8304L33.6456 22.7017C33.5347 23.0155 33.4158 23.3133 33.2891 23.611Z" fill="#444444"/>
<path d="M32.4336 25.3413L32.7505 25.5264C32.9169 25.2447 33.0675 24.947 33.218 24.6573L32.8932 24.4883C32.7426 24.778 32.5921 25.0677 32.4336 25.3413Z" fill="#444444"/>
<path d="M14.4547 0.442871C14.1377 0.515297 13.8207 0.603819 13.5117 0.69234L13.6147 1.04642C13.9158 0.957903 14.2249 0.869382 14.5339 0.796956L14.4547 0.442871Z" fill="#444444"/>
<path d="M16.2842 33.9039C16.6091 33.9441 16.9339 33.9682 17.2588 33.9924L17.2826 33.6222C16.9656 33.6061 16.6487 33.5739 16.3317 33.5337L16.2842 33.9039Z" fill="#444444"/>
<path d="M16.372 0.104492C16.0471 0.144729 15.7222 0.184966 15.4053 0.241298L15.4687 0.603429C15.7777 0.547098 16.0946 0.506861 16.4116 0.466624L16.372 0.104492Z" fill="#444444"/>
<path d="M10.7962 1.77881C10.503 1.92366 10.2178 2.08461 9.94043 2.24556L10.1227 2.56745C10.4 2.4065 10.6773 2.2536 10.9626 2.10875L10.7962 1.77881Z" fill="#444444"/>
<path d="M14.3594 33.5655C14.6763 33.6379 14.9933 33.7104 15.3182 33.7667L15.3815 33.4046C15.0725 33.3482 14.7556 33.2839 14.4465 33.2114L14.3594 33.5655Z" fill="#444444"/>
<path d="M12.5859 0.998047C12.2848 1.11071 11.9758 1.23142 11.6826 1.36018L11.8252 1.69817C12.1184 1.56941 12.4116 1.45675 12.7127 1.34408L12.5859 0.998047Z" fill="#444444"/>
<path d="M12.4902 32.9945C12.7913 33.1071 13.1083 33.2118 13.4173 33.3083L13.5203 32.9542C13.2192 32.8577 12.9102 32.7611 12.617 32.6484L12.4902 32.9945Z" fill="#444444"/>
<path d="M20.1328 33.5496L20.1724 33.9118C20.4973 33.8715 20.8222 33.8232 21.1391 33.7669L21.0757 33.4048C20.7667 33.4611 20.4498 33.5094 20.1328 33.5496Z" fill="#444444"/>
<path d="M22.1861 0.47511C21.8692 0.394636 21.5522 0.330257 21.2353 0.273926L21.1719 0.636058C21.4809 0.692389 21.7979 0.756768 22.1069 0.837242L22.1861 0.47511Z" fill="#444444"/>
<path d="M10.7002 32.2054C10.9934 32.3503 11.2866 32.4951 11.5877 32.6239L11.7303 32.2859C11.4371 32.1571 11.1519 32.0203 10.8666 31.8755L10.7002 32.2054Z" fill="#444444"/>
<path d="M18.2476 33.6782H18.208V34.0001H18.2476C18.5646 34.0001 18.8815 34.0001 19.1985 33.984L19.1747 33.6299C18.8736 33.654 18.5567 33.6782 18.2476 33.6782Z" fill="#444444"/>
<path d="M18.3205 0.370179V0H18.2492C17.9481 0 17.647 0.00804738 17.3459 0.0241421L17.3618 0.394321C17.6549 0.378227 17.9481 0.370179 18.2492 0.370179H18.3205Z" fill="#444444"/>
<path d="M20.2689 0.120748C19.952 0.0805108 19.6192 0.0483213 19.2943 0.0322266L19.2705 0.402406C19.5875 0.418501 19.9044 0.45069 20.2214 0.490927L20.2689 0.120748Z" fill="#444444"/>
<path d="M3.42153 17.6322C3.06512 17.3827 2.71663 17.1252 2.36022 16.8757C2.30478 16.8355 2.24934 16.7952 2.1939 16.755C2.1543 16.7309 2.14638 16.7067 2.13846 16.7067C2.13846 16.5458 2.12262 16.3848 2.10678 16.2239C2.09094 16.0146 2.0751 15.4674 1.79789 15.4111C1.54444 15.3628 1.489 15.9342 1.47316 16.079C1.4494 16.2802 1.43356 16.4733 1.42564 16.6745C1.42564 16.7067 1.42564 16.7228 1.42564 16.7309C1.37812 16.763 1.33852 16.7952 1.291 16.8274C0.934586 17.0849 0.578176 17.3425 0.221766 17.6C-0.0316809 17.777 0.0237606 17.9058 0 18.2357C0 18.276 0.0396011 18.3081 0.0712819 18.2921C0.340569 18.1955 0.601936 18.0909 0.871224 17.9943C1.03755 17.9299 1.20387 17.8655 1.37812 17.8092C1.42564 17.7931 1.46524 17.777 1.51276 17.7609C1.44148 17.7851 1.46524 17.938 1.47316 18.0426C1.49692 18.3323 1.5286 18.622 1.56028 18.9117C1.5682 18.9761 1.57612 19.0405 1.58404 19.1048C1.57612 19.1048 1.56028 19.1209 1.5286 19.137C1.26723 19.3221 1.10883 19.3463 1.10883 19.6682C1.10883 19.7084 1.14843 19.7406 1.18011 19.7245C1.43356 19.644 1.6474 19.5877 1.90877 19.5877C2.0751 19.636 2.24142 19.6762 2.41567 19.7245C2.45527 19.7325 2.48695 19.7084 2.48695 19.6682C2.48695 19.3463 2.3523 19.3463 2.08302 19.1692C2.01173 19.1209 1.98797 19.0726 1.98005 19.1209C1.98797 19.0566 1.99589 18.9841 2.00381 18.9197C2.0355 18.63 2.05926 18.3403 2.0751 18.0506C2.08302 17.946 2.10678 17.7931 2.0355 17.769C2.08302 17.7851 2.12262 17.8012 2.17014 17.8173C2.33646 17.8816 2.50279 17.946 2.66911 18.0023C2.93048 18.0989 3.19977 18.2035 3.46113 18.3001C3.50073 18.3162 3.53242 18.276 3.53242 18.2438C3.5641 17.9621 3.6433 17.7851 3.42153 17.6322Z" fill="#444444"/>
</g>
</svg>
