<svg width="276" height="364" viewBox="0 0 276 364" fill="none" xmlns="http://www.w3.org/2000/svg">
<mask id="mask0_1001_5372" style="mask-type:alpha" maskUnits="userSpaceOnUse" x="0" y="0" width="276" height="415">
<rect width="276" height="415" transform="matrix(-1 0 0 1 276 0)" fill="#D9D9D9"/>
</mask>
<g mask="url(#mask0_1001_5372)">
<mask id="path-2-inside-1_1001_5372" fill="white">
<path fill-rule="evenodd" clip-rule="evenodd" d="M-16.6868 135.717C-14.9852 133.214 -12.8831 131.111 -10.5808 128.408C-19.0892 133.314 -24.5946 140.323 -29.9999 147.533C-28.6986 143.227 -27.7977 138.721 -24.2943 135.517C-23.6937 135.016 -23.2933 134.215 -22.7928 133.514C-17.0872 125.704 -9.88017 119.796 -0.37085 117.093C0.329834 116.893 1.03055 116.392 2.03153 115.891C-3.07347 114.189 -7.67799 116.692 -12.5828 116.192C-11.782 114.59 -10.3806 113.989 -8.97926 113.288C-1.37181 109.483 6.53595 110.184 14.4437 112.186C16.3456 112.687 18.1473 113.288 19.9491 113.789C15.8451 109.283 10.64 107.28 4.83427 106.179C5.13457 105.778 5.33475 105.578 5.63505 105.578C6.33573 105.377 7.03642 105.277 7.73711 105.177C14.744 104.076 21.1503 105.878 27.1562 109.383C28.0571 109.883 28.8578 110.584 30.3593 110.785C27.0561 108.982 23.7528 107.28 20.5497 105.478C19.5487 104.877 18.5477 104.176 17.7469 102.974C20.1493 103.275 22.5517 103.575 25.0541 103.976C21.3505 101.572 17.0462 100.671 13.2425 98.969C9.13849 97.1667 5.03447 97.3669 0.830338 96.7662C4.83427 94.7635 9.23859 95.865 13.743 94.7635C9.23859 91.8597 4.13359 91.7596 -0.57103 89.9572C2.13163 88.4552 7.43682 88.3551 17.7469 89.1561C17.1463 87.4539 15.6449 86.8531 14.2435 86.4526C12.1414 85.8518 10.5399 84.7503 9.03841 83.0481C15.5448 82.7477 21.2504 83.749 25.6547 89.056C27.2563 90.9585 29.5585 92.2602 31.9609 94.1627C32.1611 91.1588 30.2592 89.5567 29.8588 87.4539C33.2622 89.3564 34.8637 91.2589 39.5683 98.8689C39.0679 95.6647 38.6675 93.0613 38.2671 90.1575C42.271 93.7622 43.7725 98.5685 45.5742 103.375C46.0747 101.172 46.5752 98.969 47.1758 96.2655C49.1778 99.5698 49.1778 102.874 49.378 106.279C49.8785 105.678 50.379 105.177 50.8794 104.576C51.1797 105.277 51.2798 106.078 51.48 106.579C51.7803 105.277 51.7803 103.875 51.9805 102.374C53.5821 104.677 54.0826 106.879 53.9825 109.182C55.3839 108.482 56.6851 107.881 57.6861 106.98C59.9884 104.777 62.691 104.476 65.694 104.276C64.9933 105.878 64.3927 107.38 63.7921 108.782C68.797 104.376 74.2023 101.272 81.2092 100.671C80.2082 103.976 76.8049 104.977 76.3044 108.181C78.6066 105.978 81.1091 104.176 84.2122 103.275C87.2151 102.374 90.0178 100.771 93.6214 101.873C91.4192 103.475 88.9168 104.276 87.5154 106.779C93.5213 106.579 98.5262 103.175 104.432 103.275C102.13 104.977 99.8275 106.679 97.1248 108.682C113.04 106.379 116.043 106.479 120.448 109.082C117.245 110.484 113.941 111.285 110.438 111.285C115.743 112.987 121.649 112.186 127.054 116.092C122.049 116.592 117.645 117.093 113.341 117.594C119.146 120.297 125.353 121.999 129.557 128.007C127.054 127.406 124.952 127.006 122.85 126.505C120.748 126.005 118.746 125.103 116.644 124.803C114.642 124.503 112.74 123.201 110.238 124.002C112.84 125.904 115.042 127.507 117.345 129.209C111.639 129.309 106.734 125.904 100.929 126.205C101.329 128.007 103.331 128.308 104.032 130.21C102.83 130.01 101.729 129.91 100.728 129.609C99.7274 129.309 98.8265 128.808 97.8255 128.508C96.7244 128.207 95.6233 128.007 94.5223 127.907C93.5213 127.807 92.5203 127.406 91.0188 127.807C93.1209 129.209 95.5232 129.309 97.1248 131.712C93.7215 131.712 90.7185 131.712 87.2151 131.712C89.0169 133.114 90.4182 134.115 91.7195 135.117C90.218 135.617 88.8167 135.617 87.5154 135.517C86.8147 135.417 86.114 135.217 85.4133 135.016C84.112 134.716 82.8108 134.316 81.5095 134.115C80.2082 133.915 78.9069 133.815 77.5056 133.715C76.4045 133.615 75.5036 133.314 74.5026 134.616C74.0021 135.317 72.0002 134.816 70.6989 134.816C70.5988 134.816 70.5988 135.117 70.2985 135.517C76.7048 136.118 82.6106 138.121 88.4163 140.424C94.3221 142.727 99.7274 145.731 104.332 150.136C103.931 150.637 103.631 151.038 103.131 151.538C106.434 154.442 109.237 157.646 111.639 161.852C110.138 161.651 109.137 161.551 108.036 161.451C109.337 166.258 110.638 170.864 111.939 175.37C111.739 175.47 111.539 175.57 111.339 175.67C110.638 174.969 110.037 174.168 109.337 173.467C107.735 171.765 106.034 170.063 104.332 168.46C103.731 167.86 102.83 167.659 101.529 166.858C102.33 169.362 102.931 171.164 103.531 172.966C99.0267 170.763 96.4241 166.258 91.5193 164.155C91.9197 166.858 94.222 168.46 93.9217 171.264C90.6184 168.06 87.6155 165.056 83.2112 163.754C88.2161 171.364 94.5223 177.973 97.2249 187.385C96.4241 186.985 96.1238 186.885 95.7234 186.785C95.3231 186.584 94.8226 186.384 94.1219 186.084C95.2229 190.189 97.8255 193.493 97.9256 197.699C96.7244 196.798 95.8235 195.997 94.6224 194.995C94.7225 197.999 94.8226 200.402 94.7225 202.906C94.6224 205.309 94.222 207.712 93.9217 210.115C93.7215 210.115 93.4212 210.215 93.221 210.215C90.3181 206.21 90.4182 201.003 88.8167 196.497C89.3172 202.806 89.0169 208.813 86.8147 215.422C84.3122 209.715 84.7126 204.007 82.7107 198.8C81.8098 201.804 81.009 204.808 80.008 208.113C76.8049 204.508 78.4065 200.202 77.2053 196.097C76.3044 197.799 75.6037 199.001 74.7028 200.603C73.1012 198.099 72.1003 195.997 72.5007 193.393C72.7009 192.092 72.4006 190.79 72.3005 189.488C72.1003 189.488 72.0002 189.488 71.8 189.488C71.2995 190.489 70.799 191.391 69.8981 192.993C69.6979 190.189 69.4977 188.086 69.2975 185.883C69.0973 185.883 68.8971 185.883 68.6969 185.883C67.9962 187.686 67.1954 189.488 66.2946 191.691C64.1925 188.687 65.3937 185.683 64.693 182.779C64.1925 183.08 63.7921 183.38 62.9913 183.881C62.1906 181.578 61.4899 179.575 60.6891 177.072C60.2887 178.073 59.9884 178.674 59.6881 179.375C57.4859 177.973 56.2848 176.171 56.1847 173.767C55.9845 171.565 54.7833 170.363 52.481 169.462C53.0816 171.965 53.3819 174.068 53.9825 176.07C55.8844 182.879 57.9864 189.588 59.8883 196.497C61.4899 202.205 62.8912 208.012 64.1925 213.82C64.7931 216.624 64.8932 219.427 66.0944 222.331C67.9962 226.737 68.797 231.543 69.9982 236.25C70.9992 240.055 71.9001 243.759 73.0012 247.564C75.5036 256.276 78.3064 264.787 80.6086 273.499C83.1111 283.111 85.4133 292.824 87.4153 302.537C89.6175 313.451 92.5203 325.066 93.1209 336.381C93.6214 346.995 93.8216 356.708 92.1199 367.022C91.3191 372.128 90.6184 377.235 89.7176 382.242C89.0169 386.047 87.9158 389.852 86.7146 393.556C85.6135 396.961 84.4123 400.365 83.2112 403.77C81.1091 404.371 77.0051 404.771 74.903 404.871C72.9011 404.371 70.9992 403.57 69.4977 402.368C70.9992 397.161 72.8009 391.954 74.1022 386.747C75.6037 380.539 76.7048 374.331 77.7058 368.023C78.4065 363.617 78.7067 359.111 79.2072 354.705C81.5095 331.675 75.0031 298.431 74.3024 295.227C73.2013 290.421 72.6008 285.614 70.9992 280.908C69.798 277.604 70.2985 273.799 68.2965 270.695C68.2965 270.595 68.2965 270.495 68.2965 270.394C66.7951 263.586 65.2936 256.777 63.7921 250.068C63.3917 248.165 62.5909 246.363 62.0904 244.46C59.6881 236.149 57.3858 227.738 54.9835 219.427C53.1817 213.019 51.3799 206.611 49.378 200.302C47.4761 194.094 45.374 187.986 43.3721 181.878C43.1719 181.377 42.8716 180.977 42.3711 179.976C41.1699 182.98 42.9717 185.283 42.9717 187.886C41.6704 187.485 40.4692 187.085 38.8677 186.684C39.2681 189.989 39.6684 192.893 40.0688 196.497C38.2671 194.895 36.9658 193.593 35.4643 192.192C34.1631 196.597 36.9658 200.302 36.9658 204.308C33.7627 203.507 33.8628 200.002 31.4604 198.2C31.2602 205.409 32.7617 212.018 34.8637 218.727C29.8588 215.823 28.3574 211.117 26.8559 206.41C26.6557 206.51 26.3554 206.51 26.1552 206.611L25.4545 212.618C24.5536 211.717 24.1532 210.716 24.0531 209.715C23.8529 207.312 23.6527 204.808 23.6527 202.305C23.6527 200.603 23.4525 199.101 22.1513 197.098C21.4506 199.902 20.9501 202.205 20.4496 204.408C19.3485 203.406 18.6478 202.405 18.3475 201.304C17.9471 199.601 17.847 197.899 17.6468 196.097C17.1463 190.089 18.1473 184.281 18.9481 178.373C19.849 171.865 20.7499 165.456 21.7509 158.748C19.3485 162.352 18.5477 166.758 15.1444 170.163C14.9442 168.16 14.744 166.758 14.6439 165.256C12.5418 168.961 12.9422 173.567 9.83918 176.972C9.43879 172.666 9.13849 168.46 8.7381 164.155C8.1375 164.555 7.83722 164.856 7.83722 165.256C7.33672 170.463 5.53497 175.47 5.93536 180.777C6.03545 181.778 5.83527 182.879 5.53497 183.781C5.23468 184.782 4.63407 185.683 4.23367 186.684C4.03348 186.684 3.7332 186.684 3.533 186.584C2.83232 182.579 2.03152 178.574 1.33084 174.669C0.329849 177.172 -0.170639 179.675 -0.77124 182.178C-1.47192 184.582 -0.671143 187.385 -2.87331 190.089C-3.57399 185.283 -4.77516 181.177 -4.77516 176.972C-4.87526 165.156 0.830338 155.543 8.2376 146.832C11.0404 143.528 14.2435 140.824 18.3475 138.922C21.7509 137.319 24.954 135.117 28.7577 132.814C23.3524 132.113 19.849 136.318 15.0443 136.619C15.4447 135.317 15.8451 134.416 16.1454 133.514C15.9452 133.414 15.745 133.214 15.5448 133.114C12.2416 135.818 8.8382 138.521 5.73515 141.325C3.93338 142.927 2.23172 144.429 -0.671127 144.729C4.63408 138.521 9.03839 132.013 15.745 127.607C13.8431 128.207 12.1414 129.109 10.5399 130.01C8.63802 131.111 6.63604 132.213 4.83427 133.514C0.830338 136.518 -3.0735 139.623 -6.37674 143.528C-7.17752 144.429 -8.07838 145.33 -9.07938 146.031C-10.0804 146.732 -11.2816 147.233 -12.3826 147.833C-12.4827 147.633 -12.6829 147.533 -12.783 147.333C-11.1814 143.828 -9.57986 140.323 -6.97731 137.319C-4.47485 134.516 -1.9724 131.712 0.93045 128.508C0.0295563 128.908 -0.270721 129.009 -0.470917 129.109C-0.871307 129.409 -1.37183 129.609 -1.77222 129.91C-6.97733 133.615 -11.3816 138.121 -15.1854 143.327C-17.4876 146.532 -20.1903 149.435 -22.7928 152.439C-23.0931 149.135 -22.3925 146.231 -20.891 143.528C-19.6898 140.824 -18.3885 138.121 -16.6868 135.717Z"/>
</mask>
<path fill-rule="evenodd" clip-rule="evenodd" d="M-16.6868 135.717C-14.9852 133.214 -12.8831 131.111 -10.5808 128.408C-19.0892 133.314 -24.5946 140.323 -29.9999 147.533C-28.6986 143.227 -27.7977 138.721 -24.2943 135.517C-23.6937 135.016 -23.2933 134.215 -22.7928 133.514C-17.0872 125.704 -9.88017 119.796 -0.37085 117.093C0.329834 116.893 1.03055 116.392 2.03153 115.891C-3.07347 114.189 -7.67799 116.692 -12.5828 116.192C-11.782 114.59 -10.3806 113.989 -8.97926 113.288C-1.37181 109.483 6.53595 110.184 14.4437 112.186C16.3456 112.687 18.1473 113.288 19.9491 113.789C15.8451 109.283 10.64 107.28 4.83427 106.179C5.13457 105.778 5.33475 105.578 5.63505 105.578C6.33573 105.377 7.03642 105.277 7.73711 105.177C14.744 104.076 21.1503 105.878 27.1562 109.383C28.0571 109.883 28.8578 110.584 30.3593 110.785C27.0561 108.982 23.7528 107.28 20.5497 105.478C19.5487 104.877 18.5477 104.176 17.7469 102.974C20.1493 103.275 22.5517 103.575 25.0541 103.976C21.3505 101.572 17.0462 100.671 13.2425 98.969C9.13849 97.1667 5.03447 97.3669 0.830338 96.7662C4.83427 94.7635 9.23859 95.865 13.743 94.7635C9.23859 91.8597 4.13359 91.7596 -0.57103 89.9572C2.13163 88.4552 7.43682 88.3551 17.7469 89.1561C17.1463 87.4539 15.6449 86.8531 14.2435 86.4526C12.1414 85.8518 10.5399 84.7503 9.03841 83.0481C15.5448 82.7477 21.2504 83.749 25.6547 89.056C27.2563 90.9585 29.5585 92.2602 31.9609 94.1627C32.1611 91.1588 30.2592 89.5567 29.8588 87.4539C33.2622 89.3564 34.8637 91.2589 39.5683 98.8689C39.0679 95.6647 38.6675 93.0613 38.2671 90.1575C42.271 93.7622 43.7725 98.5685 45.5742 103.375C46.0747 101.172 46.5752 98.969 47.1758 96.2655C49.1778 99.5698 49.1778 102.874 49.378 106.279C49.8785 105.678 50.379 105.177 50.8794 104.576C51.1797 105.277 51.2798 106.078 51.48 106.579C51.7803 105.277 51.7803 103.875 51.9805 102.374C53.5821 104.677 54.0826 106.879 53.9825 109.182C55.3839 108.482 56.6851 107.881 57.6861 106.98C59.9884 104.777 62.691 104.476 65.694 104.276C64.9933 105.878 64.3927 107.38 63.7921 108.782C68.797 104.376 74.2023 101.272 81.2092 100.671C80.2082 103.976 76.8049 104.977 76.3044 108.181C78.6066 105.978 81.1091 104.176 84.2122 103.275C87.2151 102.374 90.0178 100.771 93.6214 101.873C91.4192 103.475 88.9168 104.276 87.5154 106.779C93.5213 106.579 98.5262 103.175 104.432 103.275C102.13 104.977 99.8275 106.679 97.1248 108.682C113.04 106.379 116.043 106.479 120.448 109.082C117.245 110.484 113.941 111.285 110.438 111.285C115.743 112.987 121.649 112.186 127.054 116.092C122.049 116.592 117.645 117.093 113.341 117.594C119.146 120.297 125.353 121.999 129.557 128.007C127.054 127.406 124.952 127.006 122.85 126.505C120.748 126.005 118.746 125.103 116.644 124.803C114.642 124.503 112.74 123.201 110.238 124.002C112.84 125.904 115.042 127.507 117.345 129.209C111.639 129.309 106.734 125.904 100.929 126.205C101.329 128.007 103.331 128.308 104.032 130.21C102.83 130.01 101.729 129.91 100.728 129.609C99.7274 129.309 98.8265 128.808 97.8255 128.508C96.7244 128.207 95.6233 128.007 94.5223 127.907C93.5213 127.807 92.5203 127.406 91.0188 127.807C93.1209 129.209 95.5232 129.309 97.1248 131.712C93.7215 131.712 90.7185 131.712 87.2151 131.712C89.0169 133.114 90.4182 134.115 91.7195 135.117C90.218 135.617 88.8167 135.617 87.5154 135.517C86.8147 135.417 86.114 135.217 85.4133 135.016C84.112 134.716 82.8108 134.316 81.5095 134.115C80.2082 133.915 78.9069 133.815 77.5056 133.715C76.4045 133.615 75.5036 133.314 74.5026 134.616C74.0021 135.317 72.0002 134.816 70.6989 134.816C70.5988 134.816 70.5988 135.117 70.2985 135.517C76.7048 136.118 82.6106 138.121 88.4163 140.424C94.3221 142.727 99.7274 145.731 104.332 150.136C103.931 150.637 103.631 151.038 103.131 151.538C106.434 154.442 109.237 157.646 111.639 161.852C110.138 161.651 109.137 161.551 108.036 161.451C109.337 166.258 110.638 170.864 111.939 175.37C111.739 175.47 111.539 175.57 111.339 175.67C110.638 174.969 110.037 174.168 109.337 173.467C107.735 171.765 106.034 170.063 104.332 168.46C103.731 167.86 102.83 167.659 101.529 166.858C102.33 169.362 102.931 171.164 103.531 172.966C99.0267 170.763 96.4241 166.258 91.5193 164.155C91.9197 166.858 94.222 168.46 93.9217 171.264C90.6184 168.06 87.6155 165.056 83.2112 163.754C88.2161 171.364 94.5223 177.973 97.2249 187.385C96.4241 186.985 96.1238 186.885 95.7234 186.785C95.3231 186.584 94.8226 186.384 94.1219 186.084C95.2229 190.189 97.8255 193.493 97.9256 197.699C96.7244 196.798 95.8235 195.997 94.6224 194.995C94.7225 197.999 94.8226 200.402 94.7225 202.906C94.6224 205.309 94.222 207.712 93.9217 210.115C93.7215 210.115 93.4212 210.215 93.221 210.215C90.3181 206.21 90.4182 201.003 88.8167 196.497C89.3172 202.806 89.0169 208.813 86.8147 215.422C84.3122 209.715 84.7126 204.007 82.7107 198.8C81.8098 201.804 81.009 204.808 80.008 208.113C76.8049 204.508 78.4065 200.202 77.2053 196.097C76.3044 197.799 75.6037 199.001 74.7028 200.603C73.1012 198.099 72.1003 195.997 72.5007 193.393C72.7009 192.092 72.4006 190.79 72.3005 189.488C72.1003 189.488 72.0002 189.488 71.8 189.488C71.2995 190.489 70.799 191.391 69.8981 192.993C69.6979 190.189 69.4977 188.086 69.2975 185.883C69.0973 185.883 68.8971 185.883 68.6969 185.883C67.9962 187.686 67.1954 189.488 66.2946 191.691C64.1925 188.687 65.3937 185.683 64.693 182.779C64.1925 183.08 63.7921 183.38 62.9913 183.881C62.1906 181.578 61.4899 179.575 60.6891 177.072C60.2887 178.073 59.9884 178.674 59.6881 179.375C57.4859 177.973 56.2848 176.171 56.1847 173.767C55.9845 171.565 54.7833 170.363 52.481 169.462C53.0816 171.965 53.3819 174.068 53.9825 176.07C55.8844 182.879 57.9864 189.588 59.8883 196.497C61.4899 202.205 62.8912 208.012 64.1925 213.82C64.7931 216.624 64.8932 219.427 66.0944 222.331C67.9962 226.737 68.797 231.543 69.9982 236.25C70.9992 240.055 71.9001 243.759 73.0012 247.564C75.5036 256.276 78.3064 264.787 80.6086 273.499C83.1111 283.111 85.4133 292.824 87.4153 302.537C89.6175 313.451 92.5203 325.066 93.1209 336.381C93.6214 346.995 93.8216 356.708 92.1199 367.022C91.3191 372.128 90.6184 377.235 89.7176 382.242C89.0169 386.047 87.9158 389.852 86.7146 393.556C85.6135 396.961 84.4123 400.365 83.2112 403.77C81.1091 404.371 77.0051 404.771 74.903 404.871C72.9011 404.371 70.9992 403.57 69.4977 402.368C70.9992 397.161 72.8009 391.954 74.1022 386.747C75.6037 380.539 76.7048 374.331 77.7058 368.023C78.4065 363.617 78.7067 359.111 79.2072 354.705C81.5095 331.675 75.0031 298.431 74.3024 295.227C73.2013 290.421 72.6008 285.614 70.9992 280.908C69.798 277.604 70.2985 273.799 68.2965 270.695C68.2965 270.595 68.2965 270.495 68.2965 270.394C66.7951 263.586 65.2936 256.777 63.7921 250.068C63.3917 248.165 62.5909 246.363 62.0904 244.46C59.6881 236.149 57.3858 227.738 54.9835 219.427C53.1817 213.019 51.3799 206.611 49.378 200.302C47.4761 194.094 45.374 187.986 43.3721 181.878C43.1719 181.377 42.8716 180.977 42.3711 179.976C41.1699 182.98 42.9717 185.283 42.9717 187.886C41.6704 187.485 40.4692 187.085 38.8677 186.684C39.2681 189.989 39.6684 192.893 40.0688 196.497C38.2671 194.895 36.9658 193.593 35.4643 192.192C34.1631 196.597 36.9658 200.302 36.9658 204.308C33.7627 203.507 33.8628 200.002 31.4604 198.2C31.2602 205.409 32.7617 212.018 34.8637 218.727C29.8588 215.823 28.3574 211.117 26.8559 206.41C26.6557 206.51 26.3554 206.51 26.1552 206.611L25.4545 212.618C24.5536 211.717 24.1532 210.716 24.0531 209.715C23.8529 207.312 23.6527 204.808 23.6527 202.305C23.6527 200.603 23.4525 199.101 22.1513 197.098C21.4506 199.902 20.9501 202.205 20.4496 204.408C19.3485 203.406 18.6478 202.405 18.3475 201.304C17.9471 199.601 17.847 197.899 17.6468 196.097C17.1463 190.089 18.1473 184.281 18.9481 178.373C19.849 171.865 20.7499 165.456 21.7509 158.748C19.3485 162.352 18.5477 166.758 15.1444 170.163C14.9442 168.16 14.744 166.758 14.6439 165.256C12.5418 168.961 12.9422 173.567 9.83918 176.972C9.43879 172.666 9.13849 168.46 8.7381 164.155C8.1375 164.555 7.83722 164.856 7.83722 165.256C7.33672 170.463 5.53497 175.47 5.93536 180.777C6.03545 181.778 5.83527 182.879 5.53497 183.781C5.23468 184.782 4.63407 185.683 4.23367 186.684C4.03348 186.684 3.7332 186.684 3.533 186.584C2.83232 182.579 2.03152 178.574 1.33084 174.669C0.329849 177.172 -0.170639 179.675 -0.77124 182.178C-1.47192 184.582 -0.671143 187.385 -2.87331 190.089C-3.57399 185.283 -4.77516 181.177 -4.77516 176.972C-4.87526 165.156 0.830338 155.543 8.2376 146.832C11.0404 143.528 14.2435 140.824 18.3475 138.922C21.7509 137.319 24.954 135.117 28.7577 132.814C23.3524 132.113 19.849 136.318 15.0443 136.619C15.4447 135.317 15.8451 134.416 16.1454 133.514C15.9452 133.414 15.745 133.214 15.5448 133.114C12.2416 135.818 8.8382 138.521 5.73515 141.325C3.93338 142.927 2.23172 144.429 -0.671127 144.729C4.63408 138.521 9.03839 132.013 15.745 127.607C13.8431 128.207 12.1414 129.109 10.5399 130.01C8.63802 131.111 6.63604 132.213 4.83427 133.514C0.830338 136.518 -3.0735 139.623 -6.37674 143.528C-7.17752 144.429 -8.07838 145.33 -9.07938 146.031C-10.0804 146.732 -11.2816 147.233 -12.3826 147.833C-12.4827 147.633 -12.6829 147.533 -12.783 147.333C-11.1814 143.828 -9.57986 140.323 -6.97731 137.319C-4.47485 134.516 -1.9724 131.712 0.93045 128.508C0.0295563 128.908 -0.270721 129.009 -0.470917 129.109C-0.871307 129.409 -1.37183 129.609 -1.77222 129.91C-6.97733 133.615 -11.3816 138.121 -15.1854 143.327C-17.4876 146.532 -20.1903 149.435 -22.7928 152.439C-23.0931 149.135 -22.3925 146.231 -20.891 143.528C-19.6898 140.824 -18.3885 138.121 -16.6868 135.717Z" stroke="#EEEEEE" stroke-width="2" mask="url(#path-2-inside-1_1001_5372)"/>
<mask id="path-3-inside-2_1001_5372" fill="white">
<path fill-rule="evenodd" clip-rule="evenodd" d="M108.035 405.372C101.829 406.474 98.2256 406.274 92.9204 403.27C92.8203 399.965 94.1216 397.262 94.9223 393.357C96.0234 388.25 98.0254 381.441 99.3267 376.434C100.027 373.631 100.728 370.827 101.529 368.123C102.53 364.719 103.731 361.314 104.732 357.91C105.733 354.806 106.434 351.602 107.635 348.498C109.937 342.49 112.139 336.382 114.842 330.474C117.745 323.965 121.148 317.657 124.251 311.249C125.953 307.744 127.354 304.139 128.856 300.534C131.758 293.826 134.661 287.117 138.765 281.109C141.768 276.703 145.172 272.598 148.074 268.092C152.879 260.682 157.284 253.072 162.088 245.662C164.29 242.158 166.593 238.853 169.095 235.549C172.498 230.943 176.302 226.637 179.706 222.031C183.91 216.224 188.014 210.316 192.118 204.408C194.32 201.204 196.422 197.799 198.524 194.595C197.123 195.096 196.122 195.897 195.121 196.798C193.119 198.6 191.317 200.503 189.215 202.105C187.413 203.507 185.711 205.009 185.011 207.212C184.61 208.614 184.01 209.915 183.509 211.217C182.909 212.719 182.408 214.221 180.406 214.922C180.606 212.519 180.707 210.416 181.007 208.313C181.307 206.21 181.808 204.108 182.408 201.404C178.204 206.411 177.603 212.619 173.6 216.925C173.399 216.824 173.099 216.824 172.899 216.724C173.199 214.722 173.499 212.819 173.9 210.316C170.496 213.62 169.095 217.926 165.291 220.73C165.291 217.926 166.793 215.823 166.292 213.52C161.988 219.228 159.285 225.836 155.882 231.944C155.582 231.844 155.382 231.744 155.081 231.644C155.982 228.039 156.783 224.334 157.784 220.329C156.583 220.73 155.882 221.03 155.081 221.33C154.881 221.23 154.781 221.03 154.581 220.93C157.083 216.724 159.686 212.519 162.589 207.712C158.685 209.615 156.883 213.42 152.479 214.221C154.681 211.117 156.483 208.413 158.485 205.91C160.587 203.307 162.989 201.004 165.492 198.2C163.59 198.3 162.188 199.602 160.587 199.101C160.787 198.701 160.787 198.5 160.887 198.4C165.492 194.795 170.396 191.591 176.102 189.789C177.403 189.388 178.504 188.788 179.105 187.185C175.602 186.985 173.099 189.589 169.596 189.989C170.797 188.687 171.698 187.686 172.999 186.384C168.595 186.785 165.492 189.188 161.988 190.69C161.888 190.49 161.688 190.39 161.588 190.189C162.889 188.487 164.09 186.785 165.391 184.983C162.989 185.984 160.887 187.386 158.785 188.687C153.98 191.791 153.48 191.892 151.778 191.892C154.781 188.687 158.785 186.484 161.087 182.579C159.586 182.079 158.184 183.681 156.483 182.279C158.585 180.877 160.387 179.575 162.288 178.474C164.19 177.373 166.292 176.571 168.294 175.57C167.594 175.17 166.993 174.869 165.992 174.268C170.997 173.067 175.401 172.066 180.206 170.964C178.204 170.363 176.703 169.863 175.101 169.362C175.101 169.162 175.201 168.861 175.201 168.661C179.505 166.558 184.41 166.959 188.915 165.457C180.807 164.155 172.699 163.654 164.491 163.855C165.391 163.254 166.292 162.753 167.293 162.553C171.598 161.552 175.902 160.651 180.206 159.649C180.907 159.449 181.808 159.749 182.108 158.548C173.099 157.647 164.19 159.449 155.382 159.048C155.382 158.848 155.282 158.648 155.282 158.448C159.486 156.745 163.59 155.143 167.794 153.541C164.19 153.241 160.587 153.041 157.083 153.341C153.58 153.641 150.277 155.143 146.573 155.043C146.873 154.242 147.274 153.441 147.874 153.141C150.677 151.739 153.48 150.037 156.483 149.236C160.587 148.134 164.991 147.834 169.195 147.233C169.796 147.133 170.396 146.832 171.497 146.532C167.393 144.229 163.089 143.929 159.185 142.427C168.595 140.023 177.403 142.427 185.912 146.532C181.908 142.527 177.203 139.723 172.599 136.719C176.903 136.719 180.406 138.622 184.01 140.324C187.713 142.126 191.517 143.828 194.72 146.232C197.723 148.535 200.126 151.839 202.728 154.643C200.226 149.636 195.621 145.731 195.021 139.423C199.625 143.127 204.029 146.732 208.434 150.337C208.734 149.936 209.034 149.436 209.535 148.635C210.536 151.038 211.537 153.441 212.538 155.744C212.838 154.042 213.238 152.239 213.639 150.537C214.039 152.34 214.44 154.142 214.94 156.245C217.042 152.039 215.24 147.333 217.743 143.528C220.045 145.531 218.644 148.334 220.045 150.737C221.446 146.732 222.147 142.727 224.85 139.623C224.65 141.525 224.449 143.528 224.349 145.431C227.452 142.527 229.855 139.222 233.258 136.819C231.656 140.124 229.254 143.027 228.954 147.433C230.856 146.332 232.357 145.431 234.359 144.229C231.656 148.234 228.654 151.338 226.551 155.644C229.454 154.743 230.956 152.239 233.759 152.54C233.458 153.041 233.358 153.341 233.158 153.541C231.857 155.143 230.555 156.745 229.254 158.347C230.255 158.147 231.256 158.047 232.357 157.847C230.055 160.05 228.053 161.852 226.051 163.755C226.051 163.855 226.051 163.855 226.051 163.955C227.352 163.855 228.353 163.354 229.454 162.853C232.357 161.351 235.26 159.749 238.263 158.548C240.465 157.647 242.968 157.446 245.87 158.448C243.368 159.549 240.866 159.749 239.664 162.553C244.069 162.152 248.273 160.15 252.977 161.552C250.575 162.853 248.573 163.955 246.571 164.956C251.676 165.357 256.681 165.557 261.286 168.461C258.383 168.761 255.78 169.162 252.577 169.462C261.185 171.965 263.488 172.967 266.19 175.77C264.088 175.871 261.986 174.469 259.184 175.57C261.686 177.373 263.488 179.275 265.79 180.276C272.096 183.08 274.599 188.287 276 194.595C273.898 193.594 272.396 192.292 271.295 190.49C270.595 189.288 269.594 187.986 267.692 187.886C271.295 197.599 272.497 202.706 271.796 205.71C268.793 201.604 267.291 196.698 263.288 193.193C263.488 197.799 265.69 201.805 264.789 206.21C263.087 202.405 262.186 198.3 259.384 194.795C256.681 191.591 254.679 187.686 251.376 184.782C252.377 186.985 253.278 189.288 254.279 191.491C252.877 191.091 251.876 190.29 251.076 189.488C248.373 186.785 245.77 183.981 243.168 181.278C242.167 180.276 241.066 179.175 239.064 178.574C240.665 181.478 243.268 183.08 243.969 186.685C239.064 183.681 234.659 181.077 230.255 178.374C230.155 178.474 230.055 178.674 229.855 178.774C231.156 180.376 232.357 181.878 233.658 183.481C233.558 183.581 233.358 183.781 233.258 183.881C231.356 183.08 229.554 182.379 227.653 181.678C228.353 183.08 229.354 184.081 230.355 185.183C234.459 189.789 238.663 194.395 240.465 200.503C241.666 204.508 242.567 208.614 243.068 212.719C243.568 218.126 241.466 222.832 238.063 227.038C238.363 224.735 238.864 222.432 239.264 220.129C239.664 217.826 239.865 215.523 238.163 213.22C236.762 216.424 235.56 219.328 234.359 222.232C233.959 217.125 234.659 212.218 233.258 207.112C232.657 209.014 232.057 210.616 231.556 212.118C231.256 212.118 231.056 212.118 230.756 212.118C230.255 210.917 229.655 209.815 229.254 208.614C228.353 205.81 227.552 202.906 226.952 200.002C226.551 198.1 225.25 196.898 223.549 195.196C223.849 197.799 224.049 199.902 224.249 201.905C224.049 202.005 223.849 202.105 223.649 202.205C222.548 201.104 221.446 200.002 220.245 198.701C220.045 199.301 219.745 199.702 219.745 200.002C219.945 204.208 220.345 208.413 220.445 212.619C220.646 218.026 219.645 223.333 218.444 228.64C218.043 226.838 217.643 225.035 217.142 222.932C215.04 227.138 216.842 231.844 214.34 235.649C212.037 233.647 213.439 230.843 212.037 228.44C210.636 232.445 209.935 236.45 207.233 239.554C207.433 237.652 207.633 235.649 207.733 233.747C204.63 236.65 202.228 239.955 198.824 242.358C200.426 239.054 202.828 236.15 203.129 231.744C201.227 232.845 199.725 233.747 197.723 234.948C200.426 230.943 203.429 227.839 205.531 223.533C202.628 224.434 201.127 226.938 198.324 226.637C198.624 226.137 198.724 225.836 198.924 225.636C200.826 223.233 202.828 220.83 204.73 218.527C206.232 216.624 206.031 214.421 206.332 211.517C204.83 213.12 204.029 214.421 202.828 215.322C201.627 216.324 200.126 216.925 198.824 217.726C200.126 214.822 201.827 212.419 203.129 209.815C204.53 207.212 206.232 204.809 206.532 201.705C205.631 202.205 205.03 202.906 204.53 203.607C199.425 210.716 194.12 217.826 189.215 225.135C182.809 234.748 176.703 244.661 170.296 254.374C167.193 259.08 163.99 263.786 160.487 268.192C155.382 274.701 151.077 281.61 147.574 289.019C142.569 299.533 137.464 310.147 132.559 320.661C129.757 326.569 127.154 332.577 125.052 338.785C123.651 343.09 120.848 351.001 119.547 357.61C117.845 366.822 115.142 374.832 113.541 384.044C112.84 385.947 109.737 398.764 108.035 405.372Z"/>
</mask>
<path fill-rule="evenodd" clip-rule="evenodd" d="M108.035 405.372C101.829 406.474 98.2256 406.274 92.9204 403.27C92.8203 399.965 94.1216 397.262 94.9223 393.357C96.0234 388.25 98.0254 381.441 99.3267 376.434C100.027 373.631 100.728 370.827 101.529 368.123C102.53 364.719 103.731 361.314 104.732 357.91C105.733 354.806 106.434 351.602 107.635 348.498C109.937 342.49 112.139 336.382 114.842 330.474C117.745 323.965 121.148 317.657 124.251 311.249C125.953 307.744 127.354 304.139 128.856 300.534C131.758 293.826 134.661 287.117 138.765 281.109C141.768 276.703 145.172 272.598 148.074 268.092C152.879 260.682 157.284 253.072 162.088 245.662C164.29 242.158 166.593 238.853 169.095 235.549C172.498 230.943 176.302 226.637 179.706 222.031C183.91 216.224 188.014 210.316 192.118 204.408C194.32 201.204 196.422 197.799 198.524 194.595C197.123 195.096 196.122 195.897 195.121 196.798C193.119 198.6 191.317 200.503 189.215 202.105C187.413 203.507 185.711 205.009 185.011 207.212C184.61 208.614 184.01 209.915 183.509 211.217C182.909 212.719 182.408 214.221 180.406 214.922C180.606 212.519 180.707 210.416 181.007 208.313C181.307 206.21 181.808 204.108 182.408 201.404C178.204 206.411 177.603 212.619 173.6 216.925C173.399 216.824 173.099 216.824 172.899 216.724C173.199 214.722 173.499 212.819 173.9 210.316C170.496 213.62 169.095 217.926 165.291 220.73C165.291 217.926 166.793 215.823 166.292 213.52C161.988 219.228 159.285 225.836 155.882 231.944C155.582 231.844 155.382 231.744 155.081 231.644C155.982 228.039 156.783 224.334 157.784 220.329C156.583 220.73 155.882 221.03 155.081 221.33C154.881 221.23 154.781 221.03 154.581 220.93C157.083 216.724 159.686 212.519 162.589 207.712C158.685 209.615 156.883 213.42 152.479 214.221C154.681 211.117 156.483 208.413 158.485 205.91C160.587 203.307 162.989 201.004 165.492 198.2C163.59 198.3 162.188 199.602 160.587 199.101C160.787 198.701 160.787 198.5 160.887 198.4C165.492 194.795 170.396 191.591 176.102 189.789C177.403 189.388 178.504 188.788 179.105 187.185C175.602 186.985 173.099 189.589 169.596 189.989C170.797 188.687 171.698 187.686 172.999 186.384C168.595 186.785 165.492 189.188 161.988 190.69C161.888 190.49 161.688 190.39 161.588 190.189C162.889 188.487 164.09 186.785 165.391 184.983C162.989 185.984 160.887 187.386 158.785 188.687C153.98 191.791 153.48 191.892 151.778 191.892C154.781 188.687 158.785 186.484 161.087 182.579C159.586 182.079 158.184 183.681 156.483 182.279C158.585 180.877 160.387 179.575 162.288 178.474C164.19 177.373 166.292 176.571 168.294 175.57C167.594 175.17 166.993 174.869 165.992 174.268C170.997 173.067 175.401 172.066 180.206 170.964C178.204 170.363 176.703 169.863 175.101 169.362C175.101 169.162 175.201 168.861 175.201 168.661C179.505 166.558 184.41 166.959 188.915 165.457C180.807 164.155 172.699 163.654 164.491 163.855C165.391 163.254 166.292 162.753 167.293 162.553C171.598 161.552 175.902 160.651 180.206 159.649C180.907 159.449 181.808 159.749 182.108 158.548C173.099 157.647 164.19 159.449 155.382 159.048C155.382 158.848 155.282 158.648 155.282 158.448C159.486 156.745 163.59 155.143 167.794 153.541C164.19 153.241 160.587 153.041 157.083 153.341C153.58 153.641 150.277 155.143 146.573 155.043C146.873 154.242 147.274 153.441 147.874 153.141C150.677 151.739 153.48 150.037 156.483 149.236C160.587 148.134 164.991 147.834 169.195 147.233C169.796 147.133 170.396 146.832 171.497 146.532C167.393 144.229 163.089 143.929 159.185 142.427C168.595 140.023 177.403 142.427 185.912 146.532C181.908 142.527 177.203 139.723 172.599 136.719C176.903 136.719 180.406 138.622 184.01 140.324C187.713 142.126 191.517 143.828 194.72 146.232C197.723 148.535 200.126 151.839 202.728 154.643C200.226 149.636 195.621 145.731 195.021 139.423C199.625 143.127 204.029 146.732 208.434 150.337C208.734 149.936 209.034 149.436 209.535 148.635C210.536 151.038 211.537 153.441 212.538 155.744C212.838 154.042 213.238 152.239 213.639 150.537C214.039 152.34 214.44 154.142 214.94 156.245C217.042 152.039 215.24 147.333 217.743 143.528C220.045 145.531 218.644 148.334 220.045 150.737C221.446 146.732 222.147 142.727 224.85 139.623C224.65 141.525 224.449 143.528 224.349 145.431C227.452 142.527 229.855 139.222 233.258 136.819C231.656 140.124 229.254 143.027 228.954 147.433C230.856 146.332 232.357 145.431 234.359 144.229C231.656 148.234 228.654 151.338 226.551 155.644C229.454 154.743 230.956 152.239 233.759 152.54C233.458 153.041 233.358 153.341 233.158 153.541C231.857 155.143 230.555 156.745 229.254 158.347C230.255 158.147 231.256 158.047 232.357 157.847C230.055 160.05 228.053 161.852 226.051 163.755C226.051 163.855 226.051 163.855 226.051 163.955C227.352 163.855 228.353 163.354 229.454 162.853C232.357 161.351 235.26 159.749 238.263 158.548C240.465 157.647 242.968 157.446 245.87 158.448C243.368 159.549 240.866 159.749 239.664 162.553C244.069 162.152 248.273 160.15 252.977 161.552C250.575 162.853 248.573 163.955 246.571 164.956C251.676 165.357 256.681 165.557 261.286 168.461C258.383 168.761 255.78 169.162 252.577 169.462C261.185 171.965 263.488 172.967 266.19 175.77C264.088 175.871 261.986 174.469 259.184 175.57C261.686 177.373 263.488 179.275 265.79 180.276C272.096 183.08 274.599 188.287 276 194.595C273.898 193.594 272.396 192.292 271.295 190.49C270.595 189.288 269.594 187.986 267.692 187.886C271.295 197.599 272.497 202.706 271.796 205.71C268.793 201.604 267.291 196.698 263.288 193.193C263.488 197.799 265.69 201.805 264.789 206.21C263.087 202.405 262.186 198.3 259.384 194.795C256.681 191.591 254.679 187.686 251.376 184.782C252.377 186.985 253.278 189.288 254.279 191.491C252.877 191.091 251.876 190.29 251.076 189.488C248.373 186.785 245.77 183.981 243.168 181.278C242.167 180.276 241.066 179.175 239.064 178.574C240.665 181.478 243.268 183.08 243.969 186.685C239.064 183.681 234.659 181.077 230.255 178.374C230.155 178.474 230.055 178.674 229.855 178.774C231.156 180.376 232.357 181.878 233.658 183.481C233.558 183.581 233.358 183.781 233.258 183.881C231.356 183.08 229.554 182.379 227.653 181.678C228.353 183.08 229.354 184.081 230.355 185.183C234.459 189.789 238.663 194.395 240.465 200.503C241.666 204.508 242.567 208.614 243.068 212.719C243.568 218.126 241.466 222.832 238.063 227.038C238.363 224.735 238.864 222.432 239.264 220.129C239.664 217.826 239.865 215.523 238.163 213.22C236.762 216.424 235.56 219.328 234.359 222.232C233.959 217.125 234.659 212.218 233.258 207.112C232.657 209.014 232.057 210.616 231.556 212.118C231.256 212.118 231.056 212.118 230.756 212.118C230.255 210.917 229.655 209.815 229.254 208.614C228.353 205.81 227.552 202.906 226.952 200.002C226.551 198.1 225.25 196.898 223.549 195.196C223.849 197.799 224.049 199.902 224.249 201.905C224.049 202.005 223.849 202.105 223.649 202.205C222.548 201.104 221.446 200.002 220.245 198.701C220.045 199.301 219.745 199.702 219.745 200.002C219.945 204.208 220.345 208.413 220.445 212.619C220.646 218.026 219.645 223.333 218.444 228.64C218.043 226.838 217.643 225.035 217.142 222.932C215.04 227.138 216.842 231.844 214.34 235.649C212.037 233.647 213.439 230.843 212.037 228.44C210.636 232.445 209.935 236.45 207.233 239.554C207.433 237.652 207.633 235.649 207.733 233.747C204.63 236.65 202.228 239.955 198.824 242.358C200.426 239.054 202.828 236.15 203.129 231.744C201.227 232.845 199.725 233.747 197.723 234.948C200.426 230.943 203.429 227.839 205.531 223.533C202.628 224.434 201.127 226.938 198.324 226.637C198.624 226.137 198.724 225.836 198.924 225.636C200.826 223.233 202.828 220.83 204.73 218.527C206.232 216.624 206.031 214.421 206.332 211.517C204.83 213.12 204.029 214.421 202.828 215.322C201.627 216.324 200.126 216.925 198.824 217.726C200.126 214.822 201.827 212.419 203.129 209.815C204.53 207.212 206.232 204.809 206.532 201.705C205.631 202.205 205.03 202.906 204.53 203.607C199.425 210.716 194.12 217.826 189.215 225.135C182.809 234.748 176.703 244.661 170.296 254.374C167.193 259.08 163.99 263.786 160.487 268.192C155.382 274.701 151.077 281.61 147.574 289.019C142.569 299.533 137.464 310.147 132.559 320.661C129.757 326.569 127.154 332.577 125.052 338.785C123.651 343.09 120.848 351.001 119.547 357.61C117.845 366.822 115.142 374.832 113.541 384.044C112.84 385.947 109.737 398.764 108.035 405.372Z" stroke="#EEEEEE" stroke-width="2" mask="url(#path-3-inside-2_1001_5372)"/>
<path d="M130.973 39.085C128.004 40.0582 123.972 41.4166 119.726 42.9561C115.48 44.495 111.014 46.2175 107.177 47.9189C103.356 49.6129 100.103 51.309 98.3291 52.8057L98.1074 52.9922L98.1592 53.2773L98.5488 55.4189C98.5131 55.4502 98.4738 55.4865 98.4287 55.5244C98.2203 55.6996 97.9164 55.9392 97.5391 56.1914C96.7812 56.6978 95.7531 57.2377 94.6221 57.4385C93.4838 57.5971 92.3496 57.4191 91.4854 57.1914C91.0553 57.0781 90.6985 56.9549 90.4512 56.8604C90.3974 56.8398 90.3496 56.8191 90.3066 56.8018L89.916 54.6514L89.8652 54.374L89.6016 54.2734L89.1748 54.1221C86.9616 53.3809 83.5132 52.8822 79.5918 52.5449C75.3907 52.1835 70.5887 52.0029 66.0576 51.9219C61.5255 51.8409 57.258 51.8603 54.124 51.8994C53.535 51.9068 52.9857 51.9146 52.4824 51.9229C52.5799 51.8923 52.6795 51.8616 52.7803 51.8301C54.9708 51.1441 57.9132 50.2302 60.9209 49.3193C63.9294 48.4083 67.0004 47.501 69.4492 46.8271C70.6742 46.4901 71.739 46.2125 72.5605 46.0225C72.9714 45.9274 73.3165 45.8553 73.5879 45.8086C73.8713 45.7598 74.0394 45.745 74.1133 45.748L74.123 45.749H74.1338C74.6324 45.7491 75.6855 45.8959 77.0654 46.1299C78.4281 46.361 80.0596 46.6673 81.6875 46.9697C83.3123 47.2716 84.9335 47.5697 86.2646 47.7812C86.93 47.887 87.5283 47.9722 88.0215 48.0254C88.5028 48.0773 88.9211 48.1029 89.207 48.0762C90.1516 47.9878 91.0697 47.8344 91.749 47.7031C92.0894 47.6374 92.3718 47.5772 92.5693 47.5332C92.668 47.5112 92.7455 47.493 92.7988 47.4805C92.8195 47.4756 92.8364 47.4709 92.8496 47.4678C92.8625 47.4665 92.8786 47.4658 92.8975 47.4639C92.953 47.4581 93.0345 47.4492 93.1367 47.4375C93.341 47.4141 93.631 47.3784 93.9766 47.3291C94.6665 47.2308 95.5855 47.0776 96.4863 46.8564C96.7591 46.7894 97.1408 46.6307 97.5742 46.4277C98.0188 46.2195 98.5531 45.9469 99.1445 45.6338C100.328 45.0073 101.759 44.2063 103.192 43.3975C104.628 42.5872 106.066 41.7698 107.272 41.1055C108.486 40.4372 109.428 39.9441 109.896 39.7627L109.897 39.7637C109.98 39.7335 110.155 39.6915 110.445 39.6455C110.725 39.6011 111.083 39.5574 111.51 39.5137C112.362 39.4262 113.472 39.3424 114.75 39.2637C117.306 39.1063 120.52 38.9687 123.671 38.8555C126.821 38.7423 129.906 38.6534 132.204 38.5928C132.308 38.59 132.411 38.5876 132.512 38.585C132.039 38.7378 131.524 38.9043 130.973 39.085Z" stroke="#EEEEEE"/>
<path d="M164.596 93.7715C165.58 93.8766 166.748 94.0043 167.933 94.1426C169.458 94.3206 171.01 94.5147 172.238 94.6973C172.853 94.7887 173.381 94.8766 173.782 94.957C173.983 94.9973 174.147 95.0347 174.271 95.0684C174.332 95.0851 174.38 95.0998 174.415 95.1123C174.442 95.1219 174.456 95.128 174.46 95.1299C174.648 95.234 175.045 95.5471 175.591 96.0137C176.12 96.4662 176.745 97.0248 177.371 97.583C177.994 98.1387 178.617 98.6946 179.135 99.1338C179.393 99.3532 179.63 99.5478 179.83 99.7002C180.018 99.8433 180.21 99.9779 180.366 100.049C180.792 100.241 181.235 100.383 181.565 100.476C181.732 100.522 181.874 100.558 181.974 100.582C182.02 100.593 182.058 100.6 182.085 100.606C182.11 100.617 182.143 100.632 182.184 100.648C182.277 100.687 182.409 100.74 182.57 100.799C182.891 100.915 183.331 101.058 183.802 101.153C183.985 101.191 184.231 101.184 184.469 101.167C184.724 101.149 185.031 101.114 185.368 101.068C186.043 100.977 186.867 100.838 187.687 100.699C188.511 100.56 189.331 100.419 190.012 100.318C190.352 100.268 190.651 100.228 190.896 100.204C191.149 100.179 191.312 100.174 191.394 100.181L191.396 100.182C191.396 100.182 191.401 100.182 191.411 100.184C191.422 100.185 191.437 100.188 191.456 100.192C191.495 100.201 191.544 100.215 191.606 100.234C191.731 100.273 191.89 100.328 192.082 100.401C192.465 100.547 192.958 100.753 193.523 101C194.654 101.494 196.058 102.146 197.431 102.797C198.47 103.289 199.488 103.781 200.354 104.201C198.857 104.081 196.874 103.94 194.765 103.85C192.557 103.755 190.203 103.713 188.121 103.802C186.059 103.89 184.2 104.107 183.021 104.562L182.789 104.652L182.721 104.89L182.344 106.189C182.343 106.19 182.342 106.191 182.341 106.191C182.215 106.246 182.037 106.316 181.827 106.375C181.396 106.497 180.893 106.559 180.459 106.423L180.449 106.42C179.958 106.277 179.55 105.947 179.254 105.626C179.111 105.47 179 105.324 178.926 105.217L179.301 103.921L179.369 103.685L179.224 103.486C178.469 102.455 177.005 101.261 175.296 100.07C173.571 98.8683 171.542 97.6322 169.608 96.5205C167.735 95.4431 165.944 94.4793 164.596 93.7715Z" stroke="#EEEEEE"/>
</g>
</svg>
