<svg width="260" height="454" viewBox="0 0 260 454" fill="none" xmlns="http://www.w3.org/2000/svg">
<mask id="mask0_1151_27492" style="mask-type:alpha" maskUnits="userSpaceOnUse" x="0" y="0" width="260" height="454">
<rect width="260" height="454" fill="#D9D9D9"/>
</mask>
<g mask="url(#mask0_1151_27492)">
<path d="M137.539 448.797C135.371 448.797 133.357 448.797 131.188 448.643C130.724 448.643 130.414 448.333 130.414 447.869C130.414 447.405 130.879 447.095 131.188 447.095C133.357 447.095 135.371 447.25 137.539 447.25C138.004 447.25 138.314 447.56 138.314 448.024C138.314 448.488 138.004 448.797 137.539 448.797ZM143.89 448.797C143.426 448.797 143.116 448.488 143.116 448.024C143.116 447.56 143.426 447.25 143.89 447.25C146.059 447.25 148.073 447.095 150.241 447.095C150.706 447.095 151.016 447.405 151.016 447.869C151.016 448.333 150.706 448.643 150.241 448.643C148.073 448.643 145.904 448.797 143.89 448.797ZM124.837 448.488C122.669 448.333 120.655 448.333 118.487 448.179C118.022 448.179 117.712 447.714 117.712 447.405C117.712 446.941 118.177 446.631 118.487 446.631C120.655 446.786 122.669 446.941 124.837 446.941C125.302 446.941 125.612 447.25 125.612 447.714C125.612 448.179 125.302 448.488 124.837 448.488ZM156.437 448.333C155.973 448.333 155.663 448.024 155.663 447.56C155.663 447.095 155.973 446.786 156.437 446.786C158.606 446.631 160.62 446.477 162.788 446.322C163.253 446.322 163.563 446.631 163.717 447.095C163.717 447.56 163.408 447.869 162.943 447.869C160.774 448.024 158.606 448.179 156.437 448.333ZM112.29 447.714C110.122 447.56 107.953 447.405 105.94 447.095C105.475 447.095 105.165 446.631 105.165 446.322C105.165 445.858 105.63 445.548 106.094 445.703C108.108 445.858 110.277 446.167 112.445 446.322C112.91 446.322 113.22 446.786 113.22 447.095C113.065 447.405 112.755 447.714 112.29 447.714ZM169.139 447.095C168.674 447.095 168.365 446.786 168.365 446.477C168.365 446.012 168.674 445.703 168.984 445.548C170.998 445.239 173.166 445.084 175.18 444.775C175.645 444.775 175.955 444.929 176.11 445.394C176.11 445.858 175.8 446.167 175.49 446.322C173.321 446.631 171.308 446.941 169.139 447.095ZM99.7435 446.477C97.5749 446.167 95.4063 446.012 93.3926 445.703C92.9279 445.703 92.6181 445.239 92.773 444.775C92.773 444.31 93.2377 444.001 93.7024 444.156C95.7161 444.465 97.8847 444.62 99.8984 444.929C100.363 444.929 100.673 445.394 100.518 445.858C100.518 446.167 100.053 446.477 99.7435 446.477ZM181.531 445.394C181.221 445.394 180.757 445.084 180.757 444.775C180.757 444.31 180.911 444.001 181.376 443.846C183.39 443.537 185.559 443.073 187.572 442.609C188.037 442.454 188.347 442.763 188.502 443.227C188.656 443.692 188.347 444.001 187.882 444.156C185.868 444.62 183.855 444.929 181.531 445.394ZM87.1966 444.775C85.0279 444.465 82.8593 444.156 80.8456 443.846C80.3809 443.846 80.0711 443.382 80.226 442.918C80.226 442.454 80.6907 442.144 81.1554 442.299C83.1691 442.609 85.3378 442.918 87.3515 443.227C87.8162 443.227 88.126 443.692 87.9711 444.156C87.9711 444.465 87.5064 444.775 87.1966 444.775ZM193.923 442.763C193.613 442.763 193.304 442.454 193.149 442.144C192.994 441.68 193.304 441.371 193.768 441.216C195.782 440.752 197.951 440.133 199.809 439.669C200.274 439.514 200.739 439.824 200.739 440.133C200.894 440.597 200.584 440.907 200.274 441.061C198.26 441.68 196.247 442.144 194.078 442.609C194.078 442.763 193.923 442.763 193.923 442.763ZM74.8045 442.763C74.6496 442.609 74.6496 442.763 74.8045 442.763C72.6359 442.299 70.4673 441.99 68.4536 441.525C67.9889 441.371 67.6791 441.061 67.834 440.597C67.9889 440.133 68.2987 439.978 68.7634 439.978C70.7771 440.442 72.9457 440.752 74.9594 441.216C75.4241 441.216 75.7339 441.68 75.579 442.144C75.4241 442.454 75.1143 442.763 74.8045 442.763ZM62.4124 440.288H62.2576C60.2439 439.824 58.0752 439.359 56.0615 438.895C55.5968 438.74 55.4419 438.431 55.4419 437.967C55.5968 437.503 55.9066 437.348 56.3713 437.348C58.385 437.812 60.3988 438.276 62.5674 438.74C63.0321 438.895 63.187 439.205 63.187 439.669C63.0321 439.978 62.7222 440.288 62.4124 440.288ZM206.005 439.359C205.696 439.359 205.386 439.205 205.231 438.895C205.076 438.431 205.386 438.122 205.696 437.967C207.709 437.348 209.723 436.574 211.582 435.955C212.047 435.801 212.511 435.955 212.666 436.42C212.821 436.884 212.666 437.193 212.201 437.348C210.188 438.122 208.174 438.74 206.16 439.359C206.16 439.359 206.16 439.359 206.005 439.359ZM50.0204 437.348H49.8655C47.8518 436.884 45.8381 436.265 43.6695 435.801C43.2048 435.646 43.0499 435.337 43.0499 434.872C43.2048 434.408 43.6695 434.254 43.9793 434.254C45.993 434.718 48.0067 435.337 50.0204 435.801C50.4851 435.955 50.64 436.265 50.64 436.729C50.7949 437.193 50.4851 437.348 50.0204 437.348ZM217.933 435.027C217.623 435.027 217.313 434.872 217.158 434.563C217.003 434.099 217.158 433.789 217.623 433.48C219.637 432.706 221.495 431.778 223.354 431.004C223.819 430.85 224.284 431.004 224.439 431.314C224.593 431.623 224.439 432.087 224.129 432.397C222.27 433.325 220.256 434.099 218.397 435.027C218.088 435.027 217.933 435.027 217.933 435.027ZM37.9382 434.254H37.7833C35.7695 433.635 33.7558 433.17 31.7421 432.552C31.2774 432.397 31.1225 431.933 31.2774 431.623C31.4323 431.159 31.897 431.004 32.2068 431.159C34.2205 431.778 36.2342 432.397 38.248 432.861C38.7127 433.016 38.8676 433.48 38.7127 433.789C38.5578 433.944 38.248 434.254 37.9382 434.254ZM25.8559 430.54C25.701 430.54 25.701 430.54 25.5461 430.54C23.5324 429.921 21.5187 429.302 19.505 428.529C19.0403 428.374 18.8854 427.91 19.0403 427.6C19.1952 427.136 19.6599 426.982 19.9697 427.136C21.9834 427.755 23.9971 428.374 26.0108 429.148C26.4755 429.302 26.6304 429.767 26.4755 430.076C26.4755 430.385 26.1657 430.54 25.8559 430.54ZM229.24 429.612C228.931 429.612 228.621 429.457 228.621 429.148C228.466 428.838 228.621 428.374 228.931 428.065C230.789 427.136 232.648 426.053 234.352 424.97C234.662 424.815 235.282 424.815 235.437 425.28C235.591 425.589 235.591 426.053 235.127 426.363C233.423 427.446 231.564 428.529 229.55 429.457C229.55 429.612 229.395 429.612 229.24 429.612ZM13.7736 426.672C13.6187 426.672 13.6187 426.672 13.4638 426.672L13.1541 426.517C11.2952 425.898 9.43641 425.125 7.4227 424.506C6.958 424.351 6.80313 423.887 6.95803 423.578C7.11293 423.113 7.57761 422.959 8.04232 423.113C9.90112 423.887 11.7599 424.506 13.6187 425.125L13.9286 425.28C14.3933 425.434 14.5482 425.898 14.3933 426.208C14.3933 426.363 14.0834 426.672 13.7736 426.672ZM239.929 423.113C239.619 423.113 239.464 422.959 239.309 422.804C238.999 422.495 239.154 422.03 239.464 421.721C241.168 420.483 242.872 419.245 244.576 418.008C244.885 417.698 245.35 417.853 245.66 418.162C245.97 418.472 245.815 418.936 245.505 419.245C243.801 420.483 242.097 421.721 240.393 422.959C240.238 423.113 240.084 423.113 239.929 423.113ZM249.842 415.532C249.687 415.532 249.378 415.377 249.223 415.223C248.913 414.913 248.913 414.449 249.223 414.14C250.772 412.747 252.321 411.355 253.715 409.962C254.025 409.653 254.489 409.653 254.799 409.962C255.109 410.271 255.109 410.736 254.799 411.045C253.25 412.438 251.701 413.985 250.152 415.377C250.307 415.377 249.997 415.532 249.842 415.532ZM258.827 406.713C258.672 406.713 258.517 406.713 258.362 406.558C258.052 406.249 258.052 405.785 258.362 405.475C259.756 403.928 261.15 402.381 262.389 400.679C262.699 400.369 263.164 400.214 263.474 400.524C263.783 400.833 263.938 401.298 263.628 401.607C262.389 403.309 260.995 404.856 259.601 406.403C259.291 406.713 258.981 406.713 258.827 406.713ZM266.572 396.965C266.417 396.965 266.262 396.965 266.107 396.811C265.797 396.501 265.642 396.037 265.952 395.728C267.191 394.026 268.275 392.324 269.36 390.622C269.515 390.312 270.134 390.158 270.444 390.312C270.754 390.467 270.909 390.931 270.754 391.395C269.67 393.252 268.585 394.954 267.346 396.656C267.036 396.811 266.726 396.965 266.572 396.965ZM272.922 386.289C272.768 386.289 272.613 386.289 272.613 386.135C272.303 385.98 272.148 385.516 272.303 385.052C273.232 383.195 274.162 381.338 274.936 379.482C275.091 379.017 275.556 378.863 276.02 379.017C276.485 379.172 276.64 379.636 276.485 380.101C275.556 381.957 274.626 383.814 273.697 385.671C273.542 386.135 273.232 386.289 272.922 386.289ZM278.034 374.995C277.879 374.995 277.879 374.995 277.724 374.995C277.26 374.84 277.105 374.376 277.26 374.066C278.034 372.21 278.654 370.198 279.273 368.342C279.428 367.877 279.893 367.723 280.203 367.877C280.668 368.032 280.822 368.496 280.668 368.806C280.048 370.817 279.273 372.829 278.499 374.685C278.654 374.84 278.344 374.995 278.034 374.995ZM281.907 363.236H281.752C281.287 363.081 281.132 362.772 281.132 362.307C281.597 360.296 282.217 358.285 282.681 356.273C282.836 355.809 283.146 355.654 283.611 355.654C284.075 355.809 284.23 356.118 284.23 356.583C283.766 358.594 283.301 360.605 282.681 362.617C282.681 363.081 282.371 363.236 281.907 363.236ZM284.695 351.167C284.54 351.167 284.54 351.167 284.695 351.167C284.075 351.013 283.92 350.703 283.92 350.239C284.23 348.228 284.54 346.216 284.695 344.205C284.695 343.741 285.16 343.431 285.624 343.586C286.089 343.586 286.399 344.05 286.399 344.36C286.244 346.371 285.934 348.537 285.624 350.548C285.315 351.013 285.005 351.167 284.695 351.167ZM285.934 338.944C285.469 338.944 285.16 338.635 285.16 338.171C285.16 337.088 285.16 336.159 285.16 335.076C285.16 333.993 285.16 333.065 285.16 331.982C285.16 331.518 285.469 331.208 285.934 331.208C286.399 331.208 286.709 331.518 286.709 331.982C286.709 333.065 286.709 334.148 286.709 335.076C286.709 336.159 286.709 337.088 286.709 338.171C286.709 338.635 286.244 338.944 285.934 338.944ZM285.469 326.566C285.005 326.566 284.695 326.257 284.695 325.948C284.54 323.936 284.23 321.925 283.766 319.913C283.611 319.449 283.92 319.14 284.385 318.985C284.85 318.985 285.16 319.14 285.315 319.604C285.624 321.615 285.934 323.781 286.244 325.793C286.244 326.102 285.934 326.412 285.469 326.566ZM237.605 320.223C235.436 320.223 233.268 319.913 231.254 319.759C230.789 319.759 230.48 319.294 230.635 318.83C230.635 318.366 231.099 318.057 231.564 318.211C233.578 318.521 235.591 318.676 237.76 318.676C238.225 318.676 238.535 318.985 238.535 319.449C238.38 319.913 238.07 320.223 237.605 320.223ZM243.956 320.223C243.491 320.223 243.182 319.913 243.182 319.449C243.182 318.985 243.491 318.676 243.956 318.676C245.97 318.521 248.138 318.366 250.152 318.057C250.617 318.057 250.927 318.366 251.081 318.676C251.081 319.14 250.772 319.449 250.462 319.604C248.293 319.913 246.125 320.068 243.956 320.223ZM256.503 318.676C256.193 318.676 255.883 318.366 255.729 318.057C255.574 317.592 255.883 317.283 256.348 317.128C258.362 316.664 260.376 316.2 262.389 315.581C262.854 315.426 263.319 315.736 263.319 316.045C263.474 316.509 263.164 316.819 262.854 316.974C260.84 317.592 258.672 318.057 256.658 318.521C256.658 318.676 256.503 318.676 256.503 318.676ZM225.213 318.521H225.058C222.89 317.902 220.876 317.283 219.017 316.509C218.552 316.355 218.397 315.891 218.552 315.426C218.707 314.962 219.172 314.807 219.637 314.962C221.495 315.736 223.509 316.355 225.523 316.974C225.988 317.128 226.143 317.438 226.143 317.902C225.833 318.366 225.523 318.521 225.213 318.521ZM268.585 315.117C268.275 315.117 267.966 314.962 267.811 314.653C267.656 314.189 267.811 313.879 268.275 313.724C270.289 312.951 272.148 312.177 274.007 311.404C274.471 311.249 274.936 311.404 275.091 311.713C275.246 312.177 275.091 312.487 274.781 312.796C272.923 313.724 270.909 314.498 268.895 315.272C268.74 315.117 268.74 315.117 268.585 315.117ZM283.146 314.343C282.836 314.343 282.526 314.189 282.371 313.724C281.907 312.332 281.597 310.785 280.977 309.392C280.822 309.547 280.513 309.547 280.358 309.702C280.048 309.856 279.428 309.702 279.273 309.392C279.118 309.083 279.273 308.619 279.583 308.309C279.893 308.154 280.203 308 280.358 307.845C280.203 307.381 280.358 307.071 280.822 306.917C281.132 306.762 281.597 306.917 281.752 307.226C282.836 306.607 283.92 305.988 284.85 305.369C285.16 305.06 285.624 305.215 285.934 305.524C286.244 305.834 286.089 306.298 285.779 306.607C284.695 307.381 283.456 308 282.371 308.773C282.836 310.321 283.456 311.868 283.766 313.415C283.92 313.879 283.611 314.189 283.146 314.343ZM213.596 313.724C213.441 313.724 213.286 313.724 213.131 313.57C212.356 313.106 211.582 312.487 210.807 312.022C209.878 311.249 208.949 310.475 208.019 309.702C207.709 309.392 207.709 308.928 208.019 308.619C208.329 308.309 208.794 308.309 209.103 308.619C209.878 309.392 210.807 310.166 211.737 310.785C212.356 311.249 213.131 311.868 213.905 312.332C214.215 312.487 214.37 313.106 214.215 313.415C214.06 313.57 213.905 313.724 213.596 313.724ZM204.766 305.06C204.456 305.06 204.301 304.905 204.147 304.751C202.907 302.894 201.978 301.037 201.203 299.026C201.049 298.562 201.203 298.252 201.668 298.097C202.133 297.943 202.598 298.097 202.752 298.562C203.527 300.418 204.456 302.275 205.541 303.977C205.85 304.286 205.696 304.75 205.386 305.06C204.921 305.06 204.921 305.06 204.766 305.06ZM290.581 303.203C290.271 303.203 290.116 303.049 289.962 302.894C289.652 302.584 289.807 302.12 290.116 301.811C291.82 300.573 293.369 299.18 294.918 297.943C295.228 297.633 295.693 297.633 296.003 297.943C296.312 298.252 296.312 298.716 296.003 299.026C294.454 300.418 292.75 301.811 291.046 303.049C290.891 303.049 290.736 303.203 290.581 303.203ZM278.809 302.739C278.499 302.739 278.189 302.584 278.034 302.275L277.569 301.347C276.795 299.799 276.021 298.252 275.091 296.86C274.936 296.55 274.936 296.086 275.401 295.777C275.711 295.622 276.33 295.622 276.485 296.086C277.415 297.633 278.189 299.18 278.964 300.728L279.428 301.656C279.583 301.965 279.428 302.43 279.118 302.739C278.964 302.739 278.964 302.739 278.809 302.739ZM300.03 294.848C299.875 294.848 299.565 294.848 299.41 294.694C299.101 294.384 299.101 293.92 299.41 293.61C300.805 292.063 302.199 290.516 303.593 288.969C303.903 288.659 304.367 288.659 304.677 288.814C304.987 289.123 305.142 289.588 304.832 289.897C303.438 291.444 302.044 293.146 300.65 294.539C300.495 294.848 300.185 294.848 300.03 294.848ZM200.429 293.61C199.964 293.61 199.654 293.301 199.654 292.837C199.5 292.063 199.5 291.29 199.5 290.516C199.5 289.124 199.654 287.731 199.964 286.338C200.119 285.874 200.429 285.72 200.894 285.72C201.358 285.874 201.668 286.184 201.513 286.648C201.203 287.886 201.203 289.124 201.203 290.516C201.203 291.29 201.204 291.909 201.358 292.682C201.204 293.146 200.894 293.456 200.429 293.61ZM272.458 292.063C272.148 292.063 271.993 291.909 271.838 291.754C270.599 290.052 269.36 288.505 267.966 286.957C267.656 286.648 267.656 286.184 267.966 285.874C268.275 285.565 268.74 285.565 269.05 285.874C270.444 287.422 271.838 289.123 273.077 290.671C273.387 290.98 273.232 291.444 272.922 291.754C272.768 292.063 272.613 292.063 272.458 292.063ZM307.93 285.255C307.775 285.255 307.62 285.255 307.465 285.101C307.156 284.791 307.001 284.327 307.31 284.018C308.55 282.316 309.634 280.614 310.563 278.757C310.718 278.448 311.183 278.293 311.648 278.448C311.957 278.602 312.112 279.067 311.957 279.531C310.873 281.387 309.789 283.089 308.55 284.791C308.395 285.101 308.24 285.255 307.93 285.255ZM263.938 282.935C263.783 282.935 263.628 282.935 263.474 282.78C261.925 281.387 260.376 280.15 258.672 278.912C258.362 278.602 258.207 278.138 258.517 277.829C258.827 277.519 259.291 277.365 259.601 277.674C261.305 278.912 263.009 280.304 264.558 281.697C264.868 282.006 264.868 282.47 264.558 282.78C264.403 282.78 264.248 282.935 263.938 282.935ZM202.907 281.542C202.752 281.542 202.598 281.542 202.598 281.387C202.288 281.233 202.133 280.768 202.288 280.304C203.372 278.448 204.611 276.746 206.315 275.198C206.625 274.889 207.09 274.889 207.4 275.198C207.709 275.508 207.709 275.972 207.4 276.282C205.851 277.674 204.611 279.221 203.682 280.923C203.372 281.387 203.062 281.542 202.907 281.542ZM253.87 275.508C253.715 275.508 253.56 275.508 253.405 275.353C251.546 274.27 249.687 273.342 247.829 272.568C247.364 272.413 247.209 271.949 247.364 271.485C247.519 271.021 247.983 270.866 248.448 271.021C250.307 271.795 252.321 272.878 254.18 273.961C254.489 274.115 254.644 274.58 254.489 275.044C254.334 275.353 254.18 275.508 253.87 275.508ZM314.126 274.425C313.971 274.425 313.971 274.425 313.816 274.425C313.352 274.27 313.197 273.806 313.352 273.342C314.126 271.485 314.901 269.628 315.675 267.617C315.83 267.153 316.295 266.998 316.604 267.153C317.069 267.308 317.224 267.772 317.069 268.081C316.45 270.093 315.675 271.949 314.746 273.961C314.591 274.27 314.436 274.425 314.126 274.425ZM211.737 273.032C211.427 273.032 211.272 272.878 211.117 272.723C210.962 272.413 210.962 271.949 211.427 271.64C213.286 270.557 215.145 269.783 217.313 269.01C217.778 268.855 218.243 269.164 218.243 269.474C218.397 269.938 218.088 270.247 217.778 270.402C215.764 271.021 213.905 271.949 212.201 272.878C212.047 273.032 211.892 273.032 211.737 273.032ZM242.407 270.557C242.407 270.557 242.252 270.557 242.097 270.557C240.393 270.093 238.535 269.628 236.831 269.319L236.056 269.164C235.591 269.164 235.282 268.7 235.437 268.236C235.437 267.772 235.901 267.462 236.366 267.617L237.14 267.772C238.999 268.081 240.858 268.545 242.562 269.164C243.027 269.319 243.182 269.783 243.027 270.093C243.027 270.402 242.717 270.557 242.407 270.557ZM223.664 269.01C223.354 269.01 222.89 268.7 222.89 268.391C222.89 267.926 223.044 267.617 223.509 267.462C225.523 267.153 227.691 266.998 229.705 266.998H229.86C230.325 266.998 230.635 267.308 230.635 267.772C230.635 268.236 230.325 268.545 229.86 268.545H229.705C227.691 268.545 225.678 268.7 223.664 269.01ZM317.999 262.821H317.844C317.379 262.666 317.224 262.356 317.224 261.892C317.689 259.881 317.999 257.869 318.308 255.858C318.308 255.394 318.773 255.084 319.238 255.239C319.703 255.239 320.012 255.703 319.857 256.168C319.548 258.179 319.238 260.345 318.773 262.356C318.773 262.511 318.463 262.821 317.999 262.821ZM319.703 250.443C319.238 250.443 318.928 250.133 318.928 249.669C318.928 248.896 318.928 248.277 318.928 247.503C318.928 246.265 318.928 244.873 318.773 243.635C318.773 243.171 319.083 242.861 319.548 242.861C319.857 242.861 320.322 243.171 320.322 243.635C320.477 245.027 320.477 246.265 320.477 247.658C320.477 248.431 320.477 249.205 320.477 249.824C320.477 250.133 320.167 250.443 319.703 250.443ZM318.928 238.22C318.618 238.22 318.153 237.91 318.153 237.601C317.844 235.589 317.379 233.578 316.914 231.567C316.759 231.102 317.069 230.793 317.534 230.638C317.999 230.484 318.308 230.793 318.463 231.257C318.928 233.269 319.393 235.435 319.703 237.446C319.857 237.756 319.548 238.065 318.928 238.22ZM316.14 226.151C315.83 226.151 315.52 225.997 315.365 225.687C314.746 223.83 313.971 221.819 313.197 219.962C313.042 219.498 313.197 219.189 313.661 218.879C314.126 218.725 314.591 218.879 314.746 219.344C315.52 221.355 316.295 223.212 316.914 225.223C317.069 225.687 316.759 225.997 316.45 226.151C316.295 226.151 316.14 226.151 316.14 226.151ZM311.338 214.702C311.028 214.702 310.718 214.547 310.563 214.238C309.634 212.381 308.705 210.679 307.62 208.822C307.465 208.513 307.465 208.049 307.93 207.739C308.24 207.585 308.859 207.585 309.014 208.049C310.099 209.905 311.028 211.762 311.957 213.619C312.112 213.928 311.957 214.392 311.648 214.702C311.648 214.702 311.493 214.702 311.338 214.702ZM305.142 204.026C304.832 204.026 304.677 203.871 304.522 203.716C303.438 202.015 302.199 200.313 300.96 198.765C300.65 198.456 300.805 197.992 301.114 197.682C301.424 197.373 301.889 197.528 302.199 197.837C303.438 199.539 304.677 201.241 305.916 202.943C306.226 203.252 306.071 203.716 305.761 204.026C305.452 203.871 305.297 204.026 305.142 204.026ZM297.552 194.124C297.397 194.124 297.087 193.969 296.932 193.814C295.538 192.267 294.144 190.72 292.75 189.173C292.44 188.863 292.44 188.399 292.75 188.089C293.06 187.78 293.524 187.78 293.834 188.089C295.228 189.637 296.777 191.184 298.016 192.731C298.326 193.041 298.326 193.505 297.862 193.814C297.862 193.969 297.707 194.124 297.552 194.124ZM288.877 185.15C288.722 185.15 288.413 185.15 288.413 184.995L288.103 184.686C286.709 183.448 285.16 182.055 283.766 180.818C283.456 180.508 283.456 180.044 283.766 179.734C284.075 179.425 284.54 179.425 284.85 179.734C286.399 180.972 287.793 182.365 289.187 183.603L289.497 183.912C289.807 184.221 289.807 184.686 289.497 184.995C289.187 184.995 289.032 185.15 288.877 185.15ZM279.273 176.949C279.118 176.949 278.964 176.949 278.809 176.795C277.26 175.557 275.556 174.164 273.852 172.927C273.542 172.617 273.387 172.153 273.697 171.844C274.007 171.534 274.472 171.379 274.781 171.689C276.485 172.927 278.034 174.319 279.738 175.557C280.048 175.866 280.048 176.331 279.893 176.64C279.738 176.795 279.583 176.949 279.273 176.949ZM269.36 169.213C269.205 169.213 269.05 169.213 268.895 169.059C267.191 167.821 265.487 166.583 263.938 165.345C263.628 165.036 263.474 164.572 263.783 164.262C264.093 163.953 264.558 163.798 264.868 164.107C266.572 165.345 268.275 166.583 269.979 167.821C270.289 168.13 270.444 168.594 270.134 168.904C269.824 169.213 269.67 169.213 269.36 169.213ZM259.291 161.787C259.136 161.787 258.981 161.787 258.827 161.632L253.715 157.919C253.405 157.609 253.25 157.145 253.56 156.835C253.87 156.526 254.334 156.371 254.644 156.681L259.756 160.394C260.066 160.704 260.221 161.168 259.911 161.477C259.756 161.787 259.446 161.787 259.291 161.787ZM249.068 154.515C248.913 154.515 248.758 154.515 248.603 154.36C246.899 153.122 245.195 151.884 243.491 150.647C243.182 150.337 243.027 149.873 243.336 149.563C243.646 149.254 244.111 149.099 244.421 149.409C246.125 150.647 247.829 151.884 249.533 153.122C249.842 153.432 249.997 153.896 249.687 154.205C249.532 154.36 249.378 154.515 249.068 154.515ZM238.999 147.088C238.844 147.088 238.689 147.088 238.535 146.933C236.831 145.695 235.127 144.458 233.578 143.065C233.268 142.756 233.113 142.292 233.423 141.982C233.733 141.673 234.197 141.673 234.507 141.827C236.211 143.065 237.76 144.458 239.464 145.695C239.774 146.005 239.929 146.469 239.619 146.778C239.464 146.933 239.309 147.088 238.999 147.088ZM229.24 139.197C229.086 139.197 228.931 139.197 228.776 139.042C227.227 137.65 225.523 136.412 223.974 135.02C223.664 134.71 223.664 134.246 223.974 133.936C224.284 133.627 224.748 133.627 225.058 133.936C226.607 135.329 228.156 136.721 229.86 137.959C230.17 138.269 230.17 138.733 230.015 139.042C229.55 139.197 229.395 139.197 229.24 139.197ZM219.792 130.997C219.637 130.997 219.327 130.997 219.172 130.842C217.623 129.45 216.074 127.902 214.68 126.51C214.37 126.2 214.37 125.736 214.68 125.427C214.99 125.117 215.454 125.117 215.764 125.427C217.158 126.819 218.707 128.366 220.256 129.759C220.566 130.068 220.566 130.533 220.256 130.842C220.101 130.997 219.946 130.997 219.792 130.997ZM210.962 122.023C210.807 122.023 210.498 121.868 210.343 121.713C208.949 120.166 207.554 118.464 206.315 116.917C206.005 116.608 206.16 116.143 206.47 115.834C206.78 115.524 207.245 115.679 207.554 115.989C208.794 117.536 210.188 119.083 211.582 120.785C211.892 121.094 211.892 121.559 211.582 121.868C211.427 122.023 211.117 122.023 210.962 122.023ZM203.217 112.43C202.907 112.43 202.752 112.275 202.598 112.121C201.358 110.419 200.274 108.717 199.19 106.86C199.035 106.551 199.035 106.086 199.5 105.777C199.809 105.622 200.429 105.622 200.584 106.086C201.668 107.788 202.752 109.49 203.992 111.192C204.301 111.502 204.147 111.966 203.837 112.275C203.527 112.275 203.372 112.43 203.217 112.43ZM196.711 101.754C196.402 101.754 196.092 101.599 195.937 101.29C195.317 100.207 194.853 99.1239 194.388 98.1955C194.233 97.7313 194.388 97.4219 194.698 97.1125C195.162 96.9577 195.627 97.1125 195.782 97.4219C196.247 98.505 196.866 99.4333 197.331 100.516C197.486 100.826 197.331 101.29 197.021 101.599C196.866 101.754 196.711 101.754 196.711 101.754Z" fill="#EEEEEE"/>
<mask id="mask1_1151_27492" style="mask-type:alpha" maskUnits="userSpaceOnUse" x="85" y="0" width="126" height="117">
<rect x="85.8008" y="0.000244141" width="124.8" height="116.866" fill="#D9D9D9"/>
</mask>
<g mask="url(#mask1_1151_27492)">
<path d="M87.8394 3.54735C89.1383 1.87695 91.9612 1.09249 96.4522 2.47316C100.895 3.83895 106.666 7.26251 113.336 13.4481L113.344 13.456L113.353 13.4624L127.114 25.69L127.114 25.6891C128.271 26.7745 130.021 26.8839 131.31 26.3618L131.376 26.3348L131.677 26.1595C133.59 25.2373 134.697 23.0234 133.751 20.9234C133.17 19.4691 133.328 18.3307 133.856 17.4657C134.407 16.5648 135.447 15.8226 136.867 15.3891C139.714 14.52 143.732 15.0122 146.907 17.4714L146.924 17.4843C148.097 18.3539 149.63 18.6509 150.999 18.1187L151 18.1195C151.012 18.1155 151.023 18.11 151.035 18.1059C151.04 18.1037 151.046 18.1027 151.052 18.1005L151.051 18.0996C151.46 17.9562 151.842 17.7839 152.194 17.6216C152.571 17.4477 152.926 17.2825 153.327 17.1305L153.362 17.1169L153.396 17.1016C155.404 16.1653 156.296 14.0013 155.616 12.0197L155.613 12.009L155.609 12.0001C155.098 10.6074 155.288 9.51797 155.84 8.68234C156.416 7.80867 157.472 7.09114 158.887 6.67207C161.727 5.83143 165.642 6.30869 168.625 8.60159L168.656 8.6246L168.687 8.64577C169.717 9.31917 171.116 9.74204 172.529 9.18128L172.529 9.18212C177.596 7.29091 181.736 6.53993 185.663 6.81904C189.588 7.09811 193.389 8.41291 197.769 10.7905L197.774 10.7933C199.136 11.5221 199.234 13.4038 197.908 14.3228L197.787 14.3935L197.768 14.4056C183.009 23.8797 167.36 31.9083 155.362 44.8533C153.76 46.5052 153.89 49.2204 155.641 50.6347C157.379 52.2273 159.129 53.7668 160.871 55.2976C162.619 56.834 164.358 58.362 166.082 59.942L167.303 61.0608L167.332 60.9479C168.028 61.656 168.716 62.3579 169.406 63.0563C170.497 64.1619 171.586 65.2657 172.694 66.4016C175.238 69.2254 178.197 72.4725 180.657 75.4743L180.657 75.4735C181.702 76.8191 183.412 77.2232 184.966 76.7728L184.982 76.7683L184.997 76.7629C188.94 75.4798 193.178 73.7415 197.356 72.957C201.366 72.2037 205.044 72.394 208.027 74.6168L208.313 74.8379C208.971 75.3797 209.23 76.4295 208.776 77.29L208.773 77.2955C207.599 79.5544 205.799 81.3741 203.613 83.037C201.963 84.2923 200.135 85.4281 198.227 86.5952L196.295 87.7778C194.307 88.9501 193.874 91.4026 194.971 93.2848L194.982 93.3033C195.885 94.7783 196.36 96.0563 196.503 97.0702C196.645 98.0855 196.447 98.7468 196.129 99.1402C195.821 99.5216 195.256 99.8287 194.272 99.8378C193.4 99.8459 192.258 99.6145 190.854 99.0409L190.236 98.7736C188.193 97.7918 185.737 98.813 184.785 100.755L184.775 100.775L184.767 100.795C183.592 103.49 182.539 106.235 181.208 108.747C179.885 111.242 178.352 113.372 176.312 114.805L176.28 114.828C175.679 115.286 174.732 115.286 174.041 114.724L174.031 114.716L174.022 114.708L173.71 114.459C170.571 111.843 169.74 108.218 169.968 104.058C170.206 99.6983 171.579 95.0558 172.509 90.6556L172.514 90.6361L172.517 90.6162C172.765 89.1486 172.266 87.3335 170.761 86.4352C167.297 84.1695 163.477 81.5893 160.371 79.3118L153.162 73.6898L143.262 64.9877C141.655 63.5094 139.113 63.6371 137.529 65.2451L137.518 65.2563L137.506 65.2689C125.616 78.1648 119.332 95.4219 112.135 111.165L112.129 111.177L112.124 111.19C111.533 112.588 109.57 112.804 108.692 111.645C107.517 108.42 106.424 106.024 105.497 104.059C104.549 102.048 103.817 100.561 103.325 99.0768C102.38 96.226 102.305 93.327 103.951 86.8846C104.314 85.5011 103.952 84.0458 102.883 83.0072L102.884 83.0067C100.257 80.338 99.2673 76.4992 99.7331 73.5701C99.9651 72.111 100.541 70.9766 101.338 70.2989C102.1 69.6508 103.175 69.3251 104.666 69.6702L104.683 69.6748L104.701 69.6781C106.774 70.0793 108.931 68.8964 109.472 66.8492C109.584 66.4263 109.682 66.0563 109.78 65.6862C109.878 65.316 109.975 64.9454 110.087 64.5224C110.463 63.1011 110.066 61.6531 108.947 60.5061L108.931 60.4904L108.663 60.2192C105.957 57.3828 105.035 53.5884 105.542 50.7361C105.802 49.2677 106.423 48.137 107.267 47.4752C108.078 46.8385 109.213 46.5423 110.751 46.9477C112.969 47.5324 115.091 46.2965 115.78 44.2539L115.79 44.2217L115.799 44.1897L115.855 43.9783C116.231 42.5568 115.756 40.9608 114.69 39.9382L114.676 39.9238L114.66 39.9104L101.344 28.141L101.334 28.1311L101.323 28.1218L100.699 27.5967C94.338 22.1842 90.3918 17.0827 88.4077 12.8606C86.3324 8.44447 86.5074 5.26063 87.8394 3.54735Z" stroke="#EEEEEE" stroke-width="2"/>
</g>
</g>
</svg>
