<svg width="177" height="214" viewBox="0 0 177 214" fill="none" xmlns="http://www.w3.org/2000/svg">
<mask id="mask0_2305_5" style="mask-type:alpha" maskUnits="userSpaceOnUse" x="0" y="0" width="177" height="214">
<rect width="177" height="214" fill="#D9D9D9"/>
</mask>
<g mask="url(#mask0_2305_5)">
<path d="M185.999 198.045C186.064 198.07 183.865 198.037 180.36 197.954C179.539 197.938 182.986 195.295 182.034 195.27C181.501 195.254 179.252 196.785 177.479 197.493C177.126 197.633 174.615 195.6 174.295 195.723C173.376 196.077 175.083 197.814 174.755 197.798C170.79 197.674 162.493 195.789 158.159 195.69C149.295 195.501 145.069 197.156 144.855 197.156C144.363 197.156 144.199 195.517 144.199 196.168C144.199 196.826 144.034 198.135 140.768 198.135C137.493 198.135 137.657 196.332 136.681 196.991C135.696 197.65 126.865 202.409 129.155 203.718C131.444 205.027 145.019 205.027 145.183 202.73C145.348 200.433 144.855 194.364 144.363 193.706C143.87 193.047 137.608 149.755 137.936 147.944C138.265 146.141 138.593 146.791 138.101 144.659C137.608 142.526 140.883 105.278 140.883 102.816C140.883 100.354 140.883 99.2095 140.883 99.6953C140.883 100.189 137.124 100.848 123.541 100.848C109.966 100.848 103.26 98.8801 103.589 97.8921C103.917 96.9041 101.299 95.9243 105.714 96.4183C110.13 96.9123 125.666 97.7274 131.067 97.7274C136.467 97.7274 142.024 96.2536 142.024 96.2536C142.024 96.2536 145.134 91.1653 144.149 93.1331C143.164 95.1009 125.338 97.8921 119.782 93.9565C114.217 90.0209 114.545 79.3502 114.053 79.6795C113.561 80.0089 114.053 83.4505 114.053 83.4505C114.053 83.4505 103.909 78.5268 103.589 76.559C103.26 74.5912 101.955 73.1092 103.425 73.2738C104.894 73.4385 114.217 76.3943 114.217 76.3943C114.217 76.3943 115.85 53.5874 117.492 48.6638C119.125 43.7401 117.656 41.443 125.831 41.443C134.005 41.443 150.362 45.3786 154.614 42.431C158.865 39.4752 159.193 33.407 155.106 31.7686C151.019 30.1301 112.091 28.9774 110.45 31.2746C109.908 32.032 110.097 33.7281 110.704 35.5642C111.936 39.3023 114.907 43.5919 116.991 41.6076C120.102 38.6518 117.484 30.1219 114.537 32.419C111.591 34.7162 118.46 40.6196 122.392 40.6196C126.315 40.6196 126.643 40.949 127.136 39.9609C127.628 38.9729 129.097 35.5313 127.3 32.9048C125.502 30.2783 123.705 29.2985 123.705 29.2985C123.705 29.2985 126.651 28.8045 128.12 29.2985C129.59 29.7925 132.7 37.4991 131.559 39.3105C130.41 41.1136 127.472 40.7843 129.105 40.6196C130.739 40.4549 143.337 41.1136 143.993 40.1256C144.65 39.1376 145.627 37.3344 143.993 34.3868C142.36 31.431 140.555 29.6278 140.555 29.6278C140.555 29.6278 144.149 29.2985 145.955 32.7484C147.752 36.2064 147.588 41.7888 147.26 42.4475C146.932 43.1061 150.371 43.6002 151.347 45.8973C152.332 48.1945 153.801 59.3509 153.801 58.8569C153.801 58.3629 148.565 57.3831 141.695 57.3831C134.826 57.3831 129.754 58.6922 129.097 56.7244C128.441 54.7566 128.112 44.5799 123.861 45.8973C119.609 47.2064 118.296 61.8127 118.296 62.8008C118.296 63.7888 125.166 61.1623 125.658 63.6241C126.151 66.086 125.166 86.1017 122.219 86.7604C119.273 87.4191 116.819 83.6399 116.491 79.0455C116.162 74.4512 117.64 63.2948 118.124 67.5598C118.616 71.8247 117.139 87.5755 119.429 90.202C121.719 92.8285 126.463 87.4108 126.134 88.2342C125.806 89.0575 128.096 91.19 132.019 91.19C135.942 91.19 155.246 92.8285 156.386 89.2222C157.536 85.6159 158.02 72.1541 156.058 70.3509C154.097 68.5478 132.503 66.9093 130.213 69.5276C127.923 72.1541 126.783 85.6077 127.103 80.5193C127.431 75.431 126.446 65.913 130.542 65.913C134.629 65.913 154.097 68.7042 153.604 65.2544C153.112 61.8045 150.658 53.2746 150.658 55.2424C150.658 57.2102 153.44 61.1458 151.479 62.6279C149.517 64.1017 135.285 64.7603 134.136 62.4632C132.987 60.166 132.011 55.0777 131.354 52.4512C130.698 49.8247 130.369 44.9011 126.118 44.5717C121.866 44.2424 121.538 45.5597 120.553 44.5717C119.568 43.5837 112.863 36.2064 108.776 37.1862C104.688 38.1743 106.65 34.8891 107.955 34.5597C109.268 34.2304 113.191 34.7244 113.191 33.9011C113.191 33.0777 113.191 29.8008 117.114 27.8329C121.037 25.8651 134.941 25.5358 136.254 27.5036C137.559 29.4714 130.361 26.8449 131.018 24.3831C131.674 21.9213 137.395 16.8329 135.105 10.7648C132.815 4.69669 130.689 7.6443 130.689 7.6443C130.689 7.6443 132.815 4.19445 126.602 2.22663C120.389 0.258814 117.114 2.3913 116.294 2.3913C115.473 2.3913 114.004 0.0941429 110.729 1.40328C107.454 2.71241 105.657 9.76855 109.096 11.4153C112.535 13.0537 114.496 13.3831 114.496 13.3831C114.496 13.3831 114.332 14.0418 115.317 16.1742C116.302 18.3067 116.622 19.9452 116.786 19.2948C116.95 18.6361 118.583 15.5238 119.568 16.9976C120.553 18.4714 119.568 19.6241 118.912 21.5919C118.255 23.5597 117.927 25.3629 120.061 25.5275C122.187 25.6922 126.274 28.4834 128.071 21.5919C129.918 14.7087 118.469 3.22289 113.725 7.98187C108.981 12.7409 111.271 26.3591 112.256 27.5118C113.241 28.6645 114.053 27.3472 114.053 28.0058C114.053 28.6645 114.053 33.5882 112.584 35.2267C111.115 36.8651 107.84 34.074 105.386 37.8531C102.932 41.6241 91.9753 65.2544 93.6086 65.7484C95.2418 66.2424 82.4876 57.2184 79.7053 58.5276C76.923 59.8367 77.9079 64.5957 76.1105 64.5957C74.3131 64.5957 72.8358 63.6077 72.8358 61.8045C72.8358 60.0014 78.2362 56.5515 77.0872 57.0455C75.9382 57.5395 75.1256 55.7364 73.8124 52.1219C72.5075 48.5156 72.5075 45.5597 71.6867 47.6922C70.866 49.8247 71.5226 54.0897 70.3818 53.6039C69.2328 53.1099 67.9278 48.0216 66.787 49.0096C65.6379 49.9976 65.1537 51.3067 67.2794 55.407C69.4051 59.5073 73.3282 64.925 71.695 60.66C70.0617 56.3951 71.0384 53.4392 68.4202 48.3509C65.8021 43.2626 58.9325 28.3352 58.9325 28.3352C58.9325 28.3352 72.5075 29.3232 74.7973 28.3352C77.0872 27.3472 82.98 22.7528 84.6133 22.7528C86.2466 22.7528 96.2267 23.7409 98.6807 23.5762C101.135 23.4115 107.348 21.9295 107.348 21.9295L110.294 29.4796C110.294 29.4796 103.917 39.6563 102.768 38.0096C101.619 36.3711 98.0241 26.0298 98.5165 28.1623C99.009 30.2948 103.26 36.8569 101.463 41.4512C99.6656 46.0455 93.4526 62.6196 90.9904 60.6518C88.5364 58.684 83.3001 26.1945 83.7926 27.6683C84.285 29.1421 90.9904 59.1698 89.193 59.4991C87.3956 59.8285 80.3619 54.0815 78.8846 56.708C77.4155 59.3344 76.4306 64.9086 77.4155 66.5553C78.4004 68.1937 96.0625 80.5029 101.299 78.3704C106.535 76.2379 113.733 55.5635 113.733 53.1017C113.733 50.6398 113.405 47.3629 113.076 51.1338C112.748 54.9048 110.458 69.3464 108.661 72.6316C106.863 75.9168 102.94 77.2259 103.753 80.1818C104.574 83.1376 109.802 84.7761 108.497 86.4146C107.192 88.053 103.917 88.7117 104.738 89.8644C105.558 91.0171 110.302 92.6556 108.825 91.3382C107.356 90.0291 103.425 91.8322 103.753 93.4707C104.081 95.1092 97.8353 131.855 97.8353 139.562C97.8353 147.269 92.8453 191.87 95.9148 194.332C98.9844 196.793 104.204 194.027 104.82 195.567C105.435 197.106 106.355 202.038 104.204 203.578C102.054 205.117 85.1632 204.5 84.8513 202.343C84.5476 200.186 93.7563 197.106 93.7563 197.106C93.7563 197.106 104.196 198.028 105.427 193.097C106.658 188.165 109.186 149.73 111.033 144.486C112.879 139.249 119.018 115.52 121.169 113.98C123.319 112.441 130.074 105.969 130.074 107.509C130.074 109.049 121.472 113.98 121.169 117.06C120.865 120.139 123.015 142.946 123.319 146.33C123.623 149.722 134.604 194.01 133.069 195.558C131.961 196.67 125.617 197.016 119.536 197.049C114.882 197.073 110.376 196.925 108.497 196.785C99.8954 196.168 92.2215 194.933 85.155 198.325C78.0885 201.717 74.0997 205.719 71.9494 203.874C69.7991 202.022 67.3451 198.638 67.0332 200.795C66.7295 202.952 69.4872 204.796 66.4176 204.796C63.3481 204.796 59.663 202.944 59.663 204.492C59.663 206.031 61.8133 205.414 59.663 206.031C59.1541 206.18 54.0081 208.098 48.895 212.05C47.1386 213.409 37.9874 213.697 35.238 215.105C29.3533 218.126 24.8475 213.54 14.9659 217.353C10.9196 218.909 8.45742 224.178 2.13777 224.829C-3.30369 225.388 -7.16116 228.822 -11.3961 230.082C-16.1072 231.481 -24.3966 235.244 -28.7464 237.055C-33.0061 238.817 -38.3162 245.981 -41.8782 247.496C-52.2112 251.868 -56.3724 251.283 -60 254" stroke="#F6F3BC" stroke-miterlimit="10" stroke-linecap="round" stroke-linejoin="round"/>
<path d="M25.071 18.2634C24.9388 18.7203 24.1533 19.0187 23.8248 18.5844C18.3755 11.3149 7.97157 9.59284 0.566116 15.0459C0.233795 15.2914 -0.223145 14.876 0.12428 14.6003C7.51841 8.74694 17.9148 9.58151 24.1042 16.6018C25.6359 12.3724 28.6105 8.81897 32.5045 6.56704C36.3984 4.31512 40.9619 3.50907 45.3916 4.29082C46.3395 4.45698 45.7692 5.77871 44.9158 5.64276C40.6336 4.92648 36.2378 5.81919 32.5742 8.1491C28.9106 10.479 26.2381 14.0815 25.071 18.2634ZM49.4512 26.7036C47.105 26.9877 44.9011 27.9802 43.1334 29.5489C41.3657 31.1176 40.1181 33.1878 39.5571 35.4836C37.11 31.526 32.2838 29.3923 27.7069 31.5638C27.6698 31.5768 27.6394 31.604 27.6225 31.6394C27.6055 31.6748 27.6032 31.7155 27.6162 31.7526C27.6293 31.7896 27.6565 31.82 27.6919 31.837C27.7273 31.854 27.768 31.8562 27.8051 31.8432C32.7483 30.6536 37.9446 32.8515 39.2475 38.0591C39.4325 38.8144 40.5881 38.6444 40.6258 37.8967C40.8977 32.6929 44.5306 28.6899 49.7155 28.0177C50.6219 27.9309 50.3802 26.5827 49.4512 26.7036Z" fill="#F6F3BC"/>
</g>
</svg>
