<svg width="95" height="75" viewBox="0 0 95 75" fill="none" xmlns="http://www.w3.org/2000/svg">
<path d="M93.5221 20.1498L43.8897 12.3525L38.2344 48.3504L87.8668 56.1477L93.5221 20.1498Z" fill="#F6F3BC"/>
<path d="M87.8463 56.849C87.8121 56.849 87.7778 56.849 87.7436 56.849L38.1197 49.0407C37.743 48.9722 37.5033 48.6297 37.5375 48.253L43.2225 12.2594C43.2568 12.0882 43.3595 11.917 43.4965 11.8142C43.6335 11.7115 43.839 11.6772 44.0102 11.6772L93.634 19.4856C94.0108 19.554 94.2505 19.8965 94.2162 20.2732L88.5655 56.2668C88.5312 56.438 88.4285 56.6093 88.2915 56.712C88.1203 56.7805 87.9833 56.849 87.8463 56.849ZM39.0101 47.7735L87.2641 55.3421L92.7094 20.6842L44.4554 13.1499L39.0101 47.7735Z" fill="#285340"/>
<path d="M13.0847 59.8283C13.0504 59.8283 13.0162 59.8283 12.9819 59.8283C12.6052 59.7598 12.3655 59.4174 12.3997 59.0406L15.9272 36.6089C15.9957 36.2322 16.3381 35.9924 16.7148 36.0267C17.0916 36.0952 17.3313 36.4376 17.297 36.8144L13.7354 59.2461C13.7011 59.5886 13.3929 59.8283 13.0847 59.8283Z" fill="#285340"/>
<path d="M38.2214 49.0407C37.9474 49.0407 37.7076 48.8695 37.6049 48.6297C37.4679 48.2873 37.6392 47.8763 37.9816 47.7393L52.3653 41.7118C52.7078 41.5749 53.1188 41.7461 53.2558 42.0886C53.3928 42.431 53.2215 42.842 52.8791 42.979L38.4953 49.0064C38.3926 49.0407 38.3241 49.0407 38.2214 49.0407Z" fill="#285340"/>
<path d="M58.2614 6.33694L22.2636 0.681641L16.6083 36.6795L52.6061 42.3348L58.2614 6.33694Z" fill="#F6F3BC"/>
<path d="M52.6055 43.0127C52.5713 43.0127 52.537 43.0127 52.5028 43.0127L16.475 37.362C16.0983 37.2935 15.8585 36.951 15.8928 36.5743L21.5778 0.580734C21.612 0.409499 21.7148 0.238264 21.8518 0.135523C21.9887 0.0327821 22.1942 -0.00146484 22.3655 -0.00146484L58.359 5.64928C58.7357 5.71778 58.9755 6.06025 58.9412 6.43696L53.2905 42.4305C53.2562 42.6018 53.1535 42.773 53.0165 42.8757C52.8795 42.9785 52.7425 43.0127 52.6055 43.0127ZM17.3654 36.1291L52.0233 41.5743L57.4686 6.91642L22.8107 1.47115L17.3654 36.1291Z" fill="#285340"/>
<path d="M41.0978 30.1701L40.3444 20.9234L44.0088 18.3549C44.865 17.7727 45.3444 16.4713 45.5499 15.7179C45.6184 15.4097 45.3787 15.033 45.0362 15.033C44.2485 14.9987 42.8786 15.0672 42.0567 15.6837L38.4608 18.3892L29.899 14.8275C29.6936 14.7247 29.4538 14.8617 29.4538 15.1015L29.4196 15.5124C29.4196 15.6494 29.4881 15.8206 29.5908 15.8891L35.3785 20.718L32.947 22.5673C32.7073 22.7385 32.4676 22.9098 32.2621 23.1152C32.1936 23.1837 32.1251 23.218 32.0566 23.2865L28.9744 21.9851C28.7689 21.9166 28.5634 21.9851 28.5292 22.1906L28.4264 22.5673C28.3922 22.7043 28.4264 22.8755 28.5634 22.9783C28.5634 22.9783 31.3374 25.1016 31.5086 25.3755C31.8169 25.7865 32.8785 28.9372 32.8785 28.9372C32.947 29.0742 33.084 29.177 33.221 29.177L33.5977 29.2112C33.8032 29.2112 33.9402 29.0742 33.9402 28.8345L33.632 25.5125C33.7004 25.4783 33.7689 25.444 33.8717 25.3755C34.1114 25.2386 34.3854 25.0673 34.5909 24.8961L37.0909 23.1495L39.9334 30.1701C39.9676 30.3071 40.1046 30.4441 40.2416 30.4441L40.6526 30.5468C40.9266 30.5811 41.0978 30.4099 41.0978 30.1701Z" fill="#285340"/>
<path d="M57.7417 74.4177L59.2143 67.4313L62.7418 65.9587C63.5637 65.6162 64.2486 64.7258 64.5911 64.1778C64.7281 63.9381 64.5911 63.6641 64.3514 63.5956C63.7349 63.4586 62.6048 63.3559 61.7828 63.7326L58.2897 65.308L52.1937 61.6093C52.0225 61.5066 51.817 61.5751 51.7485 61.7463L51.6115 62.0545C51.5773 62.1573 51.5773 62.2943 51.68 62.3627L55.2759 66.6779L52.8786 67.7395C52.6389 67.8423 52.3992 67.945 52.1937 68.0477C52.1252 68.082 52.0567 68.1162 51.9882 68.1505L49.7964 66.8148C49.6594 66.7121 49.4882 66.7806 49.3854 66.9176L49.2142 67.1916C49.1457 67.2943 49.1457 67.4313 49.2142 67.534C49.2142 67.534 50.9608 69.4519 51.0635 69.6916C51.2005 70.0341 51.3718 72.4998 51.3718 72.4998C51.406 72.6026 51.4745 72.7053 51.6115 72.7396L51.9197 72.8081C52.091 72.8423 52.2279 72.7396 52.2622 72.5683L52.7759 70.0683C52.8444 70.0341 52.9129 70.0341 52.9814 69.9998C53.2211 69.9313 53.4608 69.8286 53.6663 69.7258L56.0636 68.7327L56.7485 74.2807C56.7485 74.3834 56.817 74.4862 56.9198 74.5204L57.228 74.6574C57.502 74.6917 57.7075 74.5889 57.7417 74.4177Z" fill="#F6F3BC"/>
<path d="M57.4679 74.9998C57.3994 74.9998 57.2967 74.9998 57.2282 74.9655L56.92 74.8285C56.6802 74.7258 56.5432 74.5203 56.509 74.2806L55.8583 69.1778L53.872 69.9997C53.6665 70.1024 53.3925 70.2052 53.1528 70.2737L52.6733 72.6025C52.6391 72.7737 52.5363 72.9107 52.3994 73.0134C52.2624 73.1162 52.0911 73.1504 51.9199 73.1162L51.6117 73.0477C51.3719 73.0134 51.1665 72.808 51.098 72.534V72.4997C51.0295 71.3696 50.8925 69.9997 50.824 69.7942C50.7213 69.6572 49.8308 68.6298 49.0432 67.7394L49.0089 67.7052C48.8719 67.4997 48.8377 67.2257 48.9747 66.986L49.1459 66.712C49.2486 66.575 49.3856 66.4723 49.5569 66.438C49.7281 66.4038 49.8993 66.438 50.0363 66.5065L52.0569 67.7394C52.2966 67.6024 52.5363 67.4997 52.7761 67.3969L54.7282 66.5065L51.4404 62.5339C51.3035 62.3626 51.235 62.0887 51.3377 61.8832L51.4747 61.575C51.5432 61.4037 51.6802 61.2667 51.8514 61.1982C52.0226 61.1297 52.2281 61.164 52.3994 61.2667L58.3583 64.8627L61.6803 63.3558C62.6392 62.9106 63.9406 63.1161 64.4543 63.2188C64.694 63.2531 64.8653 63.4243 64.968 63.6298C65.0707 63.8353 65.0365 64.1092 64.9337 64.2805C64.6598 64.7257 63.9063 65.7873 62.9474 66.1983L59.557 67.6024L58.1186 74.4176C58.0844 74.5888 57.9474 74.76 57.8104 74.8628C57.6734 74.9655 57.5706 74.9998 57.4679 74.9998ZM57.1939 74.1778L57.4337 74.2806L58.9063 67.3627C58.9405 67.2599 59.009 67.1572 59.1118 67.123L62.6392 65.6503C63.4611 65.3079 64.1461 64.3147 64.3173 64.0065V63.9722C64.3173 63.938 64.2831 63.938 64.2831 63.938C63.9406 63.8695 62.7419 63.664 61.92 64.0407L58.4268 65.6161C58.2898 65.6846 58.1186 65.6503 58.0501 65.5476L52.0911 61.9174L51.9884 62.1571L55.5501 66.4723C55.6186 66.5408 55.6528 66.6777 55.6186 66.7805C55.5843 66.8832 55.5158 66.986 55.4131 67.0202L53.0158 68.0819C52.7761 68.1846 52.5706 68.2874 52.3651 68.3901C52.3309 68.4243 52.2966 68.4243 52.2281 68.4586L52.1596 68.4928C52.0226 68.5613 51.8514 68.5271 51.7487 68.4243L49.6938 67.1572L49.5911 67.3627C50.413 68.2531 51.3377 69.3148 51.4404 69.5545C51.6117 69.9312 51.7144 71.7463 51.7829 72.397L51.9884 72.4312L52.4678 70.034C52.4678 69.897 52.5706 69.76 52.7076 69.7257L52.7761 69.6915C52.8103 69.6915 52.8788 69.6572 52.9131 69.6572C53.1528 69.5887 53.3583 69.486 53.5638 69.3833L55.9953 68.3559C56.098 68.3216 56.2008 68.3216 56.3035 68.3901C56.4062 68.4586 56.4747 68.5271 56.4747 68.6298L57.1939 74.1778Z" fill="#285340"/>
<path d="M24.4547 74.726H24.1123C23.7355 74.726 23.4273 74.4178 23.4273 74.0411C23.4273 73.6644 23.7355 73.3562 24.1123 73.3562H24.4547C24.8314 73.3562 25.1397 73.6644 25.1397 74.0411C25.1397 74.4178 24.8314 74.726 24.4547 74.726ZM26.852 74.6918C26.4753 74.6918 26.1671 74.3836 26.1671 74.0411C26.1671 73.6644 26.4411 73.3562 26.8178 73.3219H27.1602C27.537 73.3219 27.8452 73.5959 27.8794 73.9726C27.8794 74.3493 27.6054 74.6575 27.2287 74.6918H26.852ZM21.715 74.6575L21.3383 74.6233C20.9615 74.589 20.6876 74.2808 20.6876 73.9041C20.7218 73.5274 21.03 73.2192 21.4067 73.2534H21.7492C22.1259 73.2877 22.4342 73.5959 22.3999 73.9726C22.3999 74.3836 22.0917 74.6575 21.715 74.6575ZM29.5918 74.5548C29.2493 74.5548 28.9411 74.2808 28.9068 73.9041C28.8726 73.5274 29.1808 73.1849 29.5575 73.1849L29.8657 73.1507L29.9342 73.8356L29.9685 74.5206L29.626 74.5548C29.626 74.5548 29.626 74.5548 29.5918 74.5548ZM18.9752 74.4521C18.941 74.4521 18.941 74.4521 18.9067 74.4521L18.5642 74.4178C18.1875 74.3836 17.9136 74.0411 17.9478 73.6644C17.982 73.2877 18.3245 73.0137 18.7012 73.0479L19.0437 73.0822C19.4204 73.1164 19.6944 73.4589 19.6602 73.8356C19.6259 74.1781 19.3519 74.4521 18.9752 74.4521ZM32.3315 74.3151C31.9891 74.3151 31.6808 74.0411 31.6466 73.6986C31.6123 73.3219 31.8863 72.9794 32.263 72.9452L32.6055 72.9109C32.9822 72.8767 33.3247 73.1507 33.3589 73.5274C33.3932 73.9041 33.1192 74.2466 32.7425 74.2808L32.4 74.3151C32.4 74.3151 32.3658 74.3151 32.3315 74.3151ZM16.2697 74.1096C16.2355 74.1096 16.2012 74.1096 16.167 74.1096C16.0642 74.0753 15.9272 74.0753 15.8245 74.0411C15.4478 73.9726 15.208 73.6301 15.2765 73.2534C15.345 72.8767 15.6875 72.637 16.0642 72.7055L16.4067 72.774C16.7834 72.8425 17.0231 73.1849 16.9889 73.5616C16.8861 73.8699 16.6122 74.1096 16.2697 74.1096ZM35.037 73.9726C34.6946 73.9726 34.4206 73.7329 34.3521 73.3904C34.3179 73.0137 34.5576 72.6712 34.9343 72.6027L35.2768 72.5685C35.6535 72.5 35.996 72.774 36.0644 73.1507C36.1329 73.5274 35.859 73.8699 35.4823 73.9384L35.1398 73.9726C35.1055 73.9726 35.0713 73.9726 35.037 73.9726ZM13.5984 73.5616C13.5299 73.5616 13.4957 73.5616 13.4272 73.5274L13.0847 73.4589C12.708 73.3562 12.5025 73.0137 12.571 72.637C12.6738 72.2603 13.0162 72.0548 13.393 72.1233L13.7354 72.1918C14.1121 72.2945 14.3176 72.637 14.2491 73.0137C14.1806 73.3562 13.9067 73.5616 13.5984 73.5616ZM37.7768 73.5616C37.4343 73.5616 37.1604 73.3219 37.0919 72.9794C37.0234 72.6027 37.2631 72.2603 37.6398 72.1918L37.9823 72.1233C38.359 72.0548 38.7015 72.2945 38.77 72.6712C38.8385 73.0479 38.5987 73.3904 38.222 73.4589L37.9138 73.5274C37.8453 73.5616 37.811 73.5616 37.7768 73.5616ZM40.4481 73.0822C40.1398 73.0822 39.8316 72.8425 39.7631 72.5342C39.6946 72.1575 39.9344 71.815 40.3111 71.7465L40.6535 71.6781C41.0303 71.6096 41.3727 71.8493 41.4755 72.226C41.544 72.6027 41.3042 72.9452 40.9275 73.0479L40.585 73.1164C40.5508 73.0822 40.4823 73.0822 40.4481 73.0822ZM10.9614 72.8425C10.8929 72.8425 10.8244 72.8425 10.7559 72.8082C10.6532 72.774 10.5162 72.7397 10.4135 72.7055C10.071 72.5685 9.86552 72.1918 10.0025 71.8493C10.1395 71.5068 10.5162 71.3013 10.8587 71.4383C10.9614 71.4726 11.0642 71.5068 11.1669 71.5411C11.5094 71.6438 11.7149 72.0548 11.6121 72.3972C11.5094 72.637 11.2354 72.8425 10.9614 72.8425ZM43.1536 72.5C42.8453 72.5 42.5371 72.2945 42.4686 71.952C42.4001 71.5753 42.6056 71.2328 42.9823 71.1301L43.3248 71.0616C43.7015 70.9931 44.0782 71.1986 44.1467 71.5753C44.2152 71.952 44.0097 72.3287 43.633 72.3972L43.3248 72.4657C43.2563 72.5 43.1878 72.5 43.1536 72.5ZM45.8248 71.8493C45.5166 71.8493 45.2426 71.6438 45.1399 71.3356C45.0372 70.9589 45.2426 70.5821 45.6194 70.5137L45.9618 70.4452C46.3385 70.3424 46.7153 70.5822 46.7837 70.9246C46.8865 71.3013 46.6468 71.6781 46.3043 71.7465L45.9961 71.815C45.9276 71.8493 45.8591 71.8493 45.8248 71.8493ZM8.3929 71.815C8.29016 71.815 8.18742 71.7808 8.11892 71.7465C8.01618 71.7123 7.91344 71.6438 7.8107 71.6096C7.46823 71.4383 7.33124 71.0274 7.50248 70.6849C7.67371 70.3424 8.08468 70.2054 8.42715 70.3767C8.52989 70.4109 8.63263 70.4794 8.73537 70.5137C9.07784 70.6849 9.21483 71.0959 9.07784 71.4383C8.9066 71.6781 8.66687 71.815 8.3929 71.815ZM6.02986 70.4794C5.89287 70.4794 5.75588 70.4452 5.65314 70.3767C5.5504 70.3082 5.44766 70.2397 5.34492 70.1712C5.0367 69.9657 4.9682 69.5205 5.17368 69.2123C5.37917 68.9041 5.82438 68.8356 6.1326 69.041C6.23534 69.1095 6.30383 69.178 6.40658 69.2123C6.7148 69.4178 6.81754 69.863 6.57781 70.1712C6.44082 70.3767 6.23534 70.4794 6.02986 70.4794ZM3.94079 68.7328C3.76956 68.7328 3.56408 68.6643 3.42709 68.5273C3.3586 68.4246 3.25585 68.3561 3.18736 68.2534C2.94763 67.9794 2.94763 67.5342 3.25585 67.2944C3.52983 67.0547 3.97504 67.0547 4.21477 67.3629C4.28326 67.4314 4.35176 67.5342 4.42025 67.6027C4.69423 67.8766 4.65998 68.3218 4.386 68.5616C4.28326 68.6643 4.11203 68.7328 3.94079 68.7328ZM2.33119 66.5068C2.09146 66.5068 1.85173 66.3698 1.71474 66.13C1.64625 66.0273 1.612 65.9246 1.54351 65.7876C1.37227 65.4451 1.54351 65.0341 1.88598 64.8629C2.22845 64.6917 2.63941 64.8629 2.81064 65.2054C2.84489 65.3081 2.91339 65.4109 2.94763 65.4794C3.11887 65.8218 2.98188 66.2328 2.63941 66.404C2.53667 66.4725 2.43393 66.5068 2.33119 66.5068ZM1.47501 63.904C1.13254 63.904 0.858567 63.6643 0.790073 63.3218C0.755826 63.1848 0.755826 63.0821 0.755826 62.9451C0.721579 62.5684 0.995555 62.2259 1.33802 62.1916C1.71474 62.1574 2.05721 62.4314 2.09146 62.7738C2.09146 62.8766 2.1257 62.9793 2.1257 63.0821C2.1942 63.4588 1.92022 63.8013 1.54351 63.8697C1.54351 63.904 1.50926 63.904 1.47501 63.904ZM1.47501 61.1985C1.44077 61.1985 1.40652 61.1985 1.37227 61.1985C0.995555 61.1642 0.721579 60.7875 0.790073 60.445C0.790073 60.3081 0.82432 60.2053 0.858567 60.0683C0.927061 59.6916 1.26953 59.4519 1.64625 59.5204C2.02296 59.5889 2.26269 59.9313 2.1942 60.3081C2.15995 60.4108 2.15995 60.5135 2.15995 60.6163C2.09146 60.9245 1.81748 61.1985 1.47501 61.1985ZM2.15995 58.5272C2.09146 58.5272 1.98872 58.5272 1.92022 58.493C1.57775 58.356 1.37227 57.9793 1.50926 57.6025C1.54351 57.4998 1.57775 57.3628 1.64625 57.2601C1.78324 56.9176 2.1942 56.7464 2.53667 56.8834C2.87914 57.0204 3.05037 57.4313 2.91339 57.7738C2.87914 57.8765 2.84489 57.9793 2.81064 58.082C2.67366 58.356 2.43393 58.5272 2.15995 58.5272ZM3.32435 56.0614C3.22161 56.0614 3.08462 56.0272 2.98188 55.9587C2.63941 55.7532 2.53667 55.3422 2.74215 55.034C2.81064 54.9313 2.84489 54.8285 2.91339 54.7258C3.11887 54.4176 3.52983 54.2806 3.83805 54.4861C4.14628 54.6916 4.28326 55.1025 4.07778 55.4107C4.00929 55.5135 3.97504 55.6162 3.90655 55.6847C3.80381 55.9587 3.56408 56.0614 3.32435 56.0614ZM4.83121 53.8011C4.69423 53.8011 4.55724 53.7669 4.42025 53.6641C4.11203 53.4244 4.04353 53.0135 4.28326 52.7052C4.35176 52.6025 4.42025 52.534 4.48875 52.4313C4.72847 52.123 5.13944 52.0888 5.44766 52.2943C5.75588 52.534 5.79013 52.945 5.58465 53.2532C5.51615 53.3559 5.44766 53.4244 5.37917 53.5272C5.24218 53.6984 5.0367 53.8011 4.83121 53.8011ZM6.57781 51.6778C6.40658 51.6778 6.23534 51.6093 6.1326 51.5066C5.85862 51.2669 5.82438 50.8217 6.09835 50.5477C6.16685 50.4449 6.26959 50.3764 6.33808 50.2737C6.61206 49.9997 7.02302 49.9655 7.297 50.2395C7.57097 50.5134 7.60522 50.9244 7.33124 51.1984C7.26275 51.2669 7.19426 51.3696 7.09151 51.4381C6.95453 51.6093 6.78329 51.6778 6.57781 51.6778Z" fill="#285340"/>
</svg>
