<svg width="169" height="198" viewBox="0 0 169 198" fill="none" xmlns="http://www.w3.org/2000/svg">
<mask id="mask0_2305_3" style="mask-type:alpha" maskUnits="userSpaceOnUse" x="0" y="0" width="169" height="198">
<rect width="169" height="198" fill="#D9D9D9"/>
</mask>
<g mask="url(#mask0_2305_3)">
<path d="M217 246.759C217 246.759 112.475 248.222 113.65 243.941C114.824 239.66 120.996 231.968 124.704 230.601C128.407 229.234 140.944 227.126 141.996 219.988C143.048 212.851 136.189 207.144 128.599 207.267C121.002 207.389 117.364 206.957 119.398 203.173C121.439 199.388 134.091 194.114 144.344 192.502C154.597 190.89 165.338 186.048 167.192 178.852C169.046 171.657 164.6 166.195 159.165 166.195C153.731 166.195 123.601 167.311 116.992 168.613C110.384 169.916 109.088 170.535 108.44 170.257C107.792 169.98 107.176 169.451 106.739 169.761C106.31 170.07 106.027 170.257 105.475 169.948C104.917 169.638 101.587 168.581 102.171 167.62C102.755 166.66 103.127 167.034 103.249 165.886C103.371 164.738 103.775 162.191 104.391 160.953C105.007 159.716 107.291 155.06 108.311 155.247C109.331 155.434 109.113 156.55 111.243 157.078C113.374 157.607 115.876 157.949 115.78 158.632C115.69 159.316 114.144 162.727 115.196 164.184C116.248 165.641 119.212 167.537 118.038 167.537C116.864 167.537 114.15 164.216 114.272 162.791C114.394 161.366 115.196 157.794 116.71 157.02C118.224 156.247 120.54 153.049 120.168 152.275C119.796 151.501 113.22 147.278 113.746 148.271C114.272 149.264 119.764 152.675 120.72 151.65C121.676 150.624 140.045 125.156 137.543 120.501C135.041 115.846 124.948 106.355 120.778 100.488C116.607 94.6266 114.573 91.4609 113.553 92.0153C112.533 92.5763 107.349 95.7679 102.158 95.2134C96.9741 94.6524 89.2235 89.5072 89.4416 88.0758C89.6597 86.6445 90.1795 87.1474 90.2757 86.2447C90.3719 85.342 88.5498 83.2014 89.0117 81.9635C89.4737 80.7255 90.0319 80.9061 89.4416 79.4489C88.8577 77.9917 85.7652 72.608 85.6753 67.5852C85.5855 62.5625 86.5094 56.4631 90.9558 50.2282C95.4022 43.9933 104.699 33.3547 105.809 32.6713C106.919 31.9878 110.993 30.9369 115.318 33.6642C119.642 36.3916 121.06 46.8819 120.81 54.5094C120.566 62.1434 119.45 67.0437 118.032 71.5699C116.614 76.1026 116.287 80.1001 115.683 79.9647C115.08 79.8229 114.131 78.9847 112.764 78.8944C111.397 78.8041 109.8 79.2232 108.549 78.269C107.298 77.3147 104.378 75.9672 104.378 74.2457C104.378 72.5241 103.82 71.7311 103.127 70.8026C102.434 69.8742 98.8797 67.7916 101.35 66.9276C103.82 66.0572 106.598 64.8192 108.016 61.0345C109.434 57.2497 109.87 54.3934 111.539 52.9685C113.207 51.5435 116.537 47.6943 116.787 46.7014C117.031 45.7084 118.686 42.4201 116.46 38.184C114.24 33.9479 110.057 33.6062 108.574 33.574C107.092 33.5417 104.025 34.9731 104.442 34.554C104.859 34.1349 108.356 32.8067 110.602 33.3676C112.848 33.9286 116.415 35.2826 117.493 40.157C118.571 45.0314 116.723 47.4493 116.659 48.1327C116.595 48.8162 117.339 64.8257 117.153 67.5208C116.967 70.2223 115.946 73.3817 115.395 75.1225C114.843 76.8634 113.848 78.1658 114.131 78.4431C114.407 78.7203 116.197 80.4676 116.569 80.3774C116.941 80.2871 118.423 80.7449 118.102 81.2865C117.781 81.8281 117.467 81.9828 117.576 82.2343C117.685 82.4857 118.083 83.9622 117.371 84.6135C116.652 85.2647 116.28 85.1744 116.145 85.7289C116.004 86.2898 115.356 86.4962 114.99 86.522C114.625 86.5477 113.855 86.6832 113.836 87.1474C113.81 87.6116 113.746 89.1977 113.046 89.1268C112.347 89.0559 107.881 85.7547 108.138 85.3356C108.395 84.9165 109.62 82.9629 109.896 81.7056C110.172 80.4483 110.057 79.6359 109.826 79.4038C109.595 79.1717 108.042 78.0756 107.926 78.5656C107.811 79.0556 106.816 83.008 106.329 83.311C105.841 83.6141 105.238 83.4271 105.726 84.0332C106.213 84.6392 108.343 85.2647 107.368 85.2453C106.393 85.2195 105.309 84.1299 104.911 84.1041C104.519 84.0783 99.425 84.5232 95.6011 83.1047C91.7835 81.6862 90.3655 80.7578 90.25 81.035C90.1345 81.3123 88.7422 83.1047 87.9787 82.9887C87.2152 82.8726 86.9842 82.7823 86.6121 83.195C86.24 83.6076 81.8064 85.3034 80.1062 83.9365C78.4059 82.5696 77.3601 80.6482 75.5058 80.2742C73.6516 79.9002 71.3675 78.3206 70.7515 75.4965C70.1356 72.6724 68.7433 68.359 69.6095 61.9049C70.4756 55.4508 72.8817 50.3636 73.2538 50.3636C73.6259 50.3636 89.6148 51.9755 86.4645 52.414C83.3142 52.846 71.3995 50.8021 71.1493 48.3197C70.9055 45.8374 70.2254 43.974 73.0036 40.5632C75.7817 37.1524 77.0778 34.9151 77.5141 32.6842C77.9504 30.4533 81.2162 23.0063 84.8028 23.5028C88.3829 23.9992 90.2949 25.3661 90.3591 27.223C90.4233 29.0864 81.1007 51.234 82.3967 46.5788C83.6928 41.9237 90.0896 27.6228 91.9888 26.5783C93.888 25.5338 98.0071 25.4628 98.8219 27.0683C99.6368 28.6738 99.5854 30.9756 100.349 31.1883C101.112 31.3947 103.519 30.8402 104.122 31.5623C104.725 32.2844 104.859 33.2129 104.911 32.6326C104.956 32.0523 104.449 30.6338 103.037 30.5629C101.626 30.492 100.349 30.7499 100.169 29.9568C99.9832 29.1638 99.6368 27.0232 99.2646 26.372C98.8925 25.7207 98.3856 25.6498 98.4305 25.3274C98.4755 24.9986 102.389 23.9283 106.694 24.6762C111 25.4177 114.567 27.049 116.235 29.6087C117.903 32.1684 121.516 39.7315 122.812 39.3575C124.108 38.9835 124.756 38.2872 124.852 36.8429C124.942 35.3986 124.993 30.8402 122.26 27.4423C119.527 24.0444 117.91 22.3228 117.91 21.8586C117.91 21.3944 119.854 18.5058 119.623 17.9965C119.392 17.4871 118.372 16.7392 118.231 15.1595C118.089 13.5798 117.166 10.0852 116.562 9.34374C115.959 8.60226 115.17 6.3198 115.17 6.3198C115.17 6.3198 116.466 6.55192 116.607 5.29463C116.749 4.03734 117.628 2.38674 119.013 2.31582C120.399 2.24489 121.169 2.19976 121.4 2.01278C121.631 1.8258 125.243 0.684567 126.052 1.08432C126.86 1.48407 127.88 2.38674 127.81 3.08309C127.739 3.77943 128.054 8.05422 124.076 11.0008C120.091 13.9474 118.737 14.3213 118.705 14.6308C118.673 14.9403 120.123 18.3833 121.573 17.8869C123.023 17.3904 127.438 16.1202 128.368 15.0048C129.292 13.8893 131.64 9.79508 132.32 6.62929C133 3.4635 133.033 1.69685 132.256 1.38736C131.48 1.07787 126.976 1.9483 127.874 1.92896C128.772 1.91607 135.496 1.50986 137.691 3.18625C139.885 4.86264 138.769 7.74473 137.229 8.37015C135.689 8.99557 134.386 9.39532 133.989 8.98912C133.584 8.58292 132.352 7.5642 132.628 8.11869C132.904 8.67964 134.297 9.07939 133.892 13.6701C133.488 18.2608 133.738 20.4014 132.994 21.1494C132.256 21.8908 130.062 22.4518 130.184 23.4447C130.306 24.4377 130.678 28.0999 129.568 28.9381C128.458 29.7763 126.668 30.5178 125.866 29.5893C125.064 28.6609 124.634 27.8807 124.692 26.5202C124.756 25.1533 125.218 23.232 125.032 21.4975C124.846 19.7631 125 16.7198 124.724 17.4936C124.448 18.2673 124.634 21.7103 124.66 22.858C124.685 24.0057 123.922 28.7189 123.793 28.5641C123.671 28.4094 120.489 22.3293 112.033 19.099C103.576 15.8688 98.8219 23.0063 99.6239 23.3802C100.426 23.7542 110.551 22.0134 116.729 28.5899C122.908 35.1665 124.634 41.5561 124.692 47.0173C124.756 52.4784 120.245 62.2788 120.99 67.6175C121.734 72.9561 120.617 81.9506 119.321 83.627C118.025 85.3034 116.851 90.4228 112.809 91.8799C108.767 93.3371 104.815 95.0135 100.74 94.1108C96.6661 93.2082 90.7697 88.308 90.5837 89.0559C90.3976 89.8038 89.6597 93.7562 90.8596 95.4777C92.0658 97.1992 92.5727 97.2444 92.4828 98.3598C92.393 99.4753 91.3536 98.5146 90.8018 109.495C90.25 120.475 89.5058 128.354 86.7853 131.024C84.0713 133.693 81.723 134.873 80.3051 139.212C78.8871 143.558 67.768 177.311 68.4481 177.995C69.1282 178.678 80.5489 178.427 80.735 177.311C80.921 176.196 81.537 171.167 80.427 170.922C79.317 170.677 71.6562 170.116 73.3244 170.677C74.9925 171.237 81.0429 171.418 81.4151 169.935C81.7872 168.446 83.0832 158.955 87.5296 151.011C91.976 143.068 96.1721 133.577 98.0584 132.365C99.9447 131.152 100.541 130.708 102.537 126.607C104.526 122.513 107.073 114.137 107.073 113.808C107.073 113.48 96.4672 104.13 97.7633 106.039C99.0593 107.947 107.259 114.369 111.795 117.58C116.331 120.791 122.632 124.698 121.753 126.001C120.874 127.303 117.294 131.649 115.69 136.298C114.086 140.953 108.837 153.732 107.817 154.667C106.797 155.596 103.589 160.096 103.467 161.244C103.345 162.391 103.281 163.726 102.941 164.564C102.601 165.402 100.933 167.73 101.523 168.439C102.107 169.155 104.365 170.735 104.057 171.141C103.749 171.547 87.6772 176.447 80.8697 179.426C74.0622 182.405 66.2346 186.499 66.1191 185.687C66.0036 184.874 65.9138 184.107 66.626 183.217C67.3446 182.334 67.8065 182.424 68.1979 181.283C68.5893 180.142 68.1722 178.446 68.4289 178.401C68.6855 178.356 72.1117 178.82 73.6837 178.846C75.2556 178.871 76.9495 178.936 77.02 179.265C77.0906 179.594 76.8789 180.986 76.5581 181.173C76.2373 181.36 57.9899 190.039 46.967 197.022C35.9442 204.004 27.5199 210.394 27.5199 209.401C27.5199 208.408 31.716 201.213 38.3887 194.384C45.055 187.556 54.8139 175.648 51.1054 170.064C47.4033 164.48 40.2366 165.473 33.4483 169.323C26.6537 173.172 23.0735 181.857 22.4576 187.937C21.8416 194.017 22.3356 209.839 21.7197 204.565C21.1038 199.291 21.1615 194.823 16.9012 189.923C12.6409 185.023 5.72439 184.958 3.31835 186.757C0.912316 188.556 0.848155 192.096 3.31835 195.506C5.78855 198.917 16.2853 206.242 18.3192 209.343C20.3595 212.444 20.7894 215.049 20.1734 215.178C19.5575 215.301 9.92692 224.856 -1.74396 226.532C-13.4148 228.209 -18.0473 229.511 -18.9712 232.864C-19.8951 236.217 -15.808 244.051 -20.5303 244.328C-25.2525 244.605 -107 243.993 -107 243.993" stroke="#F6F3BC" stroke-miterlimit="10"/>
</g>
</svg>
