<svg width="129" height="100" viewBox="0 0 129 100" fill="none" xmlns="http://www.w3.org/2000/svg">
<mask id="mask0_1341_8491" style="mask-type:alpha" maskUnits="userSpaceOnUse" x="0" y="0" width="100" height="100">
<rect width="100" height="100" fill="#D9D9D9"/>
</mask>
<g mask="url(#mask0_1341_8491)">
<path d="M78.5791 18.7161C78.5791 18.7161 89.978 25.3892 83.4758 42.1123C77.0539 58.8354 57.3867 77.7293 57.3867 77.7293L78.5791 18.7161Z" fill="#EBBB01"/>
<path d="M65.4151 6.576C65.4151 6.576 83.7176 4.72681 81.9516 27.8015C80.1053 50.7957 57.3877 77.7295 57.3877 77.7295H54.5781L65.4151 6.576Z" fill="#0C62D1"/>
<path d="M25.118 11.9625C25.118 11.9625 15.0838 14.5353 15.3246 32.1428C15.5654 49.7503 40.1293 77.6489 40.1293 77.6489L25.118 11.9625Z" fill="#0C62D1"/>
<path d="M40.1299 6.33474C40.1299 6.33474 30.0956 -2.18761 22.5498 12.2843C15.0844 26.7562 40.1299 77.7295 40.1299 77.7295H44.7858L40.1299 6.33474Z" fill="#F4BD0F"/>
<path d="M52.8143 3.19907C52.8143 3.19907 43.0209 -7.89605 33.7091 11.239C24.3973 30.3741 44.7869 77.7294 44.7869 77.7294H49.9245L52.8143 3.19907Z" fill="#FA6142"/>
<path d="M52.8135 3.19913C52.8135 3.19913 64.6941 -6.36841 70.3935 11.9627C76.093 30.2938 54.6598 77.6491 54.6598 77.6491H50.0039L52.8135 3.19913Z" fill="#EBBB01"/>
<path d="M45.0273 91.96V96.9447C45.0273 98.6331 46.392 99.9999 48.0778 99.9999H49.9241C51.6098 99.9999 52.9745 98.6331 52.9745 96.9447V91.96H45.0273Z" fill="#0C62D1"/>
<path d="M40.1328 77.7296C40.2934 78.5335 45.0295 91.9603 45.0295 91.9603" stroke="#353140" stroke-width="0.25" stroke-miterlimit="10"/>
<path d="M57.3934 77.7296L53.0586 91.9603" stroke="#353140" stroke-width="0.25" stroke-miterlimit="10"/>
</g>
<mask id="mask1_1341_8491" style="mask-type:alpha" maskUnits="userSpaceOnUse" x="71" y="26" width="58" height="58">
<rect x="71.7734" y="26.6129" width="56.4516" height="56.4516" fill="#D9D9D9"/>
</mask>
<g mask="url(#mask1_1341_8491)">
<path d="M116.131 37.1783C116.131 37.1783 122.566 40.9454 118.896 50.3858C115.27 59.8263 104.168 70.4922 104.168 70.4922L116.131 37.1783Z" fill="#EBBB01"/>
<path d="M108.7 30.3251C108.7 30.3251 119.032 29.2812 118.035 42.3072C116.993 55.2878 104.168 70.4924 104.168 70.4924H102.582L108.7 30.3251Z" fill="#0C62D1"/>
<path d="M85.9528 33.3659C85.9528 33.3659 80.2883 34.8183 80.4243 44.758C80.5602 54.6977 94.4269 70.4469 94.4269 70.4469L85.9528 33.3659Z" fill="#0C62D1"/>
<path d="M94.4275 30.1889C94.4275 30.1889 88.763 25.3779 84.5033 33.5476C80.2889 41.7172 94.4275 70.4924 94.4275 70.4924H97.0558L94.4275 30.1889Z" fill="#F4BD0F"/>
<path d="M101.586 28.4188C101.586 28.4188 96.0574 22.1555 90.8008 32.9575C85.5441 43.7596 97.0544 70.4924 97.0544 70.4924H99.9546L101.586 28.4188Z" fill="#FA6142"/>
<path d="M101.586 28.4191C101.586 28.4191 108.293 23.0181 111.51 33.3662C114.728 43.7144 102.628 70.4473 102.628 70.4473H100L101.586 28.4191Z" fill="#EBBB01"/>
<path d="M97.1953 78.5257V81.3397C97.1953 82.2928 97.9657 83.0644 98.9173 83.0644H99.9596C100.911 83.0644 101.682 82.2928 101.682 81.3397V78.5257H97.1953Z" fill="#0C62D1"/>
<path d="M94.4297 70.4927C94.5203 70.9465 97.194 78.5261 97.194 78.5261" stroke="#353140" stroke-width="0.25" stroke-miterlimit="10"/>
<path d="M104.174 70.4927L101.727 78.5261" stroke="#353140" stroke-width="0.25" stroke-miterlimit="10"/>
</g>
</svg>
