<svg width="111" height="80" viewBox="0 0 111 80" fill="none" xmlns="http://www.w3.org/2000/svg">
<mask id="mask0_1151_27609" style="mask-type:alpha" maskUnits="userSpaceOnUse" x="0" y="0" width="81" height="80">
<rect x="0.0913925" width="80" height="80" fill="#D9D9D9"/>
</mask>
<g mask="url(#mask0_1151_27609)">
<path d="M62.9576 14.9729C62.9576 14.9729 72.0767 20.3114 66.8749 33.6899C61.7374 47.0684 46.0037 62.1835 46.0037 62.1835L62.9576 14.9729Z" fill="#EBBB01"/>
<path d="M52.4263 5.26077C52.4263 5.26077 67.0683 3.78142 65.6555 22.2411C64.1784 40.6365 46.0044 62.1836 46.0044 62.1836H43.7567L52.4263 5.26077Z" fill="#0C62D1"/>
<path d="M20.188 9.57007C20.188 9.57007 12.1606 11.6283 12.3532 25.7143C12.5459 39.8003 32.197 62.1192 32.197 62.1192L20.188 9.57007Z" fill="#0C62D1"/>
<path d="M32.1973 5.06784C32.1973 5.06784 24.1699 -1.75004 18.1333 9.82749C12.1609 21.405 32.1973 62.1836 32.1973 62.1836H35.9221L32.1973 5.06784Z" fill="#F4BD0F"/>
<path d="M42.3436 2.55926C42.3436 2.55926 34.5089 -6.31684 27.0595 8.99122C19.61 24.2993 35.9217 62.1835 35.9217 62.1835H40.0317L42.3436 2.55926Z" fill="#FA6142"/>
<path d="M42.3432 2.55926C42.3432 2.55926 51.8477 -5.09477 56.4072 9.57009C60.9668 24.235 43.8203 62.1192 43.8203 62.1192H40.0955L42.3432 2.55926Z" fill="#EBBB01"/>
<path d="M36.1142 73.568V77.5558C36.1142 78.9065 37.2059 80 38.5545 80H40.0315C41.3801 80 42.4719 78.9065 42.4719 77.5558V73.568H36.1142Z" fill="#0C62D1"/>
<path d="M32.1973 62.1836C32.3258 62.8268 36.1147 73.5682 36.1147 73.5682" stroke="#353140" stroke-width="0.25" stroke-miterlimit="10"/>
<path d="M46.0037 62.1836L42.5359 73.5682" stroke="#353140" stroke-width="0.25" stroke-miterlimit="10"/>
</g>
<mask id="mask1_1151_27609" style="mask-type:alpha" maskUnits="userSpaceOnUse" x="65" y="21" width="47" height="46">
<rect x="65.844" y="21.2904" width="45.1613" height="45.1613" fill="#D9D9D9"/>
</mask>
<g mask="url(#mask1_1151_27609)">
<path d="M101.334 29.7428C101.334 29.7428 106.481 32.7565 103.545 40.3088C100.645 47.8612 91.7628 56.3939 91.7628 56.3939L101.334 29.7428Z" fill="#EBBB01"/>
<path d="M95.389 24.2602C95.389 24.2602 103.655 23.4251 102.857 33.8459C102.023 44.2304 91.7637 56.3941 91.7637 56.3941H90.4949L95.389 24.2602Z" fill="#0C62D1"/>
<path d="M77.1893 26.6929C77.1893 26.6929 72.6577 27.8548 72.7665 35.8065C72.8752 43.7583 83.9686 56.3577 83.9686 56.3577L77.1893 26.6929Z" fill="#0C62D1"/>
<path d="M83.9689 24.1513C83.9689 24.1513 79.4373 20.3025 76.0295 26.8382C72.658 33.3739 83.9689 56.3941 83.9689 56.3941H86.0715L83.9689 24.1513Z" fill="#F4BD0F"/>
<path d="M89.6966 22.7353C89.6966 22.7353 85.2737 17.7246 81.0684 26.3662C76.8631 35.0079 86.0713 56.3941 86.0713 56.3941H88.3915L89.6966 22.7353Z" fill="#FA6142"/>
<path d="M89.6959 22.7355C89.6959 22.7355 95.0613 18.4146 97.6352 26.6932C100.209 34.9717 90.5297 56.358 90.5297 56.358H88.427L89.6959 22.7355Z" fill="#EBBB01"/>
<path d="M86.1796 62.8207V65.0719C86.1796 65.8344 86.7959 66.4516 87.5572 66.4516H88.391C89.1523 66.4516 89.7686 65.8344 89.7686 65.0719V62.8207H86.1796Z" fill="#0C62D1"/>
<path d="M83.9683 56.3943C84.0408 56.7574 86.1797 62.8211 86.1797 62.8211" stroke="#353140" stroke-width="0.25" stroke-miterlimit="10"/>
<path d="M91.7625 56.3943L89.8048 62.8211" stroke="#353140" stroke-width="0.25" stroke-miterlimit="10"/>
</g>
</svg>
