<svg width="306" height="332" viewBox="0 0 306 332" fill="none" xmlns="http://www.w3.org/2000/svg">
<mask id="mask0_1151_26621" style="mask-type:alpha" maskUnits="userSpaceOnUse" x="0" y="0" width="306" height="332">
<rect width="306" height="332" fill="#D9D9D9"/>
</mask>
<g mask="url(#mask0_1151_26621)">
<mask id="path-2-inside-1_1151_26621" fill="white">
<path fill-rule="evenodd" clip-rule="evenodd" d="M292.687 52.7174C290.985 50.2141 288.883 48.1113 286.581 45.4078C295.089 50.3142 300.595 57.3234 306 64.5329C304.699 60.2272 303.798 55.7213 300.294 52.5171C299.694 52.0165 299.293 51.2154 298.793 50.5145C293.087 42.7042 285.88 36.7964 276.371 34.0929C275.67 33.8926 274.97 33.392 273.969 32.8913C279.074 31.1891 283.678 33.6924 288.583 33.1917C287.782 31.5896 286.381 30.9888 284.979 30.2879C277.372 26.4829 269.464 27.1838 261.556 29.1864C259.655 29.6871 257.853 30.2879 256.051 30.7885C260.155 26.2826 265.36 24.28 271.166 23.1785C270.866 22.778 270.665 22.5777 270.365 22.5777C269.664 22.3775 268.964 22.2773 268.263 22.1772C261.256 21.0758 254.85 22.8781 248.844 26.3827C247.943 26.8834 247.142 27.5843 245.641 27.7846C248.944 25.9822 252.247 24.28 255.45 22.4776C256.451 21.8768 257.452 21.1759 258.253 19.9743C255.851 20.2747 253.448 20.5751 250.946 20.9756C254.65 18.5725 258.954 17.6713 262.758 15.969C266.862 14.1667 270.966 14.3669 275.17 13.7662C271.166 11.7635 266.762 12.865 262.257 11.7635C266.762 8.8597 271.867 8.75957 276.571 6.9572C273.868 5.45522 268.563 5.35509 258.253 6.15614C258.854 4.4539 260.355 3.85311 261.757 3.45259C263.859 2.8518 265.46 1.75035 266.962 0.0481101C260.455 -0.252285 254.75 0.749032 250.345 6.05601C248.744 7.95851 246.442 9.26022 244.039 11.1627C243.839 8.15878 245.741 6.55667 246.141 4.4539C242.738 6.35641 241.136 8.25891 236.432 15.8689C236.932 12.6647 237.333 10.0613 237.733 7.15746C233.729 10.7622 232.228 15.5685 230.426 20.3748C229.925 18.1719 229.425 15.969 228.824 13.2655C226.822 16.5698 226.822 19.8742 226.622 23.2787C226.122 22.6779 225.621 22.1772 225.121 21.5764C224.82 22.2773 224.72 23.0784 224.52 23.5791C224.22 22.2773 224.22 20.8755 224.02 19.3735C222.418 21.6766 221.918 23.8794 222.018 26.1825C220.616 25.4816 219.315 24.8808 218.314 23.9796C216.012 21.7767 213.309 21.4763 210.306 21.276C211.007 22.8781 211.607 24.3801 212.208 25.782C207.203 21.3762 201.798 18.2721 194.791 17.6713C195.792 20.9756 199.195 21.9769 199.696 25.1812C197.393 22.9783 194.891 21.1759 191.788 20.2747C188.785 19.3735 185.982 17.7714 182.379 18.8729C184.581 20.475 187.083 21.276 188.485 23.7793C182.479 23.5791 177.474 20.1746 171.568 20.2747C173.87 21.9769 176.173 23.6792 178.875 25.6818C162.96 23.3788 159.957 23.4789 155.552 26.0823C158.756 27.4842 162.059 28.2852 165.562 28.2852C160.257 29.9875 154.351 29.1864 148.946 33.0916C153.951 33.5922 158.355 34.0929 162.659 34.5935C156.854 37.2971 150.648 38.9993 146.443 45.0072C148.946 44.4064 151.048 44.0059 153.15 43.5053C155.252 43.0046 157.254 42.1034 159.356 41.803C161.358 41.5026 163.26 40.2009 165.762 41.002C163.16 42.9045 160.958 44.5066 158.655 46.2088C164.361 46.3089 169.266 42.9045 175.072 43.2049C174.671 45.0072 172.669 45.3076 171.969 47.2101C173.17 47.0099 174.271 46.9097 175.272 46.6093C176.273 46.3089 177.174 45.8083 178.175 45.5079C179.276 45.2075 180.377 45.0072 181.478 44.9071C182.479 44.807 183.48 44.4064 184.981 44.807C182.879 46.2088 180.477 46.3089 178.875 48.7121C182.279 48.7121 185.282 48.7121 188.785 48.7121C186.983 50.114 185.582 51.1153 184.281 52.1166C185.782 52.6172 187.183 52.6172 188.485 52.5171C189.185 52.417 189.886 52.2167 190.587 52.0165C191.888 51.7161 193.189 51.3155 194.491 51.1153C195.792 50.915 197.093 50.8149 198.495 50.7147C199.596 50.6146 200.497 50.3142 201.497 51.6159C201.998 52.3168 204 51.8162 205.301 51.8162C205.401 51.8162 205.401 52.1166 205.702 52.5171C199.295 53.1179 193.39 55.1205 187.584 57.4236C181.678 59.7266 176.273 62.7305 171.668 67.1363C172.069 67.637 172.369 68.0375 172.869 68.5382C169.566 71.442 166.763 74.6462 164.361 78.8517C165.863 78.6515 166.864 78.5513 167.965 78.4512C166.663 83.2575 165.362 87.8636 164.061 92.3695C164.261 92.4697 164.461 92.5698 164.661 92.6699C165.362 91.969 165.963 91.1679 166.663 90.467C168.265 88.7648 169.967 87.0625 171.668 85.4604C172.269 84.8596 173.17 84.6594 174.471 83.8583C173.67 86.3616 173.07 88.164 172.469 89.9664C176.973 87.7635 179.576 83.2575 184.481 81.1548C184.08 83.8583 181.778 85.4604 182.078 88.2641C185.382 85.0599 188.385 82.056 192.789 80.7542C187.784 88.3643 181.478 94.9729 178.775 104.385C179.576 103.985 179.876 103.885 180.277 103.785C180.677 103.584 181.178 103.384 181.878 103.084C180.777 107.189 178.175 110.493 178.075 114.699C179.276 113.798 180.177 112.997 181.378 111.995C181.278 114.999 181.178 117.402 181.278 119.906C181.378 122.309 181.778 124.712 182.078 127.115C182.279 127.115 182.579 127.215 182.779 127.215C185.682 123.21 185.582 118.003 187.183 113.497C186.683 119.806 186.983 125.813 189.185 132.422C191.688 126.715 191.287 121.007 193.289 115.8C194.19 118.804 194.991 121.808 195.992 125.113C199.195 121.508 197.594 117.202 198.795 113.097C199.696 114.799 200.396 116.001 201.297 117.603C202.899 115.099 203.9 112.997 203.499 110.393C203.299 109.092 203.6 107.79 203.7 106.488C203.9 106.488 204 106.488 204.2 106.488C204.701 107.489 205.201 108.391 206.102 109.993C206.302 107.189 206.502 105.086 206.703 102.883C206.903 102.883 207.103 102.883 207.303 102.883C208.004 104.686 208.805 106.488 209.706 108.691C211.808 105.687 210.606 102.683 211.307 99.7793C211.808 100.08 212.208 100.38 213.009 100.881C213.81 98.5777 214.51 96.575 215.311 94.0718C215.711 95.0731 216.012 95.6739 216.312 96.3748C218.514 94.9729 219.715 93.1706 219.815 90.7674C220.016 88.5645 221.217 87.3629 223.519 86.4617C222.919 88.965 222.618 91.0678 222.018 93.0704C220.116 99.8794 218.014 106.588 216.112 113.497C214.51 119.205 213.109 125.012 211.808 130.82C211.207 133.624 211.107 136.427 209.906 139.331C208.004 143.737 207.203 148.543 206.002 153.25C205.001 157.055 204.1 160.759 202.999 164.564C200.497 173.276 197.694 181.787 195.392 190.499C192.889 200.111 190.587 209.824 188.585 219.537C186.383 230.451 183.48 242.066 182.879 253.381C182.379 263.995 182.179 273.708 183.88 284.022C184.681 289.128 185.382 294.235 186.283 299.242C186.983 303.047 188.084 306.852 189.286 310.556C190.387 313.961 191.588 317.365 192.789 320.77C194.891 321.371 198.995 321.771 201.097 321.871C203.099 321.371 205.001 320.57 206.502 319.368C205.001 314.161 203.199 308.954 201.898 303.747C200.396 297.539 199.295 291.331 198.294 285.023C197.594 280.617 197.293 276.111 196.793 271.705C194.491 248.675 200.997 215.431 201.698 212.227C202.799 207.421 203.399 202.614 205.001 197.908C206.202 194.604 205.702 190.799 207.704 187.695C207.704 187.595 207.704 187.495 207.704 187.394C209.205 180.586 210.707 173.777 212.208 167.068C212.608 165.165 213.409 163.363 213.91 161.46C216.312 153.149 218.614 144.738 221.017 136.427C222.818 130.019 224.62 123.611 226.622 117.302C228.524 111.094 230.626 104.986 232.628 98.8781C232.828 98.3774 233.129 97.9769 233.629 96.9756C234.83 99.9795 233.028 102.283 233.028 104.886C234.33 104.485 235.531 104.085 237.132 103.684C236.732 106.989 236.332 109.893 235.931 113.497C237.733 111.895 239.034 110.593 240.536 109.192C241.837 113.597 239.034 117.302 239.034 121.308C242.237 120.507 242.137 117.002 244.54 115.2C244.74 122.409 243.238 129.018 241.136 135.727C246.141 132.823 247.643 128.117 249.144 123.41C249.344 123.51 249.645 123.51 249.845 123.611L250.546 129.618C251.446 128.717 251.847 127.716 251.947 126.715C252.147 124.312 252.347 121.808 252.347 119.305C252.347 117.603 252.548 116.101 253.849 114.098C254.55 116.902 255.05 119.205 255.551 121.408C256.652 120.406 257.352 119.405 257.653 118.304C258.053 116.601 258.153 114.899 258.353 113.097C258.854 107.089 257.853 101.281 257.052 95.3735C256.151 88.8649 255.25 82.4565 254.249 75.7477C256.652 79.3524 257.452 83.7582 260.856 87.1627C261.056 85.16 261.256 83.7582 261.356 82.2562C263.458 85.9611 263.058 90.5671 266.161 93.9716C266.561 89.666 266.862 85.4604 267.262 81.1548C267.863 81.5553 268.163 81.8557 268.163 82.2562C268.663 87.4631 270.465 92.4697 270.065 97.7766C269.965 98.7779 270.165 99.8794 270.465 100.781C270.765 101.782 271.366 102.683 271.766 103.684C271.967 103.684 272.267 103.684 272.467 103.584C273.168 99.579 273.969 95.5737 274.669 91.6686C275.67 94.1719 276.171 96.6752 276.771 99.1785C277.472 101.582 276.671 104.385 278.873 107.089C279.574 102.283 280.775 98.1772 280.775 93.9716C280.875 82.1561 275.17 72.5434 267.763 63.832C264.96 60.5276 261.757 57.8241 257.653 55.9216C254.249 54.3195 251.046 52.1166 247.242 49.8136C252.648 49.1126 256.151 53.3182 260.956 53.6186C260.555 52.3168 260.155 51.4157 259.855 50.5145C260.055 50.4143 260.255 50.2141 260.455 50.1139C263.759 52.8175 267.162 55.5211 270.265 58.3247C272.067 59.9269 273.768 61.4288 276.671 61.7292C271.366 55.5211 266.962 49.0125 260.255 44.6067C262.157 45.2075 263.859 46.1087 265.46 47.0099C267.362 48.1113 269.364 49.2128 271.166 50.5145C275.17 53.5184 279.074 56.6225 282.377 60.5276C283.178 61.4288 284.079 62.33 285.079 63.0309C286.08 63.7319 287.282 64.2325 288.383 64.8333C288.483 64.633 288.683 64.5329 288.783 64.3326C287.182 60.828 285.58 57.3234 282.977 54.3195C280.475 51.5158 277.973 48.7121 275.07 45.5079C275.971 45.9084 276.271 46.0085 276.471 46.1087C276.871 46.4091 277.372 46.6093 277.772 46.9097C282.977 50.6146 287.382 55.1205 291.185 60.3274C293.488 63.5316 296.19 66.4354 298.793 69.4394C299.093 66.135 298.393 63.2312 296.891 60.5276C295.69 57.8241 294.389 55.1205 292.687 52.7174Z"/>
</mask>
<path fill-rule="evenodd" clip-rule="evenodd" d="M292.687 52.7174C290.985 50.2141 288.883 48.1113 286.581 45.4078C295.089 50.3142 300.595 57.3234 306 64.5329C304.699 60.2272 303.798 55.7213 300.294 52.5171C299.694 52.0165 299.293 51.2154 298.793 50.5145C293.087 42.7042 285.88 36.7964 276.371 34.0929C275.67 33.8926 274.97 33.392 273.969 32.8913C279.074 31.1891 283.678 33.6924 288.583 33.1917C287.782 31.5896 286.381 30.9888 284.979 30.2879C277.372 26.4829 269.464 27.1838 261.556 29.1864C259.655 29.6871 257.853 30.2879 256.051 30.7885C260.155 26.2826 265.36 24.28 271.166 23.1785C270.866 22.778 270.665 22.5777 270.365 22.5777C269.664 22.3775 268.964 22.2773 268.263 22.1772C261.256 21.0758 254.85 22.8781 248.844 26.3827C247.943 26.8834 247.142 27.5843 245.641 27.7846C248.944 25.9822 252.247 24.28 255.45 22.4776C256.451 21.8768 257.452 21.1759 258.253 19.9743C255.851 20.2747 253.448 20.5751 250.946 20.9756C254.65 18.5725 258.954 17.6713 262.758 15.969C266.862 14.1667 270.966 14.3669 275.17 13.7662C271.166 11.7635 266.762 12.865 262.257 11.7635C266.762 8.8597 271.867 8.75957 276.571 6.9572C273.868 5.45522 268.563 5.35509 258.253 6.15614C258.854 4.4539 260.355 3.85311 261.757 3.45259C263.859 2.8518 265.46 1.75035 266.962 0.0481101C260.455 -0.252285 254.75 0.749032 250.345 6.05601C248.744 7.95851 246.442 9.26022 244.039 11.1627C243.839 8.15878 245.741 6.55667 246.141 4.4539C242.738 6.35641 241.136 8.25891 236.432 15.8689C236.932 12.6647 237.333 10.0613 237.733 7.15746C233.729 10.7622 232.228 15.5685 230.426 20.3748C229.925 18.1719 229.425 15.969 228.824 13.2655C226.822 16.5698 226.822 19.8742 226.622 23.2787C226.122 22.6779 225.621 22.1772 225.121 21.5764C224.82 22.2773 224.72 23.0784 224.52 23.5791C224.22 22.2773 224.22 20.8755 224.02 19.3735C222.418 21.6766 221.918 23.8794 222.018 26.1825C220.616 25.4816 219.315 24.8808 218.314 23.9796C216.012 21.7767 213.309 21.4763 210.306 21.276C211.007 22.8781 211.607 24.3801 212.208 25.782C207.203 21.3762 201.798 18.2721 194.791 17.6713C195.792 20.9756 199.195 21.9769 199.696 25.1812C197.393 22.9783 194.891 21.1759 191.788 20.2747C188.785 19.3735 185.982 17.7714 182.379 18.8729C184.581 20.475 187.083 21.276 188.485 23.7793C182.479 23.5791 177.474 20.1746 171.568 20.2747C173.87 21.9769 176.173 23.6792 178.875 25.6818C162.96 23.3788 159.957 23.4789 155.552 26.0823C158.756 27.4842 162.059 28.2852 165.562 28.2852C160.257 29.9875 154.351 29.1864 148.946 33.0916C153.951 33.5922 158.355 34.0929 162.659 34.5935C156.854 37.2971 150.648 38.9993 146.443 45.0072C148.946 44.4064 151.048 44.0059 153.15 43.5053C155.252 43.0046 157.254 42.1034 159.356 41.803C161.358 41.5026 163.26 40.2009 165.762 41.002C163.16 42.9045 160.958 44.5066 158.655 46.2088C164.361 46.3089 169.266 42.9045 175.072 43.2049C174.671 45.0072 172.669 45.3076 171.969 47.2101C173.17 47.0099 174.271 46.9097 175.272 46.6093C176.273 46.3089 177.174 45.8083 178.175 45.5079C179.276 45.2075 180.377 45.0072 181.478 44.9071C182.479 44.807 183.48 44.4064 184.981 44.807C182.879 46.2088 180.477 46.3089 178.875 48.7121C182.279 48.7121 185.282 48.7121 188.785 48.7121C186.983 50.114 185.582 51.1153 184.281 52.1166C185.782 52.6172 187.183 52.6172 188.485 52.5171C189.185 52.417 189.886 52.2167 190.587 52.0165C191.888 51.7161 193.189 51.3155 194.491 51.1153C195.792 50.915 197.093 50.8149 198.495 50.7147C199.596 50.6146 200.497 50.3142 201.497 51.6159C201.998 52.3168 204 51.8162 205.301 51.8162C205.401 51.8162 205.401 52.1166 205.702 52.5171C199.295 53.1179 193.39 55.1205 187.584 57.4236C181.678 59.7266 176.273 62.7305 171.668 67.1363C172.069 67.637 172.369 68.0375 172.869 68.5382C169.566 71.442 166.763 74.6462 164.361 78.8517C165.863 78.6515 166.864 78.5513 167.965 78.4512C166.663 83.2575 165.362 87.8636 164.061 92.3695C164.261 92.4697 164.461 92.5698 164.661 92.6699C165.362 91.969 165.963 91.1679 166.663 90.467C168.265 88.7648 169.967 87.0625 171.668 85.4604C172.269 84.8596 173.17 84.6594 174.471 83.8583C173.67 86.3616 173.07 88.164 172.469 89.9664C176.973 87.7635 179.576 83.2575 184.481 81.1548C184.08 83.8583 181.778 85.4604 182.078 88.2641C185.382 85.0599 188.385 82.056 192.789 80.7542C187.784 88.3643 181.478 94.9729 178.775 104.385C179.576 103.985 179.876 103.885 180.277 103.785C180.677 103.584 181.178 103.384 181.878 103.084C180.777 107.189 178.175 110.493 178.075 114.699C179.276 113.798 180.177 112.997 181.378 111.995C181.278 114.999 181.178 117.402 181.278 119.906C181.378 122.309 181.778 124.712 182.078 127.115C182.279 127.115 182.579 127.215 182.779 127.215C185.682 123.21 185.582 118.003 187.183 113.497C186.683 119.806 186.983 125.813 189.185 132.422C191.688 126.715 191.287 121.007 193.289 115.8C194.19 118.804 194.991 121.808 195.992 125.113C199.195 121.508 197.594 117.202 198.795 113.097C199.696 114.799 200.396 116.001 201.297 117.603C202.899 115.099 203.9 112.997 203.499 110.393C203.299 109.092 203.6 107.79 203.7 106.488C203.9 106.488 204 106.488 204.2 106.488C204.701 107.489 205.201 108.391 206.102 109.993C206.302 107.189 206.502 105.086 206.703 102.883C206.903 102.883 207.103 102.883 207.303 102.883C208.004 104.686 208.805 106.488 209.706 108.691C211.808 105.687 210.606 102.683 211.307 99.7793C211.808 100.08 212.208 100.38 213.009 100.881C213.81 98.5777 214.51 96.575 215.311 94.0718C215.711 95.0731 216.012 95.6739 216.312 96.3748C218.514 94.9729 219.715 93.1706 219.815 90.7674C220.016 88.5645 221.217 87.3629 223.519 86.4617C222.919 88.965 222.618 91.0678 222.018 93.0704C220.116 99.8794 218.014 106.588 216.112 113.497C214.51 119.205 213.109 125.012 211.808 130.82C211.207 133.624 211.107 136.427 209.906 139.331C208.004 143.737 207.203 148.543 206.002 153.25C205.001 157.055 204.1 160.759 202.999 164.564C200.497 173.276 197.694 181.787 195.392 190.499C192.889 200.111 190.587 209.824 188.585 219.537C186.383 230.451 183.48 242.066 182.879 253.381C182.379 263.995 182.179 273.708 183.88 284.022C184.681 289.128 185.382 294.235 186.283 299.242C186.983 303.047 188.084 306.852 189.286 310.556C190.387 313.961 191.588 317.365 192.789 320.77C194.891 321.371 198.995 321.771 201.097 321.871C203.099 321.371 205.001 320.57 206.502 319.368C205.001 314.161 203.199 308.954 201.898 303.747C200.396 297.539 199.295 291.331 198.294 285.023C197.594 280.617 197.293 276.111 196.793 271.705C194.491 248.675 200.997 215.431 201.698 212.227C202.799 207.421 203.399 202.614 205.001 197.908C206.202 194.604 205.702 190.799 207.704 187.695C207.704 187.595 207.704 187.495 207.704 187.394C209.205 180.586 210.707 173.777 212.208 167.068C212.608 165.165 213.409 163.363 213.91 161.46C216.312 153.149 218.614 144.738 221.017 136.427C222.818 130.019 224.62 123.611 226.622 117.302C228.524 111.094 230.626 104.986 232.628 98.8781C232.828 98.3774 233.129 97.9769 233.629 96.9756C234.83 99.9795 233.028 102.283 233.028 104.886C234.33 104.485 235.531 104.085 237.132 103.684C236.732 106.989 236.332 109.893 235.931 113.497C237.733 111.895 239.034 110.593 240.536 109.192C241.837 113.597 239.034 117.302 239.034 121.308C242.237 120.507 242.137 117.002 244.54 115.2C244.74 122.409 243.238 129.018 241.136 135.727C246.141 132.823 247.643 128.117 249.144 123.41C249.344 123.51 249.645 123.51 249.845 123.611L250.546 129.618C251.446 128.717 251.847 127.716 251.947 126.715C252.147 124.312 252.347 121.808 252.347 119.305C252.347 117.603 252.548 116.101 253.849 114.098C254.55 116.902 255.05 119.205 255.551 121.408C256.652 120.406 257.352 119.405 257.653 118.304C258.053 116.601 258.153 114.899 258.353 113.097C258.854 107.089 257.853 101.281 257.052 95.3735C256.151 88.8649 255.25 82.4565 254.249 75.7477C256.652 79.3524 257.452 83.7582 260.856 87.1627C261.056 85.16 261.256 83.7582 261.356 82.2562C263.458 85.9611 263.058 90.5671 266.161 93.9716C266.561 89.666 266.862 85.4604 267.262 81.1548C267.863 81.5553 268.163 81.8557 268.163 82.2562C268.663 87.4631 270.465 92.4697 270.065 97.7766C269.965 98.7779 270.165 99.8794 270.465 100.781C270.765 101.782 271.366 102.683 271.766 103.684C271.967 103.684 272.267 103.684 272.467 103.584C273.168 99.579 273.969 95.5737 274.669 91.6686C275.67 94.1719 276.171 96.6752 276.771 99.1785C277.472 101.582 276.671 104.385 278.873 107.089C279.574 102.283 280.775 98.1772 280.775 93.9716C280.875 82.1561 275.17 72.5434 267.763 63.832C264.96 60.5276 261.757 57.8241 257.653 55.9216C254.249 54.3195 251.046 52.1166 247.242 49.8136C252.648 49.1126 256.151 53.3182 260.956 53.6186C260.555 52.3168 260.155 51.4157 259.855 50.5145C260.055 50.4143 260.255 50.2141 260.455 50.1139C263.759 52.8175 267.162 55.5211 270.265 58.3247C272.067 59.9269 273.768 61.4288 276.671 61.7292C271.366 55.5211 266.962 49.0125 260.255 44.6067C262.157 45.2075 263.859 46.1087 265.46 47.0099C267.362 48.1113 269.364 49.2128 271.166 50.5145C275.17 53.5184 279.074 56.6225 282.377 60.5276C283.178 61.4288 284.079 62.33 285.079 63.0309C286.08 63.7319 287.282 64.2325 288.383 64.8333C288.483 64.633 288.683 64.5329 288.783 64.3326C287.182 60.828 285.58 57.3234 282.977 54.3195C280.475 51.5158 277.973 48.7121 275.07 45.5079C275.971 45.9084 276.271 46.0085 276.471 46.1087C276.871 46.4091 277.372 46.6093 277.772 46.9097C282.977 50.6146 287.382 55.1205 291.185 60.3274C293.488 63.5316 296.19 66.4354 298.793 69.4394C299.093 66.135 298.393 63.2312 296.891 60.5276C295.69 57.8241 294.389 55.1205 292.687 52.7174Z" stroke="#EEEEEE" stroke-width="2" mask="url(#path-2-inside-1_1151_26621)"/>
<mask id="path-3-inside-2_1151_26621" fill="white">
<path fill-rule="evenodd" clip-rule="evenodd" d="M167.965 322.373C174.171 323.474 177.774 323.274 183.08 320.27C183.18 316.965 181.878 314.262 181.078 310.357C179.977 305.25 177.975 298.441 176.673 293.434C175.973 290.631 175.272 287.827 174.471 285.124C173.47 281.719 172.269 278.315 171.268 274.91C170.267 271.806 169.566 268.602 168.365 265.498C166.063 259.49 163.861 253.382 161.158 247.474C158.255 240.965 154.852 234.657 151.749 228.249C150.047 224.744 148.646 221.139 147.144 217.535C144.242 210.826 141.339 204.117 137.235 198.109C134.232 193.703 130.828 189.598 127.926 185.092C123.121 177.682 118.716 170.072 113.912 162.662C111.71 159.158 109.407 155.854 106.905 152.549C103.502 147.943 99.6978 143.637 96.2945 139.031C92.0904 133.224 87.9863 127.316 83.8823 121.408C81.6801 118.204 79.5781 114.8 77.476 111.595C78.8774 112.096 79.8784 112.897 80.8793 113.798C82.8813 115.601 84.6831 117.503 86.7851 119.105C88.5869 120.507 90.2886 122.009 90.9893 124.212C91.3897 125.614 91.9902 126.915 92.4907 128.217C93.0913 129.719 93.5918 131.221 95.5938 131.922C95.3936 129.519 95.2935 127.416 94.9932 125.313C94.6929 123.211 94.1924 121.108 93.5918 118.404C97.7959 123.411 98.3965 129.619 102.4 133.925C102.601 133.825 102.901 133.825 103.101 133.724C102.801 131.722 102.501 129.819 102.1 127.316C105.504 130.62 106.905 134.926 110.709 137.73C110.709 134.926 109.207 132.823 109.708 130.52C114.012 136.228 116.715 142.836 120.118 148.944C120.418 148.844 120.618 148.744 120.919 148.644C120.018 145.039 119.217 141.334 118.216 137.329C119.417 137.73 120.118 138.03 120.919 138.33C121.119 138.23 121.219 138.03 121.419 137.93C118.917 133.724 116.314 129.519 113.411 124.713C117.315 126.615 119.117 130.42 123.521 131.221C121.319 128.117 119.517 125.414 117.515 122.91C115.413 120.307 113.011 118.004 110.508 115.2C112.41 115.3 113.812 116.602 115.413 116.101C115.213 115.701 115.213 115.5 115.113 115.4C110.508 111.796 105.604 108.591 99.898 106.789C98.5967 106.389 97.4957 105.788 96.8951 104.186C100.398 103.985 102.901 106.589 106.404 106.989C105.203 105.688 104.302 104.686 103.001 103.385C107.405 103.785 110.508 106.188 114.012 107.69C114.112 107.49 114.312 107.39 114.412 107.19C113.111 105.487 111.91 103.785 110.609 101.983C113.011 102.984 115.113 104.386 117.215 105.688C122.02 108.792 122.52 108.892 124.222 108.892C121.219 105.688 117.215 103.485 114.913 99.5795C116.414 99.0789 117.816 100.681 119.517 99.2792C117.415 97.8773 115.613 96.5756 113.712 95.4741C111.81 94.3727 109.708 93.5716 107.706 92.5703C108.406 92.1698 109.007 91.8694 110.008 91.2686C105.003 90.067 100.599 89.0657 95.794 87.9643C97.796 87.3635 99.2974 86.8628 100.899 86.3622C100.899 86.1619 100.799 85.8615 100.799 85.6612C96.4947 83.5585 91.5899 83.959 87.0854 82.457C95.1934 81.1553 103.301 80.6547 111.509 80.8549C110.609 80.2541 109.708 79.7535 108.707 79.5532C104.402 78.5519 100.098 77.6507 95.794 76.6494C95.0933 76.4491 94.1924 76.7495 93.8921 75.5479C102.901 74.6468 111.81 76.4491 120.618 76.0486C120.618 75.8483 120.718 75.6481 120.718 75.4478C116.514 73.7456 112.41 72.1435 108.206 70.5414C111.81 70.241 115.413 70.0407 118.917 70.3411C122.42 70.6415 125.723 72.1435 129.427 72.0433C129.127 71.2423 128.726 70.4412 128.126 70.1408C125.323 68.739 122.52 67.0368 119.517 66.2357C115.413 65.1342 111.009 64.8339 106.805 64.2331C106.204 64.1329 105.604 63.8325 104.503 63.5321C108.607 61.2291 112.911 60.9287 116.815 59.4267C107.405 57.0236 98.5967 59.4267 90.0884 63.5321C94.0923 59.5269 98.7969 56.7232 103.401 53.7192C99.0972 53.7192 95.5938 55.6217 91.9902 57.324C88.2866 59.1263 84.4829 60.8286 81.2797 63.2317C78.2768 65.5348 75.8744 68.8391 73.2719 71.6428C75.7743 66.6362 80.3789 62.7311 80.9794 56.4228C76.3749 60.1277 71.9706 63.7324 67.5663 67.3371C67.266 66.9366 66.9657 66.436 66.4652 65.6349C65.4642 68.0381 64.4632 70.4412 63.4623 72.7443C63.162 71.042 62.7616 69.2396 62.3612 67.5374C61.9608 69.3398 61.5604 71.1422 61.0599 73.2449C58.9578 69.0394 60.7596 64.3332 58.2572 60.5282C55.9549 62.5308 57.3563 65.3345 55.9549 67.7377C54.5535 63.7324 53.8528 59.7271 51.1502 56.6231C51.3504 58.5256 51.5506 60.5282 51.6507 62.4307C48.5476 59.5269 46.1453 56.2225 42.7419 53.8194C44.3435 57.1237 46.7459 60.0275 47.0462 64.4333C45.1443 63.3319 43.6428 62.4307 41.6409 61.2291C44.3435 65.2344 47.3465 68.3385 49.4485 72.6441C46.5457 71.7429 45.0442 69.2396 42.2414 69.54C42.5417 70.0407 42.6418 70.3411 42.842 70.5414C44.1433 72.1435 45.4446 73.7456 46.7459 75.3477C45.7449 75.1474 44.7439 75.0473 43.6428 74.847C45.9451 77.0499 47.947 78.8523 49.949 80.7548C49.949 80.8549 49.949 80.8549 49.949 80.9551C48.6477 80.8549 47.6467 80.3543 46.5457 79.8536C43.6428 78.3516 40.74 76.7495 37.737 75.5479C35.5349 74.6468 33.0324 74.4465 30.1296 75.4478C32.632 76.5493 35.1345 76.7495 36.3357 79.5532C31.9313 79.1527 27.7272 77.15 23.0226 78.5519C25.4249 79.8536 27.4269 80.9551 29.4289 81.9564C24.3239 82.3569 19.319 82.5572 14.7144 85.461C17.6173 85.7614 20.2198 86.1619 23.423 86.4623C14.8145 88.9656 12.5123 89.9669 9.80962 92.7706C11.9117 92.8707 14.0137 91.4689 16.8165 92.5703C14.314 94.3727 12.5123 96.2752 10.21 97.2765C3.90383 100.08 1.40137 105.287 0 111.595C2.10206 110.594 3.60354 109.292 4.70462 107.49C5.4053 106.288 6.40629 104.987 8.30815 104.887C4.70462 114.599 3.50344 119.706 4.20412 122.71C7.20707 118.605 8.70854 113.698 12.7125 110.194C12.5123 114.8 10.3101 118.805 11.211 123.211C12.9127 119.406 13.8136 115.3 16.6163 111.796C19.319 108.591 21.3209 104.686 24.6242 101.782C23.6232 103.985 22.7223 106.288 21.7213 108.491C23.1227 108.091 24.1237 107.29 24.9245 106.489C27.6271 103.785 30.2297 100.981 32.8322 98.2778C33.8332 97.2765 34.9343 96.1751 36.9362 95.5743C35.3347 98.4781 32.7321 100.08 32.0314 103.685C36.9362 100.681 41.3406 98.0776 45.7449 95.374C45.845 95.4741 45.9451 95.6744 46.1453 95.7745C44.844 97.3767 43.6428 98.8786 42.3415 100.481C42.4416 100.581 42.6418 100.781 42.7419 100.881C44.6438 100.08 46.4456 99.3793 48.3474 98.6784C47.6467 100.08 46.6458 101.082 45.6448 102.183C41.5408 106.789 37.3366 111.395 35.5349 117.503C34.3337 121.508 33.4328 125.614 32.9323 129.719C32.4318 135.126 34.5339 139.832 37.9372 144.038C37.6369 141.735 37.1364 139.432 36.736 137.129C36.3356 134.826 36.1355 132.523 37.8371 130.22C39.2385 133.424 40.4397 136.328 41.6409 139.232C42.0412 134.125 41.3406 129.219 42.7419 124.112C43.3425 126.014 43.9431 127.616 44.4436 129.118C44.7439 129.118 44.9441 129.118 45.2444 129.118C45.7449 127.917 46.3455 126.815 46.7459 125.614C47.6467 122.81 48.4475 119.906 49.0481 117.002C49.4485 115.1 50.7498 113.898 52.4515 112.196C52.1512 114.8 51.951 116.902 51.7508 118.905C51.951 119.005 52.1512 119.105 52.3514 119.205C53.4524 118.104 54.5535 117.002 55.7547 115.701C55.9549 116.302 56.2552 116.702 56.2552 117.002C56.055 121.208 55.6546 125.414 55.5545 129.619C55.3543 135.026 56.3553 140.333 57.5565 145.64C57.9569 143.838 58.3573 142.035 58.8577 139.933C60.9598 144.138 59.158 148.844 61.6605 152.649C63.9628 150.647 62.5614 147.843 63.9628 145.44C65.3641 149.445 66.0648 153.45 68.7675 156.554C68.5673 154.652 68.3671 152.649 68.267 150.747C71.37 153.651 73.7724 156.955 77.1757 159.358C75.5741 156.054 73.1718 153.15 72.8715 148.744C74.7734 149.846 76.2748 150.747 78.2768 151.948C75.5742 147.943 72.5712 144.839 70.4691 140.533C73.372 141.435 74.8735 143.938 77.6762 143.637C77.3759 143.137 77.2758 142.836 77.0756 142.636C75.1738 140.233 73.1718 137.83 71.2699 135.527C69.7685 133.624 69.9686 131.421 69.6684 128.518C71.1698 130.12 71.9706 131.421 73.1718 132.323C74.373 133.324 75.8744 133.925 77.1757 134.726C75.8744 131.822 74.1728 129.419 72.8715 126.815C71.4701 124.212 69.7684 121.809 69.4682 118.705C70.369 119.205 70.9696 119.906 71.4701 120.607C76.5751 127.717 81.8803 134.826 86.7851 142.136C93.1914 151.748 99.2974 161.661 105.704 171.374C108.807 176.08 112.01 180.786 115.513 185.192C120.618 191.701 124.923 198.61 128.426 206.02C133.431 216.533 138.536 227.147 143.441 237.661C146.243 243.569 148.846 249.577 150.948 255.785C152.349 260.091 155.152 268.001 156.453 274.61C158.155 283.822 160.858 291.832 162.459 301.044C163.16 302.947 166.263 315.764 167.965 322.373Z"/>
</mask>
<path fill-rule="evenodd" clip-rule="evenodd" d="M167.965 322.373C174.171 323.474 177.774 323.274 183.08 320.27C183.18 316.965 181.878 314.262 181.078 310.357C179.977 305.25 177.975 298.441 176.673 293.434C175.973 290.631 175.272 287.827 174.471 285.124C173.47 281.719 172.269 278.315 171.268 274.91C170.267 271.806 169.566 268.602 168.365 265.498C166.063 259.49 163.861 253.382 161.158 247.474C158.255 240.965 154.852 234.657 151.749 228.249C150.047 224.744 148.646 221.139 147.144 217.535C144.242 210.826 141.339 204.117 137.235 198.109C134.232 193.703 130.828 189.598 127.926 185.092C123.121 177.682 118.716 170.072 113.912 162.662C111.71 159.158 109.407 155.854 106.905 152.549C103.502 147.943 99.6978 143.637 96.2945 139.031C92.0904 133.224 87.9863 127.316 83.8823 121.408C81.6801 118.204 79.5781 114.8 77.476 111.595C78.8774 112.096 79.8784 112.897 80.8793 113.798C82.8813 115.601 84.6831 117.503 86.7851 119.105C88.5869 120.507 90.2886 122.009 90.9893 124.212C91.3897 125.614 91.9902 126.915 92.4907 128.217C93.0913 129.719 93.5918 131.221 95.5938 131.922C95.3936 129.519 95.2935 127.416 94.9932 125.313C94.6929 123.211 94.1924 121.108 93.5918 118.404C97.7959 123.411 98.3965 129.619 102.4 133.925C102.601 133.825 102.901 133.825 103.101 133.724C102.801 131.722 102.501 129.819 102.1 127.316C105.504 130.62 106.905 134.926 110.709 137.73C110.709 134.926 109.207 132.823 109.708 130.52C114.012 136.228 116.715 142.836 120.118 148.944C120.418 148.844 120.618 148.744 120.919 148.644C120.018 145.039 119.217 141.334 118.216 137.329C119.417 137.73 120.118 138.03 120.919 138.33C121.119 138.23 121.219 138.03 121.419 137.93C118.917 133.724 116.314 129.519 113.411 124.713C117.315 126.615 119.117 130.42 123.521 131.221C121.319 128.117 119.517 125.414 117.515 122.91C115.413 120.307 113.011 118.004 110.508 115.2C112.41 115.3 113.812 116.602 115.413 116.101C115.213 115.701 115.213 115.5 115.113 115.4C110.508 111.796 105.604 108.591 99.898 106.789C98.5967 106.389 97.4957 105.788 96.8951 104.186C100.398 103.985 102.901 106.589 106.404 106.989C105.203 105.688 104.302 104.686 103.001 103.385C107.405 103.785 110.508 106.188 114.012 107.69C114.112 107.49 114.312 107.39 114.412 107.19C113.111 105.487 111.91 103.785 110.609 101.983C113.011 102.984 115.113 104.386 117.215 105.688C122.02 108.792 122.52 108.892 124.222 108.892C121.219 105.688 117.215 103.485 114.913 99.5795C116.414 99.0789 117.816 100.681 119.517 99.2792C117.415 97.8773 115.613 96.5756 113.712 95.4741C111.81 94.3727 109.708 93.5716 107.706 92.5703C108.406 92.1698 109.007 91.8694 110.008 91.2686C105.003 90.067 100.599 89.0657 95.794 87.9643C97.796 87.3635 99.2974 86.8628 100.899 86.3622C100.899 86.1619 100.799 85.8615 100.799 85.6612C96.4947 83.5585 91.5899 83.959 87.0854 82.457C95.1934 81.1553 103.301 80.6547 111.509 80.8549C110.609 80.2541 109.708 79.7535 108.707 79.5532C104.402 78.5519 100.098 77.6507 95.794 76.6494C95.0933 76.4491 94.1924 76.7495 93.8921 75.5479C102.901 74.6468 111.81 76.4491 120.618 76.0486C120.618 75.8483 120.718 75.6481 120.718 75.4478C116.514 73.7456 112.41 72.1435 108.206 70.5414C111.81 70.241 115.413 70.0407 118.917 70.3411C122.42 70.6415 125.723 72.1435 129.427 72.0433C129.127 71.2423 128.726 70.4412 128.126 70.1408C125.323 68.739 122.52 67.0368 119.517 66.2357C115.413 65.1342 111.009 64.8339 106.805 64.2331C106.204 64.1329 105.604 63.8325 104.503 63.5321C108.607 61.2291 112.911 60.9287 116.815 59.4267C107.405 57.0236 98.5967 59.4267 90.0884 63.5321C94.0923 59.5269 98.7969 56.7232 103.401 53.7192C99.0972 53.7192 95.5938 55.6217 91.9902 57.324C88.2866 59.1263 84.4829 60.8286 81.2797 63.2317C78.2768 65.5348 75.8744 68.8391 73.2719 71.6428C75.7743 66.6362 80.3789 62.7311 80.9794 56.4228C76.3749 60.1277 71.9706 63.7324 67.5663 67.3371C67.266 66.9366 66.9657 66.436 66.4652 65.6349C65.4642 68.0381 64.4632 70.4412 63.4623 72.7443C63.162 71.042 62.7616 69.2396 62.3612 67.5374C61.9608 69.3398 61.5604 71.1422 61.0599 73.2449C58.9578 69.0394 60.7596 64.3332 58.2572 60.5282C55.9549 62.5308 57.3563 65.3345 55.9549 67.7377C54.5535 63.7324 53.8528 59.7271 51.1502 56.6231C51.3504 58.5256 51.5506 60.5282 51.6507 62.4307C48.5476 59.5269 46.1453 56.2225 42.7419 53.8194C44.3435 57.1237 46.7459 60.0275 47.0462 64.4333C45.1443 63.3319 43.6428 62.4307 41.6409 61.2291C44.3435 65.2344 47.3465 68.3385 49.4485 72.6441C46.5457 71.7429 45.0442 69.2396 42.2414 69.54C42.5417 70.0407 42.6418 70.3411 42.842 70.5414C44.1433 72.1435 45.4446 73.7456 46.7459 75.3477C45.7449 75.1474 44.7439 75.0473 43.6428 74.847C45.9451 77.0499 47.947 78.8523 49.949 80.7548C49.949 80.8549 49.949 80.8549 49.949 80.9551C48.6477 80.8549 47.6467 80.3543 46.5457 79.8536C43.6428 78.3516 40.74 76.7495 37.737 75.5479C35.5349 74.6468 33.0324 74.4465 30.1296 75.4478C32.632 76.5493 35.1345 76.7495 36.3357 79.5532C31.9313 79.1527 27.7272 77.15 23.0226 78.5519C25.4249 79.8536 27.4269 80.9551 29.4289 81.9564C24.3239 82.3569 19.319 82.5572 14.7144 85.461C17.6173 85.7614 20.2198 86.1619 23.423 86.4623C14.8145 88.9656 12.5123 89.9669 9.80962 92.7706C11.9117 92.8707 14.0137 91.4689 16.8165 92.5703C14.314 94.3727 12.5123 96.2752 10.21 97.2765C3.90383 100.08 1.40137 105.287 0 111.595C2.10206 110.594 3.60354 109.292 4.70462 107.49C5.4053 106.288 6.40629 104.987 8.30815 104.887C4.70462 114.599 3.50344 119.706 4.20412 122.71C7.20707 118.605 8.70854 113.698 12.7125 110.194C12.5123 114.8 10.3101 118.805 11.211 123.211C12.9127 119.406 13.8136 115.3 16.6163 111.796C19.319 108.591 21.3209 104.686 24.6242 101.782C23.6232 103.985 22.7223 106.288 21.7213 108.491C23.1227 108.091 24.1237 107.29 24.9245 106.489C27.6271 103.785 30.2297 100.981 32.8322 98.2778C33.8332 97.2765 34.9343 96.1751 36.9362 95.5743C35.3347 98.4781 32.7321 100.08 32.0314 103.685C36.9362 100.681 41.3406 98.0776 45.7449 95.374C45.845 95.4741 45.9451 95.6744 46.1453 95.7745C44.844 97.3767 43.6428 98.8786 42.3415 100.481C42.4416 100.581 42.6418 100.781 42.7419 100.881C44.6438 100.08 46.4456 99.3793 48.3474 98.6784C47.6467 100.08 46.6458 101.082 45.6448 102.183C41.5408 106.789 37.3366 111.395 35.5349 117.503C34.3337 121.508 33.4328 125.614 32.9323 129.719C32.4318 135.126 34.5339 139.832 37.9372 144.038C37.6369 141.735 37.1364 139.432 36.736 137.129C36.3356 134.826 36.1355 132.523 37.8371 130.22C39.2385 133.424 40.4397 136.328 41.6409 139.232C42.0412 134.125 41.3406 129.219 42.7419 124.112C43.3425 126.014 43.9431 127.616 44.4436 129.118C44.7439 129.118 44.9441 129.118 45.2444 129.118C45.7449 127.917 46.3455 126.815 46.7459 125.614C47.6467 122.81 48.4475 119.906 49.0481 117.002C49.4485 115.1 50.7498 113.898 52.4515 112.196C52.1512 114.8 51.951 116.902 51.7508 118.905C51.951 119.005 52.1512 119.105 52.3514 119.205C53.4524 118.104 54.5535 117.002 55.7547 115.701C55.9549 116.302 56.2552 116.702 56.2552 117.002C56.055 121.208 55.6546 125.414 55.5545 129.619C55.3543 135.026 56.3553 140.333 57.5565 145.64C57.9569 143.838 58.3573 142.035 58.8577 139.933C60.9598 144.138 59.158 148.844 61.6605 152.649C63.9628 150.647 62.5614 147.843 63.9628 145.44C65.3641 149.445 66.0648 153.45 68.7675 156.554C68.5673 154.652 68.3671 152.649 68.267 150.747C71.37 153.651 73.7724 156.955 77.1757 159.358C75.5741 156.054 73.1718 153.15 72.8715 148.744C74.7734 149.846 76.2748 150.747 78.2768 151.948C75.5742 147.943 72.5712 144.839 70.4691 140.533C73.372 141.435 74.8735 143.938 77.6762 143.637C77.3759 143.137 77.2758 142.836 77.0756 142.636C75.1738 140.233 73.1718 137.83 71.2699 135.527C69.7685 133.624 69.9686 131.421 69.6684 128.518C71.1698 130.12 71.9706 131.421 73.1718 132.323C74.373 133.324 75.8744 133.925 77.1757 134.726C75.8744 131.822 74.1728 129.419 72.8715 126.815C71.4701 124.212 69.7684 121.809 69.4682 118.705C70.369 119.205 70.9696 119.906 71.4701 120.607C76.5751 127.717 81.8803 134.826 86.7851 142.136C93.1914 151.748 99.2974 161.661 105.704 171.374C108.807 176.08 112.01 180.786 115.513 185.192C120.618 191.701 124.923 198.61 128.426 206.02C133.431 216.533 138.536 227.147 143.441 237.661C146.243 243.569 148.846 249.577 150.948 255.785C152.349 260.091 155.152 268.001 156.453 274.61C158.155 283.822 160.858 291.832 162.459 301.044C163.16 302.947 166.263 315.764 167.965 322.373Z" stroke="#EEEEEE" stroke-width="2" mask="url(#path-3-inside-2_1151_26621)"/>
<path d="M183.961 307.261C183.509 309.446 183.069 311.513 182.688 313.569L182.602 314.038L183.066 314.147C183.887 314.339 184.976 314.366 186.148 314.312C187.33 314.258 188.638 314.119 189.913 313.956C191.188 313.793 192.443 313.604 193.513 313.451C194.594 313.297 195.469 313.182 196.015 313.158L196.519 313.137L196.492 312.633C196.473 312.259 196.459 311.884 196.445 311.51C196.497 311.82 196.549 312.13 196.601 312.44L196.658 312.783L197 312.85C198.239 313.088 199.341 313.566 200.474 314.057C201.02 314.294 201.576 314.534 202.15 314.743L201.906 315.053C201.809 315.176 201.73 315.282 201.671 315.371C201.623 315.443 201.553 315.554 201.521 315.673C201.509 315.716 201.461 315.899 201.569 316.089C201.71 316.333 201.956 316.354 202.053 316.35C202.149 316.345 202.227 316.316 202.264 316.301C202.309 316.282 202.352 316.26 202.388 316.24C202.638 316.101 203.083 315.754 203.468 315.458C203.581 315.371 203.691 315.288 203.794 315.21C203.869 315.225 203.943 315.242 204.019 315.255L204.321 315.306L204.503 315.058C204.595 314.932 204.67 314.823 204.726 314.729C204.768 314.657 204.842 314.527 204.86 314.383C204.87 314.308 204.878 314.122 204.736 313.957C204.675 313.886 204.606 313.843 204.54 313.815C205.032 313.3 205.581 312.727 206.127 312.152C206.442 311.821 206.758 311.489 207.063 311.17C206.743 311.752 206.434 312.344 206.15 312.946H206.151C205.988 313.281 206.005 313.654 206.03 313.92C206.061 314.247 206.103 314.439 206.104 314.661V315.545L206.782 315.136C206.83 315.148 206.902 315.172 207.002 315.218C207.234 315.324 207.514 315.492 207.821 315.678C208.111 315.853 208.434 316.05 208.705 316.173C208.837 316.233 208.998 316.295 209.159 316.314C209.315 316.334 209.609 316.325 209.806 316.062L209.811 316.057L209.814 316.051C210.014 315.768 210.159 315.387 210.274 314.979C210.392 314.563 210.49 314.077 210.576 313.558C210.748 312.525 210.886 311.293 211.04 310.146C211.113 309.602 211.191 309.075 211.277 308.586C211.265 309.448 211.282 310.393 211.296 311.327C211.315 312.586 211.33 313.826 211.273 314.863C210.983 315.258 210.69 315.659 210.397 316.077L210.084 316.525L210.56 316.798C210.673 316.863 210.784 316.923 210.891 316.983C210.887 316.99 210.885 316.998 210.881 317.004L210.598 317.469L211.084 317.712C211.153 317.747 211.222 317.763 211.257 317.771C211.3 317.78 211.345 317.787 211.388 317.793C211.474 317.805 211.577 317.815 211.685 317.823C211.901 317.839 212.168 317.852 212.422 317.864C212.539 317.87 212.653 317.878 212.76 317.884C212.944 317.936 213.127 317.968 213.308 317.97L213.492 318.154L213.771 317.902C214.149 317.782 214.437 317.514 214.685 317.185C214.958 316.82 215.232 316.316 215.553 315.699C216.651 313.651 217.454 312.343 218.364 311.312C218.83 310.785 219.329 310.326 219.92 309.875C219.359 310.75 218.8 311.619 218.244 312.489C217.268 314.016 216.292 315.543 215.292 317.094L215.042 317.481L215.408 317.762C216.275 318.425 217.093 318.898 217.949 318.988C218.838 319.082 219.667 318.756 220.531 318.053C221.983 316.891 223.735 316.014 225.545 315.108C225.682 315.04 225.84 314.992 226.013 314.961C225.272 315.454 224.53 315.951 223.791 316.449C222.639 317.226 221.491 318 220.344 318.749L220.001 318.973L220.152 319.353C220.281 319.674 220.433 319.943 220.612 320.157C220.346 320.253 220.072 320.351 219.798 320.449C218.828 320.797 217.861 321.143 217.237 321.361L217.219 321.305L216.723 321.509C216.625 321.549 216.535 321.587 216.483 321.614C216.474 321.619 216.46 321.628 216.443 321.639C216.436 321.643 216.387 321.673 216.34 321.726C216.323 321.744 216.245 321.829 216.218 321.967C216.209 322.035 216.224 322.185 216.25 322.262C216.287 322.331 216.379 322.44 216.43 322.479C216.534 322.549 216.636 322.559 216.66 322.562C216.699 322.565 216.73 322.565 216.745 322.563C216.797 322.56 216.841 322.548 216.848 322.547C216.865 322.543 216.883 322.538 216.897 322.533C216.933 322.523 216.981 322.504 217.041 322.484C217.072 322.482 217.101 322.479 217.126 322.476C217.241 322.46 217.39 322.428 217.555 322.389C217.889 322.308 218.354 322.178 218.897 322.018C219.988 321.695 221.432 321.24 222.87 320.783C223.134 320.699 223.398 320.614 223.66 320.531C223.536 320.597 223.411 320.662 223.286 320.729L222.806 320.982L223.1 321.44C223.591 322.205 224.138 322.675 224.757 322.899C225.371 323.122 225.986 323.077 226.559 322.947C226.939 322.861 227.335 322.727 227.717 322.596C227.409 322.83 227.117 323.053 226.823 323.273L226.402 323.589L226.739 323.993C227.246 324.602 227.756 325.162 228.238 325.707C228.724 326.255 229.188 326.794 229.626 327.378L229.636 327.39C229.79 327.582 229.938 327.873 230.022 328.158C230.064 328.299 230.086 328.423 230.09 328.521C230.094 328.611 230.081 328.651 230.079 328.656C229.973 328.868 229.759 329.111 229.496 329.301C229.226 329.496 228.978 329.582 228.825 329.582H228.796C223.59 329.882 218.39 330.183 213.19 330.383C209.839 330.483 206.462 330.584 203.085 330.684C199.707 330.784 196.328 330.883 192.975 330.983H192.974C186.747 331.184 180.672 331.584 174.483 331.484H174.484C170.512 331.385 166.679 330.593 162.622 330.086L162.597 330.082C162.579 330.077 162.556 330.07 162.519 330.058C162.484 330.046 162.432 330.029 162.382 330.016C162.351 330.007 162.301 329.996 162.241 329.989H162.242C161.041 329.789 159.958 329.57 159.146 329.264C158.483 329.014 158.111 328.745 157.939 328.478C158.654 327.692 159.397 326.981 160.543 326.188L160.609 326.141L160.658 326.076C160.659 326.076 160.665 326.068 160.68 326.053C160.695 326.037 160.717 326.018 160.745 325.994C160.803 325.947 160.879 325.891 160.973 325.827C161.16 325.7 161.399 325.557 161.657 325.409C161.915 325.262 162.186 325.114 162.439 324.977C162.69 324.841 162.927 324.712 163.108 324.608L163.951 324.127L163.07 323.72C162.418 323.418 161.181 322.864 159.973 322.322C162.161 322.505 163.523 322.694 165.906 322.969L166.113 322.992L166.276 322.862V322.861L166.277 322.86C166.278 322.859 166.28 322.858 166.282 322.856C166.286 322.853 166.292 322.849 166.3 322.843C166.315 322.831 166.337 322.813 166.363 322.791C166.417 322.747 166.491 322.686 166.574 322.615C166.739 322.476 166.953 322.289 167.118 322.124L167.598 321.645L167.235 321.453L167.618 321.581L167.812 321.193C167.872 321.075 167.882 320.957 167.885 320.888C167.888 320.81 167.882 320.733 167.874 320.667C167.859 320.537 167.829 320.39 167.805 320.271C167.779 320.14 167.759 320.036 167.749 319.954C167.748 319.942 167.747 319.931 167.746 319.922L167.936 319.545L167.488 319.321C165.156 318.155 162.873 316.94 160.631 315.742C161.612 316.066 162.608 316.493 163.753 317.019L163.762 317.022C164.948 317.538 166.282 317.922 167.576 318.296C168.884 318.673 170.154 319.04 171.27 319.525L171.704 319.715L171.916 319.291C171.951 319.222 171.985 319.169 172.035 319.094C172.085 319.019 172.151 318.921 172.217 318.79L172.389 318.444L172.099 318.19C171.684 317.828 171.269 317.464 170.854 317.102C171.01 317.148 171.167 317.198 171.331 317.245L171.614 317.326L171.822 317.117C171.942 316.998 171.998 316.876 172.033 316.787C172.069 316.699 172.079 316.662 172.116 316.587L172.31 316.2L171.955 315.953C171.411 315.574 171.338 315.36 171.328 315.293C171.317 315.218 171.344 315.135 171.485 314.889C171.672 315.21 171.996 315.525 172.47 315.861V315.862C173.132 316.359 173.744 316.601 174.401 316.661C175.036 316.719 175.679 316.602 176.378 316.452L176.384 316.451C178.016 316.083 179.131 315.402 179.788 314.351C180.434 313.317 180.578 312.014 180.476 310.524H180.477C180.453 310.142 180.465 309.759 180.506 309.374C180.513 309.574 180.521 309.774 180.528 309.974C180.578 311.35 180.629 312.727 180.679 314.079L181.626 314.284C182.356 312.823 182.63 311.169 183.024 309.71C183.255 308.857 183.532 308.035 183.961 307.261ZM212.359 315.072C212.447 315.239 212.537 315.402 212.623 315.556C212.869 315.996 213.076 316.372 213.173 316.687C213.202 316.782 213.216 316.855 213.221 316.91C213.211 316.909 213.201 316.908 213.191 316.907C213.115 316.901 213.03 316.898 212.94 316.893C212.863 316.867 212.776 316.833 212.677 316.791C212.504 316.717 212.311 316.62 212.091 316.504C212.098 316.469 212.107 316.435 212.113 316.4C212.179 316.047 212.222 315.648 212.252 315.219C212.255 315.215 212.258 315.212 212.261 315.208C212.294 315.163 212.326 315.117 212.359 315.072Z" stroke="#EEEEEE"/>
</g>
</svg>
