<svg width="96" height="78" viewBox="0 0 96 78" fill="none" xmlns="http://www.w3.org/2000/svg">
<path d="M55.6249 76.9283L14.7079 65.6274C13.1979 65.2378 12.3211 63.6303 12.7595 62.1203L28.4443 3.76481C28.834 2.25478 30.3928 1.37798 31.9028 1.76767L72.8198 13.0686C74.3298 13.4582 75.2066 15.0657 74.7682 16.5757L59.0834 74.9312C58.645 76.4412 57.135 77.318 55.6249 76.9283Z" fill="#F6F3BC"/>
<path d="M56.3559 78.0002C56.0149 78.0002 55.6739 77.9514 55.3329 77.854L14.4159 66.5531C12.4188 66.0173 11.201 63.9227 11.7855 61.8769L27.5191 3.52143C27.7627 2.54722 28.3959 1.71913 29.3214 1.18332C30.1982 0.696208 31.2211 0.550076 32.1953 0.84234L73.1124 12.1432C75.1095 12.679 76.3273 14.7736 75.7427 16.8195L60.0579 75.1749C59.8143 76.1491 59.1811 76.9772 58.2556 77.513C57.6711 77.8053 56.9891 78.0002 56.3559 78.0002ZM55.8688 75.9543C56.3559 76.1004 56.843 76.003 57.2327 75.7595C57.6711 75.5159 57.9633 75.1262 58.1095 74.6391L73.843 16.2836C74.1353 15.3094 73.5508 14.2378 72.5765 13.9942L31.6595 2.69335C31.1724 2.54722 30.6853 2.64464 30.2956 2.88819C29.8572 3.13174 29.565 3.52143 29.4188 4.00854L13.6853 62.4127C13.393 63.3869 13.9775 64.4586 14.9517 64.7021L55.8688 75.9543Z" fill="#285340"/>
<path d="M41.3518 48.9687C41.303 48.9687 41.2056 48.9687 41.1569 48.92C40.7672 48.8226 40.5237 48.4329 40.6211 48.0432L49.0481 16.6735C49.1455 16.2838 49.5352 16.0403 49.9248 16.1377C50.3145 16.2351 50.5581 16.6248 50.4607 17.0145L42.0824 48.4329C41.985 48.7252 41.6927 48.9687 41.3518 48.9687Z" fill="#285340"/>
<path d="M41.3518 48.9685C41.3031 48.9685 41.2057 48.9685 41.157 48.9197C32.2429 46.4842 26.9334 37.1318 29.369 28.0716C30.538 23.6389 33.3632 19.9856 37.3088 17.7449C41.2057 15.5529 45.6871 14.9684 49.9736 16.1374C50.3633 16.2348 50.6068 16.6245 50.4607 17.0142C50.3633 17.4039 49.9736 17.6475 49.5839 17.5013C45.6871 16.4297 41.5466 16.9168 38.0395 18.9626C34.4349 21.0572 31.9019 24.4182 30.7816 28.4612C28.5409 36.7421 33.3632 45.2664 41.5467 47.5071C41.9363 47.6046 42.1799 47.9942 42.0338 48.3839C41.985 48.7736 41.6928 48.9685 41.3518 48.9685Z" fill="#285340"/>
<path d="M41.3527 48.9686C41.304 48.9686 41.2066 48.9686 41.1579 48.9199C35.6536 47.4098 33.1206 38.788 35.5561 29.7765C37.1149 24.0287 40.2811 19.255 44.0805 17.1118C46.0777 15.9914 48.1235 15.6504 49.9745 16.1375C50.3642 16.235 50.6078 16.6246 50.4616 17.0143C50.3642 17.404 49.9745 17.6476 49.5848 17.5014C48.0748 17.1118 46.4674 17.3553 44.8112 18.3295C41.4014 20.278 38.3814 24.8081 36.9688 30.1175C34.7281 38.3984 36.8226 46.1921 41.5476 47.4585C41.9373 47.556 42.1808 47.9457 42.0347 48.3353C41.986 48.7737 41.6937 48.9686 41.3527 48.9686Z" fill="#285340"/>
<path d="M42.9104 49.1632C42.3259 49.1632 41.7413 49.0658 41.1568 48.9197C40.7671 48.8223 40.5236 48.4326 40.6697 48.0429C40.7671 47.6532 41.1568 47.4096 41.5465 47.5558C43.0565 47.9455 44.664 47.7019 46.3201 46.7277C49.7299 44.7793 52.75 40.2492 54.1626 34.9397C56.4033 26.6589 54.3087 18.8651 49.5838 17.5987C49.1941 17.5012 48.9505 17.1116 49.0967 16.7219C49.1941 16.3322 49.5838 16.0886 49.9734 16.2348C55.4778 17.7448 58.0107 26.3666 55.5752 35.3781C54.0164 41.1259 50.8502 45.8996 47.0508 48.0429C45.6869 48.7735 44.2743 49.1632 42.9104 49.1632Z" fill="#285340"/>
<path d="M60.9347 28.4611C57.8172 28.3637 52.7513 27.4382 47.3444 25.9282C41.9862 24.4669 37.1151 22.6646 34.3873 21.1545C34.0464 20.9597 33.9002 20.5213 34.0951 20.1803C34.2899 19.8393 34.7283 19.6932 35.0693 19.8881C37.6997 21.3494 42.4246 23.103 47.6854 24.5156C52.9461 25.9769 57.9146 26.9024 60.886 26.9998C61.2757 26.9998 61.6167 27.3408 61.6167 27.7305C61.6654 28.1689 61.3244 28.4611 60.9347 28.4611Z" fill="#285340"/>
<path d="M56.404 45.2667C56.3065 45.2667 56.1604 45.218 56.063 45.1693C53.4326 43.708 48.7077 41.9544 43.4469 40.5418C38.1861 39.0804 33.2176 38.1549 30.2463 38.0575C29.8566 38.0575 29.5156 37.7165 29.5156 37.3269C29.5156 36.9372 29.8566 36.5962 30.2463 36.5962C33.3638 36.6936 38.4297 37.6191 43.7879 39.1292C49.1461 40.5905 54.0171 42.3928 56.7449 43.9028C57.0859 44.0976 57.232 44.536 57.0372 44.877C56.8911 45.1693 56.6475 45.2667 56.404 45.2667Z" fill="#285340"/>
<path d="M45.5895 49.553C44.1282 49.553 42.6181 49.3582 41.1568 48.9685C40.7671 48.8711 40.5236 48.4814 40.6697 48.0917C40.7671 47.702 41.1568 47.4585 41.5465 47.6046C45.4434 48.6762 49.5838 48.1891 53.0909 46.1433C56.6955 44.0974 59.2772 40.7364 60.3488 36.6934C62.5895 28.4126 57.7672 19.8882 49.5838 17.6475C49.1941 17.5501 48.9505 17.1604 49.0967 16.7707C49.1941 16.381 49.5838 16.1375 49.9734 16.2836C58.8875 18.7678 64.197 28.1203 61.7614 37.1318C60.5924 41.5645 57.7672 45.2178 53.8216 47.4585C51.2886 48.7737 48.4634 49.553 45.5895 49.553Z" fill="#285340"/>
<path d="M61.0796 37.5702C61.0309 37.5702 60.9335 37.5702 60.8848 37.5215L29.9047 28.9971C29.515 28.8997 29.2715 28.51 29.4176 28.1203C29.515 27.7306 29.9047 27.4871 30.2944 27.6332L61.2744 36.1576C61.6641 36.255 61.9077 36.6447 61.7616 37.0344C61.7128 37.3266 61.4206 37.5702 61.0796 37.5702Z" fill="#285340"/>
<path d="M26.8848 51.9881C27.0796 52.3291 27.0796 52.7188 26.9822 53.2059C26.8848 53.6443 26.6412 53.9853 26.3003 54.1801C25.9593 54.375 25.6183 54.4237 25.1799 54.3263L24.0596 54.034H24.0109L23.3776 56.3721C23.3776 56.4208 23.3289 56.4208 23.2802 56.4208L22.8905 56.3234C22.8418 56.3234 22.8418 56.2747 22.8418 56.226L24.2544 50.9652C24.2544 50.9165 24.3031 50.9165 24.3518 50.9165L26.008 51.3549C26.3977 51.4036 26.6899 51.5985 26.8848 51.9881ZM25.9593 53.693C26.1541 53.5469 26.3003 53.3033 26.3977 53.0111C26.4951 52.7188 26.4464 52.4265 26.349 52.183C26.2515 51.9394 26.0567 51.7933 25.7644 51.7446L24.6928 51.4523H24.6441L24.1083 53.4495V53.4982L25.1799 53.7904C25.5209 53.8879 25.7644 53.8392 25.9593 53.693Z" fill="#285340"/>
<path d="M29.319 57.931V56.908C29.319 56.908 29.319 56.8593 29.2703 56.8593L27.468 56.3722H27.4193L26.8835 57.249C26.8835 57.2977 26.8348 57.2977 26.7861 57.2977L26.3964 57.2003C26.3477 57.2003 26.3477 57.2003 26.3477 57.1516V57.1029L29.1729 52.2318C29.1729 52.1831 29.2216 52.1831 29.2703 52.1831L29.7574 52.3292C29.8061 52.3292 29.8061 52.3779 29.8061 52.4267V58.0771V58.1258C29.8061 58.1745 29.7574 58.1745 29.7087 58.1745L29.319 58.0771C29.319 58.0284 29.319 57.9797 29.319 57.931ZM27.6628 55.9338C27.7116 55.9338 27.7116 55.9338 27.6628 55.9338L29.2703 56.3722C29.2703 56.3722 29.2703 56.3722 29.319 56.3722L29.3677 53.0599L27.6628 55.9338Z" fill="#285340"/>
<path d="M30.9274 58.1257C30.7325 57.7847 30.6838 57.395 30.7813 57.0053L30.83 56.8105C30.83 56.7618 30.8787 56.7618 30.9274 56.7618L31.3171 56.8592C31.3658 56.8592 31.3658 56.9079 31.3658 56.9566L31.3171 57.1515C31.2197 57.4437 31.2684 57.6873 31.4145 57.9308C31.5606 58.1744 31.8042 58.3205 32.0964 58.4179C32.3887 58.5154 32.6323 58.4667 32.8758 58.3692C33.0707 58.2718 33.2168 58.077 33.3142 57.7847C33.3629 57.5899 33.3629 57.4437 33.3142 57.2976C33.2655 57.1515 33.1681 57.0053 33.0707 56.8592C32.9245 56.7131 32.7784 56.5182 32.4861 56.2747C32.1939 56.0311 31.999 55.7876 31.8529 55.6414C31.7068 55.4466 31.6093 55.2517 31.5606 55.0569C31.5119 54.8621 31.5119 54.6185 31.5606 54.3262C31.658 53.8878 31.9016 53.5956 32.2426 53.4494C32.5836 53.3033 32.9732 53.2546 33.4116 53.4007C33.8987 53.5469 34.2397 53.7904 34.4346 54.0827C34.6294 54.4237 34.6781 54.8133 34.5807 55.2517L34.532 55.4466C34.532 55.4953 34.4833 55.4953 34.4346 55.4953L34.0449 55.3979C33.9962 55.3979 33.9962 55.3492 33.9962 55.3005L34.0449 55.1543C34.1423 54.8621 34.0936 54.6185 33.9475 54.3749C33.8013 54.1314 33.6065 53.9853 33.2655 53.8878C32.9732 53.7904 32.7297 53.8391 32.5348 53.9366C32.34 54.034 32.1939 54.2288 32.0964 54.5211C32.0477 54.7159 32.0477 54.8621 32.0964 55.0082C32.1452 55.1543 32.2426 55.3005 32.34 55.4466C32.4374 55.5927 32.6323 55.7876 32.9245 56.0311C33.2168 56.3234 33.4603 56.5669 33.6065 56.7618C33.7526 56.9566 33.85 57.1515 33.8987 57.3463C33.9475 57.5411 33.9475 57.7847 33.8987 58.0283C33.8013 58.4666 33.5578 58.7589 33.2168 58.9538C32.8758 59.1486 32.4861 59.1486 31.999 59.0512C31.4632 58.6615 31.1222 58.4179 30.9274 58.1257Z" fill="#285340"/>
<path d="M34.8237 59.1975C34.6289 58.8565 34.5802 58.4668 34.6776 58.0771L34.7263 57.8823C34.7263 57.8336 34.775 57.8336 34.8237 57.8336L35.2134 57.931C35.2621 57.931 35.2621 57.9797 35.2621 58.0284L35.2134 58.2232C35.116 58.5155 35.1647 58.7591 35.3109 59.0026C35.457 59.2462 35.7005 59.3923 35.9928 59.4897C36.2851 59.5871 36.5286 59.5384 36.7722 59.441C36.967 59.3436 37.1132 59.1487 37.2106 58.8565C37.2593 58.6616 37.2593 58.5155 37.2106 58.3694C37.1619 58.2232 37.0644 58.0771 36.967 57.931C36.8209 57.7848 36.6748 57.59 36.3825 57.3464C36.0902 57.1029 35.8954 56.8593 35.7493 56.7132C35.6031 56.5184 35.5057 56.3235 35.457 56.1287C35.4083 55.9338 35.4083 55.6903 35.457 55.398C35.5544 54.9596 35.798 54.6674 36.1389 54.5212C36.4799 54.3751 36.8696 54.3264 37.308 54.4725C37.7951 54.6186 38.1361 54.8622 38.3309 55.1545C38.5258 55.4954 38.5745 55.8851 38.4771 56.3235L38.4283 56.5184C38.4283 56.5671 38.3796 56.5671 38.3309 56.5671L37.9412 56.4697C37.8925 56.4697 37.8925 56.4209 37.8925 56.3722L37.9412 56.2261C38.0387 55.9338 37.9899 55.6903 37.8438 55.4467C37.6977 55.2032 37.5028 55.057 37.1619 54.9596C36.8696 54.8622 36.626 54.9109 36.4312 55.0083C36.2364 55.1058 36.0902 55.3006 35.9928 55.5929C35.9441 55.7877 35.9441 55.9338 35.9928 56.08C36.0415 56.2261 36.1389 56.3722 36.2364 56.5184C36.3338 56.6645 36.5286 56.8593 36.8209 57.1029C37.1132 57.3952 37.3567 57.6387 37.5028 57.8336C37.649 58.0284 37.7464 58.2232 37.7951 58.4181C37.8438 58.6129 37.8438 58.8565 37.7951 59.1C37.6977 59.5384 37.4541 59.8307 37.1132 60.0255C36.7722 60.2204 36.3825 60.2204 35.8954 60.123C35.4083 59.782 35.0673 59.5384 34.8237 59.1975Z" fill="#285340"/>
<path d="M42.4727 56.2748C42.6675 56.6157 42.6675 57.0054 42.5701 57.4925C42.4727 57.9309 42.2291 58.2719 41.8881 58.4667C41.5472 58.6616 41.2062 58.7103 40.7678 58.6129L39.6475 58.3206H39.5987L38.9655 60.6587C38.9655 60.7074 38.9168 60.7074 38.8681 60.7074L38.4784 60.61C38.4297 60.61 38.4297 60.5613 38.4297 60.5126L39.8423 55.2518C39.8423 55.2031 39.891 55.2031 39.9397 55.2031L41.5959 55.6415C41.9856 55.6902 42.2778 55.9338 42.4727 56.2748ZM41.5472 57.9796C41.742 57.8335 41.8882 57.5899 41.9856 57.2977C42.083 57.0054 42.0343 56.7132 41.9369 56.4696C41.8394 56.226 41.6446 56.0799 41.3523 56.0312L40.2807 55.7389H40.232L39.6962 57.7361V57.7848L40.7678 58.0771C41.1088 58.1745 41.3523 58.1258 41.5472 57.9796Z" fill="#285340"/>
<path d="M43.1055 61.6813C42.9107 61.4864 42.7645 61.2429 42.7158 60.9993C42.6671 60.7071 42.6671 60.4148 42.7645 60.1225L43.3978 57.7357C43.4952 57.4435 43.6413 57.1512 43.8362 56.9564C44.031 56.7615 44.2746 56.6154 44.5181 56.5667C44.8104 56.518 45.1027 56.518 45.3949 56.6154C45.6872 56.7128 45.9795 56.8589 46.1743 57.0538C46.3691 57.2486 46.5153 57.4922 46.564 57.7844C46.6127 58.0767 46.6127 58.369 46.564 58.6612L45.9307 61.0481C45.8333 61.3403 45.6872 61.6326 45.4923 61.8274C45.2975 62.0223 45.0539 62.1684 44.8104 62.2171C44.5181 62.2658 44.2259 62.2658 43.9336 62.1684C43.5926 62.0223 43.3004 61.8761 43.1055 61.6813ZM44.8591 61.5352C45.1027 61.389 45.2488 61.1455 45.3462 60.8532L45.9795 58.4177C46.0769 58.0767 46.0282 57.7844 45.9307 57.5409C45.7846 57.2973 45.5898 57.1025 45.2488 57.0538C44.9565 56.9563 44.6643 57.0051 44.4207 57.1512C44.1772 57.2973 44.031 57.5409 43.9336 57.8819L43.3004 60.3174C43.2029 60.6584 43.2516 60.9019 43.3978 61.1455C43.5439 61.389 43.7388 61.5352 44.0797 61.6326C44.3233 61.73 44.6156 61.6813 44.8591 61.5352Z" fill="#285340"/>
<path d="M49.1952 63.435L48.9029 60.7559V60.7072L47.9287 60.415H47.88L47.2468 62.8018C47.2468 62.8505 47.198 62.8505 47.1493 62.8505L46.7596 62.7531C46.7109 62.7531 46.7109 62.7044 46.7109 62.6557L48.1235 57.3949C48.1235 57.3462 48.1723 57.3462 48.221 57.3462L49.8284 57.7846C50.2181 57.882 50.5104 58.1256 50.7052 58.4665C50.9001 58.8075 50.9001 59.1972 50.8026 59.6356C50.7052 59.9766 50.5591 60.2688 50.3155 60.4637C50.072 60.6585 49.8284 60.7559 49.4874 60.7559C49.4874 60.7559 49.4387 60.7559 49.4387 60.8047L49.7797 63.4837V63.5325C49.7797 63.5812 49.731 63.5812 49.6823 63.5812L49.2926 63.4837C49.2439 63.5325 49.2439 63.4837 49.1952 63.435ZM48.5132 58.0281L47.9774 59.9766V60.0253L49.0491 60.3175C49.2926 60.3663 49.5362 60.3663 49.7797 60.2201C49.9746 60.074 50.1207 59.8791 50.2181 59.5869C50.3155 59.2946 50.2668 59.0024 50.1694 58.8075C50.072 58.564 49.8771 58.4178 49.5849 58.3691L48.5132 58.0281Z" fill="#285340"/>
<path d="M55.0388 59.3922L54.9414 59.7332C54.9414 59.7819 54.8926 59.7819 54.8439 59.7819L53.5775 59.4409H53.5287L52.2136 64.2633C52.2136 64.312 52.1648 64.312 52.1161 64.312L51.7264 64.2145C51.6777 64.2145 51.6777 64.1658 51.6777 64.1171L52.9929 59.2948V59.246L51.7752 58.9051C51.7264 58.9051 51.7264 58.8564 51.7264 58.8077L51.8239 58.4667C51.8239 58.418 51.8726 58.418 51.9213 58.418L54.9414 59.246C55.0388 59.2948 55.0875 59.3435 55.0388 59.3922Z" fill="#285340"/>
<path d="M65.3195 69.8658L66.0014 61.9259L69.7034 59.7827C70.5315 59.2955 71.1648 58.2239 71.457 57.542C71.5545 57.2497 71.4083 56.9574 71.1161 56.9574C70.3854 56.9087 69.1676 56.9087 68.3395 57.4445L64.735 59.6852L57.5258 56.4216C57.3309 56.3242 57.1361 56.4216 57.0874 56.6652L56.9899 57.0061C56.9412 57.1523 56.9899 57.2497 57.0874 57.3471L61.6175 61.6337L59.1332 63.1437C58.8897 63.2898 58.6461 63.436 58.4026 63.5821C58.3538 63.6308 58.2564 63.6795 58.2077 63.7282L55.626 62.5592C55.4799 62.4617 55.2851 62.5592 55.1877 62.7053L55.0415 62.9976C54.9928 63.095 54.9928 63.2411 55.0902 63.3385C55.0902 63.3385 57.2822 65.2383 57.4283 65.4818C57.6232 65.8715 58.159 68.5506 58.159 68.5506C58.2077 68.6967 58.3051 68.7454 58.4513 68.7941L58.7922 68.8428C58.9871 68.8428 59.1332 68.6967 59.1332 68.5506L59.3281 65.6766C59.4255 65.6279 59.4742 65.6279 59.5716 65.5792C59.8152 65.4818 60.0587 65.3357 60.3023 65.1895L62.8352 63.7282L64.3453 69.8171C64.394 69.9632 64.4427 70.0606 64.5888 70.0606L64.9298 70.158C65.0759 70.2068 65.2708 70.0606 65.3195 69.8658Z" fill="#285340"/>
<path d="M21.4803 75.5164C11.4946 75.5164 4.13927 72.5938 1.60632 66.8946C-0.585667 61.9261 1.16792 55.4476 6.5261 48.5794C6.86708 48.141 7.45161 48.0923 7.89 48.4332C8.3284 48.7742 8.37711 49.3587 8.03613 49.7971C3.16506 56.0808 1.50889 61.8774 3.3599 66.1152C7.59774 75.76 28.8356 76.1009 51.7297 66.8946C52.2168 66.6998 52.8013 66.9433 52.9961 67.4304C53.191 67.9175 52.9474 68.5021 52.4603 68.6969C41.1107 73.2757 30.2482 75.5164 21.4803 75.5164Z" fill="#285340"/>
<path d="M75.8418 55.6912C75.5496 55.6912 75.2573 55.5451 75.0625 55.3015C74.7215 54.8631 74.8189 54.2786 75.2573 53.9376C88.7502 43.9519 95.4236 32.9433 92.3061 25.8802C90.6012 21.9834 86.1198 19.4991 79.3003 18.671C78.7645 18.6223 78.3748 18.1352 78.4722 17.5994C78.5209 17.0636 79.008 16.6739 79.5438 16.7713C87.0453 17.6481 92.0625 20.5708 94.1084 25.1009C97.6642 33.1381 90.8935 44.8287 76.4264 55.4964C76.2315 55.5938 76.0367 55.6912 75.8418 55.6912Z" fill="#285340"/>
</svg>
