<svg width="68" height="72" viewBox="0 0 68 72" fill="none" xmlns="http://www.w3.org/2000/svg">
<g clip-path="url(#clip0_1444_536)">
<path d="M57.896 59.4571C55.6731 60.4447 53.3492 61.0373 51.0253 61.6299C49.3076 62.1237 47.4889 62.5188 45.7712 63.2101C45.165 63.4077 44.5587 63.704 43.9525 64.0003C42.0327 64.8892 40.214 65.8768 38.4963 66.8645C37.1828 67.5558 35.8693 68.3459 34.4547 69.0373C33.9495 69.3336 33.4443 69.5311 32.9391 69.7287C28.6954 71.6052 24.957 72.2966 21.5216 71.8027C15.9644 71.0126 11.3165 66.6669 10.1041 61.3336C9.6999 59.5558 9.6999 57.6793 9.59886 55.9015C9.59886 53.8274 9.49782 51.8521 8.99262 49.9756C8.28534 47.6052 6.66869 45.5311 4.95101 43.4571C3.43541 41.5805 1.91981 39.704 1.01045 37.4324C-1.21243 32.0003 0.505248 24.8892 5.35517 20.1484C7.78014 17.778 11.0134 15.9015 14.6509 14.7163C16.2675 14.1237 18.0862 13.7287 20.006 13.4324C20.4101 13.3336 20.8143 13.3336 21.2185 13.3336C22.3299 13.2348 23.2393 13.1361 23.9466 12.5435C25.159 11.5558 26.0684 10.3706 26.9778 8.98792C27.2809 8.49409 27.584 8.09903 27.8871 7.6052C29.8069 5.0373 32.3329 2.7657 35.2631 1.28422C35.5662 1.08669 35.9703 0.889155 36.2734 0.79039C38.0922 0.000266105 39.6078 -0.29603 41.1234 0.0990315C42.639 0.395328 44.0535 1.38298 45.165 2.86446C45.7712 3.65459 46.2764 4.54348 46.6806 5.3336C47.2868 6.51878 47.8931 7.6052 48.8024 8.49409C50.318 10.0743 52.2378 11.1608 54.2586 11.8521C54.6628 11.9509 55.1679 12.1484 55.5721 12.2472C56.5825 12.5435 57.5929 12.8398 58.6033 13.3336C61.6345 14.9138 63.2512 18.8645 62.1397 21.8274C61.0283 24.5929 60.7252 26.6669 62.1397 29.4324C62.746 30.7163 63.5543 31.9015 64.2616 33.0867C65.0699 34.3706 65.8782 35.6546 66.5855 37.0373C68.3032 40.6916 68.5052 45.0373 67.2928 48.8892C66.0803 52.741 63.3522 56.1978 59.8158 58.2719C59.2096 58.8645 58.5023 59.1608 57.896 59.4571ZM43.2452 62.6175C43.9525 62.3213 44.5587 62.025 45.165 61.8274C46.8827 61.1361 48.8024 60.6422 50.5201 60.2472C52.743 59.6546 55.0669 59.062 57.0877 58.0743C57.694 57.778 58.3002 57.4817 58.8054 57.1855C62.0387 55.3089 64.4636 52.2472 65.5751 48.6916C66.6865 45.2348 66.4844 41.2842 64.8678 37.9262C64.2616 36.6422 63.4532 35.3583 62.6449 34.1731C61.8366 32.9879 61.0283 31.704 60.422 30.3213C58.8054 26.9632 59.2096 24.4941 60.422 21.4324C61.3314 19.062 59.7148 16.0003 57.5929 14.9138C56.7846 14.5188 55.8752 14.2225 54.8648 13.9262C54.3596 13.8274 53.9555 13.6299 53.4503 13.5311C51.1263 12.741 49.0045 11.4571 47.2868 9.77804C46.1754 8.69162 45.4681 7.40767 44.8619 6.22249C44.4577 5.43236 44.0535 4.64224 43.4473 3.85212C42.639 2.66693 41.5275 1.87681 40.4161 1.67928C39.1026 1.38298 37.587 1.67928 35.7682 2.7657C33.1412 4.24718 30.7162 6.22249 28.8975 8.69162C28.5944 9.08669 28.2913 9.58051 27.9882 9.97557C26.9778 11.3583 26.0684 12.8398 24.5528 13.9262C24.2497 14.1237 23.9466 14.3213 23.6434 14.42C22.7341 14.8151 21.8247 14.9138 21.0164 15.0126C20.7133 15.0126 20.3091 15.1114 19.905 15.1114C18.0862 15.4077 16.4696 15.8027 14.8529 16.2966C11.4176 17.383 8.38638 19.1608 6.16349 21.3336C1.81877 25.5805 0.101087 32.0003 2.12189 36.8398C2.93021 38.9138 4.34477 40.6916 5.86037 42.4694C7.57806 44.6422 9.29574 46.8151 10.2051 49.4817C10.8113 51.5558 10.9124 53.7287 10.9124 55.8027C10.9124 57.5805 10.9124 59.2595 11.3165 60.9385C12.3269 65.5805 16.6717 69.4324 21.4206 70.2225C24.4518 70.7163 27.8871 70.025 31.8277 68.2472C32.3329 68.0496 32.8381 67.7534 33.2422 67.5558C34.5558 66.8645 35.8693 66.1731 37.1828 65.383C39.4057 64.4941 41.3255 63.4077 43.2452 62.6175Z" fill="#110F0F"/>
<path d="M26.2705 26.7657L20.4102 14.3213C8.8916 20.8398 3.73855 34.5682 8.18431 46.8151L20.9154 41.0867C19.5008 35.6546 21.6227 29.9262 26.2705 26.7657Z" fill="#F05A30"/>
<path d="M45.7713 29.926L58.5023 24.1976C51.8337 12.9384 37.7891 7.80257 25.2601 12.1483L31.1205 24.5927C36.5766 23.21 42.437 25.3828 45.7713 29.926Z" fill="#E23C2B"/>
<path d="M42.538 48.8892L48.3983 61.3337C59.9169 54.8151 65.0699 41.0868 60.7252 28.8398L47.9941 34.5682C49.3077 40.0003 47.1858 45.7287 42.538 48.8892Z" fill="#E23C2B"/>
<path d="M23.0372 45.7285L10.3062 51.4569C16.9748 62.7162 31.0194 67.7532 43.5483 63.5063L37.688 51.0619C32.2319 52.4446 26.3715 50.2717 23.0372 45.7285Z" fill="#F05A30"/>
<path d="M40.214 50.2713C39.4057 50.6663 38.5973 50.9626 37.688 51.1601L43.5483 63.6046C44.3566 63.3083 45.165 63.012 45.9733 62.6169C46.7816 62.2219 47.5899 61.8268 48.2972 61.4318L42.4369 48.9873C41.8306 49.3824 41.1234 49.8762 40.214 50.2713Z" fill="white"/>
<path d="M28.5944 25.383C29.4028 24.9879 30.2111 24.6916 31.1204 24.4941L25.2601 12.1484C24.4518 12.4447 23.6435 12.741 22.8352 13.1361C22.0268 13.5312 21.2185 13.9262 20.5112 14.3213L26.2705 26.7657C26.9778 26.2719 27.7861 25.7781 28.5944 25.383Z" fill="white"/>
<path d="M58.5023 24.1973L45.7712 29.9257C46.2764 30.617 46.6806 31.4071 47.0848 32.1973C47.4889 32.9874 47.792 33.7775 47.9941 34.6664L60.7252 28.938C60.4221 28.1479 60.1189 27.3578 59.7148 26.5676C59.3106 25.6787 58.9065 24.8886 58.5023 24.1973Z" fill="white"/>
<path d="M21.7237 43.5561C21.3195 42.7659 21.0164 41.9758 20.8143 41.0869L8.18433 46.8153C8.48745 47.6054 8.79057 48.3956 9.19473 49.1857C9.59889 49.9758 10.003 50.7659 10.4072 51.4573L23.1383 45.7289C22.532 45.0375 22.1279 44.3462 21.7237 43.5561Z" fill="white"/>
</g>
<defs>
<clipPath id="clip0_1444_536">
<rect width="68" height="72" fill="white"/>
</clipPath>
</defs>
</svg>
