<svg width="57" height="61" viewBox="0 0 57 61" fill="none" xmlns="http://www.w3.org/2000/svg">
<path d="M47.6791 50.5473C45.8484 51.3704 43.9346 51.8642 42.0208 52.358C40.6063 52.7696 39.1085 53.0988 37.6939 53.6749C37.1947 53.8395 36.6954 54.0864 36.1961 54.3334C34.6152 55.0741 33.1174 55.8971 31.7028 56.7202C30.6211 57.2963 29.5394 57.9548 28.3745 58.5309C27.9584 58.7778 27.5424 58.9424 27.1263 59.107C23.6315 60.6708 20.5528 61.2469 17.7236 60.8354C13.1471 60.177 9.31948 56.5556 8.32096 52.1111C7.98812 50.6296 7.98812 49.0659 7.90491 47.5844C7.90491 45.856 7.8217 44.2099 7.40566 42.6461C6.82319 40.6708 5.49184 38.9424 4.07728 37.214C2.82913 35.6502 1.58099 34.0864 0.832106 32.1934C-0.998504 27.6667 0.416058 21.7408 4.41011 17.7901C6.40714 15.8148 9.06985 14.251 12.0654 13.2634C13.3967 12.7696 14.8945 12.4403 16.4755 12.1934C16.8083 12.1111 17.1412 12.1111 17.474 12.1111C18.3893 12.0288 19.1382 11.9465 19.7207 11.4527C20.7192 10.6296 21.4681 9.64199 22.2169 8.48973C22.4666 8.07821 22.7162 7.74899 22.9658 7.33747C24.5468 5.19755 26.6271 3.30454 29.0401 2.06998C29.2898 1.90537 29.6226 1.74076 29.8722 1.65845C31.37 1.00002 32.6181 0.753105 33.8663 1.08232C35.1144 1.32924 36.2794 2.15228 37.1947 3.38685C37.6939 4.04529 38.11 4.78603 38.4428 5.44446C38.9421 6.43212 39.4413 7.33747 40.1902 8.07821C41.4383 9.39508 43.0193 10.3004 44.6835 10.8766C45.0164 10.9589 45.4324 11.1235 45.7652 11.2058C46.5973 11.4527 47.4294 11.6996 48.2615 12.1111C50.7578 13.428 52.0892 16.7202 51.1739 19.1893C50.2586 21.4938 50.0089 23.2222 51.1739 25.5268C51.6731 26.5967 52.3388 27.5844 52.9213 28.572C53.5869 29.642 54.2526 30.712 54.8351 31.8642C56.2496 34.9095 56.4161 38.5309 55.4175 41.7408C54.419 44.9506 52.1724 47.8313 49.26 49.5597C48.7608 50.0535 48.1783 50.3004 47.6791 50.5473ZM35.6137 53.1811C36.1961 52.9342 36.6954 52.6873 37.1947 52.5226C38.6092 51.9465 40.1902 51.535 41.6048 51.2058C43.4354 50.7119 45.3492 50.2181 47.0134 49.3951C47.5126 49.1482 48.0119 48.9012 48.4279 48.6543C51.0906 47.0905 53.0877 44.5391 54.003 41.5761C54.9183 38.6955 54.7519 35.4033 53.4205 32.605C52.9213 31.535 52.2556 30.465 51.5899 29.4774C50.9242 28.4897 50.2586 27.4198 49.7593 26.2675C48.4279 23.4692 48.7608 21.4115 49.7593 18.8601C50.5082 16.8848 49.1768 14.3334 47.4294 13.428C46.7638 13.0988 46.0149 12.8519 45.1828 12.605C44.7667 12.5227 44.4339 12.358 44.0178 12.2757C42.104 11.6173 40.3566 10.5473 38.9421 9.14817C38.0268 8.24282 37.4443 7.17286 36.945 6.1852C36.6122 5.52677 36.2794 4.86833 35.7801 4.20989C35.1144 3.22224 34.1991 2.5638 33.2838 2.3992C32.2021 2.15228 30.9539 2.39919 29.4562 3.30454C27.2927 4.53911 25.2957 6.1852 23.7979 8.24282C23.5483 8.57203 23.2987 8.98356 23.049 9.31277C22.2169 10.465 21.4681 11.6996 20.2199 12.605C19.9703 12.7696 19.7207 12.9342 19.471 13.0165C18.7221 13.3457 17.9733 13.428 17.3076 13.5103C17.058 13.5103 16.7251 13.5926 16.3923 13.5926C14.8945 13.8395 13.5632 14.1687 12.2318 14.5803C9.40268 15.4856 6.9064 16.9671 5.07579 18.7778C1.49778 22.3169 0.0832198 27.6667 1.74741 31.6996C2.41309 33.428 3.57802 34.9095 4.82616 36.391C6.24072 38.2017 7.65529 40.0124 8.40417 42.2346C8.90343 43.963 8.98664 45.7737 8.98664 47.5021C8.98664 48.9836 8.98664 50.3827 9.31948 51.7819C10.1516 55.6502 13.7296 58.8601 17.6404 59.5185C20.1367 59.9301 22.9658 59.3539 26.211 57.8724C26.6271 57.7078 27.0431 57.4609 27.3759 57.2963C28.4577 56.7202 29.5394 56.144 30.6211 55.4856C32.4517 54.7449 34.0327 53.8395 35.6137 53.1811Z" fill="#110F0F"/>
<path d="M21.6344 23.3045L16.8083 12.9341C7.32241 18.3662 3.07873 29.8065 6.73994 40.0123L17.2243 35.2386C16.0594 30.7119 17.8068 25.9382 21.6344 23.3045Z" fill="#F05A30"/>
<path d="M37.6939 25.9382L48.1783 21.1646C42.6865 11.7819 31.1203 7.50202 20.8024 11.1234L25.6285 21.4938C30.1218 20.3415 34.948 22.1522 37.6939 25.9382Z" fill="#E23C2B"/>
<path d="M35.0311 41.7407L39.8573 52.111C49.3432 46.6789 53.5868 35.2386 50.0088 25.0328L39.5244 29.8065C40.6062 34.3332 38.8588 39.1069 35.0311 41.7407Z" fill="#E23C2B"/>
<path d="M18.9717 39.1069L8.4873 43.8806C13.9791 53.2633 25.5453 57.4608 35.8632 53.9218L31.0371 43.5514C26.5438 44.7036 21.7176 42.8929 18.9717 39.1069Z" fill="#F05A30"/>
<path d="M33.1173 42.893C32.4517 43.2222 31.786 43.4691 31.0371 43.6337L35.8633 54.0041C36.5289 53.7572 37.1946 53.5102 37.8603 53.181C38.526 52.8518 39.1916 52.5226 39.7741 52.1934L34.948 41.823C34.4487 42.1522 33.8662 42.5637 33.1173 42.893Z" fill="white"/>
<path d="M23.5482 22.1522C24.2139 21.823 24.8796 21.5761 25.6285 21.4115L20.8023 11.1234C20.1367 11.3703 19.471 11.6172 18.8053 11.9465C18.1396 12.2757 17.4739 12.6049 16.8915 12.9341L21.6344 23.3045C22.2169 22.893 22.8826 22.4814 23.5482 22.1522Z" fill="white"/>
<path d="M48.1782 21.1646L37.6938 25.9382C38.1099 26.5143 38.4427 27.1728 38.7756 27.8312C39.1084 28.4897 39.358 29.1481 39.5245 29.8888L50.0089 25.1152C49.7592 24.4567 49.5096 23.7983 49.1768 23.1399C48.8439 22.3991 48.5111 21.7407 48.1782 21.1646Z" fill="white"/>
<path d="M17.8901 37.2963C17.5572 36.6378 17.3076 35.9794 17.1412 35.2386L6.73999 40.0123C6.98962 40.6707 7.23925 41.3292 7.57209 41.9876C7.90492 42.6461 8.23776 43.3045 8.5706 43.8806L19.055 39.107C18.5557 38.5308 18.2229 37.9547 17.8901 37.2963Z" fill="white"/>
</svg>
