<svg width="60" height="60" viewBox="0 0 60 60" fill="none" xmlns="http://www.w3.org/2000/svg">
<mask id="mask0_1151_18526" style="mask-type:alpha" maskUnits="userSpaceOnUse" x="0" y="0" width="60" height="60">
<rect width="60" height="60" fill="#D9D9D9"/>
</mask>
<g mask="url(#mask0_1151_18526)">
<path d="M37.0693 13.0571C37.8979 12.7305 38.6509 12.6647 39.3281 12.8062C40.0057 12.9478 40.674 13.3106 41.3096 13.9448L41.3115 13.9458C41.9059 14.5364 42.4846 15.4049 42.4912 16.5542C42.4978 17.7003 41.9359 19.3696 39.7236 21.5679L34.4609 26.7974L33.1758 28.0757L34.9414 28.4819C35.4527 28.5995 35.9317 28.8517 36.3271 29.2446C36.8019 29.7226 37.1501 30.4032 37.2773 31.1772V31.1802C37.3081 31.3636 37.3418 31.6653 37.3174 31.9565C37.2907 32.2739 37.2112 32.4056 37.1787 32.438L36.3271 33.2827L35.0576 34.5454L36.7979 34.9644C36.966 35.0049 37.1177 35.0529 37.2568 35.1108L37.2637 35.1138C37.6005 35.2513 37.9162 35.4604 38.1943 35.7368L38.1953 35.7378C39.3163 36.8471 39.3189 38.6573 38.1943 39.7749L37.7246 40.2417L36.4453 41.5122L38.2002 41.9243C38.6561 42.0314 39.0825 42.2462 39.4414 42.5562L39.5908 42.6948C40.1346 43.2415 40.4316 43.959 40.4316 44.7173C40.4316 45.4862 40.1379 46.1961 39.5908 46.7397L33.249 53.0405L33.1807 53.0923L33.1133 53.1733L21.2324 58.8979C20.8414 58.9658 20.2965 59.0034 19.7002 59.0034C19.1281 59.0034 18.5452 58.9621 18.043 58.894C17.8907 58.8395 16.3965 58.3006 14.6133 57.4536C12.7716 56.5789 10.7415 55.4315 9.51758 54.2153C6.12556 50.8447 5.18834 46.3377 5.1416 46.0903L5.13965 46.0806L5.1377 46.0718L5.0752 45.728C4.95121 44.9399 4.9872 44.2154 5.13965 42.9224L5.1416 42.8999L5.14453 42.8911L8.22852 29.8501L8.41602 29.6646V29.5845C9.94878 27.5877 11.4741 26.0047 11.5527 25.9194C11.5951 25.8754 11.6445 25.8234 11.6924 25.769L11.8594 25.5767C12.3411 25.0218 13.021 24.2424 13.8701 23.5864C14.7226 22.928 15.6605 22.4619 16.6455 22.4253L16.6475 22.4243C17.592 22.3873 18.5272 22.7526 19.4502 23.6538L17.5674 28.8042L19.2119 29.8569L33.6172 15.5425C34.4817 14.6835 35.6977 13.5951 37.0674 13.0571H37.0693ZM33.2305 53.0601C33.2312 53.0594 33.2318 53.0576 33.2334 53.0562C33.2349 53.0548 33.2364 53.0529 33.2383 53.0513C33.2338 53.0557 33.2322 53.0584 33.2305 53.0601Z" fill="#00B3FF" stroke="#110F0F" stroke-width="2"/>
<path d="M50.3709 6.22784C50.7264 5.87455 50.7264 5.29415 50.3709 4.94087C50.0154 4.58758 49.4313 4.58758 49.0758 4.94087L43.1461 10.8332C42.7906 11.1865 42.7906 11.7669 43.1461 12.1202C43.3239 12.2968 43.5588 12.3851 43.7937 12.3851C44.0286 12.3851 44.2635 12.2968 44.4412 12.1202L50.3709 6.22784Z" fill="#2E8B57"/>
<path d="M39.032 10.0384C39.0828 10.0447 39.1272 10.051 39.178 10.051C39.6224 10.051 40.0097 9.72924 40.0795 9.28133L41.3937 1.05479C41.4699 0.556405 41.1334 0.095871 40.6319 0.013858C40.1303 -0.0618463 39.6669 0.272514 39.5843 0.770901L38.2702 8.99743C38.194 9.49582 38.5304 9.96266 39.032 10.0384Z" fill="#2E8B57"/>
<path d="M33.2421 10.3601C33.4008 10.6756 33.7246 10.8585 34.0611 10.8585C34.2007 10.8585 34.3404 10.827 34.4737 10.7576C34.9245 10.5305 35.1022 9.98162 34.8737 9.5337L31.0645 2.10837C30.8359 1.66045 30.2836 1.48381 29.8328 1.71092C29.3821 1.93804 29.2043 2.48689 29.4329 2.93481L33.2421 10.3601Z" fill="#2E8B57"/>
<path d="M53.2214 24.1257L45.749 20.3404C45.2982 20.1133 44.7459 20.29 44.5173 20.7379C44.2888 21.1858 44.4665 21.7347 44.9173 21.9618L52.3897 25.747C52.523 25.8164 52.6627 25.8479 52.8024 25.8479C53.1325 25.8479 53.4563 25.665 53.6214 25.3495C53.8499 24.9016 53.6722 24.3528 53.2214 24.1257Z" fill="#2E8B57"/>
<path d="M55.3291 14.6184C55.2529 14.12 54.7831 13.7857 54.2815 13.8614L46.0028 15.1673C45.5013 15.243 45.1648 15.7098 45.241 16.2082C45.3108 16.6561 45.7044 16.9779 46.1425 16.9779C46.1869 16.9779 46.2377 16.9716 46.2885 16.9653L54.5672 15.6594C55.0688 15.5837 55.4116 15.1168 55.3291 14.6184Z" fill="#2E8B57"/>
</g>
</svg>
