<svg width="60" height="60" viewBox="0 0 60 60" fill="none" xmlns="http://www.w3.org/2000/svg">
<mask id="mask0_1151_18473" style="mask-type:alpha" maskUnits="userSpaceOnUse" x="0" y="0" width="60" height="60">
<rect width="60" height="60" fill="#D9D9D9"/>
</mask>
<g mask="url(#mask0_1151_18473)">
<path d="M24.8356 52.419C21.0299 52.3821 17.2334 52.3728 13.4184 52.3359C10.2253 52.3081 7.67269 49.7481 7.63556 46.5689C7.57059 39.4619 7.29212 32.2533 7.28284 25.1647C7.28284 23.3903 8.10896 21.7083 9.51987 20.6177C11.3578 19.2037 13.0471 17.7897 14.7551 16.3757C15.8411 15.4793 16.9364 14.5736 18.0781 13.6678C16.5744 16.7639 15.1728 19.7952 13.5205 22.9744C12.5645 24.8228 12.5088 27.0131 13.3813 28.8985C15.6926 33.8798 18.1524 38.8612 20.5843 43.8426C21.8375 46.3933 23.072 48.9441 24.288 51.4949C24.4551 51.8183 24.6314 52.1325 24.8356 52.419Z" fill="#00F34A"/>
<g opacity="0.1">
<path d="M24.8356 52.4191C21.0299 52.3821 17.2334 52.3728 13.4184 52.3359C10.2253 52.3081 7.67269 49.7481 7.63556 46.5689C7.57059 39.4619 7.29212 32.2533 7.28284 25.1648C7.28284 23.3903 8.10896 21.7083 9.51987 20.6178C11.3578 19.2037 13.0471 17.7897 14.7551 16.3757C14.1517 17.4663 13.075 18.4644 12.4531 19.481C11.5248 21.0059 10.7915 22.651 10.2717 24.3515C9.09288 28.2053 8.99078 32.4104 10.1789 36.2735C11.0979 39.2217 12.8893 42.1421 15.7761 43.2696C17.2984 43.8611 18.9321 43.898 20.5843 43.8426C21.8375 46.3933 23.072 48.9441 24.288 51.4949C24.4551 51.8183 24.6314 52.1326 24.8356 52.4191Z" fill="#110F0F"/>
</g>
<path d="M24.8357 53.066C23.3041 53.0567 21.7819 53.0475 20.2596 53.0382C17.9854 53.0198 15.702 53.0105 13.4185 52.9828C9.85412 52.9458 7.03231 50.1363 6.99518 46.5782C6.96734 43.5006 6.89308 40.3491 6.8281 37.2901C6.73528 33.3068 6.65174 29.185 6.64246 25.1647C6.64246 23.2055 7.57068 21.3109 9.13011 20.1094C10.8195 18.8063 12.4253 17.4755 13.9662 16.2001C15.1636 15.2112 16.4074 14.1761 17.6791 13.1688C17.9111 12.9839 18.2546 12.9839 18.4866 13.1688C18.7187 13.3536 18.793 13.6771 18.663 13.9543C18.2082 14.8785 17.7719 15.8027 17.3264 16.7177C16.3053 18.8433 15.2564 21.0429 14.0868 23.2702C13.2236 24.9337 13.1772 26.9392 13.9662 28.6304C15.9619 32.9279 18.0968 37.2901 20.1667 41.5229C21.7262 44.7021 23.332 47.9922 24.8729 51.2268C25.0121 51.5133 25.1699 51.7998 25.3555 52.0678C25.4948 52.2619 25.504 52.5207 25.3927 52.7333C25.2906 52.9366 25.0678 53.066 24.8357 53.066ZM16.2589 15.9783C15.7669 16.385 15.275 16.7916 14.8016 17.189C13.2514 18.4736 11.6363 19.8044 9.92838 21.126C8.68456 22.0872 7.94198 23.6029 7.94198 25.1647C7.95126 29.1665 8.0348 33.2883 8.12762 37.2624C8.1926 40.3122 8.26685 43.4729 8.2947 46.5597C8.32255 49.4062 10.5874 51.6612 13.4371 51.6889C15.7205 51.7166 17.9947 51.7259 20.2688 51.7444C21.4198 51.7536 22.5708 51.7629 23.7218 51.7629C23.7218 51.7629 23.7218 51.7629 23.7218 51.7536C22.1903 48.5282 20.5844 45.2473 19.025 42.0681C16.9458 37.8446 14.8016 33.4732 12.8059 29.1665C11.8498 27.1148 11.9055 24.6842 12.9544 22.6787C14.1147 20.4606 15.1636 18.2795 16.1754 16.1631C16.2032 16.0985 16.2311 16.043 16.2589 15.9783Z" fill="#110F0F"/>
<path d="M21.6242 7.96558C26.748 8.8528 32.6422 9.62911 37.8867 11.0431C39.9103 11.5884 41.5532 13.0209 42.3793 14.9432C45.888 23.1223 49.4896 31.4122 53.0168 39.619C54.4834 43.0293 52.9333 46.9848 49.536 48.5004C44.1337 50.9126 38.7592 53.3617 33.357 55.7738C29.9596 57.2895 25.9683 55.82 24.3717 52.4652C20.798 44.9331 16.9552 37.401 13.465 29.8688C12.5925 27.9835 12.6389 25.7839 13.6043 23.9448C16.4261 18.5383 18.4868 13.5292 21.6242 7.96558Z" fill="#110F0F"/>
<path d="M30.591 57.0031C27.7784 57.0031 25.0587 55.4134 23.787 52.7333C22.2369 49.4617 20.6032 46.1438 19.0345 42.9277C16.9831 38.7319 14.8575 34.3974 12.8804 30.1369C11.9243 28.0852 11.98 25.6546 13.0289 23.6399C14.1892 21.4218 15.2381 19.2223 16.2591 17.0966C17.7071 14.0653 19.2109 10.9323 21.0673 7.64219C21.1973 7.4019 21.4665 7.27251 21.7449 7.31872C22.9888 7.53128 24.279 7.74385 25.5971 7.95641C29.7555 8.64031 34.0532 9.34269 38.0539 10.424C40.2724 11.0247 42.0638 12.5773 42.9735 14.6937C44.9599 19.3239 46.9742 23.9911 48.9884 28.6582C50.5386 32.2348 52.0794 35.8114 53.611 39.3696C55.2076 43.0755 53.4996 47.4377 49.8053 49.092C47.1041 50.3027 44.403 51.5134 41.7111 52.7333C39.0193 53.9532 36.3181 55.1639 33.617 56.3746C32.6423 56.7997 31.612 57.0031 30.591 57.0031ZM21.9677 8.67728C20.2412 11.7825 18.8117 14.7677 17.4287 17.6604C16.4076 19.7953 15.3494 21.9948 14.1799 24.2406C13.3166 25.9041 13.2609 27.9096 14.0499 29.6009C16.0271 33.8522 18.1434 38.1773 20.1948 42.3639C21.7728 45.5801 23.4065 48.9164 24.9566 52.188C26.3861 55.2009 30.034 56.5502 33.0879 55.1824C35.789 53.9717 38.4809 52.761 41.1727 51.5411C43.8646 50.3212 46.5658 49.1105 49.2669 47.8998C52.3208 46.532 53.7317 42.9277 52.4136 39.8594C50.882 36.3012 49.3412 32.7246 47.791 29.148C45.7768 24.4809 43.7532 19.8137 41.7761 15.1836C41.0242 13.4368 39.5483 12.1522 37.7105 11.6532C33.7748 10.5903 29.5049 9.89721 25.3743 9.23179C24.2233 9.04695 23.0816 8.86212 21.9677 8.67728Z" fill="#110F0F"/>
<path d="M49.4617 47.5208C44.0502 49.9422 38.685 52.3913 33.2827 54.8034C29.8854 56.3283 25.894 54.8496 24.2975 51.4948C21.4664 45.5338 18.4682 39.5543 15.6093 33.5841C14.8574 32.0222 14.1148 30.4603 13.3908 28.8985C12.509 27.0039 12.5647 24.8135 13.53 22.9652C16.3519 17.5587 18.4125 12.5588 21.5592 6.98596C25.8476 7.72531 30.6744 8.39073 35.2042 9.41658C36.0953 9.61066 36.9678 9.83246 37.8218 10.0635C39.836 10.6088 41.4883 12.0413 42.3144 13.9636C45.8138 22.1426 49.4246 30.4326 52.9519 38.6394C54.4092 42.0496 52.8683 46.0052 49.4617 47.5208Z" fill="#2597FF"/>
<path d="M47.6144 37.9648C48.1157 39.0276 47.6608 40.303 46.5934 40.8113L38.295 44.7668L31.092 48.1955C30.0059 48.7131 28.7157 48.251 28.2052 47.1697L20.603 30.9409C20.1017 29.8781 20.5566 28.6027 21.624 28.0944L28.8642 24.6472L37.1255 20.7102C38.2115 20.1926 39.5017 20.6547 40.0122 21.736L47.6144 37.9648Z" fill="#110F0F"/>
<path d="M30.1637 49.055C29.8481 49.055 29.5233 48.9995 29.2169 48.8886C28.5115 48.6391 27.9453 48.1215 27.6204 47.4377L20.0182 31.2089C19.3684 29.8319 19.9718 28.1683 21.3456 27.5122L36.8377 20.1279C37.5153 19.8044 38.2857 19.7675 38.9912 20.017C39.6966 20.2665 40.2629 20.7841 40.5877 21.468L48.1899 37.6967C48.8397 39.0738 48.2363 40.7373 46.8626 41.3935L31.3704 48.7777C30.9899 48.9626 30.5814 49.055 30.1637 49.055ZM38.063 21.1445C37.8402 21.1445 37.6174 21.1907 37.4132 21.2924L21.9211 28.6766C21.1785 29.0278 20.8536 29.9243 21.2063 30.6636L28.79 46.9016C28.957 47.2713 29.2634 47.5486 29.6532 47.6779C30.0338 47.8166 30.4515 47.7981 30.8135 47.6225L46.3056 40.2382C47.0482 39.887 47.3731 38.9906 47.0204 38.2512L39.4182 22.0225C39.2511 21.6528 38.9448 21.3756 38.5549 21.2462C38.4064 21.1722 38.23 21.1445 38.063 21.1445Z" fill="#110F0F"/>
<path d="M23.759 18.1132C24.7151 19.4903 26.6644 20.054 28.2423 19.4903C29.8203 18.9265 30.9435 17.3092 30.9992 15.6364C31.0549 13.8619 29.7739 12.0136 28.001 11.801C24.7708 11.3944 21.754 15.239 23.759 18.1132Z" fill="white"/>
<g opacity="0.1">
<path d="M49.4617 47.5209C44.0502 49.9422 38.685 52.3913 33.2827 54.8035C29.8854 56.3284 25.894 54.8497 24.2975 51.4949C21.4664 45.5339 18.4682 39.5544 15.6093 33.5841C18.0134 35.3308 20.631 36.8095 23.3785 37.9648C25.5413 38.8705 27.8062 39.5913 30.1546 39.6837C32.4937 39.7762 34.9164 39.1939 36.7357 37.7152C38.555 36.2458 39.6596 33.8244 39.2141 31.5324C38.8521 29.6655 37.5711 28.1406 36.6058 26.4956C35.6404 24.8598 34.9814 22.7619 35.9096 21.1076C36.5779 19.9061 37.9517 19.2037 38.5458 17.9653C39.4647 16.0707 38.2395 13.8804 37.0606 12.1337C36.4387 11.228 35.8261 10.3131 35.2134 9.40735C36.1045 9.60143 36.9771 9.82323 37.831 10.0543C39.8453 10.5996 41.4975 12.032 42.3237 13.9544C45.8231 22.1334 49.4339 30.4234 52.9611 38.6302C54.4092 42.0497 52.8683 46.0052 49.4617 47.5209Z" fill="#110F0F"/>
</g>
<path d="M46.584 41.6246L38.2856 45.5801L31.0918 49.0089C30.0058 49.5264 28.7156 49.0643 28.2051 47.983L27.4439 46.3657L20.6029 31.7543C20.1016 30.6822 20.5565 29.4161 21.6239 28.9078L28.8641 25.4606L36.8654 21.6529L37.1253 21.5235C38.2114 21.006 39.5016 21.4681 40.0121 22.5494L47.6143 38.7781C48.1155 39.8502 47.6607 41.1163 46.584 41.6246Z" fill="white"/>
<path d="M38.2388 39.8593C39.0742 40.3029 40.1973 40.1273 40.8564 39.4619C41.5247 38.7872 41.6825 37.6782 41.2276 36.8465C40.4108 35.3493 38.4522 35.4417 37.4033 36.6062C36.5215 37.595 37.1342 39.2771 38.2388 39.8593Z" fill="white"/>
<path d="M39.2601 40.7465C38.8052 40.7465 38.3504 40.6448 37.942 40.423C37.1437 40.0071 36.5496 39.1754 36.3826 38.2512C36.2433 37.4656 36.429 36.7263 36.9302 36.181C37.6264 35.4047 38.6846 34.9888 39.6963 35.109C40.6153 35.2106 41.3579 35.7282 41.8127 36.5414C42.4068 37.6227 42.2025 39.0368 41.33 39.9147C40.7824 40.46 40.0212 40.7465 39.2601 40.7465ZM39.3436 36.3658C38.8052 36.3658 38.2669 36.6154 37.8863 37.0313C37.5985 37.3455 37.5985 37.7429 37.6542 38.0201C37.747 38.5469 38.1091 39.0552 38.5453 39.2863C39.1208 39.5913 39.9377 39.4711 40.4018 38.9998C40.8659 38.5377 40.9773 37.7244 40.671 37.1422C40.3647 36.5784 39.8913 36.4121 39.5478 36.3658C39.4736 36.3658 39.4086 36.3658 39.3436 36.3658Z" fill="#110F0F"/>
<path d="M28.4092 35.4878C29.2446 35.9315 30.3678 35.7559 31.0268 35.0904C31.6952 34.4158 31.853 33.3068 31.3981 32.475C30.5813 30.9778 28.6227 31.0702 27.5738 32.2347C26.692 33.2143 27.3046 34.9056 28.4092 35.4878Z" fill="white"/>
<path d="M29.4302 36.3751C28.9754 36.3751 28.5206 36.2735 28.1121 36.0517C27.3139 35.6358 26.7198 34.804 26.5527 33.8706C26.4135 33.085 26.5991 32.3457 27.1004 31.8004C27.7965 31.0241 28.8547 30.6082 29.8665 30.7283C30.7854 30.83 31.528 31.3475 31.9829 32.1608C32.5676 33.2421 32.3727 34.6561 31.5002 35.5341C30.9432 36.0794 30.1914 36.3751 29.4302 36.3751ZM29.5138 31.9945C28.9847 31.9945 28.437 32.244 28.0564 32.6599C27.7687 32.9741 27.7687 33.3715 27.8244 33.6488C27.9172 34.1756 28.2792 34.6839 28.7155 34.9149C29.3003 35.2199 30.1171 35.0997 30.5719 34.6284C31.0361 34.1663 31.1474 33.353 30.8319 32.7708C30.5255 32.207 30.0521 32.0407 29.7087 31.9945C29.6437 31.9945 29.5787 31.9945 29.5138 31.9945Z" fill="#110F0F"/>
<path d="M36.4198 28.0112C35.0924 32.6599 33.765 37.2993 32.447 41.948L36.4198 28.0112Z" fill="white"/>
<path d="M32.4471 42.5949C32.3914 42.5949 32.3264 42.5856 32.2707 42.5672C31.9272 42.4747 31.7323 42.1143 31.8251 41.7724L35.798 27.8356C35.9001 27.4937 36.2528 27.2996 36.5962 27.392C36.9397 27.4844 37.1346 27.8448 37.0418 28.1868L33.069 42.1235C32.9854 42.41 32.7255 42.5949 32.4471 42.5949Z" fill="#110F0F"/>
<path d="M30.5164 56.0327C27.7039 56.0327 24.9842 54.4431 23.7125 51.7629C22.1624 48.4913 20.5287 45.1642 18.9507 41.9481C16.8993 37.7615 14.7737 33.427 12.7966 29.1573C11.8405 27.1056 11.8962 24.675 12.9451 22.6603C14.1054 20.4422 15.1543 18.2426 16.1753 16.117C17.6233 13.0857 19.1271 9.95268 20.9835 6.66257C21.1135 6.42228 21.3827 6.2929 21.6611 6.33911C22.905 6.55167 24.1952 6.76423 25.5133 6.9768C29.681 7.65145 33.9787 8.35384 37.9794 9.43514C40.1978 10.0359 41.9893 11.5885 42.899 13.7049C44.8854 18.3443 46.9089 23.0207 48.9232 27.6878C50.464 31.2552 52.0049 34.8226 53.5365 38.3715C55.133 42.0774 53.4251 46.4396 49.7307 48.0939C47.0203 49.3046 44.3099 50.5245 41.6088 51.7445C38.9262 52.9551 36.2436 54.1658 33.5425 55.3765C32.5678 55.8294 31.5375 56.0327 30.5164 56.0327ZM21.8932 7.70691C20.1667 10.8122 18.7372 13.7973 17.3542 16.69C16.3331 18.8249 15.2749 21.0245 14.1054 23.2702C13.2421 24.9338 13.1864 26.9393 13.9754 28.6305C15.9525 32.8818 18.0689 37.207 20.1203 41.3935C21.6983 44.619 23.3319 47.946 24.8821 51.2177C26.3116 54.2305 29.9595 55.5798 33.0134 54.212C35.7052 53.0106 38.3878 51.7999 41.0704 50.5892C43.7715 49.3693 46.4819 48.1494 49.2017 46.9294C52.2555 45.5616 53.6664 41.9573 52.3484 38.889C50.8168 35.3401 49.2759 31.7728 47.7351 28.2054C45.7115 23.529 43.6973 18.8619 41.7016 14.2132C40.9497 12.4665 39.4738 11.1819 37.6359 10.6828C33.7095 9.62922 29.4304 8.93607 25.2998 8.27066C24.1395 8.07658 22.9978 7.89174 21.8932 7.70691Z" fill="#110F0F"/>
<path d="M26.9703 20.3405C25.513 20.3405 24.0556 19.6566 23.2295 18.4736C22.2363 17.0504 22.2085 15.2575 23.1645 13.6863C24.2227 11.9396 26.1998 10.9138 28.0842 11.1541C30.0891 11.4036 31.7135 13.4553 31.6485 15.6549C31.5836 17.6234 30.2748 19.444 28.4647 20.091C27.982 20.2573 27.4715 20.3405 26.9703 20.3405ZM24.2877 17.7435C25.0674 18.8526 26.7011 19.3516 28.0192 18.8803C29.3187 18.4089 30.3026 17.0411 30.349 15.6087C30.3954 14.0837 29.263 12.5958 27.9264 12.4294C26.5433 12.2631 25.0674 13.0302 24.2691 14.3518C23.5822 15.4978 23.5822 16.7362 24.2877 17.7435Z" fill="#110F0F"/>
<path d="M26.6643 16.0984C26.4322 16.0984 26.2094 15.9783 26.0981 15.7657C24.223 12.337 22.283 8.79736 19.3034 6.20963C17.9297 5.00819 16.6673 4.38898 15.4606 4.29656C14.2167 4.20414 12.713 4.86956 12.3696 6.13569C11.9797 7.5497 13.1678 9.06537 14.5138 9.93411C15.08 10.2945 15.6369 10.5533 16.1753 10.7936C17.0478 11.191 17.9575 11.5976 18.8208 12.4571C19.0714 12.7067 19.0714 13.1133 18.8208 13.3628C18.5701 13.6124 18.1617 13.6124 17.9111 13.3628C17.2056 12.6697 16.4816 12.3462 15.6462 11.9673C15.0614 11.7085 14.4674 11.4313 13.8176 11.0154C12.2025 9.97107 10.5224 7.98407 11.1257 5.79375C11.6641 3.81598 13.8083 2.88255 15.5534 3.01194C17.0571 3.12284 18.5609 3.85295 20.1574 5.23923C23.3041 7.98407 25.3926 11.7917 27.2305 15.1558C27.3976 15.47 27.2862 15.8581 26.9706 16.0245C26.8778 16.08 26.7757 16.0984 26.6643 16.0984Z" fill="#110F0F"/>
<path d="M30.1639 49.8683C29.8483 49.8683 29.5234 49.8129 29.2171 49.702C28.5116 49.4524 27.9454 48.9349 27.6205 48.251L20.0276 32.0223C19.3778 30.6452 19.9812 28.9817 21.355 28.3255L36.8471 20.9413C37.5247 20.6178 38.2951 20.5808 39.0006 20.8304C39.706 21.0799 40.2723 21.5974 40.5971 22.2813L48.1993 38.5101C48.8491 39.8871 48.2457 41.5506 46.872 42.2068L31.3798 49.5911C30.99 49.7759 30.5816 49.8683 30.1639 49.8683ZM38.0631 21.9486C37.8403 21.9486 37.6175 21.9948 37.4133 22.0965L21.9212 29.4808C21.1786 29.8319 20.8537 30.7284 21.2065 31.4678L28.8086 47.6965C28.9757 48.0662 29.282 48.3434 29.6719 48.4728C30.0525 48.6114 30.4702 48.593 30.8322 48.4174L46.3243 41.0331C47.0669 40.6819 47.3918 39.7854 47.039 39.0461L39.4369 22.8174C39.2698 22.4477 38.9635 22.1704 38.5829 22.041C38.4065 21.9856 38.2302 21.9486 38.0631 21.9486Z" fill="#110F0F"/>
<g opacity="0.1">
<path d="M46.5839 41.6246L38.2855 45.5801L31.0918 49.0089C30.0058 49.5264 28.7155 49.0643 28.205 47.983L27.4438 46.3657C27.8894 46.0607 28.3257 45.728 28.7526 45.3953C33.0411 42.0035 36.3734 37.2902 37.5708 31.9668C38.0721 29.7488 38.1742 27.4383 37.8771 25.1833C37.71 23.9449 37.2738 22.7989 36.8561 21.6529L37.116 21.5235C38.202 21.006 39.4922 21.4681 40.0028 22.5494L47.605 38.7781C48.1155 39.8502 47.6607 41.1163 46.5839 41.6246Z" fill="#110F0F"/>
</g>
<path d="M11.3022 44.3786C11.0144 44.3786 10.7731 44.1476 10.7638 43.8611C10.7267 42.2807 10.671 40.839 10.6245 39.3972C10.5781 37.9555 10.5317 36.5138 10.4853 34.9334C10.476 34.6377 10.7081 34.3881 11.0144 34.3789C11.0144 34.3789 11.0237 34.3789 11.033 34.3789C11.3207 34.3789 11.5621 34.61 11.5713 34.8965C11.6085 36.4768 11.6642 37.9185 11.7106 39.3603C11.757 40.802 11.8034 42.2437 11.8498 43.8241C11.8591 44.1198 11.627 44.3694 11.3207 44.3786C11.3114 44.3786 11.3022 44.3786 11.3022 44.3786Z" fill="white"/>
<path d="M11.3855 48.0661C11.0884 48.0661 10.8471 47.8259 10.8471 47.5301V46.9109C10.8471 46.6152 11.0884 46.3749 11.3855 46.3749C11.6825 46.3749 11.9239 46.6152 11.9239 46.9109V47.5301C11.9239 47.8259 11.6825 48.0661 11.3855 48.0661Z" fill="white"/>
</g>
</svg>
