<svg width="60" height="60" viewBox="0 0 60 60" fill="none" xmlns="http://www.w3.org/2000/svg">
<mask id="mask0_1151_18459" style="mask-type:alpha" maskUnits="userSpaceOnUse" x="0" y="0" width="60" height="60">
<rect width="60" height="60" fill="#D9D9D9"/>
</mask>
<g mask="url(#mask0_1151_18459)">
<path d="M54.4906 20.2889C56.3908 19.7893 58.3359 20.9474 58.8306 22.8662C59.3254 24.7849 58.1785 26.7491 56.2783 27.2486L47.0248 29.701C45.4732 30.1097 43.8878 29.4058 43.0895 28.0888L40.1774 23.2635L37.6926 30.8818C37.8949 31.0294 38.0861 31.1997 38.266 31.3927L45.8779 39.7944C46.4851 40.3507 46.9124 41.1341 47.0248 42.031L48.7451 55.9505C48.9812 57.926 47.587 59.7312 45.6306 59.9697C43.6742 60.2081 41.8864 58.8003 41.6503 56.8247L40.065 44.0292L35.1627 38.6249L29.0012 57.5173C28.3828 59.4134 26.3702 60.4352 24.4925 59.8107C22.6148 59.1863 21.6029 57.154 22.2213 55.2579L33.9147 19.4033L29.1474 20.3116L26.0779 25.591C25.0884 27.3054 22.8959 27.8731 21.2093 26.874C19.5116 25.8749 18.9494 23.6723 19.9388 21.9579L23.8291 15.2593C24.3688 14.3283 25.2683 13.7265 26.2465 13.5449L36.2983 11.6488C36.5232 11.6034 36.7818 11.558 36.9617 11.4217C37.1978 11.2514 37.2653 10.9562 36.9954 10.5816C36.1522 9.46892 35.6462 8.08379 35.6462 6.57376C35.6462 2.94061 38.5583 3.27668e-05 42.1563 3.27668e-05C45.7318 -0.0113208 48.6551 2.92926 48.6551 6.56241C48.6551 9.75276 46.4064 12.4209 43.4156 13.0112C42.8646 13.3064 42.7634 13.7719 43.1008 14.2942L47.8006 22.0601L54.4906 20.2889Z" fill="#110F0F"/>
<path fill-rule="evenodd" clip-rule="evenodd" d="M27.9218 14.6916L26.5051 14.9641C25.8979 15.0776 25.3807 15.4409 25.0659 15.9859L21.1756 22.6845C20.5909 23.695 20.9282 25.012 21.9289 25.6024C22.9296 26.1928 24.2339 25.8522 24.8185 24.8417L28.2254 18.9832L36.051 17.5073L23.593 55.7121C23.2219 56.8361 23.8291 58.0509 24.9422 58.4256C26.0553 58.8003 27.2584 58.1872 27.6295 57.0632L34.5668 35.8092L41.4367 43.3934L43.0782 56.6544C43.2244 57.8352 44.2813 58.6754 45.4507 58.5278C46.6088 58.3802 47.452 57.3129 47.3059 56.1435L45.5856 42.224C45.5181 41.7131 45.282 41.2363 44.8997 40.8957L44.8547 40.8502L37.1866 32.3805C37.0854 32.2669 36.9729 32.1647 36.8493 32.0739L35.9723 31.4495L39.7726 19.812L44.3263 27.3281C44.8098 28.1342 45.7542 28.5202 46.665 28.2818L55.9185 25.8294C57.0429 25.5343 57.7287 24.3648 57.4364 23.2295C57.1441 22.0941 55.986 21.4015 54.8616 21.6967L47.126 23.7404C45.2595 20.6522 42.8646 16.8033 40.9982 13.7152C40.1549 12.6933 39.4915 12.5117 37.5576 12.8637L27.9218 14.6916Z" fill="#009FE3"/>
<path fill-rule="evenodd" clip-rule="evenodd" d="M42.145 1.2262C45.0571 1.2262 47.4295 3.6103 47.4295 6.56205C47.4295 9.50245 45.0683 11.8979 42.145 11.8979C39.2216 11.8979 36.8605 9.5138 36.8605 6.56205C36.8605 3.62166 39.2216 1.2262 42.145 1.2262Z" fill="#009FE3"/>
<path fill-rule="evenodd" clip-rule="evenodd" d="M16.9817 34.2084C15.7561 33.777 14.6318 33.6975 13.3387 33.8792C10.1231 34.3219 7.21094 36.4791 6.06409 39.238C4.74858 43.0415 3.42183 46.8449 2.10632 50.6484C1.74652 51.6702 2.33119 52.7375 3.3881 52.9532L14.1933 56.382C17.4089 46.9698 20.7146 36.6721 23.9303 27.26H21.8952L16.9817 34.2084Z" fill="#110F0F"/>
<path fill-rule="evenodd" clip-rule="evenodd" d="M7.41341 39.7603C6.0979 43.5411 4.79364 47.3332 3.46688 51.1253C3.39942 51.3069 3.46688 51.4659 3.65803 51.5113L3.73673 51.5226L13.2714 54.5427C15.8349 46.9926 18.2973 39.397 20.8271 31.8355C20.9283 31.5176 20.8046 31.2792 20.4898 31.7334L17.5327 35.9342L16.5095 35.5822C15.4976 35.2303 14.5869 35.1735 13.53 35.3211C11.0114 35.6617 8.43658 37.3534 7.41341 39.7603Z" fill="#EF7D00"/>
<path fill-rule="evenodd" clip-rule="evenodd" d="M14.1818 52.0334C15.6322 52.0334 16.8128 53.2255 16.8128 54.69C16.8128 56.1545 15.6322 57.3466 14.1818 57.3466C12.7314 57.3466 11.5508 56.1545 11.5508 54.69C11.5508 53.2255 12.7314 52.0334 14.1818 52.0334Z" fill="#110F0F"/>
<path fill-rule="evenodd" clip-rule="evenodd" d="M14.1821 53.01C15.1041 53.01 15.8462 53.7593 15.8462 54.6902C15.8462 55.6212 15.1041 56.3705 14.1821 56.3705C13.2601 56.3705 12.5181 55.6212 12.5181 54.6902C12.5181 53.7593 13.2601 53.01 14.1821 53.01Z" fill="#748FC9"/>
</g>
</svg>
