<svg width="72" height="50" viewBox="0 0 72 50" fill="none" xmlns="http://www.w3.org/2000/svg">
<path d="M6.67686 2.67695C6.49845 2.30313 6.05077 2.14473 5.67695 2.32314C5.30313 2.50155 5.14473 2.94923 5.32314 3.32305L6.67686 2.67695ZM27 47L26.3231 47.323L27.4219 49.6253L27.744 47.0947L27 47ZM48 19L48.1686 18.2692L48 19ZM49.5 29L49.9586 29.5935L49.9634 29.5897L49.5 29ZM40 18L40.7392 18.1267L40 18ZM70 14L69.7884 14.7195L71.2018 15.1352L70.7063 13.7477L70 14ZM69.7398 1.1233C69.8079 0.714722 69.5319 0.328301 69.1233 0.260205C68.7147 0.192108 68.3283 0.468123 68.2602 0.876701L69.7398 1.1233ZM56.3834 17.5731C56.1476 17.9136 56.2325 18.3809 56.5731 18.6166C56.9137 18.8524 57.3809 18.7675 57.6166 18.4269L56.3834 17.5731ZM5.32314 3.32305L26.3231 47.323L27.6769 46.677L6.67686 2.67695L5.32314 3.32305ZM27.744 47.0947C28.3254 42.5262 29.6639 34.7327 32.7582 28.5481C34.3039 25.4587 36.2584 22.8315 38.7177 21.1911C41.1506 19.5684 44.1278 18.8761 47.8314 19.7308L48.1686 18.2692C44.0722 17.3239 40.6702 18.0857 37.8854 19.9432C35.127 21.7831 33.0252 24.6621 31.4168 27.8769C28.2028 34.3006 26.8412 42.3071 26.256 46.9053L27.744 47.0947ZM47.8314 19.7308C49.3611 20.0838 50.9103 21.3219 51.4535 22.8973C51.7186 23.6664 51.7494 24.5257 51.416 25.4372C51.0797 26.3563 50.3558 27.3738 49.0366 28.4103L49.9634 29.5897C51.4442 28.4262 52.3703 27.1947 52.8247 25.9525C53.2819 24.7027 53.2439 23.4884 52.8715 22.4084C52.1397 20.2858 50.1389 18.7239 48.1686 18.2692L47.8314 19.7308ZM49.0414 28.4065C47.3511 29.7127 44.7211 30.3057 42.866 29.1725C41.0672 28.0736 39.5512 25.057 40.7392 18.1267L39.2608 17.8733C38.0488 24.943 39.4495 28.8431 42.084 30.4525C44.6623 32.0276 47.9823 31.1206 49.9586 29.5935L49.0414 28.4065ZM40.7392 18.1267C41.381 14.3829 44.3251 10.2455 49.1857 8.6501C54.0154 7.06479 60.9164 7.93985 69.5419 14.5938L70.4581 13.4062C61.5836 6.56016 54.1703 5.43523 48.7179 7.22491C43.2963 9.00447 39.9904 13.6171 39.2608 17.8733L40.7392 18.1267ZM70.7063 13.7477C69.9037 11.5005 68.7661 6.96573 69.7398 1.1233L68.2602 0.876701C67.2339 7.03427 68.4296 11.8329 69.2937 14.2522L70.7063 13.7477ZM70.2116 13.2805C68.6964 12.8348 66.2265 12.5218 63.6506 13.0001C61.0595 13.4812 58.3217 14.7733 56.3834 17.5731L57.6166 18.4269C59.2783 16.0267 61.6239 14.9021 63.9244 14.4749C66.2402 14.0449 68.4703 14.3318 69.7884 14.7195L70.2116 13.2805ZM0.370322 14.4074L11.3703 31.4074L12.6297 30.5926L1.62968 13.5926L0.370322 14.4074Z" fill="black"/>
</svg>
