<svg width="102" height="80" viewBox="0 0 102 80" fill="none" xmlns="http://www.w3.org/2000/svg">
<mask id="mask0_1341_8568" style="mask-type:alpha" maskUnits="userSpaceOnUse" x="64" y="21" width="38" height="38">
<rect x="64.7266" y="21.8182" width="36.3636" height="36.3636" fill="#D9D9D9"/>
</mask>
<g mask="url(#mask0_1341_8568)">
<path d="M93.0288 28.7059C93.0288 28.7059 97.2105 31.1537 94.8647 37.1713C92.4168 43.2909 85.2773 50.1244 85.2773 50.1244L93.0288 28.7059Z" fill="#FA6142"/>
<path d="M88.2394 24.2183C88.2394 24.2183 94.869 23.6063 94.257 31.9697C93.5431 40.3331 85.2816 50.1244 85.2816 50.1244H84.2617L88.2394 24.2183Z" fill="#F29D89"/>
<path d="M73.5523 26.2581C73.5523 26.2581 69.8806 27.1761 69.9826 33.6016C70.0845 40.0272 78.9579 50.1244 78.9579 50.1244L73.5523 26.2581Z" fill="#F29D89"/>
<path d="M78.9565 24.2183C78.9565 24.2183 75.2848 21.1585 72.531 26.3601C69.7772 31.6637 78.9565 50.1244 78.9565 50.1244H80.6904L78.9565 24.2183Z" fill="#FA6142"/>
<path d="M83.6489 22.9942C83.6489 22.9942 80.0792 18.9145 76.7134 25.952C73.3476 32.8875 80.7931 50.1243 80.7931 50.1243H82.629L83.6489 22.9942Z" fill="#F29D89"/>
<path d="M83.6488 22.9941C83.6488 22.9941 87.9325 19.5264 90.0744 26.1559C92.1142 32.7854 84.3628 50.0222 84.3628 50.0222H82.6289L83.6488 22.9941Z" fill="#FA6142"/>
<path d="M82.2209 58.1819C81.4049 58.1819 80.793 57.5699 80.793 56.754V55.3261H83.7508V56.754C83.7508 57.5699 83.0368 58.1819 82.2209 58.1819Z" fill="#FA6142"/>
<path d="M78.9531 50.1242C78.9531 50.4302 80.789 55.3259 80.789 55.3259" stroke="#353140" stroke-width="0.25" stroke-miterlimit="10"/>
<path d="M85.2799 50.1242L83.75 55.3258" stroke="#353140" stroke-width="0.25" stroke-miterlimit="10"/>
</g>
<mask id="mask1_1341_8568" style="mask-type:alpha" maskUnits="userSpaceOnUse" x="0" y="0" width="80" height="80">
<rect width="80" height="80" fill="#D9D9D9"/>
</mask>
<g mask="url(#mask1_1341_8568)">
<path d="M62.2563 15.153C62.2563 15.153 71.4561 20.5382 66.2952 33.7769C60.91 47.2399 45.2031 62.2736 45.2031 62.2736L62.2563 15.153Z" fill="#FA6142"/>
<path d="M51.708 5.28007C51.708 5.28007 66.293 3.93377 64.9467 22.3333C63.376 40.7328 45.2009 62.2736 45.2009 62.2736H42.957L51.708 5.28007Z" fill="#F29D89"/>
<path d="M19.3971 9.76782C19.3971 9.76782 11.3193 11.7873 11.5437 25.9235C11.768 40.0597 31.2895 62.2737 31.2895 62.2737L19.3971 9.76782Z" fill="#F29D89"/>
<path d="M31.2934 5.28013C31.2934 5.28013 23.2156 -1.45139 17.1572 9.9922C11.0989 21.6602 31.2934 62.2737 31.2934 62.2737H35.108L31.2934 5.28013Z" fill="#FA6142"/>
<path d="M41.6135 2.58729C41.6135 2.58729 33.7601 -6.38808 26.3554 9.09442C18.9507 24.3525 35.3308 62.2734 35.3308 62.2734H39.3697L41.6135 2.58729Z" fill="#F29D89"/>
<path d="M41.6149 2.58707C41.6149 2.58707 51.0391 -5.04199 55.7511 9.54298C60.2388 24.1279 43.1856 62.0488 43.1856 62.0488H39.3711L41.6149 2.58707Z" fill="#FA6142"/>
<path d="M38.4695 80.0002C36.6744 80.0002 35.3281 78.6539 35.3281 76.8588V73.7174H41.8353V76.8588C41.8353 78.6539 40.2646 80.0002 38.4695 80.0002Z" fill="#FA6142"/>
<path d="M31.2969 62.2733C31.2969 62.9464 35.3358 73.7169 35.3358 73.7169" stroke="#353140" stroke-width="0.25" stroke-miterlimit="10"/>
<path d="M45.2056 62.2733L41.8398 73.7169" stroke="#353140" stroke-width="0.25" stroke-miterlimit="10"/>
</g>
</svg>
