<svg width="36" height="36" viewBox="0 0 36 36" fill="none" xmlns="http://www.w3.org/2000/svg">
<path d="M28.121 20.9428V18.2893H28.5288C29.8194 18.2893 30.8674 17.2413 30.8674 15.9559C30.8674 14.6653 29.8194 13.6173 28.5288 13.6173H24.275V9.5958H29.6491C29.9382 9.5958 30.1653 9.36862 30.1653 9.07956C30.1656 9.0117 30.1524 8.94447 30.1265 8.88173C30.1006 8.819 30.0626 8.76199 30.0146 8.71401C29.9667 8.66603 29.9097 8.62801 29.8469 8.60215C29.7842 8.57629 29.7169 8.5631 29.6491 8.56333H25.5656C25.2972 4.61409 22.0087 1.48047 17.9872 1.48047C14.6368 1.48047 11.7149 3.62802 10.7236 6.82872C10.4294 7.77864 10.8372 8.79557 11.7148 9.30154V13.6173H7.461C7.15369 13.6166 6.84927 13.6766 6.56522 13.7939C6.28117 13.9112 6.02309 14.0834 5.80579 14.3007C5.58849 14.518 5.41626 14.7761 5.29898 15.0601C5.18171 15.3442 5.1217 15.6486 5.1224 15.9559C5.1224 17.2414 6.17034 18.2893 7.461 18.2893H7.86888V20.9428C5.12247 22.3108 3.36206 25.1244 3.36206 28.2167V31.6807C3.36206 33.2448 4.63718 34.52 6.20142 34.52H29.7989C31.3631 34.52 32.6382 33.2449 32.6382 31.6807V28.2167C32.6381 25.1244 30.8726 22.3108 28.121 20.9428ZM12.7473 9.5958H23.2425V13.8135C23.2425 15.2434 21.7351 17.2413 19.1023 19.296C18.7866 19.5443 18.3966 19.6793 17.9949 19.6793C17.5933 19.6793 17.2033 19.5443 16.8876 19.296C16.2681 18.8159 15.4886 18.1551 14.7658 17.4117L14.7606 17.4065C13.6817 16.2914 12.7473 14.9905 12.7473 13.8135V9.5958ZM20.0315 19.8794V21.4487C20.0315 22.5742 19.1177 23.4879 17.9975 23.4879C16.8462 23.4879 15.9583 22.5535 15.9583 21.4487V19.8742C17.3986 21.0306 18.6996 20.948 20.0315 19.8794ZM9.39691 33.4875H6.20135C5.20502 33.4875 4.39453 32.677 4.39453 31.6807V28.2167C4.39453 25.2121 6.32011 22.3883 9.39691 21.4384V33.4875ZM25.5604 33.4875H10.4294V21.2061C10.7753 21.1545 11.1315 21.1183 11.4929 21.1183H14.9259V21.4487C14.9259 23.1213 16.2733 24.5204 17.9975 24.5204C19.6908 24.5204 21.064 23.142 21.064 21.4487V21.1183H24.5021C24.8636 21.1183 25.2146 21.1545 25.5604 21.2061V33.4875ZM31.6056 31.6807C31.6056 32.677 30.7951 33.4875 29.7988 33.4875H26.5929V21.4384C29.6388 22.378 31.6056 25.1709 31.6056 28.2167V31.6807Z" fill="#1768E2"/>
</svg>
