<svg width="36" height="36" viewBox="0 0 36 36" fill="none" xmlns="http://www.w3.org/2000/svg">
<g clip-path="url(#clip0_1151_11634)">
<path d="M21.375 4.5H4.125C1.845 4.5 0 6.345 0 8.625V27.375C0 29.655 1.845 31.5 4.125 31.5H15.195L15.525 29.655C15.6765 28.815 16.065 28.065 16.6665 27.45L18.6165 25.5H5.625C5.01 25.5 4.5 24.99 4.5 24.375C4.5 23.76 5.01 23.25 5.625 23.25H19.875C20.145 23.25 20.4 23.355 20.595 23.52L25.5 18.63V8.625C25.5 6.345 23.655 4.5 21.375 4.5ZM19.875 20.625H5.625C5.01 20.625 4.5 20.115 4.5 19.5C4.5 18.885 5.01 18.375 5.625 18.375H19.875C20.49 18.375 21 18.885 21 19.5C21 20.115 20.49 20.625 19.875 20.625ZM19.875 15.75H5.625C5.01 15.75 4.5 15.24 4.5 14.625C4.5 14.01 5.01 13.5 5.625 13.5H19.875C20.49 13.5 21 14.01 21 14.625C21 15.24 20.49 15.75 19.875 15.75Z" fill="#2196F3"/>
<path d="M18.375 3H16.725C16.23 1.275 14.64 0 12.75 0C10.86 0 9.27 1.275 8.775 3H7.125C6.51 3 6 3.51 6 4.125V7.125C6 8.565 7.185 9.75 8.625 9.75H16.875C18.315 9.75 19.5 8.565 19.5 7.125V4.125C19.5 3.51 18.99 3 18.375 3Z" fill="#1976D2"/>
<path d="M21 14.625C21 15.24 20.49 15.75 19.875 15.75H5.625C5.01 15.75 4.5 15.24 4.5 14.625C4.5 14.01 5.01 13.5 5.625 13.5H19.875C20.49 13.5 21 14.01 21 14.625ZM21 19.5C21 20.115 20.49 20.625 19.875 20.625H5.625C5.01 20.625 4.5 20.115 4.5 19.5C4.5 18.885 5.01 18.375 5.625 18.375H19.875C20.49 18.375 21 18.885 21 19.5ZM20.595 23.52L18.615 25.5H5.625C5.01 25.5 4.5 24.99 4.5 24.375C4.5 23.76 5.01 23.25 5.625 23.25H19.875C20.145 23.25 20.4 23.355 20.595 23.52Z" fill="white"/>
<path d="M6 4.5H4.125C1.845 4.5 0 6.345 0 8.625V27.375C0 29.655 1.845 31.5 4.125 31.5H12.75V25.5H5.625C5.01 25.5 4.5 24.99 4.5 24.375C4.5 23.76 5.01 23.25 5.625 23.25H12.75V20.625H5.625C5.01 20.625 4.5 20.115 4.5 19.5C4.5 18.885 5.01 18.375 5.625 18.375H12.75V15.75H5.625C5.01 15.75 4.5 15.24 4.5 14.625C4.5 14.01 5.01 13.5 5.625 13.5H12.75V9.75H8.625C7.185 9.75 6 8.565 6 7.125V4.5Z" fill="#1D83D4"/>
<path d="M12.75 0C10.86 0 9.27 1.275 8.775 3H7.125C6.51 3 6 3.51 6 4.125V7.125C6 8.565 7.185 9.75 8.625 9.75H12.75V0Z" fill="#1667B7"/>
<path d="M12.75 13.5H5.625C5.01 13.5 4.5 14.01 4.5 14.625C4.5 15.24 5.01 15.75 5.625 15.75H12.75V13.5ZM12.75 18.375H5.625C5.01 18.375 4.5 18.885 4.5 19.5C4.5 20.115 5.01 20.625 5.625 20.625H12.75V18.375ZM12.75 23.25H5.625C5.01 23.25 4.5 23.76 4.5 24.375C4.5 24.99 5.01 25.5 5.625 25.5H12.75V23.25Z" fill="#DEDEDE"/>
<path d="M18.7905 36.0001C18.626 36.0005 18.4635 35.9648 18.3143 35.8954C18.1652 35.826 18.0331 35.7247 17.9275 35.5986C17.8219 35.4725 17.7453 35.3247 17.7031 35.1658C17.661 35.0068 17.6543 34.8405 17.6835 34.6786L18.4785 30.1711C18.5184 29.9442 18.6274 29.7352 18.7905 29.5726L29.928 18.4351C31.296 17.0656 32.64 17.4346 33.375 18.1696L35.2305 20.0251C35.4743 20.2689 35.6677 20.5583 35.7996 20.8768C35.9315 21.1952 35.9994 21.5366 35.9994 21.8814C35.9994 22.2261 35.9315 22.5675 35.7996 22.886C35.6677 23.2045 35.4743 23.4938 35.2305 23.7376L24.093 34.8751C23.9301 35.039 23.7205 35.1485 23.493 35.1886L18.9855 35.9821L18.7905 36.0001Z" fill="#FFC107"/>
<path d="M31.1202 16.9412C30.5322 16.9412 29.8707 17.1962 29.2032 17.8637L18.0657 29.0012C17.9026 29.1638 17.7936 29.3728 17.7537 29.5997L16.9587 34.1072C16.9268 34.2853 16.9386 34.4686 16.9929 34.6412C17.0473 34.8139 17.1426 34.9708 17.2707 35.0987L17.3052 35.1317L33.7437 18.6917L32.6487 17.5967C32.246 17.1844 31.6964 16.9487 31.1202 16.9412Z" fill="#DEA806"/>
</g>
<defs>
<clipPath id="clip0_1151_11634">
<rect width="36" height="36" fill="white"/>
</clipPath>
</defs>
</svg>
