<svg width="22" height="22" viewBox="0 0 22 22" fill="none" xmlns="http://www.w3.org/2000/svg">
<path fill-rule="evenodd" clip-rule="evenodd" d="M2.7006 4.22694L8.64404 10.173C9.94032 11.4667 12.0593 11.4679 13.3566 10.173L19.3001 4.22694C19.3141 4.21297 19.3249 4.19607 19.3317 4.17746C19.3385 4.15884 19.3411 4.13896 19.3394 4.11922C19.3377 4.09948 19.3316 4.08037 19.3216 4.06324C19.3117 4.0461 19.2981 4.03137 19.2818 4.02009C18.6756 3.59732 17.938 3.34668 17.1435 3.34668H4.8572C4.06267 3.34668 3.32511 3.59736 2.71891 4.02009C2.70262 4.03137 2.68901 4.0461 2.67905 4.06324C2.66909 4.08037 2.66302 4.09948 2.66128 4.11922C2.65953 4.13896 2.66215 4.15884 2.66894 4.17746C2.67574 4.19607 2.68655 4.21297 2.7006 4.22694ZM1.11231 7.09154C1.11182 6.48738 1.25865 5.89223 1.54006 5.35762C1.54988 5.33877 1.56402 5.32251 1.58131 5.31015C1.5986 5.29779 1.61856 5.28969 1.63958 5.2865C1.66059 5.28331 1.68206 5.28512 1.70224 5.29179C1.72242 5.29846 1.74074 5.30979 1.75572 5.32488L7.62392 11.1931C9.48219 13.0541 12.5174 13.0551 14.3768 11.1931L20.245 5.32488C20.26 5.30979 20.2783 5.29846 20.2985 5.29179C20.3187 5.28512 20.3401 5.28331 20.3611 5.2865C20.3822 5.28969 20.4021 5.29779 20.4194 5.31015C20.4367 5.32251 20.4508 5.33877 20.4607 5.35762C20.7421 5.89223 20.8889 6.48739 20.8884 7.09154V14.9091C20.8884 16.9756 19.2074 18.654 17.1435 18.654H4.8572C2.79333 18.654 1.11231 16.9756 1.11231 14.9091V7.09154Z" fill="#86E54A"/>
</svg>
