<svg width="50" height="50" viewBox="0 0 50 50" fill="none" xmlns="http://www.w3.org/2000/svg">
<path d="M14.9236 48.3396C14.5915 48.3396 14.2538 48.2632 13.9368 48.1019C8.73866 45.4764 3.87828 40.6981 1.84243 36.2122C1.39904 35.2387 1.7547 34.066 2.66602 33.484C15.3698 25.3877 25.65 15.033 33.2207 2.70754C33.5039 2.23849 33.9543 1.89419 34.4813 1.74399C35.0082 1.59379 35.5724 1.64886 36.0604 1.8981C41.2585 4.52452 46.1189 9.30282 48.1556 13.7887C48.599 14.7623 48.2443 15.9349 47.3311 16.516C34.6273 24.6132 24.3481 34.9679 16.7764 47.2934C16.5834 47.6122 16.3116 47.876 15.987 48.0592C15.6625 48.2425 15.2963 48.339 14.9236 48.3396ZM35.0792 3.07829C34.9477 3.0787 34.8185 3.11293 34.704 3.17769C34.5895 3.24245 34.4936 3.33557 34.4255 3.4481C26.7424 15.9575 16.3132 26.4651 3.42734 34.6773C3.27248 34.7741 3.15737 34.9231 3.10286 35.0973C3.04834 35.2716 3.05803 35.4596 3.13017 35.6273C5.04432 39.8415 9.64338 44.3472 14.5736 46.8387C14.7451 46.9266 14.9437 46.946 15.1291 46.8929C15.3145 46.8399 15.4727 46.7183 15.5717 46.5528C23.2556 34.0434 33.6849 23.5358 46.5698 15.3226C46.7247 15.2264 46.8399 15.0778 46.8946 14.9038C46.9493 14.7299 46.9398 14.5421 46.8679 14.3745C44.9519 10.1594 40.3547 5.65282 35.4236 3.16037C35.3169 3.10611 35.1989 3.07861 35.0792 3.07829Z" fill="#110F0F"/>
<path d="M43.2539 25.233L40.436 27.0736C40.3795 27.1118 40.3318 27.1616 40.296 27.2197C40.2603 27.2778 40.2373 27.3428 40.2286 27.4105C40.22 27.4781 40.2258 27.5468 40.2458 27.6121C40.2658 27.6773 40.2994 27.7375 40.3445 27.7887L42.602 30.2811C42.8945 30.6113 42.6266 31.1245 42.1945 31.0726L33.3379 29.9245L33.4086 29.1755C33.4392 28.8728 33.5628 28.5871 33.7624 28.3576L35.1049 26.8547C35.5219 26.3934 35.5926 25.7123 35.2662 25.1736L34.2539 23.4311C34.2124 23.3642 34.1851 23.2962 34.1577 23.2292L43.0539 24.3774C43.486 24.4292 43.6237 24.9953 43.253 25.233H43.2539Z" fill="#FF6F5C"/>
<path d="M42.2539 31.783C42.2067 31.783 42.1586 31.7811 42.1095 31.7755L33.2473 30.6264C33.0653 30.6028 32.8996 30.5094 32.7852 30.3659C32.6708 30.2225 32.6166 30.0402 32.6341 29.8576L32.7048 29.1085C32.7539 28.6491 32.935 28.2311 33.2303 27.8925L34.5775 26.383C34.6811 26.2708 34.7455 26.128 34.7608 25.976C34.7761 25.824 34.7415 25.6712 34.6624 25.5406L33.6435 23.7859C33.59 23.6947 33.544 23.5995 33.5058 23.501C33.4586 23.3863 33.4422 23.2613 33.4583 23.1383C33.4743 23.0154 33.5222 22.8987 33.5973 22.8C33.6718 22.7009 33.7714 22.6234 33.8858 22.5755C34.0002 22.5276 34.1253 22.511 34.2482 22.5274L43.1444 23.6755C43.6378 23.7349 44.0331 24.0906 44.1454 24.5811C44.2007 24.8155 44.1818 25.0613 44.0912 25.2844C44.0006 25.5076 43.8428 25.697 43.6397 25.8264L41.0529 27.5151L43.1265 29.8076C43.4614 30.1859 43.5256 30.7113 43.2944 31.151C43.0878 31.5462 42.6888 31.783 42.2539 31.783ZM34.1067 29.3104L41.6539 30.2887L39.8209 28.2632C39.7075 28.1369 39.6225 27.9877 39.5717 27.8257C39.5209 27.6637 39.5054 27.4927 39.5264 27.3242C39.5473 27.1558 39.6041 26.9938 39.693 26.8491C39.7819 26.7045 39.9008 26.5806 40.0416 26.4859L42.3227 24.9962L35.468 24.1123L35.8784 24.8179C36.1141 25.207 36.2175 25.662 36.1729 26.1147C36.1284 26.5675 35.9383 26.9936 35.6312 27.3293L34.2916 28.8293C34.1904 28.9479 34.1281 29.0948 34.1133 29.25L34.1067 29.3104Z" fill="#110F0F"/>
<path d="M29.9396 32.9208L31.2217 42.1434C31.2783 42.5745 30.766 42.8472 30.4339 42.5585L27.9217 40.3227C27.8701 40.2781 27.8095 40.245 27.7441 40.2256C27.6788 40.2063 27.61 40.2011 27.5424 40.2103C27.4749 40.2196 27.41 40.2432 27.3523 40.2795C27.2945 40.3158 27.2452 40.3639 27.2075 40.4208L25.3915 43.2557C25.1641 43.6208 24.5896 43.4953 24.5339 43.0632L23.3358 34.3538L23.6254 34.2915C23.9215 34.224 24.2314 34.2534 24.5094 34.3755L26.3547 35.183C26.6328 35.3058 26.9429 35.3367 27.2398 35.2712C27.5367 35.2058 27.805 35.0473 28.0056 34.8189L29.3481 33.3151C29.5085 33.1387 29.7103 33.0038 29.9396 32.9208Z" fill="#FF6F5C"/>
<path d="M25.008 44.1783C24.9231 44.1783 24.8363 44.1688 24.7505 44.15C24.5127 44.1007 24.2964 43.9784 24.1316 43.8001C23.9669 43.6218 23.862 43.3965 23.8316 43.1556L22.6335 34.45C22.6093 34.2731 22.6528 34.0937 22.7553 33.9476C22.8579 33.8016 23.0118 33.6996 23.1863 33.6622L23.4769 33.6C23.9189 33.4999 24.3815 33.5452 24.7957 33.7292L26.6373 34.5349C26.7778 34.5969 26.9343 34.6128 27.0844 34.58C27.2345 34.5473 27.3703 34.4677 27.4722 34.3528L28.8193 32.8434C29.0646 32.5754 29.3684 32.3736 29.7024 32.2547C29.8013 32.2193 29.907 32.2065 30.0116 32.2171C30.1161 32.2277 30.217 32.2615 30.3069 32.3159C30.3968 32.3704 30.4735 32.4443 30.5313 32.5321C30.589 32.6199 30.6265 32.7194 30.641 32.8236L31.9222 42.0462C31.9552 42.2842 31.9143 42.5266 31.805 42.7406C31.6956 42.9546 31.5231 43.1298 31.3108 43.2424C31.0988 43.3577 30.8564 43.4052 30.6165 43.3784C30.3766 43.3515 30.1507 43.2517 29.9693 43.0924L27.6552 41.0339L25.9873 43.6377C25.8837 43.8039 25.7394 43.9408 25.568 44.0354C25.3966 44.13 25.2038 44.1792 25.008 44.1783ZM24.7929 42.8764C24.7929 42.8783 24.791 42.8802 24.7901 42.8811L24.7929 42.8764ZM24.1363 34.9915L25.1457 42.3264L26.6108 40.0387C26.7036 39.8966 26.8256 39.7761 26.9688 39.6851C27.1119 39.5941 27.2729 39.5347 27.4409 39.5111C27.6089 39.4874 27.78 39.4999 27.9427 39.5478C28.1054 39.5957 28.256 39.6778 28.3844 39.7886L30.4325 41.6103L29.4174 34.299L28.5325 35.2896C28.231 35.6288 27.8297 35.8638 27.3863 35.9608C26.9429 36.0577 26.4802 36.0117 26.0646 35.8292L24.225 35.0236C24.1962 35.0107 24.1666 35 24.1363 34.9915Z" fill="#110F0F"/>
<path d="M34.2678 20.5623L34.0678 22.5651C34.0376 22.867 34.1046 23.1708 34.2565 23.433L35.2744 25.1736C35.5886 25.7123 35.5207 26.3925 35.1056 26.8575L33.7659 28.3594C33.5641 28.5859 33.4395 28.8717 33.4093 29.1745L33.2093 31.1774C33.1793 31.4797 33.0543 31.7647 32.8523 31.9917C32.6503 32.2186 32.3816 32.3757 32.0848 32.4406L30.115 32.8708C29.8184 32.9358 29.5499 33.093 29.348 33.3198L28.0075 34.8236C27.8053 35.0502 27.5367 35.2071 27.24 35.2718C26.9433 35.3365 26.6337 35.3058 26.3556 35.184L24.5131 34.3774C24.2352 34.2554 23.9258 34.2243 23.6292 34.2887L21.6622 34.717C21.3656 34.7816 21.0561 34.7508 20.7781 34.6289C20.5001 34.5071 20.2676 34.3005 20.1141 34.0387L19.0942 32.2991C18.9409 32.0372 18.7088 31.8305 18.431 31.7085L16.5858 30.9C16.3072 30.7777 16.0745 30.5704 15.9212 30.3077C15.7678 30.045 15.7015 29.7404 15.732 29.4377L15.9339 27.434C15.9643 27.1305 15.8976 26.8253 15.7433 26.5623L14.7273 24.8274C14.5732 24.5648 14.5063 24.2602 14.5363 23.9573C14.5663 23.6543 14.6916 23.3687 14.8942 23.1415L16.2329 21.6406C16.4348 21.4142 16.5603 21.1292 16.5905 20.8264L16.7924 18.8189C16.823 18.5168 16.9483 18.2322 17.1505 18.0056C17.3526 17.7791 17.6212 17.6223 17.9178 17.5575L19.8839 17.1292C20.1801 17.0642 20.4499 16.9075 20.6518 16.6802L21.9914 15.1774C22.1936 14.9507 22.4622 14.7939 22.7589 14.7291C23.0556 14.6644 23.3651 14.6952 23.6433 14.817L25.4867 15.6236C25.7641 15.7462 26.0735 15.7764 26.3697 15.7123L28.3433 15.283C28.6402 15.2187 28.9499 15.2499 29.2279 15.3723C29.506 15.4946 29.7382 15.7018 29.8914 15.9642L30.9046 17.7C31.0584 17.9632 31.2914 18.1698 31.5697 18.2925L33.4141 19.1009C33.9848 19.3519 34.3292 19.9415 34.2678 20.5623Z" fill="white"/>
<path d="M26.9331 36.0132C26.6416 36.0132 26.3482 35.9538 26.0699 35.8321L24.2274 35.0245C24.0861 34.9616 23.9283 34.946 23.7774 34.9802L21.8104 35.4085C21.3681 35.505 20.9065 35.459 20.4918 35.2772C20.0772 35.0953 19.7307 34.787 19.5019 34.3962L18.4821 32.6566C18.4043 32.5233 18.286 32.4182 18.1444 32.3566L16.3001 31.5481C15.8844 31.3662 15.5372 31.0571 15.3084 30.6653C15.0795 30.2736 14.9808 29.8193 15.0265 29.3679L15.2284 27.3632C15.2443 27.2088 15.2102 27.0534 15.1312 26.9198L14.1142 25.1849C13.8837 24.7935 13.7838 24.3388 13.8289 23.8868C13.8741 23.4348 14.0619 23.0089 14.3651 22.6708L15.7038 21.1698C15.8068 21.0542 15.8702 20.9088 15.885 20.7547L16.0868 18.7472C16.1812 17.8198 16.8548 17.0632 17.7661 16.8651L19.7312 16.4368C19.8824 16.4037 20.0194 16.3238 20.1227 16.2085L21.4623 14.7057C21.7633 14.3675 22.1637 14.1333 22.6061 14.0367C23.0484 13.9401 23.51 13.986 23.9246 14.1679L25.7689 14.9745C25.9095 15.0359 26.0708 15.0528 26.2161 15.0198L28.1906 14.5906C28.6336 14.4936 29.0958 14.5398 29.5109 14.7224C29.9259 14.905 30.2722 15.2146 30.5001 15.6066L31.5133 17.3425C31.5914 17.4763 31.71 17.582 31.8519 17.6443L33.6963 18.4519C34.112 18.6334 34.4594 18.9423 34.6883 19.3339C34.9172 19.7256 35.0158 20.1798 34.9699 20.6311L34.7708 22.634C34.7546 22.7883 34.7883 22.9437 34.867 23.0774L35.8831 24.816C36.1128 25.2074 36.2123 25.6616 36.1672 26.1131C36.1221 26.5646 35.9347 26.9902 35.6321 27.3283L34.2925 28.8292C34.1899 28.9451 34.1262 29.0903 34.1104 29.2443L33.9104 31.2472C33.8663 31.6982 33.6802 32.1235 33.3789 32.4621C33.0777 32.8006 32.6768 33.0349 32.234 33.1311L30.2642 33.5623C30.1137 33.5948 29.9774 33.6741 29.8746 33.7887L28.5331 35.2934C28.3322 35.5194 28.0858 35.7003 27.8101 35.8242C27.5343 35.9481 27.2354 36.0131 26.9331 36.0132ZM23.9359 33.5481C24.2284 33.5481 24.5208 33.6085 24.7944 33.7283L26.6368 34.5359C26.7784 34.5978 26.9358 34.6135 27.0868 34.5806C27.2378 34.5477 27.3745 34.468 27.4774 34.3528L28.818 32.8491C29.1188 32.5097 29.52 32.275 29.9633 32.1792L31.9321 31.7491C32.083 31.7164 32.2195 31.6367 32.3221 31.5214C32.4247 31.4061 32.488 31.2612 32.5029 31.1075L32.7029 29.1047C32.7482 28.6491 32.9331 28.2283 33.2387 27.8877L34.5765 26.3877C34.6796 26.2722 34.7434 26.1269 34.7587 25.9728C34.7739 25.8187 34.7399 25.6637 34.6614 25.5302L33.6444 23.7906C33.4147 23.3992 33.3159 22.9448 33.3623 22.4934L33.5614 20.4925C33.5769 20.3387 33.5433 20.183 33.4653 20.0496C33.3873 19.9162 33.269 19.811 33.1274 19.7491L31.284 18.9406C30.8684 18.7591 30.5212 18.4502 30.2925 18.0585L29.2784 16.3208C29.1994 16.1883 29.081 16.0838 28.9398 16.0217C28.7986 15.9596 28.6416 15.9432 28.4906 15.9745L26.518 16.4038C26.084 16.4981 25.6123 16.4519 25.201 16.2717L23.3576 15.4651C23.2163 15.4029 23.0589 15.3871 22.908 15.42C22.7572 15.4529 22.6206 15.5328 22.518 15.6481L21.1784 17.1519C20.8772 17.4909 20.4762 17.7254 20.0331 17.8217L18.067 18.2491C17.916 18.2816 17.7792 18.3613 17.6763 18.4766C17.5734 18.5919 17.5097 18.7368 17.4944 18.8906L17.2925 20.8981C17.2472 21.3509 17.0633 21.7708 16.7604 22.1104L15.4208 23.6132C15.3178 23.7284 15.254 23.8733 15.2386 24.0271C15.2231 24.1808 15.2569 24.3355 15.335 24.4689L16.3538 26.2047C16.5831 26.5991 16.6821 27.0491 16.6359 27.5047L16.434 29.5085C16.4186 29.6625 16.4524 29.8174 16.5306 29.9509C16.6087 30.0845 16.7272 30.1898 16.8689 30.2519L18.7123 31.0604C19.1293 31.2434 19.4727 31.5481 19.7029 31.9396L20.7236 33.6811C20.8011 33.8147 20.9192 33.9201 21.0607 33.982C21.2022 34.044 21.3597 34.0592 21.5104 34.0255L23.4774 33.5972C23.6293 33.5642 23.7831 33.5481 23.9359 33.5481Z" fill="#110F0F"/>
<path d="M22.2915 21.3066L24.7943 22.1424L26.9028 20.5547C27.0222 20.465 27.1642 20.4104 27.3129 20.3972C27.4617 20.384 27.6111 20.4126 27.7445 20.4798C27.8778 20.547 27.9897 20.6501 28.0675 20.7775C28.1453 20.905 28.186 21.0516 28.1849 21.2009L28.1632 23.8396L30.3236 25.3537C30.446 25.4394 30.542 25.5576 30.6008 25.6949C30.6596 25.8323 30.6788 25.9834 30.6562 26.1311C30.6337 26.2788 30.5702 26.4172 30.4731 26.5307C30.376 26.6443 30.249 26.7284 30.1066 26.7735L27.5896 27.5679L26.817 30.0915C26.7731 30.2342 26.6903 30.3618 26.5778 30.46C26.4653 30.5581 26.3276 30.6229 26.1802 30.6469C26.0329 30.671 25.8817 30.6533 25.7438 30.596C25.606 30.5387 25.4869 30.444 25.4 30.3226L23.8669 28.1745L21.2283 28.2198C21.079 28.2222 20.9319 28.1829 20.8038 28.1062C20.6757 28.0295 20.5716 27.9185 20.5032 27.7857C20.4348 27.653 20.4049 27.5038 20.4168 27.3549C20.4287 27.2061 20.4821 27.0635 20.5707 26.9434L22.1396 24.8207L21.2811 22.3264C21.2327 22.1852 21.2247 22.0332 21.258 21.8877C21.2914 21.7422 21.3647 21.6089 21.4698 21.5029C21.5748 21.3968 21.7074 21.3222 21.8526 21.2876C21.9978 21.2529 22.1498 21.2595 22.2915 21.3066Z" fill="#FFB52B"/>
<path d="M26.0466 31.366C25.5655 31.366 25.1107 31.1358 24.8249 30.733L23.507 28.8886L21.2409 28.9273C20.6843 28.949 20.14 28.6245 19.8749 28.1103C19.6098 27.5962 19.6579 26.9877 20.0013 26.5226L21.3494 24.7L20.6126 22.5566C20.52 22.2905 20.5041 22.0038 20.5668 21.7292C20.6296 21.4546 20.7684 21.2031 20.9673 21.0037C21.1647 20.803 21.4146 20.662 21.6884 20.5967C21.9622 20.5315 22.2488 20.5447 22.5155 20.6349L24.6664 21.3537L26.4777 19.9896C26.702 19.8197 26.9696 19.7164 27.2499 19.6913C27.5301 19.6663 27.8118 19.7206 28.0626 19.8481C28.5796 20.1075 28.8975 20.6292 28.8928 21.2066L28.8739 23.4735L30.7306 24.7754C31.2041 25.1066 31.4438 25.6679 31.3551 26.2396C31.3135 26.518 31.1943 26.7791 31.0111 26.9929C30.8278 27.2066 30.5881 27.3644 30.3192 27.4481L28.157 28.1311L27.4938 30.2981C27.4008 30.6087 27.2096 30.8807 26.9488 31.0733C26.688 31.2658 26.3708 31.3686 26.0466 31.366ZM23.8673 27.4669C24.0956 27.4669 24.3107 27.5773 24.4428 27.7641L25.9758 29.9113C25.9862 29.9254 26.006 29.9556 26.0664 29.949C26.123 29.9396 26.1353 29.9018 26.14 29.8849L26.9136 27.3613C26.947 27.2517 27.0065 27.1518 27.087 27.0703C27.1675 26.9888 27.2667 26.9281 27.3758 26.8934L29.8938 26.0981C29.9107 26.094 29.9259 26.0847 29.9372 26.0715C29.9486 26.0583 29.9555 26.0418 29.957 26.0245C29.9611 26.0073 29.9597 25.9893 29.9529 25.973C29.9461 25.9567 29.9343 25.943 29.9192 25.9339L27.757 24.4198C27.663 24.354 27.5865 24.2665 27.5339 24.1646C27.4813 24.0627 27.4542 23.9495 27.4551 23.8349L27.4777 21.1952C27.4777 21.1783 27.4787 21.1377 27.4258 21.1103C27.4108 21.1013 27.3932 21.0973 27.3757 21.099C27.3582 21.1007 27.3417 21.108 27.3287 21.1198L25.2211 22.7075C25.1296 22.7767 25.0226 22.8226 24.9093 22.8412C24.796 22.8598 24.68 22.8505 24.5711 22.8141L22.0683 21.9773C22.0519 21.9706 22.0338 21.9691 22.0165 21.9732C21.9993 21.9773 21.9837 21.9866 21.9721 22C21.9315 22.0415 21.9438 22.0792 21.9504 22.0962L22.8089 24.5905C22.8461 24.699 22.8565 24.8149 22.8391 24.9283C22.8217 25.0417 22.777 25.1492 22.7089 25.2415L21.14 27.3641C21.1296 27.3773 21.1051 27.4113 21.1324 27.4622C21.1598 27.5132 21.1938 27.5132 21.2173 27.5122L23.8551 27.4669H23.8673ZM14.2032 15.5849C14.1103 15.5849 14.0183 15.5666 13.9325 15.531C13.8467 15.4954 13.7687 15.4432 13.7032 15.3773L10.3004 11.9764C10.2308 11.9116 10.1751 11.8335 10.1364 11.7467C10.0977 11.6599 10.077 11.5662 10.0753 11.4712C10.0736 11.3762 10.0911 11.2818 10.1267 11.1937C10.1623 11.1056 10.2152 11.0256 10.2824 10.9584C10.3496 10.8912 10.4296 10.8383 10.5177 10.8027C10.6058 10.7671 10.7002 10.7496 10.7952 10.7513C10.8902 10.753 10.9839 10.7738 11.0707 10.8124C11.1575 10.8511 11.2356 10.9069 11.3004 10.9764L14.7032 14.3773C14.802 14.4763 14.8693 14.6023 14.8966 14.7395C14.9238 14.8766 14.9098 15.0188 14.8563 15.148C14.8028 15.2772 14.7122 15.3877 14.596 15.4654C14.4797 15.5432 14.343 15.5847 14.2032 15.5849ZM18.0881 13.1009C17.9884 13.101 17.8899 13.08 17.7989 13.0394C17.7079 12.9988 17.6265 12.9393 17.5601 12.8651C17.4936 12.7908 17.4436 12.7033 17.4133 12.6084C17.383 12.5134 17.3732 12.4131 17.3843 12.3141L17.6617 9.86883C17.6719 9.77639 17.7003 9.68689 17.7452 9.60547C17.7901 9.52406 17.8508 9.45234 17.9235 9.39446C17.9963 9.33658 18.0799 9.29368 18.1693 9.26823C18.2588 9.24279 18.3523 9.23529 18.4447 9.24618C18.6311 9.26749 18.8014 9.36195 18.9181 9.50878C19.0349 9.65562 19.0886 9.84281 19.0673 10.0292L18.79 12.4726C18.7705 12.6452 18.6882 12.8047 18.5588 12.9205C18.4294 13.0364 18.2618 13.1006 18.0881 13.1009ZM9.16735 20.1509C8.99529 20.1506 8.82923 20.0877 8.70024 19.9738C8.57126 19.8599 8.48818 19.703 8.46655 19.5323C8.44492 19.3616 8.48624 19.1889 8.58275 19.0464C8.67927 18.904 8.82438 18.8016 8.99093 18.7584L11.4872 18.1141C11.5778 18.0886 11.6727 18.0814 11.7662 18.093C11.8597 18.1046 11.9499 18.1348 12.0316 18.1817C12.1133 18.2287 12.1848 18.2915 12.2419 18.3665C12.299 18.4414 12.3405 18.527 12.3641 18.6182C12.3876 18.7094 12.3927 18.8045 12.3791 18.8977C12.3654 18.9909 12.3333 19.0805 12.2846 19.1611C12.2358 19.2417 12.1715 19.3118 12.0953 19.3673C12.0191 19.4227 11.9326 19.4624 11.8409 19.4839L9.3447 20.1273C9.28677 20.1423 9.22718 20.1499 9.16735 20.15V20.1509Z" fill="#110F0F"/>
</svg>
