<svg width="50" height="50" viewBox="0 0 50 50" fill="none" xmlns="http://www.w3.org/2000/svg">
<path d="M2.91732 46.5497C2.60898 46.8997 2.85898 47.458 3.33398 47.4747C6.41732 47.633 9.52565 46.9413 12.3173 45.5747C16.0007 47.858 20.3507 49.1663 25.0007 49.1663C38.3507 49.1663 49.1673 38.3497 49.1673 24.9997C49.1673 11.6497 38.3507 0.833008 25.0007 0.833008C11.6507 0.833008 0.833984 11.6497 0.833984 24.9997C0.833984 30.783 2.85898 36.083 6.25065 40.2413C5.56732 42.583 4.40898 44.8163 2.91732 46.5497Z" fill="#0AB5FF"/>
<path d="M37.4977 18.8712C37.6468 25.3362 32.8793 30.7287 26.6677 31.5495V34.1662C26.6677 34.3872 26.5799 34.5991 26.4236 34.7554C26.2673 34.9117 26.0554 34.9995 25.8343 34.9995H24.1677C23.9467 34.9995 23.7347 34.9117 23.5784 34.7554C23.4221 34.5991 23.3343 34.3872 23.3343 34.1662V29.1662C23.3343 28.9451 23.4221 28.7332 23.5784 28.5769C23.7347 28.4206 23.9467 28.3328 24.1677 28.3328H24.7377C29.5102 28.3328 33.6852 24.7937 34.1268 20.0412C34.6335 14.5903 30.3485 9.99949 25.001 9.99949C20.1952 9.99949 16.2468 13.7078 15.8643 18.4162C15.8456 18.6219 15.7503 18.813 15.5974 18.9519C15.4445 19.0908 15.2451 19.1672 15.0385 19.1662H13.366C12.8743 19.1662 12.4985 18.7428 12.5335 18.252C13.016 11.5812 18.7418 6.35616 25.6052 6.68032C32.0777 6.98616 37.3468 12.3928 37.4968 18.8703L37.4977 18.8712Z" fill="white"/>
<path d="M26.6686 38.333H23.3353C22.875 38.333 22.502 38.7061 22.502 39.1663V42.4997C22.502 42.9599 22.875 43.333 23.3353 43.333H26.6686C27.1289 43.333 27.502 42.9599 27.502 42.4997V39.1663C27.502 38.7061 27.1289 38.333 26.6686 38.333Z" fill="white"/>
</svg>
