<svg width="50" height="50" viewBox="0 0 50 50" fill="none" xmlns="http://www.w3.org/2000/svg">
<g clip-path="url(#clip0_1151_27586)">
<path d="M23.5352 46.9627C36.5333 46.9627 47.0703 36.4498 47.0703 23.4815C47.0703 10.5132 36.5333 0.000244141 23.5352 0.000244141C10.537 0.000244141 0 10.5132 0 23.4815C0 36.4498 10.537 46.9627 23.5352 46.9627Z" fill="#7F94FD"/>
<path d="M47.0703 23.4814C47.0703 36.6172 36.3682 46.9629 23.5352 46.9629V0C36.6973 0 47.0703 10.6729 47.0703 23.4814Z" fill="#6665FF"/>
<path d="M40.1627 35.6051C37.9554 34.425 35.1648 33.5261 31.998 32.9554C32.545 30.6475 32.9343 27.9833 33.0309 24.9462H44.0882C43.8065 28.9139 42.3906 32.5737 40.1627 35.6051Z" fill="#7F94FD"/>
<path d="M23.5347 43.4546C21.4161 41.2331 19.8556 38.3089 18.834 35.4023C21.9127 35.0981 25.1566 35.0981 28.2354 35.4023C27.2132 38.3104 25.6523 41.2341 23.5347 43.4546Z" fill="#9CB1FF"/>
<path d="M28.2354 35.4023C27.2139 38.3105 25.6533 41.2344 23.5352 43.4541V35.1748C25.1152 35.1748 26.6963 35.25 28.2354 35.4023Z" fill="#7F94FD"/>
<path d="M17.985 32.5379C17.4544 30.3764 17.0694 27.853 16.9708 24.9462H30.0995C30.001 27.8522 29.6162 30.3749 29.0858 32.5359C25.4493 32.1347 21.5498 32.144 17.985 32.5379Z" fill="#9CB1FF"/>
<path d="M30.0996 24.9463C30.001 27.8525 29.6162 30.375 29.0859 32.5361C27.2764 32.3359 25.4014 32.2383 23.5352 32.2383V24.9463H30.0996Z" fill="#7F94FD"/>
<path d="M2.9826 24.9462H14.0399C14.1365 27.9843 14.526 30.6492 15.0732 32.9577C11.9044 33.5287 9.11337 34.4269 6.90809 35.6052C4.68016 32.5738 3.26415 28.914 2.9826 24.9462ZM6.96122 11.2848C9.16698 12.4545 11.949 13.3452 15.1025 13.911C14.539 16.2436 14.1373 18.9415 14.0396 22.0165H2.9826C3.26639 18.017 4.70243 14.3302 6.96122 11.2848ZM23.5376 3.50769C24.6819 4.72068 26.6936 7.27468 28.1942 11.4629C25.1438 11.7614 21.9326 11.7617 18.882 11.4635C19.8957 8.62634 21.4399 5.73572 23.5376 3.50769Z" fill="#9CB1FF"/>
<path d="M28.1943 11.4629C26.668 11.6123 25.1016 11.6875 23.5352 11.6875V3.51074L23.5381 3.50781C24.6816 4.7207 26.6934 7.27441 28.1943 11.4629Z" fill="#7F94FD"/>
<path d="M29.0606 14.3259C29.6135 16.5344 30.0025 19.0887 30.1003 22.0166H16.9707C17.0707 19.0708 17.4691 16.5144 18.0169 14.3288C21.5141 14.712 25.3938 14.7291 29.0606 14.3259Z" fill="#9CB1FF"/>
<path d="M30.0996 22.0166H23.5352V14.622C25.3799 14.622 27.2471 14.5263 29.0605 14.3261C29.6133 16.5341 30.002 19.0888 30.0996 22.0166ZM33.0307 22.0165C32.933 18.9405 32.5312 16.2419 31.9673 13.9088C35.1228 13.3427 37.9052 12.4526 40.109 11.2847C42.3678 14.3301 43.8039 18.0169 44.0877 22.0165H33.0307ZM38.1395 8.99761C36.1858 9.9315 33.7772 10.6215 31.1509 11.069C30.2033 8.24556 28.8817 5.57651 27.1276 3.24292C31.3918 3.9937 35.2075 6.05679 38.1395 8.99761Z" fill="#7F94FD"/>
<path d="M19.9427 3.24292C18.1885 5.57661 16.867 8.24575 15.9194 11.069C13.2931 10.6215 10.8845 9.93149 8.93087 8.99761C11.8628 6.05679 15.6785 3.9937 19.9427 3.24292ZM8.86319 37.8958C10.8178 36.9507 13.2357 36.2524 15.8751 35.7996C16.8069 38.6195 18.1294 41.3374 19.9271 43.717C15.6361 42.9581 11.8005 40.8696 8.86319 37.8958Z" fill="#9CB1FF"/>
<path d="M27.1436 43.717C28.9409 41.3377 30.2635 38.62 31.1955 35.7996C33.835 36.2524 36.2528 36.9507 38.2074 37.8958C35.2701 40.8696 31.4345 42.9581 27.1436 43.717Z" fill="#7F94FD"/>
<path d="M48.2078 21.0627C40.9238 22.7311 37.7191 17.5418 37.5903 17.327C37.0255 16.36 35.6252 16.3604 35.0606 17.327C35.0289 17.3814 31.798 22.7473 24.4433 21.0627C23.5271 20.8528 22.6514 21.5497 22.6514 22.4905V34.3973C22.6514 42.4857 26.8666 47.4264 35.917 49.9464C36.1739 50.0179 36.4457 50.0179 36.7028 49.9464C45.0836 47.613 49.9997 43.0612 49.9997 34.3973V22.4905C49.9997 21.5503 49.1245 20.8523 48.2078 21.0627Z" fill="#A4E786"/>
<path d="M50 22.4902V34.3975C50 43.0615 45.084 47.6133 36.7031 49.9463C36.5791 49.9814 36.4531 49.999 36.3262 50V16.6016C36.8174 16.6016 37.3086 16.8437 37.5908 17.3271C37.7197 17.542 40.9238 22.7314 48.208 21.0625C49.125 20.8525 50 21.5508 50 22.4902Z" fill="#A4E786"/>
<path d="M47.07 34.3973C47.07 41.0273 43.8467 44.8178 36.31 47.0121C28.7953 44.8235 25.5811 41.0328 25.5811 34.3973V24.2271C29.9204 24.7225 33.6879 23.2375 36.3255 20.4265C38.9654 23.24 42.7317 24.7222 47.07 24.2271V34.3973Z" fill="#58B454"/>
<path d="M47.0703 24.2275V34.3975C47.0703 41.0225 43.8516 44.8125 36.3262 47.0068V20.4268C38.9658 23.2402 42.7324 24.7227 47.0703 24.2275Z" fill="#58B454"/>
<path d="M43.0263 28.8055C42.4062 28.2859 41.4824 28.3673 40.9628 28.9874L34.5956 36.5852L31.8447 34.1989C31.2337 33.6687 30.3085 33.7344 29.7783 34.3455C29.2481 34.9565 29.3138 35.8817 29.9249 36.4119L33.8012 39.7746C34.4194 40.3109 35.3582 40.2363 35.8839 39.6089L43.2081 30.869C43.7278 30.249 43.6463 29.3251 43.0263 28.8055Z" fill="#E9F3FB"/>
<path d="M43.208 30.8692L36.3262 39.0811V34.5186L40.9619 28.9874C41.4824 28.3672 42.4062 28.2862 43.0254 28.8057C43.6455 29.3252 43.7275 30.2491 43.208 30.8692Z" fill="#D6E9F8"/>
</g>
<defs>
<clipPath id="clip0_1151_27586">
<rect width="50" height="50" fill="white"/>
</clipPath>
</defs>
</svg>
