<svg width="276" height="364" viewBox="0 0 276 364" fill="none" xmlns="http://www.w3.org/2000/svg">
<mask id="mask0_1001_5363" style="mask-type:alpha" maskUnits="userSpaceOnUse" x="0" y="0" width="276" height="415">
<rect width="276" height="415" fill="#D9D9D9"/>
</mask>
<g mask="url(#mask0_1001_5363)">
<mask id="path-2-inside-1_1001_5363" fill="white">
<path fill-rule="evenodd" clip-rule="evenodd" d="M292.687 135.717C290.985 133.214 288.883 131.111 286.581 128.408C295.089 133.314 300.595 140.323 306 147.533C304.699 143.227 303.798 138.721 300.294 135.517C299.694 135.016 299.293 134.215 298.793 133.514C293.087 125.704 285.88 119.796 276.371 117.093C275.67 116.893 274.969 116.392 273.968 115.891C279.073 114.189 283.678 116.692 288.583 116.192C287.782 114.59 286.381 113.989 284.979 113.288C277.372 109.483 269.464 110.184 261.556 112.186C259.654 112.687 257.853 113.288 256.051 113.789C260.155 109.283 265.36 107.28 271.166 106.179C270.865 105.778 270.665 105.578 270.365 105.578C269.664 105.377 268.964 105.277 268.263 105.177C261.256 104.076 254.85 105.878 248.844 109.383C247.943 109.883 247.142 110.584 245.641 110.785C248.944 108.982 252.247 107.28 255.45 105.478C256.451 104.877 257.452 104.176 258.253 102.974C255.851 103.275 253.448 103.575 250.946 103.976C254.65 101.572 258.954 100.671 262.757 98.969C266.862 97.1667 270.966 97.3669 275.17 96.7662C271.166 94.7635 266.761 95.865 262.257 94.7635C266.761 91.8597 271.866 91.7596 276.571 89.9572C273.868 88.4552 268.563 88.3551 258.253 89.1561C258.854 87.4539 260.355 86.8531 261.757 86.4526C263.859 85.8518 265.46 84.7503 266.962 83.0481C260.455 82.7477 254.75 83.749 250.345 89.056C248.744 90.9585 246.441 92.2602 244.039 94.1627C243.839 91.1588 245.741 89.5567 246.141 87.4539C242.738 89.3564 241.136 91.2589 236.432 98.8689C236.932 95.6647 237.333 93.0613 237.733 90.1575C233.729 93.7622 232.228 98.5685 230.426 103.375C229.925 101.172 229.425 98.969 228.824 96.2655C226.822 99.5698 226.822 102.874 226.622 106.279C226.122 105.678 225.621 105.177 225.121 104.576C224.82 105.277 224.72 106.078 224.52 106.579C224.22 105.277 224.22 103.875 224.019 102.374C222.418 104.677 221.917 106.879 222.018 109.182C220.616 108.482 219.315 107.881 218.314 106.98C216.012 104.777 213.309 104.476 210.306 104.276C211.007 105.878 211.607 107.38 212.208 108.782C207.203 104.376 201.798 101.272 194.791 100.671C195.792 103.976 199.195 104.977 199.696 108.181C197.393 105.978 194.891 104.176 191.788 103.275C188.785 102.374 185.982 100.771 182.379 101.873C184.581 103.475 187.083 104.276 188.485 106.779C182.479 106.579 177.474 103.175 171.568 103.275C173.87 104.977 176.173 106.679 178.875 108.682C162.96 106.379 159.957 106.479 155.552 109.082C158.755 110.484 162.059 111.285 165.562 111.285C160.257 112.987 154.351 112.186 148.946 116.092C153.951 116.592 158.355 117.093 162.659 117.594C156.854 120.297 150.647 121.999 146.443 128.007C148.946 127.406 151.048 127.006 153.15 126.505C155.252 126.005 157.254 125.103 159.356 124.803C161.358 124.503 163.26 123.201 165.762 124.002C163.16 125.904 160.958 127.507 158.655 129.209C164.361 129.309 169.266 125.904 175.071 126.205C174.671 128.007 172.669 128.308 171.968 130.21C173.17 130.01 174.271 129.91 175.272 129.609C176.273 129.309 177.174 128.808 178.175 128.508C179.276 128.207 180.377 128.007 181.478 127.907C182.479 127.807 183.48 127.406 184.981 127.807C182.879 129.209 180.477 129.309 178.875 131.712C182.279 131.712 185.281 131.712 188.785 131.712C186.983 133.114 185.582 134.115 184.28 135.117C185.782 135.617 187.183 135.617 188.485 135.517C189.185 135.417 189.886 135.217 190.587 135.016C191.888 134.716 193.189 134.316 194.49 134.115C195.792 133.915 197.093 133.815 198.494 133.715C199.596 133.615 200.496 133.314 201.497 134.616C201.998 135.317 204 134.816 205.301 134.816C205.401 134.816 205.401 135.117 205.702 135.517C199.295 136.118 193.389 138.121 187.584 140.424C181.678 142.727 176.273 145.731 171.668 150.136C172.069 150.637 172.369 151.038 172.869 151.538C169.566 154.442 166.763 157.646 164.361 161.852C165.862 161.651 166.863 161.551 167.964 161.451C166.663 166.258 165.362 170.864 164.061 175.37C164.261 175.47 164.461 175.57 164.661 175.67C165.362 174.969 165.963 174.168 166.663 173.467C168.265 171.765 169.966 170.063 171.668 168.46C172.269 167.86 173.17 167.659 174.471 166.858C173.67 169.362 173.069 171.164 172.469 172.966C176.973 170.763 179.576 166.258 184.481 164.155C184.08 166.858 181.778 168.46 182.078 171.264C185.382 168.06 188.385 165.056 192.789 163.754C187.784 171.364 181.478 177.973 178.775 187.385C179.576 186.985 179.876 186.885 180.277 186.785C180.677 186.584 181.177 186.384 181.878 186.084C180.777 190.189 178.174 193.493 178.074 197.699C179.276 196.798 180.176 195.997 181.378 194.995C181.278 197.999 181.177 200.402 181.278 202.906C181.378 205.309 181.778 207.712 182.078 210.115C182.279 210.115 182.579 210.215 182.779 210.215C185.682 206.21 185.582 201.003 187.183 196.497C186.683 202.806 186.983 208.813 189.185 215.422C191.688 209.715 191.287 204.007 193.289 198.8C194.19 201.804 194.991 204.808 195.992 208.113C199.195 204.508 197.594 200.202 198.795 196.097C199.696 197.799 200.396 199.001 201.297 200.603C202.899 198.099 203.9 195.997 203.499 193.393C203.299 192.092 203.599 190.79 203.7 189.488C203.9 189.488 204 189.488 204.2 189.488C204.701 190.489 205.201 191.391 206.102 192.993C206.302 190.189 206.502 188.086 206.702 185.883C206.903 185.883 207.103 185.883 207.303 185.883C208.004 187.686 208.805 189.488 209.705 191.691C211.808 188.687 210.606 185.683 211.307 182.779C211.807 183.08 212.208 183.38 213.009 183.881C213.809 181.578 214.51 179.575 215.311 177.072C215.711 178.073 216.012 178.674 216.312 179.375C218.514 177.973 219.715 176.171 219.815 173.767C220.016 171.565 221.217 170.363 223.519 169.462C222.918 171.965 222.618 174.068 222.018 176.07C220.116 182.879 218.014 189.588 216.112 196.497C214.51 202.205 213.109 208.012 211.807 213.82C211.207 216.624 211.107 219.427 209.906 222.331C208.004 226.737 207.203 231.543 206.002 236.25C205.001 240.055 204.1 243.759 202.999 247.564C200.496 256.276 197.694 264.787 195.391 273.499C192.889 283.111 190.587 292.824 188.585 302.537C186.383 313.451 183.48 325.066 182.879 336.381C182.379 346.995 182.178 356.708 183.88 367.022C184.681 372.128 185.382 377.235 186.282 382.242C186.983 386.047 188.084 389.852 189.285 393.556C190.386 396.961 191.588 400.365 192.789 403.77C194.891 404.371 198.995 404.771 201.097 404.871C203.099 404.371 205.001 403.57 206.502 402.368C205.001 397.161 203.199 391.954 201.898 386.747C200.396 380.539 199.295 374.331 198.294 368.023C197.594 363.617 197.293 359.111 196.793 354.705C194.491 331.675 200.997 298.431 201.698 295.227C202.799 290.421 203.399 285.614 205.001 280.908C206.202 277.604 205.702 273.799 207.703 270.695C207.703 270.595 207.703 270.495 207.703 270.394C209.205 263.586 210.706 256.777 212.208 250.068C212.608 248.165 213.409 246.363 213.91 244.46C216.312 236.149 218.614 227.738 221.017 219.427C222.818 213.019 224.62 206.611 226.622 200.302C228.524 194.094 230.626 187.986 232.628 181.878C232.828 181.377 233.128 180.977 233.629 179.976C234.83 182.98 233.028 185.283 233.028 187.886C234.33 187.485 235.531 187.085 237.132 186.684C236.732 189.989 236.332 192.893 235.931 196.497C237.733 194.895 239.034 193.593 240.536 192.192C241.837 196.597 239.034 200.302 239.034 204.308C242.237 203.507 242.137 200.002 244.54 198.2C244.74 205.409 243.238 212.018 241.136 218.727C246.141 215.823 247.643 211.117 249.144 206.41C249.344 206.51 249.645 206.51 249.845 206.611L250.545 212.618C251.446 211.717 251.847 210.716 251.947 209.715C252.147 207.312 252.347 204.808 252.347 202.305C252.347 200.603 252.547 199.101 253.849 197.098C254.549 199.902 255.05 202.205 255.55 204.408C256.651 203.406 257.352 202.405 257.652 201.304C258.053 199.601 258.153 197.899 258.353 196.097C258.854 190.089 257.853 184.281 257.052 178.373C256.151 171.865 255.25 165.456 254.249 158.748C256.651 162.352 257.452 166.758 260.856 170.163C261.056 168.16 261.256 166.758 261.356 165.256C263.458 168.961 263.058 173.567 266.161 176.972C266.561 172.666 266.862 168.46 267.262 164.155C267.862 164.555 268.163 164.856 268.163 165.256C268.663 170.463 270.465 175.47 270.065 180.777C269.965 181.778 270.165 182.879 270.465 183.781C270.765 184.782 271.366 185.683 271.766 186.684C271.967 186.684 272.267 186.684 272.467 186.584C273.168 182.579 273.968 178.574 274.669 174.669C275.67 177.172 276.171 179.675 276.771 182.178C277.472 184.582 276.671 187.385 278.873 190.089C279.574 185.283 280.775 181.177 280.775 176.972C280.875 165.156 275.17 155.543 267.762 146.832C264.96 143.528 261.757 140.824 257.652 138.922C254.249 137.319 251.046 135.117 247.242 132.814C252.648 132.113 256.151 136.318 260.956 136.619C260.555 135.317 260.155 134.416 259.855 133.514C260.055 133.414 260.255 133.214 260.455 133.114C263.758 135.818 267.162 138.521 270.265 141.325C272.067 142.927 273.768 144.429 276.671 144.729C271.366 138.521 266.962 132.013 260.255 127.607C262.157 128.207 263.859 129.109 265.46 130.01C267.362 131.111 269.364 132.213 271.166 133.514C275.17 136.518 279.074 139.623 282.377 143.528C283.178 144.429 284.078 145.33 285.079 146.031C286.08 146.732 287.282 147.233 288.383 147.833C288.483 147.633 288.683 147.533 288.783 147.333C287.181 143.828 285.58 140.323 282.977 137.319C280.475 134.516 277.972 131.712 275.07 128.508C275.97 128.908 276.271 129.009 276.471 129.109C276.871 129.409 277.372 129.609 277.772 129.91C282.977 133.615 287.382 138.121 291.185 143.327C293.488 146.532 296.19 149.435 298.793 152.439C299.093 149.135 298.392 146.231 296.891 143.528C295.69 140.824 294.389 138.121 292.687 135.717Z"/>
</mask>
<path fill-rule="evenodd" clip-rule="evenodd" d="M292.687 135.717C290.985 133.214 288.883 131.111 286.581 128.408C295.089 133.314 300.595 140.323 306 147.533C304.699 143.227 303.798 138.721 300.294 135.517C299.694 135.016 299.293 134.215 298.793 133.514C293.087 125.704 285.88 119.796 276.371 117.093C275.67 116.893 274.969 116.392 273.968 115.891C279.073 114.189 283.678 116.692 288.583 116.192C287.782 114.59 286.381 113.989 284.979 113.288C277.372 109.483 269.464 110.184 261.556 112.186C259.654 112.687 257.853 113.288 256.051 113.789C260.155 109.283 265.36 107.28 271.166 106.179C270.865 105.778 270.665 105.578 270.365 105.578C269.664 105.377 268.964 105.277 268.263 105.177C261.256 104.076 254.85 105.878 248.844 109.383C247.943 109.883 247.142 110.584 245.641 110.785C248.944 108.982 252.247 107.28 255.45 105.478C256.451 104.877 257.452 104.176 258.253 102.974C255.851 103.275 253.448 103.575 250.946 103.976C254.65 101.572 258.954 100.671 262.757 98.969C266.862 97.1667 270.966 97.3669 275.17 96.7662C271.166 94.7635 266.761 95.865 262.257 94.7635C266.761 91.8597 271.866 91.7596 276.571 89.9572C273.868 88.4552 268.563 88.3551 258.253 89.1561C258.854 87.4539 260.355 86.8531 261.757 86.4526C263.859 85.8518 265.46 84.7503 266.962 83.0481C260.455 82.7477 254.75 83.749 250.345 89.056C248.744 90.9585 246.441 92.2602 244.039 94.1627C243.839 91.1588 245.741 89.5567 246.141 87.4539C242.738 89.3564 241.136 91.2589 236.432 98.8689C236.932 95.6647 237.333 93.0613 237.733 90.1575C233.729 93.7622 232.228 98.5685 230.426 103.375C229.925 101.172 229.425 98.969 228.824 96.2655C226.822 99.5698 226.822 102.874 226.622 106.279C226.122 105.678 225.621 105.177 225.121 104.576C224.82 105.277 224.72 106.078 224.52 106.579C224.22 105.277 224.22 103.875 224.019 102.374C222.418 104.677 221.917 106.879 222.018 109.182C220.616 108.482 219.315 107.881 218.314 106.98C216.012 104.777 213.309 104.476 210.306 104.276C211.007 105.878 211.607 107.38 212.208 108.782C207.203 104.376 201.798 101.272 194.791 100.671C195.792 103.976 199.195 104.977 199.696 108.181C197.393 105.978 194.891 104.176 191.788 103.275C188.785 102.374 185.982 100.771 182.379 101.873C184.581 103.475 187.083 104.276 188.485 106.779C182.479 106.579 177.474 103.175 171.568 103.275C173.87 104.977 176.173 106.679 178.875 108.682C162.96 106.379 159.957 106.479 155.552 109.082C158.755 110.484 162.059 111.285 165.562 111.285C160.257 112.987 154.351 112.186 148.946 116.092C153.951 116.592 158.355 117.093 162.659 117.594C156.854 120.297 150.647 121.999 146.443 128.007C148.946 127.406 151.048 127.006 153.15 126.505C155.252 126.005 157.254 125.103 159.356 124.803C161.358 124.503 163.26 123.201 165.762 124.002C163.16 125.904 160.958 127.507 158.655 129.209C164.361 129.309 169.266 125.904 175.071 126.205C174.671 128.007 172.669 128.308 171.968 130.21C173.17 130.01 174.271 129.91 175.272 129.609C176.273 129.309 177.174 128.808 178.175 128.508C179.276 128.207 180.377 128.007 181.478 127.907C182.479 127.807 183.48 127.406 184.981 127.807C182.879 129.209 180.477 129.309 178.875 131.712C182.279 131.712 185.281 131.712 188.785 131.712C186.983 133.114 185.582 134.115 184.28 135.117C185.782 135.617 187.183 135.617 188.485 135.517C189.185 135.417 189.886 135.217 190.587 135.016C191.888 134.716 193.189 134.316 194.49 134.115C195.792 133.915 197.093 133.815 198.494 133.715C199.596 133.615 200.496 133.314 201.497 134.616C201.998 135.317 204 134.816 205.301 134.816C205.401 134.816 205.401 135.117 205.702 135.517C199.295 136.118 193.389 138.121 187.584 140.424C181.678 142.727 176.273 145.731 171.668 150.136C172.069 150.637 172.369 151.038 172.869 151.538C169.566 154.442 166.763 157.646 164.361 161.852C165.862 161.651 166.863 161.551 167.964 161.451C166.663 166.258 165.362 170.864 164.061 175.37C164.261 175.47 164.461 175.57 164.661 175.67C165.362 174.969 165.963 174.168 166.663 173.467C168.265 171.765 169.966 170.063 171.668 168.46C172.269 167.86 173.17 167.659 174.471 166.858C173.67 169.362 173.069 171.164 172.469 172.966C176.973 170.763 179.576 166.258 184.481 164.155C184.08 166.858 181.778 168.46 182.078 171.264C185.382 168.06 188.385 165.056 192.789 163.754C187.784 171.364 181.478 177.973 178.775 187.385C179.576 186.985 179.876 186.885 180.277 186.785C180.677 186.584 181.177 186.384 181.878 186.084C180.777 190.189 178.174 193.493 178.074 197.699C179.276 196.798 180.176 195.997 181.378 194.995C181.278 197.999 181.177 200.402 181.278 202.906C181.378 205.309 181.778 207.712 182.078 210.115C182.279 210.115 182.579 210.215 182.779 210.215C185.682 206.21 185.582 201.003 187.183 196.497C186.683 202.806 186.983 208.813 189.185 215.422C191.688 209.715 191.287 204.007 193.289 198.8C194.19 201.804 194.991 204.808 195.992 208.113C199.195 204.508 197.594 200.202 198.795 196.097C199.696 197.799 200.396 199.001 201.297 200.603C202.899 198.099 203.9 195.997 203.499 193.393C203.299 192.092 203.599 190.79 203.7 189.488C203.9 189.488 204 189.488 204.2 189.488C204.701 190.489 205.201 191.391 206.102 192.993C206.302 190.189 206.502 188.086 206.702 185.883C206.903 185.883 207.103 185.883 207.303 185.883C208.004 187.686 208.805 189.488 209.705 191.691C211.808 188.687 210.606 185.683 211.307 182.779C211.807 183.08 212.208 183.38 213.009 183.881C213.809 181.578 214.51 179.575 215.311 177.072C215.711 178.073 216.012 178.674 216.312 179.375C218.514 177.973 219.715 176.171 219.815 173.767C220.016 171.565 221.217 170.363 223.519 169.462C222.918 171.965 222.618 174.068 222.018 176.07C220.116 182.879 218.014 189.588 216.112 196.497C214.51 202.205 213.109 208.012 211.807 213.82C211.207 216.624 211.107 219.427 209.906 222.331C208.004 226.737 207.203 231.543 206.002 236.25C205.001 240.055 204.1 243.759 202.999 247.564C200.496 256.276 197.694 264.787 195.391 273.499C192.889 283.111 190.587 292.824 188.585 302.537C186.383 313.451 183.48 325.066 182.879 336.381C182.379 346.995 182.178 356.708 183.88 367.022C184.681 372.128 185.382 377.235 186.282 382.242C186.983 386.047 188.084 389.852 189.285 393.556C190.386 396.961 191.588 400.365 192.789 403.77C194.891 404.371 198.995 404.771 201.097 404.871C203.099 404.371 205.001 403.57 206.502 402.368C205.001 397.161 203.199 391.954 201.898 386.747C200.396 380.539 199.295 374.331 198.294 368.023C197.594 363.617 197.293 359.111 196.793 354.705C194.491 331.675 200.997 298.431 201.698 295.227C202.799 290.421 203.399 285.614 205.001 280.908C206.202 277.604 205.702 273.799 207.703 270.695C207.703 270.595 207.703 270.495 207.703 270.394C209.205 263.586 210.706 256.777 212.208 250.068C212.608 248.165 213.409 246.363 213.91 244.46C216.312 236.149 218.614 227.738 221.017 219.427C222.818 213.019 224.62 206.611 226.622 200.302C228.524 194.094 230.626 187.986 232.628 181.878C232.828 181.377 233.128 180.977 233.629 179.976C234.83 182.98 233.028 185.283 233.028 187.886C234.33 187.485 235.531 187.085 237.132 186.684C236.732 189.989 236.332 192.893 235.931 196.497C237.733 194.895 239.034 193.593 240.536 192.192C241.837 196.597 239.034 200.302 239.034 204.308C242.237 203.507 242.137 200.002 244.54 198.2C244.74 205.409 243.238 212.018 241.136 218.727C246.141 215.823 247.643 211.117 249.144 206.41C249.344 206.51 249.645 206.51 249.845 206.611L250.545 212.618C251.446 211.717 251.847 210.716 251.947 209.715C252.147 207.312 252.347 204.808 252.347 202.305C252.347 200.603 252.547 199.101 253.849 197.098C254.549 199.902 255.05 202.205 255.55 204.408C256.651 203.406 257.352 202.405 257.652 201.304C258.053 199.601 258.153 197.899 258.353 196.097C258.854 190.089 257.853 184.281 257.052 178.373C256.151 171.865 255.25 165.456 254.249 158.748C256.651 162.352 257.452 166.758 260.856 170.163C261.056 168.16 261.256 166.758 261.356 165.256C263.458 168.961 263.058 173.567 266.161 176.972C266.561 172.666 266.862 168.46 267.262 164.155C267.862 164.555 268.163 164.856 268.163 165.256C268.663 170.463 270.465 175.47 270.065 180.777C269.965 181.778 270.165 182.879 270.465 183.781C270.765 184.782 271.366 185.683 271.766 186.684C271.967 186.684 272.267 186.684 272.467 186.584C273.168 182.579 273.968 178.574 274.669 174.669C275.67 177.172 276.171 179.675 276.771 182.178C277.472 184.582 276.671 187.385 278.873 190.089C279.574 185.283 280.775 181.177 280.775 176.972C280.875 165.156 275.17 155.543 267.762 146.832C264.96 143.528 261.757 140.824 257.652 138.922C254.249 137.319 251.046 135.117 247.242 132.814C252.648 132.113 256.151 136.318 260.956 136.619C260.555 135.317 260.155 134.416 259.855 133.514C260.055 133.414 260.255 133.214 260.455 133.114C263.758 135.818 267.162 138.521 270.265 141.325C272.067 142.927 273.768 144.429 276.671 144.729C271.366 138.521 266.962 132.013 260.255 127.607C262.157 128.207 263.859 129.109 265.46 130.01C267.362 131.111 269.364 132.213 271.166 133.514C275.17 136.518 279.074 139.623 282.377 143.528C283.178 144.429 284.078 145.33 285.079 146.031C286.08 146.732 287.282 147.233 288.383 147.833C288.483 147.633 288.683 147.533 288.783 147.333C287.181 143.828 285.58 140.323 282.977 137.319C280.475 134.516 277.972 131.712 275.07 128.508C275.97 128.908 276.271 129.009 276.471 129.109C276.871 129.409 277.372 129.609 277.772 129.91C282.977 133.615 287.382 138.121 291.185 143.327C293.488 146.532 296.19 149.435 298.793 152.439C299.093 149.135 298.392 146.231 296.891 143.528C295.69 140.824 294.389 138.121 292.687 135.717Z" stroke="#EEEEEE" stroke-width="2" mask="url(#path-2-inside-1_1001_5363)"/>
<mask id="path-3-inside-2_1001_5363" fill="white">
<path fill-rule="evenodd" clip-rule="evenodd" d="M167.965 405.372C174.171 406.474 177.774 406.274 183.08 403.27C183.18 399.965 181.878 397.262 181.078 393.357C179.977 388.25 177.975 381.441 176.673 376.434C175.973 373.631 175.272 370.827 174.471 368.123C173.47 364.719 172.269 361.314 171.268 357.91C170.267 354.806 169.566 351.602 168.365 348.498C166.063 342.49 163.861 336.382 161.158 330.474C158.255 323.965 154.852 317.657 151.749 311.249C150.047 307.744 148.646 304.139 147.144 300.534C144.242 293.826 141.339 287.117 137.235 281.109C134.232 276.703 130.828 272.598 127.926 268.092C123.121 260.682 118.716 253.072 113.912 245.662C111.71 242.158 109.407 238.853 106.905 235.549C103.502 230.943 99.6978 226.637 96.2945 222.031C92.0904 216.224 87.9863 210.316 83.8823 204.408C81.6801 201.204 79.5781 197.799 77.476 194.595C78.8774 195.096 79.8784 195.897 80.8793 196.798C82.8813 198.6 84.6831 200.503 86.7851 202.105C88.5869 203.507 90.2886 205.009 90.9893 207.212C91.3897 208.614 91.9902 209.915 92.4907 211.217C93.0913 212.719 93.5918 214.221 95.5938 214.922C95.3936 212.519 95.2935 210.416 94.9932 208.313C94.6929 206.21 94.1924 204.108 93.5918 201.404C97.7959 206.411 98.3965 212.619 102.4 216.925C102.601 216.824 102.901 216.824 103.101 216.724C102.801 214.722 102.501 212.819 102.1 210.316C105.504 213.62 106.905 217.926 110.709 220.73C110.709 217.926 109.207 215.823 109.708 213.52C114.012 219.228 116.715 225.836 120.118 231.944C120.418 231.844 120.618 231.744 120.919 231.644C120.018 228.039 119.217 224.334 118.216 220.329C119.417 220.73 120.118 221.03 120.919 221.33C121.119 221.23 121.219 221.03 121.419 220.93C118.917 216.724 116.314 212.519 113.411 207.712C117.315 209.615 119.117 213.42 123.521 214.221C121.319 211.117 119.517 208.413 117.515 205.91C115.413 203.307 113.011 201.004 110.508 198.2C112.41 198.3 113.812 199.602 115.413 199.101C115.213 198.701 115.213 198.5 115.113 198.4C110.508 194.795 105.604 191.591 99.898 189.789C98.5967 189.388 97.4957 188.788 96.8951 187.185C100.398 186.985 102.901 189.589 106.404 189.989C105.203 188.687 104.302 187.686 103.001 186.384C107.405 186.785 110.508 189.188 114.012 190.69C114.112 190.49 114.312 190.39 114.412 190.189C113.111 188.487 111.91 186.785 110.609 184.983C113.011 185.984 115.113 187.386 117.215 188.687C122.02 191.791 122.52 191.892 124.222 191.892C121.219 188.687 117.215 186.484 114.913 182.579C116.414 182.079 117.816 183.681 119.517 182.279C117.415 180.877 115.613 179.575 113.712 178.474C111.81 177.373 109.708 176.571 107.706 175.57C108.406 175.17 109.007 174.869 110.008 174.268C105.003 173.067 100.599 172.066 95.794 170.964C97.796 170.363 99.2974 169.863 100.899 169.362C100.899 169.162 100.799 168.861 100.799 168.661C96.4947 166.558 91.5899 166.959 87.0854 165.457C95.1934 164.155 103.301 163.654 111.509 163.855C110.609 163.254 109.708 162.753 108.707 162.553C104.402 161.552 100.098 160.651 95.794 159.649C95.0933 159.449 94.1924 159.749 93.8921 158.548C102.901 157.647 111.81 159.449 120.618 159.048C120.618 158.848 120.718 158.648 120.718 158.448C116.514 156.745 112.41 155.143 108.206 153.541C111.81 153.241 115.413 153.041 118.917 153.341C122.42 153.641 125.723 155.143 129.427 155.043C129.127 154.242 128.726 153.441 128.126 153.141C125.323 151.739 122.52 150.037 119.517 149.236C115.413 148.134 111.009 147.834 106.805 147.233C106.204 147.133 105.604 146.832 104.503 146.532C108.607 144.229 112.911 143.929 116.815 142.427C107.405 140.023 98.5967 142.427 90.0884 146.532C94.0923 142.527 98.7969 139.723 103.401 136.719C99.0972 136.719 95.5938 138.622 91.9902 140.324C88.2866 142.126 84.4829 143.828 81.2797 146.232C78.2768 148.535 75.8744 151.839 73.2719 154.643C75.7743 149.636 80.3789 145.731 80.9794 139.423C76.3749 143.127 71.9706 146.732 67.5663 150.337C67.266 149.936 66.9657 149.436 66.4652 148.635C65.4642 151.038 64.4632 153.441 63.4623 155.744C63.162 154.042 62.7616 152.239 62.3612 150.537C61.9608 152.34 61.5604 154.142 61.0599 156.245C58.9578 152.039 60.7596 147.333 58.2572 143.528C55.9549 145.531 57.3563 148.334 55.9549 150.737C54.5535 146.732 53.8528 142.727 51.1502 139.623C51.3504 141.525 51.5506 143.528 51.6507 145.431C48.5476 142.527 46.1453 139.222 42.7419 136.819C44.3435 140.124 46.7459 143.027 47.0462 147.433C45.1443 146.332 43.6428 145.431 41.6409 144.229C44.3435 148.234 47.3465 151.338 49.4485 155.644C46.5457 154.743 45.0442 152.239 42.2414 152.54C42.5417 153.041 42.6418 153.341 42.842 153.541C44.1433 155.143 45.4446 156.745 46.7459 158.347C45.7449 158.147 44.7439 158.047 43.6428 157.847C45.9451 160.05 47.947 161.852 49.949 163.755C49.949 163.855 49.949 163.855 49.949 163.955C48.6477 163.855 47.6467 163.354 46.5457 162.853C43.6428 161.351 40.74 159.749 37.737 158.548C35.5349 157.647 33.0324 157.446 30.1296 158.448C32.632 159.549 35.1345 159.749 36.3357 162.553C31.9313 162.152 27.7272 160.15 23.0226 161.552C25.4249 162.853 27.4269 163.955 29.4289 164.956C24.3239 165.357 19.319 165.557 14.7144 168.461C17.6173 168.761 20.2198 169.162 23.423 169.462C14.8145 171.965 12.5123 172.967 9.80962 175.77C11.9117 175.871 14.0137 174.469 16.8165 175.57C14.314 177.373 12.5123 179.275 10.21 180.276C3.90383 183.08 1.40137 188.287 0 194.595C2.10206 193.594 3.60354 192.292 4.70462 190.49C5.4053 189.288 6.40629 187.986 8.30815 187.886C4.70462 197.599 3.50344 202.706 4.20412 205.71C7.20707 201.604 8.70854 196.698 12.7125 193.193C12.5123 197.799 10.3101 201.805 11.211 206.21C12.9127 202.405 13.8136 198.3 16.6163 194.795C19.319 191.591 21.3209 187.686 24.6242 184.782C23.6232 186.985 22.7223 189.288 21.7213 191.491C23.1227 191.091 24.1237 190.29 24.9245 189.488C27.6271 186.785 30.2297 183.981 32.8322 181.278C33.8332 180.276 34.9343 179.175 36.9362 178.574C35.3347 181.478 32.7321 183.08 32.0314 186.685C36.9362 183.681 41.3406 181.077 45.7449 178.374C45.845 178.474 45.9451 178.674 46.1453 178.774C44.844 180.376 43.6428 181.878 42.3415 183.481C42.4416 183.581 42.6418 183.781 42.7419 183.881C44.6438 183.08 46.4456 182.379 48.3474 181.678C47.6467 183.08 46.6458 184.081 45.6448 185.183C41.5408 189.789 37.3366 194.395 35.5349 200.503C34.3337 204.508 33.4328 208.614 32.9323 212.719C32.4318 218.126 34.5339 222.832 37.9372 227.038C37.6369 224.735 37.1364 222.432 36.736 220.129C36.3356 217.826 36.1355 215.523 37.8371 213.22C39.2385 216.424 40.4397 219.328 41.6409 222.232C42.0412 217.125 41.3406 212.218 42.7419 207.112C43.3425 209.014 43.9431 210.616 44.4436 212.118C44.7439 212.118 44.9441 212.118 45.2444 212.118C45.7449 210.917 46.3455 209.815 46.7459 208.614C47.6467 205.81 48.4475 202.906 49.0481 200.002C49.4485 198.1 50.7498 196.898 52.4515 195.196C52.1512 197.799 51.951 199.902 51.7508 201.905C51.951 202.005 52.1512 202.105 52.3514 202.205C53.4524 201.104 54.5535 200.002 55.7547 198.701C55.9549 199.301 56.2552 199.702 56.2552 200.002C56.055 204.208 55.6546 208.413 55.5545 212.619C55.3543 218.026 56.3553 223.333 57.5565 228.64C57.9569 226.838 58.3573 225.035 58.8577 222.932C60.9598 227.138 59.158 231.844 61.6605 235.649C63.9628 233.647 62.5614 230.843 63.9628 228.44C65.3641 232.445 66.0648 236.45 68.7675 239.554C68.5673 237.652 68.3671 235.649 68.267 233.747C71.37 236.65 73.7724 239.955 77.1757 242.358C75.5741 239.054 73.1718 236.15 72.8715 231.744C74.7734 232.845 76.2748 233.747 78.2768 234.948C75.5742 230.943 72.5712 227.839 70.4691 223.533C73.372 224.434 74.8735 226.938 77.6762 226.637C77.3759 226.137 77.2758 225.836 77.0756 225.636C75.1738 223.233 73.1718 220.83 71.2699 218.527C69.7685 216.624 69.9686 214.421 69.6684 211.517C71.1698 213.12 71.9706 214.421 73.1718 215.322C74.373 216.324 75.8744 216.925 77.1757 217.726C75.8744 214.822 74.1728 212.419 72.8715 209.815C71.4701 207.212 69.7684 204.809 69.4682 201.705C70.369 202.205 70.9696 202.906 71.4701 203.607C76.5751 210.716 81.8803 217.826 86.7851 225.135C93.1914 234.748 99.2974 244.661 105.704 254.374C108.807 259.08 112.01 263.786 115.513 268.192C120.618 274.701 124.923 281.61 128.426 289.019C133.431 299.533 138.536 310.147 143.441 320.661C146.243 326.569 148.846 332.577 150.948 338.785C152.349 343.09 155.152 351.001 156.453 357.61C158.155 366.822 160.858 374.832 162.459 384.044C163.16 385.947 166.263 398.764 167.965 405.372Z"/>
</mask>
<path fill-rule="evenodd" clip-rule="evenodd" d="M167.965 405.372C174.171 406.474 177.774 406.274 183.08 403.27C183.18 399.965 181.878 397.262 181.078 393.357C179.977 388.25 177.975 381.441 176.673 376.434C175.973 373.631 175.272 370.827 174.471 368.123C173.47 364.719 172.269 361.314 171.268 357.91C170.267 354.806 169.566 351.602 168.365 348.498C166.063 342.49 163.861 336.382 161.158 330.474C158.255 323.965 154.852 317.657 151.749 311.249C150.047 307.744 148.646 304.139 147.144 300.534C144.242 293.826 141.339 287.117 137.235 281.109C134.232 276.703 130.828 272.598 127.926 268.092C123.121 260.682 118.716 253.072 113.912 245.662C111.71 242.158 109.407 238.853 106.905 235.549C103.502 230.943 99.6978 226.637 96.2945 222.031C92.0904 216.224 87.9863 210.316 83.8823 204.408C81.6801 201.204 79.5781 197.799 77.476 194.595C78.8774 195.096 79.8784 195.897 80.8793 196.798C82.8813 198.6 84.6831 200.503 86.7851 202.105C88.5869 203.507 90.2886 205.009 90.9893 207.212C91.3897 208.614 91.9902 209.915 92.4907 211.217C93.0913 212.719 93.5918 214.221 95.5938 214.922C95.3936 212.519 95.2935 210.416 94.9932 208.313C94.6929 206.21 94.1924 204.108 93.5918 201.404C97.7959 206.411 98.3965 212.619 102.4 216.925C102.601 216.824 102.901 216.824 103.101 216.724C102.801 214.722 102.501 212.819 102.1 210.316C105.504 213.62 106.905 217.926 110.709 220.73C110.709 217.926 109.207 215.823 109.708 213.52C114.012 219.228 116.715 225.836 120.118 231.944C120.418 231.844 120.618 231.744 120.919 231.644C120.018 228.039 119.217 224.334 118.216 220.329C119.417 220.73 120.118 221.03 120.919 221.33C121.119 221.23 121.219 221.03 121.419 220.93C118.917 216.724 116.314 212.519 113.411 207.712C117.315 209.615 119.117 213.42 123.521 214.221C121.319 211.117 119.517 208.413 117.515 205.91C115.413 203.307 113.011 201.004 110.508 198.2C112.41 198.3 113.812 199.602 115.413 199.101C115.213 198.701 115.213 198.5 115.113 198.4C110.508 194.795 105.604 191.591 99.898 189.789C98.5967 189.388 97.4957 188.788 96.8951 187.185C100.398 186.985 102.901 189.589 106.404 189.989C105.203 188.687 104.302 187.686 103.001 186.384C107.405 186.785 110.508 189.188 114.012 190.69C114.112 190.49 114.312 190.39 114.412 190.189C113.111 188.487 111.91 186.785 110.609 184.983C113.011 185.984 115.113 187.386 117.215 188.687C122.02 191.791 122.52 191.892 124.222 191.892C121.219 188.687 117.215 186.484 114.913 182.579C116.414 182.079 117.816 183.681 119.517 182.279C117.415 180.877 115.613 179.575 113.712 178.474C111.81 177.373 109.708 176.571 107.706 175.57C108.406 175.17 109.007 174.869 110.008 174.268C105.003 173.067 100.599 172.066 95.794 170.964C97.796 170.363 99.2974 169.863 100.899 169.362C100.899 169.162 100.799 168.861 100.799 168.661C96.4947 166.558 91.5899 166.959 87.0854 165.457C95.1934 164.155 103.301 163.654 111.509 163.855C110.609 163.254 109.708 162.753 108.707 162.553C104.402 161.552 100.098 160.651 95.794 159.649C95.0933 159.449 94.1924 159.749 93.8921 158.548C102.901 157.647 111.81 159.449 120.618 159.048C120.618 158.848 120.718 158.648 120.718 158.448C116.514 156.745 112.41 155.143 108.206 153.541C111.81 153.241 115.413 153.041 118.917 153.341C122.42 153.641 125.723 155.143 129.427 155.043C129.127 154.242 128.726 153.441 128.126 153.141C125.323 151.739 122.52 150.037 119.517 149.236C115.413 148.134 111.009 147.834 106.805 147.233C106.204 147.133 105.604 146.832 104.503 146.532C108.607 144.229 112.911 143.929 116.815 142.427C107.405 140.023 98.5967 142.427 90.0884 146.532C94.0923 142.527 98.7969 139.723 103.401 136.719C99.0972 136.719 95.5938 138.622 91.9902 140.324C88.2866 142.126 84.4829 143.828 81.2797 146.232C78.2768 148.535 75.8744 151.839 73.2719 154.643C75.7743 149.636 80.3789 145.731 80.9794 139.423C76.3749 143.127 71.9706 146.732 67.5663 150.337C67.266 149.936 66.9657 149.436 66.4652 148.635C65.4642 151.038 64.4632 153.441 63.4623 155.744C63.162 154.042 62.7616 152.239 62.3612 150.537C61.9608 152.34 61.5604 154.142 61.0599 156.245C58.9578 152.039 60.7596 147.333 58.2572 143.528C55.9549 145.531 57.3563 148.334 55.9549 150.737C54.5535 146.732 53.8528 142.727 51.1502 139.623C51.3504 141.525 51.5506 143.528 51.6507 145.431C48.5476 142.527 46.1453 139.222 42.7419 136.819C44.3435 140.124 46.7459 143.027 47.0462 147.433C45.1443 146.332 43.6428 145.431 41.6409 144.229C44.3435 148.234 47.3465 151.338 49.4485 155.644C46.5457 154.743 45.0442 152.239 42.2414 152.54C42.5417 153.041 42.6418 153.341 42.842 153.541C44.1433 155.143 45.4446 156.745 46.7459 158.347C45.7449 158.147 44.7439 158.047 43.6428 157.847C45.9451 160.05 47.947 161.852 49.949 163.755C49.949 163.855 49.949 163.855 49.949 163.955C48.6477 163.855 47.6467 163.354 46.5457 162.853C43.6428 161.351 40.74 159.749 37.737 158.548C35.5349 157.647 33.0324 157.446 30.1296 158.448C32.632 159.549 35.1345 159.749 36.3357 162.553C31.9313 162.152 27.7272 160.15 23.0226 161.552C25.4249 162.853 27.4269 163.955 29.4289 164.956C24.3239 165.357 19.319 165.557 14.7144 168.461C17.6173 168.761 20.2198 169.162 23.423 169.462C14.8145 171.965 12.5123 172.967 9.80962 175.77C11.9117 175.871 14.0137 174.469 16.8165 175.57C14.314 177.373 12.5123 179.275 10.21 180.276C3.90383 183.08 1.40137 188.287 0 194.595C2.10206 193.594 3.60354 192.292 4.70462 190.49C5.4053 189.288 6.40629 187.986 8.30815 187.886C4.70462 197.599 3.50344 202.706 4.20412 205.71C7.20707 201.604 8.70854 196.698 12.7125 193.193C12.5123 197.799 10.3101 201.805 11.211 206.21C12.9127 202.405 13.8136 198.3 16.6163 194.795C19.319 191.591 21.3209 187.686 24.6242 184.782C23.6232 186.985 22.7223 189.288 21.7213 191.491C23.1227 191.091 24.1237 190.29 24.9245 189.488C27.6271 186.785 30.2297 183.981 32.8322 181.278C33.8332 180.276 34.9343 179.175 36.9362 178.574C35.3347 181.478 32.7321 183.08 32.0314 186.685C36.9362 183.681 41.3406 181.077 45.7449 178.374C45.845 178.474 45.9451 178.674 46.1453 178.774C44.844 180.376 43.6428 181.878 42.3415 183.481C42.4416 183.581 42.6418 183.781 42.7419 183.881C44.6438 183.08 46.4456 182.379 48.3474 181.678C47.6467 183.08 46.6458 184.081 45.6448 185.183C41.5408 189.789 37.3366 194.395 35.5349 200.503C34.3337 204.508 33.4328 208.614 32.9323 212.719C32.4318 218.126 34.5339 222.832 37.9372 227.038C37.6369 224.735 37.1364 222.432 36.736 220.129C36.3356 217.826 36.1355 215.523 37.8371 213.22C39.2385 216.424 40.4397 219.328 41.6409 222.232C42.0412 217.125 41.3406 212.218 42.7419 207.112C43.3425 209.014 43.9431 210.616 44.4436 212.118C44.7439 212.118 44.9441 212.118 45.2444 212.118C45.7449 210.917 46.3455 209.815 46.7459 208.614C47.6467 205.81 48.4475 202.906 49.0481 200.002C49.4485 198.1 50.7498 196.898 52.4515 195.196C52.1512 197.799 51.951 199.902 51.7508 201.905C51.951 202.005 52.1512 202.105 52.3514 202.205C53.4524 201.104 54.5535 200.002 55.7547 198.701C55.9549 199.301 56.2552 199.702 56.2552 200.002C56.055 204.208 55.6546 208.413 55.5545 212.619C55.3543 218.026 56.3553 223.333 57.5565 228.64C57.9569 226.838 58.3573 225.035 58.8577 222.932C60.9598 227.138 59.158 231.844 61.6605 235.649C63.9628 233.647 62.5614 230.843 63.9628 228.44C65.3641 232.445 66.0648 236.45 68.7675 239.554C68.5673 237.652 68.3671 235.649 68.267 233.747C71.37 236.65 73.7724 239.955 77.1757 242.358C75.5741 239.054 73.1718 236.15 72.8715 231.744C74.7734 232.845 76.2748 233.747 78.2768 234.948C75.5742 230.943 72.5712 227.839 70.4691 223.533C73.372 224.434 74.8735 226.938 77.6762 226.637C77.3759 226.137 77.2758 225.836 77.0756 225.636C75.1738 223.233 73.1718 220.83 71.2699 218.527C69.7685 216.624 69.9686 214.421 69.6684 211.517C71.1698 213.12 71.9706 214.421 73.1718 215.322C74.373 216.324 75.8744 216.925 77.1757 217.726C75.8744 214.822 74.1728 212.419 72.8715 209.815C71.4701 207.212 69.7684 204.809 69.4682 201.705C70.369 202.205 70.9696 202.906 71.4701 203.607C76.5751 210.716 81.8803 217.826 86.7851 225.135C93.1914 234.748 99.2974 244.661 105.704 254.374C108.807 259.08 112.01 263.786 115.513 268.192C120.618 274.701 124.923 281.61 128.426 289.019C133.431 299.533 138.536 310.147 143.441 320.661C146.243 326.569 148.846 332.577 150.948 338.785C152.349 343.09 155.152 351.001 156.453 357.61C158.155 366.822 160.858 374.832 162.459 384.044C163.16 385.947 166.263 398.764 167.965 405.372Z" stroke="#EEEEEE" stroke-width="2" mask="url(#path-3-inside-2_1001_5363)"/>
<path d="M119.973 82.085C117.004 83.0582 112.972 84.4166 108.726 85.9561C104.48 87.495 100.014 89.2175 96.1768 90.9189C92.3561 92.6129 89.1035 94.309 87.3291 95.8057L87.1074 95.9922L87.1592 96.2773L87.5488 98.4189C87.5131 98.4502 87.4738 98.4865 87.4287 98.5244C87.2203 98.6996 86.9164 98.9392 86.5391 99.1914C85.7812 99.6978 84.7531 100.238 83.6221 100.438C82.4838 100.597 81.3496 100.419 80.4854 100.191C80.0553 100.078 79.6985 99.9549 79.4512 99.8604C79.3974 99.8398 79.3496 99.8191 79.3066 99.8018L78.916 97.6514L78.8652 97.374L78.6016 97.2734L78.1748 97.1221C75.9616 96.3809 72.5132 95.8822 68.5918 95.5449C64.3907 95.1835 59.5887 95.0029 55.0576 94.9219C50.5255 94.8409 46.258 94.8603 43.124 94.8994C42.535 94.9068 41.9857 94.9146 41.4824 94.9229C41.5799 94.8923 41.6795 94.8616 41.7803 94.8301C43.9708 94.1441 46.9132 93.2302 49.9209 92.3193C52.9294 91.4083 56.0004 90.501 58.4492 89.8271C59.6742 89.4901 60.739 89.2125 61.5605 89.0225C61.9714 88.9274 62.3165 88.8553 62.5879 88.8086C62.8713 88.7598 63.0394 88.745 63.1133 88.748L63.123 88.749H63.1338C63.6324 88.7491 64.6855 88.8959 66.0654 89.1299C67.4281 89.361 69.0596 89.6673 70.6875 89.9697C72.3123 90.2716 73.9335 90.5697 75.2646 90.7812C75.93 90.887 76.5283 90.9722 77.0215 91.0254C77.5028 91.0773 77.9211 91.1029 78.207 91.0762C79.1516 90.9878 80.0697 90.8344 80.749 90.7031C81.0894 90.6374 81.3718 90.5772 81.5693 90.5332C81.668 90.5112 81.7455 90.493 81.7988 90.4805C81.8195 90.4756 81.8364 90.4709 81.8496 90.4678C81.8625 90.4665 81.8786 90.4658 81.8975 90.4639C81.953 90.4581 82.0345 90.4492 82.1367 90.4375C82.341 90.4141 82.631 90.3784 82.9766 90.3291C83.6665 90.2308 84.5855 90.0776 85.4863 89.8564C85.7591 89.7894 86.1408 89.6307 86.5742 89.4277C87.0188 89.2195 87.5531 88.9469 88.1445 88.6338C89.328 88.0073 90.7592 87.2063 92.1924 86.3975C93.6281 85.5872 95.0659 84.7698 96.2725 84.1055C97.4861 83.4372 98.4276 82.9441 98.8965 82.7627L98.8975 82.7637C98.9797 82.7335 99.1553 82.6915 99.4453 82.6455C99.7255 82.6011 100.083 82.5574 100.51 82.5137C101.362 82.4262 102.472 82.3424 103.75 82.2637C106.306 82.1063 109.52 81.9687 112.671 81.8555C115.821 81.7423 118.906 81.6534 121.204 81.5928C121.308 81.59 121.411 81.5876 121.512 81.585C121.039 81.7378 120.524 81.9043 119.973 82.085Z" stroke="#EEEEEE"/>
<path d="M185.596 50.7715C186.58 50.8766 187.748 51.0043 188.933 51.1426C190.458 51.3206 192.01 51.5147 193.238 51.6973C193.853 51.7887 194.381 51.8766 194.782 51.957C194.983 51.9973 195.147 52.0347 195.271 52.0684C195.332 52.0851 195.38 52.0998 195.415 52.1123C195.442 52.1219 195.456 52.128 195.46 52.1299C195.648 52.234 196.045 52.5471 196.591 53.0137C197.12 53.4662 197.745 54.0248 198.371 54.583C198.994 55.1387 199.617 55.6946 200.135 56.1338C200.393 56.3532 200.63 56.5478 200.83 56.7002C201.018 56.8433 201.21 56.9779 201.366 57.0488C201.792 57.2412 202.235 57.3828 202.565 57.4756C202.732 57.5223 202.874 57.5584 202.974 57.582C203.02 57.5929 203.058 57.6004 203.085 57.6064C203.11 57.6172 203.143 57.6317 203.184 57.6484C203.277 57.687 203.409 57.7404 203.57 57.7988C203.891 57.9151 204.331 58.0576 204.802 58.1533C204.985 58.1907 205.231 58.1837 205.469 58.167C205.724 58.149 206.031 58.1142 206.368 58.0684C207.043 57.9766 207.867 57.8382 208.687 57.6992C209.511 57.5595 210.331 57.419 211.012 57.3184C211.352 57.2681 211.651 57.2282 211.896 57.2041C212.149 57.1791 212.312 57.1737 212.394 57.1807L212.396 57.1816C212.396 57.1816 212.401 57.1819 212.411 57.1836C212.422 57.1854 212.437 57.1879 212.456 57.1924C212.495 57.2014 212.544 57.2153 212.606 57.2344C212.731 57.2727 212.89 57.3285 213.082 57.4014C213.465 57.547 213.958 57.7528 214.523 58C215.654 58.4939 217.058 59.1461 218.431 59.7969C219.47 60.2895 220.488 60.781 221.354 61.2012C219.857 61.0806 217.874 60.9403 215.765 60.8496C213.557 60.7546 211.203 60.7132 209.121 60.8018C207.059 60.8895 205.2 61.1068 204.021 61.5625L203.789 61.6523L203.721 61.8896L203.344 63.1895C203.343 63.1899 203.342 63.1909 203.341 63.1914C203.215 63.2459 203.037 63.3156 202.827 63.375C202.396 63.4975 201.893 63.5588 201.459 63.4229L201.449 63.4199C200.958 63.277 200.55 62.9474 200.254 62.626C200.111 62.4705 200 62.324 199.926 62.2168L200.301 60.9209L200.369 60.6846L200.224 60.4863C199.469 59.4549 198.005 58.2612 196.296 57.0703C194.571 55.8683 192.542 54.6322 190.608 53.5205C188.735 52.4431 186.944 51.4793 185.596 50.7715Z" stroke="#EEEEEE"/>
</g>
</svg>
