<svg width="22" height="22" viewBox="0 0 22 22" fill="none" xmlns="http://www.w3.org/2000/svg">
<g clip-path="url(#clip0_8367_31)">
<path d="M21.4013 16.1458L18.3311 13.0756C17.2347 11.9791 15.3706 12.4178 14.932 13.8432C14.6031 14.83 13.5066 15.3783 12.5198 15.1589C10.3268 14.6107 7.36627 11.7598 6.81803 9.45721C6.48908 8.47032 7.14697 7.37384 8.13381 7.04493C9.55925 6.60634 9.99784 4.74231 8.90135 3.64582L5.83119 0.575656C4.954 -0.191885 3.63821 -0.191885 2.87067 0.575656L0.787343 2.65898C-1.29598 4.85196 1.00664 10.6633 6.16013 15.8168C11.3136 20.9703 17.125 23.3826 19.318 21.1896L21.4013 19.1063C22.1689 18.2291 22.1689 16.9133 21.4013 16.1458Z" fill="#110F0F"/>
</g>
<defs>
<clipPath id="clip0_8367_31">
<rect width="22" height="22" fill="white"/>
</clipPath>
</defs>
</svg>
