<svg width="159" height="124" viewBox="0 0 159 124" fill="none" xmlns="http://www.w3.org/2000/svg">
<mask id="mask0_1151_22006" style="mask-type:alpha" maskUnits="userSpaceOnUse" x="0" y="0" width="124" height="124">
<rect width="124" height="124" fill="#D9D9D9"/>
</mask>
<g mask="url(#mask0_1151_22006)">
<path d="M97.4426 23.208C97.4426 23.208 111.577 31.4827 103.515 52.2194C95.5513 72.956 71.1641 96.3844 71.1641 96.3844L97.4426 23.208Z" fill="#EBBB01"/>
<path d="M81.1185 8.15411C81.1185 8.15411 103.814 5.86111 101.624 34.4737C99.3343 62.9866 71.1646 96.3845 71.1646 96.3845H67.6807L81.1185 8.15411Z" fill="#0C62D1"/>
<path d="M31.1492 14.8335C31.1492 14.8335 18.7067 18.0237 19.0053 39.857C19.3039 61.6903 49.7631 96.2846 49.7631 96.2846L31.1492 14.8335Z" fill="#0C62D1"/>
<path d="M49.7637 7.85503C49.7637 7.85503 37.3212 -2.71268 27.9644 15.2325C18.7072 33.1777 49.7637 96.3845 49.7637 96.3845H55.537L49.7637 7.85503Z" fill="#F4BD0F"/>
<path d="M65.49 3.96685C65.49 3.96685 53.3461 -9.79111 41.7995 13.9364C30.2529 37.6639 55.536 96.3844 55.536 96.3844H61.9066L65.49 3.96685Z" fill="#FA6142"/>
<path d="M65.4898 3.96715C65.4898 3.96715 80.2217 -7.89659 87.289 14.8339C94.3563 37.5645 67.7792 96.2851 67.7792 96.2851H62.0059L65.4898 3.96715Z" fill="#EBBB01"/>
<path d="M55.835 114.03V120.211C55.835 122.305 57.5271 124 59.6175 124H61.9069C63.9972 124 65.6894 122.305 65.6894 120.211V114.03H55.835Z" fill="#0C62D1"/>
<path d="M49.7637 96.3848C49.9628 97.3817 55.8356 114.031 55.8356 114.031" stroke="#353140" stroke-width="0.25" stroke-miterlimit="10"/>
<path d="M71.1643 96.3848L65.7892 114.031" stroke="#353140" stroke-width="0.25" stroke-miterlimit="10"/>
</g>
<mask id="mask1_1151_22006" style="mask-type:alpha" maskUnits="userSpaceOnUse" x="89" y="33" width="70" height="70">
<rect x="89" y="33" width="70" height="70" fill="#D9D9D9"/>
</mask>
<g mask="url(#mask1_1151_22006)">
<path d="M144.008 46.1011C144.008 46.1011 151.987 50.7723 147.435 62.4785C142.94 74.1846 129.173 87.4103 129.173 87.4103L144.008 46.1011Z" fill="#EBBB01"/>
<path d="M134.793 37.6033C134.793 37.6033 147.605 36.3089 146.368 52.4611C145.076 68.5571 129.174 87.4108 129.174 87.4108H127.207L134.793 37.6033Z" fill="#0C62D1"/>
<path d="M106.584 41.3735C106.584 41.3735 99.5605 43.1745 99.7291 55.4997C99.8976 67.825 117.092 87.354 117.092 87.354L106.584 41.3735Z" fill="#0C62D1"/>
<path d="M117.093 37.4343C117.093 37.4343 110.069 31.4687 104.787 41.599C99.5608 51.7293 117.093 87.4106 117.093 87.4106H120.352L117.093 37.4343Z" fill="#F4BD0F"/>
<path d="M125.97 35.2394C125.97 35.2394 119.115 27.4728 112.597 40.8673C106.078 54.2619 120.351 87.4106 120.351 87.4106H123.947L125.97 35.2394Z" fill="#FA6142"/>
<path d="M125.97 35.2396C125.97 35.2396 134.286 28.5423 138.276 41.3741C142.266 54.2059 127.262 87.3546 127.262 87.3546H124.003L125.97 35.2396Z" fill="#EBBB01"/>
<path d="M120.52 97.3716V100.861C120.52 102.043 121.475 103 122.655 103H123.948C125.128 103 126.083 102.043 126.083 100.861V97.3716H120.52Z" fill="#0C62D1"/>
<path d="M117.092 87.4106C117.205 87.9734 120.52 97.3721 120.52 97.3721" stroke="#353140" stroke-width="0.25" stroke-miterlimit="10"/>
<path d="M129.174 87.4106L126.139 97.3721" stroke="#353140" stroke-width="0.25" stroke-miterlimit="10"/>
</g>
</svg>
