<svg width="139" height="110" viewBox="0 0 139 110" fill="none" xmlns="http://www.w3.org/2000/svg">
<mask id="mask0_1151_22609" style="mask-type:alpha" maskUnits="userSpaceOnUse" x="89" y="30" width="50" height="50">
<rect x="89" y="30" width="50" height="50" fill="#D9D9D9"/>
</mask>
<g mask="url(#mask0_1151_22609)">
<path d="M127.914 39.4706C127.914 39.4706 133.664 42.8363 130.439 51.1105C127.073 59.5249 117.256 68.921 117.256 68.921L127.914 39.4706Z" fill="#FA6142"/>
<path d="M121.322 33.3001C121.322 33.3001 130.438 32.4586 129.596 43.9583C128.614 55.458 117.255 68.9211 117.255 68.9211H115.853L121.322 33.3001Z" fill="#F29D89"/>
<path d="M101.127 36.1049C101.127 36.1049 96.0786 37.367 96.2189 46.2021C96.3591 55.0373 108.56 68.921 108.56 68.921L101.127 36.1049Z" fill="#F29D89"/>
<path d="M108.562 33.3001C108.562 33.3001 103.514 29.0929 99.7274 36.2451C95.9409 43.5376 108.562 68.921 108.562 68.921H110.947L108.562 33.3001Z" fill="#FA6142"/>
<path d="M115.01 31.617C115.01 31.617 110.102 26.0074 105.474 35.6839C100.846 45.2203 111.083 68.9208 111.083 68.9208H113.608L115.01 31.617Z" fill="#F29D89"/>
<path d="M115.013 31.6169C115.013 31.6169 120.903 26.8487 123.848 35.9643C126.653 45.0799 115.994 68.7805 115.994 68.7805H113.61L115.013 31.6169Z" fill="#FA6142"/>
<path d="M113.045 80.0001C111.924 80.0001 111.082 79.1586 111.082 78.0367V76.0734H115.149V78.0367C115.149 79.1586 114.167 80.0001 113.045 80.0001Z" fill="#FA6142"/>
<path d="M108.562 68.9208C108.562 69.3415 111.086 76.073 111.086 76.073" stroke="#353140" stroke-width="0.25" stroke-miterlimit="10"/>
<path d="M117.256 68.9208L115.152 76.073" stroke="#353140" stroke-width="0.25" stroke-miterlimit="10"/>
</g>
<mask id="mask1_1151_22609" style="mask-type:alpha" maskUnits="userSpaceOnUse" x="0" y="0" width="110" height="110">
<rect width="110" height="110" fill="#D9D9D9"/>
</mask>
<g mask="url(#mask1_1151_22609)">
<path d="M85.6122 20.8353C85.6122 20.8353 98.2618 28.24 91.1657 46.4432C83.761 64.9549 62.1641 85.6262 62.1641 85.6262L85.6122 20.8353Z" fill="#FA6142"/>
<path d="M71.1069 7.26015C71.1069 7.26015 91.1612 5.40898 89.31 30.7083C87.1503 56.0076 62.1596 85.6263 62.1596 85.6263H59.0743L71.1069 7.26015Z" fill="#F29D89"/>
<path d="M26.68 13.4308C26.68 13.4308 15.573 16.2075 15.8815 35.6448C16.1901 55.0821 43.032 85.6263 43.032 85.6263L26.68 13.4308Z" fill="#F29D89"/>
<path d="M43.0371 7.2602C43.0371 7.2602 31.9301 -1.99565 23.5998 13.7393C15.2696 29.7827 43.0371 85.6263 43.0371 85.6263H48.2821L43.0371 7.2602Z" fill="#FA6142"/>
<path d="M57.2232 3.55752C57.2232 3.55752 46.4247 -8.7836 36.2433 12.5048C26.0619 33.4847 48.5844 85.626 48.5844 85.626H54.1379L57.2232 3.55752Z" fill="#F29D89"/>
<path d="M57.2269 3.55719C57.2269 3.55719 70.1851 -6.93276 76.6641 13.1216C82.8347 33.1759 59.3866 85.3171 59.3866 85.3171H54.1416L57.2269 3.55719Z" fill="#FA6142"/>
<path d="M52.9014 110C50.4332 110 48.582 108.149 48.582 105.681V101.361H57.5293V105.681C57.5293 108.149 55.3696 110 52.9014 110Z" fill="#FA6142"/>
<path d="M43.034 85.6257C43.034 86.5513 48.5875 101.361 48.5875 101.361" stroke="#353140" stroke-width="0.25" stroke-miterlimit="10"/>
<path d="M62.1629 85.6257L57.535 101.361" stroke="#353140" stroke-width="0.25" stroke-miterlimit="10"/>
</g>
</svg>
